<svg xmlns="http://www.w3.org/2000/svg" width="1120" height="275.011" viewBox="0 0 1120 275.011">
  <g id="Grupo_10797" data-name="Grupo 10797" transform="translate(-1944.41 927.316)">
    <path id="Trazado_2604" data-name="Trazado 2604" d="M2636.174-832.047l-.312-1.479c31.237-9.606,407.351-86.811,428.549-93.79h-1120l407.562,235.165.081.026.021-.056c1.76-4.625,4.7-15.169,8.741-31.34,3.928.735,7.342,1.529,11.806,2.533,5.239,1.179,12.458,2.741,18.915,3.962l.329-1.736c.739-3.556,1.54-7.407,2.394-11.482.109-.53.222-1.063.333-1.6,1.383-6.6,2.856-13.647,4.338-20.806,1.738-8.389,3.491-16.931,5.126-25.075h140.681c3.819,3.454,10.1,8.527,19.935,15.934,0,0,38.37,25.423,43.55,28.1,4.222,2.19,8.343,4.577,12.061,6.514.028.018.057.041.08.056.139-.026.285-.065.431-.1-.014-.056-.038-.112-.053-.16a13.816,13.816,0,0,0,1.453-.331c.444-.18.932-.414,1.487-.689.3-.06,5.94-.832,7.084-1.086a8.873,8.873,0,0,1,.9-.055c-.083-.482-.184-.962-.284-1.451l-.155-.728c-2.929-14.03-6.391-30.669-9.461-46.008h27.044C2644.336-795.449,2639.794-813.695,2636.174-832.047Z" fill="#002b45"/>
    <path id="Trazado_1582" data-name="Trazado 1582" d="M2732.754-709.08a3.439,3.439,0,0,0-.679-.561.927.927,0,0,1-.08-.056c-3.719-1.936-7.84-4.326-12.061-6.514-5.18-2.679-43.55-28.1-43.55-28.1-14.957-11.268-21.706-17.137-24.051-20.115-.118-.151-.24-.3-.34-.442,0,0-.71-1.067-1.809-2.731-3.08-4.654-9.184-14-11.142-17.806,2-1.354,9.414-6.673,10.763-7.821a17.594,17.594,0,0,0,6.13-9.687,21.284,21.284,0,0,1-7.22,8.449c-1.522,1.086-4.968,3.51-6.532,4.556-.168.115-.375.24-.608.379-1.55.914-4.223,2.219-4.223,2.219-4.5,1.122-5.03,1.581-7.161,2.163-1.877.518-2.369.7-5.794,1.638-3.148.856-3.525,1.292-7.458,1.752.787-1.952,4.939-11.933,5.6-13.934-1.327,2.132-5.082,9.59-6.368,11.72-.18.048-.392.652-.392.652-.018.031-.037.062-.058.091-1.447,2.362-2.923,4.69-4.554,6.886s-5.643,6.422-8.012,7.784c-12.809,7.356-26.575,8.547-35.924,6.371a21.452,21.452,0,0,1-5.2-2.957c-3.464-2.745-4.956-6.127-4.188-9.518l.1-.283a66.171,66.171,0,0,1,6.761-10.594c1.951-2.273,3.986-4.5,6.067-6.761,5.569-6.061,11.32-12.331,15.913-20.387,3.482-4.877,7.233-6.181,13.621-8.366,7.441-1.569,13.343-3.7,20.208-5.907,1.922-.62,3.916-1.247,6.044-1.865.891-.266,2.244-.684,3.642-1.122,1.152-.353,2.331-.717,3.321-1.011a.111.111,0,0,1-.032-.018c-1.33-.613-1.51-.685-2.348-1.077-9-3.613-25.846-7.611-31.48-7.269-21.152,7.8-36.677,15.436-67.389,37.5l-.416.2a15.218,15.218,0,0,1-4.146.6,23.112,23.112,0,0,1-4.378-.494c-1.623,12.247-7.23,40.027-12.686,66.347-1.483,7.163-2.955,14.209-4.334,20.8h0c.032-.119.049-.2.049-.2.583.008,3.125.4,6.266.99.524.1,18.459,21.443,38.832,40.757,15.732,14.9,32.239,29.438,47.516,26.767,2.454.881,4.925,1.759,7.3,2.6h0c.032-.046,3.6,1.086,5.318,1.673l3.144,1.113c7.044,2.505,11.385,3.855,12.464,4.109,6.352,1.522,15.08-3.913,19.723-8.148q-1.856-.946-3.68-1.941c-6.745-3.739-13.22-7.841-19.734-11.87-3.246-2.014-6.49-4.036-9.78-5.982a111.153,111.153,0,0,0-10.1-5.438,73.954,73.954,0,0,1,10.592,4.567c3.431,1.747,6.779,3.625,10.1,5.541,6.63,3.846,13.168,7.841,19.917,11.377a88.129,88.129,0,0,0,10.317,4.71q1.317.492,2.657.881a21.833,21.833,0,0,0,2.627.615,14.041,14.041,0,0,0,5.252-.4,27.733,27.733,0,0,0,13.444-8.96,14.419,14.419,0,0,0,2.374-3.949,73.711,73.711,0,0,1-7.375-3.547c-7.541-4.113-14.627-8.851-21.772-13.448q-5.357-3.467-10.766-6.794c-3.626-2.2-7.229-4.417-11.034-6.362a65.2,65.2,0,0,1,11.708,5.245c3.734,2.066,7.347,4.326,10.967,6.549,7.243,4.464,14.415,9.058,21.9,12.963,1.867.973,3.771,1.879,5.688,2.708a38,38,0,0,0,5.856,2.013,11.679,11.679,0,0,0,5.777-.142,23.892,23.892,0,0,0,5.615-2.251,33.558,33.558,0,0,0,9.409-7.754,20.012,20.012,0,0,0,4.76-9.9c-.119-.024-.262-.061-.438-.1l-1.042-.343a59.184,59.184,0,0,1-6.46-2.27c-2.583-1.054-5.086-2.255-7.555-3.492s-4.907-2.541-7.305-3.9-4.754-2.786-7.1-4.234-4.655-2.94-6.946-4.469c-2.271-1.534-4.519-3.152-6.7-4.788-2.2-1.55-4.567-2.959-6.911-4.356s-7.291-4.119-9.715-5.42c2.564,1.005,7.618,3.534,10.1,4.727a82.266,82.266,0,0,1,7.284,3.956c4.63,2.95,9.243,5.843,13.983,8.573q3.546,2.053,7.171,3.965c2.4,1.276,4.82,2.544,7.268,3.724s4.931,2.3,7.435,3.351a54.49,54.49,0,0,0,7.579,2.6l-.013.056c6.4.488,12.9-3.024,17.075-9.324C2735.62-698.707,2733.757-706.2,2732.754-709.08Z" transform="translate(-111.703 -17.489)" fill="#fff"/>
    <path id="Trazado_1583" data-name="Trazado 1583" d="M2616.837-640.818a14.656,14.656,0,0,0-10.223-6.966c-3.255-.438-5.922,1.6-8.333,4.138-1.763,1.694-3.77,3.823-5.952,6.064-.015-.015-3.832,4.758-4.925,5.414.905-1.255,1.274-1.715,2.741-3.815.986-1.367,7.28-9.864,9.621-13.31,7.3-10.728,7.1-14.637,6.884-16.933a22.782,22.782,0,0,0-1.945-7.006c-2.748-5.384-5.585-7.487-10.517-8.792-3.907-1.041-6.794.843-10.278,3.989,0,0-1.67,1.573-2.7,2.766-.2.159-4.279,4.69-5.705,6.287-3.885,4.238-11.972,13.655-13.922,15.5-.728.732-1.848,1.873-2.661,2.578.486-.817,1.289-1.934,1.806-2.665,1.311-1.981,8.312-10.483,11.426-14.52,1.174-1.488,4.515-5.742,4.628-5.929.881-1.091,2-2.782,2-2.782,2.2-3.511,3.4-6.3,1.843-9.5-1.956-4.031-4.275-6.134-9.482-7.623a20.814,20.814,0,0,0-6.5-.53c-2.071.179-5.558.656-13.846,8.683-2.664,2.584-9.149,9.388-10.2,10.462-1.616,1.6-1.958,2-2.918,2.976.4-1.049,4.006-5.113,3.987-5.123,1.61-2.238,3.168-4.319,4.38-6.113,1.843-2.484,3.221-5.119,2.3-7.852a12.94,12.94,0,0,0-7.829-7.67,14.186,14.186,0,0,0-8.77-.032c-2.782,1.114-7.326,4.367-10.363,6.65a60.191,60.191,0,0,0-5.009,4.378,10.96,10.96,0,0,0-2.568,3.88,14.822,14.822,0,0,0,1.01,9.78,14.339,14.339,0,0,0,1.274,1.987,17.321,17.321,0,0,0,1.85,2.243,21.349,21.349,0,0,0,4.1,3.882l.359.266.178.115a11.566,11.566,0,0,0,6.458,1.868c.074,0,.136-.013.174-.017a4.545,4.545,0,0,0,1.768-.6,13.894,13.894,0,0,0-.667,5.62,19.241,19.241,0,0,0,2.243,5.912c.1.182.185.353.273.507l.08.16a23.631,23.631,0,0,0,4.122,5.362c.332.314.7.7,1.112,1.122a16.321,16.321,0,0,0,4.146,3.473c1.779.873,2.849,1.347,4.212,1.271a13.174,13.174,0,0,0,1.985-.32c.543-.126.939-.225,1.434-.357a8.543,8.543,0,0,0,1.042-.358l-.54.615q.5-.241,1.01-.531a14.108,14.108,0,0,0-.649,2.964c-.042.567-.074,1.018-.1,1.647a13.941,13.941,0,0,0,.05,2.223c.191,1.507.954,2.583,2.292,4.351a18.462,18.462,0,0,0,4.759,3.811c.561.362,1.067.681,1.486.984a27.258,27.258,0,0,0,6.866,3.4l.2.055q.3.089.628.191a22.416,22.416,0,0,0,7.094,1.226,16.1,16.1,0,0,0,6.17-1.887,4.776,4.776,0,0,0-.316,2.058,1.778,1.778,0,0,0,.018.191,12.776,12.776,0,0,0,3.432,6.672l.172.174.373.341a23.948,23.948,0,0,0,5.208,3.674,18.894,18.894,0,0,0,2.9,1.558,17.016,17.016,0,0,0,2.495.992,17.336,17.336,0,0,0,11.175-.929,12.347,12.347,0,0,0,3.824-3.614,66.371,66.371,0,0,0,3.873-6.374c1.934-3.8,4.647-9.44,5.311-12.71A15.493,15.493,0,0,0,2616.837-640.818Z" transform="translate(-113.114 -45.228)" fill="#002b45"/>
    <path id="Trazado_2605" data-name="Trazado 2605" d="M2828-699.845l-.6-2.412c-1.89-7.659-3.543-14.559-4.424-18.268-2.314-9.7-4.777-19.455-7.16-28.882-4.438-17.584-9.008-35.726-12.744-54-7.07,1.7-16.789,4.093-22.1,5.34l-1.128.215.161,1.133c.111.988.266,2.141.44,3.436h.049c2.367,16.534,10.746,57.079,16.819,86.194h-.011c.049.249.1.49.155.732l.306,1.442h-.011q.168.772.321,1.542c.767,3.685,1.5,7.167,2.163,10.395l.135.578,1.254-.235c6.457-1.213,12.4-2.548,17.633-3.726,3.411-.768,6.217-1.421,9.107-2.018C2828.249-698.865,2828.127-699.344,2828-699.845Z" transform="translate(-166.082 -24.634)" fill="#fff"/>
    <circle id="Elipse_544" data-name="Elipse 544" cx="10.928" cy="10.928" r="10.928" transform="translate(2676.576 -741.702)" fill="#002b45"/>
    <circle id="Elipse_545" data-name="Elipse 545" cx="10.928" cy="10.928" r="10.928" transform="translate(2325.798 -751.845)" fill="#fff"/>
  </g>
</svg>
