<svg xmlns="http://www.w3.org/2000/svg" xmlns:xlink="http://www.w3.org/1999/xlink" width="208.619" height="156.914" viewBox="0 0 208.619 156.914">
  <defs>
    <radialGradient id="radial-gradient" cx="0.953" cy="-13.949" r="40.901" gradientTransform="matrix(-0.022, 0, 0, 1, -16.839, 0)" gradientUnits="objectBoundingBox">
      <stop offset="0.002" stop-color="#cdf7f1"/>
      <stop offset="1" stop-color="#5dcfca"/>
    </radialGradient>
  </defs>
  <g id="Grupo_11221" data-name="Grupo 11221" transform="translate(-1094.313 -1618.806)">
    <g id="Grupo_11163" data-name="Grupo 11163" transform="translate(1190.38 1645.284)">
      <g id="Grupo_11162" data-name="Grupo 11162" transform="translate(0 0)">
        <path id="Trazado_3409" data-name="Trazado 3409" d="M1688.815,1749.051l1.059-7.315a5.574,5.574,0,0,1,4.81-1.914c3.375.489,5.581,4.533,4.929,9.035s-3.915,7.753-7.288,7.266c-2.361-.343-4.148-2.427-4.787-5.187A2.664,2.664,0,0,0,1688.815,1749.051Z" transform="translate(-1653.758 -1739.774)" fill="#163f59"/>
        <path id="Trazado_3410" data-name="Trazado 3410" d="M1715.65,1756.929c.128,1.169-1.1,2.263-2.752,2.444l-3.758.416c-1.648.18-3.089-.62-3.216-1.789l-1.174-10.662c-.129-1.169,1.1-2.263,2.75-2.446l3.76-.413c1.648-.183,3.088.62,3.216,1.787Z" transform="translate(-1667.194 -1743.428)" fill="#163f59"/>
        <path id="Trazado_3411" data-name="Trazado 3411" d="M1701,1796.713c-2.229.964-3.345.664-1.642,1.382.819,1,11.284-.393,11.853-1.692.094-.218-4.154-.842-4.177-1a13.462,13.462,0,0,1,.163-5.581.314.314,0,0,0-.28-.292c-.793.023-1.591.03-2.388.052-.132.007-1.69.35-1.344,1.1C1703.354,1792.727,1703.356,1795.692,1701,1796.713Z" transform="translate(-1662.344 -1778.635)" fill="#ffc4ad"/>
        <path id="Trazado_3412" data-name="Trazado 3412" d="M1703.694,1762.507c-.036-.073-.071-.15-.105-.225-.009-.023-.021-.045-.031-.07-.042-.093-.082-.19-.121-.292-.011-.027-.02-.053-.029-.079-.027-.075-.055-.15-.081-.228-.014-.041-.029-.084-.043-.126-.021-.065-.041-.13-.062-.2-.015-.046-.028-.092-.041-.137-.025-.087-.047-.174-.071-.264-.016-.066-.033-.132-.049-.2s-.03-.123-.043-.184-.026-.124-.038-.189-.022-.107-.031-.164-.017-.087-.027-.132v0a19.891,19.891,0,0,1,.73-6.037.547.547,0,0,1,.6-.336c1.839.205,7.443-.054,5.995,5.052v0c0,.012-.084.452-.128.653,0,.019-.008.035-.012.051-.045.2-.093.4-.147.6,0,.014-.007.026-.011.038-.056.2-.113.391-.177.58a.063.063,0,0,1-.006.019c-.8,2.407-2.207,4-3.694,3.893a2.921,2.921,0,0,1-2.2-1.694h0a.146.146,0,0,1-.013-.025c-.043-.076-.086-.155-.127-.235C1703.717,1762.555,1703.706,1762.529,1703.694,1762.507Z" transform="translate(-1665.75 -1750.605)" fill="#ffc4ad"/>
        <path id="Trazado_3413" data-name="Trazado 3413" d="M1846.556,1797.036s.39.186.554-.109a6.061,6.061,0,0,0,.382-2c.02-.445-.239-2.553-.239-2.553a2.478,2.478,0,0,0-.329,1.51A10.735,10.735,0,0,1,1846.556,1797.036Z" transform="translate(-1777.97 -1780.858)" fill="#e3ae9a"/>
        <path id="Trazado_3414" data-name="Trazado 3414" d="M1844.8,1797.315a3.115,3.115,0,0,0-.3-2.647,1.821,1.821,0,0,1-.123-1.57,12.756,12.756,0,0,1,.9,2.163,3.972,3.972,0,0,1,.271,1.394C1845.49,1798.05,1843.888,1799.163,1844.8,1797.315Z" transform="translate(-1776.176 -1781.426)" fill="#e3ae9a"/>
        <path id="Trazado_3415" data-name="Trazado 3415" d="M1706.652,2271.763a17.248,17.248,0,0,1,3.121-.851c1.343-.278,2.366-.289,2.842-.8.784-.847.226-3.47.62-3.388,1.912.4,2.708,4.917,1.606,5.492s-7.378.489-7.9.457S1706.491,2271.645,1706.652,2271.763Z" transform="translate(-1668.599 -2151.38)" fill="#ffc4ad"/>
        <path id="Trazado_3416" data-name="Trazado 3416" d="M1697.1,1998.674a26.769,26.769,0,0,0-7.1-.364c.342,3.089.835,6.47,1.46,10.1,2.519-3.064,7.85-1.812,9.122-.447.293-2.069.52-4.22.665-6.434.042-.637.067-1.271.081-1.9C1699.967,1999.268,1698.557,1998.942,1697.1,1998.674Z" transform="translate(-1655.681 -1941.651)" fill="#e3ae9a"/>
        <path id="Trazado_3417" data-name="Trazado 3417" d="M1582.083,1892.418c-3.785,3.088-20.124,7.339-20.124,7.339s-3.523-.887,17.176-9.536C1580.169,1889.789,1583.018,1891.656,1582.083,1892.418Z" transform="translate(-1555.489 -1857.241)" fill="#e3ae9a"/>
        <g id="Grupo_11161" data-name="Grupo 11161" transform="translate(0 36.47)">
          <path id="Trazado_3418" data-name="Trazado 3418" d="M1547.738,1937.734a4.574,4.574,0,0,0-1.7,1.063c-.275.4-1.251,2.505-1.251,2.505a2.724,2.724,0,0,0,1.174-1.209A9.2,9.2,0,0,1,1547.738,1937.734Z" transform="translate(-1542.253 -1930.874)" fill="#e3ae9a"/>
          <path id="Trazado_3419" data-name="Trazado 3419" d="M1541.908,1939.731a3.4,3.4,0,0,0-1.965,2.144,2.007,2.007,0,0,1-1.208,1.227,13.992,13.992,0,0,1,1.144-2.29c.256-.441.535-.878.82-1.294C1541.637,1938.142,1544.085,1939.163,1541.908,1939.731Z" transform="translate(-1537.525 -1931.73)" fill="#e3ae9a"/>
          <path id="Trazado_3420" data-name="Trazado 3420" d="M1555.588,1932.966c-.142.6-1.084,1.277-1.055,1.66a4.189,4.189,0,0,0,.442,1.681c-1.279-.153-1.253-1.985-1.743-2.609S1555.956,1931.42,1555.588,1932.966Z" transform="translate(-1548.811 -1926.648)" fill="#e3ae9a"/>
          <path id="Trazado_3421" data-name="Trazado 3421" d="M1555.7,1915.019c-2.227.571-4.795,1.178-5.863,1.984-1.52,1.145-1.8,2.406-3.079,2.738a3.605,3.605,0,0,0-.4.157c-.359.146-.787.241-.929.322-.159.088-.579.394-.463.2a17.731,17.731,0,0,1,2.822-3.685,57.343,57.343,0,0,1,7.78-3.369C1557.822,1912.8,1558.7,1914.246,1555.7,1915.019Z" transform="translate(-1542.371 -1911.74)" fill="#e3ae9a"/>
          <path id="Trazado_3422" data-name="Trazado 3422" d="M1537.557,1940.693s-.125-.459-.487-.381a6.659,6.659,0,0,0-1.925,1.118c-.378.3-1.936,2.024-1.936,2.024a2.712,2.712,0,0,0,1.483-.808A11.6,11.6,0,0,1,1537.557,1940.693Z" transform="translate(-1533.21 -1932.88)" fill="#e3ae9a"/>
          <path id="Trazado_3423" data-name="Trazado 3423" d="M1571.715,1906.434c1.466.591,5.733-.559,5.741.271-3.916,2.342-15.8,4.277-15.8,4.277Z" transform="translate(-1555.427 -1906.391)" fill="#e3ae9a"/>
        </g>
        <path id="Trazado_3424" data-name="Trazado 3424" d="M1774.889,1852.471c2.035,1.5,3.837,6.791,5.235,10.141a6.146,6.146,0,0,1,.5,3.312s-.691,4.426-5.962-7.636C1773.34,1855.27,1774.125,1851.907,1774.889,1852.471Z" transform="translate(-1721.256 -1827.755)" fill="#ffc4ad"/>
        <path id="Trazado_3425" data-name="Trazado 3425" d="M1796.792,1854.381c.026-4.456,8-16.2,8-16.2s4.19-3.539-3.458,13.713C1799.04,1857.078,1796.783,1855.48,1796.792,1854.381Z" transform="translate(-1739.098 -1816.41)" fill="#ffc4ad"/>
        <path id="Trazado_3426" data-name="Trazado 3426" d="M1830.016,1805.674l.34.217.229,1.364a15.617,15.617,0,0,1-1.176,3.245c-.56.827-1.4,4.557-1.631,4.972s-2.43.392-2.43.392,1.77-3.541,2.352-5a34.331,34.331,0,0,0,.9-4.417,15.748,15.748,0,0,0,.477-1.518s.5.263.041,1.854c-.121.419.413.332.413.332Z" transform="translate(-1761.405 -1790.664)" fill="#ffc4ad"/>
        <path id="Trazado_3427" data-name="Trazado 3427" d="M1700.108,2066.221c.879-.473,2.518.624,3.679,2.836,2.28,4.339,3.073,10.324,3.6,17.734.551,7.838.669,13.686.645,18.523-.024,4.777,2.106,11.411-1.506,10.841.308-6.575-.956-16.284-2.974-21.35C1696.657,2077.508,1697.406,2067.665,1700.108,2066.221Z" transform="translate(-1662.054 -1994.683)" fill="#ffc4ad"/>
        <path id="Trazado_3428" data-name="Trazado 3428" d="M1763.224,2287.292a15.323,15.323,0,0,1,2.412-1.1c1.055-.415,1.9-.588,2.187-1.027.472-.725.18-2.809.524-2.811,1.672-.024,2.28,3.72,1.9,4.317-.5.785-6.151,1.156-6.587,1.218S1763.065,2287.236,1763.224,2287.292Z" transform="translate(-1712.831 -2163.591)" fill="#e3ae9a"/>
        <path id="Trazado_3429" data-name="Trazado 3429" d="M1746.759,2124.91c.77-.3-.094-3.006,1.434-1.224,2.491,2.906,4.724,9.51,5.184,13.085.728,5.669,2.017,14.674,2.357,18.507.307,3.453,1.991,7.546-1.076,6.952,0-4.862-2.049-11.9-3.577-15.657C1745.86,2133.73,1744.392,2125.82,1746.759,2124.91Z" transform="translate(-1699.159 -2039.184)" fill="#e3ae9a"/>
        <path id="Trazado_3430" data-name="Trazado 3430" d="M1753,2298.735c.918,1.059,4.537-.43,5.563-.677,1.8-.43,1.606-1.068,1.614-1.043.185.579.438,1.38-.552,1.817-.9.4-2.016.484-2.907.791-.937.324-6.229,1.623-6.6,1C1749.629,2299.8,1752.984,2298.713,1753,2298.735Z" transform="translate(-1702.605 -2175.044)" fill="#f8e44f"/>
        <path id="Trazado_3431" data-name="Trazado 3431" d="M1717.286,1960.466c1.33-.342,1.427.658,2.571,3.124,2.245,4.834,3.825,12.043,3.693,19.778-.155,9.064-1.427,17-3.281,22.027-2.058-3.527-3.476-5.542-5.03-13.416C1711.8,1974.536,1713.2,1961.514,1717.286,1960.466Z" transform="translate(-1673.877 -1912.109)" fill="#e3ae9a"/>
        <path id="Trazado_3432" data-name="Trazado 3432" d="M1732.092,2113.315c.7-.352,2.1,1.174,3.145,2.669,2.056,2.932,2.938,6.59,4.11,11.642a54.077,54.077,0,0,1,1.689,14.67c-1.622-2.565-3-5.892-4.891-9.326C1724.715,2112.209,1729.937,2114.394,1732.092,2113.315Z" transform="translate(-1686.157 -2031.513)" fill="#e3ae9a"/>
        <path id="Trazado_3433" data-name="Trazado 3433" d="M1717.914,1955.487c1.326-.283,1.385.63,2.422,2.9a39.775,39.775,0,0,1,2.9,18.114,70.147,70.147,0,0,1-2.908,16.95,1.111,1.111,0,0,1-2.129.142,82.635,82.635,0,0,1-2.1-10.726C1713.791,1966.858,1713.836,1956.353,1717.914,1955.487Z" transform="translate(-1674.866 -1908.232)" fill="#ffc4ad"/>
        <path id="Trazado_3434" data-name="Trazado 3434" d="M1704.878,1830.118l-13.966-.118-1.708-15.972,16.573,1.573Z" transform="translate(-1655.06 -1797.775)" fill="#fec12f"/>
        <path id="Trazado_3435" data-name="Trazado 3435" d="M1681.487,1934.456c6.867,1.087,8.109.156,16-1,.746.012,3.953-7.813,1.725-28.438-.459-4.25-3.611-7.661-2.876-19.2q-7.042-.132-14.083-.26C1684.114,1896.044,1672.951,1897.686,1681.487,1934.456Z" transform="translate(-1646.489 -1853.648)" fill="#fec12f"/>
        <path id="Trazado_3436" data-name="Trazado 3436" d="M1643.448,1832.63l7.881-11.745,2.025-5.294a2.076,2.076,0,0,0-.825-1.072l-.267-.172a2.347,2.347,0,0,0-3.212,1l-9.028,14.884Z" transform="translate(-1616.641 -1797.784)" fill="#fec12f"/>
        <path id="Trazado_3437" data-name="Trazado 3437" d="M1762.23,1839.583l-4.807-10.226-1.931-7.143a2.212,2.212,0,0,1,1.042-.806l.3-.113a2.226,2.226,0,0,1,2.865,1.3l5.783,14.087Z" transform="translate(-1706.838 -1803.34)" fill="#fec12f"/>
        <path id="Trazado_3438" data-name="Trazado 3438" d="M1735.054,2276.625a.082.082,0,0,1-.084.076l-.16-.009a.083.083,0,0,1-.075-.085h0a.08.08,0,0,1,.084-.075l.16.009a.08.08,0,0,1,.075.084Z" transform="translate(-1690.625 -2159.045)" fill="#ffc4ad"/>
        <path id="Trazado_3439" data-name="Trazado 3439" d="M1697.589,2287.353c-.33,1.507,4.264.82,5.448.41a13.8,13.8,0,0,1,1.856-.524c.048,0,.094-.008.142-.01a.811.811,0,0,1,.02.109c.014.823.4,1.912-.92,1.935l-8.257.146C1689.131,2289.536,1697.6,2287.318,1697.589,2287.353Z" transform="translate(-1658.234 -2167.4)" fill="#f8e44f"/>
        <path id="Trazado_3440" data-name="Trazado 3440" d="M1843.73,1801.479a4.169,4.169,0,0,0,.191-1.824c-.137-.424-1.1-2.314-1.1-2.314a2.486,2.486,0,0,0,.211,1.53A8.453,8.453,0,0,1,1843.73,1801.479Z" transform="translate(-1775.018 -1784.74)" fill="#ffc4ad"/>
        <path id="Trazado_3441" data-name="Trazado 3441" d="M1842.561,1813.083s-.355.082-.472-.029a2.024,2.024,0,0,0,.035.333c.023.21-.093,1.641-.093,1.641a11.655,11.655,0,0,1,.429-1.293,5.833,5.833,0,0,0,.277-.959c.011-.044-.006-.122,0-.205Z" transform="translate(-1774.435 -1796.636)" fill="#e3ae9a"/>
        <path id="Trazado_3442" data-name="Trazado 3442" d="M1840.674,1807.213c.313-1.069.186-1.538.069-1.732-.07.254-.195.658-.394,1.22a7.628,7.628,0,0,0-.205,1.143,1.944,1.944,0,0,1,.51,1.055c.027.155.312-.779.36-1.347C1840.873,1807.557,1840.581,1807.535,1840.674,1807.213Z" transform="translate(-1772.961 -1791.099)" fill="#e3ae9a"/>
        <path id="Trazado_3443" data-name="Trazado 3443" d="M1722.36,1753.882a2.663,2.663,0,0,0,1.276-1.885l1.06-7.314c.064-.068.132-.125.2-.188l.129-.015c1.648-.183,3.088.62,3.216,1.787l1.175,10.663a2.3,2.3,0,0,1-1.7,2.182,4.493,4.493,0,0,1-.563-.044C1724.786,1758.725,1723,1756.642,1722.36,1753.882Z" transform="translate(-1680.958 -1743.428)" fill="#163f59"/>
      </g>
    </g>
    <g id="Grupo_11168" data-name="Grupo 11168" transform="translate(1094.313 1653.656)">
      <g id="Grupo_11167" data-name="Grupo 11167" transform="translate(0 9.616)">
        <path id="Rectángulo_3031" data-name="Rectángulo 3031" d="M8.146,0H77.009a8.148,8.148,0,0,1,8.148,8.148v2.876A8.146,8.146,0,0,1,77.01,19.17H8.148A8.148,8.148,0,0,1,0,11.021V8.146A8.146,8.146,0,0,1,8.146,0Z" fill="#f3f3f3"/>
        <path id="Trazado_3444" data-name="Trazado 3444" d="M1114.465,1821.959H1096.1a1.783,1.783,0,0,0-1.783,1.783v15.6a1.783,1.783,0,0,0,1.783,1.783h18.369Z" transform="translate(-1094.313 -1821.959)" fill="#86c0f0"/>
        <g id="Grupo_11165" data-name="Grupo 11165" transform="translate(25.35 6.015)">
          <g id="Grupo_11164" data-name="Grupo 11164">
            <line id="Línea_86" data-name="Línea 86" x2="20.123" fill="none" stroke="#acd5f4" stroke-width="7.401"/>
            <line id="Línea_87" data-name="Línea 87" x2="10.304" transform="translate(22.291)" fill="none" stroke="#acd5f4" stroke-width="7.401"/>
            <line id="Línea_88" data-name="Línea 88" x2="8.026" transform="translate(11.71 3.893)" fill="none" stroke="#acd5f4" stroke-width="7.401"/>
            <line id="Línea_89" data-name="Línea 89" x2="4.517" transform="translate(15.219 7.788)" fill="none" stroke="#acd5f4" stroke-width="7.401"/>
            <line id="Línea_90" data-name="Línea 90" x2="1.842" transform="translate(7.728 3.893)" fill="none" stroke="#acd5f4" stroke-width="7.401"/>
            <line id="Línea_91" data-name="Línea 91" x2="5.84" transform="translate(0.059 3.893)" fill="none" stroke="#acd5f4" stroke-width="7.401"/>
            <line id="Línea_92" data-name="Línea 92" x2="13.377" transform="translate(0.059 7.788)" fill="none" stroke="#acd5f4" stroke-width="7.401"/>
            <line id="Línea_93" data-name="Línea 93" x2="9.967" transform="translate(21.817 3.893)" fill="none" stroke="#acd5f4" stroke-width="7.401"/>
            <line id="Línea_94" data-name="Línea 94" x2="10.789" transform="translate(21.4 7.788)" fill="none" stroke="#acd5f4" stroke-width="7.401"/>
          </g>
        </g>
        <g id="Grupo_11166" data-name="Grupo 11166" transform="translate(4.32 5.226)">
          <path id="Trazado_3445" data-name="Trazado 3445" d="M1117.957,1854.182h-1.665v-4.558l.016-.749.027-.819q-.415.415-.577.544l-.905.727-.8-1,2.538-2.02h1.368Z" transform="translate(-1114.051 -1846.203)" fill="#fff"/>
          <path id="Trazado_3446" data-name="Trazado 3446" d="M1143.127,1845.837a2.984,2.984,0,0,1,1.824.515,1.639,1.639,0,0,1,.692,1.387,1.814,1.814,0,0,1-.334,1.075,2.846,2.846,0,0,1-1.078.843,3.823,3.823,0,0,1,1.269.989,1.844,1.844,0,0,1,.385,1.129,1.878,1.878,0,0,1-.759,1.56,3.169,3.169,0,0,1-2,.59,3.335,3.335,0,0,1-2.031-.55,1.826,1.826,0,0,1-.738-1.557,2.064,2.064,0,0,1,.358-1.2.93.93,0,1,0,.18-1.832,2,2,0,0,1-.3-1.062,1.629,1.629,0,0,1,.7-1.368A2.976,2.976,0,0,1,1143.127,1845.837Zm-1.228,5.884a.872.872,0,0,0,.323.722,1.691,1.691,0,0,0,1.81-.008.885.885,0,0,0,.307-.7.963.963,0,0,0-.3-.676,3.917,3.917,0,0,0-.988-.671Q1141.9,1850.912,1141.9,1851.72Zm1.217-4.666a1.038,1.038,0,0,0-.687.218.723.723,0,0,0-.261.584.894.894,0,0,0,.208.579,2.275,2.275,0,0,0,.752.525,2.1,2.1,0,0,0,.738-.506.92.92,0,0,0,.21-.6.711.711,0,0,0-.269-.587A1.068,1.068,0,0,0,1143.116,1847.055Z" transform="translate(-1134.6 -1845.837)" fill="#fff"/>
        </g>
        <path id="Trazado_3447" data-name="Trazado 3447" d="M1376.263,1841.783a4.908,4.908,0,1,0,4.909,4.908A4.914,4.914,0,0,0,1376.263,1841.783Z" transform="translate(-1310.715 -1837.444)" fill="#4e99ff"/>
        <path id="Trazado_3448" data-name="Trazado 3448" d="M1394.284,1854.536l-1.653-1.653v-2.936h-.891v3.3l1.913,1.914Z" transform="translate(-1326.639 -1843.821)" fill="#fff"/>
      </g>
      <path id="Trazado_3449" data-name="Trazado 3449" d="M1423.537,1778.025a6.987,6.987,0,0,0-6.987,6.986c0,3.861,6.987,14.44,6.987,14.44s6.987-10.58,6.987-14.44A6.987,6.987,0,0,0,1423.537,1778.025Zm0,9.442a2.068,2.068,0,1,1,2.068-2.068A2.066,2.066,0,0,1,1423.536,1787.468Z" transform="translate(-1346.018 -1778.025)" fill="#3dc7c9"/>
    </g>
    <g id="Grupo_11212" data-name="Grupo 11212" transform="translate(1107.715 1670.526)">
      <g id="Grupo_11172" data-name="Grupo 11172" transform="translate(68.727 55.285)">
        <g id="Grupo_11171" data-name="Grupo 11171" transform="translate(1.156 12.899)">
          <g id="Grupo_11169" data-name="Grupo 11169" transform="translate(1.443 7.617)">
            <path id="Trazado_3450" data-name="Trazado 3450" d="M1493.95,2201.4l1.68,2.56-14.1,4.518s-.942-.9,2.519-2.71C1488.074,2203.664,1493.95,2201.4,1493.95,2201.4Z" transform="translate(-1481.409 -2201.404)" fill="#88bdda"/>
            <path id="Trazado_3451" data-name="Trazado 3451" d="M1544.156,2201.4l-1.679,2.56,14.1,4.518s.942-.9-2.519-2.71C1550.031,2203.664,1544.156,2201.4,1544.156,2201.4Z" transform="translate(-1529.11 -2201.404)" fill="#88bdda"/>
          </g>
          <rect id="Rectángulo_3032" data-name="Rectángulo 3032" width="2.947" height="10.492" transform="translate(13.763)" fill="#88bdda"/>
          <g id="Grupo_11170" data-name="Grupo 11170" transform="translate(3.06 8.157)">
            <path id="Trazado_3452" data-name="Trazado 3452" d="M1499.532,2203.868l1.438,2.443-12.072,4.311s-.806-.86,2.155-2.587A94.435,94.435,0,0,1,1499.532,2203.868Z" transform="translate(-1488.797 -2203.868)" fill="#91e2f6"/>
            <path id="Trazado_3453" data-name="Trazado 3453" d="M1545.879,2203.868l-1.437,2.443,12.073,4.311s.805-.86-2.156-2.587A94.394,94.394,0,0,0,1545.879,2203.868Z" transform="translate(-1532.262 -2203.868)" fill="#91e2f6"/>
          </g>
          <path id="Trazado_3454" data-name="Trazado 3454" d="M1488.191,2235.5a1.024,1.024,0,1,1-1.024-1.025A1.023,1.023,0,0,1,1488.191,2235.5Z" transform="translate(-1483.664 -2219.621)" fill="#001f46"/>
          <path id="Trazado_3455" data-name="Trazado 3455" d="M1595.055,2235.5a1.024,1.024,0,1,1-1.024-1.025A1.024,1.024,0,0,1,1595.055,2235.5Z" transform="translate(-1567.137 -2219.621)" fill="#001f46"/>
          <path id="Trazado_3456" data-name="Trazado 3456" d="M1476.865,2235.5a1.024,1.024,0,1,1-1.024-1.025A1.024,1.024,0,0,1,1476.865,2235.5Z" transform="translate(-1474.817 -2219.621)" fill="#367082"/>
          <path id="Trazado_3457" data-name="Trazado 3457" d="M1606.38,2235.5a1.024,1.024,0,1,1-1.024-1.025A1.024,1.024,0,0,1,1606.38,2235.5Z" transform="translate(-1575.983 -2219.621)" fill="#367082"/>
        </g>
        <rect id="Rectángulo_3033" data-name="Rectángulo 3033" width="2.155" height="3.773" transform="translate(15.277 9.054)" fill="#367082"/>
        <path id="Trazado_3458" data-name="Trazado 3458" d="M1537.329,2132.429a2.1,2.1,0,0,1-2.1,2.1h-1.186a2.1,2.1,0,0,1-2.1-2.1h0a2.1,2.1,0,0,1,2.1-2.1h1.186a2.1,2.1,0,0,1,2.1,2.1Z" transform="translate(-1518.281 -2125.369)" fill="#367082"/>
        <path id="Trazado_3459" data-name="Trazado 3459" d="M1502.811,2112.811c.052-.247.082-1.8.082-2.065,0-1.7-1.1-3.073-2.45-3.073h-27.3c-1.353,0-2.45,1.375-2.45,3.073,0,.267.03,1.818.081,2.065Z" transform="translate(-1470.436 -2107.673)" fill="#3dc7c9"/>
        <path id="Trazado_3460" data-name="Trazado 3460" d="M1469.535,2131.593c0,.519.3.94.678.94h31.352c.375,0,.678-.421.678-.94h0c0-.52-.3-.941-.678-.941h-31.352c-.374,0-.678.421-.678.941Z" transform="translate(-1469.535 -2125.623)" fill="#367082"/>
      </g>
      <g id="Grupo_11181" data-name="Grupo 11181" transform="translate(51.792 3.271)">
        <path id="Trazado_3461" data-name="Trazado 3461" d="M1466.14,2064.082s-17.559.037-24.336.139c-4.689.071-5.117-6.615-3.267-7.621,5.616-3.056,23.137-4.626,23.137-4.626l11.918,10.944S1472.922,2062.9,1466.14,2064.082Z" transform="translate(-1427.59 -2012.152)" fill="#3d7aa8"/>
        <path id="Trazado_3462" data-name="Trazado 3462" d="M1460.313,1943.189s-4.513-1.262-6.479,4.632c-3.015,9.048-2.749,17.344-2.328,19.113.193.814.773,3.625,5.817,3.733,2.045.044,1.227-4.34,1.227-4.34a95.463,95.463,0,0,0,2.708-10.02C1462.655,1950.01,1460.313,1943.189,1460.313,1943.189Z" transform="translate(-1438.318 -1927.09)" fill="#74b2e8"/>
        <path id="Trazado_3463" data-name="Trazado 3463" d="M1476.333,1930.455l11.578-3.744,8.763-.589,9.6,2.906s3.142,2.166.224,9.127-1.795,17.867-1.795,17.867l-24.772.794a201.594,201.594,0,0,0-2.111-20.167C1477.459,1934.4,1477.413,1931.748,1476.333,1930.455Z" transform="translate(-1457.91 -1913.847)" fill="#86c0f0"/>
        <path id="Trazado_3464" data-name="Trazado 3464" d="M1546.1,1958.917h-1.262a104.964,104.964,0,0,1,.2-29.48l1.141.68C1545.852,1940.038,1546.4,1949.959,1546.1,1958.917Z" transform="translate(-1510.68 -1916.436)" fill="#74b2e8"/>
        <g id="Grupo_11173" data-name="Grupo 11173" transform="translate(29.666 3.679)">
          <path id="Trazado_3465" data-name="Trazado 3465" d="M1528.526,1898.761a2.875,2.875,0,0,0,2.414,2.554h3.273a2.873,2.873,0,0,0,2.414-2.554q.4-3.311.8-6.623c.179-1.323-.607-3.982-2.348-4.768a6.26,6.26,0,0,0-5.011,0c-1.742.785-2.53,3.445-2.35,4.768Q1528.125,1895.449,1528.526,1898.761Z" transform="translate(-1527.697 -1886.847)" fill="#e6b09c"/>
        </g>
        <path id="Trazado_3466" data-name="Trazado 3466" d="M1550.588,1936.31l2.078,3.407,3.808-4.763-.6-2.5-1.235-1.015-.016,1.885Z" transform="translate(-1515.912 -1917.998)" fill="#74b2e8"/>
        <path id="Trazado_3467" data-name="Trazado 3467" d="M1529.377,1936.239l-2.078,3.407-3.543-4.436.581-2.719.888-1.146.36,2.227Z" transform="translate(-1494.954 -1917.926)" fill="#74b2e8"/>
        <g id="Grupo_11174" data-name="Grupo 11174" transform="translate(28.419)">
          <path id="Trazado_3468" data-name="Trazado 3468" d="M1549.609,1870.041a2.616,2.616,0,0,1,2.19,1.184h.9a2.029,2.029,0,0,1,2.03,2.029v5.012H1553.3v-2.037a1.429,1.429,0,0,0-1.427-1.428h-.385a2.619,2.619,0,0,1-2.62-2.619v-2.142Z" transform="translate(-1542.987 -1870.041)" fill="#163f59"/>
          <path id="Trazado_3469" data-name="Trazado 3469" d="M1563.813,1906.34a1.242,1.242,0,0,0,1.243,1.242h.1a1.242,1.242,0,0,0,1.243-1.242v-1.509a1.242,1.242,0,0,0-1.243-1.242h-.1a1.245,1.245,0,0,0-1.138.739" transform="translate(-1554.661 -1896.247)" fill="#e6b09c"/>
          <path id="Trazado_3470" data-name="Trazado 3470" d="M1532.647,1872.033v-1.992h-4.3a2.618,2.618,0,0,0-2.618,2.619v1.99h4.3A2.618,2.618,0,0,0,1532.647,1872.033Z" transform="translate(-1524.913 -1870.041)" fill="#163f59"/>
          <path id="Trazado_3471" data-name="Trazado 3471" d="M1527.412,1886.246a4.093,4.093,0,0,0,2.118,3.362,7.617,7.617,0,0,0,5.7,0,4.088,4.088,0,0,0,2.12-3.361v-8.867a2.2,2.2,0,0,0-2.329-1.953h-5.286a2.2,2.2,0,0,0-2.328,1.953Z" transform="translate(-1526.228 -1874.247)" fill="#ffc4ad"/>
          <path id="Trazado_3472" data-name="Trazado 3472" d="M1527.209,1870.041a2.616,2.616,0,0,0-2.19,1.184h-.9a2.03,2.03,0,0,0-2.029,2.029v5.012h1.427v-2.037a1.429,1.429,0,0,1,1.428-1.428h1.824a2.618,2.618,0,0,0,2.618-2.619v-2.142Z" transform="translate(-1522.072 -1870.041)" fill="#163f59"/>
          <path id="Trazado_3473" data-name="Trazado 3473" d="M1524.591,1904.83a1.241,1.241,0,0,0-1.243-1.24h-.1a1.242,1.242,0,0,0-1.242,1.24v1.509a1.244,1.244,0,0,0,1.242,1.243h.1a1.245,1.245,0,0,0,1.138-.741" transform="translate(-1522.003 -1896.247)" fill="#ffc4ad"/>
          <path id="Trazado_3474" data-name="Trazado 3474" d="M1555.255,1872.548a2.651,2.651,0,0,1-.051-.514v-1.992h1.854a2.619,2.619,0,0,1,2.619,2.619v1.99h-1.856a2.626,2.626,0,0,1-.537-.056A2.619,2.619,0,0,0,1555.255,1872.548Z" transform="translate(-1547.937 -1870.041)" fill="#163f59"/>
        </g>
        <path id="Trazado_3475" data-name="Trazado 3475" d="M1626.24,2245.611c.27.327.072,1.189.072,1.189s-4.726.526-6.247.169a8.041,8.041,0,0,1-1.692-.794c-.106-.061-.293-.423-.4-.484-.19-.114-.29.075-.453-.027a5.332,5.332,0,0,1-.722-.5c-.415-2.167.138-3.041.138-3.041s4.025-1.338,4.779-.405C1623.494,2243.914,1625.649,2244.893,1626.24,2245.611Z" transform="translate(-1567.513 -2160.107)" fill="#161711"/>
        <path id="Trazado_3476" data-name="Trazado 3476" d="M1406.717,2242.549l-.327,3.572-3.575.349s-.248-.476-.549-.447c-.255.026-.536.554-.883.587l-1.919.188c-.67.067-7.173.7-7.173.7s-.234-.721-.062-.994a3.492,3.492,0,0,1,1.053-.577c1.8-.7,6.922-2.837,7.668-4.691C1401.856,2238.983,1406.717,2242.549,1406.717,2242.549Z" transform="translate(-1392.166 -2159.406)" fill="#161711"/>
        <g id="Grupo_11175" data-name="Grupo 11175" transform="translate(16.846 37.939)">
          <path id="Trazado_3477" data-name="Trazado 3477" d="M1472.24,2043.374l12.086,4.936s-8.574,1.223-13.934.131C1466.767,2047.7,1472.073,2043.217,1472.24,2043.374Z" transform="translate(-1469.128 -2043.37)" fill="#ffc4ad"/>
        </g>
        <path id="Trazado_3478" data-name="Trazado 3478" d="M1608.683,2074.4s1.162,11.036,1,16.87a126.911,126.911,0,0,0,.91,20.025c.064.439,5.686.108,5.686.108s2.017-27.36,2.615-31.866S1617.749,2071.782,1608.683,2074.4Z" transform="translate(-1561.291 -2028.94)" fill="#3d7aa8"/>
        <path id="Trazado_3479" data-name="Trazado 3479" d="M1434.805,2083s1.812,2.861,6.781,3.538c1.8.245-2.9,32.028-2.9,32.028l-7.341-2.35,1.418-35.149Z" transform="translate(-1422.772 -2034.876)" fill="#316091"/>
        <path id="Trazado_3480" data-name="Trazado 3480" d="M1537.049,2063.747s9.6,1.37,16,2.042c2.349.246,4.382-6.33,4.655-6.615a4.831,4.831,0,0,1,3.348-1.634c-1.388-1.5-8.575-2.892-16.087-4.655s-8.656-.652-8.656-.652Z" transform="translate(-1504.762 -2012.086)" fill="#316091"/>
        <path id="Trazado_3481" data-name="Trazado 3481" d="M1546.172,2052.885c7.511,1.762,14.7,3.154,16.087,4.655a4.831,4.831,0,0,0-3.348,1.633c-.074.079-.507,2.186-.816,2.94,1.224-2.2-16.428-8.428-20.242-10.039C1538.565,2051.847,1540.641,2051.589,1546.172,2052.885Z" transform="translate(-1505.965 -2012.085)" fill="#3d7aa8"/>
        <path id="Trazado_3482" data-name="Trazado 3482" d="M1613.545,2098.4l.733,21.477.736,4.981.081-4.981-.163-3.1,1.714-4.816.9-11.188-1.307.49.164-4.9Z" transform="translate(-1565.089 -2046.826)" fill="#316091"/>
        <path id="Trazado_3483" data-name="Trazado 3483" d="M1439.53,2077.708l-1.8.49-.654,25.8,3.757,9.227-1.8-6.287.734-12.984s2.614,6.287,2.614,5.961-2.205-13.637-2.205-13.637a28.542,28.542,0,0,1,2.205,1.96C1442.143,2088.16,1440.918,2078.934,1439.53,2077.708Z" transform="translate(-1427.249 -2032.253)" fill="#3d7aa8"/>
        <path id="Trazado_3484" data-name="Trazado 3484" d="M1588.9,1936.975s3.859-3.023,7.632,2.587c5.532,8.222,7.933,16.966,8.812,19.5.674,1.941.3,7.429-1.959,9.691-.545.544-3.811.109-3.811.109l-2.144-1.484.9-1.726.048-1.363s-2.741-6.614-6.109-12.867S1588.9,1936.975,1588.9,1936.975Z" transform="translate(-1545.838 -1921.689)" fill="#86c0f0"/>
        <g id="Grupo_11177" data-name="Grupo 11177" transform="translate(36.69 39.679)">
          <path id="Trazado_3485" data-name="Trazado 3485" d="M1587.284,2054.715l-12.527.653s12.066,5.535,12.463,4.583C1589.482,2054.543,1587.284,2054.715,1587.284,2054.715Z" transform="translate(-1571.481 -2053.972)" fill="#ffc4ad"/>
          <g id="Grupo_11176" data-name="Grupo 11176">
            <path id="Trazado_3486" data-name="Trazado 3486" d="M1568.7,2051.679c-.731-.352-.667-.358-.667-.358a3,3,0,0,1-1.637.944c-.482.074-2.035.094-2.035.094l-2.307.057-1.071-.062a1.968,1.968,0,0,0-.764.024c-.466.3-.067.54-.067.54l4.135.586-3.973.492s-.5.148-.523.418c-.021.253.145.244.145.244l4.614.493-2.023.483s-.484.156-.521.419c-.041.287-.06.364-.06.364l4.245-.416S1569.433,2052.032,1568.7,2051.679Z" transform="translate(-1559.79 -2051.321)" fill="#ffc4ad"/>
            <path id="Trazado_3487" data-name="Trazado 3487" d="M1565.717,2064.635l-2.777.507a2.3,2.3,0,0,0-.914.249.37.37,0,0,0-.134.517l4.258-.358Z" transform="translate(-1561.388 -2061.721)" fill="#ffc4ad"/>
          </g>
        </g>
        <g id="Grupo_11180" data-name="Grupo 11180" transform="translate(23.554 27.097)">
          <path id="Trazado_3488" data-name="Trazado 3488" d="M1499.962,2071.708c0-.009-.01-.017-.013-.025l.013-.79h24.679v.79a.04.04,0,0,1,0,.025l-.085.147a2.146,2.146,0,0,1-2.037.807h-20.434a2.148,2.148,0,0,1-2.038-.807Z" transform="translate(-1499.911 -2054.027)" fill="#b6c2c9"/>
          <g id="Grupo_11178" data-name="Grupo 11178" transform="translate(4.213 17.049)">
            <rect id="Rectángulo_3034" data-name="Rectángulo 3034" width="16.341" height="0.557" fill="#879ba6"/>
          </g>
          <g id="Grupo_11179" data-name="Grupo 11179">
            <path id="Trazado_3489" data-name="Trazado 3489" d="M1499.842,2010.788l-.066-16.18a.766.766,0,0,1,.769-.771h23.1a.774.774,0,0,1,.775.771l.067,16.18Z" transform="translate(-1499.776 -1993.837)" fill="#e4eef3"/>
            <path id="Trazado_3490" data-name="Trazado 3490" d="M1549.385,2027.218a1.5,1.5,0,1,0,1.489-1.5A1.487,1.487,0,0,0,1549.385,2027.218Z" transform="translate(-1538.526 -2018.743)" fill="#b6c2c9"/>
          </g>
        </g>
        <path id="Trazado_3491" data-name="Trazado 3491" d="M1626.1,2058.471l.859-5.491-1.426-1.467-3.163.505.646,6.079Z" transform="translate(-1571.984 -2011.792)" fill="#74b2e8"/>
        <path id="Trazado_3492" data-name="Trazado 3492" d="M1462.781,2045.272l-.328-2.02,4-3.591,2.164.976-2.831,5.419Z" transform="translate(-1447.068 -2002.533)" fill="#86c0f0"/>
      </g>
      <g id="Grupo_11187" data-name="Grupo 11187" transform="translate(138.554 35.076)">
        <g id="Grupo_11182" data-name="Grupo 11182" transform="translate(32.499 6.958)">
          <path id="Trazado_3493" data-name="Trazado 3493" d="M1938.554,2079.731a4.984,4.984,0,0,0,3.3-1.193c1.656-1.44,2.374-4,2.133-7.616a26.473,26.473,0,0,0-2.139-7.522c-1.71-4.4-3.649-9.382-2.635-15.974l-1.884-.29c-1.091,7.1,1.035,12.563,2.742,16.955a24.794,24.794,0,0,1,2.014,6.958c.2,2.93-.311,5.018-1.465,6.037a3.16,3.16,0,0,1-2.519.708l-.382,1.868A4.427,4.427,0,0,0,1938.554,2079.731Z" transform="translate(-1937.029 -2047.135)" fill="#367082"/>
        </g>
        <g id="Grupo_11185" data-name="Grupo 11185" transform="translate(1.278 46.253)">
          <g id="Grupo_11183" data-name="Grupo 11183" transform="translate(1.512 8.418)">
            <path id="Trazado_3494" data-name="Trazado 3494" d="M1870.631,2265.122l-1.856,2.829,15.585,4.992s1.041-1-2.783-2.995C1877.125,2267.619,1870.631,2265.122,1870.631,2265.122Z" transform="translate(-1854.005 -2265.122)" fill="#88bdda"/>
            <path id="Trazado_3495" data-name="Trazado 3495" d="M1815.152,2265.122l1.855,2.829-15.585,4.992s-1.041-1,2.783-2.995C1808.659,2267.619,1815.152,2265.122,1815.152,2265.122Z" transform="translate(-1801.294 -2265.122)" fill="#88bdda"/>
          </g>
          <rect id="Rectángulo_3035" data-name="Rectángulo 3035" width="3.256" height="11.595" transform="translate(15.126)" fill="#88bdda"/>
          <g id="Grupo_11184" data-name="Grupo 11184" transform="translate(3.298 9.014)">
            <path id="Trazado_3496" data-name="Trazado 3496" d="M1872.54,2267.843l-1.589,2.7,13.341,4.764s.891-.95-2.381-2.859A104.338,104.338,0,0,0,1872.54,2267.843Z" transform="translate(-1857.491 -2267.843)" fill="#91e2f6"/>
            <path id="Trazado_3497" data-name="Trazado 3497" d="M1821.319,2267.843l1.588,2.7-13.342,4.764s-.89-.95,2.382-2.859A104.282,104.282,0,0,1,1821.319,2267.843Z" transform="translate(-1809.454 -2267.843)" fill="#91e2f6"/>
          </g>
          <path id="Trazado_3498" data-name="Trazado 3498" d="M1925,2302.8a1.132,1.132,0,1,0,1.131-1.132A1.131,1.131,0,0,0,1925,2302.8Z" transform="translate(-1896.412 -2285.253)" fill="#001f46"/>
          <path id="Trazado_3499" data-name="Trazado 3499" d="M1806.905,2302.8a1.132,1.132,0,1,0,1.132-1.132A1.132,1.132,0,0,0,1806.905,2302.8Z" transform="translate(-1804.165 -2285.253)" fill="#001f46"/>
          <path id="Trazado_3500" data-name="Trazado 3500" d="M1937.517,2302.8a1.132,1.132,0,1,0,1.132-1.132A1.132,1.132,0,0,0,1937.517,2302.8Z" transform="translate(-1906.188 -2285.253)" fill="#367082"/>
          <path id="Trazado_3501" data-name="Trazado 3501" d="M1794.388,2302.8a1.132,1.132,0,1,0,1.132-1.132A1.131,1.131,0,0,0,1794.388,2302.8Z" transform="translate(-1794.388 -2285.253)" fill="#367082"/>
        </g>
        <rect id="Rectángulo_3036" data-name="Rectángulo 3036" width="2.382" height="4.169" transform="translate(16.883 42.004)" fill="#367082"/>
        <path id="Trazado_3502" data-name="Trazado 3502" d="M1857.519,2188.9a2.323,2.323,0,0,0,2.323,2.323h1.31a2.323,2.323,0,0,0,2.323-2.323h0a2.323,2.323,0,0,0-2.323-2.323h-1.31a2.322,2.322,0,0,0-2.323,2.323Z" transform="translate(-1842.423 -2149.095)" fill="#367082"/>
        <path id="Trazado_3503" data-name="Trazado 3503" d="M1789.914,2167.215c-.057-.273-.09-1.988-.09-2.283,0-1.876,1.212-3.4,2.708-3.4h30.174c1.5,0,2.708,1.52,2.708,3.4,0,.295-.033,2.01-.089,2.283Z" transform="translate(-1789.545 -2129.539)" fill="#3dc7c9"/>
        <path id="Trazado_3504" data-name="Trazado 3504" d="M1824.7,2187.972c0,.573-.335,1.039-.75,1.039H1789.3c-.414,0-.75-.465-.75-1.039h0c0-.574.336-1.04.75-1.04h34.647c.414,0,.75.466.75,1.04Z" transform="translate(-1788.551 -2149.375)" fill="#367082"/>
        <g id="Grupo_11186" data-name="Grupo 11186" transform="translate(17.482)">
          <path id="Trazado_3505" data-name="Trazado 3505" d="M1885.394,2035.6c-.745.055-5.474.138-6.289.148-5.177.063-9.637-.909-9.885-2.184a44.183,44.183,0,0,1-.134-16.034c.221-1.274,4.748-2.246,10.033-2.182.832.01,5.659.094,6.417.15A43.373,43.373,0,0,0,1885.394,2035.6Z" transform="translate(-1868.418 -2015.347)" fill="#3dc7c9"/>
          <path id="Trazado_3506" data-name="Trazado 3506" d="M1941.016,2016.038c.58.007.984.283.9.615a43.316,43.316,0,0,0-.162,18.877c.072.333-.328.607-.9.614h0c-.567.007-1.091-.257-1.164-.592a43.4,43.4,0,0,1,.123-18.922c.079-.334.613-.6,1.194-.592Z" transform="translate(-1923.328 -2015.887)" fill="#367082"/>
          <path id="Trazado_3507" data-name="Trazado 3507" d="M1934.012,2035.858a12.737,12.737,0,0,1-1.357.09,2.725,2.725,0,0,1-2.514-2.235,43.485,43.485,0,0,1,.072-15.79,2.779,2.779,0,0,1,2.576-2.234,13.261,13.261,0,0,1,1.384.091A43.345,43.345,0,0,0,1934.012,2035.858Z" transform="translate(-1916.094 -2015.614)" fill="#33a8b5"/>
        </g>
      </g>
      <g id="Grupo_11188" data-name="Grupo 11188" transform="translate(155.145 8.083)">
        <path id="Trazado_3508" data-name="Trazado 3508" d="M1904.156,1892.025h2.554v1.309A3.146,3.146,0,0,0,1904.156,1892.025Z" transform="translate(-1895.443 -1892.025)" fill="#dce5ea"/>
        <path id="Trazado_3509" data-name="Trazado 3509" d="M1872.312,1892.025v3.605a3.154,3.154,0,0,0,3.155,3.155h.15v5.558H1864.35v-12.319Z" transform="translate(-1864.35 -1892.025)" fill="#dce5ea"/>
      </g>
      <g id="Grupo_11192" data-name="Grupo 11192" transform="translate(116.486 0)">
        <path id="Trazado_3510" data-name="Trazado 3510" d="M1811.456,1924.583s4.413,1.576.175,14.228-7.062,11.118-7.062,11.118l-3.5-.339-6.72-7.969,3.618-3.164.73.291a1.777,1.777,0,0,0,1.044-1.257,83.986,83.986,0,0,0,3.086-11.945C1803.415,1922.119,1810.607,1924.273,1811.456,1924.583Z" transform="translate(-1771.009 -1908.63)" fill="#cfd9e8"/>
        <path id="Trazado_3511" data-name="Trazado 3511" d="M1744.539,1988.152s-8.713,4.452-14.2-4.164c-1.631-2.561-.934.388-.042,3.189s6.306,9.147,12.459,9.572,8.5.082,9.654-2.047S1744.539,1988.152,1744.539,1988.152Z" transform="translate(-1720.245 -1955.01)" fill="#ffc4ad"/>
        <path id="Trazado_3512" data-name="Trazado 3512" d="M1818.3,1990.305l-2.208-1.43-.916-.522a1.922,1.922,0,0,1-.967.952l1.843.757,2.009,1.292,2.075,2.493Z" transform="translate(-1786.528 -1959.186)" fill="#aebddc"/>
        <path id="Trazado_3513" data-name="Trazado 3513" d="M1828.422,1959.854l16.494-.357,6.857-22.963s3.138-13.832-2.725-14.061c-8.52-.333-19.7-.179-19.7-.179S1823.6,1927.278,1828.422,1959.854Z" transform="translate(-1796.123 -1907.558)" fill="#cfd9e8"/>
        <path id="Trazado_3514" data-name="Trazado 3514" d="M1854.057,1961.01l-1.939.284a101.906,101.906,0,0,1,3.29-35.969l1.583.526A99.5,99.5,0,0,0,1854.057,1961.01Z" transform="translate(-1815.835 -1909.953)" fill="#aebddc"/>
        <path id="Trazado_3515" data-name="Trazado 3515" d="M1710.762,2176.281s1.6,2.474,2.423.957c2.459-4.55,4.676-18.915,4.814-24.809.187-7.861.546-12.654.546-12.654l-7.909-2.867Z" transform="translate(-1705.622 -2075.224)" fill="#163f59"/>
        <path id="Trazado_3516" data-name="Trazado 3516" d="M1738.368,2093.15l-27.906,9.554,7.319,4.084s28.781,5.047,29.294-5.634C1747.506,2092.169,1738.368,2093.15,1738.368,2093.15Z" transform="translate(-1705.486 -2041.02)" fill="#163f59"/>
        <path id="Trazado_3517" data-name="Trazado 3517" d="M1755.444,2179.135s1.445,1.324,2.265-.192c2.459-4.551,6.492-16.64,6.631-22.535a57.711,57.711,0,0,0-1.112-13.328l-8.082-2.806Z" transform="translate(-1740.39 -2077.854)" fill="#194866"/>
        <path id="Trazado_3518" data-name="Trazado 3518" d="M1782.53,2093.915l-26.608,10.039,7.288,3.967s27,5.047,27.526-5.633S1782.53,2093.915,1782.53,2093.915Z" transform="translate(-1740.996 -2041.478)" fill="#194866"/>
        <path id="Trazado_3519" data-name="Trazado 3519" d="M1852.913,2101.225a8.1,8.1,0,0,1-1.18,4.18c-2.519,3.043-8.485,2.023-13.243,2.023-.261,0-1.587-3.712-1.587-3.712l-1.986-12.14,16.681.284A80.849,80.849,0,0,1,1852.913,2101.225Z" transform="translate(-1802.699 -2039.815)" fill="#194866"/>
        <path id="Trazado_3520" data-name="Trazado 3520" d="M1767.927,2055.346l-6.108-1.1s-.951-.1-.994.555c-.057.867.1,3.7.1,3.7l1.1-.678,1.573.96,1.825-2.416a4.71,4.71,0,0,0,1.729-.017C1767.409,2056.285,1767.927,2055.346,1767.927,2055.346Z" transform="translate(-1744.815 -2010.654)" fill="#ffc4ad"/>
        <path id="Trazado_3521" data-name="Trazado 3521" d="M1804.078,2051.365l-16.171,1.794s8.675,4.432,12.648,4.459a35.443,35.443,0,0,0,7.7-.884Z" transform="translate(-1765.98 -2008.405)" fill="#ffc4ad"/>
        <path id="Trazado_3522" data-name="Trazado 3522" d="M1866.606,1934.667l-8.079,15.289.463,1.241-1.243.231,3.773,6,5.919-1.35,10.652-21.1a11.123,11.123,0,0,0-2.842-11.233C1872.713,1921.321,1867.321,1933.441,1866.606,1934.667Z" transform="translate(-1820.533 -1908.471)" fill="#aebddc"/>
        <path id="Trazado_3523" data-name="Trazado 3523" d="M1864.554,2052.338s-3.825-2.923-5.767-4.518l.2.541-1.243.23,1.321,2.066,2.291,2.665,1.313-.479-.5-.937Z" transform="translate(-1820.532 -2005.636)" fill="#cfd9e8"/>
        <g id="Grupo_11190" data-name="Grupo 11190" transform="translate(34.265)">
          <g id="Grupo_11189" data-name="Grupo 11189">
            <path id="Trazado_3524" data-name="Trazado 3524" d="M1865.588,1867.34a2,2,0,0,0,2,2h7.551a2,2,0,0,0,2-2h0a2,2,0,0,0-2-2h-7.551a2,2,0,0,0-2,2Z" transform="translate(-1860.923 -1863.099)" fill="#163f59"/>
            <path id="Trazado_3525" data-name="Trazado 3525" d="M1871.913,1877.127a3.694,3.694,0,0,0,3.693,3.694h3.94a3.7,3.7,0,0,0,3.693-3.694h0a3.694,3.694,0,0,0-3.693-3.693h-3.94a3.694,3.694,0,0,0-3.693,3.693Z" transform="translate(-1865.863 -1869.42)" fill="#163f59"/>
            <path id="Trazado_3526" data-name="Trazado 3526" d="M1858.369,1873.193v-11.549c0-1.839,1.491,0,3.33,0h1.776a3.332,3.332,0,0,1,3.332,3.331v8.218Z" transform="translate(-1855.284 -1859.573)" fill="#ffc4ad"/>
            <path id="Trazado_3527" data-name="Trazado 3527" d="M1890.2,1886.34a1.463,1.463,0,0,0,1.463,1.463h0a1.463,1.463,0,0,0,1.464-1.463h0a1.463,1.463,0,0,0-1.464-1.463h0a1.463,1.463,0,0,0-1.463,1.463Z" transform="translate(-1880.145 -1878.359)" fill="#ffc4ad"/>
            <path id="Trazado_3528" data-name="Trazado 3528" d="M1854.483,1885.148a.835.835,0,0,1-.82.849h-.683a.834.834,0,0,1-.819-.849s1.5-4.384,1.951-4.384a1.382,1.382,0,0,1,.372.849Z" transform="translate(-1850.435 -1875.146)" fill="#ffc4ad"/>
            <path id="Trazado_3529" data-name="Trazado 3529" d="M1863.032,1906.627c3.331,0,3.678-1.021,3.775-2.19a24.159,24.159,0,0,1,.888,3.867v1.051c0,2.03-2.088,3.677-4.664,3.677h-4.663v-6.405Z" transform="translate(-1855.284 -1893.637)" fill="#163f59"/>
            <path id="Trazado_3530" data-name="Trazado 3530" d="M1858.369,1904.641h2.665a2.2,2.2,0,0,1,2.141,2.776h-4.807Z" transform="translate(-1855.284 -1893.797)" fill="#163f59"/>
            <path id="Trazado_3531" data-name="Trazado 3531" d="M1863.745,1915.3v.741a.37.37,0,0,1-.37.37h-2.159a.371.371,0,0,1-.371-.37v-.741Z" transform="translate(-1857.218 -1902.119)" fill="#ffc4ad"/>
            <path id="Trazado_3532" data-name="Trazado 3532" d="M1863.616,1855.192h6.832a1.333,1.333,0,0,1,1.332,1.333v2.665h-8.164Z" transform="translate(-1859.382 -1855.171)" fill="#163f59"/>
            <path id="Trazado_3533" data-name="Trazado 3533" d="M1844.274,1857.109a2.013,2.013,0,0,0,2.012,2.013h4.625a2.013,2.013,0,0,0,2.013-2.013h0a2.012,2.012,0,0,0-2.013-2.012h-4.625a2.012,2.012,0,0,0-2.012,2.012Z" transform="translate(-1844.274 -1855.097)" fill="#163f59"/>
          </g>
          <rect id="Rectángulo_3037" data-name="Rectángulo 3037" width="1.847" height="4.861" transform="translate(9.756 3.057)" fill="#163f59"/>
          <rect id="Rectángulo_3038" data-name="Rectángulo 3038" width="5.435" height="5.722" transform="translate(5.594 0.967)" fill="#163f59"/>
          <path id="Trazado_3534" data-name="Trazado 3534" d="M1865.652,1876.191a2.749,2.749,0,0,0-2.749-2.749h-1.42c-1.518,0-2.332,1.231-2.332,2.749h0a2.75,2.75,0,0,0,2.75,2.75h1a2.749,2.749,0,0,0,2.749-2.75Z" transform="translate(-1855.896 -1869.427)" fill="#ffc4ad"/>
        </g>
        <g id="Grupo_11191" data-name="Grupo 11191" transform="translate(0.737 22.771)">
          <path id="Trazado_3535" data-name="Trazado 3535" d="M1701.746,1968.327s1.311-3.144.841-4-2.4-3.854-2.4-3.854l-.565-.722s-1.147.172.173,2.177.136,1.373.136,1.373l-1.892-1.367-2.454-1.5-1-.8s-.534-.5-.762-.508c-.662-.032-.44.479-.44.479l3.629,3.442-4.22-2.277s-.589-.2-.8.045-.028.339-.028.339l4.162,3.684-2.309-.934s-.582-.183-.8.047c-.238.253-.31.315-.31.315l8.487,4.75Z" transform="translate(-1691.722 -1959.13)" fill="#ffc4ad"/>
          <path id="Trazado_3536" data-name="Trazado 3536" d="M1695.715,1973.264l-3.062-1.432a2.762,2.762,0,0,0-1.066-.392.445.445,0,0,0-.49.413l4.4,2.606Z" transform="translate(-1691.097 -1968.745)" fill="#ffc4ad"/>
        </g>
        <path id="Trazado_3537" data-name="Trazado 3537" d="M1744.41,2318.3a1.8,1.8,0,0,0-.03.854,12.343,12.343,0,0,0,3.291.165,3.715,3.715,0,0,0,.885-.558c.056-.043.151-.3.2-.344.1-.08.154.056.239-.016a2.872,2.872,0,0,0,.376-.353,4.353,4.353,0,0,0-.093-2.185s-2.129-.989-2.52-.324A19,19,0,0,1,1744.41,2318.3Z" transform="translate(-1731.948 -2214.579)" fill="#194866"/>
        <path id="Trazado_3538" data-name="Trazado 3538" d="M1695.559,2316.372l-.354,2.255h-1.887s-.1-.319-.264-.319c-.134,0-.308.319-.491.319h-4.8a1.334,1.334,0,0,1,.019-.637,1.66,1.66,0,0,1,.58-.3c.975-.335,3.925-1.063,4.581-2.11C1693.451,2314.767,1695.559,2316.372,1695.559,2316.372Z" transform="translate(-1687.73 -2214.608)" fill="#163f59"/>
      </g>
      <g id="Grupo_11195" data-name="Grupo 11195" transform="translate(102.483 30.294)">
        <path id="Trazado_3539" data-name="Trazado 3539" d="M1675.307,2071.533c0-.009.01-.018.013-.026l-.013-.791h-32.768v.791a.039.039,0,0,0,0,.026l.084.147a2.152,2.152,0,0,0,2.041.81h28.516a2.155,2.155,0,0,0,2.043-.81Z" transform="translate(-1638.426 -2053.816)" fill="#b4c0c7"/>
        <path id="Trazado_3540" data-name="Trazado 3540" d="M1756.167,2072.772a.028.028,0,0,0,0,.021l.081.119a1.327,1.327,0,0,0,.479.4h4.983a2.273,2.273,0,0,0,1.964-.654l.079-.121c0-.007.01-.013.014-.02l-.008-.39h-7.592Z" transform="translate(-1727.182 -2054.921)" fill="#d6e3eb"/>
        <g id="Grupo_11193" data-name="Grupo 11193" transform="translate(8.188 17.084)">
          <rect id="Rectángulo_3039" data-name="Rectángulo 3039" width="16.374" height="0.559" fill="#8599a4"/>
        </g>
        <g id="Grupo_11194" data-name="Grupo 11194">
          <path id="Trazado_3541" data-name="Trazado 3541" d="M1652.558,2010.373l-4.249-16.1a1.069,1.069,0,0,0-.971-.77h-22.99a.573.573,0,0,0-.565.77l4.248,16.1Z" transform="translate(-1623.756 -1993.502)" fill="#d7dfe2"/>
          <path id="Trazado_3542" data-name="Trazado 3542" d="M1685.14,2026.726a1.109,1.109,0,0,1-1.1,1.489,2.072,2.072,0,0,1-1.881-1.489,1.109,1.109,0,0,1,1.1-1.49A2.071,2.071,0,0,1,1685.14,2026.726Z" transform="translate(-1669.339 -2018.29)" fill="#b4c0c7"/>
        </g>
      </g>
      <g id="Grupo_11201" data-name="Grupo 11201" transform="translate(10.377 39.642)">
        <g id="Grupo_11196" data-name="Grupo 11196" transform="translate(0 6.296)">
          <path id="Trazado_3543" data-name="Trazado 3543" d="M1207.909,2094.468a4.512,4.512,0,0,1-2.984-1.079c-1.5-1.3-2.148-3.623-1.93-6.892a23.955,23.955,0,0,1,1.936-6.807c1.548-3.979,3.3-8.49,2.384-14.455l1.7-.262c.987,6.422-.936,11.368-2.481,15.342a22.41,22.41,0,0,0-1.823,6.3c-.177,2.651.281,4.541,1.326,5.464a2.861,2.861,0,0,0,2.279.64l.345,1.69A4.016,4.016,0,0,1,1207.909,2094.468Z" transform="translate(-1202.953 -2064.972)" fill="#367082"/>
        </g>
        <g id="Grupo_11199" data-name="Grupo 11199" transform="translate(4.191 41.854)">
          <g id="Grupo_11197" data-name="Grupo 11197" transform="translate(1.443 7.618)">
            <path id="Trazado_3544" data-name="Trazado 3544" d="M1241.234,2262.224l1.679,2.56-14.1,4.517s-.942-.9,2.518-2.71C1235.358,2264.484,1241.234,2262.224,1241.234,2262.224Z" transform="translate(-1228.694 -2262.224)" fill="#88bdda"/>
            <path id="Trazado_3545" data-name="Trazado 3545" d="M1291.439,2262.224l-1.679,2.56,14.1,4.517s.942-.9-2.518-2.71C1297.314,2264.484,1291.439,2262.224,1291.439,2262.224Z" transform="translate(-1276.394 -2262.224)" fill="#88bdda"/>
          </g>
          <rect id="Rectángulo_3040" data-name="Rectángulo 3040" width="2.947" height="10.492" transform="translate(13.763)" fill="#88bdda"/>
          <g id="Grupo_11198" data-name="Grupo 11198" transform="translate(3.06 8.157)">
            <path id="Trazado_3546" data-name="Trazado 3546" d="M1246.815,2264.688l1.438,2.443-12.072,4.311s-.807-.86,2.155-2.587C1241.786,2266.844,1246.815,2264.688,1246.815,2264.688Z" transform="translate(-1236.081 -2264.688)" fill="#91e2f6"/>
            <path id="Trazado_3547" data-name="Trazado 3547" d="M1293.163,2264.688l-1.436,2.443,12.073,4.311s.806-.86-2.156-2.587A94.371,94.371,0,0,0,1293.163,2264.688Z" transform="translate(-1279.547 -2264.688)" fill="#91e2f6"/>
          </g>
          <path id="Trazado_3548" data-name="Trazado 3548" d="M1235.473,2296.323a1.024,1.024,0,1,1-1.024-1.024A1.023,1.023,0,0,1,1235.473,2296.323Z" transform="translate(-1230.946 -2280.441)" fill="#001f46"/>
          <path id="Trazado_3549" data-name="Trazado 3549" d="M1342.338,2296.323a1.024,1.024,0,1,1-1.024-1.024A1.024,1.024,0,0,1,1342.338,2296.323Z" transform="translate(-1314.42 -2280.441)" fill="#001f46"/>
          <path id="Trazado_3550" data-name="Trazado 3550" d="M1224.148,2296.323a1.024,1.024,0,1,1-1.024-1.024A1.024,1.024,0,0,1,1224.148,2296.323Z" transform="translate(-1222.1 -2280.441)" fill="#367082"/>
          <path id="Trazado_3551" data-name="Trazado 3551" d="M1353.663,2296.323a1.024,1.024,0,1,1-1.024-1.024A1.023,1.023,0,0,1,1353.663,2296.323Z" transform="translate(-1323.266 -2280.441)" fill="#367082"/>
        </g>
        <rect id="Rectángulo_3041" data-name="Rectángulo 3041" width="2.155" height="3.773" transform="translate(18.311 38.009)" fill="#367082"/>
        <path id="Trazado_3552" data-name="Trazado 3552" d="M1284.614,2193.249a2.1,2.1,0,0,1-2.1,2.1h-1.186a2.1,2.1,0,0,1-2.1-2.1h0a2.1,2.1,0,0,1,2.1-2.1h1.186a2.1,2.1,0,0,1,2.1,2.1Z" transform="translate(-1262.53 -2157.233)" fill="#367082"/>
        <path id="Trazado_3553" data-name="Trazado 3553" d="M1250.095,2173.63c.052-.247.082-1.8.082-2.066,0-1.7-1.1-3.072-2.451-3.072h-27.3c-1.353,0-2.45,1.375-2.45,3.072,0,.267.029,1.819.081,2.066Z" transform="translate(-1214.685 -2139.537)" fill="#3dc7c9"/>
        <path id="Trazado_3554" data-name="Trazado 3554" d="M1216.818,2192.413c0,.52.3.94.678.94h31.352c.375,0,.678-.421.678-.94h0c0-.52-.3-.941-.678-.941H1217.5c-.375,0-.678.421-.678.941Z" transform="translate(-1213.783 -2157.487)" fill="#367082"/>
        <g id="Grupo_11200" data-name="Grupo 11200" transform="translate(3.093)">
          <path id="Trazado_3555" data-name="Trazado 3555" d="M1223.344,2054.535c.674.05,4.953.125,5.691.134,4.684.057,8.721-.823,8.944-1.977a39.984,39.984,0,0,0,.122-14.508c-.2-1.153-4.3-2.032-9.079-1.974-.752.009-5.121.085-5.807.135A39.246,39.246,0,0,1,1223.344,2054.535Z" transform="translate(-1221.873 -2036.207)" fill="#3dc7c9"/>
          <path id="Trazado_3556" data-name="Trazado 3556" d="M1217.91,2036.833c-.524.006-.89.255-.818.556a39.186,39.186,0,0,1,.147,17.081c-.066.3.3.55.81.556h0c.513.006.987-.233,1.053-.536a39.267,39.267,0,0,0-.112-17.123c-.071-.3-.554-.542-1.08-.536Z" transform="translate(-1217.083 -2036.696)" fill="#367082"/>
          <path id="Trazado_3557" data-name="Trazado 3557" d="M1219.39,2054.766a11.447,11.447,0,0,0,1.229.082,2.466,2.466,0,0,0,2.275-2.023,39.343,39.343,0,0,0-.065-14.289,2.515,2.515,0,0,0-2.331-2.022,12.107,12.107,0,0,0-1.252.082A39.216,39.216,0,0,1,1219.39,2054.766Z" transform="translate(-1218.772 -2036.447)" fill="#33a8b5"/>
        </g>
      </g>
      <g id="Grupo_11206" data-name="Grupo 11206" transform="translate(19.037 6.133)">
        <g id="Grupo_11204" data-name="Grupo 11204" transform="translate(17.142 17.654)">
          <g id="Grupo_11203" data-name="Grupo 11203" transform="translate(3.85 18.086)">
            <g id="Grupo_11202" data-name="Grupo 11202" transform="translate(2.469 0.932)">
              <path id="Trazado_3558" data-name="Trazado 3558" d="M1349.708,2052.152s.032,1.193,5.82,1.2a108.356,108.356,0,0,0,14.284-1.419l-13.35-1.261S1351.336,2050.432,1349.708,2052.152Z" transform="translate(-1349.708 -2050.659)" fill="#e6b09c"/>
              <path id="Trazado_3559" data-name="Trazado 3559" d="M1417.387,2055.479c2.751.087,3.889,1.5,4.967,1.966a19.258,19.258,0,0,1,2.146,1.139c-.576-1.2-1.463-1.258-1.9-1.653s-.323-.2.658-.243c.558-.023,1.507.989,2.195,1.556a2.241,2.241,0,0,0,.977.539,12.145,12.145,0,0,0-1.564-1.843,14.09,14.09,0,0,0-2.713-1.986,10.8,10.8,0,0,0-3.735-.239C1416.936,2054.866,1415.405,2055.416,1417.387,2055.479Z" transform="translate(-1401.837 -2053.785)" fill="#e6b09c"/>
              <path id="Trazado_3560" data-name="Trazado 3560" d="M1441.859,2056.22a15,15,0,0,1,2.45.893c.252.2,1.292,1.365,1.292,1.365a2.75,2.75,0,0,1-1.225-.593A23.867,23.867,0,0,0,1441.859,2056.22Z" transform="translate(-1421.689 -2055.003)" fill="#e6b09c"/>
            </g>
            <path id="Trazado_3561" data-name="Trazado 3561" d="M1343.515,2046.4s-5.337.152-5.079,3.322c.145,1.8,1.34,2.467,2.953,2.392,3-.139,6.4-.458,6.4-.458l1.683-4.856Z" transform="translate(-1338.428 -2046.4)" fill="#b0bfde"/>
          </g>
          <path id="Trazado_3562" data-name="Trazado 3562" d="M1328.645,1982.255l-4.656-16.435s-.686-2.408-1.968-2c-1.85.582-1.011,2.561-.891,3.722a38.162,38.162,0,0,0,1.481,9.12c.918,3.536,1.678,7.6,2.505,9.934.569,1.608,1.711-.628,3.343-1.206C1331.5,1984.3,1328.645,1982.255,1328.645,1982.255Z" transform="translate(-1320.837 -1963.77)" fill="#b0bfde"/>
        </g>
        <path id="Trazado_3563" data-name="Trazado 3563" d="M1267.455,1919.881a6.781,6.781,0,1,1-5.165-7.96A6.711,6.711,0,0,1,1267.455,1919.881Z" transform="translate(-1251.538 -1905.484)" fill="#282723"/>
        <path id="Trazado_3564" data-name="Trazado 3564" d="M1305.257,1893.838a5.1,5.1,0,0,1-6.089,3.86l-.715-2.642a5.1,5.1,0,0,1-3.859-6.09l.418-1.865a5.1,5.1,0,0,1,6.09-3.86l1.244.279a5.1,5.1,0,0,1,3.86,6.089Z" transform="translate(-1283.098 -1883.116)" fill="#282723"/>
        <path id="Trazado_3565" data-name="Trazado 3565" d="M1305.024,1896.644a10.083,10.083,0,0,1-.434,1.375c-1.218,3.082-3.7,5.073-5.893,4.9a15.5,15.5,0,0,1-1.569,3.7,7.736,7.736,0,0,1-2.452,2.172c-.86,2.151,7.749,9.352,8.116,9.165.782-.4-.619-5.572-2.027-7.175a5.065,5.065,0,0,1-1.348-2.143,3.1,3.1,0,0,1,1.369-2.966,4.172,4.172,0,0,1,3.216-.725.583.583,0,0,0,.46-.09,3.608,3.608,0,0,0,.389-1.005l.919-4.1A3.6,3.6,0,0,0,1305.024,1896.644Z" transform="translate(-1283.214 -1893.683)" fill="#ffc4ad"/>
        <path id="Trazado_3566" data-name="Trazado 3566" d="M1301.384,1996.441a17.607,17.607,0,0,0,2.826,2.175c.829.237,3.153-.767,3.153-.767s-.641-10.356-.4-14.459,1.2-5.291,1.092-6.558c-.178-2.026,1.466-3.06.981-4.605s-1.706-7.1-1.79-6.326c-.716,6.564-3.234,1.5-3.736.71C1303.232,1966.173,1301.384,1996.441,1301.384,1996.441Z" transform="translate(-1288.5 -1947.723)" fill="#2c7eea"/>
        <path id="Trazado_3567" data-name="Trazado 3567" d="M1320.537,1957.549s2.918,2.14,2.879,3.127,1.508,3.91.881,8.3a60.677,60.677,0,0,0-.835,11.577c.146,3.2,1.621,5.969,1.671,9.906.04,3.084-.667,3.359-.667,3.359a2.559,2.559,0,0,1-2.5-.55c-1.144-1.054-.941-11.609-.767-14.266s1-8.914,1.194-10.741a19.369,19.369,0,0,0-.239-5.132,21.793,21.793,0,0,0-1.225-4.451c-.057-.142-.816-.749-.864-.86C1319.853,1957.338,1320.3,1957.28,1320.537,1957.549Z" transform="translate(-1303.046 -1941.132)" fill="#d1dbea"/>
        <path id="Trazado_3568" data-name="Trazado 3568" d="M1317.823,1953.179s-.606-.125-.09.567a1.44,1.44,0,0,1,.3.716s.262-.275.656.119c.358.358.925.806.925.806a9.95,9.95,0,0,0-.448-1.1C1318.869,1954.017,1317.823,1953.179,1317.823,1953.179Z" transform="translate(-1301.108 -1937.837)" fill="#b0bfde"/>
        <path id="Trazado_3569" data-name="Trazado 3569" d="M1256.505,1959.78a7.083,7.083,0,1,1-5.394-8.314A7.009,7.009,0,0,1,1256.505,1959.78Z" transform="translate(-1242.52 -1936.368)" fill="#282723"/>
        <path id="Trazado_3570" data-name="Trazado 3570" d="M1368.254,2267.554l-1.324,10.154,5.723,2.626,3.177.67-5.639-4.21,1.845-9.161Z" transform="translate(-1339.699 -2183.407)" fill="#ffc4ad"/>
        <path id="Trazado_3571" data-name="Trazado 3571" d="M1365.217,2312.219l1.242.323.833-.75,4.573,2.22,4.055.927a.747.747,0,0,0-.086-.489,18.345,18.345,0,0,0-3.349-2.076s-.046.942-.45.969a30.558,30.558,0,0,1-4.717-2.246c-1.4-.853-1.656-1.382-1.762-1.316C1365.274,2309.956,1365.217,2312.219,1365.217,2312.219Z" transform="translate(-1338.361 -2216.387)" fill="#161711"/>
        <path id="Trazado_3572" data-name="Trazado 3572" d="M1436.092,2199.269l4.546,8.654,6.289-.309,3.128-.869-6.945-1.136-3.792-7.394Z" transform="translate(-1393.723 -2129.244)" fill="#ffc4ad"/>
        <path id="Trazado_3573" data-name="Trazado 3573" d="M1455.555,2238.217l1.25-.286.394-1.05,5.639-.081,3.367-.764a2.852,2.852,0,0,0-.658-.542,19.231,19.231,0,0,0-3.412-.458s.28.736-.066.947a28.706,28.706,0,0,1-5.169.269c-1.631-.112-2.106-.462-2.171-.354C1454.561,2236.183,1455.555,2238.217,1455.555,2238.217Z" transform="translate(-1408.266 -2158.008)" fill="#161711"/>
        <path id="Trazado_3574" data-name="Trazado 3574" d="M1255.721,2084.8l3.393,1.475,1.475,4.426,21.822-3.592s2.223-.686,3.638,2.825c2.015,5,7.142,20.535,7.142,20.535l-3.246,3.393-10.179-17.555s-20.857,9.783-27.733,7.671c-2.639-.811-4.655-5.471-4.279-10.18a60.447,60.447,0,0,1,1.033-7.08Z" transform="translate(-1246.573 -2040.653)" fill="#194866"/>
        <path id="Trazado_3575" data-name="Trazado 3575" d="M1297.792,2138.586l16.69-1.2-1.435,25.753,4.922.157,3.635-30.16s-.981-4.489-4.168-3.812S1306.536,2135.909,1297.792,2138.586Z" transform="translate(-1285.694 -2075.378)" fill="#163f59"/>
        <path id="Trazado_3576" data-name="Trazado 3576" d="M1258.689,1984.6s.4-10.478.708-15.448.24-14.56.306-15.755a14.575,14.575,0,0,0-.261-2.88s-1.51-2.576-3.192-2.352c-1.48.2-3.762,2.257-5.194,3.212-1.4.933-1.244,18.452-1.313,19.334-.254,3.183-2.148,6.325-3.579,9.383a17.421,17.421,0,0,0-1.128,5.054S1253.533,1983.519,1258.689,1984.6Z" transform="translate(-1244.484 -1933.916)" fill="#d1dbea"/>
        <path id="Trazado_3577" data-name="Trazado 3577" d="M1295.3,1944.485l1.2,1.18,1.685,1.809-.854,2.028-2.974-4.172Z" transform="translate(-1283.007 -1931.052)" fill="#b0bfde"/>
        <g id="Grupo_11205" data-name="Grupo 11205" transform="translate(10.005 37.688)">
          <path id="Trazado_3578" data-name="Trazado 3578" d="M1288.229,2059.259s.181,1.28,7.042.524a141.754,141.754,0,0,0,16.768-3.412l-15.978.4S1289.955,2057.191,1288.229,2059.259Z" transform="translate(-1288.229 -2056.136)" fill="#ffc4ad"/>
          <path id="Trazado_3579" data-name="Trazado 3579" d="M1368.495,2056.589c3.273-.269,4.789,1.106,6.121,1.462a23.783,23.783,0,0,1,2.678.944c-.824-1.213-1.885-1.163-2.445-1.532s-.407-.173.751-.347c.659-.1,1.9.867,2.787,1.386a2.781,2.781,0,0,0,1.223.453,13.457,13.457,0,0,0-2.073-1.779,16.828,16.828,0,0,0-3.452-1.784,14.093,14.093,0,0,0-4.455.238C1367.887,2055.987,1366.137,2056.783,1368.495,2056.589Z" transform="translate(-1350.033 -2055.298)" fill="#ffc4ad"/>
          <path id="Trazado_3580" data-name="Trazado 3580" d="M1397.34,2056.063a19.024,19.024,0,0,1,3.009.638c.322.184,1.693,1.3,1.693,1.3a3.444,3.444,0,0,1-1.522-.479A28.923,28.923,0,0,0,1397.34,2056.063Z" transform="translate(-1373.458 -2055.896)" fill="#ffc4ad"/>
        </g>
        <path id="Trazado_3581" data-name="Trazado 3581" d="M1275.782,1982.3l-.762-16.214s-.875-3.4-2.148-4.177c-1.511-.925-3.588.79-3.588.79s-1.064,2.532-.35,14.487c.477,8,1.215,12.136,5.006,11.552,3.538-.545,7.534-1.337,7.534-1.337l1.419-5.454Z" transform="translate(-1262.959 -1944.451)" fill="#b0bfde"/>
      </g>
      <g id="Grupo_11209" data-name="Grupo 11209" transform="translate(45.485 30.009)">
        <path id="Trazado_3582" data-name="Trazado 3582" d="M1363.364,2071.49l-.014-.026.014-.8h33.3v.8a.041.041,0,0,1,0,.026l-.085.15a2.187,2.187,0,0,1-2.075.823h-28.978a2.19,2.19,0,0,1-2.076-.823Z" transform="translate(-1363.35 -2053.486)" fill="#d0dee6"/>
        <path id="Trazado_3583" data-name="Trazado 3583" d="M1372.512,2072.749s.006.014,0,.022l-.082.121a1.357,1.357,0,0,1-.487.41h-5.064a2.309,2.309,0,0,1-2-.665l-.08-.123c-.005-.007-.01-.013-.015-.02l.009-.4h7.715Z" transform="translate(-1364.473 -2054.609)" fill="#b6c2c9"/>
        <g id="Grupo_11207" data-name="Grupo 11207" transform="translate(12.533 17.36)">
          <rect id="Rectángulo_3042" data-name="Rectángulo 3042" width="16.639" height="0.568" fill="#b6c2c9"/>
        </g>
        <g id="Grupo_11208" data-name="Grupo 11208" transform="translate(8.223)">
          <path id="Trazado_3584" data-name="Trazado 3584" d="M1400.92,2009.341l4.317-16.362a1.086,1.086,0,0,1,.987-.782h23.364a.582.582,0,0,1,.575.782l-4.317,16.362Z" transform="translate(-1400.92 -1992.196)" fill="#effaff"/>
          <path id="Trazado_3585" data-name="Trazado 3585" d="M1461.092,2025.959a1.126,1.126,0,0,0,1.114,1.512,2.107,2.107,0,0,0,1.913-1.512,1.128,1.128,0,0,0-1.114-1.515A2.105,2.105,0,0,0,1461.092,2025.959Z" transform="translate(-1447.88 -2017.386)" fill="#b6c2c9"/>
        </g>
      </g>
      <g id="Grupo_11211" data-name="Grupo 11211" transform="translate(0 48.963)">
        <g id="Grupo_11210" data-name="Grupo 11210" transform="translate(145.063 1.768)">
          <path id="Trazado_3586" data-name="Trazado 3586" d="M1821.7,2141.335h-3.408l5.623-54.462h4.942Z" transform="translate(-1818.289 -2086.873)" fill="#acd5f4"/>
          <path id="Trazado_3587" data-name="Trazado 3587" d="M1841.447,2089.383l-6.614,16.808,1.875-18.089.127-1.229h4.319Z" transform="translate(-1831.212 -2086.873)" fill="#86bbd8"/>
        </g>
        <path id="Trazado_3588" data-name="Trazado 3588" d="M1971.8,2141.335h3.409l-5.623-54.462h-4.942Z" transform="translate(-1787.549 -2085.104)" fill="#acd5f4"/>
        <path id="Trazado_3589" data-name="Trazado 3589" d="M1966.152,2089.383l2.167,16.494,2.572-17.775-.126-1.229h-4.32Z" transform="translate(-1788.725 -2085.104)" fill="#86bbd8"/>
        <path id="Trazado_3590" data-name="Trazado 3590" d="M1309.062,2141.335h3.408l-5.623-54.462h-4.942Z" transform="translate(-1269.87 -2085.104)" fill="#acd5f4"/>
        <path id="Trazado_3591" data-name="Trazado 3591" d="M1303.411,2089.383l2.167,16.494,2.572-17.775-.127-1.229H1303.7Z" transform="translate(-1271.046 -2085.104)" fill="#86bbd8"/>
        <path id="Trazado_3592" data-name="Trazado 3592" d="M1158.954,2141.335h-3.408l5.623-54.462h4.942Z" transform="translate(-1155.546 -2085.104)" fill="#acd5f4"/>
        <path id="Trazado_3593" data-name="Trazado 3593" d="M1178.7,2089.383l-6.614,16.808,1.876-18.089.126-1.229h4.32Z" transform="translate(-1168.469 -2085.104)" fill="#86bbd8"/>
        <rect id="Rectángulo_3043" data-name="Rectángulo 3043" width="104.695" height="3.183" transform="translate(0.853)" fill="#367082"/>
        <rect id="Rectángulo_3044" data-name="Rectángulo 3044" width="146.059" height="3.183" transform="translate(40.044)" fill="url(#radial-gradient)"/>
      </g>
    </g>
    <g id="Grupo_11213" data-name="Grupo 11213" transform="translate(1186.711 1645.95)">
      <path id="Trazado_3594" data-name="Trazado 3594" d="M1516.449,1763.779a2.247,2.247,0,0,0,2.246,2.246h14.18v5.24l5.24-5.24h4.535a2.246,2.246,0,0,0,2.246-2.246v-18.715a2.246,2.246,0,0,0-2.246-2.246h-23.956a2.247,2.247,0,0,0-2.246,2.246Z" transform="translate(-1516.449 -1742.818)" fill="#5acffb"/>
      <rect id="Rectángulo_3045" data-name="Rectángulo 3045" width="19.464" height="1.497" transform="translate(4.492 6.738)" fill="#fff"/>
      <rect id="Rectángulo_3046" data-name="Rectángulo 3046" width="19.464" height="1.497" transform="translate(4.492 10.481)" fill="#fff"/>
      <rect id="Rectángulo_3047" data-name="Rectángulo 3047" width="19.464" height="1.497" transform="translate(4.492 14.224)" fill="#fff"/>
    </g>
    <g id="Grupo_11214" data-name="Grupo 11214" transform="translate(1209.915 1618.806)">
      <path id="Trazado_3595" data-name="Trazado 3595" d="M1650.908,1639.767a2.246,2.246,0,0,1-2.246,2.246h-14.18v5.24l-5.24-5.24h-4.535a2.246,2.246,0,0,1-2.246-2.246v-18.715a2.246,2.246,0,0,1,2.246-2.246h23.956a2.246,2.246,0,0,1,2.246,2.246Z" transform="translate(-1622.46 -1618.806)" fill="#fdbf14"/>
      <rect id="Rectángulo_3048" data-name="Rectángulo 3048" width="19.464" height="1.497" transform="translate(4.492 6.738)" fill="#fff"/>
      <rect id="Rectángulo_3049" data-name="Rectángulo 3049" width="19.464" height="1.497" transform="translate(4.492 10.481)" fill="#fff"/>
      <rect id="Rectángulo_3050" data-name="Rectángulo 3050" width="19.464" height="1.498" transform="translate(4.492 14.224)" fill="#fff"/>
    </g>
    <g id="Grupo_11215" data-name="Grupo 11215" transform="translate(1249.307 1626.212)">
      <path id="Trazado_3596" data-name="Trazado 3596" d="M1823.288,1652.643h-18.773a2.086,2.086,0,0,0-2.086,2.086v14.6a2.086,2.086,0,0,0,2.086,2.086h6.262l1.043,1.043,2.085,2.086,2.085-2.086,1.043-1.043h6.255a2.086,2.086,0,0,0,2.086-2.086v-14.6A2.086,2.086,0,0,0,1823.288,1652.643Z" transform="translate(-1802.429 -1652.643)" fill="#3dc7c9"/>
      <path id="Trazado_3597" data-name="Trazado 3597" d="M1836.09,1670.515v-2.086H1833.9a5.185,5.185,0,0,0-.763-1.831l1.552-1.551-1.475-1.475-1.552,1.552a5.17,5.17,0,0,0-1.829-.762v-2.191h-2.086v2.191a5.168,5.168,0,0,0-1.829.762l-1.552-1.552-1.476,1.475,1.552,1.552a5.2,5.2,0,0,0-.762,1.83h-2.191v2.086h2.191a5.173,5.173,0,0,0,.762,1.829l-1.552,1.553,1.475,1.475,1.552-1.553a5.2,5.2,0,0,0,1.83.763v2.191h2.086v-2.191a5.2,5.2,0,0,0,1.829-.762l1.552,1.552,1.475-1.475-1.552-1.552a5.182,5.182,0,0,0,.763-1.83Zm-7.3,2.086a3.129,3.129,0,1,1,3.129-3.129A3.13,3.13,0,0,1,1828.79,1672.6Z" transform="translate(-1817.317 -1660.086)" fill="#fff"/>
    </g>
    <g id="Grupo_11216" data-name="Grupo 11216" transform="translate(1280 1675.846)">
      <path id="Trazado_3598" data-name="Trazado 3598" d="M1948.115,1879.4a1.638,1.638,0,0,0-1.638,1.638v1.091h-3.823l3.823,3.821v9.828a1.638,1.638,0,0,0,1.638,1.638h15.833a1.638,1.638,0,0,0,1.638-1.638v-14.741a1.638,1.638,0,0,0-1.638-1.638Z" transform="translate(-1942.654 -1879.4)" fill="#2c7eea"/>
    </g>
    <g id="Grupo_11220" data-name="Grupo 11220" transform="translate(1102.773 1680.498)">
      <g id="Grupo_11217" data-name="Grupo 11217" transform="translate(0 0)">
        <path id="Trazado_3599" data-name="Trazado 3599" d="M1150.437,1900.655a1.638,1.638,0,0,1,1.638,1.638v1.092h3.822l-3.822,3.821v9.828a1.638,1.638,0,0,1-1.638,1.638H1134.6a1.638,1.638,0,0,1-1.638-1.638v-14.74a1.638,1.638,0,0,1,1.638-1.638Z" transform="translate(-1132.966 -1900.655)" fill="#fdbf14"/>
      </g>
      <g id="Grupo_11219" data-name="Grupo 11219" transform="translate(5.987 3.549)">
        <g id="Grupo_11218" data-name="Grupo 11218" transform="translate(2.205 9.415)">
          <rect id="Rectángulo_3051" data-name="Rectángulo 3051" width="3.528" height="0.883" fill="#fff"/>
        </g>
        <path id="Trazado_3600" data-name="Trazado 3600" d="M1164.288,1916.867a3.968,3.968,0,0,1,1.764,7.523v1.3h-1.323v-2.646h.441v-.881h-1.764v.881h.441v2.646h-1.323v-1.3a3.968,3.968,0,0,1,1.763-7.523Z" transform="translate(-1160.319 -1916.867)" fill="#fff"/>
      </g>
    </g>
    <path id="Trazado_3601" data-name="Trazado 3601" d="M1993.055,1899.53a1.365,1.365,0,1,0-1.906,0h-2.36v1.971a1.364,1.364,0,1,1,0,1.906v1.971h6.628v-5.848Z" transform="translate(-698.691 -217.45)" fill="#fff"/>
  </g>
</svg>
