<svg xmlns="http://www.w3.org/2000/svg" xmlns:xlink="http://www.w3.org/1999/xlink" width="208.619" height="240.834" viewBox="0 0 208.619 240.834">
  <defs>
    <linearGradient id="linear-gradient" x1="0.005" y1="-0.167" x2="1.148" y2="1.374" gradientUnits="objectBoundingBox">
      <stop offset="0" stop-color="#e79d5a"/>
      <stop offset="1" stop-color="#f2d05f"/>
    </linearGradient>
    <linearGradient id="linear-gradient-2" x1="0" y1="0.5" x2="1" y2="0.5" xlink:href="#linear-gradient"/>
    <linearGradient id="linear-gradient-3" x1="0.88" y1="0.926" x2="-0.477" y2="-1.217" xlink:href="#linear-gradient"/>
  </defs>
  <g id="Grupo_11016" data-name="Grupo 11016" transform="translate(-5543.321 -2918.522)">
    <g id="Grupo_11015" data-name="Grupo 11015" transform="translate(5543.321 2918.522)">
      <g id="Grupo_10948" data-name="Grupo 10948" transform="translate(0.239 26.544)">
        <path id="Rectángulo_2970" data-name="Rectángulo 2970" d="M71.179,0h0a71.18,71.18,0,0,1,71.18,71.18v45.988a71.18,71.18,0,0,1-71.18,71.18h0A71.179,71.179,0,0,1,0,117.169V71.179A71.179,71.179,0,0,1,71.179,0Z" transform="translate(142.36 188.348) rotate(180)" fill="url(#linear-gradient)"/>
      </g>
      <path id="Trazado_2996" data-name="Trazado 2996" d="M5720.091,2918.522c-31.045,2.007-31.635,37.3-31.635,37.3v168.093H5563.8V2955.823s-.143-35.177,31.791-37.3Z" transform="translate(-5554.71 -2918.522)" fill="#e4eef3"/>
      <rect id="Rectángulo_2971" data-name="Rectángulo 2971" width="85.62" height="7.555" transform="translate(25.461 43.912)" fill="#fff"/>
      <rect id="Rectángulo_2972" data-name="Rectángulo 2972" width="73.108" height="5.351" transform="translate(25.461 61.382)" fill="#fff"/>
      <rect id="Rectángulo_2973" data-name="Rectángulo 2973" width="36.751" height="7.948" transform="translate(25.461 75.508)" fill="#fff"/>
      <rect id="Rectángulo_2974" data-name="Rectángulo 2974" width="38.01" height="7.948" transform="translate(73.071 75.508)" fill="#fff"/>
      <rect id="Rectángulo_2975" data-name="Rectángulo 2975" width="58.549" height="5.666" transform="translate(25.461 90.814)" fill="#fff"/>
      <rect id="Rectángulo_2976" data-name="Rectángulo 2976" width="65.966" height="3.148" transform="translate(25.461 104.979)" fill="#fff"/>
      <rect id="Rectángulo_2977" data-name="Rectángulo 2977" width="79.324" height="3.148" transform="translate(25.461 119.144)" fill="#fff"/>
      <g id="Grupo_10949" data-name="Grupo 10949" transform="translate(25.209 133.058)">
        <path id="Trazado_2997" data-name="Trazado 2997" d="M5637.36,3236.063h-37.253v-17.815h37.253Zm-36.75-.5h36.247V3218.75H5600.61Z" transform="translate(-5600.107 -3218.247)" fill="#e0e8ee"/>
      </g>
      <rect id="Rectángulo_2978" data-name="Rectángulo 2978" width="33.366" height="4.092" transform="translate(71.419 133.309)" fill="#e0e8ee"/>
      <rect id="Rectángulo_2979" data-name="Rectángulo 2979" width="23.649" height="4.092" transform="translate(71.419 141.966)" fill="#e0e8ee"/>
      <rect id="Rectángulo_2980" data-name="Rectángulo 2980" width="65.376" height="3.148" transform="translate(25.461 161.639)" fill="#e0e8ee"/>
      <rect id="Rectángulo_2981" data-name="Rectángulo 2981" width="37.577" height="3.148" transform="translate(25.461 175.805)" fill="#e0e8ee"/>
      <g id="Grupo_10950" data-name="Grupo 10950" transform="translate(97.561 160.634)">
        <path id="Trazado_2998" data-name="Trazado 2998" d="M5786.575,3303.854h-23.489v-23.49h23.489Zm-21.287-2.2h19.085v-19.085h-19.085Z" transform="translate(-5763.086 -3280.364)" fill="url(#linear-gradient-2)"/>
      </g>
      <g id="Grupo_10951" data-name="Grupo 10951" transform="translate(101.416 161.795)">
        <path id="Trazado_2999" data-name="Trazado 2999" d="M5780.029,3298.48l-8.258-7.785,2.518-2.671,5.907,5.568,12.917-10.613,2.331,2.836Z" transform="translate(-5771.771 -3282.979)" fill="url(#linear-gradient-3)"/>
      </g>
      <g id="Grupo_10983" data-name="Grupo 10983" transform="translate(0 121.756)">
        <g id="Grupo_10954" data-name="Grupo 10954" transform="translate(23.837 57.333)">
          <g id="Grupo_10953" data-name="Grupo 10953">
            <g id="Grupo_10952" data-name="Grupo 10952">
              <path id="Trazado_3000" data-name="Trazado 3000" d="M5599.885,3321.937a3.3,3.3,0,0,1,.687.944,5.459,5.459,0,0,0,.828,1.11,12.727,12.727,0,0,1,1.163,1.9,9.762,9.762,0,0,0,.115,1.432c.13.285.466.83.212.933s-.691-.306-.691-.306a.391.391,0,0,1-.093.424.672.672,0,0,1-.661.183s-.075.337-.265.426a.86.86,0,0,1-.69.069.787.787,0,0,1-.458.282.719.719,0,0,1-.658-.215s-.47.22-.682.022a2.469,2.469,0,0,1-.376-.65,8.324,8.324,0,0,1-.361-3.641,3.294,3.294,0,0,0-.937-2.672Z" transform="translate(-5597.016 -3321.937)" fill="#dba585"/>
            </g>
          </g>
        </g>
        <g id="Grupo_10955" data-name="Grupo 10955" transform="translate(23.114 62.487)">
          <path id="Trazado_3001" data-name="Trazado 3001" d="M5603.193,3340.132H5596.6a1.216,1.216,0,0,1-1.214-1.214v-4.157a1.216,1.216,0,0,1,1.214-1.214h6.592a1.216,1.216,0,0,1,1.214,1.214v4.157A1.216,1.216,0,0,1,5603.193,3340.132Zm-6.592-5.771a.4.4,0,0,0-.4.4v4.157a.4.4,0,0,0,.4.4h6.592a.4.4,0,0,0,.4-.4v-4.157a.4.4,0,0,0-.4-.4Z" transform="translate(-5595.386 -3333.546)" fill="#1a232f"/>
        </g>
        <g id="Grupo_10956" data-name="Grupo 10956" transform="translate(15.256 67.289)">
          <rect id="Rectángulo_2982" data-name="Rectángulo 2982" width="24.735" height="17.722" fill="#5a5c5a"/>
        </g>
        <g id="Grupo_10957" data-name="Grupo 10957" transform="translate(15.154 19.868)">
          <path id="Trazado_3002" data-name="Trazado 3002" d="M5579.42,3237.542s-1.267.017-1.807,3.806.483,5.372.605,6.949,1.971,11.758,2.021,12.208.3,5.869,1.019,7.307,6.022,9.589,6.094,10,2.574-1.419,2.574-1.419-4.165-8.718-4.406-9.712-1.918-6.074-1.653-7.624-.742-10.1-.645-11.055S5581.849,3238.12,5579.42,3237.542Z" transform="translate(-5577.457 -3237.542)" fill="#dba585"/>
        </g>
        <g id="Grupo_10958" data-name="Grupo 10958" transform="translate(15.068 19.868)">
          <path id="Trazado_3003" data-name="Trazado 3003" d="M5579.313,3237.542s-1.267.017-1.807,3.806a15.479,15.479,0,0,0,.274,6.794c.309,1.551,1.359,11.038,1.41,11.489s1.309,6.169,1.961,8.18c.5,1.53,5.225,9.54,5.3,9.947s3.675-1.872,3.675-1.872-4.622-9.016-4.863-10.011a39.61,39.61,0,0,1-1.048-6.01c-.03-1.848-1.192-10.917-1.095-11.869S5582.849,3238.837,5579.313,3237.542Z" transform="translate(-5577.264 -3237.542)" fill="#414d99"/>
        </g>
        <path id="Trazado_3004" data-name="Trazado 3004" d="M5553.824,3436.467a37.066,37.066,0,0,0,3.1,4.067s2.047.716,2.174,2.107c.083.909,0,2.371-2.335,2.438s-3.838-.751-4.267-2.167a4.271,4.271,0,0,0-1.236-2.049v2.963h-.527s-.132-2.865-.165-3.392-.378-2.553.733-3.45A3.082,3.082,0,0,1,5553.824,3436.467Z" transform="translate(-5547.306 -3328.246)" fill="#e6d8d1"/>
        <path id="Trazado_3005" data-name="Trazado 3005" d="M5586.794,3429.735a9.458,9.458,0,0,0,1.1,1.844c.529.69,2.173,3.523,2.9,3.721s2.963.593,3.161,1.844.3,2.141-1.911,2.239-3.655.231-4.708-1.317a11.478,11.478,0,0,0-2.733-2.668v4.038h-.855a36.628,36.628,0,0,0-.626-4.5c-.23-.3-.823-3.524,1.218-5.2S5586.794,3429.735,5586.794,3429.735Z" transform="translate(-5565.308 -3324.131)" fill="#e6d8d1"/>
        <path id="Trazado_3006" data-name="Trazado 3006" d="M5548.661,3292.642a20.686,20.686,0,0,0-3.542,7.92c-.755,4.3.447,18.721.414,20.844s-2.009,7.409-1.614,11.411,3.7,23.585,3.7,23.585l2.527-.518s-.247-20.3,0-21.981.743-7.8.842-8.493,6.272-18.85,6.272-21.948S5555.378,3287.587,5548.661,3292.642Z" transform="translate(-5543.624 -3247.663)" fill="#dba585"/>
        <path id="Trazado_3007" data-name="Trazado 3007" d="M5574.193,3296.16s4.578,17.47,5.121,19.89,1.331,4.417,1.331,5.444a35.968,35.968,0,0,1-.886,6.213l-3.112,27.661h-2.454s-1.547-16.152-1.794-19.413,1.778-8.3,1.284-9.682-7.953-17.337-7.953-17.337S5560.083,3291.089,5574.193,3296.16Z" transform="translate(-5555.161 -3249.766)" fill="#dba585"/>
        <path id="Trazado_3008" data-name="Trazado 3008" d="M5558.314,3440.8a3.653,3.653,0,0,1-3.668-.317,7.135,7.135,0,0,1-2.335-3.4l2.527-.518Z" transform="translate(-5548.32 -3328.345)" fill="#dba585"/>
        <path id="Trazado_3009" data-name="Trazado 3009" d="M5592.064,3435.679s-1.977.494-2.732,0-3.333-4.846-4.186-5.107c0,0,.826-1.677,2.918-.458C5588.064,3430.114,5591.5,3434.955,5592.064,3435.679Z" transform="translate(-5566.579 -3324.51)" fill="#dba585"/>
        <path id="Trazado_3010" data-name="Trazado 3010" d="M5568.895,3321.565s-8.41,4.95-24.174,4.95c0,0-.892-18.283,1.4-23.426s17.506-1.946,17.506-1.946S5568.353,3317.783,5568.895,3321.565Z" transform="translate(-5544.004 -3252.495)" fill="#2c3d54"/>
        <g id="Grupo_10959" data-name="Grupo 10959" transform="translate(1.257 18.374)">
          <path id="Trazado_3011" data-name="Trazado 3011" d="M5558.3,3234.306a25.556,25.556,0,0,0,3.293,1.324c.849.169,4.143,4.447,4.72,6.009s0,3.905-1.188,6.655-.067,3.667-.611,6.417a64.123,64.123,0,0,0-.917,10.1c.1,1.528-13.732,1.816-16.889-.968,0,0,3.173-4.753,3.58-5.432s.068-4.38-.306-5.33-2.859-9.035-2.859-9.035-2.033-6.209-.2-7.635c1.6-1.239,5.945-1.681,6.727-1.953A13.316,13.316,0,0,1,5558.3,3234.306Z" transform="translate(-5546.153 -3234.177)" fill="#e6d8d1"/>
        </g>
        <g id="Grupo_10960" data-name="Grupo 10960" transform="translate(14.11 17.632)">
          <path id="Trazado_3012" data-name="Trazado 3012" d="M5575.175,3238.826l1.486-1.74-1.29-4.579A30.23,30.23,0,0,0,5575.175,3238.826Z" transform="translate(-5575.104 -3232.507)" fill="#cfc3bc"/>
        </g>
        <g id="Grupo_10961" data-name="Grupo 10961" transform="translate(6.567 0.721)">
          <path id="Trazado_3013" data-name="Trazado 3013" d="M5561.862,3194.844c1.453-.511,6.79-1.766,8.046,5.059s-2.513,11.679-5.976,10.389-5.6-6.01-5.805-9.609A5.377,5.377,0,0,1,5561.862,3194.844Z" transform="translate(-5558.113 -3194.412)" fill="#dba585"/>
        </g>
        <g id="Grupo_10962" data-name="Grupo 10962" transform="translate(5.845 0.162)">
          <path id="Trazado_3014" data-name="Trazado 3014" d="M5569,3199.2s.261-5.839-5.545-6.043-7.367,4.577-6.892,8.06a8.523,8.523,0,0,0,2.879,5.321s-.209-2.818.918-3.551,5.642-2.191,7.61-5.586A5.2,5.2,0,0,1,5569,3199.2Z" transform="translate(-5556.487 -3193.153)" fill="#2c323d"/>
        </g>
        <g id="Grupo_10963" data-name="Grupo 10963" transform="translate(3.509)">
          <path id="Trazado_3015" data-name="Trazado 3015" d="M5558.839,3198.382a3.91,3.91,0,1,1-2.3-5.422A4.183,4.183,0,0,1,5558.839,3198.382Z" transform="translate(-5551.225 -3192.789)" fill="#2c323d"/>
        </g>
        <g id="Grupo_10964" data-name="Grupo 10964" transform="translate(8.752 12.335)">
          <path id="Trazado_3016" data-name="Trazado 3016" d="M5568.851,3223.921a58.4,58.4,0,0,0-.386,5.944s-2.54,2.545-5.429-2.971a7.573,7.573,0,0,0,.3-5.372C5562.421,3218.424,5568.851,3223.921,5568.851,3223.921Z" transform="translate(-5563.036 -3220.575)" fill="#dba585"/>
        </g>
        <g id="Grupo_10965" data-name="Grupo 10965" transform="translate(11.257 21.626)">
          <path id="Trazado_3017" data-name="Trazado 3017" d="M5571.6,3241.5v2.326l-2.924-2.184Z" transform="translate(-5568.679 -3241.502)" fill="#dba585"/>
        </g>
        <g id="Grupo_10966" data-name="Grupo 10966" transform="translate(7.556 18.374)">
          <path id="Trazado_3018" data-name="Trazado 3018" d="M5566.966,3239.755l-1.213-1.5-4.089-4.075-1.322,1.274Z" transform="translate(-5560.342 -3234.178)" fill="#cfc3bc"/>
        </g>
        <g id="Grupo_10967" data-name="Grupo 10967" transform="translate(0 18.764)">
          <path id="Trazado_3019" data-name="Trazado 3019" d="M5551.632,3235.056s3.431,5.207,3.595,7.5-1.275,19.435-2.428,24.946-9.478-.622-9.478-.622,5.595-9.056,3.447-16.308-2.928-10.151-2.928-10.151.738-4.038,3.357-4.606C5549.494,3235.314,5551.632,3235.056,5551.632,3235.056Z" transform="translate(-5543.321 -3235.056)" fill="#414d99"/>
        </g>
        <g id="Grupo_10968" data-name="Grupo 10968" transform="translate(15.214 19.305)">
          <path id="Trazado_3020" data-name="Trazado 3020" d="M5584.016,3243.5s.619,2.19-1.792,7.03c0,0,.039,6.195.107,8.13s.526,9.252.526,9.252l-2.385,1.4a.673.673,0,0,1-1.008-.661c.675-5.569,2.871-26.694-1.873-32.372l1.9.562A15.415,15.415,0,0,1,5584.016,3243.5Z" transform="translate(-5577.591 -3236.276)" fill="#414d99"/>
        </g>
        <g id="Grupo_10969" data-name="Grupo 10969" transform="translate(8.581 8.228)">
          <path id="Trazado_3021" data-name="Trazado 3021" d="M5564.375,3211.86a.9.9,0,0,0-1.324-.381c-.408.306-.646,1.222,0,2.411S5565.97,3215.906,5564.375,3211.86Z" transform="translate(-5562.651 -3211.323)" fill="#dba585"/>
        </g>
        <g id="Grupo_10970" data-name="Grupo 10970" transform="translate(14.376 17.632)">
          <path id="Trazado_3022" data-name="Trazado 3022" d="M5576.995,3237.086l1.871.517-3.161-5.1Z" transform="translate(-5575.705 -3232.507)" fill="#f3e4dc"/>
        </g>
        <g id="Grupo_10971" data-name="Grupo 10971" transform="translate(7.747 18.374)">
          <path id="Trazado_3023" data-name="Trazado 3023" d="M5565.992,3238.253l-1.71,2.241-3.51-5.851,1.131-.465Z" transform="translate(-5560.772 -3234.178)" fill="#f3e4dc"/>
        </g>
        <g id="Grupo_10972" data-name="Grupo 10972" transform="translate(9.722 14.723)">
          <path id="Trazado_3024" data-name="Trazado 3024" d="M5569.965,3227.9l-.084.9s-2.019.378-4.66-2.845A5.733,5.733,0,0,0,5569.965,3227.9Z" transform="translate(-5565.221 -3225.953)" fill="#997761"/>
        </g>
        <g id="Grupo_10975" data-name="Grupo 10975" transform="translate(23.85 43.762)">
          <g id="Grupo_10974" data-name="Grupo 10974">
            <g id="Grupo_10973" data-name="Grupo 10973">
              <path id="Trazado_3025" data-name="Trazado 3025" d="M5598.05,3291.727s1.188.765,1.871.337a4.514,4.514,0,0,1,1.906-.43c.417-.022,1.673-.565,1.706-.039s-2.028.995-2.44,1.179,1.4,1.071,1.608,1.495-1.436,3.347-2.611,2.595-1.935-2.333-2.167-2.424a8.485,8.485,0,0,1-.877-.514Z" transform="translate(-5597.045 -3291.366)" fill="#dba585"/>
            </g>
          </g>
        </g>
        <g id="Grupo_10976" data-name="Grupo 10976" transform="translate(0.835 20.287)">
          <path id="Trazado_3026" data-name="Trazado 3026" d="M5546.672,3238.538a3.326,3.326,0,0,1,3.073,1.118c1.426,1.528,2.139,4.04,2.513,4.855s5.093,8.352,5.365,8.522,5.067,4.04,7.24,6.11a38.182,38.182,0,0,0,6.408,4.38l-1.6,2.24s-12.867-6.858-14.5-9.37-8.136-9.473-8.136-9.473S5543.158,3241.068,5546.672,3238.538Z" transform="translate(-5545.201 -3238.488)" fill="#dba585"/>
        </g>
        <g id="Grupo_10979" data-name="Grupo 10979" transform="translate(26.952 46.425)">
          <g id="Grupo_10978" data-name="Grupo 10978">
            <g id="Grupo_10977" data-name="Grupo 10977">
              <path id="Trazado_3027" data-name="Trazado 3027" d="M5606.352,3297.364a31.243,31.243,0,0,1,3.534,2.9c.088.362-.061.541-.393.317s-3.4-2.361-3.4-2.361,3.572,3.695,3.709,3.976c.08.165-.187.527-.376.424s-3.94-3.563-3.94-3.563,3.33,3.456,3.375,3.725a.331.331,0,0,1-.555.267c-.265-.239-3.537-3.272-3.537-3.272s2.265,2.668,2.169,2.917c-.059.152-.275.477-.839-.23s-2.066-2.235-2.066-2.235Z" transform="translate(-5604.032 -3297.364)" fill="#dba585"/>
            </g>
          </g>
        </g>
        <path id="Trazado_3028" data-name="Trazado 3028" d="M5588.594,3265.652s.114,7.733-.358,11.462l-.209-10.248Z" transform="translate(-5568.18 -3233.305)" fill="#2f386c"/>
        <g id="Grupo_10980" data-name="Grupo 10980" transform="translate(0.318 19.77)">
          <path id="Trazado_3029" data-name="Trazado 3029" d="M5546.875,3237.322a5,5,0,0,1,2.364,1.686c1.426,1.528,2.139,4.04,2.513,4.855s5.093,8.352,5.364,8.523a60.245,60.245,0,0,1,6.375,4.938,46.567,46.567,0,0,0,6.216,4.545l-2.075,3.082s-11.347-6.285-13.148-8.679c-1.922-2.556-8.777-10.062-8.777-10.062S5541.265,3239.372,5546.875,3237.322Z" transform="translate(-5544.038 -3237.322)" fill="#414d99"/>
        </g>
        <g id="Grupo_10982" data-name="Grupo 10982" transform="translate(24.885 60.958)">
          <g id="Grupo_10981" data-name="Grupo 10981">
            <path id="Trazado_3030" data-name="Trazado 3030" d="M5603.528,3332.3s-.442-1.721-1-1.978-.428.373-.428.373-.113-.625-.628-.59-.329.765-.329.765a.514.514,0,0,0-.7-.232c-.488.22-.2.791-.2.791s-.66-.47-.819.171a2.757,2.757,0,0,0,.544,2.106.611.611,0,0,0,.708-.014.724.724,0,0,0,1.128-.065s.879.233.964-.5C5602.774,3333.127,5603.788,3333.287,5603.528,3332.3Z" transform="translate(-5599.376 -3330.101)" fill="#c99a7d"/>
          </g>
        </g>
        <path id="Trazado_3031" data-name="Trazado 3031" d="M5563,3276.235l-3.885-6.268s3.313,3.911,3.657,4.331.375.451.375.451S5563.046,3276.021,5563,3276.235Z" transform="translate(-5552.104 -3235.705)" fill="#2f386c"/>
      </g>
      <path id="Trazado_3032" data-name="Trazado 3032" d="M5776.826,3105.044h-35.6V3137.4l5.435-5.629h30.165Z" transform="translate(-5653.37 -3022.24)" fill="#f1cc5e"/>
      <g id="Grupo_10988" data-name="Grupo 10988" transform="translate(98.96 86.485)">
        <g id="Grupo_10984" data-name="Grupo 10984">
          <path id="Trazado_3033" data-name="Trazado 3033" d="M5772.511,3131.847a3.33,3.33,0,0,1-1.926-.775,2.5,2.5,0,0,1-.916-1.907,15.092,15.092,0,0,0-.908-3.892,6.7,6.7,0,1,1,8.027.236,14.4,14.4,0,0,0-.892,3.7,2.928,2.928,0,0,1-3.132,2.651C5772.68,3131.857,5772.595,3131.854,5772.511,3131.847Zm.888-17.945a6.149,6.149,0,0,0-4.237,10.986l.061.048.028.073a15.854,15.854,0,0,1,.967,4.126v.021a1.956,1.956,0,0,0,.724,1.5,2.823,2.823,0,0,0,1.827.654,2.385,2.385,0,0,0,2.58-2.118v-.021a15.023,15.023,0,0,1,.955-3.934l.03-.082.072-.049a6.148,6.148,0,0,0-3.008-11.2Z" transform="translate(-5766.236 -3113.337)" fill="#fff"/>
        </g>
        <g id="Grupo_10985" data-name="Grupo 10985" transform="translate(4.156 8.917)">
          <path id="Trazado_3034" data-name="Trazado 3034" d="M5776.476,3140.733l-.877-7.3,1.521,1.259.944-1.047.815.982,1.422-1.2-.865,7.31-.544-.064.7-5.928-.782.663-.765-.921-.871.966-.87-.719.714,5.936Z" transform="translate(-5775.599 -3133.425)" fill="#fff"/>
        </g>
        <g id="Grupo_10986" data-name="Grupo 10986" transform="translate(4.14 17.837)">
          <rect id="Rectángulo_2983" data-name="Rectángulo 2983" width="4.75" height="1.914" transform="translate(0.013) rotate(0.38)" fill="#fff"/>
        </g>
        <g id="Grupo_10987" data-name="Grupo 10987" transform="translate(3.382 15.876)">
          <rect id="Rectángulo_2984" data-name="Rectángulo 2984" width="6.278" height="3.081" transform="matrix(1, 0.007, -0.007, 1, 0.021, 0)" fill="#fff"/>
        </g>
      </g>
      <g id="Grupo_10998" data-name="Grupo 10998" transform="translate(104.169 141.772)">
        <path id="Trazado_3035" data-name="Trazado 3035" d="M5864.681,3334.7a16.229,16.229,0,0,1-1.856.271c-.6.019-3.379-1.24-4.268-1.12a64.854,64.854,0,0,0-6.95,2.763c-.263.18.123.576.123.576l13.312.158Z" transform="translate(-5818.866 -3291.238)" fill="#dba585"/>
        <rect id="Rectángulo_2985" data-name="Rectángulo 2985" width="22.142" height="2.028" transform="translate(50.3 48.028) rotate(-179.566)" fill="#363957"/>
        <rect id="Rectángulo_2986" data-name="Rectángulo 2986" width="22.142" height="2.028" transform="matrix(-0.292, -0.956, 0.956, -0.292, 28.151, 47.861)" fill="#363957"/>
        <g id="Grupo_10989" data-name="Grupo 10989" transform="translate(68.591 86.727)">
          <path id="Trazado_3036" data-name="Trazado 3036" d="M5932.478,3435.342l.854,1.848s3.6-1.341,3.615-1.386-.99-2.567-.99-2.567Z" transform="translate(-5932.478 -3433.237)" fill="#525368"/>
        </g>
        <g id="Grupo_10990" data-name="Grupo 10990" transform="translate(36.792 88.792)">
          <path id="Trazado_3037" data-name="Trazado 3037" d="M5861.843,3437.888l-.995,2.908s3.948.869,4.521.823c.05,0,.747-3.294.747-3.294Z" transform="translate(-5860.848 -3437.888)" fill="#6a6b87"/>
        </g>
        <path id="Trazado_3038" data-name="Trazado 3038" d="M5853.574,3442.391s-2.758-.75-2.84-.87a2.852,2.852,0,0,0-1.615-.715c-.521.087-.568.711-1.09.839s-4.552,1.417-5.11,1.746-3.226-.641-3.739.05-1.011,2.506,3.178,3.134,8.675,2.5,9.678,2.243S5853.728,3443.507,5853.574,3442.391Z" transform="translate(-5811.821 -3350.714)" fill="#26283a"/>
        <path id="Trazado_3039" data-name="Trazado 3039" d="M5929.238,3437.907s-2.557,1.091-2.69,1.05a2.773,2.773,0,0,0-1.665.428c-.345.381-.005.886-.326,1.3s-2.144,2.824-2.677,3.38c-.437.456-2.829.881-3.6,1.683-.578.6.1,3.022,4.172,1.867,3.964-1.125,8.872-3.075,9.484-3.874S5930.028,3438.667,5929.238,3437.907Z" transform="translate(-5855.895 -3349.106)" fill="#26283a"/>
        <g id="Grupo_10991" data-name="Grupo 10991" transform="translate(48.878 46.614)">
          <path id="Trazado_3040" data-name="Trazado 3040" d="M5909.917,3348.815s-11.244,5-13.627,6.71-7.6,4.858-7.773,5.628-1.207.02.644,3.869,10.6,13.113,11.418,14.12c.855,1.05,6.923,7.341,6.923,7.341l4.564-3.437s-8.775-12.9-10.045-14.8-1.841-2.178-1.09-3.016,3.751-.826,19.193-7.222c1.543-.639,5.849-2.121,6.417-4.192,1.025-3.744.146-8.489-4.005-10.577S5909.917,3348.815,5909.917,3348.815Z" transform="translate(-5888.073 -3342.879)" fill="#2e3048"/>
        </g>
        <g id="Grupo_10992" data-name="Grupo 10992" transform="translate(65.324 14.843)">
          <path id="Trazado_3041" data-name="Trazado 3041" d="M5925.169,3272.824a1.629,1.629,0,0,1,.318.54,13.19,13.19,0,0,1,.5,1.478c.51,1.784.973,4.072.973,4.072s6.436-5.362,5.526-5.7-1.583-1.9-1.583-1.9S5924.491,3272.223,5925.169,3272.824Z" transform="translate(-5925.119 -3271.312)" fill="#dba585"/>
        </g>
        <g id="Grupo_10993" data-name="Grupo 10993" transform="translate(36.792 49.972)">
          <path id="Trazado_3042" data-name="Trazado 3042" d="M5894.955,3351s-11.617,2.734-14.489,3.652a83.4,83.4,0,0,0-9.143,3.291c-.706.4-1.782,1.005-3.072,5.2-1.463,4.759-4.8,18.142-5.559,20.227-.476,1.309-1.844,6.459-1.844,6.459l5.936,1.03s7.069-14.232,7.642-18.026c.965-6.387,3.44-6.421,4.441-7s5.816.51,22.95-.857c1.712-.137,6.393-.222,7.6-2.069,2.188-3.338,4.4-7.13,1-10.486S5894.955,3351,5894.955,3351Z" transform="translate(-5860.848 -3350.442)" fill="#2e3048"/>
        </g>
        <g id="Grupo_10994" data-name="Grupo 10994" transform="translate(59.826 1.991)">
          <path id="Trazado_3043" data-name="Trazado 3043" d="M5916.014,3243.282s-2.011,3.472-1.552,4.417-2.1,3.234-1.681,3.719,1.286,1.073,1.271,1.214.744,4.667,1.73,4.768,7.731-.249,8.291-2.358,2.2-6.731,2.592-7.589S5923.165,3239.966,5916.014,3243.282Z" transform="translate(-5912.734 -3242.36)" fill="#dba585"/>
        </g>
        <g id="Grupo_10995" data-name="Grupo 10995" transform="translate(62.467)">
          <path id="Trazado_3044" data-name="Trazado 3044" d="M5927.638,3240.117a7.456,7.456,0,0,1,1.378,1.309c.442.208,3.051,1.5,2.508,2.9-.73,1.884-3.679,6.931-3.927,7.459-.033.07-.033-.063-.01-.346-.181-1.782-2.375-3.78-2.375-3.78l-1.17-.528a3.428,3.428,0,0,0,.37-2.2c-1.326-1.42-5.728-2.949-5.728-2.949C5919.312,3235.708,5924.688,3237.928,5927.638,3240.117Z" transform="translate(-5918.684 -3237.876)" fill="#eecaa2"/>
        </g>
        <g id="Grupo_10996" data-name="Grupo 10996" transform="translate(68.347 8.048)">
          <path id="Trazado_3045" data-name="Trazado 3045" d="M5933.011,3256.268a1.041,1.041,0,0,1,1.713,1c-.238,1.4-2.254,2.525-2.692,1.9S5932.679,3256.774,5933.011,3256.268Z" transform="translate(-5931.928 -3256.005)" fill="#dba585"/>
        </g>
        <path id="Trazado_3046" data-name="Trazado 3046" d="M5931.417,3275.6s8.151,4.75,9.991,13.044,5.166,22.859,5.225,24.584c0,0-11.031-5.308-17.006-3.848,0,0-3.762-13.516-5.741-16.708s.963-10.7.963-10.7S5927.66,3277.472,5931.417,3275.6Z" transform="translate(-5858.729 -3258.853)" fill="#70a9ed"/>
        <path id="Trazado_3047" data-name="Trazado 3047" d="M5953.785,3282.917l-6.568,19.264a1.72,1.72,0,0,0-.09.453l-1.575,25.329-27.464.612-8,29.13a3.059,3.059,0,0,0,.442,2.578,2.231,2.231,0,0,0,1.542,1.015c1.742.214,37,0,37,0v-1.457a1.329,1.329,0,0,0-1.343-1.315h-32.96a1.781,1.781,0,0,1-1.4-.657,1.156,1.156,0,0,1-.281-.9c.146-.928,7.183-24.663,7.183-24.663l26.556-.471a2.264,2.264,0,0,0,2.242-2.145l1.153-27.253a2.143,2.143,0,0,1,.084-.512l5.368-18.416s.563-1.283-.472-1.408A1.148,1.148,0,0,0,5953.785,3282.917Z" transform="translate(-5851.374 -3262.458)" fill="#5e5e5b"/>
        <path id="Trazado_3048" data-name="Trazado 3048" d="M5927.92,3384.8s-.02-2.1,2.862-2.25c3.31-.169,24.836-.317,24.836-.317l-.143,2.237Z" transform="translate(-5861.353 -3318.148)" fill="#c59661"/>
        <path id="Trazado_3049" data-name="Trazado 3049" d="M5839.371,3347.32v.981h-46.784v-.981a1.535,1.535,0,0,1,1.373-1.656H5838A1.536,1.536,0,0,1,5839.371,3347.32Z" transform="translate(-5786.099 -3297.813)" fill="#c59661"/>
        <path id="Trazado_3050" data-name="Trazado 3050" d="M5812.7,3456.574H5798.56v-2.261h11.876a2.261,2.261,0,0,1,2.261,2.261Z" transform="translate(-5789.42 -3358.229)" fill="#7b6f66"/>
        <rect id="Rectángulo_2987" data-name="Rectángulo 2987" width="1.868" height="47.857" transform="translate(10.037 50.488)" fill="#7b6f66"/>
        <rect id="Rectángulo_2988" data-name="Rectángulo 2988" width="1.868" height="47.857" transform="translate(13.791 50.488)" fill="#7b6f66"/>
        <path id="Trazado_3051" data-name="Trazado 3051" d="M5925.949,3275.094a13.2,13.2,0,0,1,.5,1.478,15.359,15.359,0,0,0,2.857-2.149A26.752,26.752,0,0,1,5925.949,3275.094Z" transform="translate(-5860.257 -3258.199)" fill="#997761"/>
        <path id="Trazado_3052" data-name="Trazado 3052" d="M5811.393,3348.3h-33.421v-.981a1.708,1.708,0,0,1,1.754-1.656h26.435Z" transform="translate(-5777.971 -3297.813)" fill="#ceaf8a"/>
        <g id="Grupo_10997" data-name="Grupo 10997" transform="translate(43.753 20.477)">
          <path id="Trazado_3053" data-name="Trazado 3053" d="M5901.887,3286.7s-1.941,2.75-3.141,4.834c-1.36,2.361-2.7,4.693-2.993,5.217-.6,1.066-2.735,1.636-3.681,2.042-.869.373-15.346,8.122-15.53,8.1a23.26,23.26,0,0,0,1.559,2.887s20.1-5.765,21.006-6.59a69.7,69.7,0,0,0,4.683-6.133c1.044-1.475,2.648-3.894,3.5-4.937.951-1.165,2.945-5.154.41-7.143C5904.458,3282.437,5902.667,3285.528,5901.887,3286.7Z" transform="translate(-5876.528 -3284.002)" fill="#70a9ed"/>
        </g>
        <path id="Trazado_3054" data-name="Trazado 3054" d="M5936.782,3301.976s-2.325,6.306-3.724,8.456a41.007,41.007,0,0,1-2.941,3.937l-.744-2.176S5935.39,3303.916,5936.782,3301.976Z" transform="translate(-5862.161 -3273.52)" fill="#46688d"/>
      </g>
      <g id="Grupo_11014" data-name="Grupo 11014" transform="translate(36.468 119.601)">
        <path id="Trazado_3055" data-name="Trazado 3055" d="M5733.1,3443.522a17.372,17.372,0,0,0,1.484,2.339c.586.665,2.833,1.853,2.845,3.827.013,2.142-3.787,1.547-5.272,1.469s-1.6-1.222-2.224-2.434-1.256-1.007-1.373-1.985a11.564,11.564,0,0,1,.605-3.216Z" transform="translate(-5682.789 -3330.058)" fill="#26283a"/>
        <g id="Grupo_10999" data-name="Grupo 10999" transform="translate(20.832 112.908)">
          <path id="Trazado_3056" data-name="Trazado 3056" d="M5679.258,3442.63a8.97,8.97,0,0,1-3.69,2.472c-1.858.428-3.159.974-3.173,2.147s5.349,1.946,7.476.764c3.175-1.765,3.5-1.233,3.85-2.115s-.423-3.242-.4-3.522C5683.349,3442.03,5679.258,3442.63,5679.258,3442.63Z" transform="translate(-5672.395 -3442.268)" fill="#26283a"/>
        </g>
        <g id="Grupo_11000" data-name="Grupo 11000" transform="translate(27.691 111.715)">
          <path id="Trazado_3057" data-name="Trazado 3057" d="M5688.055,3440.157a8.435,8.435,0,0,0-.205.979c.036.02,4.188.514,4.063-.254-.1-.624-.247-1.3-.247-1.3Z" transform="translate(-5687.846 -3439.581)" fill="#807f7d"/>
        </g>
        <g id="Grupo_11001" data-name="Grupo 11001" transform="translate(46.286 112.457)">
          <path id="Trazado_3058" data-name="Trazado 3058" d="M5729.876,3441.614a8.071,8.071,0,0,0-.14.936c.033.022,4.211.769,4.187.01a3.658,3.658,0,0,0-.385-1.305Z" transform="translate(-5729.732 -3441.254)" fill="#807f7d"/>
        </g>
        <g id="Grupo_11002" data-name="Grupo 11002" transform="translate(27.278 50.555)">
          <path id="Trazado_3059" data-name="Trazado 3059" d="M5691.313,3306.221s-1.51,14.667-2.3,19.688c-.918,5.87-1.229,10.721-1.485,13.76-.323,3.822-.385,22.622-.61,23.74s5,.308,5,.308,2.572-24.564,3.531-28.634c.894-3.79,4.209-20.107,5.024-19.072s1.826,19.042,2.43,22.03,2.439,26.39,2.439,26.39,4.162.829,5.268-.108c0,0,.5-20.167.119-25.771-.147-2.135,2.5-25.606-.894-35.056C5708.048,3298.5,5691.313,3306.221,5691.313,3306.221Z" transform="translate(-5686.915 -3301.814)" fill="#2e3048"/>
        </g>
        <g id="Grupo_11003" data-name="Grupo 11003" transform="translate(30.407 18.289)">
          <path id="Trazado_3060" data-name="Trazado 3060" d="M5708.789,3262.554s-1.008-1.523-2.074-1.719,14.7-7.818,14.658-10.541c-.033-2.208-5.521-6.281-5.521-6.281h0v-.038h0c-.12.437-1.912,6.96-1.969,9.867-.06,3.018.18,13.4.18,13.4l-4.041,1.082-12.908.121-2.947-1.2s.321-3.337.441-5.682c.075-1.49.365-4.158.29-6.756a23.86,23.86,0,0,0-.225-3.918c-.029-5.207-.344-10.363-.344-10.363q-.262-3.541-.366-6.627c.569-.3,1.255-.654,1.8-.914,1.7-.807,4.058-1.895,5.573-2.591.889-.407,1.757-.705,1.757-.705s6.06-.581,6.552-.55a15.5,15.5,0,0,1,1.905.652,69.546,69.546,0,0,1,6.951,2.95c.967.692,7.3,17.447,7.393,18.6C5726.063,3253.41,5708.789,3262.554,5708.789,3262.554Z" transform="translate(-5693.963 -3229.132)" fill="#d8d6e1"/>
        </g>
        <path id="Trazado_3061" data-name="Trazado 3061" d="M5694.811,3312.491a107.4,107.4,0,0,0,16.633,0v2.548s-11.565,1.1-17.022-.486Z" transform="translate(-5663.812 -3257.196)" fill="#232536"/>
        <g id="Grupo_11004" data-name="Grupo 11004" transform="translate(28.049 19.211)">
          <path id="Trazado_3062" data-name="Trazado 3062" d="M5690.868,3235.009c.068,2.094.17,4.34.348,6.744,0,0,.168,5.872.506,11.441a11.075,11.075,0,0,1,.108,2.447c-.084,1.089-.2,2.279-.345,3.519,0,.017,0,.033,0,.048q-.051.441-.1.889c0,.005,0,.009,0,.013a130.233,130.233,0,0,1-2.7,15.476c-.141.45.345.865.69,1.186l2.426,1.529s1-9.2,1.332-12.329c.32-3.016,1.328-7.058,1.77-11h0c.561-5,1.33-9.9,1.746-12.8,1.082-7.573,2.525-10.962,2.525-10.962C5698.476,3231.414,5690.868,3235.009,5690.868,3235.009Z" transform="translate(-5688.652 -3231.208)" fill="#70a9ed"/>
        </g>
        <g id="Grupo_11005" data-name="Grupo 11005" transform="translate(42.607 18.605)">
          <path id="Trazado_3063" data-name="Trazado 3063" d="M5734.845,3249.921c1.051,2.305-9.651,6.415-9.41,6.984a25.872,25.872,0,0,0,2.94,4.145s14.091-6.969,13.934-8.55c-.114-1.151-6.716-18.545-7.684-19.238-.559-.4-4.7-1.868-6.728-2.668-.371-.147-1.639-.623-1.971-.749-.431.479-3.4,3.756-4.449,16.136-.176,2.087.382,6.506.755,10.113.4,3.847.837,6.85,1.16,10.068.636,6.34,1.081,11.384,1.081,11.384l6.309-2.809c1.021-.511,2.787-1.844,2.4-2.919-1.459-4.086-3.647-11.828-3.649-15.413,0,0,1.032-9.892,1.589-11.821A24.971,24.971,0,0,1,5734.845,3249.921Z" transform="translate(-5721.445 -3229.844)" fill="#70a9ed"/>
        </g>
        <g id="Grupo_11006" data-name="Grupo 11006" transform="translate(39.59 12.451)">
          <path id="Trazado_3064" data-name="Trazado 3064" d="M5720.591,3222.464a42.6,42.6,0,0,1,.843-6.288c.214-1.127-6.54,2.963-6.54,2.963s.021.4.034.928c.007.281.012.6.011.921,0,.113,0,.225-.006.336-.006.3-.02.583-.045.826a3.9,3.9,0,0,1-.225.812C5714.385,3223.6,5718.316,3224.092,5720.591,3222.464Z" transform="translate(-5714.649 -3215.98)" fill="#dba686"/>
        </g>
        <path id="Trazado_3065" data-name="Trazado 3065" d="M5717.134,3235.5l-1.121,1.5a1.358,1.358,0,0,0,1.822.23Z" transform="translate(-5675.818 -3214.382)" fill="#2e3048"/>
        <path id="Trazado_3066" data-name="Trazado 3066" d="M5712.317,3238.972s-4.246,16.349-3.371,29.074l1.429,2.518,1.337-2.638s.366-22.762,1.53-28.994Z" transform="translate(-5671.822 -3216.292)" fill="#2e3048"/>
        <path id="Trazado_3067" data-name="Trazado 3067" d="M5715.835,3231.8l1.2,1.4s1.924-.373,2.489-1.378S5715.835,3231.8,5715.835,3231.8Z" transform="translate(-5675.719 -3212.088)" fill="#dba686"/>
        <path id="Trazado_3068" data-name="Trazado 3068" d="M5714.25,3229.573a5.782,5.782,0,0,0,1.475,2.63l-1.458,1.957-.788-4.059Z" transform="translate(-5674.409 -3211.088)" fill="#c1bfc9"/>
        <path id="Trazado_3069" data-name="Trazado 3069" d="M5722.882,3226.892s-2.4,3.051-4.345,3.82l.9,2.237,4.134-5Z" transform="translate(-5677.221 -3209.597)" fill="#c1bfc9"/>
        <g id="Grupo_11007" data-name="Grupo 11007" transform="translate(0 39.911)">
          <path id="Trazado_3070" data-name="Trazado 3070" d="M5631.053,3277.836s-4.448.52-4.7.8-.191.526.228.495,4.321-.376,4.321-.376-5.1,1.506-5.358,1.691c-.151.108-.064.58.163.585s5.388-1.194,5.388-1.194-4.758,1.415-4.924,1.638a.369.369,0,0,0,.4.535c.362-.081,4.871-1.139,4.871-1.139s-3.384,1.252-3.407,1.531c-.013.17.044.581.9.229s2.995-.96,2.995-.96Z" transform="translate(-5625.469 -3277.836)" fill="#dba585"/>
        </g>
        <g id="Grupo_11009" data-name="Grupo 11009" transform="translate(5.079 37.017)">
          <g id="Grupo_11008" data-name="Grupo 11008">
            <path id="Trazado_3071" data-name="Trazado 3071" d="M5642.674,3274.421s-1.481.077-1.934-.672a5.3,5.3,0,0,0-1.614-1.393c-.387-.238-1.332-1.394-1.6-.929s1.47,1.973,1.777,2.357-1.827.244-2.217.524-.178,3.813,1.287,3.741,2.914-1.119,3.178-1.08a8.993,8.993,0,0,0,1.071-.01Z" transform="translate(-5636.911 -3271.319)" fill="#dba585"/>
          </g>
        </g>
        <g id="Grupo_11010" data-name="Grupo 11010" transform="translate(9.35 22.529)">
          <path id="Trazado_3072" data-name="Trazado 3072" d="M5647.406,3259.767s10.912-1.528,13.334-2.124c1.12-.275,2.594-1.821,4-3.638.462-.6.916-1.226,1.346-1.848v0c1.719-2.482,3.066-4.861,3.066-4.861s5.081-5.956,1-8.61a6.816,6.816,0,0,0-2.706.483c-.986.535-3.088,4.923-3.444,5.7s-4.219,7.993-4.477,8.156-4.113,1-5.831,1.357c-2.488.519-7.164,1.49-7.164,1.49Z" transform="translate(-5646.531 -3238.683)" fill="#70a9ed"/>
        </g>
        <rect id="Rectángulo_2989" data-name="Rectángulo 2989" width="4.147" height="3.146" transform="translate(41.685 58.577) rotate(180)" fill="#3e4265"/>
        <path id="Trazado_3073" data-name="Trazado 3073" d="M5722.748,3297.033a2.348,2.348,0,0,0,.737-.139s.386-.248.67-.407a2.026,2.026,0,0,1,.226-.114,4.31,4.31,0,0,0,1.24-.592c.485-.37,2.067-1.85,2.067-1.85l-1.022-1.573-.473-1.557a27.947,27.947,0,0,0-4.183.66,1.4,1.4,0,0,0-.136.091,5.453,5.453,0,0,0-.752.842c-.069.065-.712.753-.676,1.031a.918.918,0,0,0,.482.753,2.194,2.194,0,0,0,.52,1.092,1.362,1.362,0,0,0,.7.98S5722.329,3296.949,5722.748,3297.033Z" transform="translate(-5678.282 -3245.134)" fill="#dca787"/>
        <path id="Trazado_3074" data-name="Trazado 3074" d="M5733.095,3290.625a12.894,12.894,0,0,1-3.163-4.145l6.3-3.448,2.337,4.759Z" transform="translate(-5683.558 -3240.815)" fill="#70a9ed"/>
        <g id="Grupo_11011" data-name="Grupo 11011" transform="translate(34.629 1.895)">
          <path id="Trazado_3075" data-name="Trazado 3075" d="M5705.124,3195.563s-1.483,2.751-.749,3.179c.608.354-.711,3.053-.884,3.494s1.1.761,1.371,1.045,1.072,3.778,2.12,3.883,5.775-1.538,7.062-2.876,2.343-7.381,1.484-9.93S5707.743,3190.758,5705.124,3195.563Z" transform="translate(-5703.475 -3192.203)" fill="#dba585"/>
        </g>
        <g id="Grupo_11012" data-name="Grupo 11012" transform="translate(35.566)">
          <path id="Trazado_3076" data-name="Trazado 3076" d="M5706,3193.786a4.227,4.227,0,0,1,1.236-5.175c2.751-2.2,7.825,1.664,8.4,1.812s3.815.37,2.178,6.067a37.24,37.24,0,0,1-1.6,5.1s-1.05-2.833-1.645-3.265a5.674,5.674,0,0,0-2.966-.513s.971-2.577-.546-2.942S5707.535,3193.216,5706,3193.786Z" transform="translate(-5705.585 -3187.934)" fill="#1f2531"/>
        </g>
        <g id="Grupo_11013" data-name="Grupo 11013" transform="translate(42.817 7.142)">
          <path id="Trazado_3077" data-name="Trazado 3077" d="M5722.3,3205.278c.134-.353.566-1.872,1.87-.981s-.813,3.756-1.04,3.792S5721.171,3208.252,5722.3,3205.278Z" transform="translate(-5721.919 -3204.021)" fill="#dba585"/>
        </g>
        <path id="Trazado_3078" data-name="Trazado 3078" d="M5715.289,3223.616c0,.113,0,.225-.005.336,3.863-1.3,4.612-3.248,4.612-3.248a26.416,26.416,0,0,1-4.618,1.991C5715.285,3222.976,5715.29,3223.3,5715.289,3223.616Z" transform="translate(-5675.409 -3206.156)" fill="#997761"/>
      </g>
    </g>
  </g>
</svg>
