<svg id="Grupo_475" data-name="Grupo 475" xmlns="http://www.w3.org/2000/svg" xmlns:xlink="http://www.w3.org/1999/xlink" width="946.255" height="369.594" viewBox="0 0 946.255 369.594">
  <defs>
    <clipPath id="clip-path">
      <rect id="Rectángulo_331" data-name="Rectángulo 331" width="946.255" height="369.594" fill="none"/>
    </clipPath>
    <clipPath id="clip-path-3">
      <rect id="Rectángulo_322" data-name="Rectángulo 322" width="14.819" height="21.587" transform="translate(725.131 348.007)" fill="none"/>
    </clipPath>
    <clipPath id="clip-path-4">
      <rect id="Rectángulo_323" data-name="Rectángulo 323" width="2.56" height="2.603" transform="translate(728.795 341.255)" fill="none"/>
    </clipPath>
    <clipPath id="clip-path-5">
      <rect id="Rectángulo_324" data-name="Rectángulo 324" width="3.143" height="3.118" transform="translate(673.214 343.978)" fill="none"/>
    </clipPath>
    <clipPath id="clip-path-6">
      <rect id="Rectángulo_325" data-name="Rectángulo 325" width="40.185" height="6.553" transform="translate(643 353.206)" fill="none"/>
    </clipPath>
    <clipPath id="clip-path-7">
      <rect id="Rectángulo_326" data-name="Rectángulo 326" width="19.467" height="209.728" transform="translate(687.928 152.249)" fill="none"/>
    </clipPath>
    <clipPath id="clip-path-8">
      <rect id="Rectángulo_327" data-name="Rectángulo 327" width="27.937" height="16.584" transform="translate(705.646 222.951)" fill="none"/>
    </clipPath>
    <clipPath id="clip-path-9">
      <rect id="Rectángulo_328" data-name="Rectángulo 328" width="10.309" height="17.405" transform="translate(656.831 185.203)" fill="none"/>
    </clipPath>
    <clipPath id="clip-path-10">
      <path id="Trazado_2943" data-name="Trazado 2943" d="M503.273,253.844c-.329,2.956-.658,5.253.984,8.537a18.921,18.921,0,0,0,3.58,5.071l.031-14.92-3.611-3.613a26.28,26.28,0,0,0-.984,4.925" fill="none"/>
    </clipPath>
    <clipPath id="clip-path-12">
      <path id="Trazado_2951" data-name="Trazado 2951" d="M520.016,249.577c-3.94.328-4.268,5.909-4.268,7.55s-.656,8.537-.656,8.537-.986,1.97-.657,6.895,1.641,7.55,1.641,10.833,0,18.058,3.283,21.669,11.492,5.254,17.072,6.895,8.537-1.314,9.193-2.955.656-20.356,0-22.653c-.872-3.054-1.188-10.281-2.3-14.446-1.314-4.925-7.552-13.133-10.834-16.744-3.074-3.382-7.877-5.612-11.71-5.612-.26,0-.516.01-.766.031" fill="none"/>
    </clipPath>
  </defs>
  <g id="Grupo_474" data-name="Grupo 474" clip-path="url(#clip-path)">
    <g id="Grupo_467" data-name="Grupo 467">
      <g id="Grupo_466" data-name="Grupo 466" clip-path="url(#clip-path)">
        <path id="Trazado_2735" data-name="Trazado 2735" d="M946.256,359.187c0,.124-211.844.224-473.1.224C211.8,359.411,0,359.311,0,359.187s211.8-.224,473.151-.224c261.261,0,473.1.1,473.1.224" fill="#1a2e35"/>
        <path id="Trazado_2736" data-name="Trazado 2736" d="M839.091,359.417l-29.735-2.3V66.576h-3.595V357.182l-29.735,2.235h63.065Z" fill="#ececec"/>
        <path id="Trazado_2737" data-name="Trazado 2737" d="M841.448,100.947,826.2,41.443l-39.178-.182-13.357,59.686Z" fill="#e1e1e1"/>
        <path id="Trazado_2738" data-name="Trazado 2738" d="M799.446,125.132c-.155,0-.264-7.325-.244-16.359s.162-16.36.317-16.36.264,7.324.243,16.362-.162,16.358-.316,16.357" fill="#e1e1e1"/>
        <path id="Trazado_2739" data-name="Trazado 2739" d="M799.415,125.022c-.006-.073.485-.018.7.607a1.2,1.2,0,0,1-.174,1.09,1.233,1.233,0,0,1-2.142-.791,1.2,1.2,0,0,1,.576-.941c.568-.335.978-.058.927-.007-.02.082-.359.017-.694.326a.861.861,0,0,0-.293.629.755.755,0,0,0,1.23.454.858.858,0,0,0,.185-.669c-.053-.453-.353-.623-.315-.7" fill="#e1e1e1"/>
        <rect id="Rectángulo_309" data-name="Rectángulo 309" width="101.249" height="191.393" transform="translate(606.994 157.575)" fill="#e1e1e1"/>
        <rect id="Rectángulo_310" data-name="Rectángulo 310" width="101.249" height="191.393" transform="translate(576.946 157.575)" fill="#f5f5f5"/>
        <path id="Trazado_2740" data-name="Trazado 2740" d="M670.742,196.971H583.835V166.632h86.907ZM584.9,195.9h84.771V167.7H584.9Z" fill="#e1e1e1"/>
        <path id="Trazado_2741" data-name="Trazado 2741" d="M639.42,173.213H616.335a4.948,4.948,0,0,1-4.948-4.948v-1.1h32.981v1.1a4.949,4.949,0,0,1-4.948,4.948" fill="#ececec"/>
        <path id="Trazado_2742" data-name="Trazado 2742" d="M670.742,235.509H583.835V205.17h86.907Zm-85.84-1.068h84.771v-28.2H584.9Z" fill="#e1e1e1"/>
        <path id="Trazado_2743" data-name="Trazado 2743" d="M639.42,211.75H616.335a4.947,4.947,0,0,1-4.948-4.947v-1.1h32.981v1.1a4.948,4.948,0,0,1-4.948,4.948" fill="#ececec"/>
        <path id="Trazado_2744" data-name="Trazado 2744" d="M670.742,274.048H583.835V243.709h86.907ZM584.9,272.98h84.771v-28.2H584.9Z" fill="#e1e1e1"/>
        <path id="Trazado_2745" data-name="Trazado 2745" d="M639.42,250.288H616.335a4.948,4.948,0,0,1-4.948-4.948v-1.1h32.981v1.1a4.948,4.948,0,0,1-4.948,4.948" fill="#ececec"/>
        <path id="Trazado_2746" data-name="Trazado 2746" d="M670.742,312.585H583.835V282.247h86.907Zm-85.84-1.068h84.771v-28.2H584.9Z" fill="#e1e1e1"/>
        <path id="Trazado_2747" data-name="Trazado 2747" d="M639.42,288.826H616.335a4.948,4.948,0,0,1-4.948-4.948v-1.1h32.981v1.1a4.949,4.949,0,0,1-4.948,4.948" fill="#ececec"/>
        <rect id="Rectángulo_311" data-name="Rectángulo 311" width="109.975" height="9.533" transform="translate(572.455 150.413)" fill="#ececec"/>
        <rect id="Rectángulo_312" data-name="Rectángulo 312" width="33.071" height="9.533" transform="translate(682.43 150.413)" fill="#e1e1e1"/>
        <rect id="Rectángulo_313" data-name="Rectángulo 313" width="5.32" height="9.776" transform="translate(576.947 348.969)" fill="#e1e1e1"/>
        <rect id="Rectángulo_314" data-name="Rectángulo 314" width="5.32" height="9.776" transform="translate(609.823 348.969)" fill="#e1e1e1"/>
        <rect id="Rectángulo_315" data-name="Rectángulo 315" width="5.321" height="9.776" transform="translate(669.872 348.969)" fill="#e1e1e1"/>
        <rect id="Rectángulo_316" data-name="Rectángulo 316" width="5.32" height="9.776" transform="translate(699.898 348.969)" fill="#e1e1e1"/>
        <path id="Trazado_2748" data-name="Trazado 2748" d="M650.294,124.961l10.249,26.219-6.371-.03-5.107-16.112Z" fill="#e1e1e1"/>
        <path id="Trazado_2749" data-name="Trazado 2749" d="M615.3,100.735l-3.522,50.236,36.371.76,4.092-51Z" fill="#ececec"/>
        <path id="Trazado_2750" data-name="Trazado 2750" d="M618.935,104.781,616,146.6l27.038,1.267,3.778-43.329Z" fill="#fafafa"/>
        <path id="Trazado_2751" data-name="Trazado 2751" d="M624.869,110.693l-2.194,29.394h14.916l2.631-29.394Z" fill="#e1e1e1"/>
        <rect id="Rectángulo_317" data-name="Rectángulo 317" width="48.663" height="50.728" transform="translate(680.947 -0.001)" fill="#e1e1e1"/>
        <rect id="Rectángulo_318" data-name="Rectángulo 318" width="48.664" height="50.728" transform="translate(677.651 -0.001)" fill="#ececec"/>
        <rect id="Rectángulo_319" data-name="Rectángulo 319" width="35.58" height="37.089" transform="translate(684.193 6.819)" fill="#fafafa"/>
        <path id="Trazado_2752" data-name="Trazado 2752" d="M684.193,44.155a6.832,6.832,0,0,1-.889,1.008c-.571.6-1.372,1.406-2.267,2.288s-1.716,1.67-2.32,2.23a6.747,6.747,0,0,1-1.016.869,6.508,6.508,0,0,1,.885-1c.571-.6,1.374-1.409,2.271-2.292s1.72-1.673,2.323-2.234a6.59,6.59,0,0,1,1.013-.865" fill="#e1e1e1"/>
        <path id="Trazado_2753" data-name="Trazado 2753" d="M719.773,44.064a6.755,6.755,0,0,1,1.008.889c.6.571,1.406,1.372,2.288,2.266s1.67,1.717,2.23,2.321a6.764,6.764,0,0,1,.87,1.016,6.5,6.5,0,0,1-1.005-.885c-.6-.571-1.408-1.374-2.292-2.271s-1.673-1.72-2.234-2.323a6.721,6.721,0,0,1-.865-1.013" fill="#e1e1e1"/>
        <path id="Trazado_2754" data-name="Trazado 2754" d="M719.676,6.918a6.947,6.947,0,0,1,.89-1.008c.571-.6,1.371-1.406,2.266-2.288s1.716-1.669,2.321-2.23a6.631,6.631,0,0,1,1.016-.869,6.517,6.517,0,0,1-.886,1c-.571.6-1.373,1.409-2.27,2.292s-1.721,1.673-2.324,2.235a6.556,6.556,0,0,1-1.013.864" fill="#e1e1e1"/>
        <path id="Trazado_2755" data-name="Trazado 2755" d="M684.1,7.009a6.829,6.829,0,0,1-1.008-.889c-.6-.571-1.406-1.371-2.288-2.266s-1.669-1.716-2.23-2.321A6.631,6.631,0,0,1,677.7.517a6.534,6.534,0,0,1,1,.885c.6.571,1.409,1.374,2.292,2.271S682.67,5.393,683.232,6a6.582,6.582,0,0,1,.864,1.012" fill="#e1e1e1"/>
        <path id="Trazado_2756" data-name="Trazado 2756" d="M719.676,43.908s0-.062-.006-.179,0-.294-.007-.516c0-.461-.008-1.13-.013-2-.007-1.754-.018-4.309-.031-7.557-.014-6.494-.035-15.752-.059-26.837l.116.116L684.2,6.953h0l.133-.134c-.006,13.613-.013,26.35-.018,37.089l-.115-.114,25.7.058,7.214.031q1.245.006,1.908.012l.492.007c.11,0,.17.006.17.006s-.051,0-.157.007l-.481.007-1.884.012-7.189.031c-6.223.013-15.1.034-25.771.058h-.115v-.115c-.006-10.739-.012-23.476-.019-37.089V6.685h.137l35.479.018h.117v.116c-.024,11.116-.044,20.4-.058,26.911-.013,3.237-.024,5.783-.031,7.531-.006.86-.01,1.521-.013,1.977,0,.217-.005.384-.007.5s-.007.166-.007.166" fill="#e1e1e1"/>
        <path id="Trazado_2757" data-name="Trazado 2757" d="M693.584,22.314s-.762,9.183,9.183,9.183c0-4.9-4.043-8.769-9.183-9.183" fill="#ececec"/>
        <path id="Trazado_2758" data-name="Trazado 2758" d="M711.781,22.321S702.6,21.558,702.6,31.5c4.9,0,8.769-4.043,9.183-9.183" fill="#ececec"/>
        <path id="Trazado_2759" data-name="Trazado 2759" d="M702.325,17.3s-7.5,6.734.411,14.2c3.68-3.9,3.368-10.013-.411-14.2" fill="#e1e1e1"/>
        <rect id="Rectángulo_320" data-name="Rectángulo 320" width="15.048" height="19.841" transform="translate(617.954 339.698)" fill="#1a2e35"/>
        <rect id="Rectángulo_321" data-name="Rectángulo 321" width="15.048" height="19.471" transform="translate(792.511 339.698)" fill="#1a2e35"/>
        <path id="Trazado_2760" data-name="Trazado 2760" d="M811.415,279.328l.038.011-1.485-29.418c-.891-15.858-5.2-24.6-15.5-25.49-7.041,0-13.419,2.334-17.66,8.592,1.78-55.418-22.644-77.759-48.929-77.759H692.06c-26.7,0-57.141,21.379-47.716,79.051v10.721c0-10.976-8.464-19.873-18.9-19.873h-1.4c-7.082,0-14.334,12.319-14.334,19.765V279.37a16.486,16.486,0,0,0-6.348,13.1v21.171a7.492,7.492,0,0,0,7.3,7.672h-.95v25.38h204.22V322.107a9.651,9.651,0,0,0,6.811-9.371v-17.5a17.941,17.941,0,0,0-9.322-15.907" fill="#375a64"/>
        <path id="Trazado_2761" data-name="Trazado 2761" d="M647.13,259.03c-.106,0-.192-.025-.192-.058s.086-.058.192-.058.192.026.192.058-.086.058-.192.058" fill="#1a2e35"/>
        <path id="Trazado_2762" data-name="Trazado 2762" d="M813.926,322.36c0,.112-45.579.2-101.791.2-56.231,0-101.8-.09-101.8-.2s45.57-.2,101.8-.2c56.212,0,101.791.091,101.791.2" fill="#1a2e35"/>
        <path id="Trazado_2763" data-name="Trazado 2763" d="M643.979,275.021a1.273,1.273,0,0,1-.367-.009l-1.036-.1c-.45-.054-1-.115-1.64-.159s-1.365-.128-2.173-.155c-1.611-.1-3.534-.125-5.664-.06a61.245,61.245,0,0,0-13.711,2.046c-2.065.562-3.905,1.148-5.427,1.714-.767.262-1.444.552-2.046.785s-1.115.45-1.532.632c-.385.162-.705.294-.968.4a1.225,1.225,0,0,1-.347.116,1.2,1.2,0,0,1,.315-.19l.941-.474c.409-.206.914-.447,1.512-.7s1.268-.564,2.034-.844a56.141,56.141,0,0,1,5.429-1.807,56.976,56.976,0,0,1,13.788-2.057,55.888,55.888,0,0,1,5.693.147c.809.045,1.538.146,2.177.216s1.19.149,1.637.227c.41.073.75.132,1.031.181a1.29,1.29,0,0,1,.354.09" fill="#1a2e35"/>
        <path id="Trazado_2764" data-name="Trazado 2764" d="M716.166,296.616c-.076-.014.258-1.388.263-3.642a19.759,19.759,0,0,0-1.889-8.462,18.729,18.729,0,0,0-5.355-6.625c-1.729-1.334-2.979-1.868-2.944-1.94a3.76,3.76,0,0,1,.878.357,15.07,15.07,0,0,1,2.224,1.35,17.883,17.883,0,0,1,5.54,6.675,18.932,18.932,0,0,1,1.818,8.649,16.683,16.683,0,0,1-.287,2.683,4.194,4.194,0,0,1-.248.955" fill="#1a2e35"/>
        <path id="Trazado_2765" data-name="Trazado 2765" d="M758.164,288.393c-.034.007-.138-.524-.386-1.463a20.919,20.919,0,0,0-1.442-3.823,20.426,20.426,0,0,0-3.383-4.923,18.86,18.86,0,0,0-5.772-4.244,18.046,18.046,0,0,0-6.878-1.608,18.478,18.478,0,0,0-5.739.7,18.731,18.731,0,0,0-3.655,1.464c-.826.442-1.268.721-1.287.69a1.423,1.423,0,0,1,.3-.236c.209-.134.5-.366.916-.592a16.834,16.834,0,0,1,3.652-1.6,18.154,18.154,0,0,1,12.845.809,18.8,18.8,0,0,1,5.872,4.354,19.978,19.978,0,0,1,3.371,5.054,18.8,18.8,0,0,1,1.344,3.912c.122.475.157.857.2,1.111a1.5,1.5,0,0,1,.038.392" fill="#1a2e35"/>
        <path id="Trazado_2766" data-name="Trazado 2766" d="M760.78,271.966c0,.112-4.182.2-9.338.2s-9.34-.09-9.34-.2,4.181-.2,9.34-.2,9.338.091,9.338.2" fill="#1a2e35"/>
        <path id="Trazado_2767" data-name="Trazado 2767" d="M810.138,280.391a2.185,2.185,0,0,1-.434-.214l-1.2-.681c-.517-.3-1.154-.669-1.913-1.054s-1.6-.87-2.573-1.311c-.963-.465-2.019-.969-3.181-1.441-1.146-.515-2.406-.966-3.723-1.464a67.758,67.758,0,0,0-17.8-3.8c-1.4-.081-2.726-.182-3.971-.178-1.246-.041-2.4-.008-3.465.026-1.059.007-2.014.1-2.854.152s-1.564.119-2.153.189l-1.361.133a2.085,2.085,0,0,1-.478.02,2.163,2.163,0,0,1,.468-.1c.35-.053.8-.123,1.354-.209.588-.093,1.31-.191,2.152-.258s1.8-.187,2.863-.212c1.062-.053,2.226-.1,3.477-.075,1.252-.018,2.587.07,3.992.141a64.741,64.741,0,0,1,17.9,3.815c1.321.51,2.583.976,3.728,1.506,1.163.488,2.217,1.009,3.177,1.493.97.459,1.809.958,2.557,1.369s1.38.792,1.887,1.119l1.168.747a2.233,2.233,0,0,1,.4.284" fill="#1a2e35"/>
        <path id="Trazado_2768" data-name="Trazado 2768" d="M778.591,230.757a1.842,1.842,0,0,1-.271.35c-.184.222-.478.528-.825.952a40.073,40.073,0,0,0-2.8,3.691,45.173,45.173,0,0,0-3.374,6.031c-1.116,2.361-2.169,5.052-3.2,7.9a69.859,69.859,0,0,0-3.529,15.112c-.23,1.982-.328,3.6-.389,4.713-.023.523-.043.947-.057,1.286a2.05,2.05,0,0,1-.045.449,1.884,1.884,0,0,1-.033-.45c-.006-.3-.02-.729-.014-1.29.014-1.121.07-2.744.268-4.741a65.378,65.378,0,0,1,3.439-15.22c1.035-2.86,2.1-5.552,3.242-7.924a42.571,42.571,0,0,1,3.471-6.031,33.864,33.864,0,0,1,2.914-3.632c.365-.409.677-.7.878-.9a1.861,1.861,0,0,1,.327-.292" fill="#1a2e35"/>
        <path id="Trazado_2769" data-name="Trazado 2769" d="M684.367,218.99c-.01-.01.037-.069.137-.176a2.3,2.3,0,0,1,.493-.393,3.433,3.433,0,0,1,2.222-.474,3.475,3.475,0,0,1,1.51.548,3.334,3.334,0,0,1,1.2,1.468,4.09,4.09,0,0,1-.573,4.214,3.605,3.605,0,0,1-3.96.9,3.239,3.239,0,0,1-1.477-1.159,4.03,4.03,0,0,1-.332-3.909,2.431,2.431,0,0,1,.338-.545c.093-.112.147-.165.157-.157.029.024-.162.263-.36.766a4,4,0,0,0-.163,2.241,3.188,3.188,0,0,0,1.959,2.413,3.3,3.3,0,0,0,3.557-.824,3.739,3.739,0,0,0,.531-3.786,3.084,3.084,0,0,0-2.427-1.886,3.478,3.478,0,0,0-2.115.329c-.464.242-.678.46-.7.431" fill="#1a2e35"/>
        <path id="Trazado_2770" data-name="Trazado 2770" d="M686.6,207.945c.037.06-.5.391-1.12,1.168a6.1,6.1,0,0,0-.313,7.277c.554.833,1.058,1.213,1.015,1.269a3.1,3.1,0,0,1-1.232-1.1,5.98,5.98,0,0,1,.328-7.639,3.056,3.056,0,0,1,1.322-.977" fill="#1a2e35"/>
        <path id="Trazado_2771" data-name="Trazado 2771" d="M687.846,226.324a9.073,9.073,0,0,1-1.216-.508,8.472,8.472,0,0,0-6.084-.072,9.23,9.23,0,0,1-1.225.479,3.015,3.015,0,0,1,1.125-.746,7.37,7.37,0,0,1,6.291.076,3.028,3.028,0,0,1,1.109.771" fill="#1a2e35"/>
        <path id="Trazado_2772" data-name="Trazado 2772" d="M623.584,273.8a4.143,4.143,0,0,1,.687-.72,15.76,15.76,0,0,1,2.14-1.639,16.767,16.767,0,0,1,16.809-.871,15.437,15.437,0,0,1,2.282,1.41,4.15,4.15,0,0,1,.752.644c-.043.069-1.132-.842-3.149-1.8a17.315,17.315,0,0,0-16.555.859c-1.919,1.157-2.917,2.175-2.966,2.112" fill="#1a2e35"/>
        <path id="Trazado_2773" data-name="Trazado 2773" d="M640.277,269.264c-.106,0-.314-3.957-.465-8.844s-.185-8.854-.079-8.857.314,3.955.464,8.845.186,8.852.08,8.856" fill="#1a2e35"/>
        <path id="Trazado_2774" data-name="Trazado 2774" d="M775.808,270.021a1.787,1.787,0,0,1,.021-.437c.034-.327.076-.736.126-1.237.111-1.073.23-2.632.318-4.56s.132-4.23.2-6.787.174-5.375.519-8.317a37.7,37.7,0,0,1,1.865-8.114,24.256,24.256,0,0,1,3.087-6A16.7,16.7,0,0,1,785,231.29a10.386,10.386,0,0,1,.974-.718,1.663,1.663,0,0,1,.358-.218,21.23,21.23,0,0,0-4.171,4.39,24.938,24.938,0,0,0-2.973,5.955,38.612,38.612,0,0,0-1.815,8.035c-.342,2.918-.458,5.724-.546,8.277s-.155,4.859-.281,6.792-.283,3.493-.44,4.564c-.068.537-.15.95-.2,1.23a1.89,1.89,0,0,1-.1.424" fill="#1a2e35"/>
        <path id="Trazado_2775" data-name="Trazado 2775" d="M744.163,326.8l-3.928,21.985,1.908,18.286a2.287,2.287,0,0,1-4.088,1.632c-2.868-3.752-13.346-17.608-12.968-19.2.437-1.845,2.6-23.467,2.6-23.467Z" fill="#ff735d"/>
        <g id="Grupo_447" data-name="Grupo 447" opacity="0.6">
          <g id="Grupo_446" data-name="Grupo 446">
            <g id="Grupo_445" data-name="Grupo 445" clip-path="url(#clip-path-3)">
              <path id="Trazado_2776" data-name="Trazado 2776" d="M739.95,369.589l-14.633-21.583-.144.936a3.448,3.448,0,0,0,.464,2.332c1.146,1.864,4.423,6.942,12.35,17.414a2.286,2.286,0,0,0,1.963.9" fill="#fff"/>
            </g>
          </g>
        </g>
        <g id="Grupo_450" data-name="Grupo 450" opacity="0.6">
          <g id="Grupo_449" data-name="Grupo 449">
            <g id="Grupo_448" data-name="Grupo 448" clip-path="url(#clip-path-4)">
              <path id="Trazado_2777" data-name="Trazado 2777" d="M730.951,341.59a1.385,1.385,0,0,1,.1,1.845,1.332,1.332,0,0,1-1.828.112,1.46,1.46,0,0,1-.093-1.954,1.38,1.38,0,0,1,1.914.094" fill="#fff"/>
            </g>
          </g>
        </g>
        <path id="Trazado_2778" data-name="Trazado 2778" d="M736.4,359.165a4.935,4.935,0,0,1,4.817-1.509c.028-.051-.224-.265-.73-.419a3.65,3.65,0,0,0-3.726,1.166c-.328.414-.413.736-.361.762" fill="#1a2e35"/>
        <path id="Trazado_2779" data-name="Trazado 2779" d="M737.515,362.364a6.828,6.828,0,0,1,4.3-.59,2.543,2.543,0,0,0-2.266-.542c-1.357.179-2.14,1.054-2.035,1.132" fill="#1a2e35"/>
        <path id="Trazado_2780" data-name="Trazado 2780" d="M734.062,354.923a22.962,22.962,0,0,1,3.177-1.216,23.221,23.221,0,0,1,3.392-.256,6.26,6.26,0,0,0-6.569,1.472" fill="#1a2e35"/>
        <path id="Trazado_2781" data-name="Trazado 2781" d="M734.7,348.139c.038.142,1.336-.179,2.932.01,1.6.167,2.794.764,2.862.636a5.675,5.675,0,0,0-5.794-.646" fill="#1a2e35"/>
        <path id="Trazado_2782" data-name="Trazado 2782" d="M735.687,341.656a7.277,7.277,0,0,1,5.864,1.118c.044-.04-.154-.354-.617-.727a4.98,4.98,0,0,0-4.405-.84c-.568.177-.867.395-.842.449" fill="#1a2e35"/>
        <path id="Trazado_2783" data-name="Trazado 2783" d="M738.891,340.346a1.926,1.926,0,0,0,.16-.83,5.857,5.857,0,0,0-.325-2.289,2.608,2.608,0,0,0-.912-1.4.92.92,0,0,0-1.056.044,1.5,1.5,0,0,0-.5.943A3.236,3.236,0,0,0,738.6,340.2a3.749,3.749,0,0,0,3.942-1.375,1.3,1.3,0,0,0,.227-1.06.9.9,0,0,0-.859-.616,3.2,3.2,0,0,0-1.572.53,6.54,6.54,0,0,0-1.771,1.48,1.983,1.983,0,0,0-.458.71,10.41,10.41,0,0,1,2.395-1.885,2.965,2.965,0,0,1,1.381-.429.482.482,0,0,1,.471.333.89.89,0,0,1-.19.688,3.35,3.35,0,0,1-3.432,1.153,2.809,2.809,0,0,1-2.029-2.851,1.086,1.086,0,0,1,.323-.673.5.5,0,0,1,.582-.032,2.344,2.344,0,0,1,.795,1.17,8.694,8.694,0,0,1,.489,3" fill="#1a2e35"/>
        <path id="Trazado_2784" data-name="Trazado 2784" d="M659.822,326.689l3.062,20.447s-19.9,8.483-19.7,12.316l40.005-3.016-3.463-32.055Z" fill="#ff735d"/>
        <g id="Grupo_453" data-name="Grupo 453" opacity="0.6">
          <g id="Grupo_452" data-name="Grupo 452">
            <g id="Grupo_451" data-name="Grupo 451" clip-path="url(#clip-path-5)">
              <path id="Trazado_2785" data-name="Trazado 2785" d="M675.013,344.014a1.636,1.636,0,0,1,1.336,1.729,1.573,1.573,0,0,1-1.7,1.339,1.726,1.726,0,0,1-1.4-1.839,1.633,1.633,0,0,1,1.925-1.2" fill="#fff"/>
            </g>
          </g>
        </g>
        <g id="Grupo_456" data-name="Grupo 456" opacity="0.6">
          <g id="Grupo_455" data-name="Grupo 455">
            <g id="Grupo_454" data-name="Grupo 454" clip-path="url(#clip-path-6)">
              <path id="Trazado_2786" data-name="Trazado 2786" d="M683.185,356.436l-.35-3.23-38.527,4.257A2.775,2.775,0,0,0,643,359.758Z" fill="#fff"/>
            </g>
          </g>
        </g>
        <path id="Trazado_2787" data-name="Trazado 2787" d="M662.214,347.006c.029.194,1.012.172,2.041.689,1.042.491,1.631,1.278,1.8,1.181.176-.058-.246-1.189-1.5-1.794s-2.4-.25-2.339-.076" fill="#1a2e35"/>
        <path id="Trazado_2788" data-name="Trazado 2788" d="M658.229,349.209c-.023.194.857.43,1.611,1.178.777.726,1.044,1.6,1.237,1.567.186.01.192-1.145-.763-2.058s-2.1-.873-2.085-.687" fill="#1a2e35"/>
        <path id="Trazado_2789" data-name="Trazado 2789" d="M656.422,354.481c.182.021.342-.981-.278-1.991s-1.579-1.33-1.643-1.158c-.092.171.564.676,1.061,1.513.515.824.664,1.639.86,1.636" fill="#1a2e35"/>
        <path id="Trazado_2790" data-name="Trazado 2790" d="M662.033,342.269c.1.168.965-.2,2.073-.251,1.108-.072,2.006.2,2.088.022.1-.154-.82-.78-2.126-.7s-2.147.79-2.035.932" fill="#1a2e35"/>
        <path id="Trazado_2791" data-name="Trazado 2791" d="M661.492,338.132a3.766,3.766,0,0,0,1.995-.235,9.03,9.03,0,0,0,2.016-.879,9.521,9.521,0,0,0,1.077-.738,2.462,2.462,0,0,0,.55-.538.854.854,0,0,0-.028-1.046,1.074,1.074,0,0,0-.9-.347,2.608,2.608,0,0,0-.737.187,7.275,7.275,0,0,0-1.194.567,7.077,7.077,0,0,0-1.7,1.417c-.828.961-1.061,1.723-.991,1.754.1.053.478-.607,1.338-1.42a8.018,8.018,0,0,1,1.667-1.2,7.415,7.415,0,0,1,1.106-.484c.41-.158.769-.2.9-.027.048.067.055.1-.019.228a1.974,1.974,0,0,1-.4.394,10.555,10.555,0,0,1-.986.722,11.3,11.3,0,0,1-1.846.959,13.951,13.951,0,0,0-1.836.69" fill="#1a2e35"/>
        <path id="Trazado_2792" data-name="Trazado 2792" d="M661.777,338.383a3.213,3.213,0,0,0,.308-1.988,6.515,6.515,0,0,0-.52-2.155,6.62,6.62,0,0,0-.645-1.154,1.665,1.665,0,0,0-1.388-.864.94.94,0,0,0-.771.651,2.737,2.737,0,0,0-.122.755,4.453,4.453,0,0,0,.152,1.345,4.6,4.6,0,0,0,1.086,1.966c.895.944,1.734,1.085,1.743,1.017.053-.1-.667-.4-1.376-1.329a4.615,4.615,0,0,1-.844-1.805,4.15,4.15,0,0,1-.094-1.157c.015-.43.135-.79.3-.764.2-.027.571.254.773.574a6.681,6.681,0,0,1,.617,1.026,7.272,7.272,0,0,1,.612,1.948c.187,1.163.062,1.916.171,1.934" fill="#1a2e35"/>
        <path id="Trazado_2793" data-name="Trazado 2793" d="M687.7,237.449a5.026,5.026,0,0,1,1.091.117c.693.112,1.7.246,2.948.382a52.422,52.422,0,0,0,19.42-1.5c1.211-.326,2.187-.614,2.854-.831a4.943,4.943,0,0,1,1.06-.283,5.073,5.073,0,0,1-1,.453c-.652.27-1.617.608-2.825.978a46.1,46.1,0,0,1-19.55,1.513c-1.25-.179-2.256-.364-2.941-.53a4.95,4.95,0,0,1-1.058-.295" fill="#1a2e35"/>
        <path id="Trazado_2794" data-name="Trazado 2794" d="M711.362,146.2l20.25,4.163,12.046,77.9s8.887,3.485,3.293,9.96L696,252.579,656.559,234.5l8.217-5.259,6.9-76.514,14.437-4.583Z" fill="#ff735d"/>
        <path id="Trazado_2795" data-name="Trazado 2795" d="M684.131,181.018l2.8,1.368s-8.609,38.839-10.742,45.822-7.3,8.873-13.037,8.7-11.139-2.833-11.755-6.53-1.438-16.226,2.259-22.593,16.371-27.567,16.371-27.567Z" fill="#ff735d"/>
        <path id="Trazado_2796" data-name="Trazado 2796" d="M660.229,158.9c-2.293,3.491-5.374,18.28-5.578,26.5s0,38.82,0,38.82h16.37l3.3-72.36s-11.8,3.552-14.09,7.044" fill="#ff735d"/>
        <path id="Trazado_2797" data-name="Trazado 2797" d="M691.632,225.064a24.361,24.361,0,0,1,2.174,1.417,34.14,34.14,0,0,0,11.425,4.78,24.314,24.314,0,0,1,2.534.554,10.288,10.288,0,0,1-2.6-.231,27.952,27.952,0,0,1-11.547-4.833,10.285,10.285,0,0,1-1.988-1.687" fill="#1a2e35"/>
        <path id="Trazado_2798" data-name="Trazado 2798" d="M718.223,184.06a4.824,4.824,0,0,1-.192-1.072,25.635,25.635,0,0,1-.21-2.961,34.138,34.138,0,0,1,.2-4.4,35.281,35.281,0,0,1,2.8-10.4,33.8,33.8,0,0,1,2.04-3.908,25.554,25.554,0,0,1,1.666-2.457,4.912,4.912,0,0,1,.7-.831c.069.051-.859,1.29-2.087,3.454a39.439,39.439,0,0,0-1.93,3.912,38.121,38.121,0,0,0-2.764,10.282,39.313,39.313,0,0,0-.292,4.353c-.024,2.487.158,4.025.073,4.034" fill="#1a2e35"/>
        <path id="Trazado_2799" data-name="Trazado 2799" d="M661.335,163.439c.026-.019.2.179.506.553s.713.934,1.189,1.649a33.959,33.959,0,0,1,5,12.382c.154.845.251,1.534.291,2.013a2.393,2.393,0,0,1,.021.748,26.293,26.293,0,0,1-.634-2.694,42.181,42.181,0,0,0-4.961-12.274,26.438,26.438,0,0,1-1.417-2.377" fill="#1a2e35"/>
        <path id="Trazado_2800" data-name="Trazado 2800" d="M663.148,159.358c.022-.022.213.131.538.429a13.755,13.755,0,0,1,1.28,1.363,20.062,20.062,0,0,1,4.549,11.3,13.807,13.807,0,0,1,.022,1.87,1.988,1.988,0,0,1-.092.681c-.079,0-.071-.974-.257-2.519a22.973,22.973,0,0,0-4.479-11.132c-.938-1.243-1.617-1.939-1.561-1.995" fill="#1a2e35"/>
        <path id="Trazado_2801" data-name="Trazado 2801" d="M657.9,203.74a3.2,3.2,0,0,1,.225-.494q.258-.518.71-1.41c.648-1.255,1.574-3.046,2.743-5.308,2.4-4.579,5.793-11.059,9.838-18.779l.07-.135.151.03,17.106,3.47.218.045-.039.219c-.49,2.856-1.038,5.833-1.622,8.865-1.465,7.561-3,14.742-4.714,21.2-.84,3.232-1.756,6.276-2.775,9.072-.275.693-.5,1.389-.805,2.043s-.59,1.3-.908,1.916c-.66,1.214-1.325,2.362-2.018,3.422a27.491,27.491,0,0,1-4.337,5.273,14.718,14.718,0,0,1-4.322,2.8,12.72,12.72,0,0,1-3.144.849c-.368.057-.653.064-.843.081a1.2,1.2,0,0,1-.289.008,16.289,16.289,0,0,0,4.205-1.1,14.8,14.8,0,0,0,4.217-2.827,27.6,27.6,0,0,0,4.236-5.258c.679-1.058,1.331-2.2,1.979-3.413.309-.61.581-1.253.883-1.895s.515-1.342.785-2.029c.995-2.783,1.894-5.821,2.721-9.048,1.685-6.447,3.208-13.623,4.673-21.178.583-3.028,1.133-6.005,1.626-8.854l.181.263-17.1-3.519.222-.1-9.986,18.7c-1.212,2.239-2.171,4.012-2.844,5.254l-.765,1.381a3.483,3.483,0,0,1-.282.464" fill="#1a2e35"/>
        <path id="Trazado_2802" data-name="Trazado 2802" d="M731.316,150.3s15.114,4,15.443,17.149-3.944,54.888-5.916,59.162S730,237.456,721.452,236.47s-13.805-10.518-13.805-10.518L694.624,186.58l12.038-8.284,12.169,14.347Z" fill="#ff735d"/>
        <path id="Trazado_2803" data-name="Trazado 2803" d="M721.546,193.669a1.5,1.5,0,0,1-.03-.436c0-.338,0-.75.007-1.245.011-1.082.054-2.645.135-4.577s.2-4.232.423-6.783a76.195,76.195,0,0,1,1.111-8.256,36.3,36.3,0,0,1,2.412-7.99,20.551,20.551,0,0,1,3.806-5.658,16.641,16.641,0,0,1,3.685-2.747c.446-.22.816-.4,1.122-.551a1.476,1.476,0,0,1,.4-.162,23.939,23.939,0,0,0-4.974,3.689,20.958,20.958,0,0,0-3.652,5.6,37.422,37.422,0,0,0-2.346,7.9,82.363,82.363,0,0,0-1.14,8.207c-.242,2.539-.4,4.833-.522,6.76-.116,1.874-.211,3.416-.283,4.567-.037.494-.068.9-.094,1.242a1.573,1.573,0,0,1-.063.432" fill="#1a2e35"/>
        <path id="Trazado_2804" data-name="Trazado 2804" d="M727.207,202.2a.572.572,0,0,1-.053-.135l-.132-.4a12.309,12.309,0,0,0-.651-1.519,25.1,25.1,0,0,0-3.742-5.049c-3.608-4.128-8.747-10.012-14.953-17.117l.254.035-13.184,8.758.087-.257c2.019,6.375,3.89,13.388,5.984,20.646.656,2.274,1.295,4.527,1.983,6.721.727,2.176,1.487,4.325,2.31,6.389,1.644,4.117,3.735,7.966,6.705,10.766a15.247,15.247,0,0,0,10.244,4.6,21.143,21.143,0,0,0,9.6-2.659,23.379,23.379,0,0,0,6.73-4.824,13.331,13.331,0,0,0,3.115-5.377,10.641,10.641,0,0,0,.414-3.925c-.087-.9-.226-1.369-.2-1.375a6.737,6.737,0,0,1,.291,1.366,10.4,10.4,0,0,1-.333,3.984,13.4,13.4,0,0,1-3.1,5.5,23.449,23.449,0,0,1-6.772,4.94,21.367,21.367,0,0,1-9.757,2.752,15.616,15.616,0,0,1-10.535-4.671c-3.043-2.853-5.171-6.765-6.832-10.907-.834-2.083-1.592-4.22-2.329-6.418-.693-2.208-1.333-4.457-1.988-6.734-2.094-7.253-3.965-14.291-5.955-20.628l-.052-.166.139-.091,13.212-8.715.143-.094.112.128c6.154,7.15,11.252,13.071,14.829,17.226a24.011,24.011,0,0,1,3.678,5.144,7.946,7.946,0,0,1,.73,2.109" fill="#1a2e35"/>
        <path id="Trazado_2805" data-name="Trazado 2805" d="M745.3,236.8l4.6,3.944s15.447,9.2,15.447,17.419-19.479,80.218-19.479,80.218-13.12,2.8-15.75-.484a77.633,77.633,0,0,1-5.526-8.411l5.258-55.217-25.965-7.231s6.573-20.05,19.063-23.993,16.1-8.875,22.35-6.245" fill="#1a2e35"/>
        <path id="Trazado_2806" data-name="Trazado 2806" d="M673.322,238.117s-13.8-4.93-22.679,0-15.776,21.692-15.776,21.692l20.579,79.575,27.222-2.97-6.059-50.968-4.6-5.588,4.929-4.6,13.148-5.917s-1.973-25.308-16.763-31.224" fill="#1a2e35"/>
        <path id="Trazado_2807" data-name="Trazado 2807" d="M731.612,239.688s-22.136,6.975-32,5.988-26.294-7.559-26.294-7.559l14.33,32.318h27.42Z" fill="#1a2e35"/>
        <path id="Trazado_2808" data-name="Trazado 2808" d="M748.067,252.244a24.039,24.039,0,0,0-4.452.944,16.3,16.3,0,0,0-4.333,2.289,15.907,15.907,0,0,0-4.03,4.413,31.238,31.238,0,0,0-3.671,10.3c-.285,1.386-.476,2.517-.628,3.294a6.248,6.248,0,0,1-.272,1.2,6.362,6.362,0,0,1,.093-1.231c.1-.787.239-1.927.483-3.327a29.333,29.333,0,0,1,3.6-10.489,15.661,15.661,0,0,1,8.653-6.765,14.721,14.721,0,0,1,3.319-.64,8.039,8.039,0,0,1,.917-.024c.21.005.32.014.32.031" fill="#375a64"/>
        <path id="Trazado_2809" data-name="Trazado 2809" d="M728.845,260.7a9.471,9.471,0,0,1,.506,2.138c.242,1.333.513,3.186.71,5.245s.282,3.93.3,5.285a9.478,9.478,0,0,1-.093,2.194,11.209,11.209,0,0,1-.236-2.18c-.1-1.347-.237-3.205-.432-5.255s-.414-3.9-.572-5.241a11.281,11.281,0,0,1-.181-2.186" fill="#375a64"/>
        <path id="Trazado_2810" data-name="Trazado 2810" d="M735.873,245.085c.034.1-1.808.6-4.509,2a22.654,22.654,0,0,0-2.148,1.248c-.771.454-1.526,1.041-2.336,1.633a30.839,30.839,0,0,0-8.347,9.921c-.445.9-.893,1.743-1.21,2.58a23.161,23.161,0,0,0-.862,2.33c-.919,2.9-1.094,4.8-1.2,4.784a7.071,7.071,0,0,1,.118-1.327,11.456,11.456,0,0,1,.264-1.541,19.064,19.064,0,0,1,.5-2.013,21.345,21.345,0,0,1,.82-2.379,28.321,28.321,0,0,1,1.187-2.633,29.748,29.748,0,0,1,8.465-10.062,28.089,28.089,0,0,1,2.393-1.62,21.4,21.4,0,0,1,2.2-1.214,19.261,19.261,0,0,1,1.9-.839,11.717,11.717,0,0,1,1.474-.524,7.354,7.354,0,0,1,1.288-.344" fill="#375a64"/>
        <path id="Trazado_2811" data-name="Trazado 2811" d="M723.48,246.765c.062.053-.833,1.1-2.079,2.928a38.478,38.478,0,0,0-6.266,15.935c-.332,2.188-.389,3.563-.47,3.56a3.86,3.86,0,0,1-.039-.97,24.868,24.868,0,0,1,.184-2.635,34.164,34.164,0,0,1,6.322-16.08,24.161,24.161,0,0,1,1.661-2.054,3.855,3.855,0,0,1,.687-.684" fill="#375a64"/>
        <path id="Trazado_2812" data-name="Trazado 2812" d="M689.787,268.984a12.063,12.063,0,0,1-.005-1.534,31.1,31.1,0,0,0-.249-4.155A29.028,29.028,0,0,0,674.8,241.376a31.272,31.272,0,0,0-3.753-1.8,12.1,12.1,0,0,1-1.419-.584,1.264,1.264,0,0,1,.39.081c.25.074.626.164,1.092.334a25.481,25.481,0,0,1,3.848,1.681,28.3,28.3,0,0,1,14.9,22.169,25.793,25.793,0,0,1,.1,4.2c-.019.5-.078.878-.1,1.136a1.278,1.278,0,0,1-.072.393" fill="#375a64"/>
        <path id="Trazado_2813" data-name="Trazado 2813" d="M678.814,246.855a4.3,4.3,0,0,1,.793.648,10.491,10.491,0,0,1,.861.839c.32.343.7.718,1.068,1.184a25.621,25.621,0,0,1,2.4,3.382,26.751,26.751,0,0,1,3.447,9.522,25.542,25.542,0,0,1,.318,4.14c.017.591-.037,1.124-.063,1.592a10.262,10.262,0,0,1-.125,1.2,4.336,4.336,0,0,1-.194,1.007c-.089-.011.115-1.455.053-3.79a28.933,28.933,0,0,0-.411-4.073,28.581,28.581,0,0,0-3.394-9.377,28.887,28.887,0,0,0-2.291-3.391c-1.447-1.834-2.529-2.814-2.467-2.878" fill="#375a64"/>
        <path id="Trazado_2814" data-name="Trazado 2814" d="M652.61,263.009a4.33,4.33,0,0,1,.849.568c.527.39,1.277.969,2.2,1.7,1.836,1.456,4.332,3.517,7.025,5.869s5.073,4.551,6.762,6.174c.845.811,1.521,1.477,1.978,1.947a4.2,4.2,0,0,1,.676.764,4.482,4.482,0,0,1-.8-.632l-2.077-1.838-6.843-6.065-6.929-5.965c-.827-.713-1.529-1.319-2.1-1.811a4.419,4.419,0,0,1-.734-.709" fill="#375a64"/>
        <path id="Trazado_2815" data-name="Trazado 2815" d="M695.343,96.258l-.944.018a18.234,18.234,0,0,0-17.889,17.077c-.56,8.821-1.064,18.575-.926,23.3.288,9.783,10.1,11.137,10.1,11.137l0,1.5a12.663,12.663,0,0,0,25.324.175l.526-33.784c.7-10.176-6.005-19-16.2-19.426" fill="#e48779"/>
        <path id="Trazado_2816" data-name="Trazado 2816" d="M679.389,119.8a1.4,1.4,0,0,0,1.371,1.388,1.337,1.337,0,0,0,1.419-1.284,1.4,1.4,0,0,0-1.37-1.388,1.337,1.337,0,0,0-1.42,1.284" fill="#1a2e35"/>
        <path id="Trazado_2817" data-name="Trazado 2817" d="M678.54,117.593c.177.18,1.222-.622,2.726-.644,1.5-.043,2.619.711,2.778.526.079-.084-.1-.41-.59-.752a3.839,3.839,0,0,0-2.227-.645,3.678,3.678,0,0,0-2.166.742c-.457.362-.608.694-.521.773" fill="#1a2e35"/>
        <path id="Trazado_2818" data-name="Trazado 2818" d="M693.474,119.8a1.4,1.4,0,0,0,1.371,1.388,1.337,1.337,0,0,0,1.419-1.284,1.4,1.4,0,0,0-1.37-1.388,1.337,1.337,0,0,0-1.42,1.284" fill="#1a2e35"/>
        <path id="Trazado_2819" data-name="Trazado 2819" d="M693.518,116.914c.155.2,1.284-.485,2.779-.345,1.5.12,2.527.991,2.706.823.086-.074-.057-.417-.506-.81a3.821,3.821,0,0,0-2.145-.883,3.684,3.684,0,0,0-2.232.5c-.492.312-.68.625-.6.714" fill="#1a2e35"/>
        <path id="Trazado_2820" data-name="Trazado 2820" d="M688.215,129.379a9.937,9.937,0,0,0-2.45-.4c-.385-.033-.749-.1-.819-.365a1.956,1.956,0,0,1,.237-1.141q.518-1.4,1.086-2.945c1.506-4.19,2.589-7.632,2.42-7.691s-1.528,3.289-3.034,7.479q-.543,1.549-1.037,2.96a2.228,2.228,0,0,0-.174,1.511.968.968,0,0,0,.641.55,2.651,2.651,0,0,0,.654.08,9.814,9.814,0,0,0,2.476-.039" fill="#1a2e35"/>
        <path id="Trazado_2821" data-name="Trazado 2821" d="M692.658,130.342c-.245-.009-.22,1.623-1.6,2.807s-3.118,1.032-3.128,1.26c-.02.1.394.311,1.128.318a4.072,4.072,0,0,0,2.613-.96,3.547,3.547,0,0,0,1.234-2.35c.051-.683-.139-1.085-.25-1.075" fill="#1a2e35"/>
        <path id="Trazado_2822" data-name="Trazado 2822" d="M693.616,111.96c.121.418,1.632.324,3.379.654,1.753.295,3.138.907,3.4.556.116-.169-.106-.569-.654-1a5.978,5.978,0,0,0-5.161-.922c-.663.217-1.011.516-.96.714" fill="#e1e1e1"/>
        <path id="Trazado_2823" data-name="Trazado 2823" d="M679.173,113.744c.271.337,1.3-.036,2.546-.073,1.244-.082,2.3.189,2.541-.172.1-.175-.067-.515-.534-.83a3.686,3.686,0,0,0-4.1.2c-.433.358-.572.713-.453.878" fill="#e1e1e1"/>
        <path id="Trazado_2824" data-name="Trazado 2824" d="M705.861,100.542c.478-.249,2.476,1.976,2.864,2.349,2.263,2.172,3.087,6.117,3.267,9.25a33.942,33.942,0,0,1-.42,8.954c-.076.379-.357,1.986-.357,1.986-.429.354-.993,3.822-1.549,3.843-.787.027-1.333-5.326-1.467-5.737a23.5,23.5,0,0,0-.51-3.617,32.62,32.62,0,0,1-.9-5.821c-.032-2.72-.9-6.787-.933-9.507-.006-.512-.454-1.464,0-1.7" fill="#e1e1e1"/>
        <path id="Trazado_2825" data-name="Trazado 2825" d="M707.88,104.627a19.889,19.889,0,0,0-11.835-7.8,5.091,5.091,0,0,0-3.242.1,9.962,9.962,0,0,0-1.61,1.152,2.574,2.574,0,0,1-1.829.629,1.182,1.182,0,0,1-1.034-1.4,17.143,17.143,0,0,1,21.073,7.206" fill="#e1e1e1"/>
        <path id="Trazado_2826" data-name="Trazado 2826" d="M705.979,104.147l5.507,4.312a22.26,22.26,0,0,1,.473,3.195l-5.5-3.65Z" fill="#fafafa"/>
        <path id="Trazado_2827" data-name="Trazado 2827" d="M709.762,122.89c.166-.075,6.689-2.1,6.591,4.59s-6.8,5.214-6.809,5.021.218-9.611.218-9.611" fill="#e48779"/>
        <path id="Trazado_2828" data-name="Trazado 2828" d="M711.627,130c.029-.021.115.083.312.177a1.165,1.165,0,0,0,.871.031,2.886,2.886,0,0,0,1.373-2.569,3.852,3.852,0,0,0-.3-1.675,1.351,1.351,0,0,0-.863-.908.6.6,0,0,0-.694.309c-.093.187-.051.321-.088.332-.018.016-.141-.115-.084-.39a.755.755,0,0,1,.27-.415.88.88,0,0,1,.647-.162,1.642,1.642,0,0,1,1.2,1.056,3.962,3.962,0,0,1,.376,1.872,3.027,3.027,0,0,1-1.744,2.865,1.25,1.25,0,0,1-1.064-.192c-.2-.169-.237-.319-.214-.331" fill="#bf654e"/>
        <path id="Trazado_2829" data-name="Trazado 2829" d="M685.589,147.648a23.512,23.512,0,0,0,13.114-3.976s-2.915,7.441-13.019,6.707Z" fill="#bf654e"/>
        <path id="Trazado_2830" data-name="Trazado 2830" d="M684.013,122.053a4.28,4.28,0,0,1-4.984.107c.056-.126,1.122.324,2.5.283,1.378-.019,2.422-.514,2.484-.39" fill="#bf654e"/>
        <path id="Trazado_2831" data-name="Trazado 2831" d="M684.344,116.922c-.06.039-.246-.184-.618-.422a3.824,3.824,0,0,0-1.611-.552,10.251,10.251,0,0,0-1.774.006c-.465.029-.762.027-.772-.038s.262-.174.723-.287a5.523,5.523,0,0,1,1.876-.143,3.14,3.14,0,0,1,1.76.755c.369.346.465.654.416.681" fill="#bf654e"/>
        <path id="Trazado_2832" data-name="Trazado 2832" d="M703.229,117.121c.086.087-.495.709-1.476.969s-1.794.018-1.762-.1c.018-.134.772-.109,1.641-.349s1.513-.625,1.6-.52" fill="#bf654e"/>
        <path id="Trazado_2833" data-name="Trazado 2833" d="M703.631,119.181c.064.105-.6.528-1.525.42s-1.479-.662-1.393-.751c.079-.108.663.209,1.445.289.78.1,1.421-.082,1.473.042" fill="#bf654e"/>
        <path id="Trazado_2834" data-name="Trazado 2834" d="M699.319,116.537a5.549,5.549,0,0,0-5.563-.5c-.035-.047.209-.308.718-.564a4.126,4.126,0,0,1,4.241.383c.455.344.646.646.6.685" fill="#bf654e"/>
        <path id="Trazado_2835" data-name="Trazado 2835" d="M697.878,121.687c.083.089-.626.758-1.768.972a2.456,2.456,0,0,1-2-.249c.032-.132.893,0,1.915-.208,1.024-.188,1.777-.626,1.855-.515" fill="#bf654e"/>
        <path id="Trazado_2836" data-name="Trazado 2836" d="M693.906,130.479c-.112.067-.446-.282-.992-.4-.54-.139-.995.023-1.066-.087-.094-.094.43-.544,1.173-.366s1.011.811.885.852" fill="#bf654e"/>
        <path id="Trazado_2837" data-name="Trazado 2837" d="M695.1,130.078c-.12.056-.381-.262-.788-.506s-.8-.349-.8-.481.516-.246,1.049.087.662.86.543.9" fill="#bf654e"/>
        <path id="Trazado_2838" data-name="Trazado 2838" d="M704.338,140.072c.017-.016.146.086.17.359a2.8,2.8,0,0,1-.271,1,.723.723,0,0,0,.344,1.032,2.392,2.392,0,0,1,.749.6,1.2,1.2,0,0,1,.093,1.109c-.261.706-.809,1.089-1.016,1.536a1.3,1.3,0,0,0,.054,1.242c.393.7.813,1.061.749,1.116-.027.031-.512-.216-1.033-.951a1.609,1.609,0,0,1-.155-1.594c.265-.577.786-.969.962-1.5a.762.762,0,0,0-.031-.7,2.249,2.249,0,0,0-.609-.5,1.162,1.162,0,0,1-.557-.738,1.306,1.306,0,0,1,.146-.774,4.03,4.03,0,0,0,.393-.882c.034-.207-.023-.331.012-.35" fill="#bf654e"/>
        <path id="Trazado_2839" data-name="Trazado 2839" d="M708.233,146.832c-.042.025-.382-.275-.736-.953a2.083,2.083,0,0,1-.19-1.362c.113-.576.691-.957.624-1.311-.044-.4-.536-.647-.927-.987a1.4,1.4,0,0,1-.438-1.329,1.321,1.321,0,0,1,.467-.8c.178-.134.3-.15.314-.126.05.057-.4.3-.456.973a1.08,1.08,0,0,0,.4.96c.164.139.381.261.6.443a1.083,1.083,0,0,1,.163,1.71,1.614,1.614,0,0,0-.332.574,1.907,1.907,0,0,0,.078,1.13c.246.646.5,1.041.433,1.079" fill="#bf654e"/>
        <path id="Trazado_2840" data-name="Trazado 2840" d="M695.223,106.731a2.174,2.174,0,0,1-1.528.495c-1,.088-2.368-.314-3.748-.05-.689.155-1.33.464-1.958.668a3.747,3.747,0,0,1-1.77.207,1.982,1.982,0,0,1-1.1-.5c-.206-.205-.258-.361-.237-.375a2.58,2.58,0,0,0,1.375.548,3.779,3.779,0,0,0,1.593-.285,15.568,15.568,0,0,1,2-.718,6.349,6.349,0,0,1,2.161-.009c.645.084,1.209.168,1.684.184a8.786,8.786,0,0,0,1.531-.166" fill="#bf654e"/>
        <path id="Trazado_2841" data-name="Trazado 2841" d="M693.055,105.246a54.137,54.137,0,0,1-7.6.057,21.941,21.941,0,0,1,7.6-.057" fill="#bf654e"/>
        <path id="Trazado_2842" data-name="Trazado 2842" d="M691.737,103.609c-.043.124-.686.008-1.471-.085s-1.434-.141-1.446-.272.663-.294,1.5-.189,1.457.429,1.414.546" fill="#bf654e"/>
        <path id="Trazado_2843" data-name="Trazado 2843" d="M678.333,118.8c.059.114-.462.391-1.076.142s-.8-.806-.678-.848c.115-.063.4.244.852.416.444.188.862.165.9.29" fill="#bf654e"/>
        <path id="Trazado_2844" data-name="Trazado 2844" d="M677.713,119.544c.043.124-.2.322-.416.607s-.356.565-.487.553-.192-.439.12-.838.751-.445.783-.322" fill="#bf654e"/>
        <path id="Trazado_2845" data-name="Trazado 2845" d="M707.049,178.132a55.192,55.192,0,0,1-3.6-7.5,80.686,80.686,0,0,1-2.8-10.089s-3.382-8.791-4.986-9.192-5.837,1.32-6.639,2.382-1.871,8.414,0,8.146a3.08,3.08,0,0,0,2.437-1.87v-4.677s2.541,1.069,2.285,2.539.489,13.961,1.158,16.4,2.658,10.112,2.658,10.112Z" fill="#e48779"/>
        <path id="Trazado_2846" data-name="Trazado 2846" d="M701.426,155.464s-9.549-7.515-9.987-7.267c-1.1.621-11.352,7.086-11.188,8.69s0,15.231,0,15.231l-3.643,6.566,11.99,2.507,1.6-7.735a6.1,6.1,0,0,0,1.841-5.88c-.8-3.741-4.141-8.551-4.141-8.551l3.607-5.546s5.023,5.789,9.92,1.985" fill="#e48779"/>
        <path id="Trazado_2847" data-name="Trazado 2847" d="M707.241,361.977c1.732-1.513-11.75-182.874-13.558-207.071a2.882,2.882,0,0,0-5.748.427l14.533,206.644Z" fill="#ff735d"/>
        <path id="Trazado_2848" data-name="Trazado 2848" d="M693.683,154.906a1.6,1.6,0,0,1,.3.284l.815.882-.023-.02a6.282,6.282,0,0,0,6.539-.724l0,.276-9.59-7.229-.258-.194.271-.179.005,0h0c-.237-.331.287.478.25.383l0,0-.015.009-.028.019-.059.039-.116.076-.235.154-.472.311-.956.63q-.966.633-1.955,1.284l-4.27,2.8-2.026,1.327a4.148,4.148,0,0,0-1.53,1.559,4.568,4.568,0,0,0-.3,2.073q.041,1.072.079,2.083c.05,1.341.1,2.594.138,3.745.071,2.242.127,4.079.168,5.424.01.6.017,1.087.023,1.475a.259.259,0,1,1-.094,0c-.028-.387-.064-.874-.109-1.471-.078-1.343-.185-3.178-.316-5.417-.059-1.151-.125-2.4-.2-3.743-.033-.674-.067-1.371-.1-2.087a4.916,4.916,0,0,1,.324-2.268,4.524,4.524,0,0,1,1.666-1.743l2.027-1.342,4.264-2.805,1.957-1.283c.321-.21.64-.42.958-.627l.472-.309.235-.154.117-.076.059-.038.029-.02.015-.009,0,0,0,0c-.036-.1.489.714.252.382h0l-.008.006.012-.373,9.527,7.314.18.14-.177.136a6.38,6.38,0,0,1-3.994,1.316,6.1,6.1,0,0,1-2.838-.72l-.016-.009-.009-.011c-.307-.376-.556-.684-.757-.932a1.5,1.5,0,0,1-.238-.339" fill="#bf654e"/>
        <path id="Trazado_2849" data-name="Trazado 2849" d="M704.108,174.219a19.68,19.68,0,0,1-.652-2.645c-.37-1.635-.919-3.886-1.645-6.338s-1.5-4.639-2.078-6.213a19.617,19.617,0,0,1-.894-2.572,13.408,13.408,0,0,1,1.2,2.451,59.877,59.877,0,0,1,3.739,12.608,13.248,13.248,0,0,1,.33,2.709" fill="#bf654e"/>
        <g id="Grupo_459" data-name="Grupo 459" opacity="0.3">
          <g id="Grupo_458" data-name="Grupo 458">
            <g id="Grupo_457" data-name="Grupo 457" clip-path="url(#clip-path-7)">
              <path id="Trazado_2850" data-name="Trazado 2850" d="M707.241,361.977c1.732-1.513-11.75-182.874-13.558-207.071a2.882,2.882,0,0,0-5.748.427l14.533,206.644Z"/>
            </g>
          </g>
        </g>
        <g id="Grupo_462" data-name="Grupo 462" opacity="0.3">
          <g id="Grupo_461" data-name="Grupo 461">
            <g id="Grupo_460" data-name="Grupo 460" clip-path="url(#clip-path-8)">
              <path id="Trazado_2851" data-name="Trazado 2851" d="M707.024,227.27c1.537,3.782,3.355,7.694,6.684,10.06a12.917,12.917,0,0,0,10.988,1.661,16.2,16.2,0,0,0,8.887-6.908,18.762,18.762,0,0,1-27.937-9.132"/>
            </g>
          </g>
        </g>
        <g id="Grupo_465" data-name="Grupo 465" opacity="0.3">
          <g id="Grupo_464" data-name="Grupo 464">
            <g id="Grupo_463" data-name="Grupo 463" clip-path="url(#clip-path-9)">
              <path id="Trazado_2852" data-name="Trazado 2852" d="M667.031,185.941a31.631,31.631,0,0,0-9.938,14.171,3.235,3.235,0,0,0-.249,1.433,1.179,1.179,0,0,0,.878,1.05c.731.12,1.258-.658,1.582-1.323q3.919-8.034,7.836-16.069"/>
            </g>
          </g>
        </g>
        <path id="Trazado_2853" data-name="Trazado 2853" d="M476.628,335.9H188.57l5.284,12.517H481.783Z" fill="#657378"/>
        <path id="Trazado_2854" data-name="Trazado 2854" d="M374.09,335.963,341.77,156.907H158.877l-6.505,9.05,22.892,170.456Z" fill="#657378"/>
        <path id="Trazado_2855" data-name="Trazado 2855" d="M381.2,335.963,348.88,156.907h-189.4l22.624,178.41Z" fill="#657378"/>
        <path id="Trazado_2856" data-name="Trazado 2856" d="M376.029,331.787l-30.812-170.7H164.653l21.569,170.087Z" fill="#d6e6f8"/>
        <path id="Trazado_2857" data-name="Trazado 2857" d="M232.85,165.31a.969.969,0,0,1-.006-1.938l109.89-.647h.006a.97.97,0,0,1,.005,1.939l-109.889.646Z" fill="#657378"/>
        <path id="Trazado_2858" data-name="Trazado 2858" d="M163.683,286.836a.971.971,0,0,1-.961-.848L147.855,168.341a.97.97,0,0,1,1.924-.243l14.868,117.646a.971.971,0,0,1-.841,1.084,1.015,1.015,0,0,1-.123.008" fill="#657378"/>
        <path id="Trazado_2859" data-name="Trazado 2859" d="M339.9,329.5H179.594a.969.969,0,0,1,0-1.939H339.9a.969.969,0,0,1,0,1.939" fill="#657378"/>
        <path id="Trazado_2860" data-name="Trazado 2860" d="M138.192,348.168H499.866v10.85H138.192" fill="#375a64"/>
        <path id="Trazado_2861" data-name="Trazado 2861" d="M338.884,64.739c-9.276.55-17.747,5.05-19.53,14.169-.8,4.082-.6,8.835-3.646,11.667a3.616,3.616,0,0,0,2.827-1.725c.181,6.083-1.494,14.706,2.547,19.257" fill="#1a2e35"/>
        <path id="Trazado_2862" data-name="Trazado 2862" d="M324.043,102.342c-.228-.158-9.454-5.02-11.17,5.054s8.752,9.719,8.818,9.433,2.352-14.487,2.352-14.487" fill="#ffc09d"/>
        <path id="Trazado_2863" data-name="Trazado 2863" d="M319.265,112.488c-.039-.04-.2.093-.517.178a1.776,1.776,0,0,1-1.316-.2c-1-.572-1.605-2.414-1.346-4.238a5.885,5.885,0,0,1,.92-2.429,2.058,2.058,0,0,1,1.55-1.123.906.906,0,0,1,.953.659c.087.3-.011.494.039.521.025.029.245-.133.235-.562a1.132,1.132,0,0,0-.289-.7,1.344,1.344,0,0,0-.926-.422,2.5,2.5,0,0,0-2.1,1.25,6.052,6.052,0,0,0-1.087,2.7c-.281,2.041.435,4.117,1.82,4.786a1.911,1.911,0,0,0,1.65.007c.354-.2.445-.413.414-.436" fill="#ff9b6c"/>
        <path id="Trazado_2864" data-name="Trazado 2864" d="M371.135,132.276c1.525-7.052,3.484-21.827,5.1-35.223a27.844,27.844,0,0,0-22.091-30.625l-1.412-.287c-15.414-2.208-25.9,9.649-27.682,25.117l-7.632,59.321L344.4,167.3l5.866-21.693s17.712,1.268,20.87-13.336" fill="#ffc09d"/>
        <path id="Trazado_2865" data-name="Trazado 2865" d="M350.265,145.612s-6.782-.568-15.359-8.746c0,0-.862,12.059,14.016,13.713Z" fill="#ff9b6c"/>
        <path id="Trazado_2866" data-name="Trazado 2866" d="M370.263,107.127a2.135,2.135,0,0,1-2.445,1.7,2.042,2.042,0,0,1-1.772-2.324,2.133,2.133,0,0,1,2.443-1.7,2.042,2.042,0,0,1,1.774,2.325" fill="#1a2e35"/>
        <path id="Trazado_2867" data-name="Trazado 2867" d="M372.009,102.845c-.314.22-1.66-1.274-3.911-1.727-2.242-.483-4.129.339-4.317.014-.1-.146.269-.585,1.094-.962a5.852,5.852,0,0,1,3.525-.347,5.621,5.621,0,0,1,3.044,1.713c.584.672.717,1.213.565,1.309" fill="#1a2e35"/>
        <path id="Trazado_2868" data-name="Trazado 2868" d="M349.292,102.457a2.134,2.134,0,0,1-2.445,1.7,2.042,2.042,0,0,1-1.772-2.324,2.135,2.135,0,0,1,2.444-1.7,2.041,2.041,0,0,1,1.773,2.325" fill="#1a2e35"/>
        <path id="Trazado_2869" data-name="Trazado 2869" d="M349.718,97.652c-.289.253-1.791-1.087-4.076-1.292-2.281-.237-4.068.783-4.29.48-.11-.134.2-.61.984-1.074a5.844,5.844,0,0,1,3.466-.728,5.619,5.619,0,0,1,3.212,1.375c.651.6.845,1.127.7,1.239" fill="#1a2e35"/>
        <path id="Trazado_2870" data-name="Trazado 2870" d="M354.2,117.838a15.151,15.151,0,0,1,3.788.084c.587.058,1.154.054,1.331-.318a2.99,2.99,0,0,0-.037-1.782q-.387-2.25-.81-4.719c-1.092-6.709-1.758-12.178-1.488-12.22s1.376,5.362,2.468,12.07c.256,1.653.5,3.227.732,4.733a3.386,3.386,0,0,1-.16,2.315,1.474,1.474,0,0,1-1.115.649,3.989,3.989,0,0,1-1-.064,14.917,14.917,0,0,1-3.7-.748" fill="#1a2e35"/>
        <path id="Trazado_2871" data-name="Trazado 2871" d="M347.267,118.047c.37.053-.122,2.5,1.615,4.655s4.393,2.419,4.342,2.764c0,.16-.677.356-1.781.163a6.215,6.215,0,0,1-3.654-2.169,5.416,5.416,0,0,1-1.2-3.871c.115-1.04.511-1.59.676-1.542" fill="#1a2e35"/>
        <path id="Trazado_2872" data-name="Trazado 2872" d="M352,88.008c-.346.566-2.533-.181-5.237-.4-2.7-.273-4.987.068-5.225-.553-.1-.294.386-.794,1.366-1.211a9.134,9.134,0,0,1,7.971.725c.891.588,1.28,1.167,1.125,1.438" fill="#1a2e35"/>
        <path id="Trazado_2873" data-name="Trazado 2873" d="M372.131,96.89c-.5.431-1.941-.416-3.8-.819-1.845-.47-3.512-.357-3.766-.966-.107-.291.246-.753,1.034-1.1a5.627,5.627,0,0,1,6.1,1.439c.552.659.662,1.229.436,1.443" fill="#1a2e35"/>
        <path id="Trazado_2874" data-name="Trazado 2874" d="M365.16,67.251c-4.7-3.178-10.164-3.27-15.825-3.687a25.64,25.64,0,0,0-12.7,2.044c-6.455,2.859-10.652,8.766-12.48,15.584a65.787,65.787,0,0,0-2.222,20.128l.569,0a9.752,9.752,0,0,0-1.206,5.056c.227,1.741,1.812,3.431,3.534,3.092,2.013-.4,2.638-2.912,2.915-4.944a146.783,146.783,0,0,1,4.429-20.259c1.408-4.975,5.654-10.5,10.116-12.016,8.213-3.167,16.658,2.793,19.7,4.051,5.77-3.076,9.581,1.182,11.744,5.448.125-5.676-3.873-11.317-8.577-14.494" fill="#1a2e35"/>
        <path id="Trazado_2875" data-name="Trazado 2875" d="M338.078,71.065a10.349,10.349,0,0,1,13.1,3.5c1.1,1.738,1.643,3.792,2.833,5.469,2.517,3.547,7.224,4.614,11.5,5.416a5.972,5.972,0,0,1-2.455-3.269,22.044,22.044,0,0,0,17.033,5.472c-1.221-8.69-6.508-17.958-14.381-21.833s-19.195-5.419-26.826-1.086" fill="#1a2e35"/>
        <path id="Trazado_2876" data-name="Trazado 2876" d="M378.152,87.08a1.844,1.844,0,0,1-.491-.027c-.322-.025-.791-.1-1.394-.219a18.458,18.458,0,0,1-4.866-1.791,19,19,0,0,1-5.915-4.911c-1.84-2.29-3.109-5.252-4.706-8.139a18.947,18.947,0,0,0-2.766-3.9,11.924,11.924,0,0,0-3.573-2.592,19.6,19.6,0,0,0-7.351-1.637c-2.167-.1-3.931-.011-5.148.033l-1.4.059a1.875,1.875,0,0,1-.492-.009,1.9,1.9,0,0,1,.484-.088c.318-.042.79-.093,1.4-.149a43.821,43.821,0,0,1,5.175-.187,19.431,19.431,0,0,1,7.527,1.576,12.3,12.3,0,0,1,3.725,2.667,19.159,19.159,0,0,1,2.845,4c1.615,2.927,2.86,5.856,4.634,8.1a19.148,19.148,0,0,0,5.73,4.888,19.912,19.912,0,0,0,4.745,1.906c1.178.3,1.849.383,1.842.43" fill="#375a64"/>
        <path id="Trazado_2877" data-name="Trazado 2877" d="M363.845,85.205c-.006.017-.123-.012-.343-.081a7.834,7.834,0,0,1-.94-.363,12.375,12.375,0,0,1-3.068-2.08,22.467,22.467,0,0,1-3.516-4.221c-1.149-1.722-2.228-3.712-3.478-5.714a22.437,22.437,0,0,0-4.142-5.127,12.242,12.242,0,0,0-4.678-2.548,8.573,8.573,0,0,0-3.587-.23c-.849.14-1.295.332-1.313.282-.006-.016.1-.069.315-.158a5.516,5.516,0,0,1,.962-.309,8.189,8.189,0,0,1,3.708.085,12.178,12.178,0,0,1,4.88,2.54,22.018,22.018,0,0,1,4.263,5.209c1.262,2.021,2.328,4.014,3.442,5.726a23.544,23.544,0,0,0,3.377,4.215,15.157,15.157,0,0,0,4.118,2.774" fill="#375a64"/>
        <path id="Trazado_2878" data-name="Trazado 2878" d="M316.461,88.041a16.939,16.939,0,0,0,4.022-2.453,22.559,22.559,0,0,0,3.462-3.763c1.161-1.546,2.278-3.367,3.5-5.256A33.638,33.638,0,0,1,331.3,71.5a15.86,15.86,0,0,1,4.153-3.148,10.435,10.435,0,0,1,3.346-1.075,6.618,6.618,0,0,1,.954-.059c.218,0,.332.011.332.027a12.866,12.866,0,0,0-4.474,1.407,16.372,16.372,0,0,0-3.99,3.155,35.377,35.377,0,0,0-3.767,5.026c-1.219,1.881-2.353,3.706-3.55,5.261a21.5,21.5,0,0,1-3.6,3.76,12.746,12.746,0,0,1-3.009,1.809,7.91,7.91,0,0,1-.9.314c-.21.058-.322.081-.327.065" fill="#375a64"/>
        <path id="Trazado_2879" data-name="Trazado 2879" d="M317.577,91.97c.01-.05.464.06,1.292.07a8.788,8.788,0,0,0,3.4-.691,12.337,12.337,0,0,0,4.2-2.954,22.29,22.29,0,0,0,3.495-5.3c1.016-2.033,1.866-4.041,2.783-5.81a24.271,24.271,0,0,1,2.863-4.448,13.048,13.048,0,0,1,2.622-2.423,7.917,7.917,0,0,1,.833-.5c.2-.1.3-.147.313-.133a17.064,17.064,0,0,0-3.5,3.269,25.733,25.733,0,0,0-2.732,4.436c-.885,1.757-1.721,3.769-2.749,5.824a21.781,21.781,0,0,1-3.6,5.389,12.25,12.25,0,0,1-4.395,2.965,8.326,8.326,0,0,1-3.53.562,5.583,5.583,0,0,1-.962-.153c-.216-.053-.326-.088-.323-.1" fill="#375a64"/>
        <path id="Trazado_2880" data-name="Trazado 2880" d="M339.161,332.241l.665,3.72s-4.521,11.3-3.165,12.207,22.6.452,22.6.452,1.809-2.713,1.357-4.974-13.563-16.727-13.563-16.727Z" fill="#ffc09d"/>
        <path id="Trazado_2881" data-name="Trazado 2881" d="M309.083,146.082l9.042-2.261s4.521,13.112,14.919,14.468,15.372-5.426,15.372-5.426a7.079,7.079,0,0,1,2.615,5.6c.1,3.889-13.918,60.4-22.055,77.129s-9.5,17.877-9.5,17.877-21.7-21.495-22.152-24.659,11.754-82.733,11.754-82.733" fill="#fff"/>
        <path id="Trazado_2882" data-name="Trazado 2882" d="M355.649,170.043l18.987,24.413c6.329,8.138,14.015,23.961,14.015,23.961s31.646-13.11,45.662-17.632,19.44-4.972,19.44-4.972l5.425,10.4s-29.386,27.125-61.485,44.757c-9.394,5.16-14.919,8.138-23.509,3.164-9.3-5.384-30.29-16.727-33-30.29s14.468-53.8,14.468-53.8" fill="#ececec"/>
        <path id="Trazado_2883" data-name="Trazado 2883" d="M212.4,328.727s11.347-130.664,32.482-158.232c20.8-27.126,47.47-26.674,55.608-27.126s9.945-.452,9.945-.452-1.807,12.659-1.807,41.592,10.989,60.543,10.989,60.543,15.683-36.13,21.56-51.5,9.494-37.975,9.494-37.975,6.33,8.137,6.782,11.3.7,21.554-3.945,40.162c-4.193,22.227-13.686,45.284-29.057,68.34s-29.9,53.347-29.9,53.347Z" fill="#ececec"/>
        <path id="Trazado_2884" data-name="Trazado 2884" d="M347.964,327.371c1.355,2.068-10.851,10.271-14.016,8.616s-53.346-27.3-69.622-42.19c-9.494-8.687-32.1-67.008-30.29-93.48.851-12.447,3.938-32.1,18.244-36.32s25.62,10.672,28.774,19.774c5.877,16.959,13.11,96.13,13.11,96.13s52.444,45.4,53.8,47.47" fill="#ececec"/>
        <path id="Trazado_2885" data-name="Trazado 2885" d="M338.346,157.746c-1.651.3-5.5-.46-7.562-1.266-10.4-4.069-12.659-12.659-12.659-12.659l-9.493,1.809s-.093.6-.26,1.695c.043,3.082,1.523,6.843,4.328,10.512,5.877,7.685,16.276,12.206,16.276,12.206s6.529-10.09,9.37-12.3" fill="#fff"/>
        <path id="Trazado_2886" data-name="Trazado 2886" d="M348.416,152.411a17.357,17.357,0,0,1-9.291,5.272l-.347.606s1.766.875,3.215,5.41a27.976,27.976,0,0,1,1.449,7.7s4.543-2.95,6.481-7.139a45.842,45.842,0,0,0,1.108-6.245,7.078,7.078,0,0,0-2.615-5.6" fill="#fff"/>
        <path id="Trazado_2887" data-name="Trazado 2887" d="M332.037,165.423s.481,5.9,1.911,7.333c1.809,1.809,6.33,1.809,6.782-.452s3.291-7.686,2.55-10.4-.175-5.042-6.109-3.877-5.134,7.4-5.134,7.4" fill="#aa3124"/>
        <path id="Trazado_2888" data-name="Trazado 2888" d="M340.064,172.5s.214,11.109-4.76,33.263a53.655,53.655,0,0,1-2.635,8.717l-13.188,30.615L313.6,222.937s12.658-18.987,16.275-30.742,6.005-19.055,6.005-19.055Z" fill="#aa3124"/>
        <path id="Trazado_2889" data-name="Trazado 2889" d="M242.081,172.617c-5.222,11.911-5.135,25.231-3.57,37.885,1.8,14.535,5.639,28.692,10.018,42.664,2.183,6.967,4.31,13.988,6.85,20.84,2.217,5.98,4.906,11.966,9.282,16.757,4.295,4.7,9.646,8.623,14.627,12.6a174.439,174.439,0,0,0,15.39,10.917c13.1,8.323,27.026,15.329,40.557,22.944.728.41,1.385-.689.658-1.1-11.6-6.527-23.455-12.62-34.874-19.446a229.076,229.076,0,0,1-30.434-22.1,42.811,42.811,0,0,1-11.7-15.4c-2.943-6.475-4.94-13.353-7.11-20.1-4.437-13.791-8.664-27.707-11.01-42.006-2.361-14.386-3.577-30.1,2.438-43.825.327-.746-.795-1.394-1.124-.643"/>
        <path id="Trazado_2890" data-name="Trazado 2890" d="M293.132,255.751q1.357,14.37,2.716,28.739c.082.862,1.438.87,1.356,0q-1.357-14.37-2.716-28.739c-.081-.861-1.438-.869-1.356,0"/>
        <path id="Trazado_2891" data-name="Trazado 2891" d="M264.266,158.775c14.691,3.866,20.628,19.432,22.627,32.989,1.2,8.126,1.739,16.367,2.512,24.542q1.185,12.538,2.369,25.075c.082.862,1.439.871,1.356,0q-1.287-13.637-2.577-27.275c-.792-8.377-1.3-16.848-2.743-25.145-2.3-13.284-9-27.76-23.184-31.495a.679.679,0,0,0-.36,1.309"/>
        <path id="Trazado_2892" data-name="Trazado 2892" d="M295.689,280.8c17.326,15.776,35.677,30.917,52.1,47.3.523.522,1.449-.214.93-.731-16.417-16.377-34.767-31.518-52.093-47.294-.555-.505-1.483.228-.932.73"/>
        <path id="Trazado_2893" data-name="Trazado 2893" d="M336.289,337.307c4.958-.753,10.114-3.882,12.482-8.682.466-.946-.885-1.786-1.353-.838-2.2,4.457-6.959,7.222-11.546,7.919-.994.151-.571,1.75.417,1.6"/>
        <path id="Trazado_2894" data-name="Trazado 2894" d="M329.378,332.562a31.543,31.543,0,0,1,12.176-10.421c.784-.384.1-1.554-.685-1.172a32.923,32.923,0,0,0-12.663,10.908c-.5.719.677,1.4,1.172.685"/>
        <path id="Trazado_2895" data-name="Trazado 2895" d="M294.641,144.3a196.946,196.946,0,0,0-5.028,53.252.686.686,0,0,0,.858.649,50.045,50.045,0,0,1,13.044-1.315l-.342-1.254a43.137,43.137,0,0,0-6.656,5.689,34.248,34.248,0,0,0-2.772,3.257c-.73,1-.495,1.192-.1,2.416,1.738,5.386,3.554,10.752,5.768,15.965,4.184,9.847,9.923,19.122,18.863,25.37.715.5,1.393-.666.684-1.161-8.282-5.788-13.759-14.372-17.757-23.456-2.027-4.608-3.71-9.356-5.29-14.13-.327-.991-1.2-2.56-1.169-3.6.031-1.2,1.719-2.628,2.474-3.444a41.252,41.252,0,0,1,6.639-5.748.678.678,0,0,0-.343-1.253,51.443,51.443,0,0,0-13.4,1.364c.286.214.572.431.858.647a195.6,195.6,0,0,1,4.98-52.894c.2-.84-1.1-1.2-1.308-.358"/>
        <path id="Trazado_2896" data-name="Trazado 2896" d="M355.505,194.765l-13.165,6.852a.7.7,0,0,0-.247.949,33.294,33.294,0,0,0,7,7.058c-.082-.316-.165-.632-.247-.95a117.6,117.6,0,0,1-7.645,11c-5.449,6.637-11.661,12.6-17.008,19.321-10.628,13.375-14.8,30.217-24.037,44.409-.487.749.7,1.445,1.19.7,9.477-14.556,13.69-31.8,24.831-45.375,5.448-6.638,11.661-12.6,17.01-19.323,2.519-3.17,4.65-6.63,6.847-10.03a.715.715,0,0,0-.246-.95,31.172,31.172,0,0,1-6.507-6.559l-.246.949,13.164-6.852c.788-.409.092-1.607-.694-1.2"/>
        <path id="Trazado_2897" data-name="Trazado 2897" d="M356.554,167.1a127.148,127.148,0,0,1-2.431,36.57c-2.266,10-5.8,19.642-8.789,29.431-.255.836,1.054,1.194,1.308.36,3.046-9.978,6.658-19.809,8.919-30.009a128.59,128.59,0,0,0,2.348-36.352c-.056-.866-1.413-.873-1.355,0"/>
        <path id="Trazado_2898" data-name="Trazado 2898" d="M443.287,197.714c-.924.314-1.19.851-1.371,1.815a23.456,23.456,0,0,0-.036,6.7,30.733,30.733,0,0,0,3.529,11.19c.413.77,1.584.086,1.171-.684a29.484,29.484,0,0,1-3.013-8.344,27.972,27.972,0,0,1-.5-4.526c-.022-.754-.252-4.56.576-4.842s.469-1.591-.36-1.308"/>
        <path id="Trazado_2899" data-name="Trazado 2899" d="M381.62,225.05c8.8-7.4,19.614-12.359,30.266-16.48a250.688,250.688,0,0,1,30.516-9.515c3.594-.886,7.207-1.722,10.853-2.362.858-.151.495-1.459-.361-1.309a209.385,209.385,0,0,0-23.589,5.833,193.383,193.383,0,0,0-33.114,12.842,82.536,82.536,0,0,0-15.53,10.032c-.669.563.295,1.518.959.959"/>
        <path id="Trazado_2900" data-name="Trazado 2900" d="M356.922,171.56a305.859,305.859,0,0,1,30.928,46.862c.413.77,1.584.085,1.172-.684A307.691,307.691,0,0,0,357.881,170.6c-.546-.681-1.5.284-.959.959"/>
        <path id="Trazado_2901" data-name="Trazado 2901" d="M350.423,157.637c.945.957,2.064,1.6,2.975,2.606a10.649,10.649,0,0,1,3.156,6.409c.049.868,1.405.873,1.355,0a10.718,10.718,0,0,0-2.383-5.958c-1.238-1.624-2.76-2.616-4.144-4.016a.679.679,0,0,0-.959.959"/>
        <path id="Trazado_2902" data-name="Trazado 2902" d="M232.943,299.545Q231.766,314,231.323,328.5c-.027.873,1.329.872,1.356,0q.464-14.5,1.619-28.957c.072-.87-1.285-.865-1.355,0"/>
        <path id="Trazado_2903" data-name="Trazado 2903" d="M236.457,269.057q-1.158,7.7-2.042,15.433c-.1.865,1.258.858,1.356,0q.87-7.554,1.994-15.072c.128-.854-1.179-1.222-1.308-.361"/>
        <path id="Trazado_2904" data-name="Trazado 2904" d="M242.86,237.22c-2,7.769-3.652,15.616-5.046,23.515-.15.853,1.156,1.219,1.308.36,1.393-7.9,3.047-15.746,5.046-23.515a.679.679,0,0,0-1.308-.36"/>
        <path id="Trazado_2905" data-name="Trazado 2905" d="M454.2,197.673a37.1,37.1,0,0,1,2.713-4.121c.75-.751,6.849-11.467,7.6-12.218s12-5.635,13.5-4.884-8.624,6.01-9,7.889-1.874,8.263-.375,9.015,3.937.562,6.936-.94c2.013-1.008,3.138,1.423-.562,3.569-3.562,2.065-6,2.253-8.248,3.38s-9.849,4.135-9.849,4.135Z" fill="#ffc09d"/>
        <path id="Trazado_2906" data-name="Trazado 2906" d="M307.953,217.06c0,6.117-2.834,11.076-6.329,11.076s-6.329-4.959-6.329-11.076,2.833-11.076,6.329-11.076,6.329,4.959,6.329,11.076" fill="#1d1d1b"/>
        <path id="Trazado_2907" data-name="Trazado 2907" d="M302.754,217.06c0,3.745-1.67,6.781-3.729,6.781s-3.73-3.036-3.73-6.781,1.67-6.781,3.73-6.781,3.729,3.036,3.729,6.781" fill="#424242"/>
        <path id="Trazado_2908" data-name="Trazado 2908" d="M348.6,152.643c1.914,3.992,1.645,8.576,1.873,12.9q.389,7.324.552,14.66.326,14.668-.248,29.337c-.067,1.745,2.645,1.742,2.713,0q.593-15.552.2-31.115c-.131-5.038-.367-10.069-.631-15.1-.22-4.2-.267-8.178-2.12-12.046-.755-1.573-3.1-.2-2.343,1.369" fill="#1d1d1b"/>
        <path id="Trazado_2909" data-name="Trazado 2909" d="M308.718,151.847a40.158,40.158,0,0,0,21.206,18.184.682.682,0,0,0,.858-.654,10.519,10.519,0,0,1,5.823-9.829c1.5-.716,3.626-1.139,4.572.649a15.464,15.464,0,0,1,1.074,3.234,34.226,34.226,0,0,1,1.061,7.044.686.686,0,0,0,1.157.479,45.361,45.361,0,0,1,5.507-4.864c.69-.515.015-1.694-.685-1.171a47.591,47.591,0,0,0-5.781,5.076c.386.161.771.32,1.158.48A30.857,30.857,0,0,0,342.65,160.2a3.84,3.84,0,0,0-4.726-2.558c-5.232,1.126-8.657,6.625-8.5,11.735l.858-.654a38.72,38.72,0,0,1-20.395-17.561c-.423-.763-1.6-.08-1.171.685" fill="#1d1d1b"/>
        <path id="Trazado_2910" data-name="Trazado 2910" d="M256.524,157.025c-8.2,5.487-15.17,14.557-18.947,23.609a105.321,105.321,0,0,0-4.747,15.514c-1.457,5.929-2.946,11.85-4.319,17.8a688.76,688.76,0,0,0-12.392,71.829c-1.709,14.06-3.068,28.159-4.236,42.273-.072.87,1.285.866,1.357,0,2-24.205,4.586-48.372,8.48-72.352q2.833-17.444,6.6-34.718c2.442-11.146,4.868-22.465,8.211-33.381a53.068,53.068,0,0,1,8.1-16.637c3.552-4.716,7.637-9.46,12.577-12.765.721-.484.044-1.658-.685-1.171"/>
        <path id="Trazado_2911" data-name="Trazado 2911" d="M310.225,142.951c-18.629-.491-38.511,4.387-53.7,14.6-.712.478-.025,1.589.7,1.1,15-10.089,34.593-14.909,53-14.424a.641.641,0,1,0,0-1.28"/>
        <path id="Trazado_2912" data-name="Trazado 2912" d="M339.527,247.69c-8.063,16.045-17.49,31.255-26.725,46.583a.657.657,0,0,0,1.123.683c9.235-15.329,18.663-30.538,26.725-46.584.387-.771-.735-1.454-1.123-.682"/>
        <path id="Trazado_2913" data-name="Trazado 2913" d="M345.9,234.494c11.026,9.419,22.593,20.479,37.209,23.707.851.189,1.214-1.119.36-1.308-14.387-3.177-25.756-14.086-36.61-23.359-.66-.563-1.624.392-.959.96"/>
        <path id="Trazado_2914" data-name="Trazado 2914" d="M395.1,250.76q-5.908,3.249-11.984,6.177c-.787.377-.1,1.547.684,1.171q6.082-2.916,11.985-6.177c.765-.421.082-1.593-.685-1.171"/>
        <path id="Trazado_2915" data-name="Trazado 2915" d="M414.75,238.843q-4.67,3.062-9.433,5.976c-.744.454-.063,1.628.685,1.17q4.765-2.908,9.433-5.975c.727-.477.048-1.651-.685-1.171"/>
        <path id="Trazado_2916" data-name="Trazado 2916" d="M452.421,196.671a28.125,28.125,0,0,0,6.257,9.854v-.958c-11.009,9.4-22.4,18.341-34.236,26.682-.708.5-.031,1.676.685,1.171,11.927-8.406,23.413-17.421,34.51-26.9a.683.683,0,0,0,0-.958,26.6,26.6,0,0,1-5.908-9.256c-.316-.8-1.628-.453-1.308.36"/>
        <path id="Trazado_2917" data-name="Trazado 2917" d="M294.842,329.631a.678.678,0,0,1-.615-.962l2.713-5.878a.676.676,0,0,1,.9-.331c.341.157.489.56.332-.005l-2.713,5.878c-.114,1.152-.359,1.3-.616,1.3"/>
        <path id="Trazado_2918" data-name="Trazado 2918" d="M340.414,263.481c-.881-9.85-1.605-19.829-.866-29.714.455-6.07,1.511-12.629,4.863-17.849a11.63,11.63,0,0,1,5.9-5.035,6.582,6.582,0,0,1,.951-.228c.258-.038-.284.01.066,0a4.632,4.632,0,0,1,3.211,1.2c3.488,2.945,3.527,9.417,4.119,13.6a240.8,240.8,0,0,1,2.329,34.734l.671-1.172a6.267,6.267,0,0,1-3.266.534c-1.743-.126-1.735,2.586,0,2.712a9.051,9.051,0,0,0,4.635-.9,1.335,1.335,0,0,0,.672-1.171,244.9,244.9,0,0,0-2.24-34.132c-.811-5.926-1.587-19.467-10.821-18.024-8.368,1.308-11.8,12.155-13,19.123-2.057,11.922-1,24.364.065,36.333.154,1.726,2.868,1.741,2.713,0" fill="#1d1d1b"/>
        <path id="Trazado_2919" data-name="Trazado 2919" d="M344.347,264.982h-5.425a1.356,1.356,0,0,1,0-2.713h5.425a1.356,1.356,0,0,1,0,2.713" fill="#1d1d1b"/>
        <path id="Trazado_2920" data-name="Trazado 2920" d="M322.42,139.075a23.391,23.391,0,0,0-16.582,6.987c-4.345,4.6-6.288,11.019-7.372,17.108-2.59,14.556-1.388,29.717.1,44.325.174,1.721,2.889,1.738,2.712,0-1.36-13.357-2.438-27.085-.682-40.459.78-5.947,2.137-12.151,5.62-17.15a20.226,20.226,0,0,1,16.2-8.1,1.357,1.357,0,0,0,0-2.712" fill="#1d1d1b"/>
        <path id="Trazado_2921" data-name="Trazado 2921" d="M319.185,136.866l-.822,6.391h5.81l3.122-5.8Z" fill="#ffc09d"/>
        <path id="Trazado_2922" data-name="Trazado 2922" d="M437.692,4.239a51.6,51.6,0,0,1,0,103.21H425.351a51.6,51.6,0,0,1,0-103.21" fill="#ff735d"/>
        <path id="Trazado_2923" data-name="Trazado 2923" d="M430.867,70.25c0,4.244-5.691,7.685-12.711,7.685s-12.712-3.441-12.712-7.685.145-12.775,7.165-12.775,18.258,8.531,18.258,12.775" fill="#fff"/>
        <path id="Trazado_2924" data-name="Trazado 2924" d="M440.076,70.23s-4.969,2.195-7.279,4.854-5.2,11.324-9.129,12.249-4.97-.925-3.583-2.889,5.893-6.818,3.929-10.747A12.931,12.931,0,0,0,418.7,68.15s16.178-1.733,18.951-.578,2.427,2.658,2.427,2.658" fill="#b2c0ce"/>
        <path id="Trazado_2925" data-name="Trazado 2925" d="M418.005,25.048c-2.542,0-10.053,4.738-11.556,6.587s-1.27,6.125-4.968,7.627S396.4,45.271,395.7,49.431s-.693,14.213,4.622,18.141S409.686,70,413.5,69.306s14.56-1.5,17.218-1.04,14.675,3.236,17.68,2.2c2.417-.837,9.013-6.009,9.129-7.627a4.493,4.493,0,0,0-.462-2.542,11.733,11.733,0,0,0,3,.462c1.5,0,8.32-2.889,9.591-3.813s4.044-6.818,3.929-8.667A25.719,25.719,0,0,0,464,31.982c-1.5-1.734-2.542-.694-2.542-.694l-.924.809a8.012,8.012,0,0,0-1.156-3.12c-1.04-1.733-11.671-4.969-13.4-4.969" fill="#fff"/>
        <path id="Trazado_2926" data-name="Trazado 2926" d="M430.717,68.265c2.657.463,14.675,3.236,17.68,2.2,2.417-.837,9.013-6.009,9.129-7.627a5.6,5.6,0,0,0-.034-1.146c-.231.373-.685,1.1-1.006,1.608-.809,1.272-6.143,2.925-8.089,2.658-5.894-.809-7.974.231-12.018-.115s-25.191-3-27.618-4.623-4.391-2.31-5.084-10.4,2.946-10.112,5.546-12.712,7.051-.923,9.939,0,1.039,4.275,2.312,2.195c.9-1.466-.579-8.089-.7-9.938s-1.041-.577-1.041.346-.23,5.663-1.27,5.663a15.738,15.738,0,0,1-5.894-1.849c-1.271-.924-1.155-3.582-1.271-4.507s-.462-1.155-.462-.693-1.733,6.009-3.005,6.356-1.387-.925-1.04-3.236a4.906,4.906,0,0,1,1.054-2.1,9.586,9.586,0,0,0-1.4,1.289c-1.5,1.849-1.27,6.125-4.968,7.627S396.4,45.27,395.7,49.43s-.693,14.213,4.622,18.142S409.686,70,413.5,69.305s14.56-1.5,17.218-1.04" fill="#b2c0ce"/>
        <path id="Trazado_2927" data-name="Trazado 2927" d="M473.25,50.12a6.243,6.243,0,0,1-.7.447c-2.774,1.521-7.165,2.907-8.667,2.561s-3.235-4.313-2.657-7.588,2.888-5.816,1.27-4.892-2.427,4.969-2.31,7.28-.021,4.357-3.025,5.805a6.77,6.77,0,0,1-5.758-.027s3.929,2.08,5.2,4.969c.214.487.5,1.078.839,1.72a11.361,11.361,0,0,0,2.627.36c1.5,0,8.321-2.889,9.592-3.814.974-.708,2.829-4.333,3.591-6.821" fill="#b2c0ce"/>
        <path id="Trazado_2928" data-name="Trazado 2928" d="M413.5,41.341c1.617.925,2.311,3.314,6.471,4.2s7.28.424,10.862,1.81,4.044,1.271,4.044,1.271,4.507-.808,5.316-.808,1.734-4.391,1.04-8.9-1.1-3.987,0-2.888.231,9.244,1.271,11.323,2.427,2.659,4.853,2.543,4.969-4.044,5.778-3.237-4.159,3.352-3.466,4.392,6.817,5.662,6.817,5.662l.347,1.04s-6.817-6.24-12.018-7.049-4.738-1.848-7.511-1.386-4.506.828-5.546,1.039,1.617-.923,1.04-.923S423.9,46.773,421.241,47s-7.512,3.564-8.552,3.234,6.356-2.772,3.814-4.274-4.622-5.547-3-4.623" fill="#b2c0ce"/>
        <path id="Trazado_2929" data-name="Trazado 2929" d="M412.589,54.284c2.643.23,1.719,1.617,6.572,2.079s21.609,2.89,23.92,2.312,6.356-2.889,7.4-1.849-5.853,1.271-5.642,3.7.788,4.392.21,4.392-.462-2.774-2.079-3.929S421.818,58.1,418.236,57.4s-8.291-3.35-5.647-3.119" fill="#b2c0ce"/>
        <path id="Trazado_2930" data-name="Trazado 2930" d="M600.641,150.307A51.039,51.039,0,0,1,549.6,201.345H537.4a51.038,51.038,0,1,1,0-102.076h12.2a51.039,51.039,0,0,1,51.039,51.038" fill="#ff735d"/>
        <path id="Trazado_2931" data-name="Trazado 2931" d="M577.672,153.263c.7,18.681-1.168,36.193-34.442,37.6-23.684,1-33.742-13.916-33.742-35.26s16.58-43.432,30.589-44.832a33.255,33.255,0,0,1,14.945,1.868c11.909,4.9,22.028,24.038,22.65,40.629" fill="#fff"/>
        <path id="Trazado_2932" data-name="Trazado 2932" d="M575.006,153.067c.646,17.217-1.076,33.358-31.744,34.649-21.829.919-31.1-12.826-31.1-32.5s15.28-40.03,28.194-41.321a30.637,30.637,0,0,1,13.773,1.722c10.976,4.519,20.3,22.156,20.876,37.447" fill="#b2c0ce"/>
        <path id="Trazado_2933" data-name="Trazado 2933" d="M543.813,125.243c0-.7.935-3.035.233-3.969s-.233-.7-2.568-.7-2.568-2.335-4.67-.934-3.035.934-3.035,2.8,1.634,5.605.233,7-2.8,3.736-2.335.7,2.8-8.173.7-8.406-4.437.934-3.737,2.1,2.1,3.035.7,2.568-.934-2.335-2.1-1.4-2.1,1.634-.7,2.8,3.269,1.868.467,1.167,0-2.568-2.8-.7-2.1,3.5-2.569,5.137-1.4,1.635,1.4,2.8,3.268,2.1,3.5.7-1.634-2.8,0-2.1,3.736.234,2.8,1.167-3.269,1.168-2.8,2.335,2.568,2.336,1.634,2.8a1.433,1.433,0,0,0-.233,2.335c.7.467,2.1.233-.467,1.635s-1.868,3.035-1.634,3.735-2.569.7-.7,3.97,2.8,4.2,2.8,4.67-1.868-1.167-1.4.934,2.8,1.868.467,2.8-3.269.467-4.9.233-4.9-3.035-6.3-2.8-3.735,3.5-2.1,4.9,2.335-.7,3.736.467,1.4,1.168-.467,1.4-2.334.233-2.334,1.4-.935,2.569.933,3.269,3.27.233,3.5-.934,0-1.634,1.635-1.868,3.969-1.4,2.1,0-5.137,3.269-5.137,4.9-.7,3.035,1.4,3.969,2.568,1.167,3.269,0,.934-.466,2.8-1.168,1.4-4.436,2.335-3.035,1.4,2.8-1.4,3.737-4.67,1.4-4.2,2.568.7,1.4,3.269,3.035,3.736,2.335,5.137,2.335,0-2.568.467-3.269,1.635-.7.934-2.335-2.569-3.269-.7-2.8,1.868,3.736,1.4,4.9-.934,2.568-.234,3.269.467-.467,3.737.233,5.6,1.168,5.6-.233-2.335-1.167-3.736-2.8-4.9-7.473-2.8-7.005,1.868,4.9,3.269,5.6,4.437,1.635,4.2,0,1.867-3.035.466-4.9.7-3.035.234-4.67-3.036-1.868-1.635-3.036,2.568-1.634,2.568-2.568,1.635-3.736-1.868-3.5-7.927,7.977-9.573,2.8c-1.635-5.137,9.34-5.137,9.808-8.173s.933-5.137,0-6.538-4.2,1.4-3.737-1.869.934-4.2.7-5.6-2.1-3.736-2.1-4.67,3.97,1.4,4.2,2.1,1.635,2.568,1.868.466,1.4-1.868,0-4.9-.467-3.97.234-4.2.934-.7.466-1.868-.466-.935-.466-1.635a2.845,2.845,0,0,1,.233-1.168" fill="#fff"/>
        <path id="Trazado_2934" data-name="Trazado 2934" d="M544.778,125.328c.029-.7-.8-3.072-.064-3.976s.262-.69,2.6-.59,2.666-2.224,4.706-.735,2.992,1.063,2.913,2.929-1.872,5.529-.531,6.989,2.64,3.852,2.3.8-2.451-8.284-.342-8.429,4.393,1.122,3.643,2.259-2.229,2.943-.809,2.537,1.032-2.294,2.159-1.31,2.031,1.722.58,2.829-3.345,1.727-.515,1.146.109-2.566,2.829-.58,1.95,3.589,2.347,5.241,1.331,1.694-1.519,2.741-3.356,1.96-3.529.55,1.753-2.73.089-2.1-3.742.074-2.849,1.047,3.217,1.305,2.7,2.452-2.665,2.223-1.752,2.73a1.432,1.432,0,0,1,.134,2.343c-.72.437-2.109.144.4,1.652s1.738,3.113,1.475,3.8,2.536.809.53,3.995-2.978,4.08-3,4.547,1.916-1.087,1.361.993-2.88,1.747-.586,2.78,3.246.605,4.888.442,5.029-2.824,6.418-2.531,3.584,3.658,1.892,4.988-2.3-.8-3.753.308-1.449,1.107.407,1.42,2.322.333,2.274,1.5.823,2.606-1.074,3.226-3.275.094-3.459-1.082.07-1.634-1.553-1.936-3.907-1.569-2.1-.089,4.993,3.484,4.924,5.117.57,3.062-1.569,3.906-2.616,1.058-3.266-.139-.913-.506-2.75-1.286-1.211-4.492-2.2-3.132-1.52,2.74,1.24,3.792,4.606,1.6,4.09,2.746-.76,1.37-3.4,2.893-3.832,2.174-5.231,2.114.109-2.566-.327-3.286-1.6-.769-.834-2.372,2.705-3.157.819-2.77-2.025,3.653-1.609,4.84.824,2.606.094,3.276-.447-.486-3.743.074-5.648.928-5.589-.473,2.383-1.066,3.853-2.639,5.217-7.257,3.1-6.88-2.076,4.819-3.505,5.46-4.5,1.444-4.2-.179-1.738-3.112-.258-4.919-.571-3.063-.034-4.676,3.112-1.737,1.761-2.963-2.5-1.743-2.457-2.676-1.473-3.8,2.016-3.419,7.58,8.307,9.446,3.207c1.852-5.064-9.113-5.53-9.45-8.583s-.715-5.172.278-6.532,4.14,1.579,3.812-1.707-.754-4.24-.461-5.629,2.259-3.644,2.3-4.576-4.027,1.23-4.289,1.919-1.743,2.5-1.886.388-1.32-1.926.208-4.9.636-3.947-.054-4.209-.9-.74-.388-1.887.507-.913.538-1.613a2.846,2.846,0,0,0-.184-1.176" fill="#fff"/>
        <path id="Trazado_2935" data-name="Trazado 2935" d="M518.829,140.187c0-.934.934-3.035,2.1-3.035s2.8.7,5.136,1.635,0,1.868.467,3.268.467,2.569-.233,3.036-1.635-.467-1.635,1.167.934.935,0,2.569a12.978,12.978,0,0,0-1.479,4.2c-.155.934-1.79,0-2.724.934s-.467,2.1-1.867,1.4-3.5.233-4.437-2.8-.7-4.67,1.634-4.67,4.2,2.568,3.736.934-3.269-1.634-2.8-3.5.467-2.8,2.335-1.868,1.4,1.167.234-.935-.467-2.335-.467-2.335" fill="#fff"/>
        <path id="Trazado_2936" data-name="Trazado 2936" d="M569.742,141.55c.1-.93-.613-3.116-1.774-3.237s-2.861.406-5.28,1.091-.194,1.86-.8,3.2-.732,2.5-.083,3.043,1.673-.295,1.5,1.33-1.025.832-.266,2.554a12.988,12.988,0,0,1,1.035,4.334c.058.946,1.78.187,2.612,1.213s.246,2.138,1.712,1.586,3.46.6,4.7-2.325,1.182-4.573-1.14-4.815-4.448,2.118-3.814.541,3.421-1.287,3.151-3.192-.173-2.836-2.128-2.1-1.515,1.015-.136-.953.707-2.274.707-2.274" fill="#fff"/>
        <path id="Trazado_2937" data-name="Trazado 2937" d="M517.062,327.71H504.74a51.527,51.527,0,0,1-51.528-51.527h0a51.528,51.528,0,0,1,51.528-51.528h12.322a51.528,51.528,0,0,1,51.527,51.528h0a51.527,51.527,0,0,1-51.527,51.527" fill="#ff735d"/>
        <path id="Trazado_2938" data-name="Trazado 2938" d="M509.182,263.038a168.44,168.44,0,0,0-1.16-21.127c-.413-3.644-3.4-9.534-.81-8.421,4.6,1.97,6.642-1.188,7.551.328.985,1.642-1.97,3.94-1.642,9.521.174,2.95-.869,18.5,1.642,21.011,2.627,2.627,1.314,3.941,1.314,3.941l-.875,5.143s-.11-3.5-3.393-2.517c-2.4.719-3.283,3.611-3.283,3.611l-1.314-5.909s1.642.328,1.97-5.581" fill="#b2c0ce"/>
        <path id="Trazado_2939" data-name="Trazado 2939" d="M503.929,248.591c1.97.657,1.642,5.253,1.642,6.566s-.329,7.551.328,9.193c.676,1.688,2.95,3.572,3.283,6.238.328,2.626.328,9.521.657,13.133s.985,10.177.656,13.788-4.924,5.91-7.55,6.566-5.911,5.253-9.85,6.567-7.88,2.955-10.178,2.955-4.925-.328-5.581-5.582-1.969-16.415-.328-23.638,3.94-9.192,4.6-12.475c2.3-10.835,15.759-20.356,16.744-21.012s3.611-2.955,5.581-2.3" fill="#fff"/>
        <path id="Trazado_2940" data-name="Trazado 2940" d="M493.1,310.642c2.951-.983,5.533-3.81,7.748-5.441-4.02.033-13.4.3-16.814,2.438-2.791,1.751-4.766,3.5-4.6,5.074a5.513,5.513,0,0,0,3.487.884c2.3,0,6.239-1.642,10.178-2.955" fill="#b2c0ce"/>
        <path id="Trazado_2941" data-name="Trazado 2941" d="M504.257,248.92a26.38,26.38,0,0,0-.984,4.925c-.328,2.955-.658,5.253.984,8.536a18.946,18.946,0,0,0,3.58,5.071l.031-14.92Z" fill="#b2c0ce"/>
      </g>
    </g>
    <g id="Grupo_469" data-name="Grupo 469">
      <g id="Grupo_468" data-name="Grupo 468" clip-path="url(#clip-path-10)">
        <path id="Trazado_2942" data-name="Trazado 2942" d="M503.929,248.591c1.97.657,1.642,5.253,1.642,6.566s-.329,7.551.328,9.193,2.955,3.611,3.283,6.238.328,9.521.657,13.133.985,10.177.656,13.788-4.924,5.91-7.55,6.566-5.911,5.253-9.85,6.567-7.88,2.955-10.178,2.955-4.925-.328-5.581-5.582-1.969-16.415-.328-23.638,3.94-9.192,4.6-12.475c2.3-10.835,15.759-20.356,16.744-21.012s3.611-2.955,5.581-2.3" fill="#b2c0ce"/>
      </g>
    </g>
    <g id="Grupo_471" data-name="Grupo 471">
      <g id="Grupo_470" data-name="Grupo 470" clip-path="url(#clip-path)">
        <path id="Trazado_2944" data-name="Trazado 2944" d="M485.872,275.841s5.253-2.3,8.864-2.3a95.621,95.621,0,0,1,12.8,1.313,2.166,2.166,0,0,1,1.6,1.42l.044,1.207s.328-1.642-4.6-1.97-4.6-.985-11.162-.657c-6.046.3-8.208,1.641-8.208,1.641Z" fill="#b2c0ce"/>
        <path id="Trazado_2945" data-name="Trazado 2945" d="M481.275,281.094a21.684,21.684,0,0,0,4.6,13.461c4.924,5.909,6.565,8.864,8.536,9.849s6.949.411,6.949.411a6,6,0,0,1-4.323,1.559c-3.94-.329-4.162-.709-10.506-8.865a42.072,42.072,0,0,1-5.253-9.849c-.328-1.313-.328-1.641-.656-3.283a6.1,6.1,0,0,1,.656-3.283" fill="#b2c0ce"/>
        <path id="Trazado_2946" data-name="Trazado 2946" d="M515.092,265.664s.656-6.895.656-8.536.328-7.223,4.268-7.551,9.193,1.97,12.476,5.581,9.521,11.819,10.834,16.744c1.111,4.165,1.426,11.392,2.3,14.446.656,2.3.656,21.011,0,22.653s-3.611,4.6-9.192,2.955-13.789-3.283-17.072-6.895-3.284-18.385-3.284-21.668-1.313-5.91-1.641-10.834.657-6.895.657-6.895" fill="#f7e3d2"/>
        <path id="Trazado_2947" data-name="Trazado 2947" d="M515.092,265.664s.656-6.895.656-8.536.328-7.223,4.268-7.551,9.193,1.97,12.476,5.581,9.521,11.819,10.834,16.744c1.111,4.165,1.426,11.392,2.3,14.446.656,2.3.656,21.011,0,22.653s-3.611,4.6-9.192,2.955-13.789-3.283-17.072-6.895-3.284-18.385-3.284-21.668-1.313-5.91-1.641-10.834.657-6.895.657-6.895" fill="#b2c0ce"/>
      </g>
    </g>
    <g id="Grupo_473" data-name="Grupo 473">
      <g id="Grupo_472" data-name="Grupo 472" clip-path="url(#clip-path-12)">
        <path id="Trazado_2948" data-name="Trazado 2948" d="M513.778,272.558s.984-8.864,3.283-12.147,5.581-4.6,6.238-6.9-1.97-3.611-4.925,0-3.94,9.192-3.94,9.192l-.656,4.925Z" fill="#b2c0ce"/>
        <path id="Trazado_2949" data-name="Trazado 2949" d="M544.64,276.5s1.312,12.805-2.955,20.355c-3.232,5.716-6.238,6.567-7.552,6.895s-4.6-.985-4.6-.985a7.025,7.025,0,0,0,4.268,1.97c2.3,0,6.238-2.955,7.88-5.582a44.752,44.752,0,0,0,4.267-11.818c.329-2.463-1.312-10.835-1.312-10.835" fill="#b2c0ce"/>
        <path id="Trazado_2950" data-name="Trazado 2950" d="M513.778,277.483l.759-4.2s2.524,8.143,5.478,12.74,6.239,12.8,8.208,15.1,1.97,1.64,2.3,2.3a5.015,5.015,0,0,0,3.611,2.3c1.642,0,9.85,1.314,9.85,2.955s-5.253,3.94-10.506,2.626c-2.3-.576-15.1-4.923-15.1-4.923l-3.612-12.148Z" fill="#b2c0ce"/>
      </g>
    </g>
  </g>
</svg>
