<svg id="Grupo_524" data-name="Grupo 524" xmlns="http://www.w3.org/2000/svg" xmlns:xlink="http://www.w3.org/1999/xlink" width="946.255" height="361.284" viewBox="0 0 946.255 361.284">
  <defs>
    <clipPath id="clip-path">
      <rect id="Rectángulo_377" data-name="Rectángulo 377" width="946.255" height="361.284" fill="none"/>
    </clipPath>
    <clipPath id="clip-path-3">
      <rect id="Rectángulo_356" data-name="Rectángulo 356" width="139.812" height="234.347" transform="translate(391.581 63.682)" fill="none"/>
    </clipPath>
    <clipPath id="clip-path-4">
      <rect id="Rectángulo_357" data-name="Rectángulo 357" width="72.015" height="234.347" transform="translate(440.529 63.682)" fill="none"/>
    </clipPath>
    <clipPath id="clip-path-5">
      <rect id="Rectángulo_358" data-name="Rectángulo 358" width="58.31" height="234.347" transform="translate(419.552 63.682)" fill="none"/>
    </clipPath>
    <clipPath id="clip-path-6">
      <rect id="Rectángulo_361" data-name="Rectángulo 361" width="97.249" height="44.622" transform="translate(477.146 126.252)" fill="none"/>
    </clipPath>
    <clipPath id="clip-path-7">
      <rect id="Rectángulo_365" data-name="Rectángulo 365" width="61.507" height="80.314" transform="translate(433.385 65.311)" fill="none"/>
    </clipPath>
    <clipPath id="clip-path-8">
      <rect id="Rectángulo_366" data-name="Rectángulo 366" width="30.597" height="40.353" transform="translate(448.84 72.329)" fill="none"/>
    </clipPath>
    <clipPath id="clip-path-9">
      <rect id="Rectángulo_367" data-name="Rectángulo 367" width="6.893" height="11.899" transform="translate(460.692 107.871)" fill="none"/>
    </clipPath>
    <clipPath id="clip-path-10">
      <rect id="Rectángulo_368" data-name="Rectángulo 368" width="10.055" height="10.894" transform="translate(364.608 327.984)" fill="none"/>
    </clipPath>
    <clipPath id="clip-path-11">
      <rect id="Rectángulo_369" data-name="Rectángulo 369" width="7.145" height="9.608" transform="translate(382.592 64.141)" fill="none"/>
    </clipPath>
    <clipPath id="clip-path-12">
      <rect id="Rectángulo_370" data-name="Rectángulo 370" width="13.208" height="12.857" transform="translate(311.621 326.591)" fill="none"/>
    </clipPath>
    <clipPath id="clip-path-13">
      <rect id="Rectángulo_371" data-name="Rectángulo 371" width="5.579" height="2.231" transform="translate(393.035 51.598)" fill="none"/>
    </clipPath>
    <clipPath id="clip-path-14">
      <rect id="Rectángulo_372" data-name="Rectángulo 372" width="5.554" height="2.409" transform="translate(383.975 52.617)" fill="none"/>
    </clipPath>
    <clipPath id="clip-path-15">
      <rect id="Rectángulo_373" data-name="Rectángulo 373" width="58.1" height="44.902" transform="translate(398.587 89.317)" fill="none"/>
    </clipPath>
    <clipPath id="clip-path-16">
      <rect id="Rectángulo_374" data-name="Rectángulo 374" width="66.083" height="139.609" transform="translate(346.564 79.249)" fill="none"/>
    </clipPath>
    <clipPath id="clip-path-17">
      <rect id="Rectángulo_375" data-name="Rectángulo 375" width="40.682" height="60.445" transform="translate(343.83 83.487)" fill="none"/>
    </clipPath>
  </defs>
  <g id="Grupo_523" data-name="Grupo 523" clip-path="url(#clip-path)">
    <g id="Grupo_522" data-name="Grupo 522">
      <g id="Grupo_521" data-name="Grupo 521" clip-path="url(#clip-path)">
        <path id="Trazado_2952" data-name="Trazado 2952" d="M946.256,358.022c0,.124-211.844.224-473.1.224C211.8,358.246,0,358.146,0,358.022s211.8-.224,473.151-.224c261.261,0,473.1.1,473.1.224" fill="#1a2e35"/>
        <rect id="Rectángulo_332" data-name="Rectángulo 332" width="31.817" height="0.24" transform="translate(618.06 330.016)" fill="#ececec"/>
        <rect id="Rectángulo_333" data-name="Rectángulo 333" width="8.351" height="0.24" transform="translate(527.518 332.622)" fill="#ececec"/>
        <rect id="Rectángulo_334" data-name="Rectángulo 334" width="45.79" height="0.239" transform="translate(571.308 321.096)" fill="#ececec"/>
        <rect id="Rectángulo_335" data-name="Rectángulo 335" width="22.746" height="0.24" transform="translate(268.084 322.709)" fill="#ececec"/>
        <rect id="Rectángulo_336" data-name="Rectángulo 336" width="24.83" height="0.24" transform="translate(299.383 322.709)" fill="#ececec"/>
        <rect id="Rectángulo_337" data-name="Rectángulo 337" width="62.095" height="0.24" transform="translate(343.985 326.766)" fill="#ececec"/>
        <path id="Trazado_2953" data-name="Trazado 2953" d="M445.372,271.712h-185.5a5.49,5.49,0,0,1-5.483-5.484V5.484A5.49,5.49,0,0,1,259.876,0h185.5a5.49,5.49,0,0,1,5.483,5.483V266.228a5.491,5.491,0,0,1-5.483,5.484M259.876.241a5.248,5.248,0,0,0-5.243,5.243V266.228a5.248,5.248,0,0,0,5.243,5.243h185.5a5.248,5.248,0,0,0,5.242-5.243V5.484A5.249,5.249,0,0,0,445.372.241Z" fill="#ececec"/>
        <path id="Trazado_2954" data-name="Trazado 2954" d="M653.152,271.712h-185.5a5.489,5.489,0,0,1-5.481-5.484V5.484A5.489,5.489,0,0,1,467.656,0h185.5a5.489,5.489,0,0,1,5.483,5.483V266.228a5.49,5.49,0,0,1-5.483,5.484M467.656.241a5.249,5.249,0,0,0-5.242,5.243V266.228a5.248,5.248,0,0,0,5.242,5.243h185.5a5.248,5.248,0,0,0,5.243-5.243V5.484A5.248,5.248,0,0,0,653.152.241Z" fill="#ececec"/>
        <rect id="Rectángulo_338" data-name="Rectángulo 338" width="151.752" height="289.531" transform="translate(489.975 25.023)" fill="#ececec"/>
        <rect id="Rectángulo_339" data-name="Rectángulo 339" width="129.178" height="280.09" transform="translate(501.262 34.464)" fill="#f5f5f5"/>
        <rect id="Rectángulo_340" data-name="Rectángulo 340" width="36.316" height="10.043" transform="translate(547.692 57.696)" fill="#fff"/>
        <path id="Trazado_2955" data-name="Trazado 2955" d="M600.376,157.412h19.7a3.076,3.076,0,1,1,0,6.153h-19.7a3.076,3.076,0,0,1,0-6.153" fill="#fff"/>
        <rect id="Rectángulo_341" data-name="Rectángulo 341" width="100.919" height="81.335" transform="translate(285.3 55.833)" fill="#ececec"/>
        <rect id="Rectángulo_342" data-name="Rectángulo 342" width="90.09" height="70.503" transform="translate(290.711 61.248)" fill="#fafafa"/>
        <rect id="Rectángulo_343" data-name="Rectángulo 343" width="69.077" height="3.368" transform="translate(301.217 94.055)" fill="#e1e1e1"/>
        <rect id="Rectángulo_344" data-name="Rectángulo 344" width="69.077" height="3.368" transform="translate(301.217 101.727)" fill="#e1e1e1"/>
        <rect id="Rectángulo_345" data-name="Rectángulo 345" width="69.077" height="3.368" transform="translate(301.217 109.4)" fill="#e1e1e1"/>
        <rect id="Rectángulo_346" data-name="Rectángulo 346" width="34.438" height="3.368" transform="translate(318.536 117.072)" fill="#e1e1e1"/>
        <path id="Trazado_2956" data-name="Trazado 2956" d="M301.214,61.246a10.5,10.5,0,0,1-15.914,9V55.833h14.42a10.45,10.45,0,0,1,1.494,5.413" fill="#ececec"/>
        <path id="Trazado_2957" data-name="Trazado 2957" d="M386.219,55.833V70.242A10.5,10.5,0,0,1,371.8,55.833Z" fill="#ececec"/>
        <path id="Trazado_2958" data-name="Trazado 2958" d="M301.214,131.755a10.45,10.45,0,0,1-1.494,5.413H285.3v-14.42a10.5,10.5,0,0,1,15.914,9.007" fill="#ececec"/>
        <path id="Trazado_2959" data-name="Trazado 2959" d="M386.219,122.748v14.42H371.8a10.507,10.507,0,0,1,14.42-14.42" fill="#ececec"/>
        <path id="Trazado_2960" data-name="Trazado 2960" d="M344.706,78.417a8.947,8.947,0,1,1-8.947-8.946,8.947,8.947,0,0,1,8.947,8.946" fill="#e1e1e1"/>
        <rect id="Rectángulo_347" data-name="Rectángulo 347" width="199.695" height="7.184" transform="translate(268.084 199.044)" fill="#ececec"/>
        <rect id="Rectángulo_348" data-name="Rectángulo 348" width="64.878" height="108.326" transform="translate(401.17 206.228)" fill="#f5f5f5"/>
        <rect id="Rectángulo_349" data-name="Rectángulo 349" width="64.879" height="108.326" transform="translate(270.551 206.228)" fill="#f5f5f5"/>
        <rect id="Rectángulo_350" data-name="Rectángulo 350" width="2.215" height="108.326" transform="translate(270.551 206.228)" fill="#ececec"/>
        <rect id="Rectángulo_351" data-name="Rectángulo 351" width="2.215" height="108.326" transform="translate(401.17 206.228)" fill="#ececec"/>
        <path id="Trazado_2961" data-name="Trazado 2961" d="M304.627,181.724H292.7l.957,17.32H303.67Z" fill="#f0f0f0"/>
        <rect id="Rectángulo_352" data-name="Rectángulo 352" width="62.335" height="7.514" transform="translate(345.88 191.531)" fill="#f0f0f0"/>
        <rect id="Rectángulo_353" data-name="Rectángulo 353" width="28.739" height="5.752" transform="translate(379.476 192.411)" fill="#fafafa"/>
        <path id="Trazado_2962" data-name="Trazado 2962" d="M644.1,347.061c0,6.008-83.39,10.878-186.256,10.878s-186.255-4.87-186.255-10.878,83.39-10.877,186.255-10.877S644.1,341.054,644.1,347.061" fill="#f5f5f5"/>
        <path id="Trazado_2963" data-name="Trazado 2963" d="M575.411,249.37a30.43,30.43,0,1,1-30.43-30.431,30.43,30.43,0,0,1,30.43,30.431" fill="#fff"/>
        <path id="Trazado_2964" data-name="Trazado 2964" d="M544.981,280.175a30.8,30.8,0,1,1,30.8-30.8,30.84,30.84,0,0,1-30.8,30.8m0-60.86a30.055,30.055,0,1,0,30.056,30.056,30.09,30.09,0,0,0-30.056-30.056" fill="#ff735d"/>
        <rect id="Rectángulo_354" data-name="Rectángulo 354" width="9.796" height="34.505" transform="translate(540.083 232.117)" fill="#ff735d"/>
        <rect id="Rectángulo_355" data-name="Rectángulo 355" width="34.505" height="9.796" transform="translate(527.728 244.472)" fill="#ff735d"/>
        <path id="Trazado_2965" data-name="Trazado 2965" d="M338.838,19.327l-.659-.7a29.508,29.508,0,0,1,16.147-7.781l.136.951a28.543,28.543,0,0,0-15.624,7.53" fill="#ff735d"/>
        <path id="Trazado_2966" data-name="Trazado 2966" d="M331.73,29.827l-.9-.349a29.829,29.829,0,0,1,3.792-6.857l.772.573a28.789,28.789,0,0,0-3.669,6.633" fill="#ff735d"/>
        <path id="Trazado_2967" data-name="Trazado 2967" d="M384.885,40.267a26.357,26.357,0,1,1-26.356-26.356,26.355,26.355,0,0,1,26.356,26.356" fill="#ff735d"/>
        <path id="Trazado_2968" data-name="Trazado 2968" d="M374.24,28.394a11.008,11.008,0,0,0-15.712-.147,11.008,11.008,0,0,0-15.712.147,11.247,11.247,0,0,0,.4,15.678l12.459,12.46a4.034,4.034,0,0,0,5.7,0l12.459-12.46a11.248,11.248,0,0,0,.4-15.678" fill="#fff"/>
        <path id="Trazado_2969" data-name="Trazado 2969" d="M358.528,51.787h-.034a.958.958,0,0,1-.875-.649l-5.564-16.262-2.327,6.8a.96.96,0,0,1-.908.649h-9.311a.961.961,0,0,1,0-1.921h8.623l3.014-8.809a.961.961,0,0,1,1.819,0l5.66,16.544L364.116,35.2a.963.963,0,0,1,1.724-.094l2.959,5.3h8.748a.961.961,0,0,1,0,1.921h-9.31a.961.961,0,0,1-.839-.491l-2.279-4.077L359.412,51.2a.959.959,0,0,1-.884.585" fill="#ff735d"/>
        <path id="Trazado_2970" data-name="Trazado 2970" d="M504.787,313.4H404.525a11.783,11.783,0,0,1-11.873-12.732L408.869,60.607a13.872,13.872,0,0,1,13.593-12.733H522.724A11.785,11.785,0,0,1,534.6,60.607L518.38,300.672A13.871,13.871,0,0,1,504.787,313.4" fill="#1a2e35"/>
        <path id="Trazado_2971" data-name="Trazado 2971" d="M526.967,145.639h-2.529a3.29,3.29,0,0,1-3.315-3.555l3.1-45.9a3.874,3.874,0,0,1,3.795-3.556h2.529a3.291,3.291,0,0,1,3.315,3.556l-3.1,45.9a3.873,3.873,0,0,1-3.8,3.555" fill="#1a2e35"/>
        <path id="Trazado_2972" data-name="Trazado 2972" d="M407.4,115.018h-2.524a2.691,2.691,0,0,1-2.711-2.907l1.12-16.577a3.168,3.168,0,0,1,3.1-2.909h2.525a2.691,2.691,0,0,1,2.711,2.909l-1.12,16.577a3.167,3.167,0,0,1-3.1,2.907" fill="#007cff"/>
        <path id="Trazado_2973" data-name="Trazado 2973" d="M405.4,144.623h-2.524a2.69,2.69,0,0,1-2.711-2.908l1.119-16.576a3.168,3.168,0,0,1,3.1-2.909h2.525a2.693,2.693,0,0,1,2.712,2.909l-1.12,16.576a3.169,3.169,0,0,1-3.1,2.908" fill="#007cff"/>
        <path id="Trazado_2974" data-name="Trazado 2974" d="M502.665,313.4H402.4a11.783,11.783,0,0,1-11.873-12.732L406.746,60.607a13.872,13.872,0,0,1,13.593-12.733H520.6a11.783,11.783,0,0,1,11.872,12.733L516.257,300.672A13.87,13.87,0,0,1,502.665,313.4" fill="#484847"/>
        <g id="Grupo_478" data-name="Grupo 478" opacity="0.3">
          <g id="Grupo_477" data-name="Grupo 477">
            <g id="Grupo_476" data-name="Grupo 476" clip-path="url(#clip-path-3)">
              <path id="Trazado_2975" data-name="Trazado 2975" d="M391.581,298.029l15.83-234.347H531.393L515.562,298.029Z" fill="#fff"/>
            </g>
          </g>
        </g>
        <g id="Grupo_481" data-name="Grupo 481" opacity="0.1">
          <g id="Grupo_480" data-name="Grupo 480">
            <g id="Grupo_479" data-name="Grupo 479" clip-path="url(#clip-path-4)">
              <path id="Trazado_2976" data-name="Trazado 2976" d="M440.528,298.029,484.771,63.682h27.773L468.3,298.029Z" fill="#fff"/>
            </g>
          </g>
        </g>
        <g id="Grupo_484" data-name="Grupo 484" opacity="0.1">
          <g id="Grupo_483" data-name="Grupo 483">
            <g id="Grupo_482" data-name="Grupo 482" clip-path="url(#clip-path-5)">
              <path id="Trazado_2977" data-name="Trazado 2977" d="M419.552,298.029,463.795,63.682h14.068L433.619,298.029Z" fill="#fff"/>
            </g>
          </g>
        </g>
        <path id="Trazado_2978" data-name="Trazado 2978" d="M457.983,53.761h24.178a1.453,1.453,0,0,1,1.464,1.569,1.711,1.711,0,0,1-1.677,1.571H457.771a1.453,1.453,0,0,1-1.464-1.571,1.71,1.71,0,0,1,1.676-1.569" fill="#fff"/>
        <path id="Trazado_2979" data-name="Trazado 2979" d="M593.563,78.511H527.318A14.586,14.586,0,0,0,513.026,91.9l-.6,8.925a12.389,12.389,0,0,0,12.484,13.388h66.245L604,122.145,606.046,91.9a12.389,12.389,0,0,0-12.483-13.388" fill="#e1e1e1"/>
        <rect id="Rectángulo_359" data-name="Rectángulo 359" width="61.396" height="2.231" transform="translate(528.804 91.294)" fill="#fff"/>
        <rect id="Rectángulo_360" data-name="Rectángulo 360" width="45.583" height="2.231" transform="translate(544.083 99.2)" fill="#fff"/>
        <path id="Trazado_2980" data-name="Trazado 2980" d="M493.852,126.251H561.6a12.67,12.67,0,0,1,12.766,13.691l-.616,9.127a14.916,14.916,0,0,1-14.617,13.692H491.385l-14.239,8.113,2.09-30.932a14.914,14.914,0,0,1,14.616-13.691" fill="#f3f7fa"/>
        <g id="Grupo_487" data-name="Grupo 487" opacity="0.15">
          <g id="Grupo_486" data-name="Grupo 486">
            <g id="Grupo_485" data-name="Grupo 485" clip-path="url(#clip-path-6)">
              <path id="Trazado_2981" data-name="Trazado 2981" d="M493.852,126.251H561.6a12.67,12.67,0,0,1,12.766,13.691l-.616,9.127a14.916,14.916,0,0,1-14.617,13.692H491.385l-14.239,8.113,2.09-30.932a14.914,14.914,0,0,1,14.616-13.691" fill="#f3f7fa"/>
            </g>
          </g>
        </g>
        <rect id="Rectángulo_362" data-name="Rectángulo 362" width="62.787" height="2.281" transform="translate(495.371 139.324)" fill="#e1e1e1"/>
        <rect id="Rectángulo_363" data-name="Rectángulo 363" width="24.81" height="2.281" transform="translate(494.825 147.409)" fill="#e1e1e1"/>
        <rect id="Rectángulo_364" data-name="Rectángulo 364" width="15.846" height="2.281" transform="translate(525.719 147.409)" fill="#e1e1e1"/>
        <path id="Trazado_2982" data-name="Trazado 2982" d="M489.19,74.538,464.138,65.31l-24.808,9.1c-3.167,1.534-5.945,2.453-5.945,5.479V94.961a58.047,58.047,0,0,0,8.172,29.986,51.331,51.331,0,0,0,22.824,20.677c10.141-3.379,17.71-12.385,22.338-20.089a58.047,58.047,0,0,0,8.172-29.986V82c0-4.315-2.229-6.423-5.7-7.461" fill="#ff4f5b"/>
        <g id="Grupo_490" data-name="Grupo 490" opacity="0.8">
          <g id="Grupo_489" data-name="Grupo 489">
            <g id="Grupo_488" data-name="Grupo 488" clip-path="url(#clip-path-7)">
              <path id="Trazado_2983" data-name="Trazado 2983" d="M489.19,74.538,464.138,65.31l-24.808,9.1c-3.167,1.534-5.945,2.453-5.945,5.479V94.961a58.047,58.047,0,0,0,8.172,29.986,51.331,51.331,0,0,0,22.824,20.677c10.141-3.379,17.71-12.385,22.338-20.089a58.047,58.047,0,0,0,8.172-29.986V82c0-4.315-2.229-6.423-5.7-7.461" fill="#fff"/>
            </g>
          </g>
        </g>
        <path id="Trazado_2984" data-name="Trazado 2984" d="M479.436,112.682h-4.6V87.626a10.7,10.7,0,0,0-21.39,0v25.056h-4.6V87.626a15.3,15.3,0,0,1,30.6,0Z" fill="#ff4f5b"/>
        <g id="Grupo_493" data-name="Grupo 493" opacity="0.4">
          <g id="Grupo_492" data-name="Grupo 492">
            <g id="Grupo_491" data-name="Grupo 491" clip-path="url(#clip-path-8)">
              <path id="Trazado_2985" data-name="Trazado 2985" d="M479.436,112.682h-4.6V87.626a10.7,10.7,0,0,0-21.39,0v25.056h-4.6V87.626a15.3,15.3,0,0,1,30.6,0Z"/>
            </g>
          </g>
        </g>
        <path id="Trazado_2986" data-name="Trazado 2986" d="M478.944,127.99H449.333a5.812,5.812,0,0,1-5.812-5.812V107.346a5.812,5.812,0,0,1,5.812-5.81h29.611a5.811,5.811,0,0,1,5.811,5.81v14.832a5.811,5.811,0,0,1-5.811,5.812" fill="#ff4f5b"/>
        <g id="Grupo_496" data-name="Grupo 496" opacity="0.5">
          <g id="Grupo_495" data-name="Grupo 495">
            <g id="Grupo_494" data-name="Grupo 494" clip-path="url(#clip-path-9)">
              <path id="Trazado_2987" data-name="Trazado 2987" d="M467.585,111.317a3.447,3.447,0,1,0-4.387,3.3v5.152h1.881v-5.152a3.438,3.438,0,0,0,2.506-3.3"/>
            </g>
          </g>
        </g>
        <path id="Trazado_2988" data-name="Trazado 2988" d="M445.721,125.482c-.1,0-.171-4.412-.171-9.853s.076-9.853.171-9.853.171,4.411.171,9.853-.076,9.853-.171,9.853" fill="#fafafa"/>
        <path id="Trazado_2989" data-name="Trazado 2989" d="M461.439,115.735c-.011.018-.161-.054-.4-.229a4.21,4.21,0,0,1-.889-.906,4.829,4.829,0,0,1,1.717-7.247,4.213,4.213,0,0,1,1.2-.411,1.038,1.038,0,0,1,.464-.023,10.634,10.634,0,0,0-1.548.646,4.777,4.777,0,0,0-1.634,6.9,10.811,10.811,0,0,0,1.094,1.272" fill="#fafafa"/>
        <path id="Trazado_2990" data-name="Trazado 2990" d="M495.109,139.782s.1-.139.3-.4c.05-.067.1-.14.167-.221s.108-.186.17-.291a4.59,4.59,0,0,0,.378-.757c.059-.149.13-.305.189-.474s.1-.355.151-.545a4,4,0,0,0,.126-.609,6.73,6.73,0,0,0,.092-.67,12.657,12.657,0,0,0-.147-3.231,29.111,29.111,0,0,0-2.967-8.356,65.24,65.24,0,0,0-6.373-9.909,101.4,101.4,0,0,0-9.5-10.673A116.138,116.138,0,0,0,465.217,93c-2.328-1.712-4.784-3.372-7.374-4.936a71.344,71.344,0,0,0-8.19-4.294,38.173,38.173,0,0,0-9.113-2.856,16.123,16.123,0,0,0-4.86-.12,9.112,9.112,0,0,0-2.347.679,5.854,5.854,0,0,0-3.182,3.562,9.065,9.065,0,0,0-.41,2.41,16.044,16.044,0,0,0,.67,4.817,38.149,38.149,0,0,0,3.875,8.731,71.1,71.1,0,0,0,5.2,7.651c1.849,2.4,3.777,4.647,5.743,6.766a116.459,116.459,0,0,0,12,11.183,101.483,101.483,0,0,0,11.686,8.225,65.271,65.271,0,0,0,10.569,5.2,29.015,29.015,0,0,0,8.639,2,12.637,12.637,0,0,0,3.226-.22c.233-.034.445-.117.655-.168a3.872,3.872,0,0,0,.589-.195l.526-.212c.161-.079.307-.166.449-.242a4.469,4.469,0,0,0,.709-.462c.1-.073.191-.134.27-.2s.14-.135.2-.191c.238-.229.364-.342.364-.342s-.116.122-.351.355l-.2.2c-.077.067-.171.131-.267.206a4.627,4.627,0,0,1-.707.472c-.142.078-.289.166-.451.248l-.526.216a3.88,3.88,0,0,1-.592.2,6.712,6.712,0,0,1-.658.173,12.64,12.64,0,0,1-3.241.241,28.985,28.985,0,0,1-8.673-1.971,65.007,65.007,0,0,1-10.6-5.187,101.165,101.165,0,0,1-11.715-8.218A116.032,116.032,0,0,1,445.1,115.529c-1.97-2.121-3.9-4.375-5.758-6.774a71.309,71.309,0,0,1-5.217-7.668,38.388,38.388,0,0,1-3.9-8.776,16.255,16.255,0,0,1-.677-4.874,9.323,9.323,0,0,1,.42-2.465,6.043,6.043,0,0,1,3.283-3.673,9.3,9.3,0,0,1,2.4-.7,16.273,16.273,0,0,1,4.919.121,38.5,38.5,0,0,1,9.159,2.873,71.3,71.3,0,0,1,8.209,4.31c2.594,1.568,5.054,3.233,7.385,4.949a116.077,116.077,0,0,1,12.48,10.677,101.085,101.085,0,0,1,9.5,10.7,65.157,65.157,0,0,1,6.361,9.943,28.983,28.983,0,0,1,2.944,8.393,12.632,12.632,0,0,1,.131,3.248,6.275,6.275,0,0,1-.1.674,3.852,3.852,0,0,1-.131.611c-.054.192-.106.374-.156.548s-.134.325-.194.475a4.528,4.528,0,0,1-.39.757c-.062.105-.115.205-.174.29l-.172.218c-.2.259-.313.389-.313.389" fill="#ff4f5b"/>
        <path id="Trazado_2991" data-name="Trazado 2991" d="M506.9,111.321s-.019-.169-.044-.5q-.011-.125-.021-.276c-.015-.1-.044-.21-.068-.331a4.6,4.6,0,0,0-.221-.816c-.056-.151-.107-.313-.174-.479s-.164-.33-.251-.508a3.868,3.868,0,0,0-.312-.538,6.062,6.062,0,0,0-.377-.562A12.654,12.654,0,0,0,503.17,105a29.017,29.017,0,0,0-7.776-4.261,65.23,65.23,0,0,0-11.351-3.153,101.42,101.42,0,0,0-14.2-1.64,116.285,116.285,0,0,0-16.4.357c-2.876.274-5.815.67-8.787,1.227a71.019,71.019,0,0,0-8.971,2.247,38.216,38.216,0,0,0-8.7,3.935,16.1,16.1,0,0,0-3.706,3.145,9.14,9.14,0,0,0-1.3,2.07,5.851,5.851,0,0,0,0,4.776,9.089,9.089,0,0,0,1.3,2.072,16.072,16.072,0,0,0,3.706,3.148,38.249,38.249,0,0,0,8.7,3.937,71.266,71.266,0,0,0,8.973,2.248c2.973.557,5.912.953,8.789,1.227a116.315,116.315,0,0,0,16.4.357,101.264,101.264,0,0,0,14.2-1.641A65.2,65.2,0,0,0,495.4,121.9a29.024,29.024,0,0,0,7.775-4.261,12.622,12.622,0,0,0,2.261-2.312,6.254,6.254,0,0,0,.376-.562,3.715,3.715,0,0,0,.312-.538l.251-.507c.067-.166.118-.329.174-.479a4.591,4.591,0,0,0,.221-.817c.024-.12.053-.229.068-.33s.014-.193.021-.276c.025-.328.044-.5.044-.5s0,.169-.024.5c-.005.083-.011.176-.017.277s-.041.212-.063.332a4.514,4.514,0,0,1-.213.825c-.055.151-.105.315-.171.483l-.249.513a3.84,3.84,0,0,1-.309.543,6.605,6.605,0,0,1-.375.568,12.648,12.648,0,0,1-2.26,2.336,28.953,28.953,0,0,1-7.783,4.3,65.039,65.039,0,0,1-11.364,3.187,101.065,101.065,0,0,1-14.214,1.665,115.823,115.823,0,0,1-16.423-.34c-2.882-.271-5.826-.666-8.806-1.222a71.461,71.461,0,0,1-9-2.249,38.522,38.522,0,0,1-8.749-3.955,16.3,16.3,0,0,1-3.75-3.187,9.28,9.28,0,0,1-1.327-2.119,6.051,6.051,0,0,1,0-4.926,9.314,9.314,0,0,1,1.328-2.117,16.319,16.319,0,0,1,3.751-3.184,38.481,38.481,0,0,1,8.747-3.953,71.46,71.46,0,0,1,8.995-2.249c2.98-.555,5.924-.95,8.8-1.221a115.948,115.948,0,0,1,16.421-.341,101.174,101.174,0,0,1,14.213,1.666,65.056,65.056,0,0,1,11.365,3.186,28.961,28.961,0,0,1,7.784,4.3,12.657,12.657,0,0,1,2.261,2.336c.15.183.253.388.375.568a3.849,3.849,0,0,1,.309.544l.249.513c.066.167.116.331.171.483a4.515,4.515,0,0,1,.213.825c.022.12.049.229.063.332s.012.194.017.277c.019.33.024.5.024.5" fill="#ff4f5b"/>
        <path id="Trazado_2992" data-name="Trazado 2992" d="M491.277,75.893s-.145-.089-.42-.27l-.231-.152c-.089-.051-.193-.1-.3-.148a4.518,4.518,0,0,0-.781-.326c-.154-.048-.314-.108-.486-.156l-.555-.113a3.932,3.932,0,0,0-.616-.083,6.041,6.041,0,0,0-.674-.047,12.7,12.7,0,0,0-3.214.37,29.055,29.055,0,0,0-8.131,3.535,65.382,65.382,0,0,0-9.447,7.04,101.481,101.481,0,0,0-9.994,10.214,116.262,116.262,0,0,0-9.762,13.178c-1.547,2.441-3.033,5.006-4.415,7.7a71.06,71.06,0,0,0-3.721,8.468,38.3,38.3,0,0,0-2.222,9.288,16.138,16.138,0,0,0,.216,4.857,9.059,9.059,0,0,0,.84,2.295,5.842,5.842,0,0,0,3.771,2.928,9.023,9.023,0,0,0,2.433.243,16,16,0,0,0,4.759-1,38.142,38.142,0,0,0,8.444-4.466,71.323,71.323,0,0,0,7.275-5.714c2.261-2.009,4.375-4.089,6.354-6.2a116.1,116.1,0,0,0,10.329-12.741,101.522,101.522,0,0,0,7.4-12.223,65.259,65.259,0,0,0,4.461-10.9,29.037,29.037,0,0,0,1.4-8.756,12.678,12.678,0,0,0-.442-3.2c-.05-.23-.148-.435-.213-.641a3.958,3.958,0,0,0-.236-.576l-.247-.509c-.09-.156-.186-.295-.272-.431a4.514,4.514,0,0,0-.51-.676c-.079-.093-.147-.181-.219-.255l-.2-.186c-.244-.222-.366-.34-.366-.34s.13.107.379.325l.21.184c.072.072.141.161.223.253a4.33,4.33,0,0,1,.52.674c.087.135.187.275.278.43l.253.511a3.873,3.873,0,0,1,.241.577,6.328,6.328,0,0,1,.218.645,12.655,12.655,0,0,1,.463,3.216,28.978,28.978,0,0,1-1.369,8.789,65.117,65.117,0,0,1-4.443,10.933,101.344,101.344,0,0,1-7.392,12.254,116.079,116.079,0,0,1-10.331,12.772c-1.98,2.111-4.1,4.2-6.362,6.21a71.234,71.234,0,0,1-7.29,5.733,38.417,38.417,0,0,1-8.487,4.492,16.263,16.263,0,0,1-4.815,1.011,9.293,9.293,0,0,1-2.488-.249,6.038,6.038,0,0,1-3.891-3.021,9.317,9.317,0,0,1-.859-2.346,16.253,16.253,0,0,1-.219-4.915,38.453,38.453,0,0,1,2.235-9.335,71.387,71.387,0,0,1,3.735-8.488c1.385-2.7,2.878-5.263,4.428-7.708a116.163,116.163,0,0,1,9.792-13.186,101.052,101.052,0,0,1,10.025-10.212,64.946,64.946,0,0,1,9.481-7.03,28.962,28.962,0,0,1,8.169-3.517,12.627,12.627,0,0,1,3.232-.354,6.6,6.6,0,0,1,.678.051,3.94,3.94,0,0,1,.619.089l.558.118c.173.05.334.112.487.161a4.558,4.558,0,0,1,.782.336c.109.056.212.1.3.154l.231.157c.272.186.409.286.409.286" fill="#ff4f5b"/>
        <path id="Trazado_2993" data-name="Trazado 2993" d="M420.912,128.969a1.588,1.588,0,1,1-2.246,0,1.587,1.587,0,0,1,2.246,0" fill="#ff4f5b"/>
        <path id="Trazado_2994" data-name="Trazado 2994" d="M510.514,79.758a1.588,1.588,0,1,1-1.588-1.588,1.589,1.589,0,0,1,1.588,1.588" fill="#ff4f5b"/>
        <path id="Trazado_2995" data-name="Trazado 2995" d="M430.941,134.191a.4.4,0,1,1-.4-.4.4.4,0,0,1,.4.4" fill="#ff4f5b"/>
        <path id="Trazado_2996" data-name="Trazado 2996" d="M439.555,89.69a.4.4,0,1,1-.4-.4.4.4,0,0,1,.4.4" fill="#ff4f5b"/>
        <path id="Trazado_2997" data-name="Trazado 2997" d="M502.536,111.321a.4.4,0,1,1-.4-.4.4.4,0,0,1,.4.4" fill="#ff4f5b"/>
        <path id="Trazado_2998" data-name="Trazado 2998" d="M508.145,92.5a.4.4,0,1,1-.4-.4.4.4,0,0,1,.4.4" fill="#ff4f5b"/>
        <path id="Trazado_2999" data-name="Trazado 2999" d="M363.131,347.534l8.479.814,3.055-19.554-8.477-.815Z" fill="#ffb570"/>
        <path id="Trazado_3000" data-name="Trazado 3000" d="M372.573,344.2l-8.869-2.762a.631.631,0,0,0-.791.366l-2.9,7.049a1.447,1.447,0,0,0,.911,1.875c3.209.94,6.257,1.189,10.128,2.849,4.526,1.941,6.424,4.494,11.288,4.494,3.492,0,4.274-3.2,2.8-3.642-6.7-2.036-5.843-3.708-10.727-8.958a4.414,4.414,0,0,0-1.844-1.271" fill="#1a2e35"/>
        <g id="Grupo_499" data-name="Grupo 499" opacity="0.2">
          <g id="Grupo_498" data-name="Grupo 498">
            <g id="Grupo_497" data-name="Grupo 497" clip-path="url(#clip-path-10)">
              <path id="Trazado_3001" data-name="Trazado 3001" d="M374.663,328.8l-1.574,10.08-8.482-.814,1.575-10.08Z"/>
            </g>
          </g>
        </g>
        <path id="Trazado_3002" data-name="Trazado 3002" d="M368.532,81.777A107.664,107.664,0,0,1,401.8,83.5a8.868,8.868,0,0,1,7.12,7.65c1.2,10.623,2.574,34.438-2.784,69.958,0,0-45.418-3.823-45.418-3.823-.094-6.448,4.493-35.812.7-66.295a8.15,8.15,0,0,1,7.112-9.214" fill="#fff"/>
        <path id="Trazado_3003" data-name="Trazado 3003" d="M394.982,90.882l-1.629,3.256a1.01,1.01,0,0,1-.851.557l-1.757.09a1.358,1.358,0,0,1-.877-.265l-3.03-2.255,3.743-2.722Z" fill="#1a2e35"/>
        <path id="Trazado_3004" data-name="Trazado 3004" d="M390.681,93.86a2.928,2.928,0,0,1,2.05-.166c1.432,5.042,3,19.519,3.159,25.92-4.34,12.643-5.759,13.927-5.759,13.927l-2.205-15.224s2.468-15.56,2.755-24.457" fill="#1a2e35"/>
        <path id="Trazado_3005" data-name="Trazado 3005" d="M378.147,59.873c1.037,6.263,1.917,17.713-2.569,21.758,3.289,3.454,7.6,7.459,15,7.911s6.255-4.671,4.379-7.408c-6.9-1.84-6.572-6.991-5.216-11.8Z" fill="#ffb570"/>
        <path id="Trazado_3006" data-name="Trazado 3006" d="M373.687,81.078a8.966,8.966,0,0,1,1.631-.53.641.641,0,0,1,.714.3c.718,1.214,2.89,6.62,14.549,8.7-1.915,1.131-4.467,4.652-5.569,6.335-3.5-1.814-12.593-7.242-11.722-14.264a.693.693,0,0,1,.4-.536" fill="#f5f5f5"/>
        <path id="Trazado_3007" data-name="Trazado 3007" d="M394.893,82.42a.677.677,0,0,1,.787-.807,9.4,9.4,0,0,1,1.192.323.842.842,0,0,1,.245.142c.892.826,5.762,7.853,1.2,13.542-1.014-1.543-4.274-5.054-7.741-6.077,3.279-1.484,4.9-4.235,4.312-7.123" fill="#f5f5f5"/>
        <g id="Grupo_502" data-name="Grupo 502" opacity="0.2">
          <g id="Grupo_501" data-name="Grupo 501">
            <g id="Grupo_500" data-name="Grupo 500" clip-path="url(#clip-path-11)">
              <path id="Trazado_3008" data-name="Trazado 3008" d="M382.874,64.141l6.863,6.187a19.871,19.871,0,0,0-.7,3.421c-2.644-.452-6.207-3.461-6.406-6.248a9.335,9.335,0,0,1,.243-3.36"/>
            </g>
          </g>
        </g>
        <path id="Trazado_3009" data-name="Trazado 3009" d="M392.04,40.943c5.914,2.313,6.3,7.176,5.72,12.5s-6.317,1.8-7.6-1.52-6.314-14.18,1.881-10.977" fill="#1a2e35"/>
        <path id="Trazado_3010" data-name="Trazado 3010" d="M373.165,51.537c1.643,8.367,2.184,13.338,6.976,17.19,7.208,5.8,16.983.786,17.844-7.845.776-7.77-2.04-20.147-10.653-22.585a11.25,11.25,0,0,0-14.167,13.24" fill="#ffb570"/>
        <path id="Trazado_3011" data-name="Trazado 3011" d="M373.51,58.469c7.044.373,5.55-3.629,4.27-5.924s1.334-6.084-.374-8.058c3.041,1.209,6.236.212,10.3-2.616,3.155-2.195,7.1,6.6,10.941,2.189,3.63-4.163.258-10.436-8.459-11.448s-10.308,5.166-16.037,4.617-3.736,4.162-2.615,5.123c-4.8.32-7.419,4.91,1.975,16.117" fill="#1a2e35"/>
        <path id="Trazado_3012" data-name="Trazado 3012" d="M372.6,42.939a7.031,7.031,0,0,1-3.656-6.138c-1.869,3.336-1.659,7.12,3.656,6.138" fill="#1a2e35"/>
        <path id="Trazado_3013" data-name="Trazado 3013" d="M390.895,60.476a5.793,5.793,0,0,1-4.4-1.038.2.2,0,1,1,.253-.309,5.546,5.546,0,0,0,4.889.76.207.207,0,0,1,.255.135.2.2,0,0,1-.129.251,6.642,6.642,0,0,1-.868.2" fill="#1a2e35"/>
        <path id="Trazado_3014" data-name="Trazado 3014" d="M371.457,61.013a8.281,8.281,0,0,0,5.375,3.1c2.8.358,3.727-2.246,2.551-4.678-1.059-2.189-3.791-5.012-6.411-4.251-2.581.751-3.125,3.738-1.515,5.832" fill="#ffb570"/>
        <path id="Trazado_3015" data-name="Trazado 3015" d="M374.235,242.942c-.334-25.083-3.537-84.815-3.537-84.815l35.407,2.983s-7.042,61.566-11.294,87.154c-4.418,26.606-17.974,88.914-17.974,88.914l-14.374-1.223s5.229-73.619,11.772-93.013" fill="#1a2e35"/>
        <path id="Trazado_3016" data-name="Trazado 3016" d="M377.708,337.574l-17.087-1.446.671-5.518,17.8,1.193Z" fill="#ff735d"/>
        <path id="Trazado_3017" data-name="Trazado 3017" d="M305.912,342.485l7.129,4.661,11.793-15.895-7.128-4.661Z" fill="#ffb570"/>
        <path id="Trazado_3018" data-name="Trazado 3018" d="M315.82,343.925l-6.57-6.567a.63.63,0,0,0-.87-.045l-5.842,4.9a1.446,1.446,0,0,0-.066,2.083c2.406,2.323,4.99,3.961,7.646,7.23,3.1,3.822,3.6,6.965,7.906,9.224,3.092,1.623,5.27-.843,4.174-1.924-4.988-4.915-3.452-6-5.337-12.916a4.382,4.382,0,0,0-1.041-1.981" fill="#1a2e35"/>
        <g id="Grupo_505" data-name="Grupo 505" opacity="0.2">
          <g id="Grupo_504" data-name="Grupo 504">
            <g id="Grupo_503" data-name="Grupo 503" clip-path="url(#clip-path-12)">
              <path id="Trazado_3019" data-name="Trazado 3019" d="M324.829,331.254l-6.077,8.193-7.132-4.662,6.078-8.194Z"/>
            </g>
          </g>
        </g>
        <path id="Trazado_3020" data-name="Trazado 3020" d="M323.448,340.441l-14.458-9.222,3.157-4.574,15.209,9.329Z" fill="#ff735d"/>
        <path id="Trazado_3021" data-name="Trazado 3021" d="M385.782,52.038c.092.686.526,1.2.971,1.152s.728-.646.636-1.332-.526-1.2-.97-1.152-.729.646-.637,1.332" fill="#1a2e35"/>
        <path id="Trazado_3022" data-name="Trazado 3022" d="M393.622,51.389c.092.686.526,1.2.97,1.152s.729-.646.637-1.332-.526-1.2-.97-1.152-.729.646-.637,1.332" fill="#1a2e35"/>
        <path id="Trazado_3023" data-name="Trazado 3023" d="M391.41,52.233a23.991,23.991,0,0,0,4.137,4.839c-1.018,1.071-3.129.775-3.129.775Z" fill="#ff8935"/>
        <g id="Grupo_508" data-name="Grupo 508" opacity="0.4">
          <g id="Grupo_507" data-name="Grupo 507">
            <g id="Grupo_506" data-name="Grupo 506" clip-path="url(#clip-path-13)">
              <path id="Trazado_3024" data-name="Trazado 3024" d="M398.6,51.6c.14,1.094-.982,2.009-2.493,2.2s-2.934-.65-3.074-1.744" fill="#007cff"/>
            </g>
          </g>
        </g>
        <g id="Grupo_511" data-name="Grupo 511" opacity="0.4">
          <g id="Grupo_510" data-name="Grupo 510">
            <g id="Grupo_509" data-name="Grupo 509" clip-path="url(#clip-path-14)">
              <path id="Trazado_3025" data-name="Trazado 3025" d="M389.5,52.616c.206,1.083-.859,2.065-2.355,2.35s-2.968-.474-3.174-1.556" fill="#007cff"/>
            </g>
          </g>
        </g>
        <path id="Trazado_3026" data-name="Trazado 3026" d="M386.554,55.23a4.309,4.309,0,0,0,.517-.032,3.578,3.578,0,0,0,1.988-.891,1.984,1.984,0,0,0,.691-1.7,4.927,4.927,0,0,1,1.542-.387,3.374,3.374,0,0,1,1.622.034c.134,1.166,1.593,1.979,3.226,1.778a3.578,3.578,0,0,0,1.988-.891,1.981,1.981,0,0,0,.692-1.7l-.459.058a1.534,1.534,0,0,1-.55,1.305,3.107,3.107,0,0,1-1.731.768c-1.376.181-2.606-.462-2.73-1.428-.068-.533-1.187-.5-2.11-.384s-2.017.372-1.949.906a1.53,1.53,0,0,1-.549,1.305,3.312,3.312,0,0,1-3.6.463,1.531,1.531,0,0,1-.862-1.123l-.031-.229L372.392,54.6l.058.459L383.867,53.6a2.042,2.042,0,0,0,1.055,1.243,3.423,3.423,0,0,0,1.632.391" fill="#1a2e35"/>
        <path id="Trazado_3027" data-name="Trazado 3027" d="M382.77,49.025a.416.416,0,0,1-.351-.612,3.872,3.872,0,0,1,3.024-2.027.416.416,0,0,1,.428.389.393.393,0,0,1-.374.421,3.092,3.092,0,0,0-2.376,1.631.39.39,0,0,1-.351.2" fill="#1a2e35"/>
        <path id="Trazado_3028" data-name="Trazado 3028" d="M396.155,47.939a.409.409,0,0,1-.354-.15,3.255,3.255,0,0,0-2.647-1.28.414.414,0,0,1-.445-.365.39.39,0,0,1,.348-.441,4.076,4.076,0,0,1,3.36,1.579.407.407,0,0,1-.049.57.388.388,0,0,1-.213.087" fill="#1a2e35"/>
        <path id="Trazado_3029" data-name="Trazado 3029" d="M344.741,238.9c7.35-37.768,8.995-67.31,15.976-81.612l34.3,3.823s-20.435,56.285-30.409,80.307c-10.366,24.976-37.251,94.558-37.251,94.558l-15.209-9.329s20.49-70.543,32.594-87.747" fill="#1a2e35"/>
        <path id="Trazado_3030" data-name="Trazado 3030" d="M453.468,95.909l3.684-2.345a3.1,3.1,0,0,1,3.9.452l2.515,2.653a2.881,2.881,0,0,1-.252,4.2l-1.8,1.534a14.617,14.617,0,0,1-5.347,2.9l-5.428,1.6-3.56-3.823c-1.055-4.029,6.286-7.167,6.286-7.167" fill="#ffb570"/>
        <path id="Trazado_3031" data-name="Trazado 3031" d="M398.587,94.117c1.345,3.285,2.663,6.339,4.1,9.465,1.431,3.1,2.889,6.2,4.488,9.264s3.314,6.112,5.253,9.162c.981,1.523,2.029,3.043,3.232,4.566a28.978,28.978,0,0,0,4.422,4.582,15.65,15.65,0,0,0,3.549,2.188c.4.159.775.314,1.219.446l.67.185a10.388,10.388,0,0,0,1.023.183,9.53,9.53,0,0,0,3.5-.258,14.067,14.067,0,0,0,4.019-1.828,24.915,24.915,0,0,0,2.64-1.95,63.676,63.676,0,0,0,7.635-7.953c2.24-2.685,4.351-5.386,6.375-8.138,2.043-2.761,3.983-5.465,5.978-8.36l-10.623-6.857a144.175,144.175,0,0,1-11.1,15.513,52.5,52.5,0,0,1-6.123,6.329,12.632,12.632,0,0,1-1.352.992c-.359.237-.713.336-.467.245a2.644,2.644,0,0,1,1.043-.054,2.911,2.911,0,0,1,.413.071.233.233,0,0,1,.073.016c.047.017.046,0,.058.013a5.568,5.568,0,0,1-.626-.468,17.25,17.25,0,0,1-2.365-2.634c-.824-1.094-1.634-2.317-2.414-3.6a88.057,88.057,0,0,1-4.344-8.207c-1.344-2.859-2.637-5.784-3.82-8.764-1.173-2.956-2.347-6.037-3.312-8.955Z" fill="#ff735d"/>
        <g id="Grupo_514" data-name="Grupo 514" opacity="0.6">
          <g id="Grupo_513" data-name="Grupo 513">
            <g id="Grupo_512" data-name="Grupo 512" clip-path="url(#clip-path-15)">
              <path id="Trazado_3032" data-name="Trazado 3032" d="M398.587,94.117c1.345,3.285,2.663,6.339,4.1,9.465,1.431,3.1,2.889,6.2,4.488,9.264s3.314,6.112,5.253,9.162c.981,1.523,2.029,3.043,3.232,4.566a28.978,28.978,0,0,0,4.422,4.582,15.65,15.65,0,0,0,3.549,2.188c.4.159.775.314,1.219.446l.67.185a10.388,10.388,0,0,0,1.023.183,9.53,9.53,0,0,0,3.5-.258,14.067,14.067,0,0,0,4.019-1.828,24.915,24.915,0,0,0,2.64-1.95,63.676,63.676,0,0,0,7.635-7.953c2.24-2.685,4.351-5.386,6.375-8.138,2.043-2.761,3.983-5.465,5.978-8.36l-10.623-6.857a144.175,144.175,0,0,1-11.1,15.513,52.5,52.5,0,0,1-6.123,6.329,12.632,12.632,0,0,1-1.352.992c-.359.237-.713.336-.467.245a2.644,2.644,0,0,1,1.043-.054,2.911,2.911,0,0,1,.413.071.233.233,0,0,1,.073.016c.047.017.046,0,.058.013a5.568,5.568,0,0,1-.626-.468,17.25,17.25,0,0,1-2.365-2.634c-.824-1.094-1.634-2.317-2.414-3.6a88.057,88.057,0,0,1-4.344-8.207c-1.344-2.859-2.637-5.784-3.82-8.764-1.173-2.956-2.347-6.037-3.312-8.955Z" fill="#ff735d"/>
            </g>
          </g>
        </g>
        <path id="Trazado_3033" data-name="Trazado 3033" d="M373.43,79.373c3.6,6.681,16.429,32.344,17.98,48.154,5.681-14.372,4.438-46.282,4.438-46.282A42.425,42.425,0,0,1,407.64,84.08a7.1,7.1,0,0,1,4.438,6.057,251.868,251.868,0,0,1-1.558,49.448c-3.983,31.026-7.715,79.272-7.715,79.272s-31.747-1.321-56.24-6.489c2.989-23.714,13.211-63.466,13.3-74.113.119-13.7-.2-40.483-.632-51.661a6.613,6.613,0,0,1,5.3-6.792,33.163,33.163,0,0,1,8.893-.429" fill="#ff735d"/>
        <g id="Grupo_517" data-name="Grupo 517" opacity="0.7">
          <g id="Grupo_516" data-name="Grupo 516">
            <g id="Grupo_515" data-name="Grupo 515" clip-path="url(#clip-path-16)">
              <path id="Trazado_3034" data-name="Trazado 3034" d="M373.43,79.373c3.6,6.681,16.429,32.344,17.98,48.154,5.681-14.372,4.438-46.282,4.438-46.282A42.425,42.425,0,0,1,407.64,84.08a7.1,7.1,0,0,1,4.438,6.057,251.868,251.868,0,0,1-1.558,49.448c-3.983,31.026-7.715,79.272-7.715,79.272s-31.747-1.321-56.24-6.489c2.989-23.714,13.211-63.466,13.3-74.113.119-13.7-.2-40.494-.633-51.669a6.511,6.511,0,0,1,5-6.72,32.883,32.883,0,0,1,9.194-.493" fill="#ff735d"/>
            </g>
          </g>
        </g>
        <path id="Trazado_3035" data-name="Trazado 3035" d="M380.915,213.712c5.513-30.419,9.888-75.059,10.245-80.432l-.5-.034c-.356,5.37-4.728,49.978-10.237,80.378Z" fill="#fff"/>
        <path id="Trazado_3036" data-name="Trazado 3036" d="M383.666,159.6h29.273a2.741,2.741,0,0,0,2.539-2.089l9.793-45.5a1.638,1.638,0,0,0-1.638-2.089H394.359A2.741,2.741,0,0,0,391.821,112l-9.794,45.5a1.639,1.639,0,0,0,1.639,2.089" fill="#fff"/>
        <path id="Trazado_3037" data-name="Trazado 3037" d="M384.575,160.012h29.764a2.788,2.788,0,0,0,2.581-2.124l9.958-46.268a1.667,1.667,0,0,0-1.667-2.124H395.447a2.788,2.788,0,0,0-2.581,2.124l-9.958,46.268a1.667,1.667,0,0,0,1.667,2.124"/>
        <path id="Trazado_3038" data-name="Trazado 3038" d="M381.161,133.867l7.409-.277a6.376,6.376,0,0,1,2.608.454L395,135.581a2.88,2.88,0,0,1,1.575,3.9l-1.539,3.316a3.1,3.1,0,0,1-3.553,1.671l-4.239-1.05s-7.958-.636-8.242-4.791Z" fill="#ffb570"/>
        <path id="Trazado_3039" data-name="Trazado 3039" d="M360.713,83.488c-1.839,2.839-3.512,5.517-5.172,8.338-1.654,2.8-3.276,5.623-4.8,8.545s-2.98,5.931-4.294,9.16a47.326,47.326,0,0,0-1.752,5.181,21.68,21.68,0,0,0-.846,6.6l.01.251.005.126c0,.029,0,.086.016.189.038.347.091.695.159,1.037.073.3.158.61.252.91s.2.531.307.8a10.674,10.674,0,0,0,1.4,2.326,16.711,16.711,0,0,0,2.666,2.654,34.6,34.6,0,0,0,4.788,3.178,89.731,89.731,0,0,0,9.151,4.358c3.021,1.29,6.043,2.461,9.077,3.568,3.045,1.131,6.023,2.169,9.18,3.227l3.658-12.1c-2.845-.79-5.819-1.755-8.687-2.734-2.876-1.009-5.723-2.076-8.491-3.218a74.605,74.605,0,0,1-7.823-3.781,22.833,22.833,0,0,1-3.048-2.028,3.461,3.461,0,0,1-.665-.658,1.034,1.034,0,0,1,.185.318,2.154,2.154,0,0,1,.094.248,1.875,1.875,0,0,1,.094.343,2.39,2.39,0,0,1,.074.454c0,.054,0,.062.005.042l0-.021.005-.043a11.137,11.137,0,0,1,.52-2.677,35.42,35.42,0,0,1,1.371-3.7,73.835,73.835,0,0,1,3.976-7.753c1.5-2.577,3.088-5.148,4.773-7.67,1.678-2.5,3.459-5.065,5.22-7.367Z" fill="#ff735d"/>
        <g id="Grupo_520" data-name="Grupo 520" opacity="0.7">
          <g id="Grupo_519" data-name="Grupo 519">
            <g id="Grupo_518" data-name="Grupo 518" clip-path="url(#clip-path-17)">
              <path id="Trazado_3040" data-name="Trazado 3040" d="M360.713,83.488c-1.839,2.839-3.512,5.517-5.172,8.338-1.654,2.8-3.276,5.623-4.8,8.545s-2.98,5.931-4.294,9.16a47.326,47.326,0,0,0-1.752,5.181,21.68,21.68,0,0,0-.846,6.6l.01.251.005.126c0,.029,0,.086.016.189.038.347.091.695.159,1.037.073.3.158.61.252.91s.2.531.307.8a10.674,10.674,0,0,0,1.4,2.326,16.711,16.711,0,0,0,2.666,2.654,34.6,34.6,0,0,0,4.788,3.178,89.731,89.731,0,0,0,9.151,4.358c3.021,1.29,6.043,2.461,9.077,3.568,3.045,1.131,6.023,2.169,9.18,3.227l3.658-12.1c-2.845-.79-5.819-1.755-8.687-2.734-2.876-1.009-5.723-2.076-8.491-3.218a74.605,74.605,0,0,1-7.823-3.781,22.833,22.833,0,0,1-3.048-2.028,3.461,3.461,0,0,1-.665-.658,1.034,1.034,0,0,1,.185.318,2.154,2.154,0,0,1,.094.248,1.875,1.875,0,0,1,.094.343,2.39,2.39,0,0,1,.074.454c0,.054,0,.062.005.042l0-.021.005-.043a11.137,11.137,0,0,1,.52-2.677,35.42,35.42,0,0,1,1.371-3.7,73.835,73.835,0,0,1,3.976-7.753c1.5-2.577,3.088-5.148,4.773-7.67,1.678-2.5,3.459-5.065,5.22-7.367Z" fill="#ff735d"/>
            </g>
          </g>
        </g>
        <path id="Trazado_3041" data-name="Trazado 3041" d="M370.434,116.82a.381.381,0,0,0,.2-.7l-1.5-.954a8.15,8.15,0,0,1-3.647-8.511L368.5,91.374a5.171,5.171,0,0,1,10.045-.421l4.28,14.975a8.153,8.153,0,0,1-2.926,8.785l-1.416,1.076a.381.381,0,1,0,.462.607l1.416-1.076a8.911,8.911,0,0,0,3.2-9.6l-4.278-14.975a5.933,5.933,0,0,0-11.526.482L364.742,106.5a8.91,8.91,0,0,0,3.986,9.3l1.5.954a.382.382,0,0,0,.2.06" fill="#1a2e35"/>
        <path id="Trazado_3042" data-name="Trazado 3042" d="M368.131,91.68h.016l10.786-.451a.382.382,0,0,0,.364-.4.4.4,0,0,0-.4-.364l-10.786.451a.381.381,0,0,0,.016.762" fill="#1a2e35"/>
        <path id="Trazado_3043" data-name="Trazado 3043" d="M373.373,87.205a.381.381,0,0,0,.381-.371c.045-1.878.6-5.253,2.4-5.991a.381.381,0,1,0-.288-.705c-2.663,1.091-2.858,6.109-2.872,6.677a.379.379,0,0,0,.371.39Z" fill="#1a2e35"/>
        <path id="Trazado_3044" data-name="Trazado 3044" d="M406.372,100.261a.324.324,0,0,0,.075-.008.381.381,0,0,0,.3-.448c-1.265-6.312-6.512-16.281-11.131-19.195a.381.381,0,0,0-.407.645c4.467,2.818,9.556,12.533,10.79,18.7a.382.382,0,0,0,.374.307" fill="#1a2e35"/>
        <path id="Trazado_3045" data-name="Trazado 3045" d="M403.217,101.254c.6,1.528,1.9,2.447,2.911,2.051s1.339-1.955.739-3.484-1.9-2.446-2.911-2.05-1.339,1.955-.739,3.483" fill="#fff"/>
        <path id="Trazado_3046" data-name="Trazado 3046" d="M377.861,116.128c.03.718.438,1.283.911,1.264s.833-.618.8-1.335-.439-1.284-.912-1.265-.833.618-.8,1.336" fill="#fff"/>
        <path id="Trazado_3047" data-name="Trazado 3047" d="M369.577,116.474c.029.718.437,1.284.911,1.264s.833-.618.8-1.335-.439-1.283-.911-1.264-.833.617-.8,1.335" fill="#fff"/>
      </g>
    </g>
  </g>
</svg>
