<svg id="Grupo_871" data-name="Grupo 871" xmlns="http://www.w3.org/2000/svg" xmlns:xlink="http://www.w3.org/1999/xlink" width="439.076" height="429.771" viewBox="0 0 439.076 429.771">
  <defs>
    <clipPath id="clip-path">
      <rect id="Rectángulo_582" data-name="Rectángulo 582" width="439.076" height="429.771" fill="none"/>
    </clipPath>
    <clipPath id="clip-path-3">
      <rect id="Rectángulo_552" data-name="Rectángulo 552" width="439.076" height="356.196" fill="none"/>
    </clipPath>
    <clipPath id="clip-path-5">
      <rect id="Rectángulo_554" data-name="Rectángulo 554" width="383.044" height="53.528" transform="translate(28.016 376.243)" fill="none"/>
    </clipPath>
    <clipPath id="clip-path-7">
      <rect id="Rectángulo_555" data-name="Rectángulo 555" width="340.616" height="187.131" transform="translate(49.798 97.884)" fill="none"/>
    </clipPath>
    <clipPath id="clip-path-8">
      <rect id="Rectángulo_575" data-name="Rectángulo 575" width="35.939" height="28.857" transform="translate(252.215 228.428)" fill="none"/>
    </clipPath>
    <clipPath id="clip-path-9">
      <rect id="Rectángulo_576" data-name="Rectángulo 576" width="66.253" height="110.454" transform="translate(282.87 239.227)" fill="none"/>
    </clipPath>
    <clipPath id="clip-path-10">
      <rect id="Rectángulo_577" data-name="Rectángulo 577" width="30.825" height="71.472" transform="translate(216.581 258.96)" fill="none"/>
    </clipPath>
    <clipPath id="clip-path-11">
      <rect id="Rectángulo_578" data-name="Rectángulo 578" width="48.353" height="20.014" transform="translate(249.878 169.856)" fill="none"/>
    </clipPath>
    <clipPath id="clip-path-12">
      <rect id="Rectángulo_579" data-name="Rectángulo 579" width="10.135" height="14.185" transform="translate(244.612 173.806)" fill="none"/>
    </clipPath>
  </defs>
  <g id="Grupo_870" data-name="Grupo 870" clip-path="url(#clip-path)">
    <g id="Grupo_869" data-name="Grupo 869">
      <g id="Grupo_868" data-name="Grupo 868" clip-path="url(#clip-path)">
        <g id="Grupo_843" data-name="Grupo 843" opacity="0.5">
          <g id="Grupo_842" data-name="Grupo 842">
            <g id="Grupo_841" data-name="Grupo 841" clip-path="url(#clip-path-3)">
              <path id="Trazado_4480" data-name="Trazado 4480" d="M426.088,166.714c-48.744-83.474-180.95-53.743-207.955-94.349-13.826-20.79-29.295-44.888-51.732-57.421C145.012,3,120.212-1.265,98.59.317,21.382,5.968-11.355,75.048,3.483,150.907c19.792,101.193,109.5,204.56,216.063,205.284,55.736.377,108.948-19.545,150.689-47.71q.47-.316.934-.634c41.7-28.384,92.135-77.4,54.919-141.133" fill="#f9d7dc"/>
              <g id="Grupo_840" data-name="Grupo 840" opacity="0.7">
                <g id="Grupo_839" data-name="Grupo 839">
                  <g id="Grupo_838" data-name="Grupo 838" clip-path="url(#clip-path-3)">
                    <path id="Trazado_4481" data-name="Trazado 4481" d="M426.088,166.714c-48.744-83.474-180.95-53.743-207.955-94.349-13.826-20.79-29.295-44.888-51.732-57.421C145.012,3,120.212-1.265,98.59.317,21.382,5.968-11.355,75.048,3.483,150.907c19.792,101.193,109.5,204.56,216.063,205.284,55.736.377,108.948-19.545,150.689-47.71q.47-.316.934-.634c41.7-28.384,92.135-77.4,54.919-141.133" fill="#f9d7dc"/>
                  </g>
                </g>
              </g>
            </g>
          </g>
        </g>
        <path id="Trazado_4482" data-name="Trazado 4482" d="M47.727,172.787H42.308A21.932,21.932,0,0,0,20.376,194.72V315.061a21.932,21.932,0,0,0,21.932,21.932h74.36A21.932,21.932,0,0,0,138.6,315.061" fill="none" stroke="#1a2e35" stroke-linecap="round" stroke-linejoin="round" stroke-width="1.103" stroke-dasharray="4.412 4.412"/>
        <path id="Trazado_4483" data-name="Trazado 4483" d="M132.5,59.237V35.466a13.432,13.432,0,0,1,13.432-13.432h96.7a13.432,13.432,0,0,1,13.431,13.432" fill="none" stroke="#1a2e35" stroke-linecap="round" stroke-linejoin="round" stroke-width="1.103" stroke-dasharray="4.412 4.412"/>
        <g id="Grupo_849" data-name="Grupo 849" opacity="0.7">
          <g id="Grupo_848" data-name="Grupo 848">
            <g id="Grupo_847" data-name="Grupo 847" clip-path="url(#clip-path-5)">
              <path id="Trazado_4484" data-name="Trazado 4484" d="M411.06,403.007c0,14.781-85.747,26.764-191.521,26.764S28.016,417.788,28.016,403.007s85.747-26.764,191.523-26.764S411.06,388.226,411.06,403.007" fill="#dedede"/>
              <g id="Grupo_846" data-name="Grupo 846" opacity="0.5">
                <g id="Grupo_845" data-name="Grupo 845">
                  <g id="Grupo_844" data-name="Grupo 844" clip-path="url(#clip-path-5)">
                    <path id="Trazado_4485" data-name="Trazado 4485" d="M411.06,403.007c0,14.781-85.747,26.764-191.521,26.764S28.016,417.788,28.016,403.007s85.747-26.764,191.523-26.764S411.06,388.226,411.06,403.007" fill="#dedede"/>
                  </g>
                </g>
              </g>
            </g>
          </g>
        </g>
        <path id="Trazado_4486" data-name="Trazado 4486" d="M400.077,91.133v180.06a22.2,22.2,0,0,1-22.194,22.2H61.192A22.2,22.2,0,0,1,39,271.193V91.133c0-.529.021-1.048.065-1.566a22.193,22.193,0,0,1,22.129-20.64H377.883a22.193,22.193,0,0,1,22.129,20.64c.044.518.065,1.037.065,1.566" fill="#fff"/>
        <path id="Trazado_4487" data-name="Trazado 4487" d="M400.077,91.133v180.06a22.2,22.2,0,0,1-22.194,22.2H61.192A22.2,22.2,0,0,1,39,271.193V91.133c0-.529.021-1.048.065-1.566a22.193,22.193,0,0,1,22.129-20.64H377.883a22.193,22.193,0,0,1,22.129,20.64C400.056,90.085,400.077,90.6,400.077,91.133Z" fill="none" stroke="#1a2e35" stroke-linecap="round" stroke-linejoin="round" stroke-width="1.103"/>
        <path id="Trazado_4488" data-name="Trazado 4488" d="M369.609,285.016H70.6a20.8,20.8,0,0,1-20.8-20.8V97.885H390.41V264.216a20.8,20.8,0,0,1-20.8,20.8" fill="#1a2e35"/>
        <g id="Grupo_852" data-name="Grupo 852" opacity="0.2">
          <g id="Grupo_851" data-name="Grupo 851">
            <g id="Grupo_850" data-name="Grupo 850" clip-path="url(#clip-path-7)">
              <path id="Trazado_4489" data-name="Trazado 4489" d="M390.414,97.884V264.221a20.687,20.687,0,0,1-20.568,20.794H70.366A20.687,20.687,0,0,1,49.8,264.221V97.884Z" fill="#fff"/>
            </g>
          </g>
        </g>
        <path id="Trazado_4490" data-name="Trazado 4490" d="M400.012,89.566H39.064A22.192,22.192,0,0,1,61.193,68.927h316.69a22.192,22.192,0,0,1,22.129,20.639" fill="#e85b7d"/>
        <path id="Trazado_4491" data-name="Trazado 4491" d="M400.012,89.566H39.064A22.192,22.192,0,0,1,61.193,68.927h316.69A22.192,22.192,0,0,1,400.012,89.566Z" fill="none" stroke="#1a2e35" stroke-linecap="round" stroke-linejoin="round" stroke-width="1"/>
        <path id="Trazado_4492" data-name="Trazado 4492" d="M83.419,79.247a3.931,3.931,0,1,1-3.932-3.932,3.931,3.931,0,0,1,3.932,3.932" fill="#1a2e35"/>
        <path id="Trazado_4493" data-name="Trazado 4493" d="M100.041,79.247a3.931,3.931,0,1,1-3.931-3.932,3.931,3.931,0,0,1,3.931,3.932" fill="#1a2e35"/>
        <path id="Trazado_4494" data-name="Trazado 4494" d="M116.663,79.247a3.931,3.931,0,1,1-3.931-3.932,3.931,3.931,0,0,1,3.931,3.932" fill="#1a2e35"/>
        <path id="Trazado_4495" data-name="Trazado 4495" d="M390.409,97.891V264.217a20.807,20.807,0,0,1-20.8,20.8H70.6a20.8,20.8,0,0,1-20.4-16.768l-.012-.01V268.2a20.721,20.721,0,0,1-.385-3.983V97.891Z" fill="none" stroke="#1a2e35" stroke-miterlimit="10" stroke-width="1.103"/>
        <path id="Trazado_4496" data-name="Trazado 4496" d="M390.087,123.616a21.17,21.17,0,0,0-4.623-1.908l-1.864-8.351h-7.942l-1.854,8.351a20.5,20.5,0,0,0-4.632,1.908L362,119.027l-5.616,5.615,4.512,7.17a20.421,20.421,0,0,0-1.908,4.633l-8.351,1.854v7.942l8.351,1.864a20.242,20.242,0,0,0,1.908,4.666l-4.589,7.215,5.615,5.614,7.214-4.589a20.545,20.545,0,0,0,4.633,1.92l1.854,8.339h7.942l1.864-8.339a21.181,21.181,0,0,0,4.622-1.92l.365.232V123.407Zm-10.436,28.957a10.259,10.259,0,1,1,10.259-10.259,10.254,10.254,0,0,1-10.259,10.259" fill="#1a2e35"/>
        <path id="Trazado_4497" data-name="Trazado 4497" d="M246.988,131.661V114.916l-17.606-3.9a45.452,45.452,0,0,0-4.026-9.774l2.129-3.353h-83.1l2.052,3.265a43.357,43.357,0,0,0-4.016,9.762l-17.6,3.916v16.745l17.6,3.928a43.95,43.95,0,0,0,4.016,9.84l-9.675,15.211,11.848,11.837,15.2-9.675a44.779,44.779,0,0,0,9.774,4.049l3.9,17.583h16.745l3.937-17.583a45.066,45.066,0,0,0,9.741-4.049l15.212,9.675,11.837-11.837-9.609-15.211a45.863,45.863,0,0,0,4.026-9.752Zm-61,13.259a21.632,21.632,0,1,1,21.632-21.632,21.633,21.633,0,0,1-21.632,21.632" fill="#1a2e35"/>
        <path id="Trazado_4498" data-name="Trazado 4498" d="M135.922,246.645l.706-13.282-13.766-3.883a37.23,37.23,0,0,0-2.824-7.9l8.317-11.682-8.913-9.895-12.465,7.049a36.905,36.905,0,0,0-7.589-3.629L97,189.3,83.724,188.6,79.885,202.41a34.731,34.731,0,0,0-7.9,2.8l-11.671-8.317-9.906,8.913,7.06,12.477a34.487,34.487,0,0,0-3.64,7.578l-4.027.662v17.991l2.923.828a34.747,34.747,0,0,0,2.824,7.92L49.8,261.3l.386,6.9v.044l.012.01,5.923,6.575,12.487-7.049a34.641,34.641,0,0,0,7.611,3.674L78.5,285.01v.012l.11.562,13.282.707.353-1.269v-.012l3.485-12.531a35.537,35.537,0,0,0,7.942-2.8l11.65,8.307,9.9-8.9-7.037-12.488a34.444,34.444,0,0,0,3.6-7.567ZM100.645,225.9a17.2,17.2,0,1,0-1.279,24.279,17.2,17.2,0,0,0,1.279-24.279" fill="#1a2e35"/>
        <path id="Trazado_4499" data-name="Trazado 4499" d="M242.139,226.8a27.044,27.044,0,0,0,.806-6.29l9.549-5.02-2.639-9.688-10.777.5a26.812,26.812,0,0,0-3.874-5l3.2-10.31L229.7,186l-7.282,7.946a28.112,28.112,0,0,0-6.269-.8l-5.041-9.557-9.673,2.633.511,10.791a27.365,27.365,0,0,0-5.015,3.869L186.612,197.7l-4.992,8.689,7.988,7.262a26.2,26.2,0,0,0-.789,6.273l-9.567,5.037,2.639,9.688,10.792-.511a25.712,25.712,0,0,0,3.858,5.011l-3.209,10.257,8.7,4.986,7.244-7.877a26.369,26.369,0,0,0,6.283.792l5.027,9.562,9.674-2.631-.425-9.218-.072-1.58a26.6,26.6,0,0,0,5.063-3.874l10.307,3.2,4.259-7.445.726-1.259Zm-22.873,5.885a12.958,12.958,0,1,1,9.1-15.908,12.958,12.958,0,0,1-9.1,15.908" fill="#1a2e35"/>
        <path id="Trazado_4500" data-name="Trazado 4500" d="M352.854,243.836l2.206-13.293L341.6,225.127a35.675,35.675,0,0,0-1.93-8.295l9.685-10.789-7.843-10.965-13.358,5.67a35.525,35.525,0,0,0-7.215-4.479l-.783-14.494-13.3-2.195-5.45,13.4a37.189,37.189,0,0,0-8.262,1.942l-10.821-9.686-10.954,7.844,5.68,13.347A36.308,36.308,0,0,0,273,212.717c-.154.308-.309.618-.452.926l-14.484.806-2.206,13.281,2.184.882,11.274,4.545a34.97,34.97,0,0,0,1.93,8.263l-9.685,10.821L269.4,263.2l13.358-5.692a34.643,34.643,0,0,0,7.2,4.511l.75,14.429,13.292,2.2,5.439-13.3a34.945,34.945,0,0,0,8.284-1.942l10.8,9.7,10.964-7.854-5.681-13.359a34.845,34.845,0,0,0,4.556-7.247Zm-37.3-.6a17.409,17.409,0,1,1,4.016-24.291,17.411,17.411,0,0,1-4.016,24.291" fill="#1a2e35"/>
        <path id="Trazado_4501" data-name="Trazado 4501" d="M172.613,316.393H68.036a13.11,13.11,0,0,1-13.11-13.109V158.489a13.11,13.11,0,0,1,13.11-13.11H172.613a13.11,13.11,0,0,1,13.11,13.11V303.284a13.11,13.11,0,0,1-13.11,13.109" fill="#c13e64"/>
        <path id="Rectángulo_556" data-name="Rectángulo 556" d="M13.109,0H117.687A13.11,13.11,0,0,1,130.8,13.11V157.9a13.11,13.11,0,0,1-13.11,13.11H13.11A13.11,13.11,0,0,1,0,157.9V13.109A13.109,13.109,0,0,1,13.109,0Z" transform="translate(54.926 145.379)" fill="none" stroke="#1a2e35" stroke-linecap="round" stroke-linejoin="round" stroke-width="1"/>
        <path id="Trazado_4502" data-name="Trazado 4502" d="M197.9,171.4V316.2a13.11,13.11,0,0,1-13.116,13.115H80.21a13.108,13.108,0,0,1-13.1-13.115V171.4a13.107,13.107,0,0,1,13.1-13.1H184.784A13.109,13.109,0,0,1,197.9,171.4" fill="#fff"/>
        <path id="Trazado_4503" data-name="Trazado 4503" d="M197.9,171.4V316.2a13.11,13.11,0,0,1-13.116,13.115H80.21a13.108,13.108,0,0,1-13.1-13.115V171.4a13.107,13.107,0,0,1,13.1-13.1H184.784A13.109,13.109,0,0,1,197.9,171.4Z" fill="none" stroke="#1a2e35" stroke-linecap="round" stroke-linejoin="round" stroke-width="1.103"/>
        <path id="Trazado_4504" data-name="Trazado 4504" d="M197.9,171.4v7.755H67.105V171.4a13.107,13.107,0,0,1,13.1-13.1H184.784A13.109,13.109,0,0,1,197.9,171.4" fill="#e85b7d"/>
        <path id="Trazado_4505" data-name="Trazado 4505" d="M197.9,171.4v7.755H67.105V171.4a13.107,13.107,0,0,1,13.1-13.1H184.784A13.109,13.109,0,0,1,197.9,171.4Z" fill="none" stroke="#1a2e35" stroke-linecap="round" stroke-linejoin="round" stroke-width="1"/>
        <rect id="Rectángulo_557" data-name="Rectángulo 557" width="32.179" height="5.397" transform="translate(79.404 188.142)" fill="#ff4f5b"/>
        <rect id="Rectángulo_558" data-name="Rectángulo 558" width="32.179" height="5.397" transform="translate(79.404 236.531)" fill="#ff4f5b"/>
        <rect id="Rectángulo_559" data-name="Rectángulo 559" width="32.179" height="5.397" transform="translate(79.404 280.411)" fill="#ff4f5b"/>
        <rect id="Rectángulo_560" data-name="Rectángulo 560" width="91.392" height="3.958" transform="translate(79.404 201.505)" fill="#1a2e35"/>
        <rect id="Rectángulo_561" data-name="Rectángulo 561" width="74.912" height="3.857" transform="translate(79.405 209.083)" fill="#1a2e35"/>
        <rect id="Rectángulo_562" data-name="Rectángulo 562" width="84.723" height="3.857" transform="translate(79.404 216.531)" fill="#1a2e35"/>
        <rect id="Rectángulo_563" data-name="Rectángulo 563" width="84.723" height="3.857" transform="translate(79.404 223.972)" fill="#1a2e35"/>
        <rect id="Rectángulo_564" data-name="Rectángulo 564" width="91.392" height="3.958" transform="translate(79.404 245.385)" fill="#1a2e35"/>
        <rect id="Rectángulo_565" data-name="Rectángulo 565" width="74.912" height="3.857" transform="translate(79.405 252.962)" fill="#1a2e35"/>
        <rect id="Rectángulo_566" data-name="Rectángulo 566" width="84.723" height="3.857" transform="translate(79.404 260.411)" fill="#1a2e35"/>
        <rect id="Rectángulo_567" data-name="Rectángulo 567" width="91.392" height="3.958" transform="translate(79.404 293.571)" fill="#1a2e35"/>
        <rect id="Rectángulo_568" data-name="Rectángulo 568" width="74.912" height="3.858" transform="translate(79.405 301.148)" fill="#1a2e35"/>
        <rect id="Rectángulo_569" data-name="Rectángulo 569" width="84.723" height="3.858" transform="translate(79.404 308.596)" fill="#1a2e35"/>
        <path id="Trazado_4506" data-name="Trazado 4506" d="M345.3,57.9v58.522a15.625,15.625,0,0,1-15.631,15.629H194.883a15.632,15.632,0,0,1-15.631-15.629V57.9A15.643,15.643,0,0,1,194.883,42.26H329.672A15.636,15.636,0,0,1,345.3,57.9" fill="#fff"/>
        <path id="Trazado_4507" data-name="Trazado 4507" d="M345.3,57.9v58.522a15.625,15.625,0,0,1-15.631,15.629H194.883a15.632,15.632,0,0,1-15.631-15.629V57.9A15.643,15.643,0,0,1,194.883,42.26H329.672A15.636,15.636,0,0,1,345.3,57.9Z" fill="none" stroke="#1c1c1b" stroke-miterlimit="10" stroke-width="1.103"/>
        <path id="Trazado_4508" data-name="Trazado 4508" d="M345.3,57.9v1.336H179.252V57.9A15.643,15.643,0,0,1,194.883,42.26H329.672A15.636,15.636,0,0,1,345.3,57.9" fill="#e85b7d"/>
        <path id="Trazado_4509" data-name="Trazado 4509" d="M345.3,57.9v1.336H179.252V57.9A15.643,15.643,0,0,1,194.883,42.26H329.672A15.636,15.636,0,0,1,345.3,57.9Z" fill="none" stroke="#1a2e35" stroke-linecap="round" stroke-linejoin="round" stroke-width="1"/>
        <path id="Trazado_4510" data-name="Trazado 4510" d="M203.647,53.545a2.394,2.394,0,1,1,0-3.386,2.394,2.394,0,0,1,0,3.386" fill="#1a2e35"/>
        <path id="Trazado_4511" data-name="Trazado 4511" d="M214.767,53.545a2.394,2.394,0,1,1,0-3.386,2.394,2.394,0,0,1,0,3.386" fill="#1a2e35"/>
        <path id="Trazado_4512" data-name="Trazado 4512" d="M225.887,53.545a2.394,2.394,0,1,1,0-3.386,2.394,2.394,0,0,1,0,3.386" fill="#1a2e35"/>
        <rect id="Rectángulo_570" data-name="Rectángulo 570" width="54.278" height="46.918" transform="translate(189.841 69.998)" fill="none" stroke="#1a2e35" stroke-linecap="round" stroke-linejoin="round" stroke-width="1.103" stroke-dasharray="4.412 4.412"/>
        <rect id="Rectángulo_571" data-name="Rectángulo 571" width="62.467" height="3.295" transform="translate(252.493 69.998)" fill="#1a2e35"/>
        <rect id="Rectángulo_572" data-name="Rectángulo 572" width="47.916" height="3.295" transform="translate(252.493 76.831)" fill="#1a2e35"/>
        <rect id="Rectángulo_573" data-name="Rectángulo 573" width="71.353" height="3.334" transform="translate(252.493 83.625)" fill="#1a2e35"/>
        <rect id="Rectángulo_574" data-name="Rectángulo 574" width="60.758" height="3.334" transform="translate(252.493 90.264)" fill="#1a2e35"/>
        <path id="Trazado_4513" data-name="Trazado 4513" d="M266.4,398.074s-29,8.317-33.05,9.751c-3.684,1.3-13.667,4.8-21.157,3.718a16.38,16.38,0,0,1-2.14-.464c-7.59-2.261-11-4.368-11.991-9.145s2.78-8.284,6.42-10.534,23.386-4.6,23.386-4.6l4.765,1.4h.011Z" fill="#ff4f5b"/>
        <path id="Trazado_4514" data-name="Trazado 4514" d="M212.2,411.543a16.2,16.2,0,0,1-2.141-.464c-7.589-2.261-11-4.368-11.991-9.144s2.78-8.285,6.42-10.535,23.386-4.6,23.386-4.6l4.765,1.4c-4.312,1.986-20.4,3.089-23.9,5.108s-5.207,5.824-3.132,10.964c1.1,2.736,4.06,5.383,6.6,7.27" fill="#fff"/>
        <path id="Trazado_4515" data-name="Trazado 4515" d="M262.038,399.257s-21.78,5.643-30.416,9.255-25.114,5.191-30.983-2.258-.677-13.857,5.191-15.28,17.737-3.681,24.219-2.779" fill="none" stroke="#1a2e35" stroke-linecap="round" stroke-linejoin="round" stroke-width="1.103"/>
        <path id="Trazado_4516" data-name="Trazado 4516" d="M212.631,411.147s-11.081-6.076-7.4-14.593c2.715-6.285,17.5-4.923,24.819-8.358" fill="none" stroke="#1a2e35" stroke-linecap="round" stroke-linejoin="round" stroke-width="1.103"/>
        <path id="Trazado_4517" data-name="Trazado 4517" d="M354.727,412.889c-.3,2.967-1.346,5.813-4.347,7.578-2,1.181-4.841,1.887-8.913,1.842-10.17-.132-29.287-7.4-29.287-7.4l-17.9-9.895,9.31-14.738,2.548-4.037,6.586,1.478s5.449,3.089,10.932,5.549,18.786,2.978,23.473,6.772,8.109,7.91,7.6,12.852" fill="#5ae4a8"/>
        <path id="Trazado_4518" data-name="Trazado 4518" d="M354.727,412.889c-.3,2.967-1.346,5.813-4.347,7.578a13.393,13.393,0,0,0-.507-8.935c-1.985-4.49-8.5-8.45-17.065-9.112s-15.112-4.666-18.543-6.453c-2.681-1.39-8.328-4.424-10.678-5.692l2.548-4.037,6.586,1.478s5.449,3.089,10.932,5.549,18.786,2.978,23.473,6.772,8.109,7.91,7.6,12.852" fill="#fff"/>
        <path id="Trazado_4519" data-name="Trazado 4519" d="M298.244,407.786a112.946,112.946,0,0,0,41.9,14.314c3.255.393,7.045.448,9.228-2a6.821,6.821,0,0,0,1.5-5.115c-.395-4.6-4.259-8.24-8.5-10.061s-8.918-2.257-13.419-3.266a53.039,53.039,0,0,1-12.9-4.721c-3.236-1.688-6.369-3.739-9.939-4.495s-7.824.161-9.729,3.275" fill="#ff4f5b"/>
        <path id="Trazado_4520" data-name="Trazado 4520" d="M348.181,421.348a11.923,11.923,0,0,0,6.549-8.46c.649-4.332-1.818-8.686-5.294-11.352s-7.82-3.916-12.109-4.807-8.675-1.49-12.755-3.084c-6.274-2.451-12.461-7.293-18.971-5.566" fill="none" stroke="#1a2e35" stroke-linecap="round" stroke-linejoin="round" stroke-width="1.103"/>
        <path id="Trazado_4521" data-name="Trazado 4521" d="M318.446,252.872l-30.291-11.527-.375-.144s.11-.806.2-1.975c.187-2.416.287-6.353-.85-7.688-1.687-1.975-6.474-.32-11.14-2.46s-13.3,1.687-13.3,1.687-6.232-1.147-8.98,3.354c-1.4,3.629-.916,9.034-.916,9.034s-.2.077-.573.21c-3.607,1.346-23.242,8.736-27.4,11.7-4.589,3.254-9.663,36.623-11.3,46.419s-4.533,18.631-3.056,22.007,22.571,19.613,34.7,23.8,55.189,2.967,55.189,2.967.706-.187,1.952-.585c7.281-2.338,33.115-11.968,46.816-34.681,0,0-13.27-43.528-30.677-62.127M236.607,309c-2.229,1.577-1.037,7.7-1.037,7.7l-3.8-3.342,9.519-23.408,4.06,17.97s-6.52-.486-8.747,1.081m76.158,14.87c-1.048.54,3.012-10.712,1.081-13.26s-7.711-2.3-7.711-2.3l.5-3.078c.067-.341,3.431-17.594,3.431-17.594l1.137-1.357s11.781,20.2,13.887,27.313c0,0-12.84,10.281-12.321,10.281" fill="#ff4f5b"/>
        <path id="Trazado_4522" data-name="Trazado 4522" d="M261.253,179.862l-15.634,16.6s-2.156,1.906-1.3,6.72,2.852,8.952,4.36,9.273a21.429,21.429,0,0,0,3.62.324s3.35,7.261,5.723,10.114c0,0,.827,11.206.386,14.318,0,0,5.616,4.907,10.907,5.53s13.465-7.482,13.465-7.482l2.027-9.922s4.8-7.282,5.123-9.219,2.519-1.442,3.6-2.4,3.572-5.231,3.983-9.272.441-8.681-4.252-7.317c-4.067-1.093-1.522-9.691-1.522-9.691l-7.145-6.3Z" fill="#fff"/>
        <g id="Grupo_855" data-name="Grupo 855" opacity="0.5">
          <g id="Grupo_854" data-name="Grupo 854">
            <g id="Grupo_853" data-name="Grupo 853" clip-path="url(#clip-path-8)">
              <path id="Trazado_4523" data-name="Trazado 4523" d="M288.155,241.345a16.217,16.217,0,0,1-.807,1.809c-2.581,4.865-13.821,14.13-13.821,14.13l-3.4-10.446-1.864,10.446c-3.752-1.632-15.19-11.548-15.19-11.548s-.387-.927-.861-2.372c.375-.133.573-.21.573-.21s-.485-5.406.916-9.035c2.748-4.5,8.98-3.353,8.98-3.353s8.638-3.828,13.3-1.688,9.453.486,11.142,2.46.651,9.663.651,9.663Z" fill="#fff"/>
            </g>
          </g>
        </g>
        <g id="Grupo_858" data-name="Grupo 858" opacity="0.2">
          <g id="Grupo_857" data-name="Grupo 857">
            <g id="Grupo_856" data-name="Grupo 856" clip-path="url(#clip-path-9)">
              <path id="Trazado_4524" data-name="Trazado 4524" d="M318.446,252.872l-30.291-11.527-.375-.144s.11-.806.2-1.975l-.629,3.927-4.479,6.089a122.71,122.71,0,0,1,13.978,6.161,12.28,12.28,0,0,1,6.422,12.245L297.685,315.4,295.4,342.511l6.9,7.169c7.281-2.338,33.115-11.968,46.816-34.681,0,0-13.27-43.528-30.677-62.127m-5.681,71c-1.048.54,3.012-10.712,1.081-13.26s-7.711-2.3-7.711-2.3l.5-3.078c.067-.341,3.431-17.594,3.431-17.594l1.137-1.357s11.781,20.2,13.887,27.313c0,0-12.84,10.281-12.321,10.281"/>
            </g>
          </g>
        </g>
        <g id="Grupo_861" data-name="Grupo 861" opacity="0.2">
          <g id="Grupo_860" data-name="Grupo 860">
            <g id="Grupo_859" data-name="Grupo 859" clip-path="url(#clip-path-10)">
              <path id="Trazado_4525" data-name="Trazado 4525" d="M247.406,310.608,242.7,294.867s-8.444-28.8-14.235-35.908l1.521,20.258s-4.969,24.2-9.569,31.391-5.592,8.98,0,8.98,19.194,10.843,19.194,10.843l-1.047-9.046ZM235.57,316.7l-3.8-3.342,9.52-23.408,4.06,17.97s-6.519-.486-8.748,1.081-1.036,7.7-1.036,7.7"/>
            </g>
          </g>
        </g>
        <path id="Trazado_4526" data-name="Trazado 4526" d="M258.023,222.893s.87,8.487,0,12.366" fill="none" stroke="#1a2e35" stroke-linecap="round" stroke-linejoin="round" stroke-width="1.103"/>
        <path id="Trazado_4527" data-name="Trazado 4527" d="M283.646,234.121a36.388,36.388,0,0,1,.945-8.109" fill="none" stroke="#1a2e35" stroke-linecap="round" stroke-linejoin="round" stroke-width="1.103"/>
        <path id="Trazado_4528" data-name="Trazado 4528" d="M285.92,186.191s5.136,6.452,4.872,11.324-.658,10.666-.527,16.328-9.085,17.513-13.825,18.567-8.823,1.316-11.852-1.712-6.057-7.242-10.007-12.641-3.028-17.25-3.028-17.25" fill="none" stroke="#1a2e35" stroke-linecap="round" stroke-linejoin="round" stroke-width="1.103"/>
        <path id="Trazado_4529" data-name="Trazado 4529" d="M273.559,205.322a26.744,26.744,0,0,0-.4,5.367,6.105,6.105,0,0,0,1.317,4.2c.567.578,1.393,1.042,1.5,1.845a1.95,1.95,0,0,1-1.055,1.748,14.9,14.9,0,0,0-1.851,1.1" fill="none" stroke="#1a2e35" stroke-linecap="round" stroke-linejoin="round" stroke-width="1.103"/>
        <path id="Trazado_4530" data-name="Trazado 4530" d="M265.4,220.212s.594,3.827,5.725,4.629" fill="none" stroke="#1a2e35" stroke-linecap="round" stroke-linejoin="round" stroke-width="1.103"/>
        <path id="Trazado_4531" data-name="Trazado 4531" d="M265.939,208.24c0,1.106-.479,2-1.068,2s-1.069-.9-1.069-2,.479-2,1.069-2,1.068.9,1.068,2" fill="#1a2e35"/>
        <path id="Trazado_4532" data-name="Trazado 4532" d="M281.247,208.722c0,1.106-.479,2-1.068,2s-1.068-.9-1.068-2,.478-2,1.068-2,1.068.9,1.068,2" fill="#1a2e35"/>
        <path id="Trazado_4533" data-name="Trazado 4533" d="M278.158,203.873s4.979-4.978,9.19.574" fill="none" stroke="#1a2e35" stroke-linecap="round" stroke-linejoin="round" stroke-width="2.206"/>
        <path id="Trazado_4534" data-name="Trazado 4534" d="M267.629,203.969s-3.159-3.542-8.137,0" fill="none" stroke="#1a2e35" stroke-linecap="round" stroke-linejoin="round" stroke-width="2.206"/>
        <path id="Trazado_4535" data-name="Trazado 4535" d="M258.409,227.557s3.049,8.4,9.858,10.787,15.851-9.986,15.851-9.986l-.473-1.609s-5.924,7.7-12.515,6.385-13.108-10.241-13.108-10.241Z" fill="#1a2e35"/>
        <path id="Trazado_4536" data-name="Trazado 4536" d="M252.3,212.454s-4.06,1.434-5.139-1.729-4.779-11.489-1.542-14.264,5.84,3.664,5.84,3.664" fill="none" stroke="#1a2e35" stroke-linecap="round" stroke-linejoin="round" stroke-width="1.103"/>
        <path id="Trazado_4537" data-name="Trazado 4537" d="M290.258,214.179s3.772.759,4.852-2.4,4.779-11.489,1.542-14.264-5.84,3.664-5.84,3.664" fill="none" stroke="#1a2e35" stroke-linecap="round" stroke-linejoin="round" stroke-width="1.103"/>
        <path id="Trazado_4538" data-name="Trazado 4538" d="M251.459,208.24a5.62,5.62,0,0,0,3.562-2.1,8.868,8.868,0,0,0,1.035-3.192,38.433,38.433,0,0,0,.564-6.434,8.655,8.655,0,0,1,.227-2.507,6.43,6.43,0,0,1,1.357-2.233c1.416-1.659,3.122-3.062,4.469-4.779a7.975,7.975,0,0,0,1.973-6.044,27.454,27.454,0,0,0,22.474,5.813c7.143-1.4,14-7.67,13.165-15.549a6.376,6.376,0,0,0-5.034-5.486c-3.531-.878-6.7,1-9.9,2.21-5.832,2.2-11.539-1.577-17.433-2.211-5.039-.542-11.225.083-13.85,5.094,0,0-9.052,1.064-13.017,8.5s3.572,17.729,3.572,17.729,3.034-3.673,6.933,3.761Z" fill="#1a2e35"/>
        <path id="Trazado_4539" data-name="Trazado 4539" d="M286.49,184.289s-2.341,12.2,3.768,18.1c0,0,1.336-3.667,2.691-4.561a14.142,14.142,0,0,0-1.069-13.544c-4.47-7.1-5.39,0-5.39,0" fill="#1a2e35"/>
        <g id="Grupo_864" data-name="Grupo 864" opacity="0.2">
          <g id="Grupo_863" data-name="Grupo 863">
            <g id="Grupo_862" data-name="Grupo 862" clip-path="url(#clip-path-11)">
              <path id="Trazado_4540" data-name="Trazado 4540" d="M297.68,170.407a11.525,11.525,0,0,1-6.971,7.276c-8.479,3.454-16.716-.377-25.206-1.127-6.939-.613-14.589,5.639-15.073,12.762" fill="none" stroke="#fff" stroke-linecap="round" stroke-linejoin="round" stroke-width="1.103"/>
            </g>
          </g>
        </g>
        <g id="Grupo_867" data-name="Grupo 867" opacity="0.2">
          <g id="Grupo_866" data-name="Grupo 866">
            <g id="Grupo_865" data-name="Grupo 865" clip-path="url(#clip-path-12)">
              <path id="Trazado_4541" data-name="Trazado 4541" d="M245.163,187.44a14.826,14.826,0,0,1,9.032-13.082" fill="none" stroke="#fff" stroke-linecap="round" stroke-linejoin="round" stroke-width="1.103"/>
            </g>
          </g>
        </g>
        <path id="Trazado_4542" data-name="Trazado 4542" d="M256.068,234.121a38.681,38.681,0,0,0,13.205,9.034s10.151-2.943,15.318-10.021" fill="none" stroke="#1a2e35" stroke-linecap="round" stroke-linejoin="round" stroke-width="1.103"/>
        <path id="Trazado_4543" data-name="Trazado 4543" d="M271.668,208.24a8.983,8.983,0,1,1-8.983-8.982A8.983,8.983,0,0,1,271.668,208.24Z" fill="none" stroke="#1a2e35" stroke-linecap="round" stroke-linejoin="round" stroke-width="1.103"/>
        <path id="Trazado_4544" data-name="Trazado 4544" d="M291.737,208.24a8.983,8.983,0,1,1-8.983-8.982A8.983,8.983,0,0,1,291.737,208.24Z" fill="none" stroke="#1a2e35" stroke-linecap="round" stroke-linejoin="round" stroke-width="1.103"/>
        <path id="Trazado_4545" data-name="Trazado 4545" d="M258.023,230.771a7.041,7.041,0,0,0-4.32,3.351c-1.59,2.8-.631,11.609-.631,11.609s8.207,8.123,15.2,11.549l2.062-11.594,3.2,11.594s10.822-7.655,13.819-14.124c0,0,.978-7.544,0-10.022a3.457,3.457,0,0,0-3.23-2.363" fill="none" stroke="#1a2e35" stroke-linecap="round" stroke-linejoin="round" stroke-width="1.103"/>
        <path id="Trazado_4546" data-name="Trazado 4546" d="M245.163,308.306s-3.2-21.495-7.474-30.265" fill="none" stroke="#1a2e35" stroke-linecap="round" stroke-linejoin="round" stroke-width="1.103"/>
        <path id="Trazado_4547" data-name="Trazado 4547" d="M228.459,258.959A87.18,87.18,0,0,1,235.1,270.07" fill="none" stroke="#1a2e35" stroke-linecap="round" stroke-linejoin="round" stroke-width="1.103"/>
        <path id="Trazado_4548" data-name="Trazado 4548" d="M312.766,275.007a62.091,62.091,0,0,1,3.528-10.492" fill="none" stroke="#1a2e35" stroke-linecap="round" stroke-linejoin="round" stroke-width="1.103"/>
        <path id="Trazado_4549" data-name="Trazado 4549" d="M306.134,308.306s2.314-14.735,5.069-26.881" fill="none" stroke="#1a2e35" stroke-linecap="round" stroke-linejoin="round" stroke-width="1.103"/>
        <path id="Trazado_4550" data-name="Trazado 4550" d="M310.059,287.626A16.949,16.949,0,0,1,319,281.512" fill="none" stroke="#1a2e35" stroke-linecap="round" stroke-linejoin="round" stroke-width="1.103"/>
        <path id="Trazado_4551" data-name="Trazado 4551" d="M287.783,241.2s18.639,7.445,30.667,11.674c0,0,14.8,13.918,30.668,62.126,0,0-14.546,24.46-42.2,32.3" fill="none" stroke="#1a2e35" stroke-linecap="round" stroke-linejoin="round" stroke-width="1.103"/>
        <path id="Trazado_4552" data-name="Trazado 4552" d="M311.722,324.743l13.362-11.157s7.069-5.372,14.42-1.7" fill="none" stroke="#1a2e35" stroke-linecap="round" stroke-linejoin="round" stroke-width="1.103"/>
        <path id="Trazado_4553" data-name="Trazado 4553" d="M311.2,286.277s11.053,16.282,13.881,27.31" fill="none" stroke="#1a2e35" stroke-linecap="round" stroke-linejoin="round" stroke-width="1.103"/>
        <path id="Trazado_4554" data-name="Trazado 4554" d="M235.69,317.316l-3.911-3.729s-5.805-1.015-12.378,3.391" fill="none" stroke="#1a2e35" stroke-linecap="round" stroke-linejoin="round" stroke-width="1.103"/>
        <path id="Trazado_4555" data-name="Trazado 4555" d="M231.779,313.586s4.856-15.954,9.647-24.19" fill="none" stroke="#1a2e35" stroke-linecap="round" stroke-linejoin="round" stroke-width="1.103"/>
        <path id="Trazado_4556" data-name="Trazado 4556" d="M252.784,243.155s-26.811,10.06-29.439,12.989-12.621,59.2-12.883,65.637c-.236,5.756,20.648,18.689,30.965,24.141" fill="none" stroke="#1a2e35" stroke-linecap="round" stroke-linejoin="round" stroke-width="1.103"/>
        <path id="Trazado_4557" data-name="Trazado 4557" d="M349.849,234.121H319.3a6.532,6.532,0,0,1-6.531-6.532V209.666a6.531,6.531,0,0,1,6.531-6.531h30.552a6.531,6.531,0,0,1,6.531,6.531v17.923a6.532,6.532,0,0,1-6.531,6.532" fill="#fff"/>
        <path id="Rectángulo_580" data-name="Rectángulo 580" d="M6.532,0H37.083a6.531,6.531,0,0,1,6.531,6.531V24.455a6.531,6.531,0,0,1-6.531,6.531H6.531A6.531,6.531,0,0,1,0,24.455V6.532A6.532,6.532,0,0,1,6.532,0Z" transform="translate(312.766 203.135)" fill="none" stroke="#1a2e35" stroke-linecap="round" stroke-linejoin="round" stroke-width="1.103"/>
        <path id="Trazado_4558" data-name="Trazado 4558" d="M326.838,212.454l-8.388,5.265,7.784,6.9" fill="none" stroke="#1a2e35" stroke-linecap="round" stroke-linejoin="round" stroke-width="1.103"/>
        <path id="Trazado_4559" data-name="Trazado 4559" d="M342.12,225.123l7.536-6.423-8.7-5.7" fill="none" stroke="#1a2e35" stroke-linecap="round" stroke-linejoin="round" stroke-width="1.103"/>
        <line id="Línea_23" data-name="Línea 23" y1="19.413" x2="6.19" transform="translate(330.915 209.662)" fill="none" stroke="#1a2e35" stroke-linecap="round" stroke-linejoin="round" stroke-width="1.103"/>
        <path id="Trazado_4560" data-name="Trazado 4560" d="M272.834,262.164a1.763,1.763,0,1,1-1.764-1.763,1.764,1.764,0,0,1,1.764,1.763" fill="#1a2e35"/>
        <path id="Trazado_4561" data-name="Trazado 4561" d="M303.858,356.385H242.84a1.431,1.431,0,0,1,0-2.861h61.018a1.431,1.431,0,1,1,0,2.861" fill="#1a2e35"/>
        <path id="Trazado_4562" data-name="Trazado 4562" d="M305.993,351.643l8.177-38.4a4.086,4.086,0,0,0-4-4.938H238.883a4.086,4.086,0,0,0-4.009,4.878L242.2,350.3a4.086,4.086,0,0,0,3.916,3.294l55.783,1.277a4.085,4.085,0,0,0,4.09-3.233" fill="#fff"/>
        <path id="Trazado_4563" data-name="Trazado 4563" d="M305.993,351.643l8.177-38.4a4.086,4.086,0,0,0-4-4.938H238.883a4.086,4.086,0,0,0-4.009,4.878L242.2,350.3a4.086,4.086,0,0,0,3.916,3.294l55.783,1.277A4.085,4.085,0,0,0,305.993,351.643Z" fill="none" stroke="#1a2e35" stroke-linecap="round" stroke-linejoin="round" stroke-width="1.103"/>
        <path id="Trazado_4564" data-name="Trazado 4564" d="M279.977,330.435a5.691,5.691,0,1,1-5.691-5.691,5.69,5.69,0,0,1,5.691,5.691" fill="#1a2e35"/>
        <line id="Línea_24" data-name="Línea 24" x2="8.47" transform="translate(291.163 311.95)" fill="none" stroke="#1a2e35" stroke-linecap="round" stroke-linejoin="round" stroke-width="1.103"/>
        <line id="Línea_25" data-name="Línea 25" x2="32.152" transform="translate(250.714 311.95)" fill="none" stroke="#1a2e35" stroke-linecap="round" stroke-linejoin="round" stroke-width="1.103"/>
        <path id="Trazado_4565" data-name="Trazado 4565" d="M306.134,392.379l-6.5,17.059s-16.571-4.178-37.807-8.53c-22.2-4.55-45.395-10.44-57.424-31.545-1.467-2.573-2.443-5.613-1.756-8.494,1.736-7.29,11.219-9.268,17.469-10a116.024,116.024,0,0,1,11.831-.665c2.013-.028,8.652-1.083,10.258.1a47,47,0,0,0,7.717,4.573c3.55,1.507,55.367-1.354,55.367-1.354a18.5,18.5,0,0,0,1.63-6.222c8.145-4.14,27.007-7.647,34.977-6.1,12.532,2.437,19.843,9.747,18.45,17.406s-29.05,28.2-54.211,33.768" fill="#1a2e35"/>
        <path id="Trazado_4566" data-name="Trazado 4566" d="M306.134,392.379S290.371,388.2,277.491,379.5s-22.944-18.8-40.888-16.71" fill="none" stroke="#fff" stroke-linecap="round" stroke-linejoin="round" stroke-width="1.103"/>
        <path id="Trazado_4567" data-name="Trazado 4567" d="M274.529,377.445c8.135-2.341,14.106-7.6,20.635-12.657a139.62,139.62,0,0,1,22.093-14.517" fill="none" stroke="#fff" stroke-linecap="round" stroke-linejoin="round" stroke-width="1.103"/>
        <line id="Línea_26" data-name="Línea 26" x2="2.387" transform="translate(271.668 209.662)" fill="none" stroke="#1a2e35" stroke-linecap="round" stroke-linejoin="round" stroke-width="1.103"/>
      </g>
    </g>
  </g>
</svg>
