<svg id="Grupo_632" data-name="Grupo 632" xmlns="http://www.w3.org/2000/svg" xmlns:xlink="http://www.w3.org/1999/xlink" width="292.379" height="283.076" viewBox="0 0 292.379 283.076">
  <defs>
    <clipPath id="clip-path">
      <rect id="Rectángulo_470" data-name="Rectángulo 470" width="292.379" height="283.076" fill="none"/>
    </clipPath>
    <clipPath id="clip-path-3">
      <rect id="Rectángulo_441" data-name="Rectángulo 441" width="1.759" height="1.667" fill="none"/>
    </clipPath>
    <clipPath id="clip-path-4">
      <rect id="Rectángulo_442" data-name="Rectángulo 442" width="22.836" height="4.782" fill="none"/>
    </clipPath>
    <clipPath id="clip-path-5">
      <rect id="Rectángulo_443" data-name="Rectángulo 443" width="11.434" height="3.397" fill="none"/>
    </clipPath>
    <clipPath id="clip-path-6">
      <rect id="Rectángulo_444" data-name="Rectángulo 444" width="1.752" height="1.631" fill="none"/>
    </clipPath>
    <clipPath id="clip-path-7">
      <rect id="Rectángulo_445" data-name="Rectángulo 445" width="10.644" height="20.221" fill="none"/>
    </clipPath>
    <clipPath id="clip-path-8">
      <rect id="Rectángulo_446" data-name="Rectángulo 446" width="6.379" height="10.443" fill="none"/>
    </clipPath>
    <clipPath id="clip-path-9">
      <rect id="Rectángulo_447" data-name="Rectángulo 447" width="6.28" height="16.557" fill="none"/>
    </clipPath>
    <clipPath id="clip-path-10">
      <rect id="Rectángulo_448" data-name="Rectángulo 448" width="3.273" height="14.832" fill="none"/>
    </clipPath>
    <clipPath id="clip-path-11">
      <rect id="Rectángulo_451" data-name="Rectángulo 451" width="43.188" height="103.157" fill="none"/>
    </clipPath>
    <clipPath id="clip-path-12">
      <rect id="Rectángulo_453" data-name="Rectángulo 453" width="15.709" height="6.112" fill="none"/>
    </clipPath>
    <clipPath id="clip-path-13">
      <rect id="Rectángulo_456" data-name="Rectángulo 456" width="43.189" height="83.882" fill="none"/>
    </clipPath>
    <clipPath id="clip-path-14">
      <rect id="Rectángulo_458" data-name="Rectángulo 458" width="14.734" height="6.259" fill="none"/>
    </clipPath>
    <clipPath id="clip-path-15">
      <rect id="Rectángulo_461" data-name="Rectángulo 461" width="43.189" height="61.792" fill="none"/>
    </clipPath>
    <clipPath id="clip-path-16">
      <rect id="Rectángulo_463" data-name="Rectángulo 463" width="14.966" height="6.16" fill="none"/>
    </clipPath>
    <clipPath id="clip-path-17">
      <rect id="Rectángulo_466" data-name="Rectángulo 466" width="43.189" height="43.056" fill="none"/>
    </clipPath>
    <clipPath id="clip-path-18">
      <rect id="Rectángulo_468" data-name="Rectángulo 468" width="12.816" height="6.16" fill="none"/>
    </clipPath>
  </defs>
  <g id="Grupo_631" data-name="Grupo 631" clip-path="url(#clip-path)">
    <g id="Grupo_630" data-name="Grupo 630">
      <g id="Grupo_629" data-name="Grupo 629" clip-path="url(#clip-path)">
        <path id="Trazado_3649" data-name="Trazado 3649" d="M15.673,191.905a22.026,22.026,0,0,0-9.061-2.944,6.343,6.343,0,0,0-4.286.744c-.252.18-.5.446-.442.739a.912.912,0,0,0,.419.5,13.6,13.6,0,0,0,13.37.956" transform="translate(0.473 34.408)" fill="#e1e1e1"/>
        <path id="Trazado_3650" data-name="Trazado 3650" d="M14.649,193.3A43.4,43.4,0,0,1,8.8,188.443a13.762,13.762,0,0,1-3.669-6.406,2.457,2.457,0,0,1,.289-2.144c4.666,3.439,8.33,7.888,9.233,13.411" transform="translate(1.266 32.767)" fill="#e1e1e1"/>
        <path id="Trazado_3651" data-name="Trazado 3651" d="M12.915,193.455a18.9,18.9,0,0,1,.109-7.255,9.778,9.778,0,0,1,4.092-5.985,8.107,8.107,0,0,1-.106,5.686,27.029,27.029,0,0,1-4.06,8.068" transform="translate(3.183 32.826)" fill="#e1e1e1"/>
        <path id="Trazado_3652" data-name="Trazado 3652" d="M18.809,197.959a13.693,13.693,0,0,0-7.267,3.473,12.835,12.835,0,0,0-4.156,6.736c2.722-.16,5.031-1.972,6.708-4.005S16.93,199.9,18.771,198" transform="translate(1.863 36.058)" fill="#e1e1e1"/>
        <path id="Trazado_3653" data-name="Trazado 3653" d="M17.553,201.472a16.131,16.131,0,0,1,2.07-16.005,19.38,19.38,0,0,1-2.07,16.005" transform="translate(4.112 33.783)" fill="#e1e1e1"/>
        <path id="Trazado_3654" data-name="Trazado 3654" d="M24.661,204.756a13.684,13.684,0,0,0-7.269,1.607,12.651,12.651,0,0,0-5.123,5.127c-.154.29-.289.658-.084.919a.958.958,0,0,0,.821.227,11.014,11.014,0,0,0,6.394-3.116,59.773,59.773,0,0,1,5.316-4.77" transform="translate(3.047 37.292)" fill="#e1e1e1"/>
        <path id="Trazado_3655" data-name="Trazado 3655" d="M22.181,206.936a20.614,20.614,0,0,1-.23-12.171,5.93,5.93,0,0,1,2.752-3.951.567.567,0,0,1,.421-.069.536.536,0,0,1,.267.291,6.979,6.979,0,0,1,.647,3.491,20.712,20.712,0,0,1-.58,3.535c-.483,2.161-.74,4.483-2,6.346a12.748,12.748,0,0,0-.8,1.394c-.239.473-.24.641-.458,1.017" transform="translate(5.333 34.741)" fill="#e1e1e1"/>
        <path id="Trazado_3656" data-name="Trazado 3656" d="M34.835,208.407a15.01,15.01,0,0,1,2.914-12.9,1.057,1.057,0,0,1,.828-.5c.523.047.66.7.635,1.2a22.461,22.461,0,0,1-4.377,12.2" transform="translate(8.674 35.519)" fill="#e1e1e1"/>
        <path id="Trazado_3657" data-name="Trazado 3657" d="M35.9,207.816a20.828,20.828,0,0,0,16.314-3.132,13.916,13.916,0,0,0-8.831-1.025,12.765,12.765,0,0,0-7.483,4.156" transform="translate(9.054 37.041)" fill="#e1e1e1"/>
        <path id="Trazado_3658" data-name="Trazado 3658" d="M36.869,205.978c3.067-4.721,8.948-7.8,14.806-8.084a8.8,8.8,0,0,1-4.842,5.055,28.085,28.085,0,0,1-7.108,1.964c-.947.173-2.243.363-2.856,1.065" transform="translate(9.299 36.046)" fill="#e1e1e1"/>
        <path id="Trazado_3659" data-name="Trazado 3659" d="M35.419,195.61a38.66,38.66,0,0,0,1.893-8.186,13,13,0,0,0-1.727-8.1,16.942,16.942,0,0,0-.253,16.563" transform="translate(8.397 32.664)" fill="#e1e1e1"/>
        <path id="Trazado_3660" data-name="Trazado 3660" d="M42.693,190.9a23.3,23.3,0,0,1,17.1-10.985,19.082,19.082,0,0,1-17.1,10.985" transform="translate(10.768 32.771)" fill="#e1e1e1"/>
        <path id="Trazado_3661" data-name="Trazado 3661" d="M41.01,190.306c5,.718,9.254,3.731,13.924,5.557a6.555,6.555,0,0,0,3.148.57,2.711,2.711,0,0,0,2.369-1.808,2.5,2.5,0,0,0-.828-2.308,6.813,6.813,0,0,0-2.285-1.31,26.826,26.826,0,0,0-15.9-.836" transform="translate(10.344 34.492)" fill="#e1e1e1"/>
        <path id="Trazado_3662" data-name="Trazado 3662" d="M38.7,193a5.936,5.936,0,0,1,2.414,1.579,26.64,26.64,0,0,0,10.558,5.12c.4.095.933.132,1.133-.212.174-.3-.046-.664-.273-.933a14.61,14.61,0,0,0-6.375-4.085c-2.437-.856-4.548-1.888-7.457-1.667" transform="translate(9.761 35.112)" fill="#e1e1e1"/>
        <path id="Trazado_3663" data-name="Trazado 3663" d="M36.1,176.135a20.733,20.733,0,0,0,15.317,4.92,1.1,1.1,0,0,0,.7-.236c.386-.4-.078-1.007-.527-1.338a18.442,18.442,0,0,0-15.49-3.345" transform="translate(9.104 31.99)" fill="#e1e1e1"/>
        <path id="Trazado_3664" data-name="Trazado 3664" d="M39.184,175.53A22.4,22.4,0,0,1,58.3,172.552a15.617,15.617,0,0,1-9.11,3.777,30.479,30.479,0,0,1-10.007-.8" transform="translate(9.883 31.257)" fill="#e1e1e1"/>
        <path id="Trazado_3665" data-name="Trazado 3665" d="M38.476,169.125c-.443-4.244-.155-7.594-.467-11.858-.025-.34-.1-.751-.441-.874-.47-.17-.862.375-1.016.827a12.964,12.964,0,0,0,1.917,11.811" transform="translate(9.054 28.481)" fill="#e1e1e1"/>
        <path id="Trazado_3666" data-name="Trazado 3666" d="M37.7,169.61a25.792,25.792,0,0,0,7.446-6.833c1.471-1.9,2.711-4.177,2.378-6.508a7.286,7.286,0,0,0-5.372,2.518,13.853,13.853,0,0,0-2.739,5.2c-.6,1.867-1.013,3.786-1.713,5.621" transform="translate(9.508 28.464)" fill="#e1e1e1"/>
        <path id="Trazado_3667" data-name="Trazado 3667" d="M43.56,167.569a60.93,60.93,0,0,0,18.326-10.2c-2.189-.832-4.695-.335-6.883.5a21.344,21.344,0,0,0-11.538,9.656" transform="translate(10.963 28.586)" fill="#e1e1e1"/>
        <path id="Trazado_3668" data-name="Trazado 3668" d="M39.341,170.289a39.424,39.424,0,0,0,10.177.047,44.894,44.894,0,0,0,9.5-2.98,1.107,1.107,0,0,0,.646-.462.675.675,0,0,0-.232-.767,1.987,1.987,0,0,0-.81-.358,18.578,18.578,0,0,0-10.267.578,49.028,49.028,0,0,0-9.014,3.942" transform="translate(9.923 30.107)" fill="#e1e1e1"/>
        <path id="Trazado_3669" data-name="Trazado 3669" d="M24.256,178.345a16.128,16.128,0,0,1-.165-14.064,10.232,10.232,0,0,1,1.319,6.994c-.255,2.4-1.031,4.875-1.081,7.29" transform="translate(5.69 29.924)" fill="#e1e1e1"/>
        <path id="Trazado_3670" data-name="Trazado 3670" d="M19.661,172.466a21.386,21.386,0,0,0-15.441,6.21,15.169,15.169,0,0,0,8.455-1.48,43.263,43.263,0,0,0,7.245-4.577" transform="translate(1.064 31.414)" fill="#e1e1e1"/>
        <path id="Trazado_3671" data-name="Trazado 3671" d="M14.525,170.848c-2.819-.216-5.532-.545-8.242.239A9.756,9.756,0,0,0,0,176.116a15.669,15.669,0,0,0,7.727-1.377,45.083,45.083,0,0,0,6.8-3.89" transform="translate(0 31.073)" fill="#e1e1e1"/>
        <path id="Trazado_3672" data-name="Trazado 3672" d="M22.259,171.513a26.672,26.672,0,0,0-8.1-3.815c-2.95-.649-6.374-.169-8.432,1.932,2.391,1.323,5.291,1.481,8.061,1.479s6.17-.032,8.783.84" transform="translate(1.446 30.497)" fill="#e1e1e1"/>
        <path id="Trazado_3673" data-name="Trazado 3673" d="M19.932,173.571c-4.335-4.019-5.978-11.24-4.235-16.735a24.38,24.38,0,0,1,4.235,16.735" transform="translate(3.786 28.567)" fill="#e1e1e1"/>
        <path id="Trazado_3674" data-name="Trazado 3674" d="M28.463,163.393c.818-1.794,1.392-3.678,2.126-5.5a15.589,15.589,0,0,1,3.032-5.075,8.146,8.146,0,0,1,5.37-2.628,20.564,20.564,0,0,1-10.421,13.235" transform="translate(7.179 27.356)" fill="#e1e1e1"/>
        <path id="Trazado_3675" data-name="Trazado 3675" d="M29,164.478c-1.354-1.758-2.916-4.146-4.752-5.458a8.3,8.3,0,0,0-6.464-1.6A15.12,15.12,0,0,0,29,164.478" transform="translate(4.485 28.645)" fill="#e1e1e1"/>
        <path id="Trazado_3676" data-name="Trazado 3676" d="M27.547,163.514a29.124,29.124,0,0,1-2.14-6.54,9.711,9.711,0,0,1,1.084-6.648c2.38,4.247,3.147,8.806,1.177,13.236" transform="translate(6.369 27.382)" fill="#e1e1e1"/>
        <path id="Trazado_3677" data-name="Trazado 3677" d="M28.48,151.713c1.347-4.212,5.432-7.312,9.84-8.734a3.882,3.882,0,0,1,1.726-.245,1.479,1.479,0,0,1,1.272,1c.162.716-.466,1.358-1.056,1.835a34.129,34.129,0,0,1-11.782,6.141" transform="translate(7.183 25.995)" fill="#e1e1e1"/>
        <path id="Trazado_3678" data-name="Trazado 3678" d="M28.533,149.594a28.6,28.6,0,0,1,1.285-8.041,10.325,10.325,0,0,1,5.362-6.112c.446,2.743-.835,5.47-2.382,7.829s-3.407,4.587-4.336,7.219" transform="translate(7.179 24.67)" fill="#e1e1e1"/>
        <path id="Trazado_3679" data-name="Trazado 3679" d="M30.148,151.268c-1.114-3.069-1.228-6.968-3.176-9.639-1.361-1.869-3.539-3.143-4.712-5.121a7.393,7.393,0,0,0,.274,5.814,16.875,16.875,0,0,0,3.6,4.866c1.439,1.452,2.674,2.544,4.012,4.081" transform="translate(5.495 24.865)" fill="#e1e1e1"/>
        <path id="Trazado_3680" data-name="Trazado 3680" d="M28.514,239.524c-.086,0-.162-20.47-.168-45.715s.059-45.721.145-45.721.162,20.467.168,45.721-.059,45.715-.145,45.715" transform="translate(7.15 26.974)" fill="#e1e1e1"/>
        <path id="Trazado_3681" data-name="Trazado 3681" d="M47.434,173.567a4.734,4.734,0,0,1-.815.288c-.586.187-1.34.426-2.243.715-1.892.608-4.49,1.488-7.312,2.579-2.794,1.131-5.427,2.05-6.927,3.277a4.826,4.826,0,0,0-1.391,1.738c-.215.481-.254.775-.282.77-.011,0-.008-.074.009-.215a3.146,3.146,0,0,1,.159-.6,4.615,4.615,0,0,1,1.359-1.852A12.309,12.309,0,0,1,33,178.508c1.2-.531,2.535-1.082,3.95-1.631,2.829-1.095,5.448-1.947,7.361-2.5.957-.283,1.737-.489,2.278-.628a4.869,4.869,0,0,1,.85-.177" transform="translate(7.178 31.614)" fill="#e1e1e1"/>
        <path id="Trazado_3682" data-name="Trazado 3682" d="M53.345,161.382c.008.009-.073.087-.229.229l-.695.619-2.6,2.227-8.645,7.267c-3.373,2.836-6.29,5.545-8.311,7.586-1.013,1.019-1.811,1.863-2.353,2.453-.255.273-.463.5-.629.675a1.426,1.426,0,0,1-.235.227,1.231,1.231,0,0,1,.187-.262c.13-.164.322-.409.582-.713.517-.615,1.291-1.481,2.285-2.52a106.534,106.534,0,0,1,8.266-7.665c3.386-2.83,6.468-5.371,8.707-7.2l2.663-2.157.735-.576a1.435,1.435,0,0,1,.27-.187" transform="translate(7.478 29.395)" fill="#e1e1e1"/>
        <path id="Trazado_3683" data-name="Trazado 3683" d="M35.947,173.662c-.088-.037.616-1.573,1.32-3.518s1.042-3.582,1.132-3.568a11.449,11.449,0,0,1-.836,3.663,22.915,22.915,0,0,1-1.049,2.461,3.792,3.792,0,0,1-.566.961" transform="translate(9.065 30.342)" fill="#e1e1e1"/>
        <path id="Trazado_3684" data-name="Trazado 3684" d="M31.028,185.354a3.686,3.686,0,0,1-.52-.57l-1.332-1.612c-1.119-1.367-2.666-3.252-4.4-5.315s-3.328-3.913-4.483-5.25l-1.362-1.591a3.589,3.589,0,0,1-.47-.609,3.767,3.767,0,0,1,.562.534c.347.353.839.877,1.439,1.531,1.2,1.3,2.821,3.137,4.559,5.2s3.257,3.972,4.331,5.371c.538.7.967,1.271,1.253,1.672a3.542,3.542,0,0,1,.422.637" transform="translate(4.656 31.039)" fill="#e1e1e1"/>
        <path id="Trazado_3685" data-name="Trazado 3685" d="M25.612,179.745a7.145,7.145,0,0,1-1.741-3.077,8.348,8.348,0,0,1-.394-3.1l.139.011c-.063.236-.108.362-.131.358s-.028-.135-.006-.378l.138.009a13.454,13.454,0,0,0,.557,3.017,22.3,22.3,0,0,0,1.439,3.161" transform="translate(5.916 31.613)" fill="#e1e1e1"/>
        <path id="Trazado_3686" data-name="Trazado 3686" d="M22.784,173.6a5.644,5.644,0,0,0-1.216-.666,8.571,8.571,0,0,0-3.374-.253,21.937,21.937,0,0,0-3.4.517,10.769,10.769,0,0,1-1.4.317,5.018,5.018,0,0,1,1.337-.519,16.381,16.381,0,0,1,3.434-.61,7.778,7.778,0,0,1,3.481.353,2.121,2.121,0,0,1,1.132.861" transform="translate(3.38 31.391)" fill="#e1e1e1"/>
        <path id="Trazado_3687" data-name="Trazado 3687" d="M22.535,172.387c-.024.046-.706-.268-1.861-.64a19.776,19.776,0,0,0-9.383-.675c-1.2.2-1.927.414-1.942.365a1.821,1.821,0,0,1,.492-.2,12.36,12.36,0,0,1,1.406-.372,17.457,17.457,0,0,1,9.5.684,11.972,11.972,0,0,1,1.331.569,1.73,1.73,0,0,1,.455.267" transform="translate(2.358 31.057)" fill="#e1e1e1"/>
        <path id="Trazado_3688" data-name="Trazado 3688" d="M28.951,167.959a34.728,34.728,0,0,1-1.357-4.453,34.6,34.6,0,0,1-1.054-4.525,34.889,34.889,0,0,1,1.357,4.453,34.555,34.555,0,0,1,1.054,4.525" transform="translate(6.691 28.958)" fill="#e1e1e1"/>
        <path id="Trazado_3689" data-name="Trazado 3689" d="M29.282,167.32a20.944,20.944,0,0,0-1.505-2.666,12.119,12.119,0,0,0-2.215-2.159,2.122,2.122,0,0,1,.855.416,6.716,6.716,0,0,1,1.617,1.572,5.705,5.705,0,0,1,1.248,2.836" transform="translate(6.447 29.598)" fill="#e1e1e1"/>
        <path id="Trazado_3690" data-name="Trazado 3690" d="M32.481,220.809c-.034,0-.1-.493-.342-1.362a18.661,18.661,0,0,0-1.45-3.544A49.163,49.163,0,0,0,23,205.678c-1.717-1.851-3.384-3.6-4.8-5.27a37.127,37.127,0,0,1-3.429-4.668,22,22,0,0,1-1.732-3.465c-.158-.427-.274-.76-.339-.991a1.577,1.577,0,0,1-.089-.353c.028-.008.185.468.542,1.3a24.681,24.681,0,0,0,1.809,3.4,39.427,39.427,0,0,0,3.461,4.6c1.42,1.654,3.087,3.392,4.807,5.245a46.538,46.538,0,0,1,7.651,10.328,17.1,17.1,0,0,1,1.367,3.607,9.909,9.909,0,0,1,.193,1.027,1.611,1.611,0,0,1,.031.363" transform="translate(3.182 34.778)" fill="#e1e1e1"/>
        <path id="Trazado_3691" data-name="Trazado 3691" d="M45.6,200.759a7.917,7.917,0,0,1-.9.475,20.388,20.388,0,0,0-2.328,1.453,26.5,26.5,0,0,0-3.057,2.633c-1.073,1.07-2.178,2.313-3.306,3.643-2.255,2.672-4.365,5.036-5.628,6.923-.641.936-1.108,1.725-1.413,2.279a7.287,7.287,0,0,1-.495.852.771.771,0,0,1,.084-.241c.065-.151.157-.381.3-.662a21.3,21.3,0,0,1,1.335-2.341,76.954,76.954,0,0,1,5.57-6.995c1.132-1.333,2.249-2.578,3.342-3.647a24.614,24.614,0,0,1,3.133-2.611,16.651,16.651,0,0,1,2.4-1.387c.3-.141.54-.228.7-.294a.966.966,0,0,1,.254-.08" transform="translate(7.183 36.568)" fill="#e1e1e1"/>
        <path id="Trazado_3692" data-name="Trazado 3692" d="M44.806,205.773a14.055,14.055,0,0,1-1.9.26,26.265,26.265,0,0,0-4.5.837,13.816,13.816,0,0,0-4.028,1.994c-.928.677-1.366,1.238-1.409,1.206a1.339,1.339,0,0,1,.28-.413,6.879,6.879,0,0,1,.988-.954,12.411,12.411,0,0,1,4.072-2.116,21.389,21.389,0,0,1,4.573-.763,11.23,11.23,0,0,1,1.918-.052" transform="translate(8.316 37.477)" fill="#e1e1e1"/>
        <path id="Trazado_3693" data-name="Trazado 3693" d="M33.417,209.789c-.1-.052.756-1.285,1.419-2.942.622-1.673.768-3.141.879-3.124a2.706,2.706,0,0,1-.031.962,9.81,9.81,0,0,1-.553,2.263,10.678,10.678,0,0,1-1.1,2.076,2.937,2.937,0,0,1-.612.766" transform="translate(8.427 37.108)" fill="#e1e1e1"/>
        <path id="Trazado_3694" data-name="Trazado 3694" d="M51.148,187.308a1.43,1.43,0,0,1-.3.152l-.892.382c-.391.158-.864.359-1.4.624s-1.162.531-1.813.9c-.329.178-.676.363-1.034.556s-.714.426-1.092.649c-.763.437-1.526.975-2.343,1.525a43.416,43.416,0,0,0-4.889,4.06,42.014,42.014,0,0,0-4.132,4.753c-.553.788-1.1,1.529-1.534,2.263-.223.364-.457.707-.65,1.052s-.377.677-.553.994c-.367.629-.631,1.227-.889,1.741s-.46.967-.614,1.341c-.152.346-.274.629-.374.854a1.365,1.365,0,0,1-.15.293,1.259,1.259,0,0,1,.091-.312l.319-.876a14.442,14.442,0,0,1,.567-1.365c.243-.523.493-1.131.852-1.768q.259-.482.538-1.01c.189-.35.418-.7.639-1.067.43-.745.968-1.494,1.52-2.293a40.325,40.325,0,0,1,4.144-4.8,41.648,41.648,0,0,1,4.944-4.074c.828-.547,1.6-1.082,2.377-1.512.383-.221.744-.448,1.108-.64s.715-.369,1.049-.541c.662-.361,1.3-.617,1.843-.865s1.027-.439,1.426-.58l.915-.332a1.522,1.522,0,0,1,.328-.1" transform="translate(7.185 34.118)" fill="#e1e1e1"/>
        <path id="Trazado_3695" data-name="Trazado 3695" d="M35.762,194.888a2.045,2.045,0,0,1,.745-1.047,4.854,4.854,0,0,1,3-1.088,8.64,8.64,0,0,1,3.161.583,4.655,4.655,0,0,1,1.195.547,7.612,7.612,0,0,1-1.269-.35,10.044,10.044,0,0,0-3.075-.485,5.074,5.074,0,0,0-2.869.95,8.529,8.529,0,0,0-.889.889" transform="translate(9.019 35.109)" fill="#e1e1e1"/>
        <path id="Trazado_3696" data-name="Trazado 3696" d="M34.144,197.053A10.326,10.326,0,0,0,35,194.434,10.037,10.037,0,0,0,34.8,191.7c.035-.014.205.264.353.762a5.047,5.047,0,0,1,.15,2,5.156,5.156,0,0,1-.635,1.92c-.265.452-.5.687-.528.666" transform="translate(8.61 34.918)" fill="#e1e1e1"/>
        <path id="Trazado_3697" data-name="Trazado 3697" d="M16.52,218.685c.467,7.823,2.964,15.779,6.806,23.823h16.7c3.664-7.964,5.989-15.908,6.4-23.823Z" transform="translate(4.167 39.833)" fill="#e1e1e1"/>
        <path id="Trazado_3698" data-name="Trazado 3698" d="M43.191,229.416c0,.082-5.5.149-12.282.149s-12.282-.067-12.282-.149,5.5-.148,12.282-.148,12.282.067,12.282.148" transform="translate(4.698 41.761)" fill="#fafafa"/>
        <path id="Trazado_3699" data-name="Trazado 3699" d="M42.583,231.814c0,.082-5.155.148-11.513.148s-11.515-.066-11.515-.148,5.155-.148,11.515-.148,11.513.067,11.513.148" transform="translate(4.932 42.198)" fill="#fafafa"/>
        <path id="Trazado_3700" data-name="Trazado 3700" d="M22.2,223.03a42.219,42.219,0,0,1,0,7.264,41.886,41.886,0,0,1,0-7.264" transform="translate(5.56 40.625)" fill="#fafafa"/>
        <path id="Trazado_3701" data-name="Trazado 3701" d="M29.348,223.03a44.9,44.9,0,0,1,0,7.522,45.262,45.262,0,0,1,0-7.522" transform="translate(7.363 40.625)" fill="#fafafa"/>
        <path id="Trazado_3702" data-name="Trazado 3702" d="M36.057,222.976a46.713,46.713,0,0,1,0,7.672,47.083,47.083,0,0,1,0-7.672" transform="translate(9.055 40.615)" fill="#fafafa"/>
        <path id="Trazado_3703" data-name="Trazado 3703" d="M45.784,223.053c0,.082-6.449.149-14.4.149s-14.407-.067-14.407-.149,6.45-.148,14.407-.148,14.4.067,14.4.148" transform="translate(4.281 40.602)" fill="#fafafa"/>
        <rect id="Rectángulo_433" data-name="Rectángulo 433" width="46.609" height="45.866" transform="translate(25.487 69.231)" fill="#e1e1e1"/>
        <rect id="Rectángulo_434" data-name="Rectángulo 434" width="46.609" height="45.866" transform="translate(22.331 69.231)" fill="#fafafa"/>
        <path id="Trazado_3704" data-name="Trazado 3704" d="M64.459,104.446H17.822V58.553H64.459Zm-46.608-.028H64.43V58.58H17.851Z" transform="translate(4.495 10.665)" fill="#e1e1e1"/>
        <rect id="Rectángulo_435" data-name="Rectángulo 435" width="34.077" height="33.535" transform="translate(28.597 75.396)" fill="#fafafa"/>
        <path id="Trazado_3705" data-name="Trazado 3705" d="M24.09,92.336a5.4,5.4,0,0,1-.841.923c-.543.541-1.309,1.276-2.165,2.072s-1.647,1.508-2.228,2.012a5.414,5.414,0,0,1-.984.775,5.164,5.164,0,0,1,.836-.92c.545-.543,1.311-1.278,2.171-2.078s1.649-1.511,2.23-2.014a5.375,5.375,0,0,1,.98-.771" transform="translate(4.507 16.819)" fill="#e1e1e1"/>
        <path id="Trazado_3706" data-name="Trazado 3706" d="M50.05,92.266a5.522,5.522,0,0,1,.978.793c.575.513,1.351,1.237,2.2,2.045s1.6,1.553,2.13,2.1a5.2,5.2,0,0,1,.821.93,5.383,5.383,0,0,1-.974-.79c-.575-.514-1.354-1.238-2.2-2.051s-1.6-1.556-2.134-2.105a5.2,5.2,0,0,1-.816-.924" transform="translate(12.624 16.806)" fill="#e1e1e1"/>
        <path id="Trazado_3707" data-name="Trazado 3707" d="M49.975,64.746a5.4,5.4,0,0,1,.841-.923c.543-.541,1.309-1.276,2.165-2.072s1.645-1.508,2.228-2.012a5.415,5.415,0,0,1,.984-.775,5.164,5.164,0,0,1-.836.92c-.545.543-1.311,1.278-2.171,2.078s-1.649,1.511-2.23,2.016a5.4,5.4,0,0,1-.98.77" transform="translate(12.605 10.74)" fill="#e1e1e1"/>
        <path id="Trazado_3708" data-name="Trazado 3708" d="M24,64.829a5.308,5.308,0,0,1-.978-.792c-.576-.513-1.351-1.237-2.2-2.045s-1.6-1.553-2.129-2.1a5.133,5.133,0,0,1-.821-.93,5.434,5.434,0,0,1,.974.79c.575.514,1.352,1.238,2.2,2.051s1.6,1.556,2.135,2.105a5.345,5.345,0,0,1,.816.923" transform="translate(4.507 10.739)" fill="#e1e1e1"/>
        <path id="Trazado_3709" data-name="Trazado 3709" d="M56.851,97.336a1.464,1.464,0,0,1-.008-.163c0-.113-.005-.268-.008-.468q-.006-.631-.015-1.81c-.008-1.589-.02-3.9-.035-6.835-.015-5.873-.039-14.24-.065-24.258l.13.123-33.982.019h0l.15-.142C23.011,76.109,23,87.625,23,97.336l-.13-.123,24.608.063,6.911.033,1.828.013.473.007a1.545,1.545,0,0,1,.164.007,1.107,1.107,0,0,1-.15.007l-.458.007-1.8.013-6.882.033c-5.964.014-14.471.035-24.689.063h-.129v-.123c-.006-9.711-.014-21.227-.023-33.534v-.143h.154l33.982.018h.131V63.8c-.028,10.051-.051,18.444-.066,24.338-.015,2.922-.028,5.224-.035,6.807-.006.774-.011,1.371-.015,1.785,0,.194-.005.344-.008.455a1.051,1.051,0,0,1-.008.149" transform="translate(5.729 11.595)" fill="#e1e1e1"/>
        <rect id="Rectángulo_436" data-name="Rectángulo 436" width="11.37" height="10.735" transform="translate(39.95 86.797)" fill="#ececec"/>
        <rect id="Rectángulo_437" data-name="Rectángulo 437" width="38.839" height="38.22" transform="translate(75.958 25.382)" fill="#e1e1e1"/>
        <rect id="Rectángulo_438" data-name="Rectángulo 438" width="38.84" height="38.22" transform="translate(73.327 25.382)" fill="#fafafa"/>
        <path id="Trazado_3710" data-name="Trazado 3710" d="M97.411,59.7H58.548V21.461H97.411Zm-38.839-.021H97.387v-38.2H58.572Z" transform="translate(14.767 3.909)" fill="#e1e1e1"/>
        <rect id="Rectángulo_439" data-name="Rectángulo 439" width="28.397" height="27.946" transform="translate(78.548 30.52)" fill="#fafafa"/>
        <path id="Trazado_3711" data-name="Trazado 3711" d="M63.771,49.614a4.431,4.431,0,0,1-.7.768c-.453.452-1.091,1.064-1.806,1.727s-1.371,1.257-1.855,1.676a4.347,4.347,0,0,1-.821.645,4.447,4.447,0,0,1,.7-.765c.453-.452,1.093-1.065,1.809-1.731s1.375-1.26,1.858-1.68a4.275,4.275,0,0,1,.818-.642" transform="translate(14.777 9.037)" fill="#e1e1e1"/>
        <path id="Trazado_3712" data-name="Trazado 3712" d="M85.4,49.555a4.505,4.505,0,0,1,.814.662c.48.428,1.127,1.03,1.831,1.7s1.331,1.3,1.776,1.751a4.228,4.228,0,0,1,.684.777,4.69,4.69,0,0,1-.811-.658c-.478-.428-1.128-1.032-1.833-1.708s-1.335-1.3-1.779-1.755a4.138,4.138,0,0,1-.68-.771" transform="translate(21.541 9.026)" fill="#e1e1e1"/>
        <path id="Trazado_3713" data-name="Trazado 3713" d="M85.343,26.624a4.3,4.3,0,0,1,.7-.768c.453-.453,1.091-1.064,1.8-1.728S89.22,22.87,89.7,22.451a4.41,4.41,0,0,1,.821-.645,4.448,4.448,0,0,1-.7.765c-.453.453-1.092,1.066-1.808,1.732s-1.375,1.26-1.86,1.68a4.342,4.342,0,0,1-.816.642" transform="translate(21.526 3.972)" fill="#e1e1e1"/>
        <path id="Trazado_3714" data-name="Trazado 3714" d="M63.693,26.692a4.441,4.441,0,0,1-.814-.662c-.48-.428-1.127-1.03-1.831-1.7s-1.331-1.294-1.776-1.751a4.249,4.249,0,0,1-.684-.775,4.62,4.62,0,0,1,.811.658c.478.428,1.128,1.031,1.833,1.707s1.335,1.3,1.779,1.755a4.182,4.182,0,0,1,.68.771" transform="translate(14.777 3.971)" fill="#e1e1e1"/>
        <path id="Trazado_3715" data-name="Trazado 3715" d="M91.073,53.781a.934.934,0,0,1-.006-.136c0-.095,0-.225-.006-.39,0-.35-.008-.855-.014-1.508-.005-1.324-.015-3.251-.028-5.7-.015-4.894-.033-11.866-.056-20.216l.11.1-28.317.015h0l.124-.119c-.006,10.258-.011,19.853-.016,27.946l-.108-.1,20.5.053,5.759.026,1.525.012.394.006a1,1,0,0,1,.136.006s-.04,0-.126.006l-.381.006-1.5.012c-1.334,0-3.272.014-5.736.026l-20.573.052h-.109v-.1c-.005-8.093-.011-17.688-.018-27.946v-.118h.129l28.317.015h.109v.1c-.024,8.377-.041,15.371-.055,20.282-.013,2.435-.023,4.354-.029,5.672-.005.645-.01,1.143-.013,1.488,0,.162-.005.286-.006.379s-.005.125-.006.124" transform="translate(15.796 4.684)" fill="#e1e1e1"/>
        <rect id="Rectángulo_440" data-name="Rectángulo 440" width="9.476" height="8.945" transform="translate(88.009 40.02)" fill="#ececec"/>
        <path id="Trazado_3716" data-name="Trazado 3716" d="M224.169,138.409a5.527,5.527,0,1,1-5.517-5.207,5.369,5.369,0,0,1,5.517,5.207" transform="translate(53.758 24.263)" fill="#e1e1e1"/>
        <path id="Trazado_3717" data-name="Trazado 3717" d="M211.519,138.462a5.887,5.887,0,1,1-5.877-5.548,5.719,5.719,0,0,1,5.877,5.548" transform="translate(50.386 24.21)" fill="#e1e1e1"/>
        <path id="Trazado_3718" data-name="Trazado 3718" d="M201.9,130.211a6.249,6.249,0,1,1-6.237-5.889,6.07,6.07,0,0,1,6.237,5.889" transform="translate(47.777 22.645)" fill="#e1e1e1"/>
        <path id="Trazado_3719" data-name="Trazado 3719" d="M200.189,117.486a6.527,6.527,0,1,1-6.515-6.151,6.342,6.342,0,0,1,6.515,6.151" transform="translate(47.206 20.28)" fill="#e1e1e1"/>
        <path id="Trazado_3720" data-name="Trazado 3720" d="M206.823,106.34a6.745,6.745,0,1,1-6.733-6.356,6.553,6.553,0,0,1,6.733,6.356" transform="translate(48.769 18.212)" fill="#e1e1e1"/>
        <path id="Trazado_3721" data-name="Trazado 3721" d="M219.8,102.014a7.351,7.351,0,1,1-7.338-6.929,7.142,7.142,0,0,1,7.338,6.929" transform="translate(51.737 17.32)" fill="#e1e1e1"/>
        <path id="Trazado_3722" data-name="Trazado 3722" d="M233.663,129.976a5.338,5.338,0,1,1-5.33-5.031,5.186,5.186,0,0,1,5.33,5.031" transform="translate(56.248 22.759)" fill="#e1e1e1"/>
        <path id="Trazado_3723" data-name="Trazado 3723" d="M235.479,117.114a4.954,4.954,0,1,1-4.945-4.669,4.813,4.813,0,0,1,4.945,4.669" transform="translate(56.899 20.482)" fill="#e1e1e1"/>
        <path id="Trazado_3724" data-name="Trazado 3724" d="M228.4,105.871a4.526,4.526,0,1,1-4.518-4.265,4.4,4.4,0,0,1,4.518,4.265" transform="translate(55.329 18.507)" fill="#e1e1e1"/>
        <path id="Trazado_3725" data-name="Trazado 3725" d="M188,70.251s.01-.073.039-.21.078-.349.136-.608c.126-.546.312-1.331.547-2.339.49-2.039,1.192-4.974,2.062-8.6,1.768-7.271,4.207-17.309,6.911-28.428l.123-.5.12.5c.049.2.1.415.152.632,2.689,11.275,5.123,21.482,6.889,28.882.867,3.689,1.57,6.679,2.059,8.757.237,1.027.42,1.829.548,2.383.058.266.1.472.135.622s.038.213.038.213-.024-.069-.063-.207-.091-.353-.159-.617c-.139-.553-.338-1.351-.594-2.374-.507-2.074-1.236-5.058-2.136-8.742l-6.96-28.866c-.051-.218-.1-.433-.152-.632h.243c-2.732,11.113-5.2,21.145-6.985,28.412-.9,3.617-1.63,6.547-2.138,8.584-.255,1-.455,1.784-.592,2.328q-.1.387-.16.6c-.038.135-.064.2-.064.2" transform="translate(47.42 5.385)" fill="#1a2e35"/>
        <path id="Trazado_3726" data-name="Trazado 3726" d="M188,72.224V65.087h20.17v7.137a8.565,8.565,0,0,1-8.8,8.308H196.8a8.564,8.564,0,0,1-8.8-8.308" transform="translate(47.419 11.856)" fill="#375a64"/>
        <path id="Trazado_3727" data-name="Trazado 3727" d="M188,65.087a2.228,2.228,0,0,1,.229.3q.229.328.615.883l2.223,3.275,7.254,10.847c.019.027.036.053.051.078h-.212c2.745-4.255,5.226-8.1,7.035-10.908l2.155-3.288q.374-.559.6-.888a2.139,2.139,0,0,1,.222-.3,2.051,2.051,0,0,1-.179.325l-.556.911c-.507.806-1.216,1.938-2.087,3.327l-6.974,10.942-.1.164-.108-.162c-.015-.024-.034-.051-.051-.077l-7.193-10.885c-.9-1.383-1.634-2.51-2.156-3.314-.24-.378-.431-.681-.576-.908a2.086,2.086,0,0,1-.185-.324" transform="translate(47.419 11.855)" fill="#1a2e35"/>
        <path id="Trazado_3728" data-name="Trazado 3728" d="M198.539,30.257a2.206,2.206,0,1,1-2.2-2.081,2.144,2.144,0,0,1,2.2,2.081" transform="translate(48.966 5.132)" fill="#1a2e35"/>
        <path id="Trazado_3729" data-name="Trazado 3729" d="M195.918,0c.07,0,.125,8.01.125,17.888s-.055,17.891-.125,17.891-.124-8.009-.124-17.891S195.849,0,195.918,0" transform="translate(49.385)" fill="#1a2e35"/>
        <path id="Trazado_3730" data-name="Trazado 3730" d="M197.187,78.944a.945.945,0,1,1-.944-.89.92.92,0,0,1,.944.89" transform="translate(49.26 14.217)" fill="#1a2e35"/>
        <path id="Trazado_3731" data-name="Trazado 3731" d="M195.889,79.13c.049-.025.1-.047.149-.072a1.971,1.971,0,0,0-.953,1.474,4.976,4.976,0,0,0,.162,1.772c.043.186.145.416.348.4.18-.009.267-.213.3-.382a3.549,3.549,0,0,0,.028-1.067,1.812,1.812,0,0,0,.437,1.259.26.26,0,0,0,.237.117c.084-.022.121-.115.144-.2a3.915,3.915,0,0,0,.142-.915,1.37,1.37,0,0,0,.3.744.542.542,0,0,0,.753.045.643.643,0,0,0,.079-.519,5.968,5.968,0,0,0-1.317-2.925" transform="translate(49.198 14.366)" fill="#1a2e35"/>
        <path id="Trazado_3732" data-name="Trazado 3732" d="M190.652,69.481s-9.062-9.861-8.056-10.218,9.061,5.11,9.061,5.11-6.922-14.615-5.537-15.684S194.8,61.64,194.8,61.64s-1.132-20.436,0-20.672S200.09,61.4,200.09,61.4s6.168-18.891,7.928-18.891-1.886,18.178-1.886,18.178,7.3-11.643,8.431-10.1-5.16,14.136-5.16,14.136,9.189-7.245,9.564-6.3-9.94,11.05-9.94,11.05Z" transform="translate(46.036 7.462)" fill="#ff4f5b"/>
        <path id="Trazado_3733" data-name="Trazado 3733" d="M188,52.524c.064-.026,1.67,3.226,3.59,7.265s3.426,7.334,3.363,7.36-1.669-3.225-3.59-7.264S187.942,52.55,188,52.524" transform="translate(47.419 9.567)" fill="#1a2e35"/>
        <path id="Trazado_3734" data-name="Trazado 3734" d="M193.852,54.061c.069,0,.337,2.863.6,6.4s.417,6.417.348,6.421-.336-2.862-.6-6.4-.417-6.416-.348-6.42" transform="translate(48.891 9.847)" fill="#1a2e35"/>
        <path id="Trazado_3735" data-name="Trazado 3735" d="M203.189,46.319a.811.811,0,0,1-.053.232c-.054.175-.12.389-.2.65-.19.6-.447,1.4-.759,2.381-.637,2.01-1.5,4.792-2.372,7.886s-1.6,5.912-2.1,7.955c-.247,1-.45,1.815-.6,2.421l-.172.657a.805.805,0,0,1-.076.225.9.9,0,0,1,.028-.235c.034-.179.074-.4.124-.667.113-.577.292-1.41.522-2.436.465-2.055,1.162-4.882,2.036-7.98s1.764-5.876,2.447-7.875c.341-1,.626-1.806.834-2.36.1-.255.177-.466.243-.636a.933.933,0,0,1,.1-.218" transform="translate(49.652 8.437)" fill="#1a2e35"/>
        <path id="Trazado_3736" data-name="Trazado 3736" d="M207.033,55.23c.056.037-1.713,2.526-3.95,5.56s-4.1,5.464-4.156,5.426,1.713-2.526,3.952-5.56,4.1-5.463,4.154-5.426" transform="translate(50.175 10.06)" fill="#1a2e35"/>
        <path id="Trazado_3737" data-name="Trazado 3737" d="M192.385,65.6a3.445,3.445,0,0,1-.794-.534,21.39,21.39,0,0,1-1.723-1.5,20.932,20.932,0,0,1-1.548-1.664,3.348,3.348,0,0,1-.547-.761c.058-.044,1,1.034,2.273,2.263s2.385,2.148,2.339,2.2" transform="translate(47.361 11.135)" fill="#1a2e35"/>
        <path id="Trazado_3738" data-name="Trazado 3738" d="M195.857,61.6a8.575,8.575,0,0,1,.322,2.034,8.522,8.522,0,0,1,.073,2.056,8.655,8.655,0,0,1-.319-2.034,8.529,8.529,0,0,1-.075-2.056" transform="translate(49.392 11.219)" fill="#1a2e35"/>
        <path id="Trazado_3739" data-name="Trazado 3739" d="M208.16,68.849a5.017,5.017,0,0,1-.78.152c-.5.084-1.236.192-2.143.311-1.813.236-4.331.506-7.128.6a47.814,47.814,0,0,1-7.151-.281c-.91-.111-1.643-.223-2.143-.325a5.2,5.2,0,0,1-.775-.174,5.337,5.337,0,0,1,.79.084c.506.073,1.24.161,2.146.251a56.277,56.277,0,0,0,7.125.212c2.784-.091,5.3-.335,7.113-.528l2.151-.235a5.067,5.067,0,0,1,.794-.063" transform="translate(47.429 12.54)" fill="#fff"/>
        <path id="Trazado_3740" data-name="Trazado 3740" d="M208.16,70.647a5.2,5.2,0,0,1-.78.152c-.5.083-1.236.192-2.143.31-1.813.236-4.331.507-7.128.6a47.792,47.792,0,0,1-7.151-.283c-.91-.111-1.643-.222-2.143-.324a4.908,4.908,0,0,1-.775-.175,5.262,5.262,0,0,1,.79.085c.506.072,1.24.16,2.146.251a56.31,56.31,0,0,0,7.125.21c2.784-.09,5.3-.333,7.113-.527.877-.1,1.6-.175,2.151-.236a4.953,4.953,0,0,1,.794-.061" transform="translate(47.429 12.867)" fill="#fff"/>
        <path id="Trazado_3741" data-name="Trazado 3741" d="M88.32,87.009,86.088,92a17.051,17.051,0,0,1,1.15,3.531,45.039,45.039,0,0,1-.887,6.062,1.323,1.323,0,0,1-1.347-.94,18.431,18.431,0,0,1,.2-2.875,1.342,1.342,0,0,0-2.2.209c-.622,1.206-1.355,2.6-1.483,2.77a14.58,14.58,0,0,0,.292,3.319.872.872,0,0,1-1.511.668.39.39,0,0,1-.093-.209s-.833,1.147-1.645-.959c0,0-1.65-.794-1.685-2.081a8.263,8.263,0,0,1-1.7-2.543c-.2-.953,3.233-6.69,3.233-6.69l4.228-8.245Z" transform="translate(18.959 15.304)" fill="#ffc09d"/>
        <path id="Trazado_3742" data-name="Trazado 3742" d="M80.161,95.232a3.952,3.952,0,0,0-.743.9,5.831,5.831,0,0,0-1.086,2.579,5.31,5.31,0,0,0,.575,2.725,3.726,3.726,0,0,0,.576,1.006,5.087,5.087,0,0,0-.371-1.083,5.922,5.922,0,0,1-.47-2.617,6.581,6.581,0,0,1,.965-2.5,4.936,4.936,0,0,0,.552-1.011" transform="translate(19.753 17.346)" fill="#ff9b6c"/>
        <path id="Trazado_3743" data-name="Trazado 3743" d="M78.786,94.937c-.029-.028-.358.242-.726.792a7.114,7.114,0,0,0-.567,1,3.38,3.38,0,0,0-.371,1.378,5.775,5.775,0,0,0,.243,1.384l.3,1.085a3.435,3.435,0,0,0,.356.984,3.525,3.525,0,0,0-.14-1.031c-.063-.312-.142-.689-.239-1.1a6.519,6.519,0,0,1-.21-1.325,3.436,3.436,0,0,1,.323-1.272,10.185,10.185,0,0,1,.492-1c.311-.562.567-.868.536-.9" transform="translate(19.452 17.292)" fill="#ff9b6c"/>
        <path id="Trazado_3744" data-name="Trazado 3744" d="M77.126,94.722a7.922,7.922,0,0,0-1.152,2.318,1.092,1.092,0,0,0-.056.575A3.753,3.753,0,0,0,76,98.1a4.443,4.443,0,0,0,.258.793c.19.44.4.67.43.648a3.806,3.806,0,0,0-.22-.715,7.144,7.144,0,0,1-.185-.778,4.364,4.364,0,0,1-.06-.46.882.882,0,0,1,.04-.441c.274-.666.49-1.266.645-1.706a3.132,3.132,0,0,0,.218-.723" transform="translate(19.145 17.253)" fill="#ff9b6c"/>
        <path id="Trazado_3745" data-name="Trazado 3745" d="M156.607,76.6l2.206-2.127a1.146,1.146,0,0,1,.585-.366.756.756,0,0,1,.794.733,1.848,1.848,0,0,1-.433,1.091,2.691,2.691,0,0,0-.551,1.053" transform="translate(39.501 13.497)" fill="#ffc09d"/>
        <path id="Trazado_3746" data-name="Trazado 3746" d="M180.476,61.2,168.811,80.312,147,80.459a1.878,1.878,0,0,1,1.774-1.92l19.084-.366,9.92-16.055a1.919,1.919,0,0,1,2.7-.915" transform="translate(37.076 11.109)" fill="#1a2e35"/>
        <path id="Trazado_3747" data-name="Trazado 3747" d="M159.418,77.375c.108-.025-6.891,0-6.5.1.033.072.066.143.1.216l.908,3.776a45.594,45.594,0,0,0,6.116-1.13,10.7,10.7,0,0,0,2.2-1.61l0-1.362Z" transform="translate(38.567 14.092)" fill="#ffc09d"/>
        <path id="Trazado_3748" data-name="Trazado 3748" d="M159.712,80.119l-16.595-.649L135.45,62.393,127.294,73.4l6.563,11.142a8.521,8.521,0,0,0,7.721,4.069l19.339-2.09Z" transform="translate(32.107 11.365)" fill="#ff4f5b"/>
        <path id="Trazado_3749" data-name="Trazado 3749" d="M157.483,144.845l1.279,11.024s12.163,1.679,12.61,3.694l-22.417,3.906-2.739-17.1Z" transform="translate(36.879 26.383)" fill="#ff4f5b"/>
        <g id="Grupo_583" data-name="Grupo 583" transform="translate(187.987 182.221)" opacity="0.6">
          <g id="Grupo_582" data-name="Grupo 582">
            <g id="Grupo_581" data-name="Grupo 581" clip-path="url(#clip-path-3)">
              <path id="Trazado_3750" data-name="Trazado 3750" d="M150.659,154.214a.862.862,0,0,0-.483,1.08.887.887,0,0,0,1.635-.684.956.956,0,0,0-1.231-.357" transform="translate(-150.122 -154.144)" fill="#fff"/>
            </g>
          </g>
        </g>
        <g id="Grupo_586" data-name="Grupo 586" transform="translate(185.558 185.07)" opacity="0.6">
          <g id="Grupo_585" data-name="Grupo 585">
            <g id="Grupo_584" data-name="Grupo 584" clip-path="url(#clip-path-4)">
              <path id="Trazado_3751" data-name="Trazado 3751" d="M148.458,161.336l-.277-1.724,21.785-3.059a1.552,1.552,0,0,1,1.052,1.012Z" transform="translate(-148.182 -156.554)" fill="#fff"/>
            </g>
          </g>
        </g>
        <path id="Trazado_3752" data-name="Trazado 3752" d="M156.891,154.045c.013.105-.531.228-1.021.637s-.713.885-.82.858c-.1-.006-.036-.65.566-1.135s1.284-.459,1.275-.361" transform="translate(39.098 28.048)" fill="#1a2e35"/>
        <path id="Trazado_3753" data-name="Trazado 3753" d="M158.775,154.547c.041.1-.408.339-.714.831-.322.482-.343.971-.453.981-.1.032-.27-.566.121-1.172s1.028-.74,1.046-.641" transform="translate(39.722 28.145)" fill="#1a2e35"/>
        <path id="Trazado_3754" data-name="Trazado 3754" d="M159.961,156.94c-.1.035-.331-.463-.135-1.071s.675-.906.735-.825-.212.428-.364.93-.128.941-.235.966" transform="translate(40.293 28.239)" fill="#1a2e35"/>
        <path id="Trazado_3755" data-name="Trazado 3755" d="M156.513,151.975c-.031.1-.558.026-1.175.153s-1.073.378-1.145.3c-.075-.066.338-.517,1.066-.655s1.295.116,1.253.206" transform="translate(38.89 27.637)" fill="#1a2e35"/>
        <g id="Grupo_589" data-name="Grupo 589" transform="translate(183.409 173.412)" opacity="0.3">
          <g id="Grupo_588" data-name="Grupo 588">
            <g id="Grupo_587" data-name="Grupo 587" clip-path="url(#clip-path-5)">
              <path id="Trazado_3756" data-name="Trazado 3756" d="M157.67,146.692l.23,1.965-11.1,1.433-.334-2.059Z" transform="translate(-146.466 -146.692)"/>
            </g>
          </g>
        </g>
        <path id="Trazado_3757" data-name="Trazado 3757" d="M156.534,150.265a2.247,2.247,0,0,1-1.131.15A5.472,5.472,0,0,1,153.47,150a1.427,1.427,0,0,1-.381-.2.443.443,0,0,1-.135-.546.607.607,0,0,1,.446-.305,1.512,1.512,0,0,1,.432,0,4.076,4.076,0,0,1,.738.13,4.2,4.2,0,0,1,1.141.5c.594.385.833.749.8.774-.044.041-.349-.249-.939-.552a4.747,4.747,0,0,0-1.091-.4,4.316,4.316,0,0,0-.679-.1c-.247-.027-.451,0-.5.108-.018.043-.018.057.043.117a1.2,1.2,0,0,0,.279.148,6.433,6.433,0,0,0,.646.24,6.524,6.524,0,0,0,1.153.245,8.406,8.406,0,0,1,1.109.108" transform="translate(38.567 27.127)" fill="#1a2e35"/>
        <path id="Trazado_3758" data-name="Trazado 3758" d="M155.813,150.743c-.036.022-.313-.32-.457-.988a3.3,3.3,0,0,1,.162-1.876.912.912,0,0,1,.636-.637.543.543,0,0,1,.518.232,1.424,1.424,0,0,1,.177.376,2.249,2.249,0,0,1,.111.718,2.363,2.363,0,0,1-.312,1.167c-.356.614-.8.8-.81.767-.045-.047.308-.3.563-.877a2.359,2.359,0,0,0,.2-1.052,2.056,2.056,0,0,0-.116-.612c-.07-.222-.188-.392-.274-.356-.113.013-.275.209-.341.4a3.564,3.564,0,0,0-.19.616,3.625,3.625,0,0,0-.054,1.095c.065.629.243,1,.185,1.026" transform="translate(39.168 26.819)" fill="#1a2e35"/>
        <path id="Trazado_3759" data-name="Trazado 3759" d="M85,151.566,74.1,155.683s1.545,11.512-.391,12.459L63.713,148.8l16.717-7.074Z" transform="translate(16.07 25.815)" fill="#ff4f5b"/>
        <g id="Grupo_592" data-name="Grupo 592" transform="translate(86.651 174.731)" opacity="0.6">
          <g id="Grupo_591" data-name="Grupo 591">
            <g id="Grupo_590" data-name="Grupo 590" clip-path="url(#clip-path-6)">
              <path id="Trazado_3760" data-name="Trazado 3760" d="M70.766,148.114a.97.97,0,0,0-1.231-.151.814.814,0,0,0-.169,1.153,1.023,1.023,0,0,0,1.3.152.843.843,0,0,0,.035-1.216" transform="translate(-69.198 -147.808)" fill="#fff"/>
            </g>
          </g>
        </g>
        <g id="Grupo_595" data-name="Grupo 595" transform="translate(79.782 173.903)" opacity="0.6">
          <g id="Grupo_594" data-name="Grupo 594">
            <g id="Grupo_593" data-name="Grupo 593" clip-path="url(#clip-path-7)">
              <path id="Trazado_3761" data-name="Trazado 3761" d="M63.713,147.821l1.685-.714L74.357,166.1a1.463,1.463,0,0,1-.751,1.227Z" transform="translate(-63.712 -147.107)" fill="#fff"/>
            </g>
          </g>
        </g>
        <path id="Trazado_3762" data-name="Trazado 3762" d="M72.616,153.975c-.1.039-.376-.421-.923-.759s-1.094-.408-1.1-.513c-.023-.1.654-.208,1.311.21s.81,1.043.708,1.062" transform="translate(17.806 27.798)" fill="#1a2e35"/>
        <path id="Trazado_3763" data-name="Trazado 3763" d="M72.7,155.961c-.088.064-.456-.28-1.041-.427-.579-.163-1.082-.051-1.123-.149-.058-.084.507-.4,1.228-.2s1.031.736.935.779" transform="translate(17.789 28.255)" fill="#1a2e35"/>
        <path id="Trazado_3764" data-name="Trazado 3764" d="M70.608,157.81c-.063-.078.383-.424,1.057-.411s1.106.371,1.039.447-.495-.077-1.047-.08-.994.136-1.049.045" transform="translate(17.808 28.67)" fill="#1a2e35"/>
        <path id="Trazado_3765" data-name="Trazado 3765" d="M74.324,153.061c-.111,0-.178-.5-.471-1.028s-.672-.874-.609-.961c.048-.086.617.169.953.794s.229,1.209.126,1.2" transform="translate(18.472 27.515)" fill="#1a2e35"/>
        <g id="Grupo_598" data-name="Grupo 598" transform="translate(92.533 168.488)" opacity="0.3">
          <g id="Grupo_597" data-name="Grupo 597">
            <g id="Grupo_596" data-name="Grupo 596" clip-path="url(#clip-path-8)">
              <path id="Trazado_3766" data-name="Trazado 3766" d="M80.274,152.234l-1.943.736-4.437-9.711,1.719-.732Z" transform="translate(-73.895 -142.527)"/>
            </g>
          </g>
        </g>
        <path id="Trazado_3767" data-name="Trazado 3767" d="M75.972,152.561a1.974,1.974,0,0,1-.457-.988,4.532,4.532,0,0,1-.147-1.17,4.683,4.683,0,0,1,.053-.7,1.247,1.247,0,0,1,.106-.4.488.488,0,0,1,.521-.27.6.6,0,0,1,.43.324,1.36,1.36,0,0,1,.119.391,3.614,3.614,0,0,1-.141,1.878c-.235.644-.542.959-.576.934-.055-.03.16-.384.312-1a4.146,4.146,0,0,0,.114-1.1,3.8,3.8,0,0,0-.081-.643c-.039-.233-.121-.41-.244-.423-.046,0-.063,0-.106.071a1.029,1.029,0,0,0-.078.293,5.323,5.323,0,0,0-.07.653,5.671,5.671,0,0,0,.059,1.114,7.192,7.192,0,0,1,.188,1.038" transform="translate(19.01 27.144)" fill="#1a2e35"/>
        <path id="Trazado_3768" data-name="Trazado 3768" d="M75.686,152.124c-.031-.026.244-.37.887-.68a3.9,3.9,0,0,1,1.957-.357.965.965,0,0,1,.823.409.484.484,0,0,1-.1.533,1.58,1.58,0,0,1-.336.261,2.655,2.655,0,0,1-.7.294,2.794,2.794,0,0,1-1.276.028c-.72-.16-1.029-.51-1-.532a9.689,9.689,0,0,0,1.047.277,2.761,2.761,0,0,0,1.127-.1,2.443,2.443,0,0,0,.595-.27c.207-.124.348-.277.291-.345a.676.676,0,0,0-.5-.2,3.98,3.98,0,0,0-.68-.008,4.32,4.32,0,0,0-1.131.244c-.625.228-.958.491-1,.445" transform="translate(19.09 27.518)" fill="#1a2e35"/>
        <path id="Trazado_3769" data-name="Trazado 3769" d="M145.18,32.1c-1.711-1-4.087.092-5.9-.734-1.1-.5-1.732-1.595-2.612-2.394a6.4,6.4,0,0,0-5.246-1.5c-1.786.365-3.025.919-3.7,2.522-1.218-1.132-4.085-.022-5.358,1.42a7.381,7.381,0,0,0-1.569,5.068,23.557,23.557,0,0,0,1.85,9.473c.113.266.322.582.62.53.205-.035.326-.236.411-.416a19.771,19.771,0,0,0,1.268-4.9,12.064,12.064,0,0,1,1.674-4.771,5.254,5.254,0,0,1,4.437-2.4,5.792,5.792,0,0,1,3.46,1.65c.949.868,1.709,1.9,2.582,2.835a7.286,7.286,0,0,0,3.167,2.165,3.6,3.6,0,0,0,3.635-.816,2.1,2.1,0,0,0-.512-3.217,2.706,2.706,0,0,0,2.858-1.555A2.455,2.455,0,0,0,145.18,32.1" transform="translate(30.468 4.985)" fill="#1a2e35"/>
        <path id="Trazado_3770" data-name="Trazado 3770" d="M131.9,58.569l.79-3.531s5.113.326,6.289-4.323c.567-2.245,1.339-6.957,1.982-11.23a8.952,8.952,0,0,0-7.262-9.945l-.477-.1c-5.207-.81-8.844,2.909-9.56,7.845L119.65,56.188a5.92,5.92,0,0,0,4.864,6.939l-.136,1.785c3.372.66,6.81-3.165,7.521-6.343" transform="translate(30.148 5.342)" fill="#ffc09d"/>
        <path id="Trazado_3771" data-name="Trazado 3771" d="M131.257,51.551a12.05,12.05,0,0,1-6.026-3.1s.72,3.679,5.748,4.308Z" transform="translate(31.587 8.826)" fill="#ff9b6c"/>
        <path id="Trazado_3772" data-name="Trazado 3772" d="M135.477,40.841a.722.722,0,0,1-.841.526.658.658,0,0,1-.584-.754.725.725,0,0,1,.84-.528.66.66,0,0,1,.585.757" transform="translate(33.809 7.3)" fill="#1a2e35"/>
        <path id="Trazado_3773" data-name="Trazado 3773" d="M135.919,39.816c-.108.069-.552-.418-1.312-.578s-1.4.079-1.463-.026c-.031-.047.1-.186.378-.3a2.092,2.092,0,0,1,1.2-.087,1.924,1.924,0,0,1,1.018.57c.194.219.235.392.183.422" transform="translate(33.581 7.063)" fill="#1a2e35"/>
        <path id="Trazado_3774" data-name="Trazado 3774" d="M129.628,39.625a.724.724,0,0,1-.842.527.659.659,0,0,1-.584-.754.724.724,0,0,1,.84-.528.658.658,0,0,1,.585.755" transform="translate(32.333 7.078)" fill="#1a2e35"/>
        <path id="Trazado_3775" data-name="Trazado 3775" d="M129.937,38.584c-.109.07-.553-.417-1.314-.577s-1.4.079-1.463-.026c-.03-.047.1-.186.378-.3a2.1,2.1,0,0,1,1.2-.087,1.924,1.924,0,0,1,1.018.57c.193.219.234.392.183.421" transform="translate(32.072 6.839)" fill="#1a2e35"/>
        <path id="Trazado_3776" data-name="Trazado 3776" d="M130.561,44.347a5.4,5.4,0,0,1,1.282.052c.2.022.392.025.455-.092a.917.917,0,0,0,0-.571l-.24-1.514a23.326,23.326,0,0,1-.417-3.918,23.1,23.1,0,0,1,.75,3.877c.075.53.147,1.034.214,1.518a1.036,1.036,0,0,1-.071.739.5.5,0,0,1-.382.2,1.473,1.473,0,0,1-.341-.026,5.356,5.356,0,0,1-1.25-.265" transform="translate(32.931 6.977)" fill="#1a2e35"/>
        <path id="Trazado_3777" data-name="Trazado 3777" d="M128.734,43.432c.125.02-.059.8.513,1.5s1.471.8,1.451.913c0,.052-.232.11-.6.04a2.126,2.126,0,0,1-1.222-.719,1.663,1.663,0,0,1-.377-1.246c.046-.332.184-.5.239-.488" transform="translate(32.407 7.911)" fill="#1a2e35"/>
        <path id="Trazado_3778" data-name="Trazado 3778" d="M130.85,35.475c-.121.179-.858-.074-1.772-.163-.913-.106-1.689-.012-1.766-.212-.034-.1.137-.252.472-.379a3.14,3.14,0,0,1,1.382-.15,3.074,3.074,0,0,1,1.312.436c.3.2.426.383.371.468" transform="translate(32.111 6.294)" fill="#1a2e35"/>
        <path id="Trazado_3779" data-name="Trazado 3779" d="M136.047,38.016c-.173.135-.654-.145-1.281-.287-.622-.163-1.187-.138-1.269-.335-.034-.093.088-.24.358-.343a1.921,1.921,0,0,1,1.108-.045,1.834,1.834,0,0,1,.947.545c.182.215.214.4.136.465" transform="translate(33.67 6.73)" fill="#1a2e35"/>
        <path id="Trazado_3780" data-name="Trazado 3780" d="M123.277,39.119c-.076-.051-3.167-1.669-3.821,1.542s2.9,3.167,2.919,3.077.9-4.619.9-4.619" transform="translate(30.11 7.043)" fill="#ffc09d"/>
        <path id="Trazado_3781" data-name="Trazado 3781" d="M121.4,42.178c-.013-.014-.068.027-.178.053a.633.633,0,0,1-.442-.072,1.364,1.364,0,0,1-.427-1.364,1.806,1.806,0,0,1,.329-.771.7.7,0,0,1,.533-.349.3.3,0,0,1,.317.216c.029.1-.005.158.011.168s.085-.04.084-.177a.358.358,0,0,0-.1-.227.464.464,0,0,0-.311-.141.859.859,0,0,0-.719.385,1.867,1.867,0,0,0-.387.858,1.434,1.434,0,0,0,.58,1.543.686.686,0,0,0,.56.013c.12-.06.154-.129.144-.136" transform="translate(30.291 7.197)" fill="#ff9b6c"/>
        <path id="Trazado_3782" data-name="Trazado 3782" d="M141.561,38.829a7.489,7.489,0,0,1-6.014-2.7c-.97-1.218-1.568-2.8-2.968-3.555a4.326,4.326,0,0,0-3.162-.258,8.078,8.078,0,0,0-2.807,1.521c.387,2.574-.887,5.082-2.125,7.4a1.321,1.321,0,0,1-.569.653,1.121,1.121,0,0,1-1.277-.569,3.831,3.831,0,0,1-.42-2.273,12.843,12.843,0,0,1,1.267-5.164,9.347,9.347,0,0,1,3.677-3.952,9.658,9.658,0,0,1,6.818-.9,11.376,11.376,0,0,1,5.867,3.513,6.118,6.118,0,0,1,1.533,2.7" transform="translate(30.824 5.243)" fill="#1a2e35"/>
        <path id="Trazado_3783" data-name="Trazado 3783" d="M144.915,33.246a.669.669,0,0,1-.1.271,1.385,1.385,0,0,1-.63.556,2.318,2.318,0,0,1-1.356.129,3.787,3.787,0,0,1-.826-.228,1.838,1.838,0,0,1-.771-.558,1.113,1.113,0,0,1-.207-.991,1.069,1.069,0,0,1,.913-.661,1.394,1.394,0,0,1,.625.057,1.131,1.131,0,0,1,.521.368,1.415,1.415,0,0,1,.235,1.222,1.73,1.73,0,0,1-.811,1.056,2.875,2.875,0,0,1-1.38.395,4.737,4.737,0,0,1-2.815-.91A12.739,12.739,0,0,1,136.16,32a15.941,15.941,0,0,0-1.938-1.847,5.25,5.25,0,0,0-2.193-1.027,5.192,5.192,0,0,0-2.138.058,6.211,6.211,0,0,0-2.7,1.446,7.529,7.529,0,0,0-.591.585,2.689,2.689,0,0,1-.2.213s.011-.024.039-.063.073-.1.134-.17a6.373,6.373,0,0,1,3.286-2.121,5.277,5.277,0,0,1,2.194-.08,5.391,5.391,0,0,1,2.265,1.041,16.144,16.144,0,0,1,1.965,1.858,12.611,12.611,0,0,0,2.133,1.926,4.568,4.568,0,0,0,2.707.884,2.723,2.723,0,0,0,1.3-.365,1.581,1.581,0,0,0,.746-.961,1.274,1.274,0,0,0-.2-1.1,1.07,1.07,0,0,0-1.006-.378.936.936,0,0,0-.8.566.988.988,0,0,0,.18.887,1.72,1.72,0,0,0,.715.531,3.755,3.755,0,0,0,.8.232,2.273,2.273,0,0,0,1.31-.1,1.4,1.4,0,0,0,.627-.515,2.115,2.115,0,0,0,.126-.254" transform="translate(31.882 5.266)" fill="#375a64"/>
        <path id="Trazado_3784" data-name="Trazado 3784" d="M121.046,33.343a5.88,5.88,0,0,0,.97.472,3.144,3.144,0,0,0,1.157.131,5.277,5.277,0,0,0,1.4-.306,3.994,3.994,0,0,0,1.96-1.578,7.519,7.519,0,0,0,.46-.94.778.778,0,0,1-.049.279,3.08,3.08,0,0,1-.306.718,3.883,3.883,0,0,1-2,1.673,5.12,5.12,0,0,1-1.456.3,3.1,3.1,0,0,1-1.208-.173,2.723,2.723,0,0,1-.713-.383c-.15-.116-.224-.189-.217-.2" transform="translate(30.531 5.669)" fill="#375a64"/>
        <path id="Trazado_3785" data-name="Trazado 3785" d="M120.724,35.318c.01-.027.386.138,1.029.241a5.175,5.175,0,0,0,2.5-.223,4.866,4.866,0,0,0,2.029-1.4c.414-.48.575-.839.6-.825a.786.786,0,0,1-.1.258,3.726,3.726,0,0,1-.407.638,4.637,4.637,0,0,1-2.065,1.477,4.922,4.922,0,0,1-2.582.184,4.193,4.193,0,0,1-.754-.223c-.172-.07-.259-.121-.253-.13" transform="translate(30.45 6.032)" fill="#375a64"/>
        <path id="Trazado_3786" data-name="Trazado 3786" d="M126.8,40.574a.088.088,0,1,1,.088-.086.087.087,0,0,1-.088.086" transform="translate(31.961 7.358)" fill="#ff9b6c"/>
        <path id="Trazado_3787" data-name="Trazado 3787" d="M128.016,40.577a.1.1,0,1,1,.088-.1.094.094,0,0,1-.088.1" transform="translate(32.268 7.354)" fill="#ff9b6c"/>
        <path id="Trazado_3788" data-name="Trazado 3788" d="M128.8,40.743c-.048,0-.079-.067-.073-.139s.051-.129.1-.124.08.067.071.141-.051.128-.1.123" transform="translate(32.468 7.373)" fill="#ff9b6c"/>
        <path id="Trazado_3789" data-name="Trazado 3789" d="M127.2,41.418c-.046-.011-.078-.04-.071-.069s.049-.043.1-.033.078.04.071.07-.05.041-.1.032" transform="translate(32.065 7.525)" fill="#ff9b6c"/>
        <path id="Trazado_3790" data-name="Trazado 3790" d="M128.32,41.423a.089.089,0,0,1-.074-.1.092.092,0,0,1,.1-.08.086.086,0,0,1,.07.1.09.09,0,0,1-.1.079" transform="translate(32.347 7.512)" fill="#ff9b6c"/>
        <path id="Trazado_3791" data-name="Trazado 3791" d="M134,42.011a.092.092,0,1,1,.089-.09.089.089,0,0,1-.089.09" transform="translate(33.776 7.619)" fill="#ff9b6c"/>
        <path id="Trazado_3792" data-name="Trazado 3792" d="M134.8,42.12a.094.094,0,0,1-.071-.111.1.1,0,0,1,.1-.092.094.094,0,0,1,.073.112.1.1,0,0,1-.1.091" transform="translate(33.982 7.635)" fill="#ff9b6c"/>
        <path id="Trazado_3793" data-name="Trazado 3793" d="M133.295,41.867a.073.073,0,1,1,.088-.07.079.079,0,0,1-.088.07" transform="translate(33.6 7.6)" fill="#ff9b6c"/>
        <path id="Trazado_3794" data-name="Trazado 3794" d="M133.706,42.794a.091.091,0,0,1-.1-.076.087.087,0,0,1,.065-.108.09.09,0,0,1,.1.076.088.088,0,0,1-.065.108" transform="translate(33.698 7.761)" fill="#ff9b6c"/>
        <path id="Trazado_3795" data-name="Trazado 3795" d="M134.4,42.8a.074.074,0,0,1-.041-.1.083.083,0,0,1,.11-.022.074.074,0,0,1,.041.1.083.083,0,0,1-.11.022" transform="translate(33.887 7.773)" fill="#ff9b6c"/>
        <path id="Trazado_3796" data-name="Trazado 3796" d="M112.541,105.715,103.1,135.065,75.111,148.286l6.039,13.268,39.45-13.939,12.316-35.728Z" transform="translate(18.945 19.256)" fill="#1a2e35"/>
        <path id="Trazado_3797" data-name="Trazado 3797" d="M115.232,51.745l-25.6,15.34A6.05,6.05,0,0,0,87,70.3L78.965,93.688,87.8,96.63l9.315-21.877,23.056-9.012Z" transform="translate(19.917 9.425)" fill="#ff4f5b"/>
        <path id="Trazado_3798" data-name="Trazado 3798" d="M137.147,59.419l.729-.956-1.331-3.636L132.923,60l-.969-2.825-7.263-8.165L121.531,51.2l-11.917,1.047.073.306-2.277,16.6-1.386,17.833-2.776,8.731L102.072,96.9a2.788,2.788,0,0,0-.744,2.669l.08.311,29.251,8.959,2.264-3.337,9.1-40.668Z" transform="translate(25.536 8.928)" fill="#ff4f5b"/>
        <path id="Trazado_3799" data-name="Trazado 3799" d="M166.419,120.042a13.9,13.9,0,0,0-10.087-11.609l-25.107-7.47-29.4-8.916A23.3,23.3,0,0,0,99.64,103.32c.351,5.5,6.718,10.779,13.087,12.3l36.511,8.7,6.883,34.022,14.5-1.09Z" transform="translate(25.122 16.766)" fill="#1a2e35"/>
        <path id="Trazado_3800" data-name="Trazado 3800" d="M148.424,121.448a2.859,2.859,0,0,1-.472-.074l-1.335-.279c-1.158-.249-2.828-.637-4.884-1.142-4.114-1-9.752-2.518-16.059-3.911a141.436,141.436,0,0,1-15.864-4.612c-1.985-.715-3.57-1.345-4.657-1.8-.543-.226-.96-.413-1.243-.537a2.827,2.827,0,0,1-.425-.208,2.531,2.531,0,0,1,.451.15l1.267.482c1.1.418,2.7,1.018,4.69,1.7a158.35,158.35,0,0,0,15.861,4.515c6.31,1.395,11.948,2.948,16.041,4l4.852,1.238c.55.138.988.248,1.321.333a2.751,2.751,0,0,1,.456.136" transform="translate(26.102 19.833)" fill="#375a64"/>
        <path id="Trazado_3801" data-name="Trazado 3801" d="M142.98,116.056a5.672,5.672,0,0,1-1.5,2.3A6.083,6.083,0,0,1,139.2,120c-.055-.078.993-.761,2.031-1.85s1.66-2.135,1.748-2.091" transform="translate(35.11 21.139)" fill="#375a64"/>
        <path id="Trazado_3802" data-name="Trazado 3802" d="M145.144,118.695a7.447,7.447,0,0,1-2.893.855,7.576,7.576,0,0,1-3.03-.051c.006-.092,1.354-.031,2.983-.258s2.906-.634,2.94-.546" transform="translate(35.115 21.618)" fill="#375a64"/>
        <path id="Trazado_3803" data-name="Trazado 3803" d="M111.416,95.356c.026-.082,8.833,2.466,19.666,5.69s19.6,5.906,19.57,5.988-8.832-2.465-19.669-5.691-19.595-5.9-19.567-5.986" transform="translate(28.102 17.369)" fill="#375a64"/>
        <path id="Trazado_3804" data-name="Trazado 3804" d="M112.662,64.03A7.716,7.716,0,0,0,113.7,62.08a9.5,9.5,0,0,0,.481-2.325,8.914,8.914,0,0,0-.184-2.88,6.627,6.627,0,0,0-1.324-2.569,6.941,6.941,0,0,0-1.87-1.546,16.062,16.062,0,0,0-2.12-.9,2.173,2.173,0,0,1,.626.1,7.22,7.22,0,0,1,1.61.611,6.781,6.781,0,0,1,1.989,1.556,6.677,6.677,0,0,1,1.409,2.676,8.7,8.7,0,0,1,.167,2.977,8.931,8.931,0,0,1-.563,2.373,5.285,5.285,0,0,1-.818,1.447,1.646,1.646,0,0,1-.445.43" transform="translate(27.414 9.446)" fill="#1a2e35"/>
        <g id="Grupo_601" data-name="Grupo 601" transform="translate(131.801 75.9)" opacity="0.3">
          <g id="Grupo_600" data-name="Grupo 600">
            <g id="Grupo_599" data-name="Grupo 599" clip-path="url(#clip-path-9)">
              <path id="Trazado_3805" data-name="Trazado 3805" d="M106.4,66.387a35.952,35.952,0,0,0,5.135-2.182c-2.082,5.17-4.319,11.345-6.279,16.557.569-4.813.574-9.562,1.143-14.375" transform="translate(-105.253 -64.205)"/>
            </g>
          </g>
        </g>
        <path id="Trazado_3806" data-name="Trazado 3806" d="M90.79,68.751a5.159,5.159,0,0,1,1.965,1.343,4.858,4.858,0,0,1,1.372,1.888c-.081.048-.69-.787-1.608-1.67s-1.782-1.485-1.729-1.56" transform="translate(22.899 12.522)" fill="#1a2e35"/>
        <path id="Trazado_3807" data-name="Trazado 3807" d="M92.44,66.01a6.6,6.6,0,0,1,1.421,2.981,6.36,6.36,0,0,1,.085,3.267,27.251,27.251,0,0,0-.407-3.2,28.056,28.056,0,0,0-1.1-3.05" transform="translate(23.314 12.023)" fill="#1a2e35"/>
        <path id="Trazado_3808" data-name="Trazado 3808" d="M102.688,78.088c0,.085-.026.155-.061.155s-.061-.07-.061-.155.028-.156.061-.156.061.07.061.156" transform="translate(25.87 14.195)" fill="#1a2e35"/>
        <path id="Trazado_3809" data-name="Trazado 3809" d="M126.543,102.147a1.433,1.433,0,0,1,.053-.359c.056-.264.128-.6.214-1.014.205-.919.488-2.18.833-3.721.708-3.178,1.673-7.5,2.737-12.278s2.031-9.1,2.74-12.281c.353-1.54.644-2.8.854-3.717.1-.411.182-.745.247-1.008a1.422,1.422,0,0,1,.109-.348,1.585,1.585,0,0,1-.043.361c-.049.265-.111.6-.188,1.019-.185.922-.44,2.189-.751,3.737-.651,3.153-1.579,7.5-2.645,12.3s-2.069,9.132-2.833,12.262c-.384,1.565-.7,2.83-.935,3.7-.111.409-.2.74-.274,1a1.611,1.611,0,0,1-.118.345" transform="translate(31.917 12.28)" fill="#1a2e35"/>
        <path id="Trazado_3810" data-name="Trazado 3810" d="M138.059,81.4a4.545,4.545,0,0,1,.666-2.549,4.846,4.846,0,0,1,1.761-2.032c.073.066-.8.9-1.465,2.17-.68,1.265-.862,2.425-.962,2.41" transform="translate(34.815 13.991)" fill="#1a2e35"/>
        <path id="Trazado_3811" data-name="Trazado 3811" d="M139.291,82.855a6.065,6.065,0,0,1-.183-3.136,6.18,6.18,0,0,1,1.131-2.955,28.6,28.6,0,0,0-.8,3,28.92,28.92,0,0,0-.144,3.091" transform="translate(35.062 13.982)" fill="#1a2e35"/>
        <path id="Trazado_3812" data-name="Trazado 3812" d="M164.626,77.335l-4.826.039.6,1.448,4.189-.933Z" transform="translate(40.306 14.086)" fill="#ffc09d"/>
        <g id="Grupo_604" data-name="Grupo 604" transform="translate(163.624 82.234)" opacity="0.3">
          <g id="Grupo_603" data-name="Grupo 603">
            <g id="Grupo_602" data-name="Grupo 602" clip-path="url(#clip-path-10)">
              <path id="Trazado_3813" data-name="Trazado 3813" d="M130.666,79.228s3.216,5.3,3.168,5.164a50.7,50.7,0,0,0-1.041-14.829" transform="translate(-130.666 -69.563)"/>
            </g>
          </g>
        </g>
        <path id="Trazado_3814" data-name="Trazado 3814" d="M127.847,56.969c.024.028-.433.4-1.168,1.075s-1.739,1.666-3.06,2.7l-.143.111-.09-.158c-.453-.79-.943-1.647-1.456-2.543-1.181-2.024-2.3-3.83-3.118-5.134-.379-.606-.7-1.123-.964-1.545a2.618,2.618,0,0,1-.323-.588,2.765,2.765,0,0,1,.431.521c.258.349.621.858,1.054,1.5.872,1.276,2.026,3.069,3.209,5.1.523.9,1.009,1.763,1.44,2.558l-.233-.046c1.312-1,2.34-1.973,3.126-2.6a7.1,7.1,0,0,1,1.3-.942" transform="translate(29.642 9.269)" fill="#1a2e35"/>
        <path id="Trazado_3815" data-name="Trazado 3815" d="M131.324,57.422c.026.018-.113.257-.4.629s-.728.883-1.192,1.5l-.175.231-.089-.262c-.183-.541-.377-1.118-.581-1.726-.131-.4-.257-.8-.377-1.167l.279.051a20.558,20.558,0,0,1-2.245,2.4,20.188,20.188,0,0,1,1.992-2.587l.188-.225.091.277c.123.365.25.753.386,1.151.192.605.376,1.18.547,1.72l-.263-.032c.506-.624.975-1.1,1.3-1.441s.515-.539.542-.521" transform="translate(31.917 10.249)" fill="#1a2e35"/>
        <path id="Trazado_3816" data-name="Trazado 3816" d="M126.741,59.009a3.04,3.04,0,0,1-.646-1.507,6.657,6.657,0,0,1-.323-1.581,3.043,3.043,0,0,1,.644,1.507,6.742,6.742,0,0,1,.326,1.581" transform="translate(31.718 10.186)" fill="#1a2e35"/>
        <path id="Trazado_3817" data-name="Trazado 3817" d="M123.07,94.336c.021-.025.354.19.622.733a2.528,2.528,0,0,1-.036,2.263,2.807,2.807,0,0,1-1.913,1.364,1.527,1.527,0,0,1-.994-.04c.005-.053.382-.011.938-.171a2.808,2.808,0,0,0,1.674-1.293,2.535,2.535,0,0,0,.115-2.04c-.189-.517-.448-.78-.406-.814" transform="translate(30.456 17.183)" fill="#1a2e35"/>
        <path id="Trazado_3818" data-name="Trazado 3818" d="M128.561,59.21a2.023,2.023,0,0,1,.006.426c-.011.31-.026.715-.044,1.22-.041,1.057-.137,2.588-.284,4.476-.292,3.777-.854,8.986-1.791,14.7s-2.079,10.839-3.012,14.523c-.466,1.841-.867,3.325-1.166,4.346-.145.486-.26.876-.349,1.174a1.991,1.991,0,0,1-.144.4,2.134,2.134,0,0,1,.079-.42c.074-.3.17-.7.289-1.188.262-1.028.627-2.52,1.064-4.366.874-3.693,1.972-8.816,2.913-14.52s1.533-10.9,1.885-14.668c.177-1.884.307-3.411.388-4.465.043-.5.079-.907.105-1.216a2.143,2.143,0,0,1,.06-.422" transform="translate(30.715 10.785)" fill="#1a2e35"/>
        <path id="Trazado_3819" data-name="Trazado 3819" d="M126.9,94.291a5.711,5.711,0,0,1-1.544.311,16.89,16.89,0,0,1-3.816-.006,16.642,16.642,0,0,1-3.705-.865,5.646,5.646,0,0,1-1.42-.654,31.422,31.422,0,0,0,5.164,1.209,31.693,31.693,0,0,0,5.321,0" transform="translate(29.364 16.953)" fill="#1a2e35"/>
        <path id="Trazado_3820" data-name="Trazado 3820" d="M109.774,91.721a13.965,13.965,0,0,1-3.66-1.225,13.492,13.492,0,0,1-3.312-1.913c.053-.077,1.531.771,3.454,1.633s3.549,1.417,3.519,1.5" transform="translate(25.929 16.135)" fill="#1a2e35"/>
        <path id="Trazado_3821" data-name="Trazado 3821" d="M98.689,84.773c0,.085-.033.156-.073.156s-.071-.071-.071-.156.031-.156.071-.156.073.07.073.156" transform="translate(24.856 15.413)" fill="#1a2e35"/>
        <path id="Trazado_3822" data-name="Trazado 3822" d="M97.7,64.227a7.891,7.891,0,0,1,.212-2.258,7.946,7.946,0,0,1,.538-2.211,7.932,7.932,0,0,1-.213,2.259,8.024,8.024,0,0,1-.537,2.209" transform="translate(24.634 10.885)" fill="#fff"/>
        <path id="Trazado_3823" data-name="Trazado 3823" d="M106.973,62.37a7.541,7.541,0,0,1-1.36-.952,7.635,7.635,0,0,1-1.325-.994,3.341,3.341,0,0,1,1.526.747c.761.55,1.226,1.146,1.158,1.2" transform="translate(26.304 11.004)" fill="#fff"/>
        <path id="Trazado_3824" data-name="Trazado 3824" d="M91.049,66.67a3.432,3.432,0,0,1-1.33-.551c-.69-.377-1.211-.745-1.166-.819a3.4,3.4,0,0,1,1.33.551c.69.378,1.211.746,1.166.819" transform="translate(22.335 11.892)" fill="#fff"/>
        <path id="Trazado_3825" data-name="Trazado 3825" d="M90.319,72.86a8.838,8.838,0,0,1-2.191.814,8.967,8.967,0,0,1-2.292.519,8.839,8.839,0,0,1,2.193-.816,8.977,8.977,0,0,1,2.29-.518" transform="translate(21.65 13.268)" fill="#fff"/>
        <path id="Trazado_3826" data-name="Trazado 3826" d="M85.338,84.356a4.954,4.954,0,0,1-.591-1.991,4.879,4.879,0,0,1-.034-2.068,10.045,10.045,0,0,1,.359,2.023,10.018,10.018,0,0,1,.265,2.036" transform="translate(21.346 14.626)" fill="#fff"/>
        <path id="Trazado_3827" data-name="Trazado 3827" d="M103.708,66.3a15.64,15.64,0,0,1-2.277.734,15.6,15.6,0,0,1-2.3.682,6.574,6.574,0,0,1,2.194-.978,6.755,6.755,0,0,1,2.379-.439" transform="translate(25.004 12.072)" fill="#fff"/>
        <path id="Trazado_3828" data-name="Trazado 3828" d="M110.864,55.764a13.69,13.69,0,0,1-2.886-.356,13.658,13.658,0,0,1-2.826-.661,13.653,13.653,0,0,1,2.888.355,13.621,13.621,0,0,1,2.825.662" transform="translate(26.522 9.968)" fill="#fff"/>
        <path id="Trazado_3829" data-name="Trazado 3829" d="M115.112,56.444a6.317,6.317,0,0,1,.512-1.951,6.471,6.471,0,0,1,.826-1.855,6.3,6.3,0,0,1-.513,1.953,6.434,6.434,0,0,1-.825,1.852" transform="translate(29.03 9.588)" fill="#fff"/>
        <path id="Trazado_3830" data-name="Trazado 3830" d="M120.432,62.291a5.789,5.789,0,0,1-1.594-1.492,5.574,5.574,0,0,1-1.181-1.8,10.67,10.67,0,0,1,1.438,1.61,10.461,10.461,0,0,1,1.337,1.686" transform="translate(29.675 10.746)" fill="#fff"/>
        <path id="Trazado_3831" data-name="Trazado 3831" d="M114.8,67.555a6.4,6.4,0,0,1-.342-2.014,6.359,6.359,0,0,1-.013-2.043,6.485,6.485,0,0,1,.341,2.016,6.457,6.457,0,0,1,.014,2.042" transform="translate(28.851 11.566)" fill="#fff"/>
        <path id="Trazado_3832" data-name="Trazado 3832" d="M109.672,70.091c-.063.064-.612-.32-1.231-.858s-1.069-1.023-1.008-1.086a3.7,3.7,0,0,1,1.231.858c.617.537,1.069,1.023,1.008,1.086" transform="translate(27.096 12.412)" fill="#fff"/>
        <path id="Trazado_3833" data-name="Trazado 3833" d="M112.685,73.566a3.841,3.841,0,0,1-1.622.69,3.94,3.94,0,0,1-1.767.2,7.3,7.3,0,0,1,1.678-.5,7.373,7.373,0,0,1,1.711-.391" transform="translate(27.567 13.397)" fill="#fff"/>
        <path id="Trazado_3834" data-name="Trazado 3834" d="M121.859,71.175a4.571,4.571,0,0,1-.546-1.909,4.511,4.511,0,0,1,.008-1.978,8.9,8.9,0,0,1,.321,1.938,9.193,9.193,0,0,1,.218,1.949" transform="translate(30.576 12.256)" fill="#fff"/>
        <path id="Trazado_3835" data-name="Trazado 3835" d="M120.009,78.289a5.924,5.924,0,0,1-1.052-1.616,5.64,5.64,0,0,1-.756-1.758,5.943,5.943,0,0,1,1.052,1.617,5.689,5.689,0,0,1,.756,1.757" transform="translate(29.81 13.645)" fill="#fff"/>
        <path id="Trazado_3836" data-name="Trazado 3836" d="M112.073,83.332a8.489,8.489,0,0,1,.657-2.246,8.581,8.581,0,0,1,.97-2.144,8.444,8.444,0,0,1-.66,2.247,8.634,8.634,0,0,1-.968,2.143" transform="translate(28.264 14.379)" fill="#fff"/>
        <path id="Trazado_3837" data-name="Trazado 3837" d="M109.11,87.178a3.631,3.631,0,0,1-.679-1.348,3.534,3.534,0,0,1-.368-1.45,3.586,3.586,0,0,1,.679,1.346,3.467,3.467,0,0,1,.368,1.452" transform="translate(27.251 15.37)" fill="#fff"/>
        <path id="Trazado_3838" data-name="Trazado 3838" d="M120.842,86.007a16.834,16.834,0,0,1-4.132,2,8.445,8.445,0,0,1,1.991-1.138,8.664,8.664,0,0,1,2.141-.862" transform="translate(29.437 15.664)" fill="#fff"/>
        <path id="Trazado_3839" data-name="Trazado 3839" d="M112.985,92.559c-.09.008-.222-.553-.291-1.254a2.6,2.6,0,0,1,.035-1.283c.09-.007.222.553.292,1.254s.054,1.274-.036,1.283" transform="translate(28.413 16.397)" fill="#fff"/>
        <path id="Trazado_3840" data-name="Trazado 3840" d="M104.876,92.709c-.073.046-.492-.467-.676-1.231a1.888,1.888,0,0,1,.031-1.387c.1.006.11.608.289,1.316a7.494,7.494,0,0,1,.356,1.3" transform="translate(26.258 16.41)" fill="#fff"/>
        <path id="Trazado_3841" data-name="Trazado 3841" d="M119.465,95.309a9.6,9.6,0,0,1-3.311,1.017,9.692,9.692,0,0,1,3.311-1.017" transform="translate(29.297 17.357)" fill="#fff"/>
        <path id="Trazado_3842" data-name="Trazado 3842" d="M124.978,97.724c-.09.017-.263-.462-.387-1.069s-.152-1.112-.06-1.128.262.462.384,1.069.152,1.111.063,1.128" transform="translate(31.397 17.4)" fill="#fff"/>
        <path id="Trazado_3843" data-name="Trazado 3843" d="M125.922,90.723a3.588,3.588,0,0,1-.8-1.279,3.468,3.468,0,0,1-.5-1.408c.083-.037.438.538.8,1.28a3.512,3.512,0,0,1,.5,1.407" transform="translate(31.431 16.035)" fill="#fff"/>
        <path id="Trazado_3844" data-name="Trazado 3844" d="M128.581,82.59a4.121,4.121,0,0,1-1.3.935,4.286,4.286,0,0,1-1.474.67,4.135,4.135,0,0,1,1.3-.936,4.28,4.28,0,0,1,1.474-.669" transform="translate(31.731 15.042)" fill="#fff"/>
        <path id="Trazado_3845" data-name="Trazado 3845" d="M128.334,78.6a2.748,2.748,0,0,1-.671-1.37,2.658,2.658,0,0,1-.135-1.5,5.289,5.289,0,0,1,.453,1.424,5.359,5.359,0,0,1,.353,1.45" transform="translate(32.152 13.793)" fill="#fff"/>
        <path id="Trazado_3846" data-name="Trazado 3846" d="M131.244,67.979a6.4,6.4,0,0,1-1.555,1.27,6.681,6.681,0,0,1-1.752,1.019A6.4,6.4,0,0,1,129.494,69a6.583,6.583,0,0,1,1.749-1.018" transform="translate(32.268 12.381)" fill="#fff"/>
        <path id="Trazado_3847" data-name="Trazado 3847" d="M131.381,65.132c-.05.067-.649-.272-1.16-.91s-.7-1.268-.621-1.3.4.511.883,1.108.957,1.027.9,1.1" transform="translate(32.684 11.462)" fill="#fff"/>
        <path id="Trazado_3848" data-name="Trazado 3848" d="M134.731,72.362a5.577,5.577,0,0,1,.192-1.888,5.636,5.636,0,0,1,.517-1.831,5.536,5.536,0,0,1-.192,1.887,5.674,5.674,0,0,1-.517,1.832" transform="translate(33.974 12.503)" fill="#fff"/>
        <path id="Trazado_3849" data-name="Trazado 3849" d="M137.693,76.705a5.148,5.148,0,0,1-1.716-.443,4.94,4.94,0,0,1-1.6-.734,5.179,5.179,0,0,1,1.714.443,5.018,5.018,0,0,1,1.6.734" transform="translate(33.894 13.754)" fill="#fff"/>
        <path id="Trazado_3850" data-name="Trazado 3850" d="M136.715,83.9a4.163,4.163,0,0,1-.85-1.38,3.991,3.991,0,0,1-.548-1.507,4.142,4.142,0,0,1,.849,1.378,4.063,4.063,0,0,1,.55,1.508" transform="translate(34.126 14.757)" fill="#fff"/>
        <path id="Trazado_3851" data-name="Trazado 3851" d="M144.656,79.59a12.693,12.693,0,0,1-1.5,1.62,13,13,0,0,1-1.552,1.582A5.46,5.46,0,0,1,142.908,81a5.747,5.747,0,0,1,1.748-1.411" transform="translate(35.714 14.496)" fill="#fff"/>
        <path id="Trazado_3852" data-name="Trazado 3852" d="M149.255,81.066a5.306,5.306,0,0,1-1.38-1.2,5.175,5.175,0,0,1-1.136-1.41,5.35,5.35,0,0,1,1.38,1.2,5.175,5.175,0,0,1,1.136,1.41" transform="translate(37.01 14.289)" fill="#fff"/>
        <path id="Trazado_3853" data-name="Trazado 3853" d="M158.923,68.808V65.434h-1.88l2.886-3.817,2.886,3.817h-1.808v3.374Z" transform="translate(39.611 11.223)" fill="#ff4f5b"/>
        <path id="Trazado_3854" data-name="Trazado 3854" d="M155.741,70.913V68.551h-1.316l2.02-2.67,2.021,2.67H157.2v2.362Z" transform="translate(38.95 12)" fill="#ff4f5b"/>
        <path id="Trazado_3855" data-name="Trazado 3855" d="M156.032,147.465s-.106.021-.314.047l-.929.11c-.409.041-.917.105-1.51.207s-1.285.193-2.05.358a45.339,45.339,0,0,0-12.462,4.433,44.316,44.316,0,0,0-7.558,5.09,40.224,40.224,0,0,0-7,7.654,39.381,39.381,0,0,0-7.2,22.164l-.005.523-.3-.442a24.879,24.879,0,0,0-6.1-6.145,36.87,36.87,0,0,0-26.46-6.356l-1.57.31a4.757,4.757,0,0,0-.766.192l-.753.226c-.495.162-1.006.273-1.479.473l-1.416.575a12.835,12.835,0,0,0-1.365.63q-.667.332-1.324.662l-1.245.745a13.175,13.175,0,0,0-1.2.767,33.863,33.863,0,0,0-7.541,7.072,39.11,39.11,0,0,0-4.439,7.172q-.385.844-.741,1.63c-.225.528-.409,1.047-.6,1.539-.406.979-.656,1.912-.933,2.736-.483,1.663-.81,2.971-.974,3.867-.09.439-.162.777-.212,1.017s-.083.345-.083.345.01-.121.05-.35.1-.58.179-1.023a37.587,37.587,0,0,1,.917-3.89c.267-.827.51-1.765.908-2.75.19-.5.372-1.018.594-1.55s.48-1.075.733-1.643a38.729,38.729,0,0,1,4.42-7.23,33.949,33.949,0,0,1,7.568-7.152,13.632,13.632,0,0,1,1.208-.777l1.255-.755c.441-.221.885-.447,1.332-.671a13.343,13.343,0,0,1,1.377-.64l1.429-.582c.477-.2,1-.318,1.5-.484l.76-.231a5.088,5.088,0,0,1,.776-.2l1.589-.316a37.116,37.116,0,0,1,26.714,6.391,25.1,25.1,0,0,1,6.177,6.228l-.3.082a39.55,39.55,0,0,1,7.288-22.314,40.3,40.3,0,0,1,7.069-7.684,44.339,44.339,0,0,1,20.17-9.45c.77-.158,1.461-.252,2.06-.336s1.1-.147,1.516-.179l.933-.082c.21-.017.318-.018.318-.018" transform="translate(14.502 26.861)" fill="#1a2e35"/>
        <rect id="Rectángulo_449" data-name="Rectángulo 449" width="43.189" height="103.158" transform="translate(228.3 179.534)" fill="#ff4f5b"/>
        <g id="Grupo_607" data-name="Grupo 607" transform="translate(228.301 179.536)" opacity="0.3">
          <g id="Grupo_606" data-name="Grupo 606">
            <g id="Grupo_605" data-name="Grupo 605" clip-path="url(#clip-path-11)">
              <rect id="Rectángulo_450" data-name="Rectángulo 450" width="43.189" height="103.158" transform="translate(-0.001 -0.001)"/>
            </g>
          </g>
        </g>
        <rect id="Rectángulo_452" data-name="Rectángulo 452" width="43.189" height="103.158" transform="translate(217.745 179.534)" fill="#ff4f5b"/>
        <g id="Grupo_610" data-name="Grupo 610" transform="translate(232.07 220.411)" opacity="0.4">
          <g id="Grupo_609" data-name="Grupo 609">
            <g id="Grupo_608" data-name="Grupo 608" clip-path="url(#clip-path-12)">
              <path id="Trazado_3856" data-name="Trazado 3856" d="M190.868,186.795v5.7H189.72l-3.012-3.462V192.5h-1.382v-5.7h1.157l3,3.464v-3.464Z" transform="translate(-185.326 -186.387)" fill="#fff"/>
              <path id="Trazado_3857" data-name="Trazado 3857" d="M190.488,187.794a1.665,1.665,0,1,1,1.642,1.354,1.464,1.464,0,0,1-1.642-1.354m2.358,0a.723.723,0,0,0-1.441,0,.722.722,0,0,0,1.441,0" transform="translate(-184.024 -186.449)" fill="#fff"/>
              <path id="Trazado_3858" data-name="Trazado 3858" d="M199,191.3h-.984v1.2h-1.364v-1.2H193.4v-.889l2.849-3.619h1.468l-2.642,3.432h1.623v-1.067h1.321v1.067H199Z" transform="translate(-183.29 -186.387)" fill="#fff"/>
            </g>
          </g>
        </g>
        <path id="Trazado_3859" data-name="Trazado 3859" d="M218.9,155.871a2.959,2.959,0,0,1-.354.608c-.291.431-.645.962-1.068,1.589-.913,1.335-2.194,3.167-3.629,5.177s-2.751,3.822-3.723,5.12a15.254,15.254,0,0,1-1.648,2.051.8.8,0,0,1,.089-.16c.085-.13.18-.273.286-.435.294-.428.654-.956,1.082-1.579.92-1.33,2.208-3.159,3.641-5.17s2.745-3.823,3.71-5.126c.453-.606.841-1.118,1.155-1.536a2.973,2.973,0,0,1,.46-.539" transform="translate(52.585 28.392)" fill="#ff4f5b"/>
        <path id="Trazado_3860" data-name="Trazado 3860" d="M218.9,171.587a2.959,2.959,0,0,1-.354.608c-.291.431-.645.962-1.068,1.589-.913,1.335-2.194,3.167-3.629,5.177s-2.751,3.822-3.723,5.12a15.256,15.256,0,0,1-1.648,2.051.8.8,0,0,1,.089-.16c.085-.13.18-.273.286-.435.294-.428.654-.956,1.082-1.581.92-1.329,2.208-3.158,3.641-5.168s2.745-3.823,3.71-5.126c.453-.606.841-1.118,1.155-1.536a2.972,2.972,0,0,1,.46-.539" transform="translate(52.585 31.254)" fill="#ff4f5b"/>
        <path id="Trazado_3861" data-name="Trazado 3861" d="M218.9,187.3a2.959,2.959,0,0,1-.354.608c-.291.431-.645.962-1.068,1.589-.913,1.335-2.194,3.167-3.629,5.177s-2.751,3.822-3.723,5.12a15.257,15.257,0,0,1-1.648,2.051.8.8,0,0,1,.089-.16c.085-.13.18-.273.286-.435.294-.428.654-.956,1.082-1.581.92-1.329,2.208-3.158,3.641-5.168s2.745-3.823,3.71-5.126c.453-.606.841-1.118,1.155-1.536a2.973,2.973,0,0,1,.46-.539" transform="translate(52.585 34.117)" fill="#ff4f5b"/>
        <path id="Trazado_3862" data-name="Trazado 3862" d="M218.9,203.018a2.959,2.959,0,0,1-.354.608c-.291.432-.645.962-1.068,1.589-.913,1.335-2.194,3.167-3.629,5.177s-2.751,3.822-3.723,5.12a15.354,15.354,0,0,1-1.648,2.051.8.8,0,0,1,.089-.16c.085-.13.18-.273.286-.435.294-.428.654-.956,1.082-1.581.92-1.329,2.208-3.158,3.641-5.168s2.745-3.823,3.71-5.126c.453-.606.841-1.118,1.155-1.536a2.972,2.972,0,0,1,.46-.539" transform="translate(52.585 36.979)" fill="#ff4f5b"/>
        <path id="Trazado_3863" data-name="Trazado 3863" d="M218.9,218.734a2.959,2.959,0,0,1-.354.608c-.291.43-.645.962-1.068,1.589-.913,1.335-2.194,3.166-3.629,5.177s-2.751,3.822-3.723,5.119a15.328,15.328,0,0,1-1.648,2.052.8.8,0,0,1,.089-.16c.085-.13.18-.273.286-.435.294-.428.654-.958,1.082-1.581.92-1.329,2.208-3.158,3.641-5.168s2.745-3.823,3.71-5.126c.453-.606.841-1.118,1.155-1.536a2.974,2.974,0,0,1,.46-.539" transform="translate(52.585 39.842)" fill="#ff4f5b"/>
        <path id="Trazado_3864" data-name="Trazado 3864" d="M217.655,234.45a20.512,20.512,0,0,1-1.97,3.046,20.815,20.815,0,0,1-2.244,2.874,20.389,20.389,0,0,1,1.97-3.046,20.682,20.682,0,0,1,2.244-2.874" transform="translate(53.834 42.705)" fill="#ff4f5b"/>
        <rect id="Rectángulo_454" data-name="Rectángulo 454" width="43.188" height="83.882" transform="translate(168.074 198.808)" fill="#ff4f5b"/>
        <g id="Grupo_613" data-name="Grupo 613" transform="translate(168.073 198.807)" opacity="0.3">
          <g id="Grupo_612" data-name="Grupo 612">
            <g id="Grupo_611" data-name="Grupo 611" clip-path="url(#clip-path-13)">
              <rect id="Rectángulo_455" data-name="Rectángulo 455" width="43.188" height="83.882" transform="translate(0.001 0.001)"/>
            </g>
          </g>
        </g>
        <rect id="Rectángulo_457" data-name="Rectángulo 457" width="43.188" height="83.882" transform="translate(157.518 198.808)" fill="#ff4f5b"/>
        <g id="Grupo_616" data-name="Grupo 616" transform="translate(171.884 231.469)" opacity="0.4">
          <g id="Grupo_615" data-name="Grupo 615">
            <g id="Grupo_614" data-name="Grupo 614" clip-path="url(#clip-path-14)">
              <path id="Trazado_3865" data-name="Trazado 3865" d="M142.806,196.151v5.75h-1.148l-3.013-3.491V201.9h-1.381v-5.75h1.157l3,3.491v-3.491Z" transform="translate(-137.263 -195.741)" fill="#fff"/>
              <path id="Trazado_3866" data-name="Trazado 3866" d="M142.425,197.16a1.663,1.663,0,1,1,1.64,1.363,1.466,1.466,0,0,1-1.64-1.363m2.358,0a.723.723,0,0,0-1.443,0,.722.722,0,0,0,1.443,0" transform="translate(-135.961 -195.804)" fill="#fff"/>
              <path id="Trazado_3867" data-name="Trazado 3867" d="M150,200.143c0,.969-.785,1.856-2.5,1.856a4.319,4.319,0,0,1-2.305-.615l.545-1.02a3.027,3.027,0,0,0,1.727.518c.7,0,1.131-.271,1.131-.739,0-.435-.338-.706-1.131-.706h-.64v-.88l1.243-1.339h-2.573v-1.067h4.23v.864l-1.364,1.478c1.089.163,1.64.8,1.64,1.65" transform="translate(-135.264 -195.741)" fill="#fff"/>
            </g>
          </g>
        </g>
        <path id="Trazado_3868" data-name="Trazado 3868" d="M170.808,171.011a2.975,2.975,0,0,1-.353.611q-.436.653-1.068,1.6c-.913,1.345-2.2,3.192-3.629,5.22s-2.751,3.853-3.723,5.162a15.337,15.337,0,0,1-1.648,2.069.62.62,0,0,1,.088-.16c.085-.131.18-.275.285-.439q.44-.649,1.082-1.594c.92-1.341,2.206-3.185,3.641-5.212s2.746-3.855,3.709-5.17l1.155-1.549a2.891,2.891,0,0,1,.461-.544" transform="translate(40.454 31.149)" fill="#ff4f5b"/>
        <path id="Trazado_3869" data-name="Trazado 3869" d="M170.808,186.86a2.96,2.96,0,0,1-.353.612c-.291.434-.647.969-1.068,1.6-.913,1.346-2.2,3.193-3.629,5.22s-2.751,3.854-3.723,5.162a15.24,15.24,0,0,1-1.648,2.069.643.643,0,0,1,.088-.16c.085-.131.18-.275.285-.439q.44-.647,1.082-1.592c.92-1.341,2.206-3.186,3.641-5.213s2.746-3.855,3.709-5.168c.456-.612.841-1.13,1.155-1.549a2.932,2.932,0,0,1,.461-.545" transform="translate(40.454 34.036)" fill="#ff4f5b"/>
        <path id="Trazado_3870" data-name="Trazado 3870" d="M170.808,202.71a2.975,2.975,0,0,1-.353.611q-.436.653-1.068,1.6c-.913,1.345-2.2,3.192-3.629,5.22s-2.751,3.853-3.723,5.162a15.239,15.239,0,0,1-1.648,2.069.644.644,0,0,1,.088-.16c.085-.131.18-.275.285-.439q.44-.649,1.082-1.594c.92-1.341,2.206-3.185,3.641-5.212s2.746-3.855,3.709-5.17l1.155-1.549a2.891,2.891,0,0,1,.461-.544" transform="translate(40.454 36.923)" fill="#ff4f5b"/>
        <path id="Trazado_3871" data-name="Trazado 3871" d="M170.808,218.558a2.96,2.96,0,0,1-.353.612c-.291.434-.647.969-1.068,1.6-.913,1.346-2.2,3.193-3.629,5.22s-2.751,3.854-3.723,5.162a15.4,15.4,0,0,1-1.648,2.07.614.614,0,0,1,.088-.161c.085-.131.18-.275.285-.439q.44-.647,1.082-1.592c.92-1.341,2.206-3.186,3.641-5.213s2.746-3.855,3.709-5.168c.456-.612.841-1.13,1.155-1.549a2.933,2.933,0,0,1,.461-.545" transform="translate(40.454 39.81)" fill="#ff4f5b"/>
        <path id="Trazado_3872" data-name="Trazado 3872" d="M169.558,234.408a20.646,20.646,0,0,1-1.969,3.071,21.173,21.173,0,0,1-2.244,2.9,20.526,20.526,0,0,1,1.969-3.071,20.97,20.97,0,0,1,2.244-2.9" transform="translate(41.704 42.697)" fill="#ff4f5b"/>
        <rect id="Rectángulo_459" data-name="Rectángulo 459" width="43.188" height="61.792" transform="translate(107.528 220.898)" fill="#ff4f5b"/>
        <g id="Grupo_619" data-name="Grupo 619" transform="translate(107.527 220.897)" opacity="0.3">
          <g id="Grupo_618" data-name="Grupo 618">
            <g id="Grupo_617" data-name="Grupo 617" clip-path="url(#clip-path-15)">
              <rect id="Rectángulo_460" data-name="Rectángulo 460" width="43.188" height="61.792" transform="translate(0.001 0.001)"/>
            </g>
          </g>
        </g>
        <rect id="Rectángulo_462" data-name="Rectángulo 462" width="43.188" height="61.792" transform="translate(96.972 220.898)" fill="#ff4f5b"/>
        <g id="Grupo_622" data-name="Grupo 622" transform="translate(111.339 244.945)" opacity="0.4">
          <g id="Grupo_621" data-name="Grupo 621">
            <g id="Grupo_620" data-name="Grupo 620" clip-path="url(#clip-path-16)">
              <path id="Trazado_3873" data-name="Trazado 3873" d="M94.455,207.551V213.3H93.307l-3.013-3.49v3.49H88.913v-5.749H90.07l3,3.491v-3.491Z" transform="translate(-88.913 -207.139)" fill="#fff"/>
              <path id="Trazado_3874" data-name="Trazado 3874" d="M94.075,208.558a1.663,1.663,0,1,1,1.64,1.363,1.466,1.466,0,0,1-1.64-1.363m2.357,0a.722.722,0,0,0-1.441,0,.722.722,0,0,0,1.441,0" transform="translate(-87.61 -207.203)" fill="#fff"/>
              <path id="Trazado_3875" data-name="Trazado 3875" d="M101.839,212.231v1.084H97.272v-.863l2.332-2.094c.535-.485.63-.78.63-1.059,0-.452-.329-.715-.968-.715a1.51,1.51,0,0,0-1.252.575L97,208.536a2.855,2.855,0,0,1,2.4-1.069c1.346,0,2.244.657,2.244,1.7a2.258,2.258,0,0,1-1.009,1.815l-1.39,1.248Z" transform="translate(-86.873 -207.155)" fill="#fff"/>
            </g>
          </g>
        </g>
        <path id="Trazado_3876" data-name="Trazado 3876" d="M122.457,186.86a3.012,3.012,0,0,1-.354.612l-1.067,1.6c-.913,1.346-2.2,3.193-3.629,5.22s-2.751,3.854-3.724,5.162a15.3,15.3,0,0,1-1.647,2.069.642.642,0,0,1,.088-.16l.286-.439,1.081-1.592c.922-1.341,2.208-3.186,3.643-5.213s2.745-3.855,3.709-5.168c.456-.612.841-1.13,1.155-1.549a2.934,2.934,0,0,1,.461-.545" transform="translate(28.258 34.036)" fill="#ff4f5b"/>
        <path id="Trazado_3877" data-name="Trazado 3877" d="M122.457,202.71a3.028,3.028,0,0,1-.354.611l-1.067,1.6c-.913,1.345-2.2,3.192-3.629,5.22s-2.751,3.853-3.724,5.162a15.3,15.3,0,0,1-1.647,2.069.642.642,0,0,1,.088-.16l.286-.439,1.081-1.594c.922-1.341,2.208-3.185,3.643-5.212s2.745-3.855,3.709-5.17L122,203.254a2.893,2.893,0,0,1,.461-.544" transform="translate(28.258 36.923)" fill="#ff4f5b"/>
        <path id="Trazado_3878" data-name="Trazado 3878" d="M122.457,218.558a3.012,3.012,0,0,1-.354.612l-1.067,1.6c-.913,1.346-2.2,3.193-3.629,5.22s-2.751,3.854-3.724,5.162a15.469,15.469,0,0,1-1.647,2.07.613.613,0,0,1,.088-.161l.286-.439,1.081-1.592c.922-1.341,2.208-3.186,3.643-5.213s2.745-3.855,3.709-5.168c.456-.612.841-1.13,1.155-1.549a2.935,2.935,0,0,1,.461-.545" transform="translate(28.258 39.81)" fill="#ff4f5b"/>
        <path id="Trazado_3879" data-name="Trazado 3879" d="M121.208,234.408a20.6,20.6,0,0,1-1.97,3.071,21.057,21.057,0,0,1-2.244,2.9,20.6,20.6,0,0,1,1.97-3.071,20.858,20.858,0,0,1,2.244-2.9" transform="translate(29.508 42.697)" fill="#ff4f5b"/>
        <rect id="Rectángulo_464" data-name="Rectángulo 464" width="43.188" height="43.056" transform="translate(46.981 239.633)" fill="#ff4f5b"/>
        <g id="Grupo_625" data-name="Grupo 625" transform="translate(46.981 239.633)" opacity="0.3">
          <g id="Grupo_624" data-name="Grupo 624">
            <g id="Grupo_623" data-name="Grupo 623" clip-path="url(#clip-path-17)">
              <rect id="Rectángulo_465" data-name="Rectángulo 465" width="43.188" height="43.056" transform="translate(0 0.001)"/>
            </g>
          </g>
        </g>
        <rect id="Rectángulo_467" data-name="Rectángulo 467" width="43.188" height="43.056" transform="translate(36.425 239.633)" fill="#ff4f5b"/>
        <g id="Grupo_628" data-name="Grupo 628" transform="translate(50.792 257.465)" opacity="0.4">
          <g id="Grupo_627" data-name="Grupo 627">
            <g id="Grupo_626" data-name="Grupo 626" clip-path="url(#clip-path-18)">
              <path id="Trazado_3880" data-name="Trazado 3880" d="M46.1,218.141v5.749H44.956l-3.013-3.49v3.49H40.561v-5.749h1.157l3,3.491v-3.491Z" transform="translate(-40.562 -217.73)" fill="#fff"/>
              <path id="Trazado_3881" data-name="Trazado 3881" d="M45.723,219.149a1.663,1.663,0,1,1,1.642,1.363,1.467,1.467,0,0,1-1.642-1.363m2.358,0a.722.722,0,0,0-1.441,0,.722.722,0,0,0,1.441,0" transform="translate(-39.26 -217.794)" fill="#fff"/>
              <path id="Trazado_3882" data-name="Trazado 3882" d="M51.322,218.141v5.749h-1.4v-4.681H48.715v-1.067Z" transform="translate(-38.505 -217.73)" fill="#fff"/>
            </g>
          </g>
        </g>
        <path id="Trazado_3883" data-name="Trazado 3883" d="M74.106,202.71a2.9,2.9,0,0,1-.353.611l-1.068,1.6c-.913,1.345-2.194,3.192-3.628,5.22S66.3,214,65.333,215.307a15.239,15.239,0,0,1-1.648,2.069.753.753,0,0,1,.089-.16c.084-.131.179-.275.286-.439.292-.433.654-.965,1.081-1.594.922-1.341,2.208-3.185,3.641-5.212s2.746-3.855,3.71-5.17c.455-.611.841-1.129,1.155-1.549a2.981,2.981,0,0,1,.46-.544" transform="translate(16.063 36.923)" fill="#ff4f5b"/>
        <path id="Trazado_3884" data-name="Trazado 3884" d="M74.106,218.558a2.885,2.885,0,0,1-.353.612l-1.068,1.6c-.913,1.346-2.194,3.193-3.628,5.22s-2.752,3.854-3.724,5.162a15.4,15.4,0,0,1-1.648,2.07.71.71,0,0,1,.089-.161c.084-.131.179-.275.286-.439.292-.431.654-.963,1.081-1.592.922-1.341,2.208-3.186,3.641-5.213s2.746-3.855,3.71-5.168c.455-.612.841-1.13,1.155-1.549a3.027,3.027,0,0,1,.46-.545" transform="translate(16.063 39.81)" fill="#ff4f5b"/>
        <path id="Trazado_3885" data-name="Trazado 3885" d="M72.856,234.408a20.65,20.65,0,0,1-1.968,3.071,21.06,21.06,0,0,1-2.244,2.9,20.478,20.478,0,0,1,1.97-3.071,21.022,21.022,0,0,1,2.243-2.9" transform="translate(17.313 42.697)" fill="#ff4f5b"/>
        <path id="Trazado_3886" data-name="Trazado 3886" d="M290.192,239.158c0,.085-63.505.155-141.822.155-78.346,0-141.836-.07-141.836-.155S70.024,239,148.37,239c78.317,0,141.822.07,141.822.156" transform="translate(1.648 43.534)" fill="#1a2e35"/>
      </g>
    </g>
  </g>
</svg>
