<svg id="Grupo_349" data-name="Grupo 349" xmlns="http://www.w3.org/2000/svg" xmlns:xlink="http://www.w3.org/1999/xlink" width="946.255" height="415.6" viewBox="0 0 946.255 415.6">
  <defs>
    <clipPath id="clip-path">
      <rect id="Rectángulo_229" data-name="Rectángulo 229" width="946.255" height="415.6" fill="none"/>
    </clipPath>
    <clipPath id="clip-path-3">
      <rect id="Rectángulo_221" data-name="Rectángulo 221" width="15.068" height="59.889" transform="translate(497.785 327.607)" fill="none"/>
    </clipPath>
    <clipPath id="clip-path-4">
      <rect id="Rectángulo_222" data-name="Rectángulo 222" width="13.629" height="75.438" transform="translate(616.303 285.943)" fill="none"/>
    </clipPath>
    <clipPath id="clip-path-5">
      <rect id="Rectángulo_223" data-name="Rectángulo 223" width="43.769" height="23.998" transform="translate(556.911 351.013)" fill="none"/>
    </clipPath>
    <clipPath id="clip-path-6">
      <rect id="Rectángulo_224" data-name="Rectángulo 224" width="14.54" height="30.177" transform="translate(399.733 345.654)" fill="none"/>
    </clipPath>
    <clipPath id="clip-path-7">
      <rect id="Rectángulo_226" data-name="Rectángulo 226" width="59.252" height="12.134" transform="translate(378.525 203.073)" fill="none"/>
    </clipPath>
    <clipPath id="clip-path-8">
      <rect id="Rectángulo_227" data-name="Rectángulo 227" width="16.824" height="56.372" transform="translate(420.953 203.073)" fill="none"/>
    </clipPath>
  </defs>
  <g id="Grupo_348" data-name="Grupo 348" clip-path="url(#clip-path)">
    <rect id="Rectángulo_207" data-name="Rectángulo 207" width="61.725" height="64.343" transform="translate(483.646 0.019)" fill="#e1e1e1"/>
    <rect id="Rectángulo_208" data-name="Rectángulo 208" width="61.724" height="64.343" transform="translate(479.467 0.019)" fill="#fafafa"/>
    <path id="Trazado_2024" data-name="Trazado 2024" d="M479.486.039h61.686v64.3H479.486Zm-.039,64.342H541.21V0H479.447Z" fill="#e1e1e1"/>
    <rect id="Rectángulo_209" data-name="Rectángulo 209" width="45.129" height="47.044" transform="translate(487.764 8.669)" fill="#fafafa"/>
    <g id="Grupo_347" data-name="Grupo 347">
      <g id="Grupo_346" data-name="Grupo 346" clip-path="url(#clip-path)">
        <path id="Trazado_2025" data-name="Trazado 2025" d="M487.764,56.025a7.423,7.423,0,0,1-1.114,1.295c-.72.761-1.733,1.79-2.868,2.908s-2.18,2.115-2.949,2.822a7.161,7.161,0,0,1-1.3,1.086,7.16,7.16,0,0,1,1.108-1.289c.72-.76,1.736-1.792,2.875-2.914s2.184-2.12,2.953-2.827a7.071,7.071,0,0,1,1.3-1.081" fill="#e1e1e1"/>
        <path id="Trazado_2026" data-name="Trazado 2026" d="M532.893,55.91a7.44,7.44,0,0,1,1.295,1.113c.761.721,1.79,1.734,2.908,2.869s2.115,2.179,2.822,2.949a7.214,7.214,0,0,1,1.087,1.3,7.247,7.247,0,0,1-1.29-1.108c-.76-.721-1.792-1.736-2.914-2.875s-2.119-2.185-2.827-2.953a7.114,7.114,0,0,1-1.081-1.3" fill="#e1e1e1"/>
        <path id="Trazado_2027" data-name="Trazado 2027" d="M532.77,8.8a7.325,7.325,0,0,1,1.114-1.3c.72-.761,1.733-1.79,2.868-2.908s2.18-2.115,2.949-2.822a7.212,7.212,0,0,1,1.3-1.087,7.153,7.153,0,0,1-1.108,1.29c-.72.76-1.736,1.792-2.875,2.914s-2.184,2.119-2.954,2.827a7.05,7.05,0,0,1-1.3,1.081" fill="#e1e1e1"/>
        <path id="Trazado_2028" data-name="Trazado 2028" d="M487.641,8.91A7.4,7.4,0,0,1,486.346,7.8c-.761-.722-1.79-1.735-2.908-2.869s-2.115-2.179-2.822-2.949a7.12,7.12,0,0,1-1.086-1.3,7.173,7.173,0,0,1,1.289,1.107c.76.721,1.792,1.736,2.914,2.876s2.119,2.184,2.827,2.953a7.071,7.071,0,0,1,1.081,1.3" fill="#e1e1e1"/>
        <path id="Trazado_2029" data-name="Trazado 2029" d="M532.77,55.712s-.006-.079-.01-.228-.005-.376-.01-.656c0-.59-.011-1.439-.02-2.54-.01-2.228-.026-5.472-.045-9.588-.022-8.239-.052-19.976-.089-34.031l.174.173-45,.026h-.005l.2-.2c-.01,17.267-.02,33.421-.028,47.043l-.172-.172c13.486.037,24.715.069,32.588.089l9.153.045c1.05.008,1.858.016,2.421.019l.626.01c.142,0,.215.007.218.009a1.115,1.115,0,0,1-.2.011l-.607.01c-.555,0-1.353.01-2.389.018-2.117.012-5.2.026-9.115.046l-32.7.088h-.171v-.173c-.008-13.622-.017-29.776-.028-47.043v-.2h.205l45,.025h.175v.174c-.036,14.1-.067,25.877-.088,34.143-.02,4.1-.035,7.329-.046,9.547q-.013,1.632-.02,2.507c0,.272-.008.482-.01.638a1.507,1.507,0,0,1-.01.208" fill="#e1e1e1"/>
        <rect id="Rectángulo_210" data-name="Rectángulo 210" width="15.059" height="15.06" transform="translate(502.799 24.66)" fill="#ececec"/>
        <rect id="Rectángulo_211" data-name="Rectángulo 211" width="86.779" height="90.46" transform="translate(246.308 26.598)" fill="#e1e1e1"/>
        <rect id="Rectángulo_212" data-name="Rectángulo 212" width="86.779" height="90.46" transform="translate(240.431 26.598)" fill="#fafafa"/>
        <path id="Trazado_2030" data-name="Trazado 2030" d="M327.237,117.086H240.4V26.572h86.833Zm-86.78-.054h86.726V26.626H240.457Z" fill="#e1e1e1"/>
        <rect id="Rectángulo_213" data-name="Rectángulo 213" width="63.448" height="66.139" transform="translate(252.096 38.759)" fill="#fafafa"/>
        <path id="Trazado_2031" data-name="Trazado 2031" d="M252.1,105.337a10.267,10.267,0,0,1-1.565,1.821c-1.014,1.07-2.438,2.516-4.034,4.089s-3.063,2.974-4.145,3.968a10.1,10.1,0,0,1-1.834,1.527,10.193,10.193,0,0,1,1.557-1.812c1.014-1.071,2.442-2.521,4.043-4.1s3.07-2.98,4.152-3.974a9.983,9.983,0,0,1,1.826-1.522" fill="#e1e1e1"/>
        <path id="Trazado_2032" data-name="Trazado 2032" d="M315.544,105.175a10.414,10.414,0,0,1,1.82,1.565c1.07,1.014,2.517,2.438,4.089,4.034s2.973,3.063,3.968,4.145a10.1,10.1,0,0,1,1.527,1.834,10.173,10.173,0,0,1-1.813-1.557c-1.069-1.014-2.52-2.442-4.1-4.042s-2.981-3.072-3.975-4.154a9.872,9.872,0,0,1-1.52-1.825" fill="#e1e1e1"/>
        <path id="Trazado_2033" data-name="Trazado 2033" d="M315.371,38.935a10.356,10.356,0,0,1,1.566-1.82c1.013-1.07,2.437-2.517,4.033-4.089s3.064-2.973,4.145-3.968a10.007,10.007,0,0,1,1.834-1.526,10.194,10.194,0,0,1-1.557,1.812c-1.014,1.07-2.441,2.52-4.042,4.1s-3.071,2.98-4.153,3.974a9.855,9.855,0,0,1-1.826,1.52" fill="#e1e1e1"/>
        <path id="Trazado_2034" data-name="Trazado 2034" d="M251.922,39.1a10.3,10.3,0,0,1-1.82-1.565c-1.07-1.013-2.516-2.438-4.089-4.034s-2.973-3.063-3.967-4.144a10.082,10.082,0,0,1-1.528-1.834,10.136,10.136,0,0,1,1.813,1.556c1.069,1.014,2.52,2.442,4.1,4.043s2.98,3.072,3.974,4.153a9.872,9.872,0,0,1,1.52,1.825" fill="#e1e1e1"/>
        <path id="Trazado_2035" data-name="Trazado 2035" d="M315.371,104.9c0-.005-.009-.113-.014-.321,0-.226-.007-.53-.013-.923-.007-.829-.016-2.023-.029-3.57-.015-3.134-.037-7.692-.064-13.48-.03-11.584-.073-28.086-.125-47.845l.245.244L252.1,39.04H252.1l.281-.281c-.015,24.276-.028,46.986-.04,66.139l-.241-.241,45.815.123,12.868.063,3.4.028.88.013a2.711,2.711,0,0,1,.306.014,1.938,1.938,0,0,1-.279.014l-.854.013-3.359.028-12.814.063-45.968.123h-.241V104.9c-.011-19.153-.025-41.863-.039-66.139v-.281h.288l63.268.036h.246v.245c-.052,19.824-.094,36.38-.124,48-.028,5.765-.05,10.3-.064,13.424-.013,1.528-.022,2.705-.029,3.524-.006.382-.011.677-.014.9a2.157,2.157,0,0,1-.014.294" fill="#e1e1e1"/>
        <rect id="Rectángulo_214" data-name="Rectángulo 214" width="21.172" height="21.172" transform="translate(273.234 61.243)" fill="#ececec"/>
        <rect id="Rectángulo_215" data-name="Rectángulo 215" width="90.734" height="94.582" transform="translate(567.145 52.532)" fill="#e1e1e1"/>
        <rect id="Rectángulo_216" data-name="Rectángulo 216" width="90.734" height="94.582" transform="translate(561 52.532)" fill="#fafafa"/>
        <path id="Trazado_2036" data-name="Trazado 2036" d="M651.762,147.142h-90.79V52.5h90.79Zm-90.734-.056h90.678V52.56H561.028Z" fill="#e1e1e1"/>
        <rect id="Rectángulo_217" data-name="Rectángulo 217" width="66.34" height="69.153" transform="translate(573.197 65.246)" fill="#fafafa"/>
        <path id="Trazado_2037" data-name="Trazado 2037" d="M573.2,134.859a10.835,10.835,0,0,1-1.637,1.9c-1.059,1.118-2.548,2.632-4.217,4.276s-3.2,3.108-4.334,4.148a10.582,10.582,0,0,1-1.917,1.6,10.507,10.507,0,0,1,1.628-1.9c1.06-1.117,2.552-2.634,4.227-4.283s3.21-3.116,4.341-4.155a10.428,10.428,0,0,1,1.909-1.59" fill="#e1e1e1"/>
        <path id="Trazado_2038" data-name="Trazado 2038" d="M639.537,134.689a10.884,10.884,0,0,1,1.9,1.638c1.117,1.059,2.631,2.548,4.274,4.216s3.109,3.2,4.149,4.334a10.623,10.623,0,0,1,1.6,1.917,10.47,10.47,0,0,1-1.9-1.627c-1.117-1.06-2.634-2.553-4.283-4.227s-3.116-3.211-4.156-4.342a10.352,10.352,0,0,1-1.589-1.909" fill="#e1e1e1"/>
        <path id="Trazado_2039" data-name="Trazado 2039" d="M639.355,65.43a10.879,10.879,0,0,1,1.637-1.9c1.06-1.118,2.549-2.631,4.217-4.275s3.2-3.109,4.334-4.149a10.636,10.636,0,0,1,1.917-1.6,10.455,10.455,0,0,1-1.628,1.9c-1.059,1.118-2.552,2.634-4.227,4.284s-3.21,3.116-4.341,4.155a10.312,10.312,0,0,1-1.909,1.589" fill="#e1e1e1"/>
        <path id="Trazado_2040" data-name="Trazado 2040" d="M573.016,65.6a10.77,10.77,0,0,1-1.9-1.637c-1.118-1.059-2.631-2.549-4.275-4.217s-3.109-3.2-4.149-4.334a10.542,10.542,0,0,1-1.6-1.917,10.62,10.62,0,0,1,1.895,1.628c1.118,1.059,2.634,2.552,4.283,4.226s3.117,3.211,4.156,4.343a10.331,10.331,0,0,1,1.589,1.908" fill="#e1e1e1"/>
        <path id="Trazado_2041" data-name="Trazado 2041" d="M639.355,134.4s-.009-.117-.014-.336c0-.235-.008-.553-.015-.965-.007-.867-.016-2.114-.03-3.733-.015-3.276-.038-8.042-.066-14.094-.032-12.111-.077-29.365-.131-50.024l.256.255L573.2,65.54H573.2l.294-.293c-.015,25.381-.03,49.127-.042,69.152l-.252-.252c19.825.054,36.33.1,47.9.129,5.781.028,10.33.051,13.455.065l3.56.031.92.013c.208.005.316.01.32.014a1.982,1.982,0,0,1-.292.015c-.219,0-.513.007-.893.014l-3.511.029-13.4.066-48.063.129h-.252V134.4c-.012-20.025-.027-43.771-.042-69.152v-.294h.3l66.151.037h.257v.257c-.053,20.726-.1,38.037-.13,50.188-.029,6.027-.051,10.774-.067,14.036l-.03,3.684c-.006.4-.011.708-.014.937a2.2,2.2,0,0,1-.015.307" fill="#e1e1e1"/>
        <rect id="Rectángulo_218" data-name="Rectángulo 218" width="22.137" height="22.137" transform="translate(595.298 88.754)" fill="#ececec"/>
        <path id="Trazado_2042" data-name="Trazado 2042" d="M245.014,368.979V415.3H387.452V368.979Z" fill="#f5f5f5"/>
        <path id="Trazado_2043" data-name="Trazado 2043" d="M239.038,356.031v12.948H392.432V356.031H239.038Z" fill="#e1e1e1"/>
        <path id="Trazado_2044" data-name="Trazado 2044" d="M315.735,415.3h71.716V368.979h4.981V356.031H312.746v11.751Z" fill="#e1e1e1"/>
        <rect id="Rectángulo_219" data-name="Rectángulo 219" width="28.886" height="6.972" transform="translate(264.935 376.449)" fill="#e1e1e1"/>
        <rect id="Rectángulo_220" data-name="Rectángulo 220" width="37.091" height="14.722" transform="translate(261.218 392.137)" fill="#fff"/>
        <path id="Trazado_2045" data-name="Trazado 2045" d="M446.435,277.949s-2.383-10.36-11.995-9.841-11.945.52-16.1,0-10.588-5.517-12.406-3.959-.8,4.937,2.574,7.94,9.176,5.047,9.176,5.047L405.4,279.248s-11.067-5.906-13.665-4.867a4.027,4.027,0,0,0-2.391,3.915s-4.593-2.065-5.891-.246-1.616,3.032-.317,4.071c0,0-.852-.843-3.239-.139-2.038.6-1.864,4.361,0,5.373l.63.363s17.4,10.026,17.936,10.1c3.074.407,21.834-.39,31.492-.84a9.877,9.877,0,0,1,8.815,4.6l15.556,24.655,17.565-20.228Z" fill="#c78976"/>
        <path id="Trazado_2046" data-name="Trazado 2046" d="M414.874,283.612a19.233,19.233,0,0,1-2.845.628c-1.8.34-4.332.791-7.28,1.292l-.077.013-.073-.034-3.932-1.8-9.388-4.346-2.832-1.351a4.957,4.957,0,0,1-1.009-.561,4.728,4.728,0,0,1,1.093.372l2.9,1.2,4.273,1.837,5.183,2.37,3.927,1.826-.149-.02c2.954-.469,5.5-.853,7.312-1.106a19.206,19.206,0,0,1,2.9-.314" fill="#bf654e"/>
        <path id="Trazado_2047" data-name="Trazado 2047" d="M410.569,288.225a14.846,14.846,0,0,0-7.013,5.567,8.811,8.811,0,0,1,7.013-5.567" fill="#bf654e"/>
        <path id="Trazado_2048" data-name="Trazado 2048" d="M430.492,273.715c.064-.006.11.631.448,1.654a8.581,8.581,0,0,0,2.368,3.648l.354.319-.474.089a24.98,24.98,0,0,0-4.768,1.415,25.24,25.24,0,0,0-6.7,4.108c-1.542,1.314-2.353,2.287-2.423,2.225-.029-.023.152-.283.507-.735a18.06,18.06,0,0,1,1.666-1.769,22.528,22.528,0,0,1,6.742-4.319,22.856,22.856,0,0,1,4.89-1.393l-.119.409a8.232,8.232,0,0,1-2.319-3.917,4.04,4.04,0,0,1-.177-1.734" fill="#bf654e"/>
        <path id="Trazado_2049" data-name="Trazado 2049" d="M418.983,276.652a28.86,28.86,0,0,1-6.7,1.8c-1.884.353-3.6.592-4.853.716a7.462,7.462,0,0,1-2.036.08c-.018-.157,3.044-.61,6.791-1.318l4.789-.947a9.375,9.375,0,0,1,2.006-.331" fill="#bf654e"/>
        <path id="Trazado_2050" data-name="Trazado 2050" d="M402.636,290.243a25.333,25.333,0,0,1-2.911-1.162c-1.783-.742-4.278-1.684-7.057-2.68s-5.292-1.93-7.076-2.693a15.516,15.516,0,0,1-2.825-1.377,22.77,22.77,0,0,1,2.962,1.027l7.119,2.544c2.783,1,5.274,2,7.029,2.835a14.547,14.547,0,0,1,2.759,1.506" fill="#bf654e"/>
        <path id="Trazado_2051" data-name="Trazado 2051" d="M407.063,289.828a11.614,11.614,0,0,1-7.5.744c.016-.155,1.705-.063,3.761-.274s3.7-.618,3.743-.47" fill="#bf654e"/>
        <path id="Trazado_2052" data-name="Trazado 2052" d="M503.917,230.286s-15.539,8.938-18.793,36.255c-1.7,14.239-7.9,40.724-7.9,40.724l-12.754-14.34-19.289,22.087s20.843,44.486,32.665,56.619S512.975,387.5,512.975,387.5l4.693-74.351Z" fill="#ff4f5b"/>
        <path id="Trazado_2053" data-name="Trazado 2053" d="M621.779,218l-35.906-6.285L540.1,213.984s-38.121,15.736-36.182,16.3l-7.428,73.6L514.9,339.439l-4.541,75.719H636.67L630.078,362.5l-8.266-63.453L637.5,348.17l2.378,66.988h35.169c3.713-29.171,4.878-69.7,4.878-69.7l-28.7-93.755a54.693,54.693,0,0,0-24.31-31.171,30.1,30.1,0,0,0-5.13-2.536" fill="#ff4f5b"/>
        <path id="Trazado_2054" data-name="Trazado 2054" d="M503.509,267.41a2.007,2.007,0,0,1,.088.373l.205,1.106c.174,1.005.422,2.435.738,4.262.626,3.7,1.518,9.064,2.544,15.7s2.182,14.551,3.28,23.365,2.133,18.528,2.72,28.765c.054.953.107,1.9.156,2.782v.019c-.536,19.863-1.146,37.712-1.7,50.592-.281,6.44-.54,11.638-.761,15.224-.12,1.769-.212,3.152-.278,4.125-.036.45-.066.8-.088,1.071a.183.183,0,1,1-.052,0c.009-.269.021-.623.036-1.074.042-.974.1-2.359.179-4.129.142-3.62.345-8.812.6-15.229.463-12.881,1.011-30.73,1.542-50.591v.02c-.05-.879-.1-1.825-.157-2.776-.586-10.22-1.615-19.927-2.675-28.737s-2.19-16.725-3.166-23.368l-2.377-15.725c-.274-1.833-.489-3.268-.64-4.276-.064-.469-.115-.838-.153-1.115a1.988,1.988,0,0,1-.034-.382" fill="#1a2e35"/>
        <path id="Trazado_2055" data-name="Trazado 2055" d="M613.687,271.4a1.612,1.612,0,0,1-.114-.468c-.063-.372-.136-.821-.227-1.361q-.069-.457-.15-.987c-.042-.363-.055-.76-.086-1.185a26.024,26.024,0,0,1-.094-2.895c.011-.539.024-1.1.037-1.686s.108-1.191.163-1.82a38.587,38.587,0,0,1,.612-3.989,40.279,40.279,0,0,1,7.761-16.627,38.122,38.122,0,0,1,2.664-3.029c.448-.446.854-.9,1.291-1.295s.862-.756,1.269-1.111a25.682,25.682,0,0,1,2.279-1.786c.346-.25.658-.494.963-.7q.461-.277.854-.518l1.188-.7a1.6,1.6,0,0,1,.432-.213,1.667,1.667,0,0,1-.377.3l-1.131.783-.821.553c-.294.212-.6.467-.931.725a28.673,28.673,0,0,0-2.209,1.832q-.593.539-1.234,1.125c-.425.4-.82.855-1.255,1.3-.889.88-1.706,1.939-2.6,3.025a41.418,41.418,0,0,0-7.669,16.43c-.26,1.38-.547,2.685-.651,3.933-.063.622-.162,1.219-.193,1.8s-.047,1.134-.07,1.667c-.081,1.064,0,2.026.015,2.871.018.422.016.818.042,1.179s.071.682.1.985c.05.543.091,1,.126,1.37a1.763,1.763,0,0,1,.009.484" fill="#1a2e35"/>
        <path id="Trazado_2056" data-name="Trazado 2056" d="M637.5,348.17a2.986,2.986,0,0,1-.234-.607l-.576-1.77c-.5-1.605-1.2-3.82-2.049-6.529-1.726-5.514-4.1-13.134-6.826-21.516s-5.259-15.961-7.295-21.352c-1.059-2.68-2.09-4.78-2.721-6.271-.32-.742-.557-1.324-.709-1.722a2.93,2.93,0,0,1-.206-.618,3.112,3.112,0,0,1,.3.575l.8,1.68c.686,1.459,1.771,3.536,2.881,6.215,2.137,5.386,4.717,12.939,7.452,21.329s5.046,16.027,6.68,21.571c.817,2.772,1.458,5.021,1.888,6.579l.48,1.8a2.939,2.939,0,0,1,.132.638" fill="#1a2e35"/>
        <path id="Trazado_2057" data-name="Trazado 2057" d="M663.987,345.832c-.026.091-1.365-.3-3.575-.645a33.108,33.108,0,0,0-17.144,1.872c-2.083.812-3.306,1.483-3.351,1.4a3.5,3.5,0,0,1,.817-.548,21.06,21.06,0,0,1,2.392-1.2,29.684,29.684,0,0,1,17.35-1.894,21.018,21.018,0,0,1,2.595.658,3.5,3.5,0,0,1,.916.357" fill="#1a2e35"/>
        <path id="Trazado_2058" data-name="Trazado 2058" d="M505,340.637a12.659,12.659,0,0,1-.95-1.417c-.624-.9-1.543-2.193-2.775-3.721-2.433-3.077-6.009-7.159-9.983-11.648s-7.576-8.559-10.114-11.562c-1.267-1.5-2.285-2.727-2.966-3.591a10.5,10.5,0,0,1-1.021-1.372,10.564,10.564,0,0,1,1.179,1.239c.79.888,1.832,2.06,3.091,3.478L491.692,323.5c3.975,4.492,7.514,8.62,9.882,11.771a44.432,44.432,0,0,1,2.653,3.839c.284.472.467.863.6,1.12a1.346,1.346,0,0,1,.173.408" fill="#1a2e35"/>
        <g id="Grupo_330" data-name="Grupo 330" opacity="0.3">
          <g id="Grupo_329" data-name="Grupo 329">
            <g id="Grupo_328" data-name="Grupo 328" clip-path="url(#clip-path-3)">
              <path id="Trazado_2059" data-name="Trazado 2059" d="M512.021,387.5c.579-20.584,1.646-39.564-.22-59.889-.833,18.037-7.4,39.151-14.016,55.953Z"/>
            </g>
          </g>
        </g>
        <g id="Grupo_333" data-name="Grupo 333" opacity="0.3">
          <g id="Grupo_332" data-name="Grupo 332">
            <g id="Grupo_331" data-name="Grupo 331" clip-path="url(#clip-path-4)">
              <path id="Trazado_2060" data-name="Trazado 2060" d="M621.812,299.05s-5.862-13.106-5.465-13.106c-.576,24.529,4.417,52.679,13.585,75.438Z"/>
            </g>
          </g>
        </g>
        <path id="Trazado_2061" data-name="Trazado 2061" d="M605.7,368.566a4.86,4.86,0,0,1-.7.448l-2.061,1.2c-1.781,1.053-4.36,2.574-7.513,4.51s-6.911,4.245-11.177,6.659a98.973,98.973,0,0,1-14.417,6.813,48.619,48.619,0,0,1-15.618,3.179,23.447,23.447,0,0,1-6.924-.978,16.438,16.438,0,0,1-5.4-2.831,13.709,13.709,0,0,1-4.845-7.237,10.335,10.335,0,0,1-.315-2.374,4.933,4.933,0,0,1,.047-.834,15.311,15.311,0,0,0,.467,3.155,13.757,13.757,0,0,0,4.879,7,16.228,16.228,0,0,0,5.294,2.7,23.272,23.272,0,0,0,6.793.909,48.915,48.915,0,0,0,15.439-3.188,102.084,102.084,0,0,0,14.36-6.74c4.266-2.384,8.034-4.671,11.221-6.554s5.791-3.37,7.605-4.37l2.112-1.11a4.6,4.6,0,0,1,.753-.354" fill="#1a2e35"/>
        <path id="Trazado_2062" data-name="Trazado 2062" d="M605.543,338.716a11.758,11.758,0,0,1-.393,1.774,21.037,21.037,0,0,1-.594,2.049c-.265.788-.53,1.7-.938,2.667-.379.978-.8,2.045-1.348,3.153-.494,1.13-1.14,2.28-1.8,3.5a52.184,52.184,0,0,1-11.4,13.888c-1.07.883-2.072,1.74-3.085,2.446-.98.75-1.944,1.375-2.828,1.937-.868.59-1.711,1.026-2.433,1.441a21.093,21.093,0,0,1-1.893.983,11.777,11.777,0,0,1-1.663.731,12.057,12.057,0,0,1,1.568-.915c.516-.271,1.141-.613,1.841-1.056s1.527-.893,2.375-1.5c.865-.579,1.809-1.216,2.77-1.975.993-.715,1.975-1.578,3.027-2.462a54.626,54.626,0,0,0,11.293-13.764c.661-1.2,1.316-2.336,1.823-3.449.557-1.09,1-2.141,1.4-3.1.428-.951.715-1.848,1.005-2.623s.512-1.453.677-2.011a11.807,11.807,0,0,1,.592-1.718" fill="#1a2e35"/>
        <path id="Trazado_2063" data-name="Trazado 2063" d="M505.319,291.7c-.032.144-5.341-.9-11.858-2.341s-11.776-2.717-11.745-2.859,5.34.9,11.859,2.341,11.776,2.716,11.744,2.859" fill="#fafafa"/>
        <path id="Trazado_2064" data-name="Trazado 2064" d="M505.319,285.732a19.2,19.2,0,0,1-3.357-.378c-2.061-.315-4.9-.819-8.018-1.414-3.041-.6-5.791-1.136-7.985-1.565a24.34,24.34,0,0,1-3.291-.748,19.007,19.007,0,0,1,3.357.377c2.061.316,4.9.82,8.019,1.415l7.984,1.565a24.094,24.094,0,0,1,3.291.748" fill="#fafafa"/>
        <path id="Trazado_2065" data-name="Trazado 2065" d="M613.879,286.5c0,.146-22.946.093-51.242-.12s-51.243-.5-51.242-.651,22.941-.092,51.246.121,51.239.5,51.238.65" fill="#fafafa"/>
        <path id="Trazado_2066" data-name="Trazado 2066" d="M615.579,291.7c0,.147-23.61.266-52.729.266s-52.733-.119-52.733-.266,23.606-.265,52.733-.265,52.729.119,52.729.265" fill="#fafafa"/>
        <path id="Trazado_2067" data-name="Trazado 2067" d="M658.545,279.594c0-.01.041-.018.123-.023-.045.117-.093.037-.155.064h-.091l0-.1h.121l.325,0-.31.115c-1.883.69-9.767,3.361-19.078,6.906-5.315,2.045-10.123,3.894-13.717,5.275l-4.16,1.593a9.68,9.68,0,0,1-1.552.522,9.68,9.68,0,0,1,1.473-.713c.963-.426,2.362-1.027,4.1-1.749,3.472-1.45,8.295-3.392,13.668-5.424,9.32-3.549,17.279-6.056,19.232-6.518l.014.11-.114-.012h-.007l.005-.1h.005l.013,0,.025,0,.048.005c.059.033.115-.042.148.079-.08-.013-.12-.025-.12-.034" fill="#fafafa"/>
        <path id="Trazado_2068" data-name="Trazado 2068" d="M657.712,273.012c.046.139-8.9,3.271-19.987,7s-20.111,6.633-20.158,6.494,8.9-3.271,19.989-7,20.109-6.632,20.156-6.493" fill="#fafafa"/>
        <path id="Trazado_2069" data-name="Trazado 2069" d="M589.529,212.475a4.815,4.815,0,0,1,.094.822,19.612,19.612,0,0,1,.061,2.374,25.636,25.636,0,0,1-1.806,8.529,26.335,26.335,0,0,1-7.559,10.441,25.939,25.939,0,0,1-29.9,1.826,26.333,26.333,0,0,1-8.775-9.443,25.629,25.629,0,0,1-2.83-8.245,19.529,19.529,0,0,1-.229-2.364,4.884,4.884,0,0,1-.007-.827,4.769,4.769,0,0,1,.114.82c.037.539.152,1.327.325,2.336a26.654,26.654,0,0,0,2.955,8.1,26.289,26.289,0,0,0,8.709,9.213,25.635,25.635,0,0,0,29.329-1.792,26.271,26.271,0,0,0,7.522-10.2,26.623,26.623,0,0,0,1.948-8.4c.049-1.024.067-1.82.038-2.36a4.91,4.91,0,0,1,.013-.827" fill="#fafafa"/>
        <path id="Trazado_2070" data-name="Trazado 2070" d="M465.35,295.042a4.506,4.506,0,0,1-.537.985c-.372.618-.94,1.492-1.666,2.555a100.271,100.271,0,0,1-13,15.338c-.93.891-1.7,1.6-2.247,2.062a4.541,4.541,0,0,1-.884.691,4.623,4.623,0,0,1,.742-.841l2.124-2.178c1.789-1.842,4.212-4.433,6.746-7.42s4.688-5.8,6.213-7.87l1.8-2.452a4.541,4.541,0,0,1,.708-.87" fill="#fafafa"/>
        <g id="Grupo_336" data-name="Grupo 336" opacity="0.3">
          <g id="Grupo_335" data-name="Grupo 335">
            <g id="Grupo_334" data-name="Grupo 334" clip-path="url(#clip-path-5)">
              <path id="Trazado_2071" data-name="Trazado 2071" d="M580.5,371.446c-5.147,2.925-12.088,3.391-18.284,3.555a7.879,7.879,0,0,1-3.448-.456,2.914,2.914,0,0,1-1.851-2.718c.125-1.4,1.521-2.3,2.819-2.84,5-2.071,10.624-1.953,15.875-3.272,8.958-2.252,18.094-8.645,25.067-14.7A54.483,54.483,0,0,1,580.5,371.446"/>
            </g>
          </g>
        </g>
        <path id="Trazado_2072" data-name="Trazado 2072" d="M561.229,236.572h0a23,23,0,0,1-21.169-23.131c.052-5.727.112-10.307.112-10.307s-18.456-2.87-18.682-21.32S524.459,121,524.459,121a64.13,64.13,0,0,1,64.435,8.1l2.734,2.106-5.62,83.981a23,23,0,0,1-24.779,21.391" fill="#c78976"/>
        <path id="Trazado_2073" data-name="Trazado 2073" d="M540.141,202.868s11.661.949,24.055-6.836c0,0-5.686,13.279-24.1,11.617Z" fill="#bf654e"/>
        <path id="Trazado_2074" data-name="Trazado 2074" d="M589.355,150.311c.314-.136,12.678-3.75,12.274,8.864s-12.983,9.609-12.994,9.245.72-18.109.72-18.109" fill="#c78976"/>
        <path id="Trazado_2075" data-name="Trazado 2075" d="M592.641,163.765c.057-.039.215.161.581.343a2.194,2.194,0,0,0,1.641.086c1.348-.447,2.538-2.526,2.672-4.8a7.256,7.256,0,0,0-.515-3.166,2.535,2.535,0,0,0-1.6-1.739,1.12,1.12,0,0,0-1.316.56c-.18.348-.108.6-.175.621-.037.031-.265-.22-.146-.737a1.4,1.4,0,0,1,.521-.774,1.662,1.662,0,0,1,1.226-.283,3.094,3.094,0,0,1,2.233,2.03,7.46,7.46,0,0,1,.649,3.54c-.162,2.539-1.539,4.876-3.379,5.344a2.357,2.357,0,0,1-2-.4c-.381-.324-.438-.609-.394-.63" fill="#bf654e"/>
        <path id="Trazado_2076" data-name="Trazado 2076" d="M531.157,150.579a2.635,2.635,0,0,0,2.541,2.659,2.521,2.521,0,0,0,2.716-2.376,2.637,2.637,0,0,0-2.538-2.66,2.522,2.522,0,0,0-2.719,2.377" fill="#1a2e35"/>
        <path id="Trazado_2077" data-name="Trazado 2077" d="M527.952,146.951c.327.344,2.323-1.134,5.159-1.126,2.832-.033,4.913,1.426,5.22,1.078.152-.154-.181-.773-1.087-1.433a7.228,7.228,0,0,0-4.18-1.289,6.944,6.944,0,0,0-4.105,1.326c-.872.669-1.168,1.291-1.007,1.444" fill="#1a2e35"/>
        <path id="Trazado_2078" data-name="Trazado 2078" d="M558.381,151.2a2.635,2.635,0,0,0,2.541,2.658,2.521,2.521,0,0,0,2.716-2.376,2.637,2.637,0,0,0-2.539-2.66,2.522,2.522,0,0,0-2.718,2.378" fill="#1a2e35"/>
        <path id="Trazado_2079" data-name="Trazado 2079" d="M555.823,147.48c.327.344,2.326-1.134,5.159-1.126,2.832-.033,4.914,1.426,5.221,1.078.151-.154-.178-.773-1.088-1.433a7.224,7.224,0,0,0-4.179-1.289,6.943,6.943,0,0,0-4.106,1.326c-.87.669-1.167,1.29-1.007,1.444" fill="#1a2e35"/>
        <path id="Trazado_2080" data-name="Trazado 2080" d="M545.533,168.508c.013-.161-1.75-.465-4.605-.831-.725-.074-1.41-.219-1.532-.712a3.682,3.682,0,0,1,.484-2.146q1.02-2.628,2.141-5.514c2.973-7.85,5.126-14.3,4.808-14.421s-2.984,6.15-5.958,14c-.715,1.936-1.4,3.78-2.051,5.546a4.194,4.194,0,0,0-.375,2.842,1.814,1.814,0,0,0,1.19,1.058,4.877,4.877,0,0,0,1.23.171c2.874.154,4.657.167,4.668.006" fill="#1a2e35"/>
        <path id="Trazado_2081" data-name="Trazado 2081" d="M555.091,136.368c.28.771,3.111.4,6.437.807,3.335.334,6.018,1.308,6.459.617.2-.331-.271-1.057-1.355-1.8a11.281,11.281,0,0,0-9.825-1.085c-1.221.492-1.836,1.1-1.716,1.464" fill="#1a2e35"/>
        <path id="Trazado_2082" data-name="Trazado 2082" d="M528.994,138.745c.5.644,2.452-.024,4.8-.056,2.347-.114,4.338.433,4.8-.241.2-.327-.113-.972-.982-1.582a6.953,6.953,0,0,0-7.732.239c-.83.662-1.1,1.326-.883,1.64" fill="#1a2e35"/>
        <path id="Trazado_2083" data-name="Trazado 2083" d="M515.471,109.346a6.808,6.808,0,0,1,2.515-6.085,4.832,4.832,0,0,1,6.26.468,5.637,5.637,0,0,1,4.846-6.837c3.009-.191,5.576,2.082,8.483,2.88,2.839.778,5.885.1,8.615-1s5.283-2.618,8.048-3.627A23.593,23.593,0,0,1,584.414,109c4.036-1.261,8.621.788,11.109,4.206s3.127,7.907,2.632,12.106a38.444,38.444,0,0,1-2.11,8.279c0,.237.024.47.019.708-.191,10.147-1.338,22.061-5.666,22.127-7.544.115-5.747-14.1-5.747-14.1-9.259-3.577-5.809-17.449-8.125-19.553s-7.158-7-26.542,2.913c-7.527,3.847-17.535,3.727-23,2.487-.16-.034-.323-.059-.482-.1-.034-.008-.079-.014-.113-.022-.059-.016-.1-.048-.16-.066a17.439,17.439,0,0,1-4.971-2.108,9.821,9.821,0,0,1-4.1-4.556,5.378,5.378,0,0,1,1.058-5.775,11.828,11.828,0,0,1-2.749-6.207" fill="#1a2e35"/>
        <path id="Trazado_2084" data-name="Trazado 2084" d="M543.126,177.23a12.715,12.715,0,0,0,1.644,3.223,4.281,4.281,0,0,0,3.043,1.766,3.841,3.841,0,0,0,3.25-1.772,6.131,6.131,0,0,0,.905-3.7c-.052-1.165-.585-2.555-1.743-2.692a2.9,2.9,0,0,0-1.406.312l-6.086,2.467" fill="#bf654e"/>
        <path id="Trazado_2085" data-name="Trazado 2085" d="M545.557,182.237c.031-.19,1.367.352,3.246-.4a4.644,4.644,0,0,0,2.454-2.23,4.882,4.882,0,0,0,.079-3.98,4.307,4.307,0,0,0-.53-.91c-.241-.253-.2-.242-.459-.2-.248.068-.649.256-.976.383s-.672.275-1,.407c-1.3.528-2.482.988-3.479,1.36-1.992.745-3.254,1.137-3.313,1s1.1-.778,3.012-1.7c.958-.463,2.106-1,3.387-1.574l.985-.441a10.818,10.818,0,0,1,1.112-.458,1.425,1.425,0,0,1,.9.026,1.662,1.662,0,0,1,.671.531,5.213,5.213,0,0,1,.685,1.154,5.7,5.7,0,0,1-.186,4.869,5.2,5.2,0,0,1-3.089,2.5,4.9,4.9,0,0,1-2.637.1c-.6-.159-.888-.365-.865-.426" fill="#1a2e35"/>
        <path id="Trazado_2086" data-name="Trazado 2086" d="M577.138,121.058a11.13,11.13,0,0,0,.009-2.233,8.709,8.709,0,0,0-2.884-5.182,11.731,11.731,0,0,0-8.307-2.743c-3.414.028-7.042,1.149-10.793,2.413-1.885.621-3.743,1.214-5.586,1.621a29.1,29.1,0,0,1-14.485-.539,28.242,28.242,0,0,1-5.689-2.412c-.64-.354-1.113-.665-1.429-.883a2.31,2.31,0,0,1-.47-.352c.03-.047.7.395,2,1.048a31.305,31.305,0,0,0,5.7,2.23,29.837,29.837,0,0,0,8.968,1.063,29.041,29.041,0,0,0,5.295-.675c1.81-.407,3.649-1,5.532-1.617,3.745-1.261,7.449-2.4,10.957-2.4a12.02,12.02,0,0,1,8.574,2.962,8.723,8.723,0,0,1,2.834,5.439,5.088,5.088,0,0,1-.22,2.258" fill="#375a64"/>
        <path id="Trazado_2087" data-name="Trazado 2087" d="M591.484,152.24a1.47,1.47,0,0,1-.243-.389c-.147-.26-.34-.657-.573-1.175a23.715,23.715,0,0,1-1.47-4.586,25.3,25.3,0,0,1-.475-7.133,63.367,63.367,0,0,1,1.646-8.571,16.8,16.8,0,0,0,.017-8.481,8.588,8.588,0,0,0-1.768-3.214,6.465,6.465,0,0,0-2.651-1.738,6.054,6.054,0,0,0-4.553.116,8.644,8.644,0,0,0-1.417.993,3.516,3.516,0,0,1,1.32-1.18,6.116,6.116,0,0,1,4.773-.292,6.765,6.765,0,0,1,2.862,1.8,8.952,8.952,0,0,1,1.911,3.367,16.982,16.982,0,0,1,.038,8.741,68.12,68.12,0,0,0-1.679,8.5,26.115,26.115,0,0,0,.353,7.016,27.477,27.477,0,0,0,1.289,4.581,17.02,17.02,0,0,1,.62,1.645" fill="#375a64"/>
        <path id="Trazado_2088" data-name="Trazado 2088" d="M578.91,119.568a3.908,3.908,0,0,1,.008-.741c.02-.538.046-1.24.079-2.116a24.543,24.543,0,0,0-.853-7.663,13.558,13.558,0,0,0-2.464-4.655,9.525,9.525,0,0,0-4.947-3.267,12.493,12.493,0,0,0-6.6.269,30.6,30.6,0,0,0-6.6,2.993,54.448,54.448,0,0,1-6.548,3.369,20.009,20.009,0,0,1-6.747,1.355,21.265,21.265,0,0,1-6.18-.759,23.941,23.941,0,0,1-5.013-2.065,20.469,20.469,0,0,1-5.936-5.068,12.711,12.711,0,0,1-1.2-1.754,3.738,3.738,0,0,1-.357-.648,3.752,3.752,0,0,1,.449.59,16.079,16.079,0,0,0,1.275,1.68,21.268,21.268,0,0,0,5.959,4.864,23.962,23.962,0,0,0,4.943,1.966,21.106,21.106,0,0,0,6.049.694,19.693,19.693,0,0,0,6.565-1.35,55.332,55.332,0,0,0,6.478-3.347,30.676,30.676,0,0,1,6.724-3.032,12.946,12.946,0,0,1,6.878-.242,9.952,9.952,0,0,1,5.165,3.467,13.793,13.793,0,0,1,2.485,4.83,23.452,23.452,0,0,1,.7,7.781c-.054.922-.126,1.634-.181,2.117a3.63,3.63,0,0,1-.117.732" fill="#375a64"/>
        <path id="Trazado_2089" data-name="Trazado 2089" d="M401.585,374.106c1.931,2.725,5.649,1.8,7.366.118s2.432-4.1,3.083-6.416c1.487-5.282,2.985-10.823,1.826-16.186a8.989,8.989,0,0,0-2.091-4.386,4.692,4.692,0,0,0-4.457-1.455c-1.874.506-3.031,2.351-3.864,4.1a38.57,38.57,0,0,0-3.716,16.57c.007,2.665.337,5.459,1.853,7.65" fill="#ff4f5b"/>
        <g id="Grupo_339" data-name="Grupo 339" opacity="0.2">
          <g id="Grupo_338" data-name="Grupo 338">
            <g id="Grupo_337" data-name="Grupo 337" clip-path="url(#clip-path-6)">
              <path id="Trazado_2090" data-name="Trazado 2090" d="M401.585,374.106c1.931,2.725,5.649,1.8,7.366.118s2.432-4.1,3.083-6.416c1.487-5.282,2.985-10.823,1.826-16.186a8.989,8.989,0,0,0-2.091-4.386,4.692,4.692,0,0,0-4.457-1.455c-1.874.506-3.031,2.351-3.864,4.1a38.57,38.57,0,0,0-3.716,16.57c.007,2.665.337,5.459,1.853,7.65"/>
            </g>
          </g>
        </g>
        <path id="Trazado_2091" data-name="Trazado 2091" d="M408.842,387.92a16.6,16.6,0,0,1,10.292-1.311,8.555,8.555,0,0,1,5.1,2.243c1.279,1.4,1.534,3.864.081,5.078a4.882,4.882,0,0,1-3.2.833c-2.723-.017-5.746-.479-7.912,1.172-1.235.942-2.053,2.5-3.534,2.968a3.507,3.507,0,0,1-3.869-1.7,5.994,5.994,0,0,1-.461-4.422,6.752,6.752,0,0,1,3.505-4.866" fill="#ff4f5b"/>
        <path id="Trazado_2092" data-name="Trazado 2092" d="M396.348,378.062a9.956,9.956,0,0,0,1.5-9.17,17.666,17.666,0,0,0-5.472-7.84,29.22,29.22,0,0,0-9.748-5.677,10.359,10.359,0,0,0-4.374-.717,4.586,4.586,0,0,0-3.654,2.24c-1.012,1.956-.018,4.315,1.054,6.239a73.957,73.957,0,0,0,6.437,9.682c1.927,2.455,4.132,4.875,7.053,5.972s5.949.95,7.483-1.081" fill="#ff4f5b"/>
        <path id="Trazado_2093" data-name="Trazado 2093" d="M401.692,415.377a5.912,5.912,0,0,0,.166-1.245c.083-.9.187-2.041.311-3.394a49.31,49.31,0,0,1,.734-4.981,38.554,38.554,0,0,1,1.775-5.884,21.681,21.681,0,0,1,2.97-5.331,11.174,11.174,0,0,1,3.773-3.174,10.549,10.549,0,0,1,3.188-1.012,5.952,5.952,0,0,0,1.236-.187,5.847,5.847,0,0,0-1.259-.013,9.7,9.7,0,0,0-3.325.886,11.175,11.175,0,0,0-3.982,3.2,21.144,21.144,0,0,0-3.077,5.439,35.879,35.879,0,0,0-1.762,5.98,42.107,42.107,0,0,0-.633,5.043c-.1,1.441-.133,2.608-.148,3.414a5.885,5.885,0,0,0,.033,1.256" fill="#1a2e35"/>
        <path id="Trazado_2094" data-name="Trazado 2094" d="M401.911,412.764a2.407,2.407,0,0,0,.03-.577c0-.434-.008-.98-.013-1.65-.013-1.431-.024-3.5.038-6.061.1-5.117.5-12.183,1.3-19.95s1.909-14.762,2.916-19.78c.237-1.256.477-2.388.7-3.379s.4-1.85.578-2.543c.152-.653.277-1.184.376-1.606a2.6,2.6,0,0,0,.1-.57,2.446,2.446,0,0,0-.2.542c-.124.416-.279.94-.47,1.584-.208.686-.421,1.538-.664,2.527s-.519,2.116-.78,3.372a187.55,187.55,0,0,0-3.07,19.8c-.807,7.784-1.151,14.869-1.156,20-.015,2.564.051,4.641.124,6.072.045.67.082,1.216.111,1.649a2.431,2.431,0,0,0,.073.572" fill="#1a2e35"/>
        <path id="Trazado_2095" data-name="Trazado 2095" d="M401.867,399.1a11.062,11.062,0,0,0-.022-1.724c-.07-1.106-.231-2.706-.555-4.665a61.394,61.394,0,0,0-1.557-6.793,60.291,60.291,0,0,0-2.89-8.032,42.877,42.877,0,0,0-8.428-12.958,21,21,0,0,0-1.975-1.815c-.3-.254-.571-.506-.844-.706s-.528-.361-.765-.521a10.9,10.9,0,0,0-1.456-.921,51.805,51.805,0,0,1,4.78,4.215,45.221,45.221,0,0,1,8.218,12.912,64.337,64.337,0,0,1,2.906,7.958,69.118,69.118,0,0,1,1.654,6.726c.367,1.938.582,3.521.713,4.618a11.2,11.2,0,0,0,.221,1.706" fill="#1a2e35"/>
        <path id="Trazado_2096" data-name="Trazado 2096" d="M420.954,259.445l-42.428-1.81V215.208h42.428Z" fill="#ff4f5b"/>
        <rect id="Rectángulo_225" data-name="Rectángulo 225" width="42.428" height="42.428" transform="translate(395.349 203.073)" fill="#ff4f5b"/>
        <path id="Trazado_2097" data-name="Trazado 2097" d="M420.954,257.635,437.778,245.5V203.072l-16.824,12.135Z" fill="#ff4f5b"/>
        <path id="Trazado_2098" data-name="Trazado 2098" d="M378.525,215.208l16.824-12.135h42.428l-16.824,12.135Z" fill="#ff4f5b"/>
        <path id="Trazado_2099" data-name="Trazado 2099" d="M420.954,259.445,437.778,245.5V203.073l-16.824,12.135Z" fill="#ff4f5b"/>
        <g id="Grupo_342" data-name="Grupo 342" opacity="0.3">
          <g id="Grupo_341" data-name="Grupo 341">
            <g id="Grupo_340" data-name="Grupo 340" clip-path="url(#clip-path-7)">
              <path id="Trazado_2100" data-name="Trazado 2100" d="M378.525,215.208l16.824-12.135h42.428l-16.824,12.135Z" fill="#fff"/>
            </g>
          </g>
        </g>
        <g id="Grupo_345" data-name="Grupo 345" opacity="0.4">
          <g id="Grupo_344" data-name="Grupo 344">
            <g id="Grupo_343" data-name="Grupo 343" clip-path="url(#clip-path-8)">
              <path id="Trazado_2101" data-name="Trazado 2101" d="M420.954,259.445,437.778,245.5V203.073l-16.824,12.135Z"/>
            </g>
          </g>
        </g>
        <path id="Trazado_2102" data-name="Trazado 2102" d="M443.707,247.122a6.219,6.219,0,0,1,.261,2.5c-.207.415-.058.115-.1.209h0l0,0-.006,0-.013.01-.026.019-.051.038-.1.076-.2.147-.383.271c-.246.17-.473.318-.667.435-.389.235-.652.352-.7.295s.14-.278.472-.588c.167-.155.37-.333.6-.525l.364-.294.2-.154.1-.077.051-.039.025-.019.013-.01.007-.005,0,0h0c-.046.093.1-.207-.1.207a6.229,6.229,0,0,1,.26-2.5" fill="#ff4f5b"/>
        <path id="Trazado_2103" data-name="Trazado 2103" d="M443.707,236.4a13.886,13.886,0,0,1,0,5.359,13.937,13.937,0,0,1,0-5.359" fill="#ff4f5b"/>
        <path id="Trazado_2104" data-name="Trazado 2104" d="M443.707,225.681a13.885,13.885,0,0,1,0,5.359,13.937,13.937,0,0,1,0-5.359" fill="#ff4f5b"/>
        <path id="Trazado_2105" data-name="Trazado 2105" d="M443.707,214.961a13.891,13.891,0,0,1,0,5.36,13.942,13.942,0,0,1,0-5.36" fill="#ff4f5b"/>
        <path id="Trazado_2106" data-name="Trazado 2106" d="M443.707,204.24a13.891,13.891,0,0,1,0,5.36,13.942,13.942,0,0,1,0-5.36" fill="#ff4f5b"/>
        <path id="Trazado_2107" data-name="Trazado 2107" d="M441.207,196.38a6.2,6.2,0,0,1,2.5-.261c.521.521.145.145.261.262h0v.253l0,.248c-.005.149-.009.3-.015.47-.013.3-.032.568-.055.795-.048.452-.113.732-.185.732s-.137-.28-.184-.732c-.024-.227-.043-.5-.056-.795-.005-.167-.01-.321-.015-.47l0-.248v-.253h0c.116.115-.26-.261.26.259a6.23,6.23,0,0,1-2.5-.26" fill="#ff4f5b"/>
        <path id="Trazado_2108" data-name="Trazado 2108" d="M431.617,196.38a11.142,11.142,0,0,1,4.795,0,11.184,11.184,0,0,1-4.795,0" fill="#ff4f5b"/>
        <path id="Trazado_2109" data-name="Trazado 2109" d="M422.026,196.38a11.142,11.142,0,0,1,4.8,0,11.184,11.184,0,0,1-4.8,0" fill="#ff4f5b"/>
        <path id="Trazado_2110" data-name="Trazado 2110" d="M412.435,196.38a11.142,11.142,0,0,1,4.8,0,11.184,11.184,0,0,1-4.8,0" fill="#ff4f5b"/>
        <path id="Trazado_2111" data-name="Trazado 2111" d="M402.845,196.38a11.142,11.142,0,0,1,4.8,0,11.184,11.184,0,0,1-4.8,0" fill="#ff4f5b"/>
        <path id="Trazado_2112" data-name="Trazado 2112" d="M393.456,196.937c-.051-.062.162-.333.544-.712l.039-.038.089-.009c.409-.037.942-.059,1.524-.059a5.745,5.745,0,0,1,2.4.26,5.745,5.745,0,0,1-2.4.26c-.582,0-1.115-.022-1.524-.059l.128-.046c-.443.305-.748.465-.8.4" fill="#ff4f5b"/>
        <path id="Trazado_2113" data-name="Trazado 2113" d="M386.076,203.061c-.092-.11.66-.886,1.679-1.73s1.92-1.443,2.011-1.332-.659.886-1.679,1.732-1.919,1.441-2.011,1.33" fill="#ff4f5b"/>
        <path id="Trazado_2114" data-name="Trazado 2114" d="M378.7,209.186c-.092-.11.66-.886,1.679-1.731s1.919-1.442,2.011-1.332-.66.886-1.679,1.732-1.919,1.441-2.011,1.331" fill="#ff4f5b"/>
        <path id="Trazado_2115" data-name="Trazado 2115" d="M373.057,216.344a6.205,6.205,0,0,1-.236-2.5c.188-.395.052-.11.095-.2h0l0,0,.007-.005.012-.011.025-.02.05-.041.1-.08.193-.156c.118-.09.239-.185.371-.288.239-.18.458-.338.648-.465.378-.251.634-.38.68-.325s-.128.284-.446.61c-.159.162-.354.348-.575.549l-.352.312-.188.162-.1.081-.05.041-.025.022-.012.009-.006.005,0,0h0c.042-.088-.094.2.094-.2a6.225,6.225,0,0,1-.285,2.5" fill="#ff4f5b"/>
        <path id="Trazado_2116" data-name="Trazado 2116" d="M372.96,226.263a11.932,11.932,0,0,1,.049-4.959,11.931,11.931,0,0,1-.049,4.959" fill="#ff4f5b"/>
        <path id="Trazado_2117" data-name="Trazado 2117" d="M372.863,236.182a11.932,11.932,0,0,1,.049-4.959,11.93,11.93,0,0,1-.049,4.959" fill="#ff4f5b"/>
        <path id="Trazado_2118" data-name="Trazado 2118" d="M372.766,246.1a11.936,11.936,0,0,1,.049-4.96,11.936,11.936,0,0,1-.049,4.96" fill="#ff4f5b"/>
        <path id="Trazado_2119" data-name="Trazado 2119" d="M372.668,256.02a11.932,11.932,0,0,1,.049-4.959,11.931,11.931,0,0,1-.049,4.959" fill="#ff4f5b"/>
        <path id="Trazado_2120" data-name="Trazado 2120" d="M375.1,263.521a6.23,6.23,0,0,1-2.5.22c-.512-.527-.142-.147-.256-.265h0v-.126l0-.127.006-.249c.006-.148.013-.3.02-.469.016-.3.038-.568.063-.794.052-.452.12-.731.192-.73s.134.281.177.734c.021.226.038.5.048.8,0,.167.007.321.01.47l0,.248v.254h0c-.115-.117.256.263-.256-.263a6.246,6.246,0,0,1,2.495.3" fill="#ff4f5b"/>
        <path id="Trazado_2121" data-name="Trazado 2121" d="M384.568,263.676a10.9,10.9,0,0,1-4.737-.077,10.9,10.9,0,0,1,4.737.077" fill="#ff4f5b"/>
        <path id="Trazado_2122" data-name="Trazado 2122" d="M394.042,263.833a10.924,10.924,0,0,1-4.738-.078,10.883,10.883,0,0,1,4.738.078" fill="#ff4f5b"/>
        <path id="Trazado_2123" data-name="Trazado 2123" d="M403.514,263.988a10.875,10.875,0,0,1-4.736-.078,10.915,10.915,0,0,1,4.736.078" fill="#ff4f5b"/>
        <path id="Trazado_2124" data-name="Trazado 2124" d="M412.987,264.143a10.895,10.895,0,0,1-4.736-.077,10.894,10.894,0,0,1,4.736.077" fill="#ff4f5b"/>
        <path id="Trazado_2125" data-name="Trazado 2125" d="M422.46,264.3a10.9,10.9,0,0,1-4.737-.077,10.9,10.9,0,0,1,4.737.077" fill="#ff4f5b"/>
        <path id="Trazado_2126" data-name="Trazado 2126" d="M430.383,259.708c.086.115-.688.849-1.731,1.638s-1.959,1.337-2.046,1.221.688-.847,1.731-1.636,1.959-1.337,2.046-1.223" fill="#ff4f5b"/>
        <path id="Trazado_2127" data-name="Trazado 2127" d="M437.937,253.99c.086.115-.688.848-1.731,1.638s-1.959,1.336-2.046,1.221.688-.847,1.731-1.637,1.959-1.336,2.046-1.222" fill="#ff4f5b"/>
        <path id="Trazado_2128" data-name="Trazado 2128" d="M432.191,192.925c.141.031.131.6-.021,1.276s-.389,1.195-.529,1.162-.131-.6.021-1.276.389-1.193.529-1.162" fill="#ff4f5b"/>
        <path id="Trazado_2129" data-name="Trazado 2129" d="M434.485,182.758a13.14,13.14,0,0,1-1.147,5.083,13.14,13.14,0,0,1,1.147-5.083" fill="#ff4f5b"/>
        <path id="Trazado_2130" data-name="Trazado 2130" d="M436.78,172.59a13.186,13.186,0,0,1-1.147,5.085,13.148,13.148,0,0,1,1.147-5.085" fill="#ff4f5b"/>
        <path id="Trazado_2131" data-name="Trazado 2131" d="M439.074,162.424a13.138,13.138,0,0,1-1.147,5.084,13.187,13.187,0,0,1,1.147-5.084" fill="#ff4f5b"/>
        <path id="Trazado_2132" data-name="Trazado 2132" d="M441.368,152.257a13.139,13.139,0,0,1-1.147,5.083,13.139,13.139,0,0,1,1.147-5.083" fill="#ff4f5b"/>
        <path id="Trazado_2133" data-name="Trazado 2133" d="M443.663,142.09a13.187,13.187,0,0,1-1.147,5.083,13.139,13.139,0,0,1,1.147-5.083" fill="#ff4f5b"/>
        <path id="Trazado_2134" data-name="Trazado 2134" d="M445.36,134.567c.14.031.131.6-.021,1.276s-.389,1.194-.529,1.162-.131-.6.021-1.276.389-1.194.529-1.162" fill="#ff4f5b"/>
        <path id="Trazado_2135" data-name="Trazado 2135" d="M393,194.146c.129-.064.484.383.8,1s.458,1.169.33,1.234-.485-.382-.795-1-.458-1.169-.33-1.233" fill="#ff4f5b"/>
        <path id="Trazado_2136" data-name="Trazado 2136" d="M388.621,185.441c.129-.064.724.857,1.329,2.059a5.935,5.935,0,0,1,.863,2.294c-.129.064-.723-.858-1.329-2.06a5.934,5.934,0,0,1-.863-2.293" fill="#ff4f5b"/>
        <path id="Trazado_2137" data-name="Trazado 2137" d="M384.237,176.736c.129-.065.723.856,1.329,2.059a5.929,5.929,0,0,1,.863,2.294c-.129.064-.723-.858-1.329-2.06a5.939,5.939,0,0,1-.863-2.293" fill="#ff4f5b"/>
        <path id="Trazado_2138" data-name="Trazado 2138" d="M379.854,168.03c.128-.064.723.857,1.329,2.06a5.934,5.934,0,0,1,.863,2.293c-.129.065-.723-.857-1.329-2.059a5.941,5.941,0,0,1-.863-2.294" fill="#ff4f5b"/>
        <path id="Trazado_2139" data-name="Trazado 2139" d="M375.471,159.325c.128-.064.723.857,1.329,2.059a5.935,5.935,0,0,1,.863,2.294c-.129.064-.723-.858-1.329-2.06a5.933,5.933,0,0,1-.863-2.293" fill="#ff4f5b"/>
        <path id="Trazado_2140" data-name="Trazado 2140" d="M371.087,150.62c.128-.065.723.857,1.329,2.059a5.929,5.929,0,0,1,.863,2.294c-.129.064-.723-.858-1.329-2.06a5.939,5.939,0,0,1-.863-2.293" fill="#ff4f5b"/>
        <path id="Trazado_2141" data-name="Trazado 2141" d="M366.7,141.914c.128-.064.723.857,1.329,2.06a5.934,5.934,0,0,1,.863,2.293c-.129.065-.723-.857-1.329-2.059a5.941,5.941,0,0,1-.863-2.294" fill="#ff4f5b"/>
        <path id="Trazado_2142" data-name="Trazado 2142" d="M362.321,133.209c.128-.064.723.857,1.329,2.059a5.935,5.935,0,0,1,.863,2.294c-.129.064-.723-.858-1.329-2.06a5.934,5.934,0,0,1-.863-2.293" fill="#ff4f5b"/>
        <path id="Trazado_2143" data-name="Trazado 2143" d="M359.005,126.623c.128-.064.484.383.795,1s.458,1.168.33,1.233-.485-.382-.8-1-.458-1.169-.33-1.233" fill="#ff4f5b"/>
        <path id="Trazado_2144" data-name="Trazado 2144" d="M314.692,209.272c-.011.144-.578.216-1.267.162s-1.236-.214-1.225-.357.578-.216,1.266-.162,1.237.213,1.226.357" fill="#ff4f5b"/>
        <path id="Trazado_2145" data-name="Trazado 2145" d="M324.855,210.068a12.61,12.61,0,0,1-5.082-.4,12.61,12.61,0,0,1,5.082.4" fill="#ff4f5b"/>
        <path id="Trazado_2146" data-name="Trazado 2146" d="M335.018,210.864a12.609,12.609,0,0,1-5.082-.4,12.606,12.606,0,0,1,5.082.4" fill="#ff4f5b"/>
        <path id="Trazado_2147" data-name="Trazado 2147" d="M345.181,211.66a12.61,12.61,0,0,1-5.082-.4,12.606,12.606,0,0,1,5.082.4" fill="#ff4f5b"/>
        <path id="Trazado_2148" data-name="Trazado 2148" d="M355.344,212.456a6.44,6.44,0,0,1-2.561.061,6.507,6.507,0,0,1-2.521-.458,12.606,12.606,0,0,1,5.082.4" fill="#ff4f5b"/>
        <path id="Trazado_2149" data-name="Trazado 2149" d="M365.508,213.252a12.609,12.609,0,0,1-5.082-.4,12.61,12.61,0,0,1,5.082.4" fill="#ff4f5b"/>
        <path id="Trazado_2150" data-name="Trazado 2150" d="M373.082,213.844c-.012.144-.578.217-1.268.162s-1.236-.214-1.224-.356.578-.216,1.265-.162,1.237.213,1.227.356" fill="#ff4f5b"/>
        <path id="Trazado_2151" data-name="Trazado 2151" d="M382.335,89.38A44.03,44.03,0,1,1,338.3,45.35a44.03,44.03,0,0,1,44.03,44.03" fill="#fff" fill-rule="evenodd"/>
        <path id="Trazado_2152" data-name="Trazado 2152" d="M382.335,89.38s-.03-.242-.062-.713q-.047-.73-.132-2.09l-.09-1.54c-.059-.563-.179-1.174-.278-1.839s-.218-1.38-.339-2.143a23.73,23.73,0,0,0-.575-2.4,41.928,41.928,0,0,0-4.873-11.683,43.761,43.761,0,0,0-11.153-12.443l-1.9-1.412c-.666-.436-1.368-.836-2.061-1.263-.708-.4-1.379-.892-2.138-1.237l-2.276-1.09q-.575-.275-1.157-.549l-1.216-.444-2.465-.9c-.838-.276-1.715-.455-2.582-.692a22.46,22.46,0,0,0-2.652-.6,40.788,40.788,0,0,0-5.539-.641c-.945-.032-1.9-.125-2.855-.11q-1.439.075-2.9.149c-.486.035-.977.032-1.463.1l-1.461.225c-.975.161-1.966.275-2.946.478a46.4,46.4,0,0,0-5.839,1.713,45.611,45.611,0,0,0-5.711,2.51c-.925.5-1.811,1.085-2.727,1.628-.448.287-.926.531-1.353.855l-1.288.965a49.31,49.31,0,0,0-4.967,4.221l-2.225,2.451-.56.616-.5.665-1,1.342-1.007,1.347-.881,1.44-.88,1.45-.442.727-.374.765q-.739,1.539-1.487,3.087-.591,1.617-1.187,3.243a46.726,46.726,0,0,0-2.259,13.809,46.769,46.769,0,0,0,2.256,13.815l1.187,3.243q.747,1.549,1.487,3.088l.374.766.441.727.881,1.45.881,1.441,1.007,1.348,1,1.341.5.666.56.616,2.225,2.452a49.313,49.313,0,0,0,4.968,4.222l1.289.966c.426.324.905.568,1.353.855.916.543,1.8,1.127,2.727,1.629a45.77,45.77,0,0,0,5.712,2.51,46.363,46.363,0,0,0,5.84,1.713c.98.2,1.971.317,2.946.478l1.461.225c.486.064.978.061,1.464.1l2.9.149c.959.015,1.911-.077,2.855-.109a40.824,40.824,0,0,0,5.54-.642,22.446,22.446,0,0,0,2.651-.6c.868-.237,1.745-.415,2.582-.692l2.466-.9,1.216-.443c.388-.183.774-.367,1.157-.549l2.276-1.091c.759-.345,1.429-.834,2.137-1.237.694-.427,1.4-.827,2.061-1.264l1.9-1.412a43.756,43.756,0,0,0,11.152-12.443A41.927,41.927,0,0,0,380.86,100.1a23.628,23.628,0,0,0,.574-2.4q.182-1.145.339-2.142c.1-.665.219-1.276.278-1.84l.09-1.539q.086-1.359.132-2.09c.032-.471.062-.712.062-.712s.006.241-.009.713c-.019.489-.046,1.186-.08,2.1-.02.462-.041.977-.066,1.545-.051.566-.162,1.18-.253,1.848s-.2,1.387-.317,2.155a23.619,23.619,0,0,1-.553,2.416,41.768,41.768,0,0,1-4.819,11.784,43.9,43.9,0,0,1-11.179,12.586l-1.907,1.43c-.669.444-1.376.85-2.073,1.283-.713.409-1.389.905-2.153,1.254l-2.293,1.11-1.166.557-1.226.451-2.487.915c-.845.282-1.73.464-2.605.705a22.443,22.443,0,0,1-2.676.613,40.934,40.934,0,0,1-5.593.662c-.954.035-1.916.13-2.885.117l-2.929-.144c-.491-.033-.987-.03-1.479-.093l-1.476-.224c-.985-.161-1.988-.275-2.979-.478a46.869,46.869,0,0,1-5.907-1.722,46.25,46.25,0,0,1-5.779-2.53c-.936-.506-1.833-1.1-2.76-1.643-.453-.29-.937-.537-1.369-.864l-1.3-.975a49.423,49.423,0,0,1-5.028-4.264l-2.254-2.478-.566-.623-.51-.673-1.015-1.356-1.019-1.362-.893-1.457-.892-1.467-.447-.736-.379-.775-1.506-3.124q-.6-1.634-1.2-3.28a47.242,47.242,0,0,1-2.285-13.979A47.2,47.2,0,0,1,296.3,75.4l1.2-3.28L299.012,69l.38-.774.446-.736.892-1.466.893-1.456,1.019-1.363,1.015-1.355.51-.673.566-.623q1.133-1.243,2.253-2.477a49.751,49.751,0,0,1,5.027-4.263l1.3-.975c.433-.326.916-.573,1.37-.863.926-.548,1.823-1.137,2.759-1.643a46.169,46.169,0,0,1,5.778-2.529,46.9,46.9,0,0,1,5.906-1.722c.991-.2,1.993-.317,2.978-.478l1.477-.224c.491-.063.988-.06,1.478-.093l2.929-.144c.969-.013,1.931.081,2.884.117a40.965,40.965,0,0,1,5.594.661,22.688,22.688,0,0,1,2.676.613c.875.241,1.759.423,2.6.705l2.487.915,1.226.451,1.166.556q1.158.561,2.293,1.11c.765.349,1.44.845,2.153,1.254.7.433,1.4.839,2.074,1.282l1.906,1.431a43.871,43.871,0,0,1,11.18,12.585,41.748,41.748,0,0,1,4.82,11.785,23.582,23.582,0,0,1,.554,2.417q.17,1.15.316,2.155c.091.668.2,1.282.254,1.848.024.567.046,1.083.066,1.545.034.91.061,1.607.08,2.1.015.472.009.714.009.714" fill="#ff4f5b"/>
        <path id="Trazado_2153" data-name="Trazado 2153" d="M502.688,93.741a44.03,44.03,0,1,1-44.03-44.03,44.03,44.03,0,0,1,44.03,44.03" fill="#fff" fill-rule="evenodd"/>
        <path id="Trazado_2154" data-name="Trazado 2154" d="M502.688,93.741s-.03-.242-.062-.713q-.047-.73-.132-2.09L502.4,89.4c-.059-.564-.179-1.175-.278-1.84s-.218-1.38-.339-2.143a23.915,23.915,0,0,0-.575-2.4,41.921,41.921,0,0,0-4.873-11.684,43.76,43.76,0,0,0-11.153-12.443l-1.9-1.412c-.666-.436-1.368-.836-2.061-1.263-.709-.4-1.379-.893-2.138-1.237l-2.276-1.09c-.383-.183-.77-.366-1.157-.549l-1.216-.444-2.466-.9c-.837-.276-1.714-.455-2.581-.692a22.46,22.46,0,0,0-2.652-.6,40.806,40.806,0,0,0-5.539-.641c-.945-.032-1.9-.125-2.855-.11q-1.439.075-2.9.149c-.486.035-.977.032-1.464.1l-1.46.224c-.975.162-1.966.276-2.946.478a46.539,46.539,0,0,0-5.84,1.714,45.663,45.663,0,0,0-5.71,2.51c-.925.5-1.811,1.085-2.727,1.628-.448.287-.926.531-1.353.855l-1.289.965a49.277,49.277,0,0,0-4.966,4.221l-2.225,2.451-.56.616-.5.665-1,1.342L422.4,69.213l-.881,1.44-.88,1.45-.442.727-.374.765-1.487,3.087q-.591,1.617-1.188,3.243a46.759,46.759,0,0,0-2.259,13.809,46.77,46.77,0,0,0,2.257,13.815l1.187,3.243q.747,1.549,1.487,3.088l.373.766.442.727.881,1.45.881,1.441,1.007,1.348,1,1.341.5.666.56.616,2.225,2.452a49.2,49.2,0,0,0,4.968,4.222l1.289.966c.426.324.9.568,1.353.855.915.543,1.8,1.127,2.727,1.628a45.683,45.683,0,0,0,5.711,2.511,46.429,46.429,0,0,0,5.841,1.713c.98.2,1.971.317,2.946.478l1.461.225c.486.064.977.061,1.463.1l2.9.149c.96.015,1.911-.077,2.856-.109a40.821,40.821,0,0,0,5.54-.642,22.486,22.486,0,0,0,2.651-.6c.868-.237,1.745-.415,2.582-.692l2.466-.9,1.216-.443,1.157-.549L479.1,132.5c.759-.345,1.429-.834,2.137-1.237.694-.427,1.4-.827,2.061-1.264l1.895-1.412a43.76,43.76,0,0,0,11.153-12.443,41.989,41.989,0,0,0,4.872-11.683,23.9,23.9,0,0,0,.574-2.4q.182-1.145.339-2.143c.1-.664.219-1.275.278-1.839l.09-1.539q.086-1.359.132-2.09c.032-.471.062-.712.062-.712s.005.241-.009.713c-.019.489-.046,1.186-.08,2.1q-.03.693-.066,1.545c-.051.566-.163,1.18-.254,1.848s-.2,1.387-.316,2.155a23.619,23.619,0,0,1-.553,2.416,41.8,41.8,0,0,1-4.819,11.784,43.9,43.9,0,0,1-11.179,12.586l-1.907,1.43c-.67.444-1.376.85-2.074,1.283-.712.409-1.388.9-2.153,1.255l-2.292,1.109-1.167.557-1.225.451-2.487.915c-.845.282-1.73.464-2.6.705a22.49,22.49,0,0,1-2.676.613,41.083,41.083,0,0,1-5.594.662c-.953.035-1.915.13-2.884.117l-2.929-.144c-.491-.033-.987-.03-1.479-.093l-1.476-.224c-.986-.161-1.988-.275-2.98-.478a46.9,46.9,0,0,1-5.906-1.722,45.974,45.974,0,0,1-5.779-2.53c-.936-.506-1.834-1.095-2.76-1.643-.454-.29-.937-.537-1.37-.864l-1.3-.974a49.789,49.789,0,0,1-5.027-4.265l-2.254-2.478-.567-.623-.509-.673-1.015-1.356-1.019-1.362-.893-1.457-.892-1.467-.447-.736-.379-.775-1.506-3.124q-.6-1.633-1.2-3.28a47.241,47.241,0,0,1-2.285-13.979,47.2,47.2,0,0,1,2.288-13.973l1.2-3.28q.755-1.568,1.505-3.123l.379-.774.447-.736.892-1.465.893-1.457,1.019-1.363,1.015-1.355.509-.673.567-.623,2.253-2.477a49.644,49.644,0,0,1,5.027-4.263l1.3-.975c.432-.326.916-.573,1.37-.863.926-.548,1.823-1.137,2.759-1.643a46.022,46.022,0,0,1,5.778-2.529,46.736,46.736,0,0,1,5.906-1.722c.991-.2,1.993-.317,2.978-.478l1.477-.224c.491-.063.988-.06,1.478-.093l2.929-.144c.969-.014,1.93.081,2.884.117a41.088,41.088,0,0,1,5.593.661,22.658,22.658,0,0,1,2.677.613c.875.241,1.759.423,2.6.705l2.487.915c.41.151.819.3,1.225.451l1.167.556,2.292,1.11c.766.349,1.441.845,2.153,1.254.7.433,1.4.839,2.074,1.282q.966.723,1.907,1.431a43.9,43.9,0,0,1,11.18,12.585,41.748,41.748,0,0,1,4.82,11.785,23.575,23.575,0,0,1,.553,2.417q.17,1.15.317,2.155c.091.668.2,1.282.254,1.849q.036.851.066,1.544.051,1.365.08,2.1c.014.472.009.714.009.714" fill="#ff4f5b"/>
        <path id="Trazado_2155" data-name="Trazado 2155" d="M368.878,266.824c-.1-.107.658-.942,1.685-1.865s1.937-1.586,2.033-1.479-.658.943-1.685,1.865-1.937,1.585-2.033,1.479" fill="#ff4f5b"/>
        <path id="Trazado_2156" data-name="Trazado 2156" d="M361.443,273.51c-.1-.106.658-.941,1.685-1.865s1.937-1.585,2.033-1.478-.658.942-1.685,1.865-1.937,1.585-2.033,1.478" fill="#ff4f5b"/>
        <path id="Trazado_2157" data-name="Trazado 2157" d="M354.008,280.2c-.1-.106.658-.942,1.685-1.865s1.937-1.585,2.033-1.479-.658.943-1.685,1.866-1.937,1.585-2.033,1.478" fill="#ff4f5b"/>
        <path id="Trazado_2158" data-name="Trazado 2158" d="M346.573,286.885c-.1-.107.658-.942,1.685-1.865s1.936-1.585,2.032-1.479-.657.943-1.684,1.865-1.937,1.585-2.033,1.479" fill="#ff4f5b"/>
        <path id="Trazado_2159" data-name="Trazado 2159" d="M339.138,293.573c-.1-.107.658-.942,1.685-1.866s1.936-1.585,2.032-1.478-.657.942-1.684,1.865-1.937,1.585-2.033,1.479" fill="#ff4f5b"/>
        <path id="Trazado_2160" data-name="Trazado 2160" d="M356.229,329.263a44.03,44.03,0,1,1-44.03-44.03,44.03,44.03,0,0,1,44.03,44.03" fill="#fff" fill-rule="evenodd"/>
        <path id="Trazado_2161" data-name="Trazado 2161" d="M356.229,329.263s-.03-.241-.062-.713-.075-1.183-.132-2.09c-.027-.461-.057-.973-.09-1.539-.059-.564-.179-1.175-.278-1.84s-.218-1.379-.339-2.142a23.924,23.924,0,0,0-.574-2.4,41.956,41.956,0,0,0-4.874-11.684,43.757,43.757,0,0,0-11.153-12.442L336.832,293c-.666-.436-1.368-.837-2.061-1.264-.708-.4-1.379-.892-2.138-1.236l-2.276-1.091c-.383-.182-.769-.366-1.157-.549l-1.216-.443-2.465-.9c-.838-.276-1.715-.455-2.582-.691a22.071,22.071,0,0,0-2.652-.6,40.783,40.783,0,0,0-5.539-.642c-.945-.032-1.9-.125-2.855-.109l-2.9.149c-.486.034-.977.031-1.463.1l-1.461.225c-.975.161-1.966.275-2.946.478a46.4,46.4,0,0,0-5.839,1.713,45.759,45.759,0,0,0-5.711,2.51c-.925.5-1.811,1.086-2.726,1.629-.449.286-.927.531-1.354.854l-1.288.965a49.3,49.3,0,0,0-4.967,4.222l-2.225,2.45-.56.616-.5.666-1,1.341-1.007,1.348-.881,1.439-.88,1.45-.442.727-.374.765q-.74,1.539-1.487,3.088-.591,1.616-1.188,3.242a43.394,43.394,0,0,0,0,27.625l1.187,3.242,1.487,3.089.374.765.441.728.881,1.45.881,1.44,1.007,1.348,1,1.342.5.666.56.616,2.226,2.451a49.19,49.19,0,0,0,4.967,4.222l1.289.966c.426.324.9.568,1.353.855.916.543,1.8,1.127,2.727,1.629a45.774,45.774,0,0,0,5.712,2.51,46.371,46.371,0,0,0,5.84,1.714c.98.2,1.972.316,2.946.478l1.461.225c.486.063.978.06,1.464.1q1.46.073,2.9.149c.959.015,1.911-.078,2.855-.11a40.816,40.816,0,0,0,5.54-.642,22.443,22.443,0,0,0,2.651-.6c.868-.237,1.745-.415,2.582-.692l2.466-.9,1.216-.444c.388-.183.774-.367,1.157-.549l2.276-1.091c.759-.345,1.43-.834,2.137-1.237.694-.427,1.4-.827,2.061-1.263q.96-.715,1.9-1.412a43.759,43.759,0,0,0,11.152-12.444,41.936,41.936,0,0,0,4.872-11.682,23.716,23.716,0,0,0,.574-2.4q.182-1.145.339-2.142c.1-.665.219-1.276.278-1.839q.049-.849.09-1.539.086-1.361.132-2.09c.032-.472.062-.713.062-.713s.006.241-.009.714c-.019.488-.045,1.185-.08,2.1-.02.461-.041.977-.066,1.544-.05.567-.162,1.18-.253,1.848s-.2,1.387-.317,2.155a23.612,23.612,0,0,1-.553,2.416,41.767,41.767,0,0,1-4.819,11.784,43.884,43.884,0,0,1-11.179,12.586l-1.907,1.431c-.669.444-1.375.849-2.073,1.282-.713.41-1.389.9-2.153,1.255l-2.293,1.109-1.166.557-1.226.452-2.487.914c-.845.282-1.73.464-2.605.706a22.888,22.888,0,0,1-2.676.613,41.09,41.09,0,0,1-5.593.661c-.954.036-1.916.13-2.885.117l-2.929-.144c-.491-.033-.987-.03-1.479-.093l-1.476-.224c-.985-.161-1.988-.275-2.979-.478a46.757,46.757,0,0,1-5.907-1.722,46.107,46.107,0,0,1-5.779-2.53c-.936-.506-1.833-1.094-2.76-1.643-.453-.29-.937-.537-1.369-.863l-1.3-.975a49.57,49.57,0,0,1-5.028-4.265l-2.254-2.478-.566-.623-.51-.673-1.015-1.356-1.019-1.362-.893-1.457-.892-1.467-.447-.736-.379-.774-1.506-3.124q-.6-1.635-1.2-3.281a43.854,43.854,0,0,1,0-27.951L271.4,312l1.505-3.123.38-.774.446-.736.892-1.465.893-1.456,1.019-1.363,1.015-1.356.51-.672.566-.623q1.131-1.245,2.253-2.478a49.782,49.782,0,0,1,5.028-4.263l1.3-.975c.433-.326.916-.573,1.37-.862.926-.549,1.823-1.138,2.759-1.644a46.166,46.166,0,0,1,5.778-2.529,46.9,46.9,0,0,1,5.906-1.722c.991-.2,1.993-.317,2.979-.477q.741-.114,1.476-.224c.492-.064.988-.061,1.479-.094l2.929-.144c.968-.013,1.93.082,2.883.117a41.122,41.122,0,0,1,5.594.661,22.684,22.684,0,0,1,2.676.613c.875.241,1.759.424,2.6.7l2.487.915,1.226.451,1.166.557q1.158.56,2.293,1.109c.765.349,1.44.845,2.153,1.254.7.433,1.4.839,2.074,1.282l1.907,1.431A43.884,43.884,0,0,1,350.13,306.7a41.733,41.733,0,0,1,4.82,11.784,23.71,23.71,0,0,1,.554,2.417q.17,1.152.316,2.155c.092.668.2,1.282.254,1.849.024.567.046,1.083.066,1.544.035.911.061,1.608.08,2.1.015.473.009.714.009.714" fill="#ff4f5b"/>
        <path id="Trazado_2162" data-name="Trazado 2162" d="M312.2,205.948a44.031,44.031,0,1,1-44.03-44.03,44.03,44.03,0,0,1,44.03,44.03" fill="#fff" fill-rule="evenodd"/>
        <path id="Trazado_2163" data-name="Trazado 2163" d="M312.2,205.948s-.03-.242-.063-.713q-.045-.73-.131-2.09-.041-.691-.091-1.54c-.059-.563-.178-1.174-.277-1.839s-.219-1.38-.339-2.143a24.006,24.006,0,0,0-.575-2.4,41.989,41.989,0,0,0-4.873-11.683A43.776,43.776,0,0,0,294.7,171.1l-1.9-1.412c-.665-.436-1.367-.836-2.06-1.263-.709-.4-1.379-.893-2.139-1.237l-2.275-1.091-1.157-.549-1.216-.443-2.466-.9c-.837-.277-1.714-.455-2.581-.692a22.458,22.458,0,0,0-2.652-.6,40.649,40.649,0,0,0-5.539-.641c-.945-.033-1.9-.125-2.856-.11q-1.438.075-2.9.149c-.486.035-.977.032-1.464.1l-1.46.225c-.975.162-1.966.276-2.946.478a46.369,46.369,0,0,0-5.84,1.714,45.591,45.591,0,0,0-5.71,2.509c-.925.5-1.812,1.086-2.727,1.629-.448.287-.927.531-1.353.854l-1.289.966A49.28,49.28,0,0,0,237.208,175l-2.225,2.451-.56.616-.5.665-1,1.342-1.007,1.347-.881,1.44-.881,1.449-.441.728-.374.765-1.487,3.087q-.591,1.615-1.188,3.243a43.372,43.372,0,0,0,0,27.624q.6,1.628,1.187,3.243.747,1.55,1.487,3.088l.373.766.442.727.881,1.45.881,1.441,1.007,1.347,1,1.342.5.666.56.616,2.225,2.452a49.3,49.3,0,0,0,4.967,4.222l1.289.966c.427.323.9.568,1.354.854.915.544,1.8,1.128,2.727,1.629a45.463,45.463,0,0,0,5.711,2.51,46.253,46.253,0,0,0,5.84,1.714c.981.2,1.972.317,2.947.478l1.461.225c.486.064.977.061,1.463.1q1.461.073,2.9.149c.959.015,1.911-.077,2.856-.11a40.664,40.664,0,0,0,5.54-.641,22.3,22.3,0,0,0,2.651-.6c.868-.236,1.745-.415,2.582-.692l2.466-.9,1.216-.443,1.157-.549,2.275-1.091c.76-.345,1.43-.834,2.138-1.237.694-.427,1.4-.827,2.061-1.264l1.9-1.412a43.756,43.756,0,0,0,11.152-12.443,41.977,41.977,0,0,0,4.873-11.683,23.907,23.907,0,0,0,.574-2.4q.182-1.145.339-2.143c.1-.664.219-1.276.277-1.839.034-.566.064-1.078.091-1.539q.085-1.359.131-2.09c.033-.471.063-.712.063-.712s0,.241-.01.713c-.018.489-.045,1.186-.079,2.1q-.03.693-.066,1.545c-.051.566-.163,1.179-.254,1.847s-.2,1.388-.317,2.155a23.371,23.371,0,0,1-.553,2.417,41.767,41.767,0,0,1-4.819,11.784,43.906,43.906,0,0,1-11.178,12.586l-1.907,1.43c-.67.444-1.376.85-2.074,1.283-.712.409-1.388.9-2.153,1.254l-2.292,1.11-1.167.557-1.225.451-2.488.914c-.844.283-1.729.465-2.6.706a22.492,22.492,0,0,1-2.676.613,41.262,41.262,0,0,1-5.594.662c-.954.035-1.915.13-2.884.117l-2.929-.144c-.491-.033-.987-.03-1.479-.094l-1.477-.224c-.985-.161-1.987-.274-2.979-.477a46.743,46.743,0,0,1-5.906-1.723A45.968,45.968,0,0,1,247.311,245c-.936-.506-1.834-1.1-2.76-1.644-.454-.289-.937-.536-1.37-.863l-1.3-.975a49.771,49.771,0,0,1-5.028-4.264q-1.121-1.235-2.253-2.478l-.567-.623-.509-.673-1.015-1.356-1.02-1.362-.893-1.457-.891-1.467-.447-.736-.379-.775-1.506-3.124q-.6-1.634-1.2-3.281a43.854,43.854,0,0,1,0-27.951q.6-1.646,1.2-3.28l1.506-3.123.379-.774.447-.736.892-1.466.893-1.456,1.019-1.363,1.015-1.355.509-.673.566-.623,2.254-2.477a49.513,49.513,0,0,1,5.027-4.263l1.3-.975c.432-.326.916-.573,1.369-.863.927-.548,1.824-1.137,2.76-1.643a46.022,46.022,0,0,1,5.778-2.529,46.77,46.77,0,0,1,5.9-1.722c.992-.2,1.994-.317,2.979-.478l1.476-.224c.492-.063.988-.06,1.479-.093q1.476-.074,2.929-.145c.969-.013,1.93.082,2.884.117a41.09,41.09,0,0,1,5.593.662,22.547,22.547,0,0,1,2.677.612c.875.242,1.759.424,2.6.706l2.487.915,1.225.45,1.167.557,2.292,1.11c.765.349,1.441.845,2.153,1.254.7.433,1.4.839,2.074,1.282l1.907,1.43a43.917,43.917,0,0,1,11.18,12.586,41.748,41.748,0,0,1,4.82,11.785,23.567,23.567,0,0,1,.553,2.417q.17,1.15.317,2.155c.091.668.2,1.281.254,1.848.024.567.046,1.083.066,1.545.034.91.061,1.607.079,2.1.015.472.01.714.01.714" fill="#ff4f5b"/>
        <path id="Trazado_2164" data-name="Trazado 2164" d="M269.311,186.8l4.771,9.665a1.239,1.239,0,0,0,.933.679l10.667,1.55a1.24,1.24,0,0,1,.688,2.115l-7.719,7.524a1.237,1.237,0,0,0-.357,1.1l1.822,10.624a1.24,1.24,0,0,1-1.8,1.308l-9.541-5.016a1.234,1.234,0,0,0-1.154,0l-9.54,5.016a1.241,1.241,0,0,1-1.8-1.308l1.822-10.624a1.239,1.239,0,0,0-.356-1.1l-7.719-7.524a1.24,1.24,0,0,1,.687-2.115l10.667-1.55a1.243,1.243,0,0,0,.934-.679l4.77-9.665a1.24,1.24,0,0,1,2.224,0" fill="#fafafa"/>
        <path id="Trazado_2165" data-name="Trazado 2165" d="M269.311,186.8c-.016.009-.056-.1-.2-.256a1.2,1.2,0,0,0-2,.387l-.927,1.934-2.564,5.294-.778,1.6-.414.846a1.413,1.413,0,0,1-.829.662c-1.326.226-2.656.406-4.092.627l-4.481.668-2.365.358a1.03,1.03,0,0,0-.561,1.641l7.751,7.535a1.538,1.538,0,0,1,.47,1.519q-.12.714-.244,1.437-.244,1.445-.5,2.922L256.55,220a.992.992,0,0,0,.434,1.1.953.953,0,0,0,.593.149,1.569,1.569,0,0,0,.634-.243q1.4-.738,2.825-1.487l5.772-3.035.739-.387a1.484,1.484,0,0,1,.97-.115,3.582,3.582,0,0,1,.809.362l.722.381,2.868,1.509,5.591,2.936a.974.974,0,0,0,1.124-.249.932.932,0,0,0,.244-.547,2.916,2.916,0,0,0-.079-.691q-.256-1.507-.508-2.985l-.983-5.779q-.118-.705-.238-1.4a1.528,1.528,0,0,1,.535-1.46l1.974-1.916q1.945-1.889,3.776-3.662.912-.887,1.8-1.741a1.046,1.046,0,0,0-.134-1.718,3.755,3.755,0,0,0-1.065-.23l-1.133-.169-2.191-.327-4.072-.61q-.965-.146-1.873-.282c-.312-.056-.579-.068-.915-.159a1.391,1.391,0,0,1-.75-.6l-2.576-5.3c-.683-1.433-1.22-2.557-1.6-3.354l-.4-.878a1.551,1.551,0,0,1-.122-.307,1.6,1.6,0,0,1,.17.283l.451.856,1.689,3.311c.73,1.448,1.615,3.2,2.641,5.239a1.09,1.09,0,0,0,.6.463c.237.066.577.089.867.137l1.876.263,4.077.574,2.194.31L285,198.4a3.855,3.855,0,0,1,1.205.268,1.435,1.435,0,0,1,.731,1.115,1.466,1.466,0,0,1-.5,1.252q-.877.861-1.786,1.751-1.82,1.784-3.758,3.682l-1.965,1.924a1.043,1.043,0,0,0-.394,1.044l.242,1.4q.489,2.821,1,5.776.255,1.476.515,2.983a3.223,3.223,0,0,1,.086.827,1.443,1.443,0,0,1-.37.835,1.483,1.483,0,0,1-1.7.379l-5.63-2.946-2.868-1.507-.724-.38a3.313,3.313,0,0,0-.677-.314.968.968,0,0,0-.633.075l-.722.379-5.774,3.033-2.826,1.484a2.078,2.078,0,0,1-.834.3,1.468,1.468,0,0,1-.906-.228,1.509,1.509,0,0,1-.664-1.616q.531-3.069,1.04-6.024.255-1.476.505-2.92c.084-.482.166-.96.249-1.436a1.045,1.045,0,0,0-.328-1.094l-7.752-7.607a1.448,1.448,0,0,1-.234-1.395,1.428,1.428,0,0,1,1.037-.923l2.4-.35,4.486-.635,4.053-.581a1.072,1.072,0,0,0,.64-.5l.416-.825q.41-.82.8-1.591c1.026-2.04,1.912-3.8,2.642-5.254q.546-1.072.972-1.914a1.307,1.307,0,0,1,1.316-.8,1.22,1.22,0,0,1,.861.448.763.763,0,0,1,.164.29" fill="#1a2e35"/>
        <path id="Trazado_2166" data-name="Trazado 2166" d="M312.2,205.948a44.031,44.031,0,1,1-44.03-44.03,44.03,44.03,0,0,1,44.03,44.03" fill="#fff" fill-rule="evenodd"/>
        <path id="Trazado_2167" data-name="Trazado 2167" d="M312.2,205.948s-.03-.242-.063-.713q-.045-.73-.131-2.09-.041-.691-.091-1.54c-.059-.563-.178-1.174-.277-1.839s-.219-1.38-.339-2.143a24.006,24.006,0,0,0-.575-2.4,41.989,41.989,0,0,0-4.873-11.683A43.776,43.776,0,0,0,294.7,171.1l-1.9-1.412c-.665-.436-1.367-.836-2.06-1.263-.709-.4-1.379-.893-2.139-1.237l-2.275-1.091-1.157-.549-1.216-.443-2.466-.9c-.837-.277-1.714-.455-2.581-.692a22.458,22.458,0,0,0-2.652-.6,40.649,40.649,0,0,0-5.539-.641c-.945-.033-1.9-.125-2.856-.11q-1.438.075-2.9.149c-.486.035-.977.032-1.464.1l-1.46.225c-.975.162-1.966.276-2.946.478a46.369,46.369,0,0,0-5.84,1.714,45.591,45.591,0,0,0-5.71,2.509c-.925.5-1.812,1.086-2.727,1.629-.448.287-.927.531-1.353.854l-1.289.966A49.28,49.28,0,0,0,237.208,175l-2.225,2.451-.56.616-.5.665-1,1.342-1.007,1.347-.881,1.44-.881,1.449-.441.728-.374.765-1.487,3.087q-.591,1.615-1.188,3.243a43.372,43.372,0,0,0,0,27.624q.6,1.628,1.187,3.243.747,1.55,1.487,3.088l.373.766.442.727.881,1.45.881,1.441,1.007,1.347,1,1.342.5.666.56.616,2.225,2.452a49.3,49.3,0,0,0,4.967,4.222l1.289.966c.427.323.9.568,1.354.854.915.544,1.8,1.128,2.727,1.629a45.463,45.463,0,0,0,5.711,2.51,46.253,46.253,0,0,0,5.84,1.714c.981.2,1.972.317,2.947.478l1.461.225c.486.064.977.061,1.463.1q1.461.073,2.9.149c.959.015,1.911-.077,2.856-.11a40.664,40.664,0,0,0,5.54-.641,22.3,22.3,0,0,0,2.651-.6c.868-.236,1.745-.415,2.582-.692l2.466-.9,1.216-.443,1.157-.549,2.275-1.091c.76-.345,1.43-.834,2.138-1.237.694-.427,1.4-.827,2.061-1.264l1.9-1.412a43.756,43.756,0,0,0,11.152-12.443,41.977,41.977,0,0,0,4.873-11.683,23.907,23.907,0,0,0,.574-2.4q.182-1.145.339-2.143c.1-.664.219-1.276.277-1.839.034-.566.064-1.078.091-1.539q.085-1.359.131-2.09c.033-.471.063-.712.063-.712s0,.241-.01.713c-.018.489-.045,1.186-.079,2.1q-.03.693-.066,1.545c-.051.566-.163,1.179-.254,1.847s-.2,1.388-.317,2.155a23.371,23.371,0,0,1-.553,2.417,41.767,41.767,0,0,1-4.819,11.784,43.906,43.906,0,0,1-11.178,12.586l-1.907,1.43c-.67.444-1.376.85-2.074,1.283-.712.409-1.388.9-2.153,1.254l-2.292,1.11-1.167.557-1.225.451-2.488.914c-.844.283-1.729.465-2.6.706a22.492,22.492,0,0,1-2.676.613,41.262,41.262,0,0,1-5.594.662c-.954.035-1.915.13-2.884.117l-2.929-.144c-.491-.033-.987-.03-1.479-.094l-1.477-.224c-.985-.161-1.987-.274-2.979-.477a46.743,46.743,0,0,1-5.906-1.723A45.968,45.968,0,0,1,247.311,245c-.936-.506-1.834-1.1-2.76-1.644-.454-.289-.937-.536-1.37-.863l-1.3-.975a49.771,49.771,0,0,1-5.028-4.264q-1.121-1.235-2.253-2.478l-.567-.623-.509-.673-1.015-1.356-1.02-1.362-.893-1.457-.891-1.467-.447-.736-.379-.775-1.506-3.124q-.6-1.634-1.2-3.281a43.854,43.854,0,0,1,0-27.951q.6-1.646,1.2-3.28l1.506-3.123.379-.774.447-.736.892-1.466.893-1.456,1.019-1.363,1.015-1.355.509-.673.566-.623,2.254-2.477a49.513,49.513,0,0,1,5.027-4.263l1.3-.975c.432-.326.916-.573,1.369-.863.927-.548,1.824-1.137,2.76-1.643a46.022,46.022,0,0,1,5.778-2.529,46.77,46.77,0,0,1,5.9-1.722c.992-.2,1.994-.317,2.979-.478l1.476-.224c.492-.063.988-.06,1.479-.093q1.476-.074,2.929-.145c.969-.013,1.93.082,2.884.117a41.09,41.09,0,0,1,5.593.662,22.547,22.547,0,0,1,2.677.612c.875.242,1.759.424,2.6.706l2.487.915,1.225.45,1.167.557,2.292,1.11c.765.349,1.441.845,2.153,1.254.7.433,1.4.839,2.074,1.282l1.907,1.43a43.917,43.917,0,0,1,11.18,12.586,41.748,41.748,0,0,1,4.82,11.785,23.567,23.567,0,0,1,.553,2.417q.17,1.15.317,2.155c.091.668.2,1.281.254,1.848.024.567.046,1.083.066,1.545.034.91.061,1.607.079,2.1.015.472.01.714.01.714" fill="#ff4f5b"/>
        <path id="Trazado_2168" data-name="Trazado 2168" d="M946.256,415.377c0,.123-211.844.224-473.1.224C211.8,415.6,0,415.5,0,415.377s211.8-.225,473.151-.225c261.261,0,473.1.1,473.1.225" fill="#1a2e35"/>
        <path id="Trazado_2169" data-name="Trazado 2169" d="M281.978,224.666H251.484a.783.783,0,0,1-.782-.782V182.716a.782.782,0,0,1,.782-.781h30.494a.781.781,0,0,1,.781.781V199.68a.782.782,0,0,1-1.564,0V183.5H252.266V223.1H281.2v-1.841a.782.782,0,1,1,1.564,0v2.622a.782.782,0,0,1-.781.782" fill="#1a2e35"/>
        <path id="Trazado_2170" data-name="Trazado 2170" d="M285.505,212.25a.782.782,0,0,1-.782-.781V187.118h-2.745a.782.782,0,1,1,0-1.563h3.527a.781.781,0,0,1,.782.781v25.133a.782.782,0,0,1-.782.781" fill="#1a2e35"/>
        <path id="Trazado_2171" data-name="Trazado 2171" d="M285.505,228.286H255.012a.782.782,0,0,1-.782-.782v-3.62a.782.782,0,0,1,1.564,0v2.839h28.929v-5.554a.782.782,0,1,1,1.564,0V227.5a.782.782,0,0,1-.782.782" fill="#1a2e35"/>
        <path id="Trazado_2172" data-name="Trazado 2172" d="M275.5,188.6H257.959a.782.782,0,1,1,0-1.563H275.5a.782.782,0,1,1,0,1.563" fill="#1a2e35"/>
        <path id="Trazado_2173" data-name="Trazado 2173" d="M277.707,192.826H255.754a.782.782,0,1,1,0-1.563h21.953a.782.782,0,1,1,0,1.563" fill="#1a2e35"/>
        <path id="Trazado_2174" data-name="Trazado 2174" d="M277.707,197.05H255.754a.781.781,0,1,1,0-1.562h21.953a.781.781,0,1,1,0,1.562" fill="#1a2e35"/>
        <path id="Trazado_2175" data-name="Trazado 2175" d="M270.375,201.276h-14.62a.782.782,0,1,1,0-1.563h14.62a.782.782,0,0,1,0,1.563" fill="#1a2e35"/>
        <path id="Trazado_2176" data-name="Trazado 2176" d="M269.075,205.5h-13.32a.782.782,0,1,1,0-1.563h13.32a.782.782,0,1,1,0,1.563" fill="#1a2e35"/>
        <path id="Trazado_2177" data-name="Trazado 2177" d="M266.081,209.725H255.754a.782.782,0,0,1,0-1.563h10.327a.782.782,0,1,1,0,1.563" fill="#1a2e35"/>
        <path id="Trazado_2178" data-name="Trazado 2178" d="M262.67,213.95h-6.916a.782.782,0,0,1,0-1.563h6.916a.782.782,0,1,1,0,1.563" fill="#1a2e35"/>
        <path id="Trazado_2179" data-name="Trazado 2179" d="M275.12,216.5a.782.782,0,0,1-.387-.1l-6.4-3.646a.783.783,0,0,1-.373-.862,17.11,17.11,0,0,1,4.479-7.865.781.781,0,0,1,.931-.118l6.4,3.646a.781.781,0,0,1,.372.862,17.133,17.133,0,0,1-4.478,7.865.789.789,0,0,1-.545.221m-5.493-4.81,5.357,3.051a15.807,15.807,0,0,0,3.49-6.129l-5.358-3.05a15.793,15.793,0,0,0-3.489,6.128" fill="#1a2e35"/>
        <path id="Trazado_2180" data-name="Trazado 2180" d="M273.192,221.224a2.112,2.112,0,0,1-1.05-.278l-6.4-3.647a2.132,2.132,0,0,1-.8-2.9l1.256-2.207a2.133,2.133,0,0,1,2.907-.8l6.4,3.646a2.131,2.131,0,0,1,.8,2.906l-1.257,2.207a2.134,2.134,0,0,1-1.855,1.075m-5.142-8.55a.554.554,0,0,0-.151.02.564.564,0,0,0-.343.267l-1.256,2.206a.568.568,0,0,0,.212.774l6.4,3.646a.567.567,0,0,0,.773-.212l1.258-2.207a.568.568,0,0,0-.213-.773l-6.4-3.647a.559.559,0,0,0-.28-.074" fill="#1a2e35"/>
        <path id="Trazado_2181" data-name="Trazado 2181" d="M280.047,209.187a2.116,2.116,0,0,1-1.05-.279l-6.4-3.646a2.135,2.135,0,0,1-.8-2.906l1.257-2.207a2.132,2.132,0,0,1,2.906-.8l6.4,3.645a2.134,2.134,0,0,1,.8,2.906L281.9,208.11a2.134,2.134,0,0,1-1.856,1.077m-6.892-6.058a.568.568,0,0,0,.212.774l6.4,3.647a.568.568,0,0,0,.773-.213l1.257-2.206a.569.569,0,0,0-.213-.774l-6.4-3.646a.565.565,0,0,0-.773.212Z" fill="#1a2e35"/>
        <path id="Trazado_2182" data-name="Trazado 2182" d="M288.243,220.452a2.192,2.192,0,0,1-1.142-.321l-8.707-5.263a.78.78,0,0,1,.127-1.4,1.055,1.055,0,0,0,.665-1.168.781.781,0,0,1,1.139-.824l8.97,4.8a2.218,2.218,0,0,1-.488,4.1,2.221,2.221,0,0,1-.564.072m-8.057-6.327,7.723,4.669a.655.655,0,0,0,.5.073.654.654,0,0,0,.144-1.209L280.6,213.4a2.634,2.634,0,0,1-.415.728" fill="#1a2e35"/>
        <path id="Trazado_2183" data-name="Trazado 2183" d="M278.143,215.1a2.624,2.624,0,0,1-1.907-.828.782.782,0,0,1-.064-.989,16.2,16.2,0,0,0,.9-1.412,16.493,16.493,0,0,0,.753-1.5.779.779,0,0,1,.883-.448,2.59,2.59,0,0,1,.734.282,2.618,2.618,0,0,1-1.3,4.892m-.235-1.59a1.055,1.055,0,0,0,1-1.758c-.149.3-.309.6-.475.893s-.342.582-.525.865" fill="#1a2e35"/>
        <path id="Trazado_2184" data-name="Trazado 2184" d="M307.605,347a16.815,16.815,0,0,1-14.486-8.338.789.789,0,1,1,1.364-.795,15.171,15.171,0,0,0,28.29-7.615V311.5h-23.3a.79.79,0,0,1,0-1.58h24.086a.789.789,0,0,1,.79.79v19.54A16.767,16.767,0,0,1,307.605,347" fill="#1a2e35"/>
        <path id="Trazado_2185" data-name="Trazado 2185" d="M292.207,335.248a.79.79,0,0,1-.762-.581,16.855,16.855,0,0,1-.588-4.415v-19.54a.79.79,0,0,1,.79-.79h3.474a.79.79,0,1,1,0,1.58h-2.684v18.75a15.223,15.223,0,0,0,.532,4,.787.787,0,0,1-.762,1" fill="#1a2e35"/>
        <path id="Trazado_2186" data-name="Trazado 2186" d="M307.605,354.49a3.046,3.046,0,0,1-3.042-3.043V350.01a.789.789,0,0,1,.789-.79h4.506a.789.789,0,0,1,.789.79v1.437a3.045,3.045,0,0,1-3.042,3.043m-1.463-3.691v.648a1.463,1.463,0,1,0,2.926,0V350.8Z" fill="#1a2e35"/>
        <path id="Trazado_2187" data-name="Trazado 2187" d="M311.677,350.8h-8.142a.79.79,0,0,1-.79-.789v-4.344a.789.789,0,0,1,.992-.763,14.777,14.777,0,0,0,7.739,0,.79.79,0,0,1,.991.763v4.344a.79.79,0,0,1-.79.789m-7.352-1.579h6.562v-2.558a16.1,16.1,0,0,1-6.562,0Z" fill="#1a2e35"/>
        <path id="Trazado_2188" data-name="Trazado 2188" d="M332.492,331.258a.79.79,0,0,1-.79-.79v-4.233a.79.79,0,0,1,1.58,0v4.233a.79.79,0,0,1-.79.79" fill="#1a2e35"/>
        <path id="Trazado_2189" data-name="Trazado 2189" d="M324.512,358.4H321.8a.79.79,0,1,1,0-1.58h2.712a1.764,1.764,0,0,0,1.763-1.76v-3.5H321.8a3.342,3.342,0,0,1,0-6.684h2.712a3.345,3.345,0,0,1,3.342,3.342v1.761h2.086a1.763,1.763,0,0,0,1.762-1.761V335.68a.79.79,0,0,1,1.58,0v12.538a3.347,3.347,0,0,1-3.342,3.342h-2.086v3.5a3.345,3.345,0,0,1-3.342,3.34M321.8,346.456a1.762,1.762,0,1,0,0,3.523h4.475v-1.761a1.764,1.764,0,0,0-1.763-1.762Z" fill="#1a2e35"/>
        <path id="Trazado_2190" data-name="Trazado 2190" d="M316.806,358.4h-6.648a3.345,3.345,0,0,1-3.342-3.341V353.7a.79.79,0,1,1,1.58,0v1.357a1.763,1.763,0,0,0,1.762,1.761h6.648a.79.79,0,1,1,0,1.58" fill="#1a2e35"/>
        <path id="Trazado_2191" data-name="Trazado 2191" d="M307.605,334.575a.784.784,0,0,1-.344-.079c-5.075-2.456-6.929-5.52-7.59-7.659a5.651,5.651,0,0,1-.3-1.45,3.943,3.943,0,0,1-.02-.449,5.222,5.222,0,0,1,5.009-5.393,4.779,4.779,0,0,1,3.244,1.287,4.777,4.777,0,0,1,3.244-1.287,5.224,5.224,0,0,1,5.009,5.4,3.656,3.656,0,0,1-.021.457,5.719,5.719,0,0,1-.3,1.441c-.663,2.139-2.519,5.2-7.587,7.651a.788.788,0,0,1-.345.079m-3.244-13.45a3.648,3.648,0,0,0-3.429,3.826,2.628,2.628,0,0,0,.013.3,4.251,4.251,0,0,0,.226,1.089c.463,1.5,1.9,4.267,6.434,6.561,4.537-2.3,5.973-5.068,6.427-6.538a4.27,4.27,0,0,0,.231-1.1c.016-.174.016-.272.016-.293a3.657,3.657,0,0,0-3.43-3.853,3.29,3.29,0,0,0-2.615,1.354.817.817,0,0,1-1.257,0,3.293,3.293,0,0,0-2.616-1.354" fill="#1a2e35"/>
        <path id="Trazado_2192" data-name="Trazado 2192" d="M302.88,325.28a.79.79,0,0,1-.79-.79,1.931,1.931,0,0,1,1.874-1.978c.038,0,.075,0,.111,0a.792.792,0,0,1,.742.835.8.8,0,0,1-.834.742l.045-.788-.067.788c-.156,0-.291.181-.291.4a.79.79,0,0,1-.79.79" fill="#1a2e35"/>
        <path id="Trazado_2193" data-name="Trazado 2193" d="M323.563,315.654h-2.388a.79.79,0,0,1,0-1.58h2.388a.79.79,0,1,1,0,1.58" fill="#1a2e35"/>
        <path id="Trazado_2194" data-name="Trazado 2194" d="M323.563,319.154h-3.854a.789.789,0,0,1,0-1.579h3.854a.789.789,0,1,1,0,1.579" fill="#1a2e35"/>
        <path id="Trazado_2195" data-name="Trazado 2195" d="M323.563,322.655h-2.388a.79.79,0,1,1,0-1.579h2.388a.79.79,0,1,1,0,1.579" fill="#1a2e35"/>
        <path id="Trazado_2196" data-name="Trazado 2196" d="M323.563,326.157h-3.854a.79.79,0,0,1,0-1.58h3.854a.79.79,0,0,1,0,1.58" fill="#1a2e35"/>
        <path id="Trazado_2197" data-name="Trazado 2197" d="M323.563,329.658h-2.388a.79.79,0,0,1,0-1.58h2.388a.79.79,0,1,1,0,1.58" fill="#1a2e35"/>
        <path id="Trazado_2198" data-name="Trazado 2198" d="M450.7,105.343a4.049,4.049,0,0,1-2.887-1.2l-3.924-3.923a4.088,4.088,0,0,1,0-5.775l19.576-19.576a.789.789,0,0,1,1.117,0l8.582,8.582a.788.788,0,0,1,0,1.117l-19.576,19.575a4.051,4.051,0,0,1-2.888,1.2m-5.694-6.236,3.923,3.923a2.565,2.565,0,0,0,3.542,0l19.018-19.018-7.465-7.466L445.009,95.564a2.508,2.508,0,0,0,0,3.543" fill="#1a2e35"/>
        <path id="Trazado_2199" data-name="Trazado 2199" d="M457.282,94a.786.786,0,0,1-.558-.23l-2.452-2.452a.792.792,0,0,1,0-1.118l12.26-12.261a.792.792,0,0,1,1.117,0l2.453,2.453a.789.789,0,0,1,0,1.116L457.841,93.767a.788.788,0,0,1-.559.23m-1.335-3.242,1.335,1.336,11.144-11.144-1.335-1.335Z" fill="#1a2e35"/>
        <path id="Trazado_2200" data-name="Trazado 2200" d="M470.646,82.84a.789.789,0,0,1-.558-.231l-4.659-4.659a.79.79,0,0,1,0-1.118l5.8-5.8a.789.789,0,0,1,1.117,0l4.659,4.659a.789.789,0,0,1,0,1.116l-5.8,5.8a.792.792,0,0,1-.559.231M467.1,77.391l3.542,3.543,4.687-4.687L471.791,72.7Z" fill="#1a2e35"/>
        <path id="Trazado_2201" data-name="Trazado 2201" d="M478.411,78.01a3.168,3.168,0,0,1-2.244-.928l-5.21-5.211a3.173,3.173,0,1,1,4.488-4.488l5.211,5.211a3.172,3.172,0,0,1-2.245,5.416m-5.21-9.977a1.594,1.594,0,0,0-1.127,2.722l5.21,5.21a1.595,1.595,0,1,0,2.255-2.255L474.328,68.5a1.588,1.588,0,0,0-1.127-.466" fill="#1a2e35"/>
        <path id="Trazado_2202" data-name="Trazado 2202" d="M460.348,97.062a.79.79,0,0,1-.558-.23l-8.583-8.583a.79.79,0,0,1,1.117-1.117l8.583,8.582a.789.789,0,0,1-.559,1.348" fill="#1a2e35"/>
        <path id="Trazado_2203" data-name="Trazado 2203" d="M457.221,100.189a.787.787,0,0,1-.558-.231l-1.921-1.921a.79.79,0,0,1,1.117-1.117l1.921,1.92a.79.79,0,0,1-.559,1.349" fill="#1a2e35"/>
        <path id="Trazado_2204" data-name="Trazado 2204" d="M454.218,103.193a.787.787,0,0,1-.558-.231L450.594,99.9a.789.789,0,0,1,1.117-1.116l3.066,3.064a.79.79,0,0,1-.559,1.349" fill="#1a2e35"/>
        <path id="Trazado_2205" data-name="Trazado 2205" d="M444.537,106.307a2.8,2.8,0,0,1-1.953-.853,2.421,2.421,0,0,1-.287-3.384l2.279-2.278a.791.791,0,0,1,1.117,0l2.554,2.554a.789.789,0,0,1,0,1.116l-2.279,2.279a1.992,1.992,0,0,1-1.431.566m.6-4.841-1.72,1.72c-.2.205-.125.741.286,1.151a1.3,1.3,0,0,0,.734.388.52.52,0,0,0,.418-.1l1.719-1.72Z" fill="#1a2e35"/>
        <path id="Trazado_2206" data-name="Trazado 2206" d="M436.522,112.306a.79.79,0,0,1-.559-1.348l6.621-6.621a.79.79,0,1,1,1.117,1.117l-6.621,6.621a.787.787,0,0,1-.558.231" fill="#1a2e35"/>
        <path id="Trazado_2207" data-name="Trazado 2207" d="M463.375,108.062a.79.79,0,0,1-.79-.789V104.9a.79.79,0,0,1,1.58,0v2.377a.79.79,0,0,1-.79.789" fill="#1a2e35"/>
        <path id="Trazado_2208" data-name="Trazado 2208" d="M464.563,106.874h-2.376a.79.79,0,1,1,0-1.579h2.376a.79.79,0,1,1,0,1.579" fill="#1a2e35"/>
        <path id="Trazado_2209" data-name="Trazado 2209" d="M451.153,79.986a.79.79,0,0,1-.79-.79V76.82a.79.79,0,1,1,1.58,0V79.2a.79.79,0,0,1-.79.79" fill="#1a2e35"/>
        <path id="Trazado_2210" data-name="Trazado 2210" d="M452.341,78.8h-2.376a.79.79,0,1,1,0-1.58h2.376a.79.79,0,1,1,0,1.58" fill="#1a2e35"/>
        <path id="Trazado_2211" data-name="Trazado 2211" d="M330.934,75.056h-7.672a3.136,3.136,0,1,1,0-6.272h7.672a3.136,3.136,0,1,1,0,6.272m-7.672-4.693a1.556,1.556,0,1,0,0,3.113h7.672a1.556,1.556,0,1,0,0-3.113Z" fill="#1a2e35"/>
        <path id="Trazado_2212" data-name="Trazado 2212" d="M327.1,75.056a.79.79,0,0,1-.79-.79V69.574a.79.79,0,1,1,1.58,0v4.692a.79.79,0,0,1-.79.79" fill="#1a2e35"/>
        <path id="Trazado_2213" data-name="Trazado 2213" d="M346.773,75.056H339.1a3.136,3.136,0,1,1,0-6.272h7.67a3.136,3.136,0,1,1,0,6.272m-7.67-4.693a1.556,1.556,0,1,0,0,3.113h7.67a1.557,1.557,0,1,0,0-3.113Z" fill="#1a2e35"/>
        <path id="Trazado_2214" data-name="Trazado 2214" d="M342.938,75.056a.79.79,0,0,1-.79-.79V69.574a.79.79,0,1,1,1.58,0v4.692a.79.79,0,0,1-.79.79" fill="#1a2e35"/>
        <path id="Trazado_2215" data-name="Trazado 2215" d="M330.934,83.474h-7.672a3.137,3.137,0,1,1,0-6.273h7.672a3.137,3.137,0,0,1,0,6.273m-7.672-4.694a1.557,1.557,0,1,0,0,3.114h7.672a1.557,1.557,0,1,0,0-3.114Z" fill="#1a2e35"/>
        <path id="Trazado_2216" data-name="Trazado 2216" d="M327.1,83.474a.79.79,0,0,1-.79-.79V77.991a.79.79,0,1,1,1.58,0v4.693a.79.79,0,0,1-.79.79" fill="#1a2e35"/>
        <path id="Trazado_2217" data-name="Trazado 2217" d="M346.773,83.474H339.1a3.137,3.137,0,1,1,0-6.273h7.67a3.137,3.137,0,1,1,0,6.273M339.1,78.78a1.557,1.557,0,1,0,0,3.114h7.67a1.557,1.557,0,1,0,0-3.114Z" fill="#1a2e35"/>
        <path id="Trazado_2218" data-name="Trazado 2218" d="M342.938,83.474a.79.79,0,0,1-.79-.79V77.991a.79.79,0,1,1,1.58,0v4.693a.79.79,0,0,1-.79.79" fill="#1a2e35"/>
        <path id="Trazado_2219" data-name="Trazado 2219" d="M330.934,91.891h-7.672a3.137,3.137,0,1,1,0-6.273h7.672a3.137,3.137,0,0,1,0,6.273M323.262,87.2a1.556,1.556,0,1,0,0,3.113h7.672a1.556,1.556,0,1,0,0-3.113Z" fill="#1a2e35"/>
        <path id="Trazado_2220" data-name="Trazado 2220" d="M327.1,91.891a.79.79,0,0,1-.79-.79V86.408a.79.79,0,1,1,1.58,0V91.1a.79.79,0,0,1-.79.79" fill="#1a2e35"/>
        <path id="Trazado_2221" data-name="Trazado 2221" d="M346.773,91.891H339.1a3.137,3.137,0,1,1,0-6.273h7.67a3.137,3.137,0,1,1,0,6.273M339.1,87.2a1.556,1.556,0,1,0,0,3.113h7.67a1.557,1.557,0,1,0,0-3.113Z" fill="#1a2e35"/>
        <path id="Trazado_2222" data-name="Trazado 2222" d="M342.938,91.891a.79.79,0,0,1-.79-.79V86.408a.79.79,0,1,1,1.58,0V91.1a.79.79,0,0,1-.79.79" fill="#1a2e35"/>
        <path id="Trazado_2223" data-name="Trazado 2223" d="M330.934,100.308h-7.672a3.136,3.136,0,1,1,0-6.273h7.672a3.136,3.136,0,0,1,0,6.273m-7.672-4.693a1.556,1.556,0,1,0,0,3.113h7.672a1.556,1.556,0,1,0,0-3.113Z" fill="#1a2e35"/>
        <path id="Trazado_2224" data-name="Trazado 2224" d="M327.1,100.308a.79.79,0,0,1-.79-.79V94.825a.79.79,0,1,1,1.58,0v4.693a.79.79,0,0,1-.79.79" fill="#1a2e35"/>
        <path id="Trazado_2225" data-name="Trazado 2225" d="M346.773,100.308H339.1a3.136,3.136,0,1,1,0-6.273h7.67a3.136,3.136,0,1,1,0,6.273m-7.67-4.693a1.556,1.556,0,1,0,0,3.113h7.67a1.557,1.557,0,1,0,0-3.113Z" fill="#1a2e35"/>
        <path id="Trazado_2226" data-name="Trazado 2226" d="M342.938,100.308a.79.79,0,0,1-.79-.79V94.825a.79.79,0,1,1,1.58,0v4.693a.79.79,0,0,1-.79.79" fill="#1a2e35"/>
        <path id="Trazado_2227" data-name="Trazado 2227" d="M330.934,108.725h-7.672a3.136,3.136,0,1,1,0-6.272h7.672a3.136,3.136,0,1,1,0,6.272m-7.672-4.693a1.556,1.556,0,1,0,0,3.113h7.672a1.556,1.556,0,1,0,0-3.113Z" fill="#1a2e35"/>
        <path id="Trazado_2228" data-name="Trazado 2228" d="M327.1,108.725a.79.79,0,0,1-.79-.79v-4.692a.79.79,0,1,1,1.58,0v4.692a.79.79,0,0,1-.79.79" fill="#1a2e35"/>
        <path id="Trazado_2229" data-name="Trazado 2229" d="M346.773,108.725H339.1a3.136,3.136,0,1,1,0-6.272h7.67a3.136,3.136,0,1,1,0,6.272m-7.67-4.693a1.556,1.556,0,1,0,0,3.113h7.67a1.557,1.557,0,1,0,0-3.113Z" fill="#1a2e35"/>
        <path id="Trazado_2230" data-name="Trazado 2230" d="M342.938,108.725a.79.79,0,0,1-.79-.79v-4.692a.79.79,0,1,1,1.58,0v4.692a.79.79,0,0,1-.79.79" fill="#1a2e35"/>
        <path id="Trazado_2231" data-name="Trazado 2231" d="M352.264,100.308a.79.79,0,0,1-.79-.79V98.254a.79.79,0,1,1,1.58,0v1.264a.79.79,0,0,1-.79.79" fill="#1a2e35"/>
        <path id="Trazado_2232" data-name="Trazado 2232" d="M352.264,93.363a.79.79,0,0,1-.79-.789v-2.84a.79.79,0,0,1,1.58,0v2.84a.79.79,0,0,1-.79.789m0-8.522a.789.789,0,0,1-.79-.788V81.212a.79.79,0,0,1,1.58,0v2.841a.789.789,0,0,1-.79.788" fill="#1a2e35"/>
        <path id="Trazado_2233" data-name="Trazado 2233" d="M352.264,76.32a.79.79,0,0,1-.79-.79V74.266a.79.79,0,1,1,1.58,0V75.53a.79.79,0,0,1-.79.79" fill="#1a2e35"/>
        <path id="Trazado_2234" data-name="Trazado 2234" d="M348.1,113H321.942a4.966,4.966,0,0,1-4.959-4.96V69.469a4.965,4.965,0,0,1,4.959-4.96H348.1a4.965,4.965,0,0,1,4.959,4.96v4.8a.789.789,0,1,1-1.579,0v-4.8a3.383,3.383,0,0,0-3.38-3.38H321.942a3.383,3.383,0,0,0-3.38,3.38v38.572a3.383,3.383,0,0,0,3.38,3.38H348.1a3.383,3.383,0,0,0,3.38-3.38V99.519a.789.789,0,1,1,1.579,0v8.522A4.966,4.966,0,0,1,348.1,113" fill="#1a2e35"/>
      </g>
    </g>
  </g>
</svg>
