<svg id="Grupo_395" data-name="Grupo 395" xmlns="http://www.w3.org/2000/svg" xmlns:xlink="http://www.w3.org/1999/xlink" width="47.793" height="54.824" viewBox="0 0 47.793 54.824">
  <defs>
    <clipPath id="clip-path">
      <rect id="Rectángulo_287" data-name="Rectángulo 287" width="47.793" height="54.824" transform="translate(0 0)" fill="none"/>
    </clipPath>
  </defs>
  <path id="Trazado_2455" data-name="Trazado 2455" d="M10.044,1.8l-1.8,11.857L.828,25.955l3.515,25.1-2.43-.9v3.764H21.321V50.159l-2.429.9.9-3.165h27.1l-.9-42.076H42.979l-.9-4.017Z" fill="#fff"/>
  <g id="Grupo_392" data-name="Grupo 392">
    <g id="Grupo_391" data-name="Grupo 391" clip-path="url(#clip-path)">
      <path id="Trazado_2456" data-name="Trazado 2456" d="M10.044,1.8H42.077l.9,4.017h3.013l.9,42.076h-27.1l-.9,3.165,2.429-.9v3.764H1.914V50.158l2.429.9L.828,25.955l7.413-12.3Z" fill="none" stroke="#000" stroke-miterlimit="10" stroke-width="1"/>
    </g>
  </g>
  <rect id="Rectángulo_288" data-name="Rectángulo 288" width="2.338" height="14.036" transform="translate(30.155 30.078)" fill="#ffe227"/>
  <rect id="Rectángulo_289" data-name="Rectángulo 289" width="16.768" height="3.581" transform="translate(22.485 35.017)" fill="#ffe227"/>
  <g id="Grupo_394" data-name="Grupo 394">
    <g id="Grupo_393" data-name="Grupo 393" clip-path="url(#clip-path)">
      <path id="Trazado_2457" data-name="Trazado 2457" d="M16.182,34.31l-.766-8.9s4.59-6.543,7.951.154V40.549l-3.5,7.121-.905,3.283,2.439-.935v3.9H1.918v-3.9H3.453L.828,24.911,8.269,12.154v6.857l.268,7.305Z" fill="#ffe227"/>
      <path id="Trazado_2458" data-name="Trazado 2458" d="M20.42,54.824H2.815a.9.9,0,0,1-.9-.9V50.159a.9.9,0,0,1,.9-.9H20.42a.9.9,0,0,1,.9.9v3.764a.9.9,0,0,1-.9.9m-16.7-1.8h15.8V51.06H3.716Z" fill="#3e145e"/>
      <path id="Trazado_2459" data-name="Trazado 2459" d="M18.892,51.06H4.344a.9.9,0,0,1-.9-.9V47.689L.892,27.138a9.2,9.2,0,0,1,1.77-6.709L8.426,13.1a.9.9,0,0,1,1.61.557v9.821a.906.906,0,0,1-.12.449,2.181,2.181,0,0,0,0,2.254L15.4,33.025l-.042-6.59a3.844,3.844,0,0,1,3.965-3.887,4.093,4.093,0,0,1,3.956,4.035l.084,13.226A8.174,8.174,0,0,1,22.1,44.25L19.793,47.9v2.263a.9.9,0,0,1-.9.9m-13.647-1.8H17.991V47.633a.89.89,0,0,1,.14-.481l2.448-3.866a6.375,6.375,0,0,0,.985-3.466l-.083-13.226a2.277,2.277,0,0,0-2.2-2.244,2.041,2.041,0,0,0-2.116,2.073l.044,7.041a1.615,1.615,0,0,1-1.084,1.552,1.658,1.658,0,0,1-1.866-.538L8.509,27.31a3.924,3.924,0,0,1-.276-4.054v-7L4.09,21.529a7.387,7.387,0,0,0-1.409,5.387L5.238,47.523a.812.812,0,0,1,.007.11Z" fill="#3e145e"/>
      <path id="Trazado_2460" data-name="Trazado 2460" d="M42.978,43.877H40.453a.9.9,0,1,1,0-1.8h1.624V1.8H10.044V13.659a.9.9,0,0,1-1.8,0V.9a.9.9,0,0,1,.9-.9H42.978a.9.9,0,0,1,.9.9V42.976a.9.9,0,0,1-.9.9" fill="#3e145e"/>
      <path id="Trazado_2461" data-name="Trazado 2461" d="M46.892,47.9H40.144a.9.9,0,0,1,0-1.8h5.847V5.819H42.978a.9.9,0,1,1,0-1.8h3.914a.9.9,0,0,1,.9.9V46.994a.9.9,0,0,1-.9.9" fill="#3e145e"/>
      <path id="Trazado_2462" data-name="Trazado 2462" d="M35.794,7.466H16.327a.9.9,0,0,1,0-1.8H35.794a.9.9,0,0,1,0,1.8" fill="#3e145e"/>
      <path id="Trazado_2463" data-name="Trazado 2463" d="M38.24,12.154H13.88a.9.9,0,0,1,0-1.8H38.24a.9.9,0,0,1,0,1.8" fill="#3e145e"/>
      <path id="Trazado_2464" data-name="Trazado 2464" d="M38.24,16.482H13.88a.9.9,0,1,1,0-1.8H38.24a.9.9,0,0,1,0,1.8" fill="#3e145e"/>
      <path id="Trazado_2465" data-name="Trazado 2465" d="M38.24,21.171H13.88a.9.9,0,0,1,0-1.8H38.24a.9.9,0,0,1,0,1.8" fill="#3e145e"/>
      <path id="Trazado_2466" data-name="Trazado 2466" d="M46.892,54.824H.9a.9.9,0,0,1,0-1.8H46.892a.9.9,0,0,1,0,1.8" fill="#3e145e"/>
      <path id="Trazado_2467" data-name="Trazado 2467" d="M33.4,45.935h-4.16a.909.909,0,0,1-.91-.91V40.087H23.4a.912.912,0,0,1-.911-.911v-4.16A.911.911,0,0,1,23.4,34.1h4.938V29.167a.909.909,0,0,1,.91-.91H33.4a.91.91,0,0,1,.91.91V34.1h4.939a.911.911,0,0,1,.911.911v4.16a.912.912,0,0,1-.911.911H34.313v4.938a.91.91,0,0,1-.91.91m-3.249-1.821h2.338V39.176a.911.911,0,0,1,.911-.911h4.939V35.926H33.4a.91.91,0,0,1-.911-.91V30.078H30.154v4.938a.91.91,0,0,1-.911.91H24.305v2.339h4.938a.911.911,0,0,1,.911.911Z" fill="#3e145e"/>
    </g>
  </g>
</svg>
