<svg id="Grupo_390" data-name="Grupo 390" xmlns="http://www.w3.org/2000/svg" xmlns:xlink="http://www.w3.org/1999/xlink" width="946.255" height="407.549" viewBox="0 0 946.255 407.549">
  <defs>
    <clipPath id="clip-path">
      <rect id="Rectángulo_286" data-name="Rectángulo 286" width="946.255" height="407.549" fill="none"/>
    </clipPath>
    <clipPath id="clip-path-3">
      <rect id="Rectángulo_266" data-name="Rectángulo 266" width="107.032" height="50.453" transform="translate(255.193 266.867)" fill="none"/>
    </clipPath>
    <clipPath id="clip-path-4">
      <rect id="Rectángulo_267" data-name="Rectángulo 267" width="16.856" height="16.856" transform="translate(309.069 252.471)" fill="none"/>
    </clipPath>
    <clipPath id="clip-path-5">
      <rect id="Rectángulo_270" data-name="Rectángulo 270" width="64.471" height="30.391" transform="translate(675.503 356.269)" fill="none"/>
    </clipPath>
    <clipPath id="clip-path-6">
      <rect id="Rectángulo_271" data-name="Rectángulo 271" width="10.153" height="10.153" transform="translate(707.955 347.598)" fill="none"/>
    </clipPath>
    <clipPath id="clip-path-7">
      <rect id="Rectángulo_274" data-name="Rectángulo 274" width="64.472" height="30.391" transform="translate(665.333 350.48)" fill="none"/>
    </clipPath>
    <clipPath id="clip-path-8">
      <rect id="Rectángulo_275" data-name="Rectángulo 275" width="10.153" height="10.153" transform="translate(697.786 341.809)" fill="none"/>
    </clipPath>
    <clipPath id="clip-path-9">
      <rect id="Rectángulo_278" data-name="Rectángulo 278" width="64.472" height="30.39" transform="translate(656.277 345.696)" fill="none"/>
    </clipPath>
    <clipPath id="clip-path-10">
      <rect id="Rectángulo_279" data-name="Rectángulo 279" width="10.153" height="10.153" transform="translate(688.73 337.024)" fill="none"/>
    </clipPath>
    <clipPath id="clip-path-11">
      <rect id="Rectángulo_282" data-name="Rectángulo 282" width="64.472" height="30.391" transform="translate(646.108 351.65)" fill="none"/>
    </clipPath>
    <clipPath id="clip-path-12">
      <rect id="Rectángulo_283" data-name="Rectángulo 283" width="10.153" height="10.153" transform="translate(678.561 342.979)" fill="none"/>
    </clipPath>
  </defs>
  <g id="Grupo_389" data-name="Grupo 389" clip-path="url(#clip-path)">
    <g id="Grupo_388" data-name="Grupo 388">
      <g id="Grupo_387" data-name="Grupo 387" clip-path="url(#clip-path)">
        <path id="Trazado_2377" data-name="Trazado 2377" d="M946.256,407.325c0,.124-211.844.225-473.1.225C211.8,407.55,0,407.449,0,407.325s211.8-.224,473.151-.224c261.261,0,473.1.1,473.1.224" fill="#1a2e35"/>
        <rect id="Rectángulo_247" data-name="Rectángulo 247" width="119.581" height="214.817" transform="translate(116.942 37.22)" fill="#ececec"/>
        <rect id="Rectángulo_248" data-name="Rectángulo 248" width="108.792" height="202.189" transform="translate(121.721 43.449)" fill="#fafafa"/>
        <path id="Trazado_2378" data-name="Trazado 2378" d="M230.513,45.831,121.721,184.219V43.449H230.513Z" fill="#f5f5f5"/>
        <rect id="Rectángulo_249" data-name="Rectángulo 249" width="111.155" height="2.152" transform="translate(121.72 101.613)" fill="#ececec"/>
        <rect id="Rectángulo_250" data-name="Rectángulo 250" width="111.155" height="2.152" transform="translate(121.72 149.763)" fill="#ececec"/>
        <rect id="Rectángulo_251" data-name="Rectángulo 251" width="111.155" height="2.153" transform="translate(121.72 197.911)" fill="#ececec"/>
        <rect id="Rectángulo_252" data-name="Rectángulo 252" width="5.497" height="148.682" transform="translate(173.368 102.689)" fill="#ececec"/>
        <rect id="Rectángulo_253" data-name="Rectángulo 253" width="2.49" height="59.24" transform="translate(142.669 43.449)" fill="#ececec"/>
        <rect id="Rectángulo_254" data-name="Rectángulo 254" width="2.49" height="59.24" transform="translate(164.146 43.449)" fill="#ececec"/>
        <rect id="Rectángulo_255" data-name="Rectángulo 255" width="2.49" height="59.24" transform="translate(185.622 43.449)" fill="#ececec"/>
        <rect id="Rectángulo_256" data-name="Rectángulo 256" width="2.49" height="59.24" transform="translate(207.098 43.449)" fill="#ececec"/>
        <rect id="Rectángulo_257" data-name="Rectángulo 257" width="5.058" height="219.791" transform="translate(111.884 33.576)" fill="#f5f5f5"/>
        <path id="Trazado_2379" data-name="Trazado 2379" d="M241.581,253.973l-5.058-1.937V33.576h5.058Z" fill="#e1e1e1"/>
        <rect id="Rectángulo_258" data-name="Rectángulo 258" width="129.696" height="5.861" transform="translate(111.885 31.358)" fill="#e1e1e1"/>
        <rect id="Rectángulo_259" data-name="Rectángulo 259" width="136.708" height="5.46" transform="translate(108.296 254.697)" fill="#e1e1e1"/>
        <path id="Trazado_2380" data-name="Trazado 2380" d="M236.523,252.037,245,254.7H108.3l8.646-2.66Z" fill="#ececec"/>
        <path id="Trazado_2381" data-name="Trazado 2381" d="M750.906,171.132s-8.452-.608-7.674,18.352,2.713,29.059,2.713,29.059-.248,4.2-3.505,3.379-9.381-4.917-12.406-1.858c-3.137,3.172-2.022,8.037,2.14,13.767s12.818,18.62,13.6,19.788c.765,1.148,1.072,3.3-1.237,3.091s-17.887-5.486-19.95,2.056,12.154,21.6,13.678,23.169,1.607,2.555.989,3.5-5.688-1.321-10.181-2.641-9.933-2.063-10.758,2.388,5.436,17.478,28.885,31.169l11.281,5.632,10.678-6.81c21.962-15.968,26.89-29.556,25.623-33.9s-6.606-3.063-10.944-1.3-9.155,4.526-9.865,3.645-.727-1.874.633-3.585,14.1-17.122,11.292-24.421-17.779-.485-20.055-.049-2.187-1.734-1.54-2.952c.657-1.24,7.981-14.931,11.548-21.048s4.191-11.071.752-13.913c-3.316-2.741-9,1.943-12.158,3.089s-3.825-3.01-3.825-3.01.915-10.243-.208-29.186-9.674-17.414-9.674-17.414" fill="#ececec"/>
        <path id="Trazado_2382" data-name="Trazado 2382" d="M751.574,188.114s.022.133.046.4c.021.28.051.666.09,1.163.07,1.044.173,2.548.3,4.477.259,3.889.592,9.519.976,16.477.773,13.915,1.677,33.146,2.6,54.388s1.784,40.483,2.479,54.4c.353,6.944.639,12.57.838,16.481.1,1.931.171,3.437.223,4.482.02.5.036.884.046,1.166.009.262,0,.4,0,.4s-.023-.134-.046-.395c-.021-.282-.051-.667-.089-1.164-.071-1.044-.173-2.548-.3-4.477-.259-3.889-.592-9.518-.976-16.476-.773-13.915-1.676-33.147-2.605-54.4s-1.783-40.474-2.479-54.392c-.352-6.944-.639-12.57-.838-16.482-.095-1.931-.17-3.437-.222-4.482-.021-.5-.036-.885-.047-1.167-.009-.262,0-.4,0-.4" fill="#e1e1e1"/>
        <path id="Trazado_2383" data-name="Trazado 2383" d="M738.372,226.132a3.691,3.691,0,0,1,.7.584c.435.395,1.044.984,1.79,1.72,1.488,1.474,3.49,3.565,5.656,5.914l5.518,6.037,1.68,1.821a3.749,3.749,0,0,1,.587.7,3.637,3.637,0,0,1-.706-.579c-.433-.395-1.043-.985-1.782-1.729-1.474-1.49-3.449-3.607-5.614-5.954-2.135-2.3-4.064-4.385-5.559-5.995q-.993-1.066-1.689-1.814a3.726,3.726,0,0,1-.583-.7" fill="#e1e1e1"/>
        <path id="Trazado_2384" data-name="Trazado 2384" d="M755.424,242.534c-.085-.083,4.041-4.4,9.214-9.648s9.437-9.43,9.522-9.347-4.04,4.4-9.215,9.65-9.436,9.429-9.521,9.345" fill="#e1e1e1"/>
        <path id="Trazado_2385" data-name="Trazado 2385" d="M755.378,275.225a3.816,3.816,0,0,1,.786-.5l2.207-1.238c1.861-1.046,4.428-2.5,7.2-4.2s5.242-3.324,7.016-4.512l2.1-1.4a3.982,3.982,0,0,1,.8-.475,3.827,3.827,0,0,1-.7.611c-.47.37-1.16.893-2.028,1.519-1.734,1.255-4.177,2.924-6.965,4.629s-5.382,3.127-7.283,4.106c-.954.486-1.73.869-2.275,1.118a3.955,3.955,0,0,1-.863.352" fill="#e1e1e1"/>
        <path id="Trazado_2386" data-name="Trazado 2386" d="M736.689,263.785a3.257,3.257,0,0,1,.78.366c.488.26,1.187.649,2.045,1.136,1.717.977,4.074,2.35,6.664,3.89s4.924,2.957,6.6,4c.838.522,1.513.95,1.974,1.255a3.424,3.424,0,0,1,.695.51,3.3,3.3,0,0,1-.781-.366c-.488-.26-1.186-.648-2.044-1.137-1.718-.975-4.076-2.349-6.666-3.889s-4.922-2.956-6.6-4c-.839-.522-1.514-.951-1.976-1.255a3.293,3.293,0,0,1-.693-.51" fill="#e1e1e1"/>
        <path id="Trazado_2387" data-name="Trazado 2387" d="M732.981,292.639a5.309,5.309,0,0,1,.992.479l2.626,1.449c2.207,1.239,5.242,2.977,8.58,4.919s6.35,3.722,8.518,5.03l2.556,1.566a5.45,5.45,0,0,1,.908.625,5.281,5.281,0,0,1-.993-.479c-.694-.384-1.574-.869-2.625-1.448-2.208-1.24-5.242-2.978-8.581-4.92s-6.348-3.722-8.516-5.029l-2.557-1.567a5.509,5.509,0,0,1-.908-.625" fill="#e1e1e1"/>
        <path id="Trazado_2388" data-name="Trazado 2388" d="M756.678,306.209a6.252,6.252,0,0,1,.981-.657l2.743-1.669c2.313-1.41,5.5-3.368,8.965-5.627s6.551-4.375,8.775-5.925l2.636-1.831a6.128,6.128,0,0,1,1-.632,6.015,6.015,0,0,1-.9.767c-.6.471-1.466,1.138-2.557,1.945-2.181,1.614-5.245,3.779-8.717,6.038s-6.691,4.183-9.047,5.528c-1.18.669-2.141,1.2-2.814,1.552a6.043,6.043,0,0,1-1.064.511" fill="#e1e1e1"/>
        <path id="Trazado_2389" data-name="Trazado 2389" d="M773.633,325.677H742.424l10.186,77.107h10.836Z" fill="#e1e1e1"/>
        <path id="Trazado_2390" data-name="Trazado 2390" d="M744.043,335.156c-.012.008.034.109.167.274a1.975,1.975,0,0,0,.753.539,3.777,3.777,0,0,0,3.3-.4c1.261-.7,2.358-2.06,4.047-2.664a8.86,8.86,0,0,1,5.739.114,24.6,24.6,0,0,1,5.344,2.589,36.952,36.952,0,0,0,4.345,2.332,12.03,12.03,0,0,0,3.205.927,6.072,6.072,0,0,0,.907.062c.207,0,.315-.009.316-.027a16.272,16.272,0,0,1-4.281-1.291,42.713,42.713,0,0,1-4.25-2.4,23.714,23.714,0,0,0-5.436-2.674,9.165,9.165,0,0,0-6.056-.066,7.964,7.964,0,0,0-2.281,1.41,17.928,17.928,0,0,1-1.786,1.385,3.67,3.67,0,0,1-3.04.527,3.115,3.115,0,0,1-.989-.628" fill="#f5f5f5"/>
        <path id="Trazado_2391" data-name="Trazado 2391" d="M745.182,349.357c.042.026.247-.317.735-.827a6.942,6.942,0,0,1,2.494-1.581,11.135,11.135,0,0,1,4.339-.654,45.717,45.717,0,0,1,5.431.74,18.68,18.68,0,0,0,5.561.23,15.283,15.283,0,0,0,4.375-1.249,13.955,13.955,0,0,0,2.63-1.563,3.752,3.752,0,0,0,.834-.75,27.935,27.935,0,0,1-3.608,1.983,15.956,15.956,0,0,1-4.287,1.114,19.215,19.215,0,0,1-5.425-.267,40.5,40.5,0,0,0-5.5-.706,10.99,10.99,0,0,0-4.489.788,6.555,6.555,0,0,0-2.5,1.782,4.5,4.5,0,0,0-.473.691c-.091.168-.131.26-.116.269" fill="#f5f5f5"/>
        <path id="Trazado_2392" data-name="Trazado 2392" d="M770.1,356.96a2.665,2.665,0,0,0-.86-.446,9.207,9.207,0,0,0-2.586-.555,16.465,16.465,0,0,0-3.911.224c-1.456.236-3.015.637-4.654.985a19.577,19.577,0,0,1-4.648.525,10.129,10.129,0,0,1-3.69-.8,8.521,8.521,0,0,1-2.8-2.084,2.4,2.4,0,0,0,.528.815,6.6,6.6,0,0,0,2.119,1.595,9.946,9.946,0,0,0,3.82.94,18.754,18.754,0,0,0,4.774-.495c1.656-.353,3.2-.766,4.629-1.021a17.876,17.876,0,0,1,3.81-.328,14.449,14.449,0,0,1,3.467.642" fill="#f5f5f5"/>
        <path id="Trazado_2393" data-name="Trazado 2393" d="M747.939,367.654a5.07,5.07,0,0,1,3.03-.306,14.685,14.685,0,0,1,3.17,1.182,12.03,12.03,0,0,0,4.115,1.135,12.349,12.349,0,0,0,7.466-1.731,10.648,10.648,0,0,0,1.859-1.428c.379-.4.574-.637.548-.662a26.984,26.984,0,0,1-2.587,1.779,12.794,12.794,0,0,1-7.241,1.534c-2.954-.168-5.222-1.931-7.27-2.164a4.642,4.642,0,0,0-2.355.2c-.527.206-.751.438-.735.457" fill="#f5f5f5"/>
        <path id="Trazado_2394" data-name="Trazado 2394" d="M749.678,382.454a5.96,5.96,0,0,0,2.6-.518c1.568-.523,3.509-1.726,5.778-2.627a9.412,9.412,0,0,1,3.315-.695,6.113,6.113,0,0,1,2.667.609,5.877,5.877,0,0,1,1.928,1.664,1.417,1.417,0,0,0-.3-.659,4.282,4.282,0,0,0-1.462-1.323,6.133,6.133,0,0,0-2.829-.76,9.334,9.334,0,0,0-3.505.688c-2.349.936-4.229,2.175-5.728,2.768-1.48.639-2.483.771-2.471.853" fill="#f5f5f5"/>
        <path id="Trazado_2395" data-name="Trazado 2395" d="M751.208,389.339a7.31,7.31,0,0,0,1.977.642,36.241,36.241,0,0,0,9.947.977,7.3,7.3,0,0,0,2.062-.244c-.007-.154-3.162-.02-7.02-.408-3.86-.369-6.928-1.116-6.966-.967" fill="#f5f5f5"/>
        <rect id="Rectángulo_260" data-name="Rectángulo 260" width="96.363" height="63.356" transform="translate(659.557 46.056)" fill="#e1e1e1"/>
        <rect id="Rectángulo_261" data-name="Rectángulo 261" width="89.609" height="57.933" transform="translate(662.909 48.646)" fill="#fafafa"/>
        <rect id="Rectángulo_262" data-name="Rectángulo 262" width="29.233" height="15.941" transform="translate(693.097 69.764)" fill="#e1e1e1"/>
        <path id="Trazado_2396" data-name="Trazado 2396" d="M543.983,212.756H353.845V0H560.2V196.536a16.22,16.22,0,0,1-16.22,16.22" fill="#ececec"/>
        <path id="Trazado_2397" data-name="Trazado 2397" d="M543.162,63.321c0,.432-37.3.781-83.3.781-46.014,0-83.3-.349-83.3-.781s37.29-.781,83.3-.781c46,0,83.3.35,83.3.781" fill="#375a64"/>
        <path id="Trazado_2398" data-name="Trazado 2398" d="M460.852,77.733c0,.432-18.427.781-41.153.781s-41.157-.349-41.157-.781,18.424-.78,41.157-.78,41.153.349,41.153.78" fill="#375a64"/>
        <path id="Trazado_2399" data-name="Trazado 2399" d="M493.776,76.4c0,.432-4.881.781-10.9.781s-10.9-.349-10.9-.781,4.88-.781,10.9-.781,10.9.349,10.9.781" fill="#375a64"/>
        <path id="Trazado_2400" data-name="Trazado 2400" d="M547.612,75.508c0,.432-9.662.781-21.578.781s-21.579-.349-21.579-.781,9.659-.78,21.579-.78,21.578.349,21.578.78" fill="#375a64"/>
        <path id="Trazado_2401" data-name="Trazado 2401" d="M453.978,91.526c0,.432-17.332.781-38.706.781s-38.71-.349-38.71-.781,17.328-.781,38.71-.781,38.706.349,38.706.781" fill="#375a64"/>
        <path id="Trazado_2402" data-name="Trazado 2402" d="M547.612,91.129c0,.432-18.925.781-42.266.781s-42.269-.349-42.269-.781,18.921-.781,42.269-.781,42.266.349,42.266.781" fill="#375a64"/>
        <path id="Trazado_2403" data-name="Trazado 2403" d="M547.612,105.007c0,.432-8.427.781-18.818.781s-18.821-.349-18.821-.781,8.425-.781,18.821-.781,18.818.35,18.818.781" fill="#375a64"/>
        <path id="Trazado_2404" data-name="Trazado 2404" d="M469.749,47.872c0,.432-20.42.781-45.6.781s-45.605-.349-45.605-.781,20.414-.78,45.605-.78,45.6.349,45.6.78" fill="#ff4f5b"/>
        <path id="Trazado_2405" data-name="Trazado 2405" d="M596.613,402.641H197.083a14.567,14.567,0,0,1-14.568-14.567V133.736a14.568,14.568,0,0,1,14.568-14.568h399.53a14.568,14.568,0,0,1,14.567,14.568V388.074a14.567,14.567,0,0,1-14.567,14.567" fill="#1a2e35"/>
        <path id="Trazado_2406" data-name="Trazado 2406" d="M611.817,406.479H182.986a17.8,17.8,0,0,1-17.8-17.8v-7.006H629.615v7.006a17.8,17.8,0,0,1-17.8,17.8" fill="#1a2e35"/>
        <rect id="Rectángulo_263" data-name="Rectángulo 263" width="404.454" height="239.389" transform="translate(194.621 130.431)" fill="#375a64"/>
        <path id="Trazado_2407" data-name="Trazado 2407" d="M355.19,381.675c-.008,0,.143-.009.446-.014l1.36-.013,5.281-.03,19.6-.08,65.524-.14h.483l-.244.418c-.824,1.413-1.71,2.929-2.6,4.456l-2.751,4.711-.08.137h-.16l-81.094-.152h-.07l-.036-.059c-1.848-3-3.271-5.319-4.247-6.906-.461-.755-.815-1.336-1.068-1.749-.236-.39-.342-.578-.342-.578s.145.21.4.606c.268.415.645,1,1.135,1.754l4.332,6.741-.106-.059,81.094-.152-.239.137,2.75-4.712,2.6-4.455.239.417-65.257-.14-19.689-.08-5.364-.03-1.4-.013c-.319-.005-.494-.014-.494-.014" fill="#375a64"/>
        <line id="Línea_1" data-name="Línea 1" x2="428.665" transform="translate(182.516 381.675)" fill="#1a2e35"/>
        <path id="Trazado_2408" data-name="Trazado 2408" d="M611.181,381.675c0,.144-95.968.261-214.322.261-118.4,0-214.343-.117-214.343-.261s95.947-.261,214.343-.261c118.354,0,214.322.117,214.322.261" fill="#375a64"/>
        <path id="Trazado_2409" data-name="Trazado 2409" d="M501.781,82.624h0A11.973,11.973,0,0,1,513.755,94.6v24.571H477.949V96.5a13.877,13.877,0,0,1,13.878-13.877Z" fill="#1a2e35"/>
        <path id="Trazado_2410" data-name="Trazado 2410" d="M501.78,82.624c0,.144-33.784.23-75.448.194s-75.456-.183-75.456-.327,33.777-.23,75.456-.194,75.448.183,75.448.327" fill="#1a2e35"/>
        <path id="Trazado_2411" data-name="Trazado 2411" d="M501.466,82.593l-14.932-.1-21.691.133H305.5a24.5,24.5,0,0,0-24.5,24.5V370.394H487.361V96.055c.605-13.432,14.105-13.462,14.105-13.462" fill="#fafafa"/>
        <path id="Trazado_2412" data-name="Trazado 2412" d="M501.466,82.593l-124.426.272-62.214.047-7.777,0c-1.3-.025-2.579.051-3.857.119a25.218,25.218,0,0,0-3.773.689,24.04,24.04,0,0,0-16.5,14.8,18.809,18.809,0,0,0-.619,1.814l-.477,1.859a26.354,26.354,0,0,0-.445,3.807c-.111,5.153-.025,10.36-.047,15.537l.167,248.855-.5-.5,206.357.133-.364.364.1-148.005.119-74,.072-37,.018-9.249.01-4.625a15.242,15.242,0,0,1,.1-2.31,12.577,12.577,0,0,1,.363-2.285,12.245,12.245,0,0,1,5-7.534,14.425,14.425,0,0,1,4.149-2,17.51,17.51,0,0,1,4.544-.79m0,0a17.516,17.516,0,0,0-4.539.808,14.414,14.414,0,0,0-4.134,2.016,12.182,12.182,0,0,0-4.947,7.521,12.428,12.428,0,0,0-.353,2.274,15.16,15.16,0,0,0-.087,2.306l.009,4.625.018,9.251.073,37,.118,74,.1,148v.363h-.363L281,370.891h-.5v-.5l.167-248.855c.029-5.19-.051-10.355.068-15.566a27.014,27.014,0,0,1,.463-3.906l.491-1.908c.146-.641.43-1.24.638-1.862a24.659,24.659,0,0,1,16.935-15.152,25.754,25.754,0,0,1,3.868-.7c1.31-.071,2.622-.144,3.913-.117l7.777,0,62.213.047Z" fill="#1a2e35"/>
        <path id="Trazado_2413" data-name="Trazado 2413" d="M459.044,132.712c0,.432-19.864.781-44.362.781s-44.366-.349-44.366-.781,19.86-.781,44.366-.781,44.362.349,44.362.781" fill="#ff4f5b"/>
        <path id="Trazado_2414" data-name="Trazado 2414" d="M406.4,146.887c0,.432-7.681.781-17.152.781s-17.155-.349-17.155-.781,7.679-.781,17.155-.781,17.152.349,17.152.781" fill="#375a64"/>
        <path id="Trazado_2415" data-name="Trazado 2415" d="M363.163,190.131c0,.432-14.586.781-32.574.781s-32.578-.349-32.578-.781,14.583-.78,32.578-.78,32.574.349,32.574.78" fill="#375a64"/>
        <path id="Trazado_2416" data-name="Trazado 2416" d="M436.94,190.131c0,.432-14.586.781-32.575.781s-32.577-.349-32.577-.781,14.583-.78,32.577-.78,32.575.349,32.575.78" fill="#ff4f5b"/>
        <path id="Trazado_2417" data-name="Trazado 2417" d="M363.163,201.679c0,.432-14.586.781-32.574.781s-32.578-.349-32.578-.781,14.583-.781,32.578-.781,32.574.349,32.574.781" fill="#375a64"/>
        <path id="Trazado_2418" data-name="Trazado 2418" d="M363.163,213.228c0,.432-14.586.781-32.574.781s-32.578-.349-32.578-.781,14.583-.781,32.578-.781,32.574.349,32.574.781" fill="#ff4f5b"/>
        <path id="Trazado_2419" data-name="Trazado 2419" d="M406.4,170.411c0,.432-7.681.781-17.152.781s-17.155-.349-17.155-.781,7.679-.781,17.155-.781,17.152.349,17.152.781" fill="#375a64"/>
        <path id="Trazado_2420" data-name="Trazado 2420" d="M465.9,190.131c0,.432-5.12.781-11.435.781s-11.436-.349-11.436-.781,5.12-.78,11.436-.78,11.435.349,11.435.78" fill="#375a64"/>
        <path id="Trazado_2421" data-name="Trazado 2421" d="M472.02,146.887c0,.432-13.179.781-29.431.781s-29.434-.349-29.434-.781,13.175-.781,29.434-.781,29.431.349,29.431.781" fill="#375a64"/>
        <path id="Trazado_2422" data-name="Trazado 2422" d="M469.363,158.149c0,.431-21.775.781-48.631.781s-48.636-.35-48.636-.781,21.771-.781,48.636-.781,48.631.349,48.631.781" fill="#375a64"/>
        <path id="Trazado_2423" data-name="Trazado 2423" d="M465.9,201.679c0,.432-21.069.781-47.054.781s-47.058-.349-47.058-.781,21.065-.781,47.058-.781,47.054.349,47.054.781" fill="#375a64"/>
        <path id="Trazado_2424" data-name="Trazado 2424" d="M465.9,235.113c0,.432-19.771.781-44.153.781s-44.158-.349-44.158-.781,19.767-.781,44.158-.781,44.153.349,44.153.781" fill="#ff4f5b"/>
        <path id="Trazado_2425" data-name="Trazado 2425" d="M465.9,246.352c0,.432-19.771.781-44.153.781s-44.158-.349-44.158-.781,19.767-.781,44.158-.781,44.153.35,44.153.781" fill="#375a64"/>
        <path id="Trazado_2426" data-name="Trazado 2426" d="M465.9,257.592c0,.432-19.771.781-44.153.781s-44.158-.349-44.158-.781,19.767-.781,44.158-.781,44.153.349,44.153.781" fill="#375a64"/>
        <path id="Trazado_2427" data-name="Trazado 2427" d="M465.9,268.832c0,.432-19.771.781-44.153.781s-44.158-.349-44.158-.781,19.767-.781,44.158-.781,44.153.349,44.153.781" fill="#375a64"/>
        <path id="Trazado_2428" data-name="Trazado 2428" d="M428.429,280.071c0,.216-2.846.411-7.446.553s-10.954.228-17.973.228-13.376-.087-17.976-.228-7.445-.337-7.445-.553,2.845-.41,7.445-.552,10.956-.228,17.976-.228,13.373.087,17.973.228,7.446.337,7.446.552" fill="#375a64"/>
        <path id="Trazado_2429" data-name="Trazado 2429" d="M449.9,213.833c0,.432-17.029.781-38.031.781s-38.034-.349-38.034-.781,17.025-.781,38.034-.781,38.031.349,38.031.781" fill="#375a64"/>
        <path id="Trazado_2430" data-name="Trazado 2430" d="M361.621,236.381l4.686,86.759-84.831,10.625-.065-98.119Z" fill="#e1e1e1"/>
        <rect id="Rectángulo_264" data-name="Rectángulo 264" width="92.037" height="115.122" transform="translate(251.187 322.401) rotate(-89.632)" fill="#f5f5f5"/>
        <rect id="Rectángulo_265" data-name="Rectángulo 265" width="80.449" height="107.034" transform="translate(255.193 316.631) rotate(-89.632)" fill="#ff4f5b"/>
        <g id="Grupo_359" data-name="Grupo 359" opacity="0.2">
          <g id="Grupo_358" data-name="Grupo 358">
            <g id="Grupo_357" data-name="Grupo 357" clip-path="url(#clip-path-3)">
              <path id="Trazado_2431" data-name="Trazado 2431" d="M255.193,316.631l37.7-49.765L315.854,298.3l15.814-16.624,30.557,35.642Z"/>
            </g>
          </g>
        </g>
        <g id="Grupo_362" data-name="Grupo 362" opacity="0.2">
          <g id="Grupo_361" data-name="Grupo 361">
            <g id="Grupo_360" data-name="Grupo 360" clip-path="url(#clip-path-4)">
              <path id="Trazado_2432" data-name="Trazado 2432" d="M325.925,260.953a8.428,8.428,0,1,1-8.374-8.481,8.429,8.429,0,0,1,8.374,8.481"/>
            </g>
          </g>
        </g>
        <path id="Trazado_2433" data-name="Trazado 2433" d="M377.394,344.856a1.78,1.78,0,1,1-1.78-1.78,1.78,1.78,0,0,1,1.78,1.78" fill="#1a2e35"/>
        <path id="Trazado_2434" data-name="Trazado 2434" d="M387.957,344.856a1.78,1.78,0,1,1-1.78-1.78,1.78,1.78,0,0,1,1.78,1.78" fill="#1a2e35"/>
        <path id="Trazado_2435" data-name="Trazado 2435" d="M398.521,344.856a1.78,1.78,0,1,1-1.78-1.78,1.78,1.78,0,0,1,1.78,1.78" fill="#1a2e35"/>
        <path id="Trazado_2436" data-name="Trazado 2436" d="M437.436,303.493c0,.431-14.586.781-32.575.781s-32.577-.35-32.577-.781,14.583-.781,32.577-.781,32.575.349,32.575.781" fill="#ff4f5b"/>
        <path id="Trazado_2437" data-name="Trazado 2437" d="M466.4,315.041c0,.432-21.069.781-47.054.781s-47.058-.349-47.058-.781,21.065-.781,47.058-.781,47.054.35,47.054.781" fill="#375a64"/>
        <rect id="Rectángulo_268" data-name="Rectángulo 268" width="55.439" height="69.345" transform="translate(673.089 389.719) rotate(-89.632)" fill="#f5f5f5"/>
        <rect id="Rectángulo_269" data-name="Rectángulo 269" width="48.46" height="64.472" transform="translate(675.502 386.245) rotate(-89.631)" fill="#ff4f5b"/>
        <g id="Grupo_365" data-name="Grupo 365" opacity="0.2">
          <g id="Grupo_364" data-name="Grupo 364">
            <g id="Grupo_363" data-name="Grupo 363" clip-path="url(#clip-path-5)">
              <path id="Trazado_2438" data-name="Trazado 2438" d="M675.5,386.245l22.711-29.976L712.042,375.2l9.525-10.014,18.406,21.47Z"/>
            </g>
          </g>
        </g>
        <g id="Grupo_368" data-name="Grupo 368" opacity="0.2">
          <g id="Grupo_367" data-name="Grupo 367">
            <g id="Grupo_366" data-name="Grupo 366" clip-path="url(#clip-path-6)">
              <path id="Trazado_2439" data-name="Trazado 2439" d="M718.108,352.707a5.077,5.077,0,1,1-5.044-5.109,5.077,5.077,0,0,1,5.044,5.109"/>
            </g>
          </g>
        </g>
        <rect id="Rectángulo_272" data-name="Rectángulo 272" width="55.439" height="69.345" transform="translate(662.92 383.93) rotate(-89.632)" fill="#f5f5f5"/>
        <rect id="Rectángulo_273" data-name="Rectángulo 273" width="48.459" height="64.472" transform="translate(665.333 380.456) rotate(-89.631)" fill="#ff4f5b"/>
        <g id="Grupo_371" data-name="Grupo 371" opacity="0.2">
          <g id="Grupo_370" data-name="Grupo 370">
            <g id="Grupo_369" data-name="Grupo 369" clip-path="url(#clip-path-7)">
              <path id="Trazado_2440" data-name="Trazado 2440" d="M665.333,380.456l22.712-29.976,13.828,18.935L711.4,359.4l18.406,21.47Z"/>
            </g>
          </g>
        </g>
        <g id="Grupo_374" data-name="Grupo 374" opacity="0.2">
          <g id="Grupo_373" data-name="Grupo 373">
            <g id="Grupo_372" data-name="Grupo 372" clip-path="url(#clip-path-8)">
              <path id="Trazado_2441" data-name="Trazado 2441" d="M707.939,346.918a5.077,5.077,0,1,1-5.044-5.109,5.078,5.078,0,0,1,5.044,5.109"/>
            </g>
          </g>
        </g>
        <rect id="Rectángulo_276" data-name="Rectángulo 276" width="55.439" height="69.344" transform="translate(653.864 379.147) rotate(-89.632)" fill="#f5f5f5"/>
        <rect id="Rectángulo_277" data-name="Rectángulo 277" width="48.459" height="64.473" transform="translate(656.277 375.672) rotate(-89.632)" fill="#ff4f5b"/>
        <g id="Grupo_377" data-name="Grupo 377" opacity="0.2">
          <g id="Grupo_376" data-name="Grupo 376">
            <g id="Grupo_375" data-name="Grupo 375" clip-path="url(#clip-path-9)">
              <path id="Trazado_2442" data-name="Trazado 2442" d="M656.277,375.672,678.988,345.7l13.829,18.935,9.525-10.014,18.407,21.47Z"/>
            </g>
          </g>
        </g>
        <g id="Grupo_380" data-name="Grupo 380" opacity="0.2">
          <g id="Grupo_379" data-name="Grupo 379">
            <g id="Grupo_378" data-name="Grupo 378" clip-path="url(#clip-path-10)">
              <path id="Trazado_2443" data-name="Trazado 2443" d="M698.883,342.133a5.077,5.077,0,1,1-5.043-5.109,5.077,5.077,0,0,1,5.043,5.109"/>
            </g>
          </g>
        </g>
        <rect id="Rectángulo_280" data-name="Rectángulo 280" width="55.439" height="69.344" transform="translate(643.695 385.101) rotate(-89.632)" fill="#f5f5f5"/>
        <rect id="Rectángulo_281" data-name="Rectángulo 281" width="48.459" height="64.473" transform="translate(646.108 381.626) rotate(-89.632)" fill="#375a64"/>
        <g id="Grupo_383" data-name="Grupo 383" opacity="0.2">
          <g id="Grupo_382" data-name="Grupo 382">
            <g id="Grupo_381" data-name="Grupo 381" clip-path="url(#clip-path-11)">
              <path id="Trazado_2444" data-name="Trazado 2444" d="M646.108,381.627l22.711-29.977,13.829,18.936,9.525-10.014,18.407,21.469Z"/>
            </g>
          </g>
        </g>
        <g id="Grupo_386" data-name="Grupo 386" opacity="0.2">
          <g id="Grupo_385" data-name="Grupo 385">
            <g id="Grupo_384" data-name="Grupo 384" clip-path="url(#clip-path-12)">
              <path id="Trazado_2445" data-name="Trazado 2445" d="M688.714,348.089a5.077,5.077,0,1,1-5.044-5.109,5.075,5.075,0,0,1,5.044,5.109"/>
            </g>
          </g>
        </g>
        <rect id="Rectángulo_284" data-name="Rectángulo 284" width="40.035" height="53.528" transform="translate(713.395 350.278)" fill="#1a2e35"/>
        <path id="Trazado_2446" data-name="Trazado 2446" d="M636.72,403.806h80.07V350.278H636.72Zm48.548-40.86H668.245a3.684,3.684,0,1,1,0-7.368h17.023a3.684,3.684,0,0,1,0,7.368" fill="#ff4f5b"/>
        <path id="Trazado_2447" data-name="Trazado 2447" d="M550.51,245.193a4.712,4.712,0,1,0,2.154-.161" fill="#ececec"/>
        <path id="Trazado_2448" data-name="Trazado 2448" d="M564.028,225.547a5.406,5.406,0,1,0,2.471-.184" fill="#ececec"/>
        <path id="Trazado_2449" data-name="Trazado 2449" d="M592.9,138.942c-9.046-.764-18.2,1.256-24.4,7.885a30.635,30.635,0,0,0-7.8,25.138c-9.621,4-14.868,16.234-11.13,25.96s15.828,15.3,25.651,11.825a34.792,34.792,0,0,0,59.161,9.418c9.437,2.132,20.028,1.993,27.957-3.552s11.516-17.745,5.474-25.3c10.871-2.647,16.4-16.225,13.172-26.938s-12.875-18.4-23.181-22.756c-6.812-2.878-15.306-4.38-21.117.192a26.908,26.908,0,0,0-43.789-1.87" fill="#f5f5f5"/>
        <path id="Trazado_2450" data-name="Trazado 2450" d="M592.9,138.942s.179-.24.548-.7a23.176,23.176,0,0,1,1.755-1.937,27.179,27.179,0,0,1,8.356-5.606,27.645,27.645,0,0,1,7.06-2,25.889,25.889,0,0,1,8.75.267,27.671,27.671,0,0,1,9.36,3.787,27.369,27.369,0,0,1,8.107,7.958l-.256-.043a14.616,14.616,0,0,1,8.559-2.936,27.7,27.7,0,0,1,9.641,1.537,50.3,50.3,0,0,1,9.444,4.332,44.267,44.267,0,0,1,8.756,6.606,32.714,32.714,0,0,1,6.764,9.3,27.527,27.527,0,0,1,1.926,5.656,24.169,24.169,0,0,1-3.5,17.872,18.927,18.927,0,0,1-4.4,4.694,17.432,17.432,0,0,1-5.9,2.822l.136-.4a14.238,14.238,0,0,1,2.685,5.709,17.216,17.216,0,0,1,.158,6.418,21.121,21.121,0,0,1-5.976,11.527,24.313,24.313,0,0,1-11.9,6.081,40.2,40.2,0,0,1-13.7.4c-1.674-.2-3.323-.53-4.943-.876l.258-.087a34.814,34.814,0,0,1-49.647,4.224A35.193,35.193,0,0,1,575,209.838l.3.136a20.923,20.923,0,0,1-16.787-1.755,19.678,19.678,0,0,1-9.822-12.448,21.141,21.141,0,0,1,2.032-14.673,20.445,20.445,0,0,1,9.907-9.3l-.108.194a30.806,30.806,0,0,1,.623-11.875,31.337,31.337,0,0,1,4.314-9.673,30.451,30.451,0,0,1,2.987-3.751,23.814,23.814,0,0,1,3.347-2.911,24.812,24.812,0,0,1,6.9-3.466,33.472,33.472,0,0,1,10.511-1.572,32.647,32.647,0,0,1,3.7.2s-.318,0-.939-.035-1.545-.064-2.758-.061a33.975,33.975,0,0,0-10.449,1.658,24.717,24.717,0,0,0-6.817,3.473,23.878,23.878,0,0,0-3.3,2.9A30.172,30.172,0,0,0,565.7,150.6a31.1,31.1,0,0,0-4.237,9.593,30.556,30.556,0,0,0-.581,11.743l.021.138-.129.055a20.081,20.081,0,0,0-9.7,9.152,20.737,20.737,0,0,0-1.967,14.388,19.246,19.246,0,0,0,9.628,12.151,20.471,20.471,0,0,0,16.407,1.7l.216-.075.085.213A35.349,35.349,0,0,0,600.9,230.84,35.216,35.216,0,0,0,634.184,219l.1-.122.158.034c1.6.341,3.239.665,4.9.867a39.741,39.741,0,0,0,13.525-.4,23.807,23.807,0,0,0,11.654-5.941,20.624,20.624,0,0,0,5.835-11.241,14.988,14.988,0,0,0-2.731-11.734l-.241-.3.377-.1a16.933,16.933,0,0,0,5.719-2.732,18.456,18.456,0,0,0,4.285-4.57,23.7,23.7,0,0,0,3.451-17.506,27.1,27.1,0,0,0-1.883-5.552,32.334,32.334,0,0,0-6.657-9.183,43.955,43.955,0,0,0-8.661-6.557,50.029,50.029,0,0,0-9.355-4.315,27.36,27.36,0,0,0-9.5-1.541,14.258,14.258,0,0,0-8.357,2.836l-.152.118-.1-.16a27.08,27.08,0,0,0-7.982-7.884,27.408,27.408,0,0,0-9.245-3.781,25.715,25.715,0,0,0-8.663-.306,27.828,27.828,0,0,0-15.379,7.442,25.586,25.586,0,0,0-1.786,1.9c-.381.446-.586.666-.586.666" fill="#1a2e35"/>
        <path id="Trazado_2451" data-name="Trazado 2451" d="M654.737,170.114c0,.432-17.733.781-39.6.781s-39.607-.349-39.607-.781,17.73-.78,39.607-.78,39.6.349,39.6.78" fill="#375a64"/>
        <path id="Trazado_2452" data-name="Trazado 2452" d="M654.737,178.708c0,.432-17.733.781-39.6.781s-39.607-.349-39.607-.781,17.73-.781,39.607-.781,39.6.35,39.6.781" fill="#375a64"/>
        <path id="Trazado_2453" data-name="Trazado 2453" d="M654.737,187.3c0,.432-17.733.781-39.6.781s-39.607-.349-39.607-.781,17.73-.781,39.607-.781,39.6.349,39.6.781" fill="#375a64"/>
        <path id="Trazado_2454" data-name="Trazado 2454" d="M654.737,195.9c0,.432-17.733.781-39.6.781s-39.607-.349-39.607-.781,17.73-.781,39.607-.781,39.6.349,39.6.781" fill="#375a64"/>
      </g>
    </g>
  </g>
</svg>
