<svg id="Grupo_356" data-name="Grupo 356" xmlns="http://www.w3.org/2000/svg" xmlns:xlink="http://www.w3.org/1999/xlink" width="946.255" height="382.947" viewBox="0 0 946.255 382.947">
  <defs>
    <clipPath id="clip-path">
      <rect id="Rectángulo_246" data-name="Rectángulo 246" width="946.255" height="382.947" fill="none"/>
    </clipPath>
    <clipPath id="clip-path-3">
      <rect id="Rectángulo_244" data-name="Rectángulo 244" width="14.74" height="0.816" transform="translate(544.003 363.36)" fill="none"/>
    </clipPath>
  </defs>
  <g id="Grupo_355" data-name="Grupo 355" clip-path="url(#clip-path)">
    <g id="Grupo_354" data-name="Grupo 354">
      <g id="Grupo_353" data-name="Grupo 353" clip-path="url(#clip-path)">
        <path id="Trazado_2235" data-name="Trazado 2235" d="M946.256,382.723c0,.124-211.844.225-473.1.225C211.8,382.948,0,382.847,0,382.723s211.8-.224,473.151-.224c261.261,0,473.1.1,473.1.224" fill="#1a2e35"/>
        <path id="Trazado_2236" data-name="Trazado 2236" d="M649.138,122.85a18.627,18.627,0,0,1,3.535,3.463l4.514-.824,2.979,6.982-3.718,2.689a18.577,18.577,0,0,1,.055,4.949l3.773,2.608-2.831,7.044-4.528-.727a18.544,18.544,0,0,1-3.464,3.535l.824,4.515-6.981,2.979-2.69-3.718a18.579,18.579,0,0,1-4.949.054l-2.607,3.774L626,157.342l.728-4.529a18.568,18.568,0,0,1-3.535-3.463l-4.514.825-2.98-6.983,3.718-2.689a18.7,18.7,0,0,1-.054-4.949l-3.772-2.608,2.83-7.044,4.528.728a18.584,18.584,0,0,1,3.464-3.537l-.825-4.513,6.982-2.98,2.689,3.718a18.627,18.627,0,0,1,4.95-.054l2.607-3.773,7.044,2.83Zm-7.847,7.554A8.144,8.144,0,1,0,645.812,141a8.144,8.144,0,0,0-4.521-10.593" fill="#ececec" fill-rule="evenodd"/>
        <path id="Trazado_2237" data-name="Trazado 2237" d="M230.469,153.29a33.636,33.636,0,0,1,6.39,6.258l8.159-1.489,5.386,12.62-6.72,4.861a33.625,33.625,0,0,1,.1,8.945l6.82,4.714-5.117,12.732-8.184-1.314a33.593,33.593,0,0,1-6.261,6.39l1.49,8.159-12.621,5.385-4.86-6.719a33.709,33.709,0,0,1-8.945.1l-4.714,6.82-12.732-5.116,1.314-8.184a33.623,33.623,0,0,1-6.39-6.261l-8.159,1.489-5.386-12.62,6.721-4.86a33.577,33.577,0,0,1-.1-8.944l-6.82-4.715,5.116-12.733,8.185,1.316a33.54,33.54,0,0,1,6.26-6.392l-1.489-8.158,12.62-5.386,4.86,6.721a33.624,33.624,0,0,1,8.945-.1l4.714-6.819,12.733,5.115Zm-14.182,13.653a14.719,14.719,0,1,0,8.171,19.146,14.719,14.719,0,0,0-8.171-19.146" fill="#ececec" fill-rule="evenodd"/>
        <path id="Trazado_2238" data-name="Trazado 2238" d="M196.983,89.4a18.568,18.568,0,0,1,3.535,3.463l4.515-.824,2.979,6.982-3.718,2.689a18.538,18.538,0,0,1,.054,4.949l3.773,2.608-2.83,7.044-4.528-.727a18.573,18.573,0,0,1-3.464,3.535l.824,4.515-6.982,2.979-2.69-3.718a18.613,18.613,0,0,1-4.948.054l-2.608,3.774-7.044-2.831.727-4.529a18.6,18.6,0,0,1-3.535-3.463l-4.514.825-2.98-6.983,3.718-2.689a18.62,18.62,0,0,1-.054-4.949L163.44,99.5l2.83-7.044,4.529.728a18.579,18.579,0,0,1,3.463-3.537l-.824-4.513,6.982-2.98,2.69,3.718a18.612,18.612,0,0,1,4.948-.054l2.608-3.773,7.044,2.83Zm-7.846,7.554a8.144,8.144,0,1,0,4.521,10.593,8.143,8.143,0,0,0-4.521-10.593" fill="#f0f0f0" fill-rule="evenodd"/>
        <path id="Trazado_2239" data-name="Trazado 2239" d="M288.833,33.861a46.37,46.37,0,0,1,10.907,5.76l10.2-5.177,12.08,14.563-6.971,9.066a46.4,46.4,0,0,1,3.647,11.784l10.866,3.551L327.8,92.246,316.47,93.727a46.323,46.323,0,0,1-5.763,10.907l5.177,10.2-14.563,12.079-9.067-6.972a46.335,46.335,0,0,1-11.783,3.646l-3.55,10.868L258.082,132.7l-1.48-11.333a46.441,46.441,0,0,1-10.908-5.763l-10.2,5.177-12.08-14.565,6.972-9.066a46.374,46.374,0,0,1-3.646-11.783l-10.868-3.55,1.756-18.84L228.965,61.5a46.354,46.354,0,0,1,5.762-10.909l-5.177-10.2L244.113,28.31l9.067,6.973a46.307,46.307,0,0,1,11.783-3.646l3.55-10.869,18.84,1.756Zm-13.376,23.62a20.3,20.3,0,1,0,18.327,22.093,20.3,20.3,0,0,0-18.327-22.093" fill="#e1e1e1" fill-rule="evenodd"/>
        <path id="Trazado_2240" data-name="Trazado 2240" d="M209.756,345.614c12.485-8.172,15.655-23.818,15.516-37.953-.023-2.36.3-4.84-.786-6.936s-3.7-3.572-5.865-2.63c-1.794.783-2.617,2.8-3.652,4.461a13.906,13.906,0,0,1-5.732,5.147c-1.54.743-3.433,1.175-4.915.321-2.033-1.171-2.207-3.986-2.134-6.331q.2-6.555.4-13.108a21.605,21.605,0,0,0-.546-6.982,7.308,7.308,0,0,0-4.512-5.028c-2.245-.679-5.071.54-5.6,2.824a21.429,21.429,0,0,0-.138,2.918,2.471,2.471,0,0,1-1.52,2.287,2.9,2.9,0,0,1-2.583-1.138,31.165,31.165,0,0,1-5.464-8.587,43.232,43.232,0,0,0-5.076-8.847c-2.162-2.635-5.19-4.755-8.587-5.026s-7.075,1.714-8.015,4.991.929,6.685,2.99,9.412a52.678,52.678,0,0,0,10.786,10.651,4.324,4.324,0,0,1,1.8,2.005c.478,1.575-1.062,3.093-2.638,3.569-1.786.54-3.7.312-5.56.483s-3.885.93-4.628,2.641c-1.032,2.374.938,4.934,2.9,6.627a45.56,45.56,0,0,0,13.258,7.981,15.4,15.4,0,0,1,4.937,2.517c1.38,1.245,2.179,3.373,1.287,5s-3.091,2.11-4.914,1.731a31.863,31.863,0,0,1-5.165-2.09c-3.236-1.3-7.458-1.173-9.617,1.563a7.342,7.342,0,0,0-.961,6.543,17.053,17.053,0,0,0,3.46,5.88,45.662,45.662,0,0,0,19.175,14c7.51,2.773,14.51,3.641,22.1,1.105" fill="#ff4f5b"/>
        <path id="Trazado_2241" data-name="Trazado 2241" d="M164.057,262.862a1.856,1.856,0,0,0,.226.229l.69.637c.609.558,1.507,1.381,2.633,2.471a88.363,88.363,0,0,1,8.838,9.884c1.715,2.215,3.491,4.719,5.35,7.442s3.815,5.654,5.761,8.807a105.4,105.4,0,0,1,5.616,10.161c.872,1.813,1.642,3.71,2.429,5.642s1.575,3.892,2.378,5.874a213.536,213.536,0,0,1,7.913,22.768,103.484,103.484,0,0,1,3.489,19.335,75.84,75.84,0,0,1-.1,13.249c-.163,1.558-.313,2.767-.445,3.581l-.133.931a1.887,1.887,0,0,0-.031.319,1.757,1.757,0,0,0,.075-.312c.043-.229.1-.535.176-.923.16-.812.338-2.019.527-3.577a72.42,72.42,0,0,0,.241-13.29,101.749,101.749,0,0,0-3.408-19.418,208.176,208.176,0,0,0-7.9-22.824L196,307.97c-.786-1.926-1.565-3.837-2.445-5.661a104.435,104.435,0,0,0-5.661-10.19c-1.959-3.154-3.935-6.078-5.8-8.8s-3.669-5.217-5.4-7.427a83.824,83.824,0,0,0-8.964-9.817c-1.147-1.073-2.064-1.877-2.692-2.413-.3-.255-.541-.455-.72-.607a1.809,1.809,0,0,0-.255-.194" fill="#1a2e35"/>
        <path id="Trazado_2242" data-name="Trazado 2242" d="M193.433,302.289a4.573,4.573,0,0,0,.257-.994c.14-.646.313-1.585.509-2.748.393-2.327.825-5.559,1.287-9.123s.94-6.782,1.368-9.1c.211-1.157.391-2.093.524-2.738a4.642,4.642,0,0,0,.157-1.014,4.539,4.539,0,0,0-.323.976c-.184.634-.411,1.562-.661,2.717-.507,2.307-1.035,5.53-1.5,9.1l-1.16,9.134c-.147,1.1-.271,2.023-.371,2.765a4.74,4.74,0,0,0-.089,1.023" fill="#1a2e35"/>
        <path id="Trazado_2243" data-name="Trazado 2243" d="M163.025,295.926a6.681,6.681,0,0,0,1.214.174c.782.087,1.915.207,3.309.4,2.79.364,6.627,1,10.829,1.887s7.969,1.862,10.673,2.641c1.356.379,2.444.715,3.2.943a6.441,6.441,0,0,0,1.184.317,6.72,6.72,0,0,0-1.13-.478c-.739-.278-1.816-.659-3.163-1.078-2.69-.857-6.458-1.875-10.672-2.772a108.992,108.992,0,0,0-10.883-1.767c-1.4-.155-2.543-.229-3.331-.264a6.626,6.626,0,0,0-1.228,0" fill="#1a2e35"/>
        <path id="Trazado_2244" data-name="Trazado 2244" d="M205.917,336.108a1.546,1.546,0,0,0,.219-.363c.148-.291.329-.648.549-1.078.473-.939,1.121-2.314,1.9-4.024,1.558-3.418,3.56-8.207,5.7-13.521s4.093-10.117,5.576-13.562l1.77-4.076.475-1.111a1.556,1.556,0,0,0,.139-.4,1.485,1.485,0,0,0-.219.364c-.148.291-.33.646-.549,1.077-.473.939-1.12,2.313-1.9,4.024-1.558,3.418-3.561,8.207-5.7,13.523s-4.091,10.114-5.576,13.56c-.726,1.675-1.324,3.052-1.769,4.076l-.475,1.112a1.544,1.544,0,0,0-.139.4" fill="#1a2e35"/>
        <path id="Trazado_2245" data-name="Trazado 2245" d="M165.643,322.227a1.59,1.59,0,0,0,.4.175c.315.111.7.25,1.17.418l4.312,1.493c3.641,1.262,8.65,3.062,14.182,5.06s10.564,3.753,14.233,4.943c1.834.6,3.324,1.06,4.359,1.362l1.2.34a1.693,1.693,0,0,0,.425.091,1.618,1.618,0,0,0-.4-.174l-1.168-.418-4.313-1.494c-3.641-1.263-8.65-3.063-14.184-5.061s-10.562-3.753-14.231-4.942c-1.834-.6-3.324-1.061-4.359-1.362l-1.2-.34a1.645,1.645,0,0,0-.425-.091" fill="#1a2e35"/>
        <path id="Trazado_2246" data-name="Trazado 2246" d="M615.571,240.058l-60.334-.278a13.123,13.123,0,0,1-13.082-13.161l.638-150.837A13.127,13.127,0,0,1,556,62.731l60.335.278A13.124,13.124,0,0,1,629.414,76.17l-.64,150.838a13.125,13.125,0,0,1-13.2,13.05" fill="#375a64"/>
        <path id="Trazado_2247" data-name="Trazado 2247" d="M616.245,68.214l-11.7-.054a2.9,2.9,0,0,0-2.852,2.949l-.01,2.116a2.9,2.9,0,0,1-2.852,2.948l-22.8-.1a2.9,2.9,0,0,1-2.828-2.975l.01-2.115A2.9,2.9,0,0,0,570.384,68l-4.115-.019-10.238-.047a9.191,9.191,0,0,0-9.247,9.14L546.16,224.3a9.192,9.192,0,0,0,9.162,9.218l60.214.277a9.191,9.191,0,0,0,9.246-9.14l.624-147.228a9.19,9.19,0,0,0-9.161-9.218" fill="#fff"/>
        <rect id="Rectángulo_230" data-name="Rectángulo 230" width="59.581" height="3.985" transform="translate(555.679 168.394)" fill="#375a64"/>
        <path id="Trazado_2248" data-name="Trazado 2248" d="M613.135,184.085c0,.144-12.717.261-28.4.261s-28.4-.117-28.4-.261,12.713-.261,28.4-.261,28.4.117,28.4.261" fill="#375a64"/>
        <path id="Trazado_2249" data-name="Trazado 2249" d="M613.135,89.548c0,.144-12.717.26-28.4.26s-28.4-.116-28.4-.26,12.713-.261,28.4-.261,28.4.116,28.4.261" fill="#375a64"/>
        <path id="Trazado_2250" data-name="Trazado 2250" d="M613.135,191.34c0,.145-12.717.261-28.4.261s-28.4-.116-28.4-.261,12.713-.26,28.4-.26,28.4.116,28.4.26" fill="#375a64"/>
        <path id="Trazado_2251" data-name="Trazado 2251" d="M613.135,198.6c0,.144-12.717.26-28.4.26s-28.4-.116-28.4-.26,12.713-.261,28.4-.261,28.4.116,28.4.261" fill="#375a64"/>
        <path id="Trazado_2252" data-name="Trazado 2252" d="M613.135,205.851c0,.144-12.717.261-28.4.261s-28.4-.117-28.4-.261,12.713-.261,28.4-.261,28.4.117,28.4.261" fill="#375a64"/>
        <path id="Trazado_2253" data-name="Trazado 2253" d="M613.135,213.1c0,.145-12.717.261-28.4.261s-28.4-.116-28.4-.261,12.713-.26,28.4-.26,28.4.116,28.4.26" fill="#375a64"/>
        <path id="Trazado_2254" data-name="Trazado 2254" d="M613.947,221.332c0,.144-12.717.261-28.4.261s-28.4-.117-28.4-.261,12.715-.261,28.4-.261,28.4.117,28.4.261" fill="#375a64"/>
        <rect id="Rectángulo_231" data-name="Rectángulo 231" width="59.731" height="57.789" transform="translate(556.33 97.82)" fill="#e1e1e1"/>
        <path id="Trazado_2255" data-name="Trazado 2255" d="M560.96,150.663l16.524-29.737L591,139.933l8.211-10.094,12.218,20.824Z" fill="#ff4f5b"/>
        <path id="Trazado_2256" data-name="Trazado 2256" d="M596.756,115.142a4.3,4.3,0,1,1-4.3-4.3,4.3,4.3,0,0,1,4.3,4.3" fill="#ff4f5b"/>
        <path id="Trazado_2257" data-name="Trazado 2257" d="M611.429,150.824a1.892,1.892,0,0,1-.014-.237c0-.173-.007-.393-.014-.674-.006-.614-.015-1.483-.028-2.6-.014-2.291-.036-5.6-.064-9.813-.029-8.442-.072-20.461-.125-34.893l.245.243c-14.617.012-31.943.027-50.464.041-.069.06.534-.535.279-.276v6.538q0,3.249,0,6.435c0,4.247,0,8.4-.006,12.453-.01,8.093-.02,15.745-.028,22.783l-.248-.247,36.49.126,10.292.064,2.731.03.707.013a1.71,1.71,0,0,1,.249.015,1.2,1.2,0,0,1-.221.014l-.68.014-2.682.029-10.237.065-36.649.126h-.248v-.25c-.008-7.038-.017-14.69-.028-22.783,0-4.048,0-8.206-.006-12.453q0-3.185,0-6.435v-6.538c-.253.249.346-.356.29-.293l50.464.04h.245v.245c-.052,14.495-.095,26.57-.125,35.048-.027,4.185-.049,7.481-.064,9.759q-.016,1.647-.028,2.554c-.006.269-.009.481-.014.647a1.058,1.058,0,0,1-.013.21" fill="#375a64"/>
        <path id="Trazado_2258" data-name="Trazado 2258" d="M526.424,11.55V144.775a11.548,11.548,0,0,1-11.55,11.548H313.636a11.547,11.547,0,0,1-11.549-11.548V11.55A11.549,11.549,0,0,1,313.636,0H514.874a11.55,11.55,0,0,1,11.55,11.55" fill="#375a64"/>
        <rect id="Rectángulo_232" data-name="Rectángulo 232" width="187.349" height="146.465" transform="translate(317.435 4.93)" fill="#fff"/>
        <path id="Trazado_2259" data-name="Trazado 2259" d="M515.151,72.164a6,6,0,1,1-6,6,6,6,0,0,1,6-6" fill="#1a2e35"/>
        <path id="Trazado_2260" data-name="Trazado 2260" d="M311.026,55.836v44.652a1.215,1.215,0,0,1-1.215,1.215h-.048a1.215,1.215,0,0,1-1.215-1.215V55.836a1.215,1.215,0,0,1,1.215-1.215h.048a1.215,1.215,0,0,1,1.215,1.215" fill="#1a2e35"/>
        <rect id="Rectángulo_233" data-name="Rectángulo 233" width="59.581" height="3.985" transform="translate(402.884 15.936)" fill="#375a64"/>
        <rect id="Rectángulo_234" data-name="Rectángulo 234" width="59.581" height="3.985" transform="translate(325.277 84.461)" fill="#375a64"/>
        <path id="Trazado_2261" data-name="Trazado 2261" d="M476.982,30.778c0,.145-16.589.261-37.047.261s-37.051-.116-37.051-.261,16.585-.26,37.051-.26,37.047.116,37.047.26" fill="#375a64"/>
        <path id="Trazado_2262" data-name="Trazado 2262" d="M476.982,39.482c0,.144-16.589.26-37.047.26s-37.051-.116-37.051-.26,16.585-.261,37.051-.261,37.047.116,37.047.261" fill="#375a64"/>
        <path id="Trazado_2263" data-name="Trazado 2263" d="M476.982,48.186c0,.144-16.589.26-37.047.26s-37.051-.116-37.051-.26,16.585-.261,37.051-.261,37.047.116,37.047.261" fill="#375a64"/>
        <path id="Trazado_2264" data-name="Trazado 2264" d="M476.982,56.889c0,.144-16.589.26-37.047.26s-37.051-.116-37.051-.26,16.585-.261,37.051-.261,37.047.116,37.047.261" fill="#375a64"/>
        <path id="Trazado_2265" data-name="Trazado 2265" d="M476.982,65.592c0,.144-16.589.26-37.047.26s-37.051-.116-37.051-.26,16.585-.261,37.051-.261,37.047.116,37.047.261" fill="#375a64"/>
        <path id="Trazado_2266" data-name="Trazado 2266" d="M460.732,74.295c0,.144-12.95.26-28.923.26s-28.925-.116-28.925-.26,12.948-.261,28.925-.261,28.923.116,28.923.261" fill="#375a64"/>
        <path id="Trazado_2267" data-name="Trazado 2267" d="M423.129,100.152c0,.145-21.761.261-48.6.261s-48.6-.116-48.6-.261,21.756-.26,48.6-.26,48.6.116,48.6.26" fill="#375a64"/>
        <path id="Trazado_2268" data-name="Trazado 2268" d="M423.129,107.408c0,.144-21.761.26-48.6.26s-48.6-.116-48.6-.26,21.756-.261,48.6-.261,48.6.116,48.6.261" fill="#375a64"/>
        <path id="Trazado_2269" data-name="Trazado 2269" d="M423.129,114.663c0,.144-21.761.261-48.6.261s-48.6-.117-48.6-.261,21.756-.261,48.6-.261,48.6.117,48.6.261" fill="#375a64"/>
        <path id="Trazado_2270" data-name="Trazado 2270" d="M423.129,121.918c0,.145-21.761.261-48.6.261s-48.6-.116-48.6-.261,21.756-.26,48.6-.26,48.6.116,48.6.26" fill="#375a64"/>
        <path id="Trazado_2271" data-name="Trazado 2271" d="M423.129,129.174c0,.144-21.761.261-48.6.261s-48.6-.117-48.6-.261,21.756-.261,48.6-.261,48.6.117,48.6.261" fill="#375a64"/>
        <rect id="Rectángulo_235" data-name="Rectángulo 235" width="59.731" height="57.789" transform="translate(325.928 13.888)" fill="#ff4f5b"/>
        <path id="Trazado_2272" data-name="Trazado 2272" d="M330.559,66.73l16.523-29.737L360.6,56l8.212-10.093L381.028,66.73Z" fill="#e1e1e1"/>
        <path id="Trazado_2273" data-name="Trazado 2273" d="M366.354,31.209a4.3,4.3,0,1,1-4.3-4.3,4.3,4.3,0,0,1,4.3,4.3" fill="#e1e1e1"/>
        <path id="Trazado_2274" data-name="Trazado 2274" d="M381.028,66.892a1.867,1.867,0,0,1-.014-.236c0-.174-.007-.394-.013-.674-.008-.615-.016-1.484-.029-2.6-.015-2.292-.036-5.606-.063-9.814-.03-8.442-.073-20.461-.125-34.893l.244.243c-14.617.013-31.944.027-50.464.041-.068.06.533-.535.279-.276v3.276q0,1.638,0,3.263,0,3.247,0,6.434c0,4.247,0,8.405-.007,12.453-.01,8.093-.019,15.745-.027,22.784l-.248-.248,36.49.126,10.292.065,2.731.029.707.014a1.664,1.664,0,0,1,.249.014,1.09,1.09,0,0,1-.221.014l-.681.014-2.681.029-10.237.065-36.649.126h-.248v-.249c-.008-7.039-.018-14.691-.027-22.784,0-4.048-.005-8.206-.008-12.453q0-3.185,0-6.434V18.682c-.253.25.346-.356.29-.293l50.464.04h.245v.244c-.052,14.5-.1,26.57-.125,35.048-.027,4.185-.048,7.481-.063,9.759q-.02,1.647-.029,2.554c-.005.269-.01.481-.013.647a1.08,1.08,0,0,1-.014.21" fill="#375a64"/>
        <rect id="Rectángulo_236" data-name="Rectángulo 236" width="42.273" height="40.897" transform="translate(436.536 92.128)" fill="#ff4f5b"/>
        <path id="Trazado_2275" data-name="Trazado 2275" d="M439.813,129.525l11.694-21.046,9.565,13.452,5.812-7.143,8.646,14.737Z" fill="#e1e1e1"/>
        <path id="Trazado_2276" data-name="Trazado 2276" d="M465.147,104.387a3.042,3.042,0,1,1-3.043-3.042,3.043,3.043,0,0,1,3.043,3.042" fill="#e1e1e1"/>
        <path id="Trazado_2277" data-name="Trazado 2277" d="M475.53,129.64s-.005-.061-.009-.168c0-.123-.005-.278-.009-.477q-.008-.652-.021-1.84c-.011-1.622-.025-3.968-.044-6.946-.022-5.973-.052-14.48-.089-24.694l.172.173-35.713.028c-.048.042.378-.379.2-.195v2.318c0,.774,0,1.543,0,2.309V104.7c0,3,0,5.948-.005,8.813-.007,5.728-.014,11.143-.02,16.124l-.175-.175,25.825.089,7.284.046,1.933.02.5.01a1.143,1.143,0,0,1,.175.011.942.942,0,0,1-.156.01l-.482.01-1.9.02-7.244.046-25.937.089h-.175v-.177c-.006-4.981-.013-10.4-.02-16.124,0-2.865,0-5.808-.005-8.813V95.521c-.18.177.245-.253.2-.207l35.713.028h.174v.173c-.036,10.259-.066,18.8-.088,24.8-.019,2.962-.035,5.294-.044,6.907-.009.776-.016,1.38-.021,1.807,0,.191-.007.34-.01.459a.668.668,0,0,1-.01.148" fill="#375a64"/>
        <path id="Trazado_2278" data-name="Trazado 2278" d="M509.242,379.5H224.788a14.567,14.567,0,0,1-14.567-14.567V186.7a14.567,14.567,0,0,1,14.567-14.567H509.242A14.567,14.567,0,0,1,523.809,186.7V364.935A14.567,14.567,0,0,1,509.242,379.5" fill="#1a2e35"/>
        <path id="Trazado_2279" data-name="Trazado 2279" d="M519.058,382.31H214.9a17.8,17.8,0,0,1-17.8-17.8v-.347H536.855v.347a17.8,17.8,0,0,1-17.8,17.8" fill="#1a2e35"/>
        <rect id="Rectángulo_237" data-name="Rectángulo 237" width="295.875" height="175.122" transform="translate(218.639 180.369)" fill="#e1e1e1"/>
        <path id="Trazado_2280" data-name="Trazado 2280" d="M336.1,364.165l4.216,6.706h59.325l3.915-6.706Z" fill="#375a64"/>
        <rect id="Rectángulo_238" data-name="Rectángulo 238" width="272.412" height="163.394" transform="translate(228.505 192.03)" fill="#fafafa"/>
        <path id="Trazado_2281" data-name="Trazado 2281" d="M240.134,200.089a2.285,2.285,0,1,1-2.286-2.286,2.285,2.285,0,0,1,2.286,2.286" fill="#375a64"/>
        <path id="Trazado_2282" data-name="Trazado 2282" d="M249.461,200.089a2.285,2.285,0,1,1-2.286-2.286,2.285,2.285,0,0,1,2.286,2.286" fill="#375a64"/>
        <path id="Trazado_2283" data-name="Trazado 2283" d="M258.788,200.089A2.285,2.285,0,1,1,256.5,197.8a2.285,2.285,0,0,1,2.286,2.286" fill="#375a64"/>
        <path id="Trazado_2284" data-name="Trazado 2284" d="M500.917,210.089c0,.144-60.987.26-136.2.26-75.238,0-136.212-.116-136.212-.26s60.974-.261,136.212-.261c75.213,0,136.2.116,136.2.261" fill="#375a64"/>
        <rect id="Rectángulo_239" data-name="Rectángulo 239" width="313.588" height="1" transform="translate(210.221 364.305)" fill="#375a64"/>
        <rect id="Rectángulo_240" data-name="Rectángulo 240" width="59.581" height="3.985" transform="translate(250.84 289.473)" fill="#375a64"/>
        <rect id="Rectángulo_241" data-name="Rectángulo 241" width="59.581" height="3.986" transform="translate(327.797 234.137)" fill="#375a64"/>
        <path id="Trazado_2285" data-name="Trazado 2285" d="M475.993,248.98c0,.144-33.178.261-74.094.261s-74.1-.117-74.1-.261,33.171-.261,74.1-.261,74.094.117,74.094.261" fill="#375a64"/>
        <path id="Trazado_2286" data-name="Trazado 2286" d="M475.993,257.684c0,.144-33.178.261-74.094.261s-74.1-.117-74.1-.261,33.171-.261,74.1-.261,74.094.117,74.094.261" fill="#375a64"/>
        <path id="Trazado_2287" data-name="Trazado 2287" d="M475.993,266.387c0,.144-33.178.261-74.094.261s-74.1-.117-74.1-.261,33.171-.261,74.1-.261,74.094.117,74.094.261" fill="#375a64"/>
        <path id="Trazado_2288" data-name="Trazado 2288" d="M475.993,275.09c0,.144-33.178.261-74.094.261s-74.1-.117-74.1-.261,33.171-.261,74.1-.261,74.094.117,74.094.261" fill="#375a64"/>
        <path id="Trazado_2289" data-name="Trazado 2289" d="M475.993,283.793c0,.144-33.178.261-74.094.261s-74.1-.117-74.1-.261,33.171-.261,74.1-.261,74.094.117,74.094.261" fill="#375a64"/>
        <path id="Trazado_2290" data-name="Trazado 2290" d="M385.646,292.5c0,.144-12.952.261-28.923.261S327.8,292.64,327.8,292.5s12.948-.261,28.926-.261,28.923.117,28.923.261" fill="#375a64"/>
        <path id="Trazado_2291" data-name="Trazado 2291" d="M474.909,309.387c0,.144-21.807.261-48.7.261s-48.705-.117-48.705-.261,21.8-.261,48.705-.261,48.7.117,48.7.261" fill="#375a64"/>
        <path id="Trazado_2292" data-name="Trazado 2292" d="M474.909,318.625c0,.145-21.807.261-48.7.261s-48.705-.116-48.705-.261,21.8-.26,48.705-.26,48.7.116,48.7.26" fill="#375a64"/>
        <path id="Trazado_2293" data-name="Trazado 2293" d="M474.909,327.864c0,.144-21.807.26-48.7.26s-48.705-.116-48.705-.26,21.8-.261,48.705-.261,48.7.116,48.7.261" fill="#375a64"/>
        <path id="Trazado_2294" data-name="Trazado 2294" d="M474.909,337.1c0,.144-21.807.26-48.7.26s-48.705-.116-48.705-.26,21.8-.261,48.705-.261,48.7.116,48.7.261" fill="#375a64"/>
        <path id="Trazado_2295" data-name="Trazado 2295" d="M310.572,308.5c0,.144-13,.261-29.031.261s-29.033-.117-29.033-.261,13-.261,29.033-.261,29.031.117,29.031.261" fill="#375a64"/>
        <path id="Trazado_2296" data-name="Trazado 2296" d="M310.572,315.758c0,.145-13,.261-29.031.261s-29.033-.116-29.033-.261,13-.26,29.033-.26,29.031.116,29.031.26" fill="#375a64"/>
        <path id="Trazado_2297" data-name="Trazado 2297" d="M310.572,323.014c0,.144-13,.261-29.031.261s-29.033-.117-29.033-.261,13-.261,29.033-.261,29.031.117,29.031.261" fill="#375a64"/>
        <path id="Trazado_2298" data-name="Trazado 2298" d="M310.572,330.269c0,.145-13,.261-29.031.261s-29.033-.116-29.033-.261,13-.26,29.033-.26,29.031.116,29.031.26" fill="#375a64"/>
        <path id="Trazado_2299" data-name="Trazado 2299" d="M310.572,337.524c0,.144-13,.26-29.031.26s-29.033-.116-29.033-.26,13-.261,29.033-.261,29.031.116,29.031.261" fill="#375a64"/>
        <rect id="Rectángulo_242" data-name="Rectángulo 242" width="59.731" height="57.789" transform="translate(250.841 221.114)" fill="#e1e1e1"/>
        <path id="Trazado_2300" data-name="Trazado 2300" d="M255.472,273.957,272,244.22l13.515,19.007,8.212-10.094,12.218,20.824Z" fill="#ff4f5b"/>
        <path id="Trazado_2301" data-name="Trazado 2301" d="M291.267,238.436a4.3,4.3,0,1,1-4.3-4.3,4.3,4.3,0,0,1,4.3,4.3" fill="#ff4f5b"/>
        <path id="Trazado_2302" data-name="Trazado 2302" d="M305.941,274.118a1.926,1.926,0,0,1-.014-.237c0-.173-.008-.394-.013-.674-.007-.614-.017-1.483-.029-2.6-.015-2.291-.036-5.6-.063-9.814-.03-8.441-.073-20.461-.125-34.893l.244.244-50.464.041c-.068.06.534-.535.279-.277v3.277q0,1.638,0,3.262,0,3.249,0,6.435,0,6.371-.007,12.452c-.01,8.094-.019,15.745-.027,22.784l-.248-.247,36.49.126,10.292.064,2.73.03.708.013a1.711,1.711,0,0,1,.249.015,1.333,1.333,0,0,1-.221.014l-.68.014-2.682.029-10.237.065-36.649.125h-.248v-.249c-.008-7.039-.017-14.69-.027-22.784q0-6.072-.007-12.452,0-3.185,0-6.435v-6.539c-.253.25.346-.355.29-.292l50.464.04h.245v.244c-.052,14.5-.1,26.57-.124,35.049-.028,4.185-.05,7.481-.064,9.759q-.02,1.647-.028,2.554c-.007.269-.011.481-.014.647a1.086,1.086,0,0,1-.014.21" fill="#375a64"/>
        <rect id="Rectángulo_243" data-name="Rectángulo 243" width="42.272" height="40.898" transform="translate(327.762 304.979)" fill="#e1e1e1"/>
        <path id="Trazado_2303" data-name="Trazado 2303" d="M331.039,342.377l11.694-21.046,9.564,13.451,5.813-7.142,8.646,14.737Z" fill="#ff4f5b"/>
        <path id="Trazado_2304" data-name="Trazado 2304" d="M356.372,317.237a3.042,3.042,0,1,1-3.042-3.042,3.042,3.042,0,0,1,3.042,3.042" fill="#ff4f5b"/>
        <path id="Trazado_2305" data-name="Trazado 2305" d="M366.755,342.49a1.58,1.58,0,0,1-.009-.167c0-.123-.006-.279-.01-.478q-.006-.651-.02-1.839c-.011-1.622-.025-3.968-.044-6.947-.022-5.973-.053-14.48-.089-24.693l.172.172-35.713.029c-.048.042.378-.379.2-.2V313q0,2.3,0,4.554c0,3.005,0,5.948,0,8.812-.007,5.728-.014,11.144-.02,16.125l-.175-.176,25.825.09,7.283.046,1.933.02.5.01a1.259,1.259,0,0,1,.175.01.8.8,0,0,1-.155.01l-.483.011c-.447,0-1.081.01-1.9.019l-7.245.047-25.937.089h-.175v-.176c-.006-4.981-.013-10.4-.019-16.125,0-2.864,0-5.807-.006-8.812V313q0-1.15,0-2.309v-2.319c-.18.177.244-.252.2-.207l35.713.028h.174v.173c-.037,10.259-.068,18.8-.089,24.8-.019,2.961-.035,5.294-.045,6.906q-.014,1.166-.02,1.808c0,.19-.007.34-.01.458a.668.668,0,0,1-.01.148" fill="#375a64"/>
        <path id="Trazado_2306" data-name="Trazado 2306" d="M584.146,286.07s-11.308,5.812-14.157,11.91c-2.566,5.492-9.094,39.314-9.094,39.314l-8.027-36.853-24.986.463s.307,57.352,2.323,66.721c2.094,9.733,4.418,14.712,18.448,14.753a46.79,46.79,0,0,0,30.863-11.688Z" fill="#ececec"/>
        <path id="Trazado_2307" data-name="Trazado 2307" d="M673.258,272.4c-2.967-3.069-37.585-11.771-37.585-11.771l-10.118-9.623-10.7,40.557-11.84,49.519,1.68,41.294,82.49-1.874s-7.664-101.623-13.924-108.1" fill="#ececec"/>
        <path id="Trazado_2308" data-name="Trazado 2308" d="M592.872,327.78s-4.3-19.141-4.84-19.551-1.433-24.916-1.433-24.916-1.448-10.744-1.433-10.711,35.7-24.057,35.7-24.057l4.525,4.992-22.328,87.327,1.191,33.392-2.439-7.02Z" fill="#ff4f5b"/>
        <path id="Trazado_2309" data-name="Trazado 2309" d="M592.872,327.489l-5.454-20.9L585.924,278c.149,1.113-2.266,10.283-2.266,10.283l-11.483,10.064s-5.054,20.98-2.421,29.245l5.149,54.782,39.258-.442Z" fill="#ececec"/>
        <path id="Trazado_2310" data-name="Trazado 2310" d="M596.372,342.927l-19.506-31.06,8.047-23.624L585.924,278l2.7,29.668Z" fill="#ececec"/>
        <path id="Trazado_2311" data-name="Trazado 2311" d="M584.927,323.883c.109-.019.814,3.551,1.575,7.971s1.289,8.02,1.179,8.039-.813-3.55-1.574-7.971-1.289-8.019-1.18-8.039" fill="#1a2e35"/>
        <path id="Trazado_2312" data-name="Trazado 2312" d="M583.429,351.524a8.323,8.323,0,0,0,2.446,3.95,5.673,5.673,0,0,0,4.466,1.467,6.33,6.33,0,0,0,5.029-3.709c1.267-3.079.7-8.932-1.284-12.107-1.366-2.185-3.9-4-6.453-3.621a6.352,6.352,0,0,0-5.314,5.823" fill="#e1e1e1"/>
        <path id="Trazado_2313" data-name="Trazado 2313" d="M582.319,343.327a5.149,5.149,0,0,1,.336-1.74,6.792,6.792,0,0,1,.968-1.855,5.9,5.9,0,0,1,2.121-1.791,6.021,6.021,0,0,1,1.541-.526,4.872,4.872,0,0,1,1.773-.07,6.932,6.932,0,0,1,3.476,1.686,9.076,9.076,0,0,1,2.471,3.476,16.557,16.557,0,0,1,1.11,4.43,12.573,12.573,0,0,1-.808,6.869,5.934,5.934,0,0,1-2.188,2.33,6.935,6.935,0,0,1-2.764.968l.022,0a4.329,4.329,0,0,1-2.127-.154,6.8,6.8,0,0,1-1.719-.806,7.741,7.741,0,0,1-2.1-2.2,7.407,7.407,0,0,1-.846-1.749,4.657,4.657,0,0,1-.134-.491.483.483,0,0,1-.023-.173,10.4,10.4,0,0,0,1.158,2.309,7.8,7.8,0,0,0,2.087,2.084,6.622,6.622,0,0,0,1.66.743,4.08,4.08,0,0,0,1.969.122l.006,0,.017,0a6.149,6.149,0,0,0,4.643-3.147,12.361,12.361,0,0,0,.749-6.648c-.353-3.024-1.375-5.958-3.426-7.674a6.636,6.636,0,0,0-3.283-1.636,4.54,4.54,0,0,0-1.664.046,5.75,5.75,0,0,0-3.544,2.149,7,7,0,0,0-1,1.772,14.568,14.568,0,0,0-.482,1.687" fill="#1a2e35"/>
        <path id="Trazado_2314" data-name="Trazado 2314" d="M581.681,351.979a8.322,8.322,0,0,0,2.446,3.95,5.673,5.673,0,0,0,4.466,1.467,6.33,6.33,0,0,0,5.029-3.709c1.267-3.079.7-8.932-1.284-12.107-1.366-2.185-3.905-4-6.453-3.621a6.352,6.352,0,0,0-5.314,5.823" fill="#e1e1e1"/>
        <path id="Trazado_2315" data-name="Trazado 2315" d="M580.571,343.782a5.15,5.15,0,0,1,.336-1.74,6.765,6.765,0,0,1,.968-1.855A5.9,5.9,0,0,1,584,338.4a6.022,6.022,0,0,1,1.541-.526,4.873,4.873,0,0,1,1.773-.07,6.932,6.932,0,0,1,3.476,1.686,9.069,9.069,0,0,1,2.471,3.476,16.6,16.6,0,0,1,1.11,4.43,12.586,12.586,0,0,1-.808,6.87,5.938,5.938,0,0,1-2.188,2.329,6.933,6.933,0,0,1-2.765.968l.023,0a4.328,4.328,0,0,1-2.127-.154,6.8,6.8,0,0,1-1.719-.806,7.747,7.747,0,0,1-2.1-2.2,7.453,7.453,0,0,1-.845-1.748,4.815,4.815,0,0,1-.134-.491c-.024-.113-.031-.172-.023-.174a10.429,10.429,0,0,0,1.158,2.309,7.793,7.793,0,0,0,2.087,2.084,6.607,6.607,0,0,0,1.66.743,4.079,4.079,0,0,0,1.969.122l.006,0,.017,0a6.149,6.149,0,0,0,4.643-3.147,12.351,12.351,0,0,0,.748-6.648c-.352-3.024-1.374-5.958-3.425-7.674a6.64,6.64,0,0,0-3.283-1.636,4.541,4.541,0,0,0-1.664.046,5.75,5.75,0,0,0-3.544,2.149,7,7,0,0,0-1,1.772,14.309,14.309,0,0,0-.482,1.687" fill="#1a2e35"/>
        <path id="Trazado_2316" data-name="Trazado 2316" d="M583.348,342.427a3.959,3.959,0,0,0-3.665,3.044,6.823,6.823,0,0,0,.86,4.941,6.209,6.209,0,0,0,1.645,2.01,3.376,3.376,0,0,0,2.449.71,3.991,3.991,0,0,0,2.81-2.386,7.16,7.16,0,0,0,.068-5.995c-.572-1.254-1.77-2.433-3.134-2.236" fill="#e1e1e1"/>
        <path id="Trazado_2317" data-name="Trazado 2317" d="M584.38,342.515a.763.763,0,0,1,.3-.06,2.148,2.148,0,0,1,.87.137,4.09,4.09,0,0,1,2.181,2.31,7.268,7.268,0,0,1,.33,4.717,6.124,6.124,0,0,1-1.314,2.521,3.33,3.33,0,0,1-2.8,1.2,4.136,4.136,0,0,1-2.664-1.507,8.66,8.66,0,0,1-1.423-2.449,5.92,5.92,0,0,1-.031-4.707,4.13,4.13,0,0,1,2.354-2.135,2.891,2.891,0,0,1,.864-.15c.2.007.3.017.3.032a5.668,5.668,0,0,0-1.114.265,4.08,4.08,0,0,0-2.151,2.11,5.694,5.694,0,0,0,.118,4.45,8.451,8.451,0,0,0,1.376,2.327,3.768,3.768,0,0,0,2.408,1.366,2.95,2.95,0,0,0,2.473-1.069,5.821,5.821,0,0,0,1.249-2.354,7.1,7.1,0,0,0-.236-4.512,4.048,4.048,0,0,0-1.978-2.273,3.284,3.284,0,0,0-1.112-.222" fill="#1a2e35"/>
        <path id="Trazado_2318" data-name="Trazado 2318" d="M589.311,354.222c-.058.025-.184-.214-.5-.474a2.874,2.874,0,0,0-1.436-.606,7.242,7.242,0,0,0-1.632.026c-.429.042-.7.054-.713,0s.238-.161.662-.276a4.563,4.563,0,0,1,1.737-.145,2.549,2.549,0,0,1,1.581.8c.306.36.341.661.3.674" fill="#1a2e35"/>
        <path id="Trazado_2319" data-name="Trazado 2319" d="M587.586,340.635c.041.027-.07.291-.375.631a3.822,3.822,0,0,1-3.232,1.176c-.453-.064-.706-.195-.693-.242a5.769,5.769,0,0,0,4.3-1.565" fill="#1a2e35"/>
        <path id="Trazado_2320" data-name="Trazado 2320" d="M626.908,352.47c2.088-.316,3.528-2.6,5.636-2.72a2.935,2.935,0,1,1,.162,5.864c-2.23-.008-3.809-2.444-6.025-2.7" fill="#1a2e35"/>
        <path id="Trazado_2321" data-name="Trazado 2321" d="M644.891,352.253a12.756,12.756,0,0,1-1.982.059l.034-.728a8.381,8.381,0,0,0,6.328-1.992c1.964-1.815,3.027-4.786,3.16-8.83l0-.155c.059-1.6-3.1-32.585-3.761-38.461-1.033-9.177-9.23-9.522-9.579-9.533-.332-.022-7.792-.421-10.549,10.04-2.885,10.955-7.109,31.915-7.272,34.335-.02.3-.06.665-.105,1.093-.334,3.111-1.029,9.586,3.593,12.749,5.152,3.527,8.68,1.54,8.827,1.454l.371.627c-.165.1-4.052,2.323-9.61-1.48-4.981-3.408-4.254-10.176-3.905-13.428.044-.416.083-.775.1-1.063.165-2.439,4.4-23.488,7.3-34.472,2.914-11.069,11.206-10.589,11.289-10.581A10.954,10.954,0,0,1,649.4,302.065c.545,4.839,3.828,36.867,3.765,38.569l-.005.152c-.138,4.245-1.28,7.389-3.393,9.34a8.367,8.367,0,0,1-4.874,2.127" fill="#1a2e35"/>
        <path id="Trazado_2322" data-name="Trazado 2322" d="M649.7,308.024a13.6,13.6,0,0,0-1.913-3.437,12.348,12.348,0,0,0-8.1-4.446,13.686,13.686,0,0,0-9.025,2.226,16.227,16.227,0,0,0-2.927,2.64c-.011-.007.037-.089.14-.241a6.358,6.358,0,0,1,.476-.638,11.04,11.04,0,0,1,2.159-1.982,13.548,13.548,0,0,1,9.221-2.382,12.447,12.447,0,0,1,5.031,1.75A12.1,12.1,0,0,1,648,304.422a9.673,9.673,0,0,1,1.419,2.567,5.6,5.6,0,0,1,.233.762c.045.176.062.27.049.273" fill="#1a2e35"/>
        <path id="Trazado_2323" data-name="Trazado 2323" d="M635.7,260.619l-13.27,51.174-19.392,29.278L625.584,251Z" fill="#ececec"/>
        <path id="Trazado_2324" data-name="Trazado 2324" d="M603.041,341.071a15.522,15.522,0,0,0,1.581-2.088l4.141-5.991,14.083-20.925.045-.067.021-.083,4.005-15.339c3.671-14.157,6.919-26.935,9.132-35.869l.052-.209-.152-.141-7.533-6.939-2.067-1.836a3.524,3.524,0,0,0-.765-.588,3.506,3.506,0,0,0,.625.734l1.937,1.973,7.31,7.175-.1-.349c-2.407,8.884-5.777,21.63-9.448,35.787l-3.955,15.353.067-.15c-5.523,8.475-10.288,15.785-13.772,21.132-1.606,2.53-2.913,4.592-3.9,6.15a15.588,15.588,0,0,0-1.306,2.27" fill="#1a2e35"/>
        <path id="Trazado_2325" data-name="Trazado 2325" d="M601.813,350.111a14.016,14.016,0,0,0-1.29-2.352l-3.851-6.263c-3.3-5.289-7.952-12.614-13.235-20.831l.081.316c.092-1.327.189-2.732.286-4.156.729-10.712,1.331-20.412,1.715-27.438.162-3.368.3-6.167.4-8.322a16.973,16.973,0,0,0,0-3.061,17.283,17.283,0,0,0-.409,3.034c-.19,2.148-.435,4.94-.731,8.3-.572,7.011-1.29,16.7-2.019,27.417-.1,1.422-.191,2.828-.28,4.155l-.012.173.093.144c5.308,8.2,10.063,15.458,13.52,20.648,1.666,2.464,3.046,4.506,4.118,6.09a14.232,14.232,0,0,0,1.61,2.146" fill="#1a2e35"/>
        <path id="Trazado_2326" data-name="Trazado 2326" d="M634.022,259.812a6.16,6.16,0,0,1,2.8,2.414l.067.1c2.387,3.519,2.563,8.866,2.718,13.588l.033.938a100.067,100.067,0,0,1-1.034,15.159l3.975.486-1.988-.238,1.989.226a102.646,102.646,0,0,0,1.06-15.773l-.031-.931c-.174-5.305-.373-11.317-3.476-15.806l-.084-.115a10.547,10.547,0,0,0-5.8-3.961,3.105,3.105,0,0,0-2.08.362l-.659.376,2.511,3.179" fill="#1a2e35"/>
        <path id="Trazado_2327" data-name="Trazado 2327" d="M604.692,382.379a9.866,9.866,0,0,1-.184-1.634c-.085-1.054-.184-2.58-.289-4.467-.213-3.773-.428-8.99-.618-14.751-.177-5.719-.337-10.893-.457-14.755-.048-1.82-.087-3.327-.118-4.473a9.953,9.953,0,0,1,.023-1.644,9.947,9.947,0,0,1,.18,1.634c.084,1.054.18,2.58.283,4.467.208,3.773.42,8.99.61,14.754.18,5.718.343,10.89.465,14.753.05,1.819.092,3.326.124,4.471a9.91,9.91,0,0,1-.019,1.645" fill="#1a2e35"/>
        <path id="Trazado_2328" data-name="Trazado 2328" d="M583.286,359.237l.861,23.446,91.579-1.958a16.839,16.839,0,0,0,16.352-18.891c-.707-5.75-1.531-12.416-2.4-19.363-1.349-10.789-3.946-40.545-6.877-57.453a18.269,18.269,0,0,0-16.254-15.2,11.191,11.191,0,0,0-2.674.041c-10.192,1.618-14.009,11.67-13.654,23.311.291,9.546,1.7,54.753,1.7,54.753Z" fill="#ececec"/>
        <path id="Trazado_2329" data-name="Trazado 2329" d="M689.77,372.608s-.085.162-.273.47a10.4,10.4,0,0,1-.892,1.329,14.319,14.319,0,0,1-4.791,3.857,26.344,26.344,0,0,1-9.453,2.572c-3.852.2-8.216.23-13.075.37l-77.134,1.735-.255.006-.009-.255c-.2-5.531-.406-11.348-.618-17.261-.083-2.313-.165-4.613-.245-6.869l-.008-.231.229-.036,68.644-10.572-.175.213c-.638-15.032-1.161-27.343-1.525-35.914-.167-4.264-.3-7.6-.388-9.883q-.055-1.682-.086-2.584c-.016-.584-.009-.884-.009-.884s.035.3.071.881q.051.9.146,2.581c.116,2.286.284,5.617.5,9.878.406,8.57.99,20.877,1.7,35.907l.009.184-.183.029L583.325,358.81l.22-.266c.08,2.255.162,4.555.246,6.869.209,5.913.416,11.729.613,17.26l-.263-.248,77.143-1.562c4.85-.116,9.247-.12,13.053-.3a26.416,26.416,0,0,0,9.393-2.469,14.542,14.542,0,0,0,4.8-3.751,11.8,11.8,0,0,0,.925-1.295c.2-.3.315-.444.315-.444" fill="#1a2e35"/>
        <path id="Trazado_2330" data-name="Trazado 2330" d="M660.341,360.443c-.141.067-1.65-3.091-4.049-6.653-1.2-1.778-2.367-3.352-3.248-4.422a3.8,3.8,0,0,0-1.81-1.226c0-.026.232-.08.633.032a3.46,3.46,0,0,1,1.444.941,35.737,35.737,0,0,1,3.414,4.385,39.81,39.81,0,0,1,2.765,4.807,8.541,8.541,0,0,1,.851,2.136" fill="#1a2e35"/>
        <path id="Trazado_2331" data-name="Trazado 2331" d="M669.351,356.765c-.067.059-.828-.793-2.208-1.993a27.26,27.26,0,0,0-12.663-6.2c-1.793-.354-2.931-.432-2.927-.521a2.4,2.4,0,0,1,.806-.04,16.672,16.672,0,0,1,2.185.2,23.923,23.923,0,0,1,12.847,6.29,16.867,16.867,0,0,1,1.5,1.605c.325.4.49.638.463.661" fill="#1a2e35"/>
        <path id="Trazado_2332" data-name="Trazado 2332" d="M561.092,349.392a46.9,46.9,0,0,1-.4-6.97,46.854,46.854,0,0,1,.118-6.98,47.034,47.034,0,0,1,.4,6.97,46.854,46.854,0,0,1-.118,6.98" fill="#1a2e35"/>
        <path id="Trazado_2333" data-name="Trazado 2333" d="M548.56,229.608a7.223,7.223,0,0,1-8.383-8.51c.253-1.274.85-2.506.768-3.8-.177-2.786-3.295-4.5-4.106-7.168-.754-2.477.665-5.1,2.4-7.021s3.869-3.56,5.033-5.872c1.069-2.124,1.206-4.6,2.123-6.8a10.388,10.388,0,0,1,7.419-6.071c3.352-.668,6.971.353,10.169-.853,2.328-.877,4.082-2.811,6.224-4.078a12.4,12.4,0,0,1,15.286,2.589,14.892,14.892,0,0,0,5.306,4.52c2.947,1.315,6.437.46,9.132,2.236,1.6,1.057,2.286,3.057,2.625,4.948s.453,3.875,1.354,5.572a6.817,6.817,0,0,0,7.626,3.268,6.807,6.807,0,0,1-1.227,5.331,7.872,7.872,0,0,0,4.148-1.024,13.754,13.754,0,0,1-12.525,15.608" fill="#e1e1e1"/>
        <path id="Trazado_2334" data-name="Trazado 2334" d="M602.623,215.643c.186-.233,8.188-8.066,13.043,1.773s-6.024,12.685-6.181,12.411-6.862-14.184-6.862-14.184" fill="#ffc09d"/>
        <path id="Trazado_2335" data-name="Trazado 2335" d="M610.652,224.616c.027-.054.23.035.586.024a1.9,1.9,0,0,0,1.294-.6c.851-.9.912-2.977.085-4.773a6.32,6.32,0,0,0-1.691-2.218,2.21,2.21,0,0,0-1.939-.68.972.972,0,0,0-.779.97c0,.34.163.505.119.548-.015.038-.293-.061-.414-.506a1.231,1.231,0,0,1,.083-.808,1.445,1.445,0,0,1,.824-.718,2.682,2.682,0,0,1,2.543.642,6.49,6.49,0,0,1,1.948,2.449c.916,2.014.817,4.37-.4,5.483a2.049,2.049,0,0,1-1.7.513c-.425-.092-.585-.287-.56-.321" fill="#ff9b6c"/>
        <path id="Trazado_2336" data-name="Trazado 2336" d="M563.351,260.885c-3.733-6.789-10.28-21.391-16.052-34.677a29.893,29.893,0,0,1,13.337-38.285l1.364-.729c15.183-7,29.609,1.984,36.185,17.354l22.8,45.486-25.443,41.312-9.137-21.759s-15.328,5.355-23.056-8.7" fill="#ffc09d"/>
        <path id="Trazado_2337" data-name="Trazado 2337" d="M586.386,269.587a37.3,37.3,0,0,0,15.65-15.092s1.258,12.616-13.543,18.88Z" fill="#ff9b6c"/>
        <path id="Trazado_2338" data-name="Trazado 2338" d="M556.535,234.739a2.292,2.292,0,0,0,3.037,1,2.191,2.191,0,0,0,1.11-2.935,2.291,2.291,0,0,0-3.035-1,2.193,2.193,0,0,0-1.112,2.937" fill="#1a2e35"/>
        <path id="Trazado_2339" data-name="Trazado 2339" d="M554.229,232.187c.391.13,1.317-1.82,3.495-2.976,2.159-1.185,4.352-.918,4.445-1.31.054-.18-.456-.52-1.42-.654a6.286,6.286,0,0,0-3.733.722,6.042,6.042,0,0,0-2.607,2.7c-.394.87-.367,1.468-.18,1.52" fill="#1a2e35"/>
        <path id="Trazado_2340" data-name="Trazado 2340" d="M576.568,222.374c.4.1,1.2-1.9,3.3-3.191,2.079-1.319,4.285-1.192,4.353-1.589.042-.183-.486-.491-1.459-.563a6.292,6.292,0,0,0-3.68.957,6.042,6.042,0,0,0-2.431,2.858c-.337.892-.272,1.487-.084,1.528" fill="#1a2e35"/>
        <path id="Trazado_2341" data-name="Trazado 2341" d="M576.343,240.836c-.056-.129-1.533.358-3.872,1.248-.586.239-1.17.409-1.467.08a3.206,3.206,0,0,1-.508-1.844q-.292-2.433-.615-5.105c-.933-7.237-1.925-13.068-2.215-13.028s.228,5.938,1.161,13.176c.245,1.778.474,3.473.7,5.093a3.649,3.649,0,0,0,.876,2.334,1.576,1.576,0,0,0,1.346.324,4.252,4.252,0,0,0,1.013-.373c2.268-1.057,3.64-1.777,3.583-1.9" fill="#1a2e35"/>
        <path id="Trazado_2342" data-name="Trazado 2342" d="M583.545,238.924c-.365.168.891,2.53-.235,5.284s-3.777,3.836-3.62,4.176c.046.165.806.159,1.883-.379a6.664,6.664,0,0,0,3.093-3.352,5.8,5.8,0,0,0,.046-4.35c-.438-1.035-1.013-1.48-1.167-1.379" fill="#1a2e35"/>
        <path id="Trazado_2343" data-name="Trazado 2343" d="M569.461,209.468c.53.478,2.551-.962,5.267-2.017,2.694-1.109,5.15-1.46,5.206-2.17.015-.335-.64-.7-1.778-.829a9.8,9.8,0,0,0-7.979,3.192c-.735.877-.959,1.594-.716,1.824" fill="#e1e1e1"/>
        <path id="Trazado_2344" data-name="Trazado 2344" d="M552.387,227.364c.646.29,1.871-1.023,3.659-2.009,1.754-1.048,3.5-1.443,3.579-2.148.02-.332-.484-.7-1.4-.811a6.044,6.044,0,0,0-5.833,3.349c-.365.848-.3,1.468-.005,1.619" fill="#e1e1e1"/>
        <path id="Trazado_2345" data-name="Trazado 2345" d="M549.556,192.145c3.866-4.711,9.456-6.48,15.153-8.646a27.528,27.528,0,0,1,13.691-1.791c7.517.961,13.648,5.752,17.62,12.209a70.6,70.6,0,0,1,8.458,20.028l-.586.172c1.222,1.434,2.492,2.97,2.792,4.832s-.813,4.084-2.689,4.265c-2.191.209-3.606-2.189-4.515-4.194a157.822,157.822,0,0,0-10.77-19.487c-2.974-4.687-9.038-9.071-14.092-9.26-11.338-.375-15.341,7.881-17.712,10.575-6.879-1.394-10.812,3.789-11.729,8.84-1.87-5.8.513-12.831,4.379-17.543" fill="#e1e1e1"/>
        <path id="Trazado_2346" data-name="Trazado 2346" d="M596.727,187.83c.173.293-.218.967-1.295,1.75a12.838,12.838,0,0,1-5.177,1.949,29.291,29.291,0,0,1-7.958.092c-2.89-.3-5.89-.821-8.866-.955a16.465,16.465,0,0,0-7.7,1.231,15.5,15.5,0,0,0-5.153,3.853c-2.545,2.855-3.272,5.434-4.049,5.318-.177-.024-.322-.212-.432-.562a4.457,4.457,0,0,1-.159-1.522,11.968,11.968,0,0,1,1.613-5.331,15.793,15.793,0,0,1,5.964-6.011,16.133,16.133,0,0,1,4.829-1.8,22.02,22.02,0,0,1,5.31-.376A61.832,61.832,0,0,1,583,186.875a47.8,47.8,0,0,0,7,.98,28.4,28.4,0,0,0,4.683-.159c1.133-.13,1.855-.19,2.045.134" fill="#fff"/>
        <path id="Trazado_2347" data-name="Trazado 2347" d="M601.146,195.613a5.521,5.521,0,0,1-1.654,1.344,13.359,13.359,0,0,1-9.979,1.6,5.542,5.542,0,0,1-1.992-.758,19.436,19.436,0,0,1,2.065.4,15.254,15.254,0,0,0,9.723-1.56,20.086,20.086,0,0,1,1.837-1.024" fill="#fff"/>
        <path id="Trazado_2348" data-name="Trazado 2348" d="M610.446,203.191a2.751,2.751,0,0,1-.833.208,23.28,23.28,0,0,1-2.314.294,34.562,34.562,0,0,1-15.143-2.189,22.888,22.888,0,0,1-2.137-.936,2.708,2.708,0,0,1-.74-.436c.036-.077,1.151.4,3,1.026a41.555,41.555,0,0,0,15,2.167c1.951-.073,3.157-.218,3.169-.134" fill="#fff"/>
        <path id="Trazado_2349" data-name="Trazado 2349" d="M558.3,185.188c.059.059-.641.781-1.627,2.052a14.692,14.692,0,0,0-2.8,5.5,8.86,8.86,0,0,0,.685,6,12.831,12.831,0,0,0,1.53,2.073c-.018.024-.244-.1-.6-.392a5.838,5.838,0,0,1-1.251-1.5,8.672,8.672,0,0,1-.871-6.293,13.455,13.455,0,0,1,3.023-5.617,8.773,8.773,0,0,1,1.913-1.819" fill="#fff"/>
        <path id="Trazado_2350" data-name="Trazado 2350" d="M551.424,184.792c.081.046-.476.912-.939,2.468a11.393,11.393,0,0,0,3,11.581c1.16,1.135,2.067,1.622,2.019,1.7-.016.029-.258-.062-.666-.285a9.255,9.255,0,0,1-1.6-1.146,10.977,10.977,0,0,1-3.1-11.965,9.277,9.277,0,0,1,.847-1.782c.248-.393.416-.59.443-.572" fill="#fff"/>
        <path id="Trazado_2351" data-name="Trazado 2351" d="M604.993,216.206a7.442,7.442,0,0,1-7.357-.786,14.99,14.99,0,0,0,7.357.786" fill="#fff"/>
        <path id="Trazado_2352" data-name="Trazado 2352" d="M606.533,217.77a7.662,7.662,0,0,1-8.024-.1,13.426,13.426,0,0,0,8.024.1" fill="#fff"/>
        <path id="Trazado_2353" data-name="Trazado 2353" d="M545.168,212.422a2.873,2.873,0,0,1-1.521.21,7.29,7.29,0,0,1-6.038-3.888,2.892,2.892,0,0,1-.439-1.471c.083-.027.275.52.759,1.29a8.166,8.166,0,0,0,5.751,3.7,10.431,10.431,0,0,1,1.488.157" fill="#fff"/>
        <path id="Trazado_2354" data-name="Trazado 2354" d="M545.172,208.84a13.639,13.639,0,0,1-6.746-4.407c.1-.111,1.47,1.072,3.326,2.277s3.479,1.989,3.42,2.13" fill="#fff"/>
        <path id="Trazado_2355" data-name="Trazado 2355" d="M552.389,300.453s-2.32-12.109-1.7-13.946,3.916-8.258,3.78-15.292-1.336-15.617-1.336-15.617l-1.1-6.469-4.653-1.868s-1.738-4.364-2.539-5.159a3.91,3.91,0,0,0-4.728-.391,4.737,4.737,0,0,0-2.038,2.879,4.147,4.147,0,0,0-3-.42,4.1,4.1,0,0,0-2.041,2.08s-2.465-1.178-4.143-.092a3.732,3.732,0,0,0-1.607,3.07s-2.205-1.22-3.733-.028a2.92,2.92,0,0,0-1.066,3.112c.066.388,2.737,20.7,2.766,22.43s2.8,8.576,3.6,10.17,1.8,16.038,1.8,16.038Z" fill="#ffc09d"/>
        <path id="Trazado_2356" data-name="Trazado 2356" d="M547.825,254.585c.04.029-.139.225-.287.676a7.267,7.267,0,0,0-.352,2,20.824,20.824,0,0,0,.956,7.04l.069.221L548,264.6a14.24,14.24,0,0,0-4.744,3.054,13.99,13.99,0,0,0-3.327,4.992,14.61,14.61,0,0,0-.966,4.833,21.023,21.023,0,0,0,.507,4.557,4.239,4.239,0,0,1-.43-1.175,13.189,13.189,0,0,1-.445-3.387,14.27,14.27,0,0,1,.885-5,14.041,14.041,0,0,1,3.414-5.195,14.239,14.239,0,0,1,4.934-3.134l-.144.3a19.42,19.42,0,0,1-.791-7.216,6.342,6.342,0,0,1,.5-2.034,1.84,1.84,0,0,1,.295-.477c.08-.1.126-.146.137-.137" fill="#ff9b6c"/>
        <path id="Trazado_2357" data-name="Trazado 2357" d="M571.659,249.835c-.139.036-.385-.447-.549-1.08s-.185-1.176-.046-1.212.386.447.55,1.081.184,1.175.045,1.211" fill="#fff"/>
        <path id="Trazado_2358" data-name="Trazado 2358" d="M572.765,249.41c-.146.016-.318-.5-.567-1.105s-.483-1.1-.367-1.187.573.31.849.99.225,1.29.085,1.3" fill="#fff"/>
        <path id="Trazado_2359" data-name="Trazado 2359" d="M573.7,248.9c-.144.025-.339-.423-.565-.96s-.4-.992-.284-1.077.516.278.765.877.224,1.139.084,1.16" fill="#fff"/>
        <path id="Trazado_2360" data-name="Trazado 2360" d="M574.9,248.042c-.121.076-.485-.28-.812-.8s-.494-1-.372-1.074.485.279.812.8.494,1,.372,1.075" fill="#fff"/>
        <path id="Trazado_2361" data-name="Trazado 2361" d="M576.41,247.122c-.127.073-.48-.3-.925-.729s-.83-.771-.76-.9.622.039,1.122.525.686,1.037.563,1.1" fill="#fff"/>
        <path id="Trazado_2362" data-name="Trazado 2362" d="M577.613,246.346c-.1.1-.531-.184-.952-.629s-.679-.888-.574-.986.53.182.952.629.678.886.574.986" fill="#fff"/>
        <path id="Trazado_2363" data-name="Trazado 2363" d="M578.2,245.335c-.09.112-.543-.1-1.012-.476s-.776-.77-.686-.882.543.1,1.011.475.776.771.687.883" fill="#fff"/>
        <path id="Trazado_2364" data-name="Trazado 2364" d="M578.706,244.317c-.126.075-.435-.214-.827-.515s-.741-.537-.7-.677.546-.1,1.019.267.63.858.506.925" fill="#fff"/>
        <path id="Trazado_2365" data-name="Trazado 2365" d="M579.3,243.381c-.066.128-.535.018-1.048-.245s-.875-.581-.81-.709.535-.018,1.048.245.875.581.81.709" fill="#fff"/>
        <path id="Trazado_2366" data-name="Trazado 2366" d="M580.151,242.193c-.051.135-.492.092-.984-.1s-.85-.449-.8-.583.491-.092.984.1.85.449.8.583" fill="#fff"/>
        <path id="Trazado_2367" data-name="Trazado 2367" d="M581.085,241.26c-.034.14-.536.14-1.122,0s-1.034-.367-1-.508.537-.138,1.123,0,1.034.368,1,.508" fill="#fff"/>
        <path id="Trazado_2368" data-name="Trazado 2368" d="M570.147,382.931l13.741-.238-.791-22.1s-25.96-3.975-27.7-3.5l-7.071,25.125s21.188.716,21.819.717" fill="#ffc09d"/>
        <path id="Trazado_2369" data-name="Trazado 2369" d="M549.983,382.61c.022.042.2.08.492.112,2.435.267,13.681-.419,13.681-.419.514-1.452-.459-5.815-1.859-6.071s-13.369.552-13.369.552-1.885.248-2.354,3.416c-.29,1.957,3.409,2.41,3.409,2.41" fill="#ffc09d"/>
        <path id="Trazado_2370" data-name="Trazado 2370" d="M546.183,376.22c.022.042.2.08.491.111,2.435.267,13.068.151,13.527-1.145.514-1.452-.3-5.089-1.7-5.344s-13.368.552-13.368.552-1.885.247-2.355,3.416c-.29,1.957,3.409,2.41,3.409,2.41" fill="#ffc09d"/>
        <path id="Trazado_2371" data-name="Trazado 2371" d="M544.3,369.974c.022.042.2.079.491.111,2.436.267,13.067.151,13.527-1.145.514-1.452-.3-5.089-1.7-5.344s-13.37.552-13.37.552-1.885.247-2.354,3.416c-.29,1.957,3.409,2.41,3.409,2.41" fill="#ffc09d"/>
        <path id="Trazado_2372" data-name="Trazado 2372" d="M542.527,363.761c.022.042.2.08.491.112,2.435.267,13.067.15,13.527-1.145.514-1.452-.3-5.089-1.7-5.345s-13.369.553-13.369.553-1.885.247-2.354,3.415c-.29,1.958,3.409,2.41,3.409,2.41" fill="#ffc09d"/>
        <path id="Trazado_2373" data-name="Trazado 2373" d="M559.188,376.173c-.016.183-2.333.4-5.176.479s-5.136,0-5.12-.185,2.333-.4,5.177-.479,5.135,0,5.119.185" fill="#ff9b6c"/>
        <path id="Trazado_2374" data-name="Trazado 2374" d="M559.247,369.9c0,.185-3.291.439-7.359.568s-7.375.084-7.383-.1,3.289-.44,7.362-.569,7.373-.084,7.38.1" fill="#ff9b6c"/>
        <g id="Grupo_352" data-name="Grupo 352" opacity="0.78">
          <g id="Grupo_351" data-name="Grupo 351">
            <g id="Grupo_350" data-name="Grupo 350" clip-path="url(#clip-path-3)">
              <path id="Trazado_2375" data-name="Trazado 2375" d="M558.743,363.534c.005.185-3.29.438-7.359.568s-7.375.084-7.381-.1,3.288-.44,7.359-.569,7.375-.084,7.381.1" fill="#ff9b6c"/>
            </g>
          </g>
        </g>
        <path id="Trazado_2376" data-name="Trazado 2376" d="M575.808,359.6s-20.072-8.925-21.325-7.636-3.186,5.433-3.186,5.433Z" fill="#ffc09d"/>
      </g>
    </g>
  </g>
</svg>
