<svg id="Grupo_561" data-name="Grupo 561" xmlns="http://www.w3.org/2000/svg" xmlns:xlink="http://www.w3.org/1999/xlink" width="318.682" height="225.795" viewBox="0 0 318.682 225.795">
  <defs>
    <clipPath id="clip-path">
      <rect id="Rectángulo_399" data-name="Rectángulo 399" width="318.682" height="225.795" fill="none"/>
    </clipPath>
    <clipPath id="clip-path-3">
      <rect id="Rectángulo_379" data-name="Rectángulo 379" width="18.799" height="22.599" transform="translate(41.6 169.551)" fill="none"/>
    </clipPath>
    <clipPath id="clip-path-4">
      <rect id="Rectángulo_380" data-name="Rectángulo 380" width="17.854" height="23.914" transform="translate(7.359 182.005)" fill="none"/>
    </clipPath>
    <clipPath id="clip-path-5">
      <rect id="Rectángulo_381" data-name="Rectángulo 381" width="13.131" height="18.637" transform="translate(41.273 81.027)" fill="none"/>
    </clipPath>
    <clipPath id="clip-path-6">
      <rect id="Rectángulo_382" data-name="Rectángulo 382" width="7.18" height="11.512" transform="translate(20.654 101.518)" fill="none"/>
    </clipPath>
    <clipPath id="clip-path-7">
      <rect id="Rectángulo_383" data-name="Rectángulo 383" width="6.204" height="22.337" transform="translate(27.529 70.813)" fill="none"/>
    </clipPath>
    <clipPath id="clip-path-8">
      <rect id="Rectángulo_384" data-name="Rectángulo 384" width="3.977" height="2.738" transform="translate(21.19 113.312)" fill="none"/>
    </clipPath>
    <clipPath id="clip-path-9">
      <rect id="Rectángulo_385" data-name="Rectángulo 385" width="12.774" height="18.085" transform="translate(238.416 15.504)" fill="none"/>
    </clipPath>
    <clipPath id="clip-path-10">
      <rect id="Rectángulo_388" data-name="Rectángulo 388" width="21.661" height="8.512" transform="translate(241.518 136.147)" fill="none"/>
    </clipPath>
    <clipPath id="clip-path-11">
      <rect id="Rectángulo_391" data-name="Rectángulo 391" width="21.662" height="8.512" transform="translate(160.64 161.819)" fill="none"/>
    </clipPath>
    <clipPath id="clip-path-12">
      <rect id="Rectángulo_394" data-name="Rectángulo 394" width="21.662" height="8.512" transform="translate(80.32 186.377)" fill="none"/>
    </clipPath>
    <clipPath id="clip-path-13">
      <rect id="Rectángulo_397" data-name="Rectángulo 397" width="21.662" height="8.512" transform="translate(0 205.919)" fill="none"/>
    </clipPath>
  </defs>
  <g id="Grupo_560" data-name="Grupo 560" clip-path="url(#clip-path)">
    <g id="Grupo_559" data-name="Grupo 559">
      <g id="Grupo_558" data-name="Grupo 558" clip-path="url(#clip-path)">
        <path id="Trazado_3048" data-name="Trazado 3048" d="M237.205,79.671s2.9-2.375,7.452,4.676a97.248,97.248,0,0,1,6.429,11.193s1.161,1.456,2.128.327,2.137-4.168,4.01-3.834c1.942.347,2.779,2.389,2.736,5.521s.115,10,.132,10.618.453,1.465,1.235.8,5.065-6.543,7.733-4.344,1.116,10.905.964,11.86.071,1.333.536,1.519,1.719-1.928,3.006-3.55,3.064-3.278,4.5-1.88,2.493,7.7-2.492,18.628l-2.64,4.912-5.6.261c-12.008-.172-17.252-3.826-17.9-5.72s1.606-2.791,3.623-3.26,4.462-.7,4.494-1.2-.214-.862-1.143-1.134-9.46-2.593-10.306-5.947,6.3-4.708,7.235-5.131.348-1.183-.2-1.459-6.692-3.361-9.541-4.663-4.336-2.931-3.819-4.836c.5-1.836,3.748-1.592,5.182-1.983s.614-2.064.614-2.064a97.108,97.108,0,0,1-7.365-10.6c-4.424-7.133-.944-8.76-.944-8.76" fill="#ececec"/>
        <path id="Trazado_3049" data-name="Trazado 3049" d="M273.918,137.026c-3.27-5.226-9.237-14.414-14.319-22.33s-9.673-15.082-12.969-20.29l-3.9-6.172-1.061-1.678c-.119-.186-.213-.33-.279-.433s-.1-.146-.1-.146.026.054.086.154l.265.444,1.033,1.694c.9,1.471,2.215,3.59,3.85,6.2,3.27,5.226,7.847,12.406,12.927,20.319s11.066,17.094,14.361,22.3" fill="#e1e1e1"/>
        <path id="Trazado_3050" data-name="Trazado 3050" d="M255.757,96.351a1.777,1.777,0,0,0-.1.391c-.055.254-.124.622-.206,1.078-.16.913-.349,2.178-.533,3.58-.177,1.382-.336,2.632-.458,3.588-.057.43-.106.794-.145,1.086a1.782,1.782,0,0,0-.037.4,1.886,1.886,0,0,0,.1-.39c.055-.254.124-.622.2-1.079.152-.915.324-2.182.509-3.584.186-1.38.354-2.628.482-3.583.061-.43.111-.794.152-1.086a1.842,1.842,0,0,0,.035-.4" fill="#e1e1e1"/>
        <path id="Trazado_3051" data-name="Trazado 3051" d="M253.776,106.627c.009-.047-2.585-.553-5.791-1.13s-5.814-1.006-5.822-.958,2.584.552,5.792,1.129,5.812,1.006,5.821.959" fill="#e1e1e1"/>
        <path id="Trazado_3052" data-name="Trazado 3052" d="M262.127,118.428a1.955,1.955,0,0,0-.411.023l-1.113.12c-.94.1-2.238.227-3.675.318s-2.742.134-3.687.156l-1.119.027a1.769,1.769,0,0,0-.41.029,1.859,1.859,0,0,0,.41.038c.265.013.647.023,1.12.028.947.009,2.255-.01,3.7-.105s2.742-.24,3.678-.371c.469-.066.848-.125,1.108-.172a1.777,1.777,0,0,0,.4-.091" fill="#e1e1e1"/>
        <path id="Trazado_3053" data-name="Trazado 3053" d="M265.964,109.53a1.614,1.614,0,0,0-.186.332l-.446.934c-.371.791-.871,1.888-1.415,3.105s-1.026,2.323-1.368,3.127q-.234.565-.4.956a1.8,1.8,0,0,0-.124.36,1.483,1.483,0,0,0,.186-.333c.122-.253.271-.565.447-.932.37-.792.871-1.89,1.414-3.107s1.027-2.323,1.368-3.127q.236-.565.4-.956a1.534,1.534,0,0,0,.124-.359" fill="#e1e1e1"/>
        <path id="Trazado_3054" data-name="Trazado 3054" d="M274.661,119.012a2.656,2.656,0,0,0-.233.428c-.15.312-.344.713-.577,1.194-.48,1.012-1.133,2.414-1.844,3.967s-1.347,2.963-1.8,3.988c-.212.49-.39.9-.526,1.217a2.528,2.528,0,0,0-.172.455,2.694,2.694,0,0,0,.233-.427c.15-.312.344-.714.576-1.194.481-1.011,1.134-2.413,1.845-3.967s1.347-2.963,1.8-3.987l.526-1.218a2.559,2.559,0,0,0,.172-.456" fill="#e1e1e1"/>
        <path id="Trazado_3055" data-name="Trazado 3055" d="M269.557,129.958a2.952,2.952,0,0,0-.522.016l-1.416.1c-1.2.082-2.848.189-4.675.255s-3.484.089-4.682.094l-1.42.008a2.886,2.886,0,0,0-.521.022,2.91,2.91,0,0,0,.519.045c.336.018.821.035,1.421.047,1.2.026,2.858.026,4.689-.042s3.484-.193,4.678-.307c.6-.057,1.08-.109,1.413-.153a3,3,0,0,0,.516-.083" fill="#e1e1e1"/>
        <path id="Trazado_3056" data-name="Trazado 3056" d="M282.863,99.432a14.788,14.788,0,0,0,.145,2.555,18.552,18.552,0,0,0,2.329,6.856l.053-.1h-.112l.054.094,14.512,25.739.091.162.1-.158c4.618-7.367,9.837-15.691,15.343-24.473.257-.413.515-.825.754-1.2l.117-.188h-.222l.106.183a18.8,18.8,0,0,0,2.311-6.465,17.81,17.81,0,0,0,.231-3.363q-.047-.837-.091-1.665-.123-.822-.247-1.636a18.867,18.867,0,0,0-6.263-10.709,18.138,18.138,0,0,0-5.048-2.966l-.667-.249-.332-.123-.341-.091-1.351-.352a18.766,18.766,0,0,0-2.7-.329A18.113,18.113,0,0,0,299,81c-.429.034-.848.127-1.267.187l-.623.1c-.2.043-.4.106-.6.157l-1.188.322-1.126.429c-.184.073-.372.136-.552.216l-.523.263-1.027.52a18.58,18.58,0,0,0-5.96,5.5,18.938,18.938,0,0,0-2.6,5.555,16.856,16.856,0,0,0-.457,2.195,12.1,12.1,0,0,0-.174,1.632q-.023.657-.034,1.009c-.007.227,0,.343,0,.343s.014-.116.028-.343.034-.568.059-1.006a12.672,12.672,0,0,1,.2-1.624,17.113,17.113,0,0,1,.477-2.18,18.964,18.964,0,0,1,2.617-5.5,18.5,18.5,0,0,1,5.933-5.431l1.019-.511.519-.257c.177-.079.364-.141.547-.212l1.115-.422,1.177-.315c.2-.049.4-.111.6-.152l.616-.1c.414-.057.829-.148,1.253-.181a18.016,18.016,0,0,1,2.6-.039,18.446,18.446,0,0,1,2.672.33l1.335.35.337.091.327.123.659.247a17.935,17.935,0,0,1,4.98,2.939A18.655,18.655,0,0,1,318.1,95.82q.122.8.243,1.615.045.819.088,1.644a17.625,17.625,0,0,1-.228,3.322,18.6,18.6,0,0,1-2.283,6.38l-.108.184h.214l-.1-.186c-.239.381-.5.792-.755,1.205-5.5,8.786-10.71,17.115-15.323,24.485l.19,0c-6.1-10.739-11.2-19.713-14.6-25.691l-.055.093h.115l-.055-.093a18.775,18.775,0,0,1-2.372-6.8c-.119-.826-.153-1.465-.181-1.895-.008-.21-.013-.371-.017-.486s-.012-.165-.012-.165" fill="#e1e1e1"/>
        <path id="Trazado_3057" data-name="Trazado 3057" d="M289.374,99.227a1.094,1.094,0,0,0,.021-.183c.009-.133.022-.311.039-.538.005-.119.014-.252.023-.4s.047-.3.073-.473a8.311,8.311,0,0,1,.237-1.168,10.835,10.835,0,0,1,1.253-3,11.244,11.244,0,0,1,13.492-4.824,11.581,11.581,0,0,1,1.465.641,11.762,11.762,0,0,1,1.378.881,10.219,10.219,0,0,1,2.378,2.378,10.838,10.838,0,0,1,1.612,3.087,11.1,11.1,0,0,1,.018,7.081,10.883,10.883,0,0,1-1.593,3.1,13.046,13.046,0,0,1-1.1,1.3A12.6,12.6,0,0,1,307.4,108.2a10.311,10.311,0,0,1-2.836,1.537,11.27,11.27,0,0,1-13.516-4.756,10.824,10.824,0,0,1-1.269-2.995,8.265,8.265,0,0,1-.242-1.167c-.026-.171-.059-.328-.074-.473s-.02-.276-.029-.4c-.016-.227-.03-.406-.04-.538a1.1,1.1,0,0,0-.021-.184.893.893,0,0,0,0,.185c0,.132.01.312.017.54.005.12.009.253.015.4s.041.305.064.477a8.144,8.144,0,0,0,.222,1.18,10.782,10.782,0,0,0,1.244,3.042,11.419,11.419,0,0,0,7.7,5.394,11.468,11.468,0,0,0,6.013-.5,12.066,12.066,0,0,0,1.494-.657,12.267,12.267,0,0,0,1.4-.9,10.518,10.518,0,0,0,2.419-2.436,11.084,11.084,0,0,0,1.633-3.162,11.345,11.345,0,0,0-.018-7.234,11.141,11.141,0,0,0-1.65-3.151,10.467,10.467,0,0,0-2.433-2.424,10.461,10.461,0,0,0-2.9-1.546,11.469,11.469,0,0,0-6.015-.467A11.409,11.409,0,0,0,290.9,93.4a10.7,10.7,0,0,0-1.229,3.049,8.242,8.242,0,0,0-.217,1.181c-.023.173-.05.331-.062.477s-.008.279-.013.4c-.005.228-.009.407-.014.54a.919.919,0,0,0,.005.184" fill="#e1e1e1"/>
        <path id="Trazado_3058" data-name="Trazado 3058" d="M300.94,104.508l6.592-4.6-1.6-2.3-4.421,3.085-5.718-7.267-2.2,1.734Z" fill="#e1e1e1"/>
        <path id="Trazado_3059" data-name="Trazado 3059" d="M116.446,19.341l1.883-5.034,8.816,1.2.471,5.354a21.807,21.807,0,0,1,5.011,2.921l4.894-2.231,5.386,7.079-3.454,4.122a21.726,21.726,0,0,1,1.482,5.609l5.035,1.88-1.2,8.817-5.354.472a21.861,21.861,0,0,1-2.922,5.01l2.232,4.893-7.08,5.389-4.123-3.455a21.751,21.751,0,0,1-5.607,1.482l-1.881,5.035-8.817-1.2-.471-5.355a21.771,21.771,0,0,1-5.011-2.921l-4.893,2.231-5.388-7.079,3.454-4.122a21.808,21.808,0,0,1-1.481-5.608L92.4,41.947l1.195-8.815,5.354-.473a21.8,21.8,0,0,1,2.922-5.009l-2.23-4.893,7.079-5.389,4.121,3.454a21.852,21.852,0,0,1,5.607-1.481M109.5,38.8a9.545,9.545,0,1,0,9.587-7.3,9.549,9.549,0,0,0-9.587,7.3" fill="#f5f5f5" fill-rule="evenodd"/>
        <path id="Trazado_3060" data-name="Trazado 3060" d="M196.729,47.527l1.222-3.268,5.722.776.306,3.476a14.135,14.135,0,0,1,3.253,1.9l3.177-1.448,3.5,4.6-2.243,2.676a14.1,14.1,0,0,1,.962,3.64l3.268,1.222-.776,5.722-3.476.307a14.118,14.118,0,0,1-1.9,3.252l1.449,3.177-4.595,3.5L203.922,74.8a14.112,14.112,0,0,1-3.64.962l-1.221,3.269-5.724-.777-.305-3.476a14.147,14.147,0,0,1-3.253-1.895L186.6,74.334l-3.5-4.6,2.242-2.676a14.112,14.112,0,0,1-.962-3.64L181.118,62.2l.775-5.723,3.476-.305a14.175,14.175,0,0,1,1.9-3.253l-1.448-3.176,4.6-3.5,2.676,2.242a14.1,14.1,0,0,1,3.64-.961m-4.507,12.631a6.2,6.2,0,1,0,6.223-4.739,6.2,6.2,0,0,0-6.223,4.739" fill="#ececec" fill-rule="evenodd"/>
        <path id="Trazado_3061" data-name="Trazado 3061" d="M148.711,89.355a7.548,7.548,0,0,0-2.069,1.368,9.96,9.96,0,0,0-3.207,5.9,10.086,10.086,0,0,0,.353,4.7,10.248,10.248,0,0,0,2.959,4.527,10.285,10.285,0,0,0,5.431,2.483,10.211,10.211,0,0,0,10.668-5.852,10.277,10.277,0,0,0,.826-5.915,10.261,10.261,0,0,0-2.229-4.929,10.1,10.1,0,0,0-3.772-2.822,9.964,9.964,0,0,0-6.7-.463,7.577,7.577,0,0,0-2.265,1.009c.029.064.792-.41,2.321-.793a9.987,9.987,0,0,1,6.474.618,9.783,9.783,0,0,1,5.643,7.461,9.788,9.788,0,0,1-.813,5.6,9.7,9.7,0,0,1-10.084,5.531,9.784,9.784,0,0,1-5.155-2.323,9.779,9.779,0,0,1-3.261-8.767,9.979,9.979,0,0,1,2.958-5.792c1.145-1.084,1.955-1.471,1.917-1.532" fill="#ececec"/>
        <path id="Trazado_3062" data-name="Trazado 3062" d="M138.025,81.288a2.257,2.257,0,0,0-.077-.344c-.067-.253-.156-.593-.272-1.032-.258-.944-.631-2.305-1.115-4.07l-.044.1,8.208-4.441-.179-.031,3.719,4.237.068.077.1-.024a22.8,22.8,0,0,1,6-.636l.113,0,.057-.1,2.75-4.926-.236.1,8.953,2.632-.162-.231c-.111,1.744-.232,3.662-.355,5.63l-.01.144.125.074a22.747,22.747,0,0,1,4.689,3.774l.1.11.145-.042,5.422-1.544-.295-.124,4.478,8.188.058-.329c-1.316,1.163-2.762,2.44-4.225,3.734l-.124.108.04.161a22.742,22.742,0,0,1,.646,5.976l0,.168.148.082,4.931,2.739-.134-.324c-.828,2.836-1.715,5.876-2.615,8.958l.291-.2-5.631-.345-.173-.01-.089.149a22.678,22.678,0,0,1-3.756,4.682l0,0h0c-.036.128.076-.286-.079.288v0l0,.011.006.021.012.043.025.085.048.171.1.341.195.682.39,1.359q.389,1.356.774,2.7l.138-.331q-4.146,2.277-8.181,4.49l.349.062q-1.889-2.131-3.738-4.222l-.113-.128-.166.041a22.653,22.653,0,0,1-5.974.658l-.169,0-.081.147q-1.388,2.5-2.733,4.935l.315-.13-8.961-2.6.19.27q.172-2.865.336-5.631l.01-.156-.134-.08a22.668,22.668,0,0,1-4.7-3.757l-.1-.11-.145.041c-1.857.537-3.658,1.055-5.417,1.562l.275.115c-1.585-2.875-3.082-5.589-4.506-8.173l-.047.271c1.481-1.319,2.872-2.555,4.214-3.747l.093-.084-.03-.12a22.822,22.822,0,0,1-.672-6l0-.116-.1-.054c-1.8-.989-3.414-1.878-4.942-2.72l.08.2c1-3.475,1.846-6.436,2.573-8.971l-.131.092,5.631.308.057,0,.028-.048A23.644,23.644,0,0,1,137,82.4c.33-.357.584-.63.769-.831a2.448,2.448,0,0,0,.252-.277,2.634,2.634,0,0,0-.286.244c-.183.171-.458.432-.806.8a22.183,22.183,0,0,0-2.794,3.653l.085-.044-5.628-.38-.1-.006-.03.1L125.813,94.6l-.038.129.119.068c1.523.85,3.134,1.752,4.923,2.752l-.1-.169a23.088,23.088,0,0,0,.649,6.1l.063-.2c-1.346,1.187-2.744,2.416-4.231,3.727l-.132.116.084.155c1.414,2.589,2.9,5.31,4.473,8.191l.091.167.184-.052,5.423-1.543-.248-.067a23.129,23.129,0,0,0,4.794,3.855l-.124-.236q-.174,2.764-.351,5.63l-.013.211.2.059,8.956,2.62.209.062.106-.192,2.741-4.929-.25.142a23.14,23.14,0,0,0,6.123-.665l-.279-.087,3.734,4.225.151.17.2-.11q4.034-2.209,8.185-4.486l.2-.109-.064-.221q-.386-1.346-.774-2.7l-.389-1.359-.2-.681-.1-.342-.049-.171-.024-.085-.013-.043-.006-.021,0-.011,0-.005c-.156.573-.042.158-.077.286h0l0,0a23.175,23.175,0,0,0,3.851-4.8l-.264.138,5.632.342.228.014.064-.219c.9-3.083,1.781-6.124,2.607-8.961l.063-.216-.2-.109c-1.7-.944-3.39-1.877-4.936-2.733l.143.249a23.294,23.294,0,0,0-.672-6.12l-.084.27,4.218-3.741.16-.142-.1-.186-4.5-8.178-.1-.18-.2.057c-1.885.544-3.738,1.077-5.418,1.56l.248.068a23.128,23.128,0,0,0-4.8-3.839l.114.218c.116-1.969.229-3.889.332-5.632l.011-.181L166.2,72.4c-3.146-.908-6.142-1.774-8.965-2.591l-.158-.044-.078.142-2.723,4.941.169-.1a23.057,23.057,0,0,0-6.094.685l.167.052-3.754-4.207-.078-.088-.1.057-8.157,4.535-.064.036.02.07,1.2,4.007c.135.441.241.781.319,1.035a2.753,2.753,0,0,0,.123.354" fill="#ececec"/>
        <path id="Trazado_3063" data-name="Trazado 3063" d="M116.085,90.657l8.131-32.334-33.082-.547Z" fill="#ececec"/>
        <rect id="Rectángulo_378" data-name="Rectángulo 378" width="76.024" height="18.799" transform="matrix(0.797, -0.604, 0.604, 0.797, 40.548, 110.013)" fill="#ececec"/>
        <path id="Trazado_3064" data-name="Trazado 3064" d="M56.9,173.314l-4.2,9.527s8.273,7.472,7.669,9.309L41.6,184.665l5.939-15.115Z" fill="#ff4f5b"/>
        <g id="Grupo_527" data-name="Grupo 527" opacity="0.5">
          <g id="Grupo_526" data-name="Grupo 526">
            <g id="Grupo_525" data-name="Grupo 525" clip-path="url(#clip-path-3)">
              <path id="Trazado_3065" data-name="Trazado 3065" d="M56.9,173.314l-4.2,9.527s8.273,7.472,7.669,9.309L41.6,184.665l5.939-15.115Z"/>
            </g>
          </g>
        </g>
        <path id="Trazado_3066" data-name="Trazado 3066" d="M41.6,184.665l.658-1.5L60.006,190.9s.691.7.362,1.248Z" fill="#1a2e35"/>
        <path id="Trazado_3067" data-name="Trazado 3067" d="M23.853,186.811,18.592,195.8s7.369,8.367,6.559,10.121L7.359,196.344l7.622-14.339Z" fill="#ff4f5b"/>
        <g id="Grupo_530" data-name="Grupo 530" opacity="0.5">
          <g id="Grupo_529" data-name="Grupo 529">
            <g id="Grupo_528" data-name="Grupo 528" clip-path="url(#clip-path-4)">
              <path id="Trazado_3068" data-name="Trazado 3068" d="M23.853,186.811,18.592,195.8s7.369,8.367,6.559,10.121L7.359,196.344l7.622-14.339Z"/>
            </g>
          </g>
        </g>
        <path id="Trazado_3069" data-name="Trazado 3069" d="M7.359,196.345l.824-1.415,16.751,9.709s.607.769.217,1.279Z" fill="#1a2e35"/>
        <path id="Trazado_3070" data-name="Trazado 3070" d="M46.811,60.746l11.532.9.383-6.457s4.652-.067,5.349-4.611S65.452,35.47,65.452,35.47a15.979,15.979,0,0,0-16.177-.238l-.747.425Z" fill="#ffc09d"/>
        <path id="Trazado_3071" data-name="Trazado 3071" d="M58.743,55.123a10.691,10.691,0,0,1-5.7-2.521s1.009,3.574,5.607,3.8Z" fill="#ff9b6c"/>
        <path id="Trazado_3072" data-name="Trazado 3072" d="M48.425,40.451c-.072-.045-3-1.365-3.335,1.761s2.869,2.82,2.885,2.731.45-4.492.45-4.492" fill="#ffc09d"/>
        <path id="Trazado_3073" data-name="Trazado 3073" d="M47.148,43.655c-.013-.011-.059.032-.154.064a.542.542,0,0,1-.408-.035,1.353,1.353,0,0,1-.494-1.276,1.827,1.827,0,0,1,.238-.763.632.632,0,0,1,.454-.374.278.278,0,0,1,.305.184c.033.093.006.152.022.159s.073-.045.061-.177a.344.344,0,0,0-.1-.209.414.414,0,0,0-.292-.112.77.77,0,0,0-.622.424,1.844,1.844,0,0,0-.282.85,1.422,1.422,0,0,0,.647,1.436.588.588,0,0,0,.508-.029c.1-.067.129-.135.118-.142" fill="#ff9b6c"/>
        <path id="Trazado_3074" data-name="Trazado 3074" d="M63.487,42.622a.654.654,0,0,1-.719.567.628.628,0,0,1-.588-.679.659.659,0,0,1,.719-.569.629.629,0,0,1,.588.681" fill="#1a2e35"/>
        <path id="Trazado_3075" data-name="Trazado 3075" d="M63.69,41.752c-.093.073-.534-.36-1.233-.457s-1.262.182-1.326.085c-.032-.043.072-.185.318-.316a1.8,1.8,0,0,1,1.076-.172,1.73,1.73,0,0,1,.967.468c.191.2.243.36.2.392" fill="#1a2e35"/>
        <path id="Trazado_3076" data-name="Trazado 3076" d="M56.685,41.835a.656.656,0,0,1-.72.567.626.626,0,0,1-.587-.679.657.657,0,0,1,.718-.569.63.63,0,0,1,.589.681" fill="#1a2e35"/>
        <path id="Trazado_3077" data-name="Trazado 3077" d="M56.8,40.915c-.093.074-.535-.36-1.234-.456s-1.262.181-1.326.085c-.031-.044.072-.185.319-.316a1.8,1.8,0,0,1,1.075-.173,1.724,1.724,0,0,1,.967.469c.191.2.243.359.2.391" fill="#1a2e35"/>
        <path id="Trazado_3078" data-name="Trazado 3078" d="M58.6,46.46a4.6,4.6,0,0,1,1.165-.046c.181.007.356-.005.4-.122a.91.91,0,0,0-.045-.547c-.107-.455-.218-.932-.336-1.433a23.538,23.538,0,0,1-.686-3.725,23.755,23.755,0,0,1,.983,3.66c.11.5.215.982.314,1.44a1.04,1.04,0,0,1-.006.713.447.447,0,0,1-.33.22,1.186,1.186,0,0,1-.31,0,4.576,4.576,0,0,1-1.151-.16" fill="#1a2e35"/>
        <path id="Trazado_3079" data-name="Trazado 3079" d="M56.478,46.654c.115.009.01.769.584,1.4s1.394.662,1.385.768c0,.05-.2.122-.544.084a1.913,1.913,0,0,1-1.162-.6,1.667,1.667,0,0,1-.441-1.167c.016-.321.127-.5.178-.485" fill="#1a2e35"/>
        <path id="Trazado_3080" data-name="Trazado 3080" d="M57.362,38.2c-.1.181-.781-.008-1.616-.023-.834-.034-1.53.113-1.614-.073-.038-.089.1-.251.4-.4a2.807,2.807,0,0,1,2.462.073c.284.163.414.334.372.42" fill="#1a2e35"/>
        <path id="Trazado_3081" data-name="Trazado 3081" d="M63.717,39.691c-.146.142-.6-.091-1.183-.181-.575-.109-1.085-.044-1.174-.225-.039-.088.061-.237.3-.357a1.733,1.733,0,0,1,1.9.327c.182.193.226.366.161.436" fill="#1a2e35"/>
        <path id="Trazado_3082" data-name="Trazado 3082" d="M68.073,32.908a1.7,1.7,0,0,0-.409-1.589,1.206,1.206,0,0,0-1.561-.1,1.4,1.4,0,0,0-.958-1.855c-.736-.151-1.448.32-2.193.416a3.407,3.407,0,0,1-2.09-.544c-.636-.366-1.213-.829-1.859-1.174a5.879,5.879,0,0,0-7.925,2.371,2.611,2.611,0,0,0-2.887.653,4.279,4.279,0,0,0-1.069,2.894,9.628,9.628,0,0,0,.233,2.116c-.008.058-.022.115-.029.174-.305,2.509-.436,5.489.631,5.655,1.856.29,1.906-3.279,1.906-3.279,2.408-.561,2.038-4.1,2.683-4.542s2.008-1.476,6.446,1.64a9.357,9.357,0,0,0,5.588,1.411c.04,0,.081,0,.122-.008h.028c.016,0,.028-.008.042-.01a4.373,4.373,0,0,0,1.3-.348,2.442,2.442,0,0,0,1.168-.982,1.336,1.336,0,0,0-.061-1.461,2.942,2.942,0,0,0,.894-1.436" fill="#1a2e35"/>
        <path id="Trazado_3083" data-name="Trazado 3083" d="M58.743,59.143l-.515,18.07-11.242-24.2.281-2.24Z" fill="#ececec"/>
        <path id="Trazado_3084" data-name="Trazado 3084" d="M51.285,113.161c.411.135,23.819,23.809,23.294,28.061s-17.19,35.744-17.19,35.744L45.5,171.1,56.653,143.5l-.145-1.713-13.63-11.169.727-17.961Z" fill="#1a2e35"/>
        <path id="Trazado_3085" data-name="Trazado 3085" d="M46.237,117.826c-.271.413-4.325,37.6-5.412,39.529s-17.368,33.676-17.368,33.676L11.368,186.16l14.758-34.9-1.682-33.027.91-9.326L43.6,112.653Z" fill="#1a2e35"/>
        <path id="Trazado_3086" data-name="Trazado 3086" d="M41.037,156.7a2.062,2.062,0,0,0,.079-.372c.044-.271.1-.628.176-1.074.146-.962.349-2.307.6-3.956.485-3.369,1.148-7.977,1.88-13.067.7-5.1,1.339-9.708,1.8-13.079l.518-3.968c.052-.449.1-.808.128-1.08a2.036,2.036,0,0,0,.026-.38,2.135,2.135,0,0,0-.078.372c-.045.271-.1.627-.177,1.075-.145.962-.349,2.305-.6,3.956-.484,3.368-1.147,7.976-1.879,13.068-.7,5.1-1.339,9.706-1.805,13.077-.216,1.655-.392,3-.517,3.968q-.08.674-.128,1.08a2.118,2.118,0,0,0-.027.38" fill="#375a64"/>
        <path id="Trazado_3087" data-name="Trazado 3087" d="M26.432,150.2a17.747,17.747,0,0,0,.7,2.947,17.784,17.784,0,0,0,.952,2.876,17.606,17.606,0,0,0-.7-2.947,17.737,17.737,0,0,0-.953-2.876" fill="#375a64"/>
        <path id="Trazado_3088" data-name="Trazado 3088" d="M24.6,158.621a3.4,3.4,0,0,0,.66-.918,9.036,9.036,0,0,0,1.125-5.28,3.336,3.336,0,0,0-.228-1.107,11.795,11.795,0,0,1-1.557,7.305" fill="#375a64"/>
        <path id="Trazado_3089" data-name="Trazado 3089" d="M60.552,139.49a6.377,6.377,0,0,0-3.345,3.05c.066.043.643-.8,1.568-1.641s1.814-1.341,1.777-1.409" fill="#375a64"/>
        <path id="Trazado_3090" data-name="Trazado 3090" d="M58.716,138.391a5.191,5.191,0,0,0-1.806,2.923,15.181,15.181,0,0,0,.875-1.479,15.206,15.206,0,0,0,.931-1.444" fill="#375a64"/>
        <path id="Trazado_3091" data-name="Trazado 3091" d="M57.1,84.134,54.108,98.98,51.672,119.7s-10.039-1.4-14.318-2.756c-4.963-1.572-15.762-2.91-15.762-2.91l1.82,1.8a12.854,12.854,0,0,1-6.323-4.768c6.659-6.177,12.34-18.882,12.34-18.882L34.493,67.04s.769-3.548,1.233-5.125,8.152-6.664,9.219-7.306l.67-.319.213-2.013.792-.476,8.322,7.562a9.016,9.016,0,0,1,2.9,5.649,65.3,65.3,0,0,1,.363,9.457c-.1,2.946-1.1,9.665-1.1,9.665" fill="#ff4f5b"/>
        <path id="Trazado_3092" data-name="Trazado 3092" d="M51.388,58.417s4.4,2.357,5.158,4.357-1.5,23.931-1.5,23.931l15.787.3.049,9.407S45.8,98.39,44.826,97.034c-1.319-1.833-2.852-18.97-2.852-18.97L41.4,65.735s1.454-9.4,9.983-7.318" fill="#ff4f5b"/>
        <g id="Grupo_533" data-name="Grupo 533" opacity="0.3">
          <g id="Grupo_532" data-name="Grupo 532">
            <g id="Grupo_531" data-name="Grupo 531" clip-path="url(#clip-path-5)">
              <path id="Trazado_3093" data-name="Trazado 3093" d="M54.108,98.98a15.111,15.111,0,0,1-6.318.591,6.276,6.276,0,0,1-5.328-3.493c-.643-1.584-.375-3.369-.472-5.077-.085-1.483-.452-2.933-.677-4.4s.538-4.169,1.023-5.572c0,0,.563,10.18,2.155,14.453a3.505,3.505,0,0,0,.975,1.561,3.834,3.834,0,0,0,2.065.569,59.8,59.8,0,0,0,6.873-.14"/>
            </g>
          </g>
        </g>
        <path id="Trazado_3094" data-name="Trazado 3094" d="M41.431,67.067a1.579,1.579,0,0,0,0,.224c.006.159.015.377.025.655.029.589.069,1.434.121,2.518s.127,2.435.209,3.985.146,3.324.336,5.272c.17,1.951.374,4.086.62,6.375s.525,4.735.96,7.292a16.123,16.123,0,0,0,.434,1.934,3.773,3.773,0,0,0,1.139,1.705,2.883,2.883,0,0,0,1.964.7c.7.017,1.394,0,2.1-.01,2.819-.07,5.731-.214,8.713-.376,4.482-.248,8.8-.527,12.836-.81L71,96.524v-.117c-.02-3.341-.039-6.488-.056-9.392v-.108l-.109,0L55.6,86.577,51.336,86.5l-1.122-.011c-.254,0-.386.008-.386.008s.131.015.385.027l1.122.044,4.261.136,15.236.421-.108-.112c.009,2.9.019,6.051.03,9.393l.115-.125c-4.034.275-8.352.552-12.832.8-2.981.161-5.892.307-8.7.38-.7.009-1.4.028-2.086.014a2.636,2.636,0,0,1-1.814-.641,3.536,3.536,0,0,1-1.065-1.594,15.747,15.747,0,0,1-.428-1.9c-.441-2.544-.72-4.989-.984-7.273s-.467-4.42-.649-6.367c-.2-1.948-.267-3.717-.375-5.268s-.183-2.884-.253-3.98-.13-1.927-.17-2.515c-.021-.278-.038-.5-.051-.654a1.246,1.246,0,0,0-.026-.222" fill="#1a2e35"/>
        <path id="Trazado_3095" data-name="Trazado 3095" d="M67.78,96.269a40.136,40.136,0,0,0,.106-4.562,40.253,40.253,0,0,0-.154-4.56,40.111,40.111,0,0,0-.106,4.561,40.263,40.263,0,0,0,.154,4.561" fill="#1a2e35"/>
        <path id="Trazado_3096" data-name="Trazado 3096" d="M69.454,88.576c.03-.017-.127-.192-.427-.093a.487.487,0,0,0-.32.418.574.574,0,0,0,.32.563.59.59,0,0,0,.636-.117.527.527,0,0,0,.153-.5c-.07-.3-.278-.361-.285-.331-.025.03.1.14.1.354a.365.365,0,0,1-.5.354.349.349,0,0,1-.19-.313.308.308,0,0,1,.157-.264c.183-.108.335-.041.351-.074" fill="#1a2e35"/>
        <path id="Trazado_3097" data-name="Trazado 3097" d="M34.423,69.194S26.21,79.933,25.209,82.859,24.982,89.988,26.654,92s3.022,1.193,3.022,1.193Z" fill="#ff4f5b"/>
        <path id="Trazado_3098" data-name="Trazado 3098" d="M29.97,92.328a8.67,8.67,0,0,0,2.058.484,8.713,8.713,0,0,0,2.1.23,8.641,8.641,0,0,0-2.058-.485,8.62,8.62,0,0,0-2.1-.229" fill="#1a2e35"/>
        <path id="Trazado_3099" data-name="Trazado 3099" d="M28.391,100.246a2.677,2.677,0,0,0-.223.566c-.125.371-.313.9-.557,1.557a46.314,46.314,0,0,1-2.206,4.977,52.748,52.748,0,0,1-2.759,4.7c-.384.582-.7,1.051-.922,1.372a2.709,2.709,0,0,0-.32.519,2.8,2.8,0,0,0,.4-.458c.247-.3.587-.758.992-1.33a40.283,40.283,0,0,0,2.838-4.68,36.61,36.61,0,0,0,2.149-5.034c.222-.665.385-1.208.48-1.589a2.645,2.645,0,0,0,.126-.6" fill="#1a2e35"/>
        <g id="Grupo_536" data-name="Grupo 536" opacity="0.3">
          <g id="Grupo_535" data-name="Grupo 535">
            <g id="Grupo_534" data-name="Grupo 534" clip-path="url(#clip-path-6)">
              <path id="Trazado_3100" data-name="Trazado 3100" d="M27.833,101.518a24.287,24.287,0,0,1-4.623,6.458,11.963,11.963,0,0,0-2.017,1.953,2.462,2.462,0,0,0-.257,2.644.831.831,0,0,0,.819.442,1.064,1.064,0,0,0,.537-.434,32.025,32.025,0,0,0,5.452-10.709"/>
            </g>
          </g>
        </g>
        <g id="Grupo_539" data-name="Grupo 539" opacity="0.3">
          <g id="Grupo_538" data-name="Grupo 538">
            <g id="Grupo_537" data-name="Grupo 537" clip-path="url(#clip-path-7)">
              <path id="Trazado_3101" data-name="Trazado 3101" d="M28.917,93.149a3.971,3.971,0,0,1-1.352-3.719,13.733,13.733,0,0,1,1.365-3.9,64.362,64.362,0,0,0,4-11.733l.8-2.979L29.67,92.068Z"/>
            </g>
          </g>
        </g>
        <path id="Trazado_3102" data-name="Trazado 3102" d="M49.25,57.463a18.243,18.243,0,0,0-1.531-1.529,17.917,17.917,0,0,0-1.53-1.532,6.2,6.2,0,0,0,1.346,1.715,6.128,6.128,0,0,0,1.715,1.346" fill="#1a2e35"/>
        <path id="Trazado_3103" data-name="Trazado 3103" d="M50.081,59.282c-.015.044.474.19,1.2.55a9.546,9.546,0,0,1,4.361,4.412c.351.73.491,1.22.535,1.207.018,0,0-.13-.057-.356a6.022,6.022,0,0,0-.309-.926,8.588,8.588,0,0,0-4.451-4.5,5.91,5.91,0,0,0-.925-.321.984.984,0,0,0-.353-.062" fill="#1a2e35"/>
        <path id="Trazado_3104" data-name="Trazado 3104" d="M28.022,95.286a.868.868,0,0,0,.129-.206c.088-.165.2-.369.329-.616l1.182-2.313,0-.009,0-.012c.513-2.354,1.241-5.786,2.03-9.6l1.876-9.255c.222-1.159.4-2.11.54-2.81.053-.31.1-.563.133-.767a1.039,1.039,0,0,0,.029-.271,1.151,1.151,0,0,0-.08.26c-.049.2-.109.453-.182.757-.154.7-.364,1.642-.62,2.794l-1.95,9.239c-.79,3.818-1.486,7.257-1.947,9.622l.006-.022c-.46.974-.835,1.765-1.11,2.348-.116.257-.211.467-.288.636a.873.873,0,0,0-.084.229" fill="#1a2e35"/>
        <path id="Trazado_3105" data-name="Trazado 3105" d="M55.315,86.7a4.483,4.483,0,0,0,.12-.778c.06-.549.138-1.267.232-2.131.184-1.8.42-4.289.666-7.04s.453-5.243.59-7.048c.061-.867.111-1.587.15-2.138a4.364,4.364,0,0,0,.018-.787,4.8,4.8,0,0,0-.12.779c-.059.549-.137,1.267-.231,2.131-.185,1.8-.421,4.289-.666,7.04s-.453,5.242-.59,7.046c-.061.867-.111,1.587-.149,2.138a4.412,4.412,0,0,0-.02.788" fill="#1a2e35"/>
        <path id="Trazado_3106" data-name="Trazado 3106" d="M70.631,88.1s3.405-2.583,4.235-2.738c.637-.119,4.437-.057,6.185-.021a1.252,1.252,0,0,1,1.254,1.214.7.7,0,0,1-.012.124,1.14,1.14,0,0,1-.831.863,1.325,1.325,0,0,1,.92,1.246c.015.988-1.18,1.195-1.18,1.195a1.679,1.679,0,0,1,.171.152,1.178,1.178,0,0,1-.578,1.976l-.538.122a1.167,1.167,0,0,1,.718.98c-.02,1.3-2.941,1.548-2.941,1.548S70.817,95.9,70.66,95.853s-.029-7.752-.029-7.752" fill="#ffc09d"/>
        <path id="Trazado_3107" data-name="Trazado 3107" d="M80.379,83.807a2.1,2.1,0,0,1-.86,1.752L75.5,85.4s2.995-1.033,3.421-1.544a3.486,3.486,0,0,1,.574-.562.569.569,0,0,1,.888.512" fill="#ffc09d"/>
        <path id="Trazado_3108" data-name="Trazado 3108" d="M77.389,85.362a5.954,5.954,0,0,0,1.836.13,7.5,7.5,0,0,0,1.833-.13,5.922,5.922,0,0,0-1.837-.13,7.437,7.437,0,0,0-1.832.13" fill="#ff9b6c"/>
        <path id="Trazado_3109" data-name="Trazado 3109" d="M78.292,87.607a5.824,5.824,0,0,0,3.156-.112,7.386,7.386,0,0,0-1.58.014,7.485,7.485,0,0,0-1.576.1" fill="#ff9b6c"/>
        <path id="Trazado_3110" data-name="Trazado 3110" d="M76.246,87.321c-.06.037.018.256.245.4s.458.128.468.059-.15-.16-.326-.277-.326-.225-.387-.184" fill="#ff9b6c"/>
        <path id="Trazado_3111" data-name="Trazado 3111" d="M77.85,90.156a5.933,5.933,0,0,0,1.732.073,5.949,5.949,0,0,0,1.726-.186,5.751,5.751,0,0,0-1.733-.074,5.875,5.875,0,0,0-1.725.187" fill="#ff9b6c"/>
        <path id="Trazado_3112" data-name="Trazado 3112" d="M75.551,89.081c-.032-.009-.1.072-.114.229a.81.81,0,0,0,.174.588.818.818,0,0,0,.53.308c.158.019.251-.023.25-.057,0-.071-.347-.116-.576-.411s-.195-.642-.264-.657" fill="#ff9b6c"/>
        <path id="Trazado_3113" data-name="Trazado 3113" d="M77.243,92.651a9.4,9.4,0,0,0,3.1-.383,9.45,9.45,0,0,0-3.1.383" fill="#ff9b6c"/>
        <path id="Trazado_3114" data-name="Trazado 3114" d="M75,91.383c-.033,0-.083.084-.078.24a.975.975,0,0,0,.215.546c.295.357.625.485.662.438.052-.063-.214-.3-.456-.6s-.276-.614-.343-.627" fill="#ff9b6c"/>
        <path id="Trazado_3115" data-name="Trazado 3115" d="M24.779,116.05a4.6,4.6,0,0,1-3.488-2.2c-.082-.14-.154-.329-.046-.45a.393.393,0,0,1,.3-.091,9.4,9.4,0,0,1,3.305.566.456.456,0,0,1,.3.222.461.461,0,0,1-.014.272q-.211.817-.424,1.634" fill="#ff4f5b"/>
        <g id="Grupo_542" data-name="Grupo 542" opacity="0.4">
          <g id="Grupo_541" data-name="Grupo 541">
            <g id="Grupo_540" data-name="Grupo 540" clip-path="url(#clip-path-8)">
              <path id="Trazado_3116" data-name="Trazado 3116" d="M24.779,116.05a4.6,4.6,0,0,1-3.488-2.2c-.082-.14-.154-.329-.046-.45a.393.393,0,0,1,.3-.091,9.4,9.4,0,0,1,3.305.566.456.456,0,0,1,.3.222.461.461,0,0,1-.014.272q-.211.817-.424,1.634"/>
            </g>
          </g>
        </g>
        <path id="Trazado_3117" data-name="Trazado 3117" d="M58.743,59.143s1.656,5.56,1.2,5.243S58.5,63.193,58.5,63.193Z" fill="#ececec"/>
        <path id="Trazado_3118" data-name="Trazado 3118" d="M58.648,61.707l.905,2.164a2.912,2.912,0,0,1,.175.7c.075.607.162,1.718-.2,1.795a1.215,1.215,0,0,1-.968-.4Z" fill="#1a2e35"/>
        <path id="Trazado_3119" data-name="Trazado 3119" d="M30.563,62.048s8.858-3.456,13.764-.4,5.8,7.922,8.719,7.922c5.7,0,5.515-4.02,5.515-4.02l1.21.366c.024.822,1.321,6.728-4.683,7.46s-8.526-7.452-13.926-7.46a17.918,17.918,0,0,0-9.5,2.921l-3.88-2.454Z" fill="#1a2e35"/>
        <path id="Trazado_3120" data-name="Trazado 3120" d="M53.293,73.275a8.321,8.321,0,0,1-3.417-3.921c-1.376-3.175-4.33-6.8-6.8-7.71S34.9,60.1,30.963,62.667l-2.524,3.41L31.716,68.2a30.492,30.492,0,0,1,5.776-2.313c4.073-1.137,6.55.148,8.918,2.389q.222.21.4.411a26.805,26.805,0,0,0,3.75,3.319,5.906,5.906,0,0,0,2.732,1.266" fill="#375a64"/>
        <path id="Trazado_3121" data-name="Trazado 3121" d="M236.716,25.045c5.254.81,9.106-3.6,10.334-7.533,1.134-3.627,1.673-7.4,3.266-10.852,2.226-4.821,8.124-7.05,13.416-6.6s10.625,3.1,15.307,5.6l-1.292,29.026s-10.2-10.858-15.1-11.056c-8.176-.33-7.731,13.107-15.669,15.092,0,0-11.129,3.016-18.653-6.7a27.35,27.35,0,0,1-5.2-13.662s3.657,5.157,13.584,6.686" fill="#ff4f5b"/>
        <path id="Trazado_3122" data-name="Trazado 3122" d="M279.253.844c-.071,0-1.5,30.819-3.193,68.834s-3.005,68.851-2.934,68.853,1.5-30.813,3.193-68.84S279.325.848,279.253.844" fill="#1a2e35"/>
        <g id="Grupo_545" data-name="Grupo 545" opacity="0.2">
          <g id="Grupo_544" data-name="Grupo 544">
            <g id="Grupo_543" data-name="Grupo 543" clip-path="url(#clip-path-9)">
              <path id="Trazado_3123" data-name="Trazado 3123" d="M251.19,15.5a35.343,35.343,0,0,1-3.863,8.712,10.717,10.717,0,0,1-6.562,4.938,6.331,6.331,0,0,0-1.471.383,1.42,1.42,0,0,0-.877,1.155c-.022.76.763,1.257,1.446,1.593a11.9,11.9,0,0,0,3.02,1.161c1.064.2,1.9.31,2.627-.489a15.258,15.258,0,0,0,1.9-2.276c2.4-4.087,3.585-9.933,3.779-14.557"/>
            </g>
          </g>
        </g>
        <path id="Trazado_3124" data-name="Trazado 3124" d="M244.085,34.142a1.03,1.03,0,0,0,.236-.135,7.219,7.219,0,0,0,.627-.461,10.735,10.735,0,0,0,1.939-2.105,16.15,16.15,0,0,0,1.939-3.774,41.543,41.543,0,0,0,1.438-4.987,55.744,55.744,0,0,0,1.339-9.32c.066-1.2.078-2.18.077-2.854-.007-.312-.013-.569-.018-.775a1.067,1.067,0,0,0-.024-.271,1.1,1.1,0,0,0-.028.271c-.008.206-.019.462-.032.773-.03.673-.069,1.645-.159,2.844a62.252,62.252,0,0,1-1.409,9.273,44.106,44.106,0,0,1-1.408,4.963,16.634,16.634,0,0,1-1.867,3.752,11.694,11.694,0,0,1-1.852,2.133c-.5.444-.812.654-.8.673" fill="#1a2e35"/>
        <path id="Trazado_3125" data-name="Trazado 3125" d="M310.935,144.659l-69.418,11.364V144.659Z" fill="#e1e1e1"/>
        <path id="Trazado_3126" data-name="Trazado 3126" d="M230.058,170.331,160.64,181.695V170.331Z" fill="#e1e1e1"/>
        <path id="Trazado_3127" data-name="Trazado 3127" d="M149.738,194.888,80.32,206.252V194.888Z" fill="#e1e1e1"/>
        <path id="Trazado_3128" data-name="Trazado 3128" d="M69.524,214.43.106,225.794V214.43Z" fill="#e1e1e1"/>
        <rect id="Rectángulo_386" data-name="Rectángulo 386" width="69.418" height="8.512" transform="translate(241.517 136.147)" fill="#ff4f5b"/>
        <g id="Grupo_548" data-name="Grupo 548" opacity="0.3">
          <g id="Grupo_547" data-name="Grupo 547">
            <g id="Grupo_546" data-name="Grupo 546" clip-path="url(#clip-path-10)">
              <rect id="Rectángulo_387" data-name="Rectángulo 387" width="21.662" height="8.512" transform="translate(241.517 136.147)"/>
            </g>
          </g>
        </g>
        <rect id="Rectángulo_389" data-name="Rectángulo 389" width="69.418" height="8.512" transform="translate(160.64 161.819)" fill="#ff4f5b"/>
        <g id="Grupo_551" data-name="Grupo 551" opacity="0.3">
          <g id="Grupo_550" data-name="Grupo 550">
            <g id="Grupo_549" data-name="Grupo 549" clip-path="url(#clip-path-11)">
              <rect id="Rectángulo_390" data-name="Rectángulo 390" width="21.662" height="8.512" transform="translate(160.64 161.819)"/>
            </g>
          </g>
        </g>
        <rect id="Rectángulo_392" data-name="Rectángulo 392" width="69.418" height="8.512" transform="translate(80.32 186.376)" fill="#ff4f5b"/>
        <g id="Grupo_554" data-name="Grupo 554" opacity="0.3">
          <g id="Grupo_553" data-name="Grupo 553">
            <g id="Grupo_552" data-name="Grupo 552" clip-path="url(#clip-path-12)">
              <rect id="Rectángulo_393" data-name="Rectángulo 393" width="21.662" height="8.512" transform="translate(80.32 186.376)"/>
            </g>
          </g>
        </g>
        <rect id="Rectángulo_395" data-name="Rectángulo 395" width="69.417" height="8.512" transform="translate(0 205.918)" fill="#ff4f5b"/>
        <g id="Grupo_557" data-name="Grupo 557" opacity="0.3">
          <g id="Grupo_556" data-name="Grupo 556">
            <g id="Grupo_555" data-name="Grupo 555" clip-path="url(#clip-path-13)">
              <rect id="Rectángulo_396" data-name="Rectángulo 396" width="21.661" height="8.512" transform="translate(0 205.918)"/>
            </g>
          </g>
        </g>
        <path id="Trazado_3129" data-name="Trazado 3129" d="M42.781,174.937a1.888,1.888,0,1,1-1.888-1.888,1.888,1.888,0,0,1,1.888,1.888" fill="#ececec"/>
      </g>
    </g>
  </g>
</svg>
