<svg id="Grupo_712" data-name="Grupo 712" xmlns="http://www.w3.org/2000/svg" xmlns:xlink="http://www.w3.org/1999/xlink" width="212.332" height="239.752" viewBox="0 0 212.332 239.752">
  <defs>
    <clipPath id="clip-path">
      <rect id="Rectángulo_506" data-name="Rectángulo 506" width="212.332" height="239.752" fill="none"/>
    </clipPath>
    <clipPath id="clip-path-3">
      <rect id="Rectángulo_491" data-name="Rectángulo 491" width="58.24" height="42.217" transform="translate(31.337 32.806)" fill="none"/>
    </clipPath>
    <clipPath id="clip-path-4">
      <rect id="Rectángulo_492" data-name="Rectángulo 492" width="58.562" height="43.785" transform="translate(120.263 31.99)" fill="none"/>
    </clipPath>
    <clipPath id="clip-path-5">
      <rect id="Rectángulo_493" data-name="Rectángulo 493" width="8.22" height="11.505" transform="translate(137.423 41.169)" fill="none"/>
    </clipPath>
    <clipPath id="clip-path-6">
      <rect id="Rectángulo_494" data-name="Rectángulo 494" width="21.57" height="11.702" transform="translate(105.738 95.877)" fill="none"/>
    </clipPath>
    <clipPath id="clip-path-7">
      <rect id="Rectángulo_495" data-name="Rectángulo 495" width="11.97" height="10.314" transform="translate(82.039 208.741)" fill="none"/>
    </clipPath>
    <clipPath id="clip-path-8">
      <rect id="Rectángulo_496" data-name="Rectángulo 496" width="1.572" height="1.583" transform="translate(91.328 204.013)" fill="none"/>
    </clipPath>
    <clipPath id="clip-path-9">
      <rect id="Rectángulo_497" data-name="Rectángulo 497" width="17.016" height="8.532" transform="translate(98.432 91.494)" fill="none"/>
    </clipPath>
    <clipPath id="clip-path-10">
      <rect id="Rectángulo_498" data-name="Rectángulo 498" width="13.697" height="16.33" transform="translate(97.628 76.809)" fill="none"/>
    </clipPath>
    <clipPath id="clip-path-11">
      <rect id="Rectángulo_499" data-name="Rectángulo 499" width="3.798" height="23.58" transform="translate(81.578 66.582)" fill="none"/>
    </clipPath>
    <clipPath id="clip-path-12">
      <rect id="Rectángulo_500" data-name="Rectángulo 500" width="19.357" height="13.04" transform="translate(92.702 49.679)" fill="none"/>
    </clipPath>
    <clipPath id="clip-path-13">
      <rect id="Rectángulo_501" data-name="Rectángulo 501" width="4.269" height="11.31" transform="translate(119.836 61.78)" fill="none"/>
    </clipPath>
    <clipPath id="clip-path-14">
      <rect id="Rectángulo_502" data-name="Rectángulo 502" width="62.298" height="42.831" transform="translate(76.173 92.969)" fill="none"/>
    </clipPath>
    <clipPath id="clip-path-15">
      <rect id="Rectángulo_503" data-name="Rectángulo 503" width="42.731" height="62.008" transform="translate(18.098 63.889)" fill="none"/>
    </clipPath>
    <clipPath id="clip-path-16">
      <rect id="Rectángulo_504" data-name="Rectángulo 504" width="38.901" height="57.613" transform="translate(150.959 70.885)" fill="none"/>
    </clipPath>
  </defs>
  <g id="Grupo_711" data-name="Grupo 711" clip-path="url(#clip-path)">
    <g id="Grupo_710" data-name="Grupo 710">
      <g id="Grupo_709" data-name="Grupo 709" clip-path="url(#clip-path)">
        <path id="Trazado_4086" data-name="Trazado 4086" d="M45.867,175.735a9.749,9.749,0,0,0-3.932-2,21.1,21.1,0,0,1-9.669-32.357l-.21-1.086c-.476-5.046-6.572-8.664-11.23-6.667s-6.238,8.907-2.911,12.731c-5.468.452-9.08,6.683-8.311,12.114s4.746,9.89,9.171,13.132a43.4,43.4,0,0,0,25.207,8.326,3.471,3.471,0,0,0,1.789-.322c1.284-.746,1.117-2.793.1-3.871" fill="#e1e1e1"/>
        <path id="Trazado_4087" data-name="Trazado 4087" d="M198.171,153.642a6.594,6.594,0,0,0,.158-6.815,5.156,5.156,0,0,0-6.249-2.051,4.575,4.575,0,0,0-7.765-4.839c-1.457,2.249-.687,5.265.564,7.634s2.964,4.592,3.376,7.239a10.563,10.563,0,0,1-2.233,7.678,31.343,31.343,0,0,1-5.911,5.658l-.407.392a14.684,14.684,0,0,0,11.757-1.011c2.009-1.111,3.868-2.949,4-5.24.073-1.28-.4-2.562-.21-3.829.287-1.876,1.925-3.2,2.92-4.816" fill="#e1e1e1"/>
        <path id="Trazado_4088" data-name="Trazado 4088" d="M88.02,237.379a7.4,7.4,0,0,1-5.163-2.749c-.75-1.043-1.11-2.313-1.764-3.42a3.481,3.481,0,0,0-3.059-1.982c-1.981.193-3.315,2.929-5.245,2.448-1.16-.29-1.711-1.653-1.72-2.848a30.665,30.665,0,0,0,.192-3.574c-.417-3.333-4.7-4.972-7.892-3.93s-8.044,4.895-10.126,7.532c2.188,3.639,6.682,5.054,10.8,6.087q10.374,2.6,20.925,4.412a15.452,15.452,0,0,0,4.984.292,5.42,5.42,0,0,0,4.056-2.624,22.018,22.018,0,0,1-5.989.356" fill="#e1e1e1"/>
        <path id="Trazado_4089" data-name="Trazado 4089" d="M167.32,211.693c-.508-2.848-3.348-5.355-6.165-4.7,2.337-1.926,2.35-5.8.5-8.2s-5.056-3.435-8.082-3.344a25.887,25.887,0,0,0-8.742,2.281c1.378-1.755-.638-4.487-2.865-4.634s-4.213,1.27-6.019,2.58-3.89,2.644-6.094,2.3l2.072.826c4.942.749,9.924,1.9,14.2,4.487s7.8,6.79,8.542,11.732-1.863,10.477-6.552,12.205a19.889,19.889,0,0,0,16.642-7.512c1.775-2.284,3.064-5.177,2.556-8.025" fill="#e1e1e1"/>
        <path id="Trazado_4090" data-name="Trazado 4090" d="M4.932,137.836a42.874,42.874,0,0,1-.134-4.771,42.863,42.863,0,0,1,.134-4.77,42.863,42.863,0,0,1,.134,4.77,42.874,42.874,0,0,1-.134,4.771" fill="#e1e1e1"/>
        <path id="Trazado_4091" data-name="Trazado 4091" d="M9.864,133.066a45.973,45.973,0,0,1-4.932.133A45.946,45.946,0,0,1,0,133.066a45.477,45.477,0,0,1,4.931-.134,45.5,45.5,0,0,1,4.932.134" fill="#e1e1e1"/>
        <path id="Trazado_4092" data-name="Trazado 4092" d="M195.208,186.873a42.892,42.892,0,0,1-.134-4.771,42.877,42.877,0,0,1,.134-4.771,42.87,42.87,0,0,1,.134,4.771,42.885,42.885,0,0,1-.134,4.771" fill="#e1e1e1"/>
        <path id="Trazado_4093" data-name="Trazado 4093" d="M200.14,182.1a45.98,45.98,0,0,1-4.932.133,45.953,45.953,0,0,1-4.931-.133,45.475,45.475,0,0,1,4.931-.134,45.5,45.5,0,0,1,4.932.134" fill="#e1e1e1"/>
        <path id="Trazado_4094" data-name="Trazado 4094" d="M166.264,23.15a43.029,43.029,0,0,1-.133-4.771,43.018,43.018,0,0,1,.133-4.77,42.579,42.579,0,0,1,.134,4.77,42.59,42.59,0,0,1-.134,4.771" fill="#e1e1e1"/>
        <path id="Trazado_4095" data-name="Trazado 4095" d="M171.2,18.379a45.514,45.514,0,0,1-4.932.134,45.5,45.5,0,0,1-4.932-.134,45.979,45.979,0,0,1,4.932-.133,46,46,0,0,1,4.932.133" fill="#e1e1e1"/>
        <path id="Trazado_4096" data-name="Trazado 4096" d="M13.334,93.016A2.915,2.915,0,1,1,10.419,90.1a2.916,2.916,0,0,1,2.915,2.916" fill="#e1e1e1"/>
        <path id="Trazado_4097" data-name="Trazado 4097" d="M126.745,217.172a2.915,2.915,0,1,1-2.915-2.915,2.915,2.915,0,0,1,2.915,2.915" fill="#e1e1e1"/>
        <path id="Trazado_4098" data-name="Trazado 4098" d="M153.874,162.077a2.915,2.915,0,1,1-2.915-2.914,2.916,2.916,0,0,1,2.915,2.914" fill="#e1e1e1"/>
        <path id="Trazado_4099" data-name="Trazado 4099" d="M67.256,16.907a2.915,2.915,0,1,1-2.915-2.915,2.916,2.916,0,0,1,2.915,2.915" fill="#e1e1e1"/>
        <path id="Trazado_4100" data-name="Trazado 4100" d="M81.069,189.373a1.458,1.458,0,1,1-1.458-1.457,1.457,1.457,0,0,1,1.458,1.457" fill="#e1e1e1"/>
        <path id="Trazado_4101" data-name="Trazado 4101" d="M45.9,182.1a1.458,1.458,0,1,1-1.457-1.458A1.457,1.457,0,0,1,45.9,182.1" fill="#e1e1e1"/>
        <path id="Trazado_4102" data-name="Trazado 4102" d="M81.83,19.823a1.458,1.458,0,1,1-1.458-1.458,1.457,1.457,0,0,1,1.458,1.458" fill="#e1e1e1"/>
        <path id="Trazado_4103" data-name="Trazado 4103" d="M146.042,98.695a1.458,1.458,0,1,1-1.457-1.457,1.457,1.457,0,0,1,1.457,1.457" fill="#e1e1e1"/>
        <path id="Trazado_4104" data-name="Trazado 4104" d="M6.054,15.495s-3.246,1.677,1.3,8.477a94.761,94.761,0,0,0,7.529,10.079s.854,1.6-.529,2.031-4.556.3-4.982,2.1c-.441,1.872,1.063,3.411,3.882,4.583s8.9,3.968,9.449,4.223,1.136.972.241,1.415-7.814,2-6.877,5.24S25.4,58.863,26.309,59.1s1.166.579,1.151,1.066-2.389.793-4.339,1.317S19,62.954,19.7,64.777s5.929,5.207,17.632,4.973l5.416-.464,2.4-4.905c4.49-10.811,3.248-16.916,1.805-18.231s-3.118.358-4.317,1.982-2.35,3.723-2.809,3.557-.69-.524-.574-1.46,1.338-9.467-1.335-11.521-6.65,3.818-7.389,4.49-1.194-.147-1.23-.739-.42-7.287-.483-10.339-.947-5.015-2.851-5.287c-1.836-.263-2.874,2.738-3.777,3.869s-2.084-.248-2.084-.248a94.56,94.56,0,0,0-6.637-10.688c-4.671-6.717-7.473-4.232-7.473-4.232" fill="#ececec"/>
        <path id="Trazado_4105" data-name="Trazado 4105" d="M43.178,70.522c-3.411-4.946-9.326-13.838-14.443-21.446S18.98,34.588,15.594,29.626l-4.016-5.873-1.09-1.6c-.121-.18-.213-.319-.281-.418s-.09-.147-.09-.147.038.045.105.136l.294.409,1.116,1.579c.969,1.373,2.357,3.37,4.061,5.843C19.1,34.5,23.758,41.376,28.874,48.982s11.017,16.51,14.4,21.473" fill="#e1e1e1"/>
        <path id="Trazado_4106" data-name="Trazado 4106" d="M13.807,38.544a1.8,1.8,0,0,1,.389.061c.248.048.6.128,1.044.233.879.209,2.085.529,3.409.906l3.387.978,1.028.29a1.774,1.774,0,0,1,.374.121,1.672,1.672,0,0,1-.389-.057c-.248-.05-.6-.13-1.044-.238-.877-.219-2.078-.554-3.4-.932l-3.394-.953-1.029-.284a1.655,1.655,0,0,1-.373-.125" fill="#e1e1e1"/>
        <path id="Trazado_4107" data-name="Trazado 4107" d="M23.766,40.745c-.045-.01.5-2.526,1.229-5.618s1.348-5.591,1.393-5.58-.505,2.525-1.228,5.619-1.349,5.59-1.394,5.579" fill="#e1e1e1"/>
        <path id="Trazado_4108" data-name="Trazado 4108" d="M31.1,52.781a1.827,1.827,0,0,1,.18-.358c.143-.255.323-.574.536-.951.451-.8,1.069-1.914,1.706-3.165s1.181-2.4,1.564-3.238c.182-.393.334-.726.457-.991a1.9,1.9,0,0,1,.185-.357,1.8,1.8,0,0,1-.124.382c-.091.242-.229.589-.408,1.014-.357.851-.881,2.014-1.524,3.267s-1.275,2.36-1.754,3.148c-.24.394-.439.71-.582.924a1.758,1.758,0,0,1-.236.325" fill="#e1e1e1"/>
        <path id="Trazado_4109" data-name="Trazado 4109" d="M21.651,52.774a1.6,1.6,0,0,1,.369-.038l1.008-.039c.852-.026,2.027-.049,3.326-.065s2.476-.019,3.327-.014l1.009.014a1.525,1.525,0,0,1,.37.029,1.645,1.645,0,0,1-.37.037l-1.008.039c-.85.025-2.026.049-3.326.064s-2.475.021-3.326.016L22.021,52.8a1.618,1.618,0,0,1-.37-.028" fill="#e1e1e1"/>
        <path id="Trazado_4110" data-name="Trazado 4110" d="M26.773,64.221a2.567,2.567,0,0,1,.474-.043l1.291-.055c1.09-.039,2.6-.081,4.261-.117s3.173-.058,4.264-.066h1.293a2.632,2.632,0,0,1,.475.022,2.475,2.475,0,0,1-.474.043l-1.291.055c-1.091.039-2.6.081-4.263.116s-3.172.06-4.262.067H27.248a2.508,2.508,0,0,1-.475-.022" fill="#e1e1e1"/>
        <path id="Trazado_4111" data-name="Trazado 4111" d="M38.54,63.886a2.826,2.826,0,0,1,.216-.461l.636-1.228c.536-1.039,1.27-2.476,2.036-4.085s1.424-3.082,1.893-4.153c.226-.514.412-.94.556-1.267a2.976,2.976,0,0,1,.222-.458,2.981,2.981,0,0,1-.162.482c-.113.307-.285.748-.506,1.289-.441,1.084-1.081,2.569-1.851,4.18s-1.519,3.043-2.083,4.067c-.283.512-.517.924-.684,1.205a2.99,2.99,0,0,1-.273.429" fill="#e1e1e1"/>
        <path id="Trazado_4112" data-name="Trazado 4112" d="M181.934,113.062c-5.774-5.036-6.318-13.286-5.287-20.539a7.962,7.962,0,0,1,.869-3.51,2.488,2.488,0,0,1,3.153-.958c.857.523,1.137,1.614,1.548,2.536a7.16,7.16,0,0,0,2.557,3.03,2.723,2.723,0,0,0,2.471.495c1.11-.466,1.389-1.9,1.512-3.11q.343-3.382.686-6.761a11.335,11.335,0,0,1,.752-3.551,3.767,3.767,0,0,1,2.629-2.28,2.286,2.286,0,0,1,2.65,1.827,11.171,11.171,0,0,1-.128,1.509,1.28,1.28,0,0,0,.614,1.276,1.472,1.472,0,0,0,1.387-.411A16.159,16.159,0,0,0,200.7,78.57a22.49,22.49,0,0,1,3.174-4.2,6.578,6.578,0,0,1,4.7-2.007,3.936,3.936,0,0,1,3.724,3.1c.255,1.751-.926,3.373-2.156,4.636a27.122,27.122,0,0,1-6.193,4.748,2.236,2.236,0,0,0-1.048.909c-.35.778.327,1.661,1.1,2.01a14.017,14.017,0,0,0,2.786.622,2.737,2.737,0,0,1,2.167,1.667c.361,1.288-.812,2.472-1.919,3.21a23.2,23.2,0,0,1-7.265,3.211,7.836,7.836,0,0,0-2.675.962,2.248,2.248,0,0,0-.992,2.484,2.291,2.291,0,0,0,2.374,1.219,16.218,16.218,0,0,0,2.761-.727c1.728-.448,3.86-.1,4.769,1.448a3.845,3.845,0,0,1,.043,3.426,8.869,8.869,0,0,1-2.154,2.789,23.372,23.372,0,0,1-10.674,5.9c-4,.921-7.6.9-11.282-.915" fill="#f5f5f5"/>
        <path id="Trazado_4113" data-name="Trazado 4113" d="M184.3,108.7a108.874,108.874,0,0,1,5.556-11.195l1.606-2.86c.529-.937,1.055-1.867,1.624-2.744a54.479,54.479,0,0,1,3.564-4.855c1.208-1.49,2.408-2.859,3.54-4.131s2.215-2.435,3.246-3.453a43.044,43.044,0,0,1,5.213-4.443c.654-.474,1.173-.825,1.529-1.058l.4-.264a.914.914,0,0,1,.143-.083.914.914,0,0,1-.13.1l-.394.282c-.346.246-.857.608-1.5,1.093a45.453,45.453,0,0,0-5.153,4.484c-1.019,1.023-2.091,2.191-3.218,3.465s-2.319,2.648-3.519,4.138a55.175,55.175,0,0,0-3.539,4.842c-.565.874-1.084,1.8-1.615,2.737s-1.063,1.893-1.6,2.858a111.669,111.669,0,0,0-5.561,11.166" fill="#e1e1e1"/>
        <path id="Trazado_4114" data-name="Trazado 4114" d="M193.156,91.9a2.363,2.363,0,0,1-.062-.528c-.029-.341-.052-.835-.072-1.447-.041-1.221-.041-2.911-.033-4.772s-.015-3.548-.074-4.766c-.029-.608-.057-1.1-.08-1.441a2.356,2.356,0,0,1-.011-.532,2.4,2.4,0,0,1,.1.523c.049.338.1.83.15,1.44.1,1.219.148,2.911.141,4.775-.013,1.838-.024,3.5-.033,4.77,0,.575,0,1.058,0,1.446a2.492,2.492,0,0,1-.024.532" fill="#e1e1e1"/>
        <path id="Trazado_4115" data-name="Trazado 4115" d="M209.005,90.67a3.217,3.217,0,0,1-.627.007c-.4-.007-.985-.021-1.705-.015-1.439,0-3.429.07-5.619.243s-4.167.422-5.591.64c-.713.1-1.288.2-1.686.271a3.359,3.359,0,0,1-.622.083,3.294,3.294,0,0,1,.606-.169c.393-.094.965-.218,1.677-.343,1.421-.259,3.4-.53,5.6-.707a54.969,54.969,0,0,1,5.638-.178c.722.015,1.306.053,1.708.088a3.3,3.3,0,0,1,.622.08" fill="#e1e1e1"/>
        <path id="Trazado_4116" data-name="Trazado 4116" d="M184.527,108.436a.773.773,0,0,1-.087-.2c-.055-.16-.123-.355-.205-.591-.176-.514-.41-1.264-.688-2.194-.558-1.861-1.249-4.455-1.97-7.328s-1.388-5.473-1.9-7.342l-.621-2.213-.166-.6a.84.84,0,0,1-.043-.214.735.735,0,0,1,.086.2c.056.16.123.354.205.59.176.514.412,1.264.69,2.195.558,1.86,1.247,4.455,1.97,7.329s1.387,5.471,1.9,7.341c.255.909.465,1.657.62,2.213.066.241.121.44.165.6a.831.831,0,0,1,.044.215" fill="#e1e1e1"/>
        <path id="Trazado_4117" data-name="Trazado 4117" d="M205.89,104.006a.789.789,0,0,1-.214.062c-.167.038-.372.083-.621.137l-2.288.479c-1.933.4-4.594.993-7.535,1.647s-5.612,1.22-7.552,1.584c-.971.183-1.758.322-2.3.408l-.629.1a.876.876,0,0,1-.221.018.78.78,0,0,1,.214-.064l.621-.136,2.288-.477c1.931-.4,4.594-.993,7.535-1.649s5.61-1.219,7.552-1.583c.97-.183,1.757-.323,2.3-.409l.629-.094a.827.827,0,0,1,.222-.018" fill="#e1e1e1"/>
        <path id="Trazado_4118" data-name="Trazado 4118" d="M137.437,26.521c.931-5.336,3.473-13.135,6.521-17.612S151.7.873,157.067.129s11.283,1.773,13.7,6.62c1.3,2.6,1.534,5.587,2.479,8.333s3.015,5.489,5.91,5.71c2.562.2,5.032-1.651,7.554-1.16,3.285.64,4.553,4.688,4.572,8.034s-.458,7.06,1.6,9.7c1.683,2.16,4.565,2.9,6.888,4.353,5.025,3.133,7.175,9.606,6.665,15.5s-3.225,11.361-6.111,16.532a129.226,129.226,0,0,0-9.758-24.528c-2.33-4.464-6.583-8.264-10.349-11.606-5.781-5.134-18.472-7.584-26.146-8.528s-9.03-1.15-16.63-2.572" fill="#e1e1e1"/>
        <path id="Trazado_4119" data-name="Trazado 4119" d="M86.261,32.806C67.27,34.185,46.538,36.7,31.336,42.535l4.8,32.488S65.6,64.478,89.576,65.21Z" fill="#ff4f5b"/>
        <g id="Grupo_669" data-name="Grupo 669" opacity="0.8">
          <g id="Grupo_668" data-name="Grupo 668">
            <g id="Grupo_667" data-name="Grupo 667" clip-path="url(#clip-path-3)">
              <path id="Trazado_4120" data-name="Trazado 4120" d="M86.261,32.806C67.27,34.185,46.538,36.7,31.336,42.535l4.8,32.488S65.6,64.478,89.576,65.21Z" fill="#fff"/>
            </g>
          </g>
        </g>
        <path id="Trazado_4121" data-name="Trazado 4121" d="M84.891,60.924a.867.867,0,0,1-.183.035l-.538.073-2.073.26c-.9.107-2,.238-3.276.426s-2.731.364-4.33.631c-6.407.99-15.225,2.625-24.8,5.1-3.33.86-6.539,1.746-9.477,2.667l-.145.046-.021-.15c-1.026-7.449-2.02-13.872-2.782-18.427-.39-2.264-.7-4.072-.917-5.331-.107-.609-.19-1.086-.25-1.425-.024-.152-.044-.274-.059-.369a.549.549,0,0,1-.013-.127.591.591,0,0,1,.035.123c.021.094.048.214.081.364.069.338.167.811.291,1.417.247,1.239.589,3.046.991,5.321.807,4.549,1.834,10.968,2.877,18.419l-.167-.1c2.946-.93,6.155-1.82,9.49-2.68a241.842,241.842,0,0,1,24.842-5.032c1.6-.255,3.062-.424,4.339-.592s2.382-.291,3.284-.381,1.588-.161,2.079-.209l.541-.048a1,1,0,0,1,.186-.008" fill="#ff4f5b"/>
        <path id="Trazado_4122" data-name="Trazado 4122" d="M85.535,53.028c-.013,0-.071-.227-.218-.647A6.926,6.926,0,0,0,84.34,50.7a8.554,8.554,0,0,0-2.306-2.02,9.162,9.162,0,0,0-.82-.436,7.432,7.432,0,0,0-.929-.335,5.107,5.107,0,0,0-2.112-.206,4.456,4.456,0,0,0-2.152.846,7.234,7.234,0,0,0-1.72,1.871,28.568,28.568,0,0,0-2.414,5.152A6.445,6.445,0,0,1,70.1,58.135a3.37,3.37,0,0,1-1.482.71,2.954,2.954,0,0,1-1.668-.192c-2.164-.857-3.126-3.349-5.311-4.106a4.279,4.279,0,0,0-3.244.265,4.1,4.1,0,0,0-1.284.991,6.538,6.538,0,0,0-.856,1.376,9,9,0,0,1-1.681,2.787,2.489,2.489,0,0,1-1.474.666,2.891,2.891,0,0,1-1.541-.332,5.528,5.528,0,0,1-2.121-2.085,17.851,17.851,0,0,1-1.122-2.557,12.248,12.248,0,0,0-1.111-2.312,4.63,4.63,0,0,0-1.7-1.576,4.392,4.392,0,0,0-3.894-.113,6.609,6.609,0,0,0-2.472,1.782,4.814,4.814,0,0,0-.927,1.694c-.13.426-.15.665-.168.662a2.992,2.992,0,0,1,.117-.676,4.637,4.637,0,0,1,.9-1.746,6.612,6.612,0,0,1,2.493-1.854,4.555,4.555,0,0,1,4.041.084,4.818,4.818,0,0,1,1.782,1.628,12.276,12.276,0,0,1,1.145,2.346,18.094,18.094,0,0,0,1.118,2.517,5.313,5.313,0,0,0,2.031,1.987,2.645,2.645,0,0,0,1.408.3,2.241,2.241,0,0,0,1.325-.6,8.809,8.809,0,0,0,1.616-2.714,6.754,6.754,0,0,1,.893-1.432,4.33,4.33,0,0,1,1.364-1.057,4.535,4.535,0,0,1,3.447-.281,7.058,7.058,0,0,1,2.771,2.088,7.692,7.692,0,0,0,2.553,2.029,2.7,2.7,0,0,0,1.524.18,3.11,3.11,0,0,0,1.37-.655,6.208,6.208,0,0,0,1.721-2.461A28.5,28.5,0,0,1,74.117,50.3,7.422,7.422,0,0,1,75.9,48.384a4.641,4.641,0,0,1,2.251-.867,5.27,5.27,0,0,1,2.181.231,7.792,7.792,0,0,1,.947.353,9.431,9.431,0,0,1,.831.454,8.534,8.534,0,0,1,2.311,2.083,6.549,6.549,0,0,1,.945,1.725,4.8,4.8,0,0,1,.135.494.815.815,0,0,1,.033.171" fill="#ff4f5b"/>
        <path id="Trazado_4123" data-name="Trazado 4123" d="M35.211,48.762c.014.072-.233.181-.552.241s-.589.051-.6-.021.233-.18.552-.241.588-.051.6.021" fill="#ff4f5b"/>
        <path id="Trazado_4124" data-name="Trazado 4124" d="M36.051,54.7c.031.067-.155.22-.416.341s-.5.166-.528.1.154-.218.416-.34.5-.165.528-.1" fill="#ff4f5b"/>
        <path id="Trazado_4125" data-name="Trazado 4125" d="M37.1,61.179c.024.069-.167.2-.428.291s-.492.108-.516.038.168-.2.428-.29.492-.108.516-.039" fill="#ff4f5b"/>
        <path id="Trazado_4126" data-name="Trazado 4126" d="M38.359,67.552c.022.07-.194.2-.484.292s-.542.108-.565.038.195-.2.485-.293.543-.107.564-.037" fill="#ff4f5b"/>
        <path id="Trazado_4127" data-name="Trazado 4127" d="M74.172,36.934a2.57,2.57,0,0,1,.619-.141c.408-.07,1.007-.159,1.768-.266,1.521-.214,3.691-.495,6.279-.815l.121-.014.011.122c.2,2.18.433,4.692.681,7.354l.009.111.012.128-.128.016-8.49,1.04-.114.014-.012-.112c-.238-2.227-.437-4.085-.58-5.424-.06-.622-.109-1.122-.145-1.5a3.307,3.307,0,0,1-.031-.516,4.717,4.717,0,0,1,.092.546l.207,1.511c.168,1.321.4,3.156.68,5.353l-.125-.1,8.485-1.082-.116.145-.011-.11c-.235-2.664-.457-5.177-.649-7.359l.131.108c-4.879.552-7.734.877-8.694.986" fill="#ff4f5b"/>
        <path id="Trazado_4128" data-name="Trazado 4128" d="M82.058,38.226c0,.079-1.462.079-3.244.271s-3.211.49-3.23.413a11.465,11.465,0,0,1,3.2-.678,11.537,11.537,0,0,1,3.272-.006" fill="#ff4f5b"/>
        <path id="Trazado_4129" data-name="Trazado 4129" d="M82.149,40.13c0,.077-1.36.129-3.028.293s-3.013.367-3.028.292a11.782,11.782,0,0,1,3-.558,11.763,11.763,0,0,1,3.054-.027" fill="#ff4f5b"/>
        <path id="Trazado_4130" data-name="Trazado 4130" d="M80.116,41.792a5.938,5.938,0,0,1-1.728.354,5.862,5.862,0,0,1-1.761.088,5.919,5.919,0,0,1,1.728-.353,5.963,5.963,0,0,1,1.761-.089" fill="#ff4f5b"/>
        <path id="Trazado_4131" data-name="Trazado 4131" d="M178.825,42.364c-18.594-5.666-34.28-10.5-55.343-10.371l-3.219,33.1c21.876,1.937,29.188,3.369,49.39,10.68Z" fill="#ff4f5b"/>
        <g id="Grupo_672" data-name="Grupo 672" opacity="0.8">
          <g id="Grupo_671" data-name="Grupo 671">
            <g id="Grupo_670" data-name="Grupo 670" clip-path="url(#clip-path-4)">
              <path id="Trazado_4132" data-name="Trazado 4132" d="M178.825,42.364c-18.594-5.666-34.28-10.5-55.343-10.371l-3.219,33.1c21.876,1.937,29.188,3.369,49.39,10.68Z" fill="#fff"/>
            </g>
          </g>
        </g>
        <path id="Trazado_4133" data-name="Trazado 4133" d="M136.731,48.056l.82-7.023a8.234,8.234,0,0,0-5.734,1.586,8.637,8.637,0,0,0-3.524,6.945c-.006.338,0,.683.03,1.038v.025h0l8.2-.922Z" fill="#ff4f5b"/>
        <path id="Trazado_4134" data-name="Trazado 4134" d="M145.21,46.907a7.948,7.948,0,0,0-5.844-5.57l-.25-.055-.159-.032c-.156-.029-.316-.053-.478-.074l-.022,0h0l-.019,0h0l-.821,7.023-.192,1.651,7.744,2.826.01,0a8.919,8.919,0,0,0,.4-1.8,9.639,9.639,0,0,0-.367-3.97" fill="#ff4f5b"/>
        <g id="Grupo_675" data-name="Grupo 675" opacity="0.3">
          <g id="Grupo_674" data-name="Grupo 674">
            <g id="Grupo_673" data-name="Grupo 673" clip-path="url(#clip-path-5)">
              <path id="Trazado_4135" data-name="Trazado 4135" d="M145.21,46.907a7.948,7.948,0,0,0-5.844-5.57l-.25-.055-.159-.032c-.156-.029-.316-.053-.478-.074l-.022,0h0l-.019,0h0l-.821,7.023-.192,1.651,7.744,2.826.01,0a8.919,8.919,0,0,0,.4-1.8,9.639,9.639,0,0,0-.367-3.97"/>
            </g>
          </g>
        </g>
        <path id="Trazado_4136" data-name="Trazado 4136" d="M136.847,50.634l-8.2.922A8.139,8.139,0,0,0,144.6,53.462l-7.745-2.827" fill="#ff4f5b"/>
        <path id="Trazado_4137" data-name="Trazado 4137" d="M171.639,48.674a4.376,4.376,0,0,1-.725-.293c-.456-.207-1.122-.5-1.948-.843a58.413,58.413,0,0,0-13.43-3.831c-.884-.142-1.6-.247-2.1-.312a4.657,4.657,0,0,1-.77-.133,4.318,4.318,0,0,1,.782.029c.5.034,1.225.111,2.116.23a49.493,49.493,0,0,1,13.476,3.844c.821.37,1.476.686,1.92.922a4.322,4.322,0,0,1,.679.387" fill="#ff4f5b"/>
        <path id="Trazado_4138" data-name="Trazado 4138" d="M171.076,52.129a4.24,4.24,0,0,1-.724-.293c-.457-.207-1.123-.5-1.949-.842a58.482,58.482,0,0,0-13.43-3.832c-.884-.142-1.6-.247-2.1-.312a4.583,4.583,0,0,1-.771-.133,4.277,4.277,0,0,1,.782.03c.5.033,1.225.11,2.117.229a49.52,49.52,0,0,1,13.476,3.844c.82.37,1.475.687,1.919.923a4.419,4.419,0,0,1,.679.386" fill="#ff4f5b"/>
        <path id="Trazado_4139" data-name="Trazado 4139" d="M170.513,55.585a4.3,4.3,0,0,1-.725-.293c-.457-.207-1.122-.5-1.949-.843a58.375,58.375,0,0,0-13.43-3.831c-.883-.142-1.6-.248-2.1-.312a4.449,4.449,0,0,1-.77-.134,4.265,4.265,0,0,1,.781.03c.5.033,1.225.111,2.117.23a49.426,49.426,0,0,1,13.476,3.844c.82.369,1.475.686,1.919.922a4.371,4.371,0,0,1,.68.387" fill="#ff4f5b"/>
        <path id="Trazado_4140" data-name="Trazado 4140" d="M169.386,59.04a4.125,4.125,0,0,1-.7-.292c-.442-.206-1.086-.5-1.887-.841a57.609,57.609,0,0,0-6.4-2.317,56.863,56.863,0,0,0-6.634-1.516c-.86-.143-1.559-.248-2.042-.313a4.178,4.178,0,0,1-.748-.134,4.271,4.271,0,0,1,.76.03c.488.034,1.191.111,2.058.231a46.877,46.877,0,0,1,6.681,1.446,47.4,47.4,0,0,1,6.4,2.4c.794.368,1.427.685,1.857.92a4.15,4.15,0,0,1,.655.385" fill="#ff4f5b"/>
        <path id="Trazado_4141" data-name="Trazado 4141" d="M166.938,61.8a3.32,3.32,0,0,1-.634-.252l-1.692-.753a41.382,41.382,0,0,0-11.692-3.335l-1.836-.254a3.283,3.283,0,0,1-.67-.12,3.305,3.305,0,0,1,.681.017c.439.025,1.07.084,1.85.17a35.5,35.5,0,0,1,11.745,3.35c.707.339,1.274.622,1.66.831a3.227,3.227,0,0,1,.588.346" fill="#ff4f5b"/>
        <path id="Trazado_4142" data-name="Trazado 4142" d="M158.677,62.187a8.227,8.227,0,0,1-1.323-.274c-.811-.189-1.934-.431-3.184-.645s-2.389-.373-3.215-.49a7.276,7.276,0,0,1-1.332-.232,6.446,6.446,0,0,1,1.354.044c.832.071,1.98.2,3.239.414a28.9,28.9,0,0,1,3.185.727,5.829,5.829,0,0,1,1.276.456" fill="#ff4f5b"/>
        <path id="Trazado_4143" data-name="Trazado 4143" d="M126.709,35.914s.141-.012.428-.022l1.279-.042c1.131-.028,2.766-.01,4.856.108a77.248,77.248,0,0,1,17.057,3.054l.1.027-.018.1c-1.281,7.337-2.8,16.059-4.435,25.393-.066.378-.132.756-.2,1.126l-.024.143-.141-.037a112.013,112.013,0,0,0-11.389-2.35c-3.669-.563-7.178-.962-10.438-1.169l-.125-.008.014-.122c.9-7.831,1.647-14.39,2.177-19.006.267-2.282.478-4.084.625-5.327.073-.6.131-1.07.171-1.4.019-.15.034-.266.045-.356a.738.738,0,0,1,.021-.115.954.954,0,0,1-.007.13c-.009.093-.019.213-.034.368-.034.334-.082.81-.144,1.423-.131,1.25-.323,3.061-.566,5.357-.5,4.6-1.208,11.143-2.054,18.95l-.111-.13c3.275.2,6.786.589,10.466,1.148a111.41,111.41,0,0,1,11.418,2.347l-.166.106c.065-.371.132-.748.2-1.126,1.645-9.332,3.182-18.052,4.474-25.387l.076.127a79.111,79.111,0,0,0-16.994-3.136c-2.08-.138-3.73-.176-4.834-.173l-1.273,0c-.291,0-.448-.007-.448-.007" fill="#ff4f5b"/>
        <path id="Trazado_4144" data-name="Trazado 4144" d="M106.4,103.564l18.132,4.016,2.771-4.016-.448-5.17L124.1,95.877h-9.5l-8.869,7.987" fill="#ff4f5b"/>
        <g id="Grupo_678" data-name="Grupo 678" opacity="0.3">
          <g id="Grupo_677" data-name="Grupo 677">
            <g id="Grupo_676" data-name="Grupo 676" clip-path="url(#clip-path-6)">
              <path id="Trazado_4145" data-name="Trazado 4145" d="M106.4,103.564l18.132,4.016,2.771-4.016-.448-5.17L124.1,95.877h-9.5l-8.869,7.987"/>
            </g>
          </g>
        </g>
        <path id="Trazado_4146" data-name="Trazado 4146" d="M134.055,66.221l22.887-3.082,3.6-1.016s8.249-1.812,9.02-2.088c.89-.317,1.258.036,1.352.372.148.524-.353,1.11-1.109,1.406-.261.1-4.445,1.553-4.445,1.553a10.272,10.272,0,0,1,1.413.407,4.83,4.83,0,0,1,2.442,3.135c.481,1.5.483,1.967-.093,2.181a.778.778,0,0,1-.665-.093,1.534,1.534,0,0,1-.686-.86c-.8-2.4-2.3-2.587-2.3-2.587l-.471.133s1.549,1.081,1.522,2.389a1.493,1.493,0,0,1-.12.561,1.979,1.979,0,0,1-2.207,2.6c-.329-.058-.686-.252-.734-.583a1.055,1.055,0,0,1,.107-.513,1.66,1.66,0,0,0,.082-.268l-1.373.188s-3.106.257-4.445.521L136.4,77.035a5.55,5.55,0,1,1-2.341-10.814" fill="#ffc09d"/>
        <path id="Trazado_4147" data-name="Trazado 4147" d="M157.472,63.723a1.156,1.156,0,0,0,.986.913c.471.1.962.034,1.439.1,1.426.192,2.534,1.489,3.968,1.612.2.018.452-.023.511-.216.055-.177-.1-.345-.238-.469l-3.57-3.156" fill="#ffc09d"/>
        <path id="Trazado_4148" data-name="Trazado 4148" d="M160.568,62.506a1.981,1.981,0,0,1,.421.3c.26.208.629.514,1.082.9l1.581,1.359.454.395c.135.137.371.255.414.583a.4.4,0,0,1-.245.378.83.83,0,0,1-.385.064,3.152,3.152,0,0,1-.689-.137,18.287,18.287,0,0,1-2.289-1.161,3.607,3.607,0,0,0-1.02-.339c-.331-.05-.657-.04-.958-.062a1.674,1.674,0,0,1-1.3-.563.608.608,0,0,1-.158-.5,1.417,1.417,0,0,0,.239.432,1.624,1.624,0,0,0,1.232.44c.291.009.618-.014.979.029a3.715,3.715,0,0,1,1.1.336,21.415,21.415,0,0,0,2.264,1.128,2.859,2.859,0,0,0,.623.126c.2.015.367-.058.35-.162s-.166-.263-.321-.4l-.448-.4c-.566-.516-1.086-.987-1.543-1.4-.437-.4-.786-.732-1.024-.964s-.364-.366-.351-.381" fill="#ff9b6c"/>
        <path id="Trazado_4149" data-name="Trazado 4149" d="M164.956,65.634a1.944,1.944,0,0,1,.9-.012,1.522,1.522,0,0,1,.784.538,3.848,3.848,0,0,1,.563,1.07,6.138,6.138,0,0,0,.523,1.141,2,2,0,0,0,.748.721.779.779,0,0,0,.7.016c.149-.079.205-.156.2-.161s-.082.043-.228.1a.74.74,0,0,1-.617-.063,2,2,0,0,1-.668-.7,6.7,6.7,0,0,1-.494-1.119,3.82,3.82,0,0,0-.6-1.109,1.593,1.593,0,0,0-.879-.556,1.416,1.416,0,0,0-.7.023c-.159.048-.235.1-.23.11" fill="#ff9b6c"/>
        <path id="Trazado_4150" data-name="Trazado 4150" d="M170.1,61.695a4.91,4.91,0,0,0-.834.282l-1.989.732-2,.7a5.054,5.054,0,0,0-.823.312,3.947,3.947,0,0,0,.86-.194c.524-.146,1.241-.374,2.022-.654s1.479-.561,1.977-.782a3.97,3.97,0,0,0,.787-.4" fill="#ff9b6c"/>
        <path id="Trazado_4151" data-name="Trazado 4151" d="M164.35,66.91c-.01.01.062.08.18.209a.816.816,0,0,1,.258.63.438.438,0,0,1-.269.339,2.325,2.325,0,0,1-.554.152,1,1,0,0,0-.618.331.842.842,0,0,0-.1.753.955.955,0,0,0,.514.553,1.2,1.2,0,0,0,.69.1,3.843,3.843,0,0,0,1.061-.395,2.328,2.328,0,0,0,.612-.456c.12-.14.15-.239.142-.242s-.063.077-.191.194a2.706,2.706,0,0,1-.619.394,4.2,4.2,0,0,1-1.031.346.945.945,0,0,1-1.012-.55.672.672,0,0,1,.076-.595A.838.838,0,0,1,164,68.4a2.354,2.354,0,0,0,.585-.181.569.569,0,0,0,.326-.454.855.855,0,0,0-.334-.693c-.137-.117-.221-.168-.228-.16" fill="#ff9b6c"/>
        <path id="Trazado_4152" data-name="Trazado 4152" d="M163.861,69.763c0-.009-.1,0-.228.106a.768.768,0,0,0-.256.637,1.022,1.022,0,0,0,.607.813,1.662,1.662,0,0,0,1.242.017,2.011,2.011,0,0,0,.988-.752,1.941,1.941,0,0,0,.332-.957,1.841,1.841,0,0,0-.075-.675c-.048-.152-.095-.228-.1-.224a3.18,3.18,0,0,1,.057.888,1.879,1.879,0,0,1-1.255,1.555,1.554,1.554,0,0,1-1.118,0,.906.906,0,0,1-.549-.68.723.723,0,0,1,.179-.573c.1-.111.187-.142.181-.156" fill="#ff9b6c"/>
        <path id="Trazado_4153" data-name="Trazado 4153" d="M160.051,67.881a.725.725,0,0,0-.147-.4,1.665,1.665,0,0,0-.834-.682l.008.155a5.144,5.144,0,0,0,.524-.29,3.793,3.793,0,0,0,1.435-1.478,9.726,9.726,0,0,1-1.53,1.33c-.171.109-.342.205-.5.287l-.178.091.188.063a1.751,1.751,0,0,1,.8.584c.154.2.212.345.234.336" fill="#ff9b6c"/>
        <path id="Trazado_4154" data-name="Trazado 4154" d="M167.179,65.437c-.034-.033-.275.234-.3.657s.173.719.21.692-.064-.313-.035-.68.169-.642.127-.669" fill="#ff9b6c"/>
        <path id="Trazado_4155" data-name="Trazado 4155" d="M60.377,73.4a70.136,70.136,0,0,0-3.935-5.878c-.591-.459-5.883-2.4-6.336-2.255s-6.866,1.238-6.128,2,5.208-.064,5.208-.064l.6.3a27.576,27.576,0,0,0-4.677,1.086c-.749.432-.492,1.349.216,1.276s4.065-.724,4.264-.585-3.651.9-4.066,1.15c-.558.329-.614,1.322.09,1.273.415-.029,4.047-.966,4.047-.966A30.909,30.909,0,0,0,46.515,72.1c-.435.412-.09,1.04.533.9.429-.1,2.464-1.065,3.037-1.19,0,0,.536.143,1.022,1.228.228.506,1.261,3.663,3.152,3.622a5.925,5.925,0,0,1,3.318,1.344Z" fill="#ffc09d"/>
        <path id="Trazado_4156" data-name="Trazado 4156" d="M43.991,67.285a2.942,2.942,0,0,0,1.168.323,6.9,6.9,0,0,0,1.321.055c.49-.055,1.027-.13,1.59-.208l1.2-.175-.072-.007a17.117,17.117,0,0,0,2.766.868A17.25,17.25,0,0,0,49.292,67l-.032-.013L49.22,67l-1.187.16-1.571.23a8.508,8.508,0,0,1-1.281.01c-.731-.05-1.179-.156-1.19-.111" fill="#ff9b6c"/>
        <path id="Trazado_4157" data-name="Trazado 4157" d="M57.871,72.759a1.279,1.279,0,0,1-1.49,0c-.457-.274-.807-.7-1.243-1-1.305-.919-3.184-.7-4.442-1.681-.176-.136-.349-.36-.253-.561s.341-.207.547-.2l5.282.127" fill="#ffc09d"/>
        <path id="Trazado_4158" data-name="Trazado 4158" d="M56.273,69.437a2.063,2.063,0,0,0-.569-.072c-.368-.028-.9-.057-1.558-.086l-2.31-.088-.667-.021a1.041,1.041,0,0,0-.775.161.445.445,0,0,0-.087.493.916.916,0,0,0,.266.341,3.512,3.512,0,0,0,.663.409,20.3,20.3,0,0,0,2.736.782,3.991,3.991,0,0,1,1.085.494c.307.208.564.463.824.672a1.86,1.86,0,0,0,1.486.525c.39-.075.518-.287.505-.288a1.519,1.519,0,0,1-.52.172,1.8,1.8,0,0,1-1.333-.572c-.243-.211-.492-.477-.819-.714a4.1,4.1,0,0,0-1.143-.554,23.4,23.4,0,0,1-2.691-.79,3.23,3.23,0,0,1-.6-.366c-.171-.138-.255-.324-.161-.4.09-.094.333-.088.56-.081l.668.011,2.31.023c.658,0,1.192,0,1.56-.01a2.136,2.136,0,0,0,.572-.045" fill="#ff9b6c"/>
        <path id="Trazado_4159" data-name="Trazado 4159" d="M86.414,193.373l-1.221,13.438-4.03,10.348a1.383,1.383,0,0,0,2.122,1.605c2.27-1.729,10.586-8.13,10.62-9.119.04-1.144,2.23-14.087,2.23-14.087Z" fill="#ff4f5b"/>
        <g id="Grupo_681" data-name="Grupo 681" opacity="0.6">
          <g id="Grupo_680" data-name="Grupo 680">
            <g id="Grupo_679" data-name="Grupo 679" clip-path="url(#clip-path-7)">
              <path id="Trazado_4160" data-name="Trazado 4160" d="M82.038,218.981l11.971-10.239-.066.567a2.075,2.075,0,0,1-.642,1.285c-.965.9-3.685,3.339-9.976,8.175a1.382,1.382,0,0,1-1.287.212" fill="#fff"/>
            </g>
          </g>
        </g>
        <g id="Grupo_684" data-name="Grupo 684" opacity="0.6">
          <g id="Grupo_683" data-name="Grupo 683">
            <g id="Grupo_682" data-name="Grupo 682" clip-path="url(#clip-path-8)">
              <path id="Trazado_4161" data-name="Trazado 4161" d="M91.75,204.1a.838.838,0,0,0-.351,1.06.8.8,0,0,0,1.047.357.882.882,0,0,0,.366-1.124.834.834,0,0,0-1.13-.251" fill="#fff"/>
            </g>
          </g>
        </g>
        <path id="Trazado_4162" data-name="Trazado 4162" d="M85.77,213.473c-.08.028-.3-.708-1.057-1.177a4.181,4.181,0,0,0-1.508-.47c-.009-.035.172-.12.492-.128a2.2,2.2,0,0,1,1.984,1.274c.125.294.124.494.089.5" fill="#1a2e35"/>
        <path id="Trazado_4163" data-name="Trazado 4163" d="M84.611,215.159c-.07.051-.451-.435-1.121-.712a11.218,11.218,0,0,0-1.29-.318,1.533,1.533,0,0,1,1.406.046c.763.32,1.079.956,1,.984" fill="#1a2e35"/>
        <path id="Trazado_4164" data-name="Trazado 4164" d="M87.81,211.374a13.929,13.929,0,0,0-1.657-1.215,13.8,13.8,0,0,0-1.936-.69,3.778,3.778,0,0,1,3.593,1.9" fill="#1a2e35"/>
        <path id="Trazado_4165" data-name="Trazado 4165" d="M88.523,207.322c-.045.076-.751-.318-1.71-.463s-1.75,0-1.769-.087a3.428,3.428,0,0,1,3.479.55" fill="#1a2e35"/>
        <path id="Trazado_4166" data-name="Trazado 4166" d="M88.981,203.386a6.717,6.717,0,0,0-1.768-.528,6.75,6.75,0,0,0-1.828.243c-.018-.03.147-.182.477-.325a3.009,3.009,0,0,1,2.7.214c.3.193.442.369.419.4" fill="#1a2e35"/>
        <path id="Trazado_4167" data-name="Trazado 4167" d="M87.323,202.112a1.183,1.183,0,0,1,.04-.51,3.535,3.535,0,0,1,.554-1.282,1.575,1.575,0,0,1,.755-.669.556.556,0,0,1,.608.193.911.911,0,0,1,.144.63,1.956,1.956,0,0,1-1.907,1.6,2.268,2.268,0,0,1-2.078-1.431.789.789,0,0,1,.037-.654.546.546,0,0,1,.6-.222,1.934,1.934,0,0,1,.831.56,3.989,3.989,0,0,1,.8,1.145,1.22,1.22,0,0,1,.153.488,6.266,6.266,0,0,0-1.1-1.482,1.818,1.818,0,0,0-.736-.471.29.29,0,0,0-.327.12.542.542,0,0,0,0,.431,2.023,2.023,0,0,0,1.816,1.219,1.7,1.7,0,0,0,1.638-1.337.657.657,0,0,0-.081-.443.3.3,0,0,0-.335-.113,1.436,1.436,0,0,0-.649.556,5.242,5.242,0,0,0-.764,1.669" fill="#1a2e35"/>
        <path id="Trazado_4168" data-name="Trazado 4168" d="M98.77,201.256l10.055-79.625-3.216-18.51-18.963,1.006-2.361,95.658a1.462,1.462,0,0,0,1.18,1.473l11.044,1.7a1.976,1.976,0,0,0,2.261-1.7" fill="#1a2e35"/>
        <path id="Trazado_4169" data-name="Trazado 4169" d="M108.536,124.3l18.288,18.1-26.314,6.4,1.874,13.276L138,157.23a11.209,11.209,0,0,0,7.752-17.417L118.007,99.081l-12.4,4.04Z" fill="#1a2e35"/>
        <path id="Trazado_4170" data-name="Trazado 4170" d="M107.527,119.7a20.926,20.926,0,0,1,1.01,4.607,20.959,20.959,0,0,1-1.01-4.607" fill="#375a64"/>
        <path id="Trazado_4171" data-name="Trazado 4171" d="M104.862,150.474s.146-.055.435-.146l1.281-.4,4.907-1.492,17.857-5.371-.045.17-21.954-23.38.227-.074c-.435,3.673-.889,7.509-1.352,11.421-2.264,18.966-4.391,36.124-6.038,48.53-.817,6.2-1.538,11.217-2.063,14.677-.293,1.725-.486,3.07-.686,3.971-.1.445-.169.785-.22,1.025s-.083.346-.083.346.014-.12.056-.352.111-.583.195-1.03c.181-.9.358-2.25.634-3.976.5-3.464,1.187-8.479,1.98-14.686,1.6-12.41,3.7-29.571,5.96-48.536.465-3.912.92-7.748,1.355-11.421l.033-.281.194.206L129.448,143.1l.114.122-.16.048-17.884,5.284-4.924,1.439-1.289.369c-.291.081-.443.116-.443.116" fill="#375a64"/>
        <path id="Trazado_4172" data-name="Trazado 4172" d="M98.943,199.753c-.073-.009,2.016-16.908,4.664-37.741s4.857-37.721,4.93-37.711-2.015,16.9-4.665,37.745-4.857,37.717-4.929,37.707" fill="#375a64"/>
        <path id="Trazado_4173" data-name="Trazado 4173" d="M105.566,111.27a5.958,5.958,0,0,1,.425,1.234c.223.773.5,1.85.763,3.05s.458,2.3.576,3.093a5.927,5.927,0,0,1,.128,1.3,6.656,6.656,0,0,1-.314-1.266c-.186-.879-.406-1.919-.65-3.069s-.49-2.184-.687-3.06a6.86,6.86,0,0,1-.241-1.281" fill="#375a64"/>
        <path id="Trazado_4174" data-name="Trazado 4174" d="M106.743,109.709c-.029-.016.256-.249.742-.08a.865.865,0,0,1,.555.655.953.953,0,0,1-.414.97.924.924,0,0,1-1.051-.1.78.78,0,0,1-.238-.827.772.772,0,0,1,.343-.457c.119-.067.2-.065.2-.051.024.035-.28.142-.361.552a.594.594,0,0,0,.211.594.7.7,0,0,0,.756.064.727.727,0,0,0,.311-.7.69.69,0,0,0-.388-.521,1.414,1.414,0,0,0-.667-.093" fill="#375a64"/>
        <path id="Trazado_4175" data-name="Trazado 4175" d="M132.211,145.5c-.056.062-1.085-.888-2.566-1.741s-2.81-1.289-2.786-1.367a10.144,10.144,0,0,1,5.352,3.108" fill="#375a64"/>
        <path id="Trazado_4176" data-name="Trazado 4176" d="M92.682,48.845l-10.5,5.069L86.708,85.5,84.93,99.685a5.54,5.54,0,0,0,1.852,4.861l16.958-.334,11.876-6.529,5.453-.922-2.234-10.793,1-15.311,12.412,6.627a4.331,4.331,0,0,0,3.12.372l22.755-5.885L156.942,63l-20.6,2.329L120.653,51.47l-11.677-2.625-2.082-3.439H94.946l-.836.626a2.5,2.5,0,0,0-.864,1.183Z" fill="#ff4f5b"/>
        <path id="Trazado_4177" data-name="Trazado 4177" d="M82.182,53.914a12.6,12.6,0,0,0-4.728,6.167c-1.2,3.727-3.909,18.8-3.909,18.8l-11.929-7.4-6.875,7.227,15.9,14.025A8.084,8.084,0,0,0,84,87.761l1.952-14.294Z" fill="#ff4f5b"/>
        <path id="Trazado_4178" data-name="Trazado 4178" d="M118.007,99.081l-.739-1.087-7.852,1.451-1.445,3.345Z" fill="#ffc09d"/>
        <path id="Trazado_4179" data-name="Trazado 4179" d="M86.782,104.546c7.016,2.823,14.508,1.785,21.189-1.756,2.018-1.068,3.888-2.4,5.914-3.452a12.555,12.555,0,0,1,6.551-1.672,6.419,6.419,0,0,1,5.486,3.51c.911,2.094,0,4.943-2.144,5.724l.759.679a6.805,6.805,0,0,0,3.107-8.825c-1.178-2.391-3.655-3.814-5.47-5.767-2.668-2.869-2.947-8.422-2.963-12.746" fill="#ff4f5b"/>
        <path id="Trazado_4180" data-name="Trazado 4180" d="M102.173,54.952a2.4,2.4,0,0,1-.518.03,1.96,1.96,0,0,0-1.243.573,2.907,2.907,0,0,0-.62,2,6.654,6.654,0,0,0,.569,2.686l.2.442-.387-.287a20.79,20.79,0,0,1-2.645-2.339,19.483,19.483,0,0,1-4.067-6.227,13.889,13.889,0,0,1-.66-2.165,4.972,4.972,0,0,1-.118-.821,24.009,24.009,0,0,0,.953,2.915,20.53,20.53,0,0,0,4.085,6.114,21.6,21.6,0,0,0,2.6,2.322l-.189.154a6.144,6.144,0,0,1-.438-1.436,6.4,6.4,0,0,1-.117-1.36,3.026,3.026,0,0,1,.722-2.108,1.984,1.984,0,0,1,1.35-.548,2.531,2.531,0,0,1,.522.053" fill="#1a2e35"/>
        <path id="Trazado_4181" data-name="Trazado 4181" d="M102.8,54.952a2.758,2.758,0,0,1,2.766.886c.41.467.64,1.116,1.18,1.423a3.817,3.817,0,0,0,2.745.166s.3-1.459.462-2.064a45.637,45.637,0,0,0,1.168-7.008c-1.653-.8-1.2-1.854-4.17-1.653a7.59,7.59,0,0,1,.1,4.19" fill="#ff4f5b"/>
        <path id="Trazado_4182" data-name="Trazado 4182" d="M107.058,50.892c-.028-.008.107-.4.172-1.123a8.289,8.289,0,0,0-.369-3.035l-.038-.123.125-.007a5.129,5.129,0,0,1,2.192.2,3.351,3.351,0,0,1,1.013.73,4.076,4.076,0,0,0,1.025.71l.081.038-.01.09c-.131,1.244-.283,2.6-.518,4-.154.916-.339,1.8-.554,2.651s-.383,1.658-.564,2.428l-.012.05-.033.022a1.633,1.633,0,0,1-.878.214,5.367,5.367,0,0,1-1.589-.22,1.633,1.633,0,0,1-.673-.366,7.056,7.056,0,0,1-.789-1.083,2.757,2.757,0,0,0-.807-.734,2.877,2.877,0,0,0-1.474-.461,3.01,3.01,0,0,0-.556.08,1.136,1.136,0,0,1,.553-.158,2.822,2.822,0,0,1,1.553.412,2.876,2.876,0,0,1,.874.755A7.206,7.206,0,0,0,106.566,57a2.508,2.508,0,0,0,1.333.46,4.839,4.839,0,0,0,.784.042,1.452,1.452,0,0,0,.736-.172l-.046.073c.175-.775.341-1.6.551-2.443s.391-1.721.544-2.631c.234-1.392.389-2.745.529-3.987l.071.128a4.285,4.285,0,0,1-1.079-.759,3.174,3.174,0,0,0-.938-.7,5.038,5.038,0,0,0-2.091-.213l.087-.13a7.92,7.92,0,0,1,.292,3.111,5.148,5.148,0,0,1-.175.834,1.2,1.2,0,0,1-.106.277" fill="#1a2e35"/>
        <path id="Trazado_4183" data-name="Trazado 4183" d="M124.557,99.258c-.021,0,.023-.205,0-.588a3.587,3.587,0,0,0-.505-1.58,5.262,5.262,0,0,0-1.884-1.819,7.938,7.938,0,0,0-3.358-.922c-1.3-.119-2.745-.048-4.3-.153a16.061,16.061,0,0,1-4.845-1.028,9.978,9.978,0,0,1-4.371-3.264,7.613,7.613,0,0,1-1.256-2.631,10.14,10.14,0,0,1-.288-2.986,51.715,51.715,0,0,1,.827-5.81,43.7,43.7,0,0,0,.511-5.412,44.868,44.868,0,0,0-.674-9.175,45.455,45.455,0,0,0-1.51-6.026c-.22-.7-.417-1.236-.546-1.6l-.143-.416a.574.574,0,0,1-.04-.146.608.608,0,0,1,.066.135c.043.107.1.24.167.408.145.36.359.89.594,1.587a41.978,41.978,0,0,1,1.6,6.026,44.083,44.083,0,0,1,.734,9.214,43.184,43.184,0,0,1-.5,5.446,52.58,52.58,0,0,0-.817,5.781A8.3,8.3,0,0,0,105.5,89.75a9.783,9.783,0,0,0,4.251,3.191,15.994,15.994,0,0,0,4.771,1.034c1.533.114,2.979.054,4.3.186a8.034,8.034,0,0,1,3.418.982,5.31,5.31,0,0,1,1.9,1.9,3.511,3.511,0,0,1,.469,1.629,2.126,2.126,0,0,1-.024.443.68.68,0,0,1-.025.148" fill="#1a2e35"/>
        <path id="Trazado_4184" data-name="Trazado 4184" d="M116.895,89.914a5.215,5.215,0,0,1-.592.611c-.194.194-.437.424-.736.674s-.625.552-1.019.845A27.839,27.839,0,0,1,111.714,94a28.8,28.8,0,0,1-7.764,3.252,27.913,27.913,0,0,1-3.385.644c-.485.076-.929.1-1.316.133s-.723.05-1,.053a4.987,4.987,0,0,1-.85-.008,5.512,5.512,0,0,1,.845-.1c.272-.018.6-.046.989-.1s.824-.085,1.3-.171a31.6,31.6,0,0,0,3.348-.695,30.648,30.648,0,0,0,7.7-3.226,31.088,31.088,0,0,0,2.845-1.9c.4-.282.733-.569,1.037-.809s.56-.456.764-.637a5.1,5.1,0,0,1,.661-.534" fill="#1a2e35"/>
        <path id="Trazado_4185" data-name="Trazado 4185" d="M113.594,73.089a1.059,1.059,0,0,1-.044.282c-.048.212-.106.477-.179.8a11.883,11.883,0,0,1-.339,1.251c-.154.481-.3,1.039-.545,1.628q-.172.447-.359.933c-.127.324-.289.647-.441.99-.293.689-.685,1.388-1.08,2.132a29.534,29.534,0,0,1-7.007,8.353c-.663.52-1.284,1.027-1.912,1.436-.311.209-.6.425-.9.606l-.856.516c-.538.341-1.062.585-1.509.82a12.048,12.048,0,0,1-1.172.551L96.5,93.7a1.092,1.092,0,0,1-.269.093,1.1,1.1,0,0,1,.248-.143c.194-.094.437-.213.733-.359.322-.148.711-.338,1.148-.589s.951-.5,1.479-.85l.842-.527c.292-.184.577-.4.883-.614.618-.414,1.228-.924,1.882-1.443a30.569,30.569,0,0,0,6.95-8.286c.4-.735.794-1.424,1.094-2.105.155-.338.321-.657.452-.977l.372-.919c.252-.581.413-1.131.579-1.606s.29-.89.381-1.232c.092-.318.167-.576.226-.784a1.2,1.2,0,0,1,.1-.271" fill="#1a2e35"/>
        <path id="Trazado_4186" data-name="Trazado 4186" d="M91.994,107.119a3.132,3.132,0,0,1-.935-.7,7.118,7.118,0,0,1-2.137-5.086,3.1,3.1,0,0,1,.156-1.155c.045.006-.007.446.032,1.149a8,8,0,0,0,2.085,4.961c.476.519.826.791.8.827" fill="#1a2e35"/>
        <path id="Trazado_4187" data-name="Trazado 4187" d="M91.62,103.129c.076.021-.065.678.009,1.486s.314,1.433.243,1.466a3.046,3.046,0,0,1-.252-2.952" fill="#1a2e35"/>
        <path id="Trazado_4188" data-name="Trazado 4188" d="M86.565,84.79a.871.871,0,0,1-.062-.24c-.035-.19-.077-.419-.126-.7-.109-.647-.254-1.513-.431-2.566-.36-2.167-.87-5.158-1.484-8.452s-1.216-6.27-1.662-8.421c-.214-1.045-.391-1.905-.523-2.549l-.133-.7a.828.828,0,0,1-.028-.246.907.907,0,0,1,.081.234c.049.187.109.412.181.685.153.594.361,1.46.607,2.531.492,2.143,1.124,5.113,1.74,8.412s1.1,6.3,1.407,8.473c.158,1.088.275,1.969.347,2.58.03.279.057.512.077.7a.816.816,0,0,1,.009.247" fill="#1a2e35"/>
        <path id="Trazado_4189" data-name="Trazado 4189" d="M119.349,84.79a.9.9,0,0,1-.025-.253c-.006-.2-.014-.437-.022-.727-.015-.632-.018-1.546-.011-2.675.022-2.259.12-5.381.382-8.819s.608-6.541.874-8.783c.138-1.09.252-1.986.336-2.653.042-.287.077-.525.106-.72a.926.926,0,0,1,.055-.249.941.941,0,0,1,0,.255c-.014.2-.033.436-.055.726-.064.669-.149,1.568-.252,2.662-.219,2.246-.536,5.348-.8,8.782s-.389,6.547-.459,8.8c-.03,1.1-.056,2-.074,2.672-.012.29-.021.529-.029.726a.863.863,0,0,1-.028.253" fill="#1a2e35"/>
        <path id="Trazado_4190" data-name="Trazado 4190" d="M78.392,86.111c-.091.04-.766-1.827-2.071-3.855a29.119,29.119,0,0,0-2.776-3.373,4.733,4.733,0,0,1,1,.818,13.847,13.847,0,0,1,1.995,2.408,16.754,16.754,0,0,1,1.439,2.774,5.277,5.277,0,0,1,.409,1.228" fill="#1a2e35"/>
        <path id="Trazado_4191" data-name="Trazado 4191" d="M79.273,83.884a9.3,9.3,0,0,1-.575-1,7.973,7.973,0,0,0-1.771-2.072,11.255,11.255,0,0,0-2.343-1.428,6.908,6.908,0,0,1-1.039-.5,3.976,3.976,0,0,1,1.114.33,9.161,9.161,0,0,1,2.438,1.4A6.951,6.951,0,0,1,78.863,82.8a3.425,3.425,0,0,1,.41,1.088" fill="#1a2e35"/>
        <path id="Trazado_4192" data-name="Trazado 4192" d="M84.548,71.565a.735.735,0,0,1-.106.227,2.326,2.326,0,0,1-.47.547,3.114,3.114,0,0,1-2.511.676,4.855,4.855,0,0,1-3.152-2.228,10.576,10.576,0,0,1-1.04-2.07c-.143-.375-.287-.751-.408-1.153a3.118,3.118,0,0,1-.145-1.287,1.759,1.759,0,0,1,.624-1.163,1.477,1.477,0,0,1,1.265-.226,2.471,2.471,0,0,1,1.685,1.6,2.4,2.4,0,0,1-.209,2.1,2.6,2.6,0,0,1-1.462,1.12,2.326,2.326,0,0,1-1.516-.072,2.6,2.6,0,0,1-.948-.643,2.174,2.174,0,0,1-.4-.6.715.715,0,0,1-.076-.238,3.521,3.521,0,0,0,.55.768,2.584,2.584,0,0,0,.924.576,2.216,2.216,0,0,0,1.41.031,2.435,2.435,0,0,0,1.329-1.055,2.181,2.181,0,0,0,.166-1.9,2.234,2.234,0,0,0-1.514-1.427,1.217,1.217,0,0,0-1.043.183,1.487,1.487,0,0,0-.521.987,5.312,5.312,0,0,0,.531,2.311,10.57,10.57,0,0,0,1,2.027,4.713,4.713,0,0,0,2.98,2.18,3.066,3.066,0,0,0,2.413-.572,3.692,3.692,0,0,0,.642-.693" fill="#fafafa"/>
        <path id="Trazado_4193" data-name="Trazado 4193" d="M104.686,79.431a.9.9,0,0,1-.14.121l-.427.331a11.377,11.377,0,0,1-1.764,1.109,5.44,5.44,0,0,1-1.436.477,3.734,3.734,0,0,1-1.8-.116A6.343,6.343,0,0,1,95.876,78.5a10.427,10.427,0,0,1,.1-10.883,5.63,5.63,0,0,1,2.411-2.254,3.159,3.159,0,0,1,1.728-.219,2.382,2.382,0,0,1,1.547.876,2.515,2.515,0,0,1,.482,1.743,4.028,4.028,0,0,1-.555,1.743,5.663,5.663,0,0,1-2.848,2.31,7.322,7.322,0,0,1-3.655.378,7.532,7.532,0,0,1-3.3-1.366,11.269,11.269,0,0,1-3.874-5.43,6.511,6.511,0,0,1-.471-3.109,3.113,3.113,0,0,1,.6-1.415,2.185,2.185,0,0,1,1.25-.815,2.741,2.741,0,0,1,2.58.891,2.941,2.941,0,0,1,.623,2.456,3.9,3.9,0,0,1-1.051,2.068A5.021,5.021,0,0,1,89.706,66.6a7.905,7.905,0,0,1-3.254.492,18.8,18.8,0,0,1-2.071-.211l-.534-.086a.906.906,0,0,1-.181-.039.95.95,0,0,1,.185.012l.537.059c.472.051,1.168.14,2.067.161a7.894,7.894,0,0,0,3.194-.526,4.857,4.857,0,0,0,1.667-1.114,3.732,3.732,0,0,0,.986-1.982,2.743,2.743,0,0,0-.59-2.288,2.534,2.534,0,0,0-2.377-.812,2.367,2.367,0,0,0-1.665,2.052,6.32,6.32,0,0,0,.471,2.99,11.068,11.068,0,0,0,3.794,5.3,7.277,7.277,0,0,0,3.185,1.315,7.043,7.043,0,0,0,3.52-.364,5.424,5.424,0,0,0,2.715-2.194,3.756,3.756,0,0,0,.52-1.627,2.245,2.245,0,0,0-.425-1.566,2.123,2.123,0,0,0-1.381-.781,2.913,2.913,0,0,0-1.587.2,5.417,5.417,0,0,0-2.305,2.153A10.244,10.244,0,0,0,96.038,78.4a6.205,6.205,0,0,0,3.129,2.814,4.233,4.233,0,0,0,3.143-.313,12.385,12.385,0,0,0,1.777-1.058l.443-.309a.875.875,0,0,1,.156-.1" fill="#fafafa"/>
        <path id="Trazado_4194" data-name="Trazado 4194" d="M90.553,50.691a1.5,1.5,0,0,1-.162.459,7.407,7.407,0,0,1-.657,1.152,8.435,8.435,0,0,1-7.593,3.623,7.385,7.385,0,0,1-1.31-.213,1.581,1.581,0,0,1-.459-.163c.012-.048.678.148,1.779.188a8.8,8.8,0,0,0,7.429-3.545c.662-.881.929-1.522.973-1.5" fill="#fafafa"/>
        <path id="Trazado_4195" data-name="Trazado 4195" d="M98.12,52.872a3.284,3.284,0,0,0-2.38,2.021c-.031-.005-.041-.205.06-.506a2.356,2.356,0,0,1,.7-1.009,2.331,2.331,0,0,1,1.109-.529c.315-.05.509-.009.509.023" fill="#fafafa"/>
        <path id="Trazado_4196" data-name="Trazado 4196" d="M108.953,55.883a1.182,1.182,0,0,1-.435-.2,3.555,3.555,0,0,1-.962-.887,3.461,3.461,0,0,1-.71-1.816,1.725,1.725,0,0,1,.314-1.15,1.188,1.188,0,0,1,1.187-.5,1.322,1.322,0,0,1,.931.9,1.233,1.233,0,0,1-.235,1.178,1.658,1.658,0,0,1-1.856.492,2.078,2.078,0,0,1-1.012-.838,1,1,0,0,1-.192-.441c.022-.009.091.146.277.38a2.122,2.122,0,0,0,.989.721,1.465,1.465,0,0,0,1.6-.467.982.982,0,0,0,.179-.945,1.065,1.065,0,0,0-.739-.714.933.933,0,0,0-.922.4,1.5,1.5,0,0,0-.277.982,3.419,3.419,0,0,0,.617,1.717,5.317,5.317,0,0,0,1.245,1.2" fill="#fafafa"/>
        <path id="Trazado_4197" data-name="Trazado 4197" d="M111,49.9a4.719,4.719,0,0,0-3.725-1.528c-.006-.032.223-.123.619-.154a3.477,3.477,0,0,1,2.774,1.139c.26.3.358.526.332.543" fill="#fafafa"/>
        <path id="Trazado_4198" data-name="Trazado 4198" d="M125.08,55.866a.387.387,0,0,1-.1.063l-.308.161c-.275.133-.685.322-1.231.523a14.819,14.819,0,0,1-4.825.906,6.837,6.837,0,0,1-1.638-.158,3.579,3.579,0,0,1-1.616-.787,2.4,2.4,0,0,1-.791-1.753,2.953,2.953,0,0,1,.681-1.927,3.961,3.961,0,0,1,4.078-1.049,4.754,4.754,0,0,1,3.269,3.167,4.673,4.673,0,0,1-.976,4.439,7.167,7.167,0,0,1-3.793,2.041,21.712,21.712,0,0,1-3.886.393,21.315,21.315,0,0,0-3.353.327,6.8,6.8,0,0,0-4.127,2.354,4.915,4.915,0,0,0-.786,1.591.376.376,0,0,1,.016-.118c.019-.076.034-.193.081-.339a4.093,4.093,0,0,1,.606-1.2,6.811,6.811,0,0,1,4.172-2.477,20.976,20.976,0,0,1,3.381-.363,21.991,21.991,0,0,0,3.84-.411,6.94,6.94,0,0,0,3.653-1.975,4.414,4.414,0,0,0,.916-4.19,4.5,4.5,0,0,0-3.084-2.991,3.718,3.718,0,0,0-3.819.955,2.712,2.712,0,0,0-.634,1.764,2.164,2.164,0,0,0,.707,1.595,3.375,3.375,0,0,0,1.512.75,6.712,6.712,0,0,0,1.59.17,15.352,15.352,0,0,0,4.792-.816c.547-.185.962-.357,1.242-.474a3.334,3.334,0,0,1,.432-.175" fill="#fafafa"/>
        <path id="Trazado_4199" data-name="Trazado 4199" d="M112.3,75.978c-.043.02-.222-.429-.688-1.028a5.269,5.269,0,0,0-5.236-1.968c-.746.143-1.177.363-1.2.32a2.815,2.815,0,0,1,1.155-.5,5.065,5.065,0,0,1,5.428,2.039,2.8,2.8,0,0,1,.537,1.141" fill="#fafafa"/>
        <path id="Trazado_4200" data-name="Trazado 4200" d="M118.286,79.851a2.506,2.506,0,0,1-.7,1.034,4.289,4.289,0,0,1-5.615.446,2.515,2.515,0,0,1-.856-.912c.036-.032.331.349.962.756a4.362,4.362,0,0,0,5.379-.427c.56-.5.79-.923.831-.9" fill="#fafafa"/>
        <path id="Trazado_4201" data-name="Trazado 4201" d="M119.843,69.661c-.022.04-.33-.146-.875-.291a3.753,3.753,0,0,0-3.923,1.255c-.36.433-.5.764-.543.746a1.763,1.763,0,0,1,.394-.86,3.589,3.589,0,0,1,4.128-1.321,1.793,1.793,0,0,1,.819.471" fill="#fafafa"/>
        <path id="Trazado_4202" data-name="Trazado 4202" d="M138.927,64.949a2.195,2.195,0,0,1,.093.38,2.643,2.643,0,0,1,.064.471,3.645,3.645,0,0,1,.018.65,6.49,6.49,0,0,1-1.468,3.817,6.745,6.745,0,0,1-2.208,1.821,6.854,6.854,0,0,1-3.2.734,8.6,8.6,0,0,1-6.58-3.256,5.165,5.165,0,0,1-.927-1.774,3.362,3.362,0,0,1,.033-1.955,2.492,2.492,0,0,1,1.2-1.462,2.769,2.769,0,0,1,1.8-.213,3.064,3.064,0,0,1,1.523.808,3.517,3.517,0,0,1,.835,1.389,4.648,4.648,0,0,1-.023,2.858,5.415,5.415,0,0,1-1.209,2.029,5.515,5.515,0,0,1-1.41,1.091,5.431,5.431,0,0,1-1.045.416,2.036,2.036,0,0,1-.386.072,7.522,7.522,0,0,0,1.38-.579,5.525,5.525,0,0,0,2.489-3.086,4.49,4.49,0,0,0-.005-2.732,3.321,3.321,0,0,0-.791-1.292A2.829,2.829,0,0,0,127.7,64.4a2.518,2.518,0,0,0-1.633.2A2.237,2.237,0,0,0,125,65.919a3.1,3.1,0,0,0-.025,1.8,4.9,4.9,0,0,0,.882,1.682,8.408,8.408,0,0,0,6.371,3.173,6.521,6.521,0,0,0,5.259-2.428,6.524,6.524,0,0,0,1.51-3.7,9.546,9.546,0,0,0-.071-1.5" fill="#fafafa"/>
        <path id="Trazado_4203" data-name="Trazado 4203" d="M142.878,75.556a1.36,1.36,0,0,1-.312-.352,3.7,3.7,0,0,1-.559-1.159,4.737,4.737,0,0,1-.077-1.908,17.423,17.423,0,0,1,.519-2.261,16.06,16.06,0,0,1,1.833-3.781c.288-.453.532-.811.705-1.057a1.639,1.639,0,0,1,.292-.365,12.462,12.462,0,0,1-.835,1.52,18.9,18.9,0,0,0-1.74,3.76,20.227,20.227,0,0,0-.531,2.22A4.815,4.815,0,0,0,142.191,74a6.846,6.846,0,0,0,.687,1.557" fill="#fafafa"/>
        <path id="Trazado_4204" data-name="Trazado 4204" d="M152.577,63.771c.018-.006.071.125.154.367a6.494,6.494,0,0,1,.259,1.052,9.454,9.454,0,0,1-1.511,6.848,6.648,6.648,0,0,1-.677.846c-.178.185-.282.28-.295.268-.036-.032.34-.453.814-1.217a10.4,10.4,0,0,0,1.483-6.718c-.11-.892-.273-1.432-.227-1.446" fill="#fafafa"/>
        <path id="Trazado_4205" data-name="Trazado 4205" d="M119.063,87.723a.871.871,0,0,1-.225-.114,5.6,5.6,0,0,0-.625-.341,7.307,7.307,0,0,0-2.5-.7,7.6,7.6,0,0,0-3.76.6,6.426,6.426,0,0,0-1.878,1.245,3.931,3.931,0,0,0-.741.914,1.849,1.849,0,0,0-.256,1.125,1.335,1.335,0,0,0,.546.962,1.093,1.093,0,0,0,1.044.048,1.836,1.836,0,0,0,.951-1.8,3.645,3.645,0,0,0-1.9-3.081,3.747,3.747,0,0,0-2.509-.332,7.917,7.917,0,0,0-.911.295.9.9,0,0,1,.212-.137,3.367,3.367,0,0,1,.676-.258,3.75,3.75,0,0,1,2.619.264,3.817,3.817,0,0,1,2.058,3.244,2.642,2.642,0,0,1-.217,1.157,1.735,1.735,0,0,1-.873.885,1.35,1.35,0,0,1-1.294-.064,1.59,1.59,0,0,1-.667-1.151,2.1,2.1,0,0,1,.29-1.286,4.076,4.076,0,0,1,.791-.975,6.613,6.613,0,0,1,1.96-1.28,7.639,7.639,0,0,1,3.88-.566,6.948,6.948,0,0,1,2.524.8,4.207,4.207,0,0,1,.608.388.934.934,0,0,1,.194.159" fill="#fafafa"/>
        <path id="Trazado_4206" data-name="Trazado 4206" d="M120.915,91.96a3.378,3.378,0,0,1-.62,1.176c-.4.609-.78,1.069-.842,1.028a3.417,3.417,0,0,1,.62-1.176c.4-.608.78-1.068.842-1.028" fill="#fafafa"/>
        <path id="Trazado_4207" data-name="Trazado 4207" d="M127.418,99.293c-.042.012-.113-.183-.291-.447a2.658,2.658,0,0,0-2.082-1.159c-.319-.013-.522.029-.534-.012s.179-.139.528-.177a2.335,2.335,0,0,1,2.251,1.253c.151.316.157.536.128.542" fill="#fafafa"/>
        <path id="Trazado_4208" data-name="Trazado 4208" d="M106.26,96.682c.019.038-.616.353-1.6.917a13.878,13.878,0,0,0-3.485,2.692,7.419,7.419,0,0,0-1.844,3.914,9.04,9.04,0,0,0,.029,1.827,1.52,1.52,0,0,1-.147-.479,4.873,4.873,0,0,1-.069-1.367,7.178,7.178,0,0,1,1.832-4.071,12.516,12.516,0,0,1,3.593-2.681c.509-.265.93-.458,1.225-.584a1.75,1.75,0,0,1,.47-.168" fill="#fafafa"/>
        <path id="Trazado_4209" data-name="Trazado 4209" d="M113.786,99.183c-.017.02-.287-.169-.559-.616a3.421,3.421,0,0,1,.32-3.825c.342-.4.638-.538.651-.515.029.038-.22.23-.5.63a3.671,3.671,0,0,0-.3,3.621c.213.441.427.673.393.705" fill="#fafafa"/>
        <path id="Trazado_4210" data-name="Trazado 4210" d="M102.023,89.9c-.013.01-.091-.115-.294-.3a2.143,2.143,0,0,0-1.066-.475,2.676,2.676,0,0,0-1.787.374,5.429,5.429,0,0,0-1.7,1.791c-.507.777-.935,1.714-1.583,2.626a5.585,5.585,0,0,1-2.824,2.111,5.236,5.236,0,0,1-3.877-.226,5.549,5.549,0,0,1-2.852-3.04,3.3,3.3,0,0,1-.086-2.16,3.024,3.024,0,0,1,1.328-1.629,3.114,3.114,0,0,1,1.979-.453,3.26,3.26,0,0,1,1.758.836,4.3,4.3,0,0,1,1.39,3.22,5.326,5.326,0,0,1-.956,2.925A5.959,5.959,0,0,1,89.6,97.249a7.347,7.347,0,0,1-1.76.765,7.856,7.856,0,0,1-1.183.25c-.137.02-.242.028-.313.033a.4.4,0,0,1-.107,0,2.872,2.872,0,0,1,.411-.086,9.825,9.825,0,0,0,1.162-.3,7.562,7.562,0,0,0,1.711-.793A5.828,5.828,0,0,0,91.3,95.4a5.144,5.144,0,0,0,.892-2.821,4.079,4.079,0,0,0-1.332-3.035,3.013,3.013,0,0,0-1.625-.767,2.864,2.864,0,0,0-1.813.423,2.771,2.771,0,0,0-1.211,1.489,3.047,3.047,0,0,0,.085,1.987,5.306,5.306,0,0,0,2.711,2.893,5,5,0,0,0,3.69.229,5.381,5.381,0,0,0,2.723-2.007c.637-.88,1.079-1.815,1.6-2.6A5.528,5.528,0,0,1,98.8,89.378a2.744,2.744,0,0,1,1.879-.347,2.107,2.107,0,0,1,1.086.536,1.325,1.325,0,0,1,.258.336" fill="#fafafa"/>
        <path id="Trazado_4211" data-name="Trazado 4211" d="M102.194,97.884a2.486,2.486,0,0,1-.826-.653,5.639,5.639,0,0,1-1.418-4.754,2.468,2.468,0,0,1,.334-1c.044.014-.079.4-.147,1.025a6.262,6.262,0,0,0,1.372,4.6c.4.489.713.741.685.777" fill="#fafafa"/>
        <path id="Trazado_4212" data-name="Trazado 4212" d="M104.079,86.076c-.014.026-.361-.172-1.029-.435a12.437,12.437,0,0,0-2.925-.769,12.274,12.274,0,0,0-4.453.218,9.9,9.9,0,0,0-2.457.921,1.633,1.633,0,0,0-.814.972.925.925,0,0,0,.53,1.03.552.552,0,0,0,.54-.163,1.331,1.331,0,0,0,.306-.571,4.741,4.741,0,0,0,.118-1.361,6.15,6.15,0,0,0-.656-2.514,5.875,5.875,0,0,0-1.445-1.859,5.77,5.77,0,0,0-1.784-1.026,6.223,6.223,0,0,0-2.969-.295c-.706.113-1.078.268-1.087.242a1.131,1.131,0,0,1,.266-.119,4.887,4.887,0,0,1,.8-.225,6.07,6.07,0,0,1,3.048.219,5.849,5.849,0,0,1,1.864,1.035,6.042,6.042,0,0,1,1.524,1.917,6.352,6.352,0,0,1,.7,2.614,4.9,4.9,0,0,1-.124,1.445,1.581,1.581,0,0,1-.374.688.818.818,0,0,1-.8.23,1,1,0,0,1-.607-.55,1.288,1.288,0,0,1-.111-.788,1.88,1.88,0,0,1,.938-1.145,9.991,9.991,0,0,1,2.536-.937,12.187,12.187,0,0,1,4.537-.165,11.432,11.432,0,0,1,2.938.861,7.162,7.162,0,0,1,.743.375,1.154,1.154,0,0,1,.246.155" fill="#fafafa"/>
        <path id="Trazado_4213" data-name="Trazado 4213" d="M64.162,87.549c-.016-.022.318-.248.823-.76a7.159,7.159,0,0,0,1.611-2.54,5.573,5.573,0,0,0-.129-4.335A5.5,5.5,0,0,0,64.832,77.9a4.608,4.608,0,0,0-2.58-.968,2.982,2.982,0,0,0-1.356.283,1.719,1.719,0,0,0-.9.914,1.314,1.314,0,0,0,.185,1.189,1.933,1.933,0,0,0,.971.721,2.643,2.643,0,0,0,2.217-.377,3.749,3.749,0,0,0,1.345-1.526,7.678,7.678,0,0,0,.641-2.941c.015-.337.027-.613.036-.831a1.186,1.186,0,0,1,.025-.291,1.178,1.178,0,0,1,.028.29c.009.191.019.472.015.835a7.424,7.424,0,0,1-.574,3.019,3.926,3.926,0,0,1-1.4,1.631,2.868,2.868,0,0,1-2.413.426,2.169,2.169,0,0,1-1.106-.812,1.572,1.572,0,0,1-.221-1.419,1.969,1.969,0,0,1,1.032-1.066,3.225,3.225,0,0,1,1.48-.312,4.844,4.844,0,0,1,2.729,1.028,5.673,5.673,0,0,1,1.7,2.121,5.346,5.346,0,0,1,.506,2.406,6.192,6.192,0,0,1-.422,2.1,6.9,6.9,0,0,1-1.714,2.548,5.207,5.207,0,0,1-.647.532,1.228,1.228,0,0,1-.249.154" fill="#fafafa"/>
        <path id="Trazado_4214" data-name="Trazado 4214" d="M74.779,95.169a2.081,2.081,0,0,1-.4-.426,8.323,8.323,0,0,1-.877-1.332,9.455,9.455,0,0,1,.661-10.024,8.411,8.411,0,0,1,1.044-1.206,2.134,2.134,0,0,1,.453-.369,21.494,21.494,0,0,0-1.342,1.682,9.732,9.732,0,0,0-.648,9.831,21.347,21.347,0,0,0,1.11,1.844" fill="#fafafa"/>
        <path id="Trazado_4215" data-name="Trazado 4215" d="M84.789,84.03c-.049.017-.261-.771-.9-1.9a10.525,10.525,0,0,0-8.1-5.355c-1.289-.141-2.1-.028-2.1-.08a2.062,2.062,0,0,1,.563-.1,8.908,8.908,0,0,1,1.555-.01,10.138,10.138,0,0,1,8.244,5.452,8.981,8.981,0,0,1,.6,1.435,2.046,2.046,0,0,1,.131.556" fill="#fafafa"/>
        <g id="Grupo_687" data-name="Grupo 687" opacity="0.3">
          <g id="Grupo_686" data-name="Grupo 686">
            <g id="Grupo_685" data-name="Grupo 685" clip-path="url(#clip-path-9)">
              <path id="Trazado_4216" data-name="Trazado 4216" d="M98.785,98.365c-.488.209-.442.989-.033,1.327a2.187,2.187,0,0,0,1.521.325,19.766,19.766,0,0,0,15.175-8.523c-4.631,3.8-10.7,5.234-16.546,6.559"/>
            </g>
          </g>
        </g>
        <g id="Grupo_690" data-name="Grupo 690" opacity="0.3">
          <g id="Grupo_689" data-name="Grupo 689">
            <g id="Grupo_688" data-name="Grupo 688" clip-path="url(#clip-path-10)">
              <path id="Trazado_4217" data-name="Trazado 4217" d="M97.871,93.139a2.1,2.1,0,0,1,.486-2.512,8.439,8.439,0,0,1,2.368-1.409,14.968,14.968,0,0,0,6.9-7.087c.93-2.017,1.637-4.493,3.7-5.322A20,20,0,0,1,98.156,92.514"/>
            </g>
          </g>
        </g>
        <g id="Grupo_693" data-name="Grupo 693" opacity="0.3">
          <g id="Grupo_692" data-name="Grupo 692">
            <g id="Grupo_691" data-name="Grupo 691" clip-path="url(#clip-path-11)">
              <path id="Trazado_4218" data-name="Trazado 4218" d="M83.329,66.582a51.992,51.992,0,0,1-1.179,16.74,14.368,14.368,0,0,0-.571,3.528,4.686,4.686,0,0,0,1.7,3.311c.852-1.958.866-3.848,1.225-5.959.323-1.9.863-6.342.865-6.407a25.149,25.149,0,0,0-2.334-10.712"/>
            </g>
          </g>
        </g>
        <g id="Grupo_696" data-name="Grupo 696" opacity="0.3">
          <g id="Grupo_695" data-name="Grupo 695">
            <g id="Grupo_694" data-name="Grupo 694" clip-path="url(#clip-path-12)">
              <path id="Trazado_4219" data-name="Trazado 4219" d="M92.985,49.767a20.412,20.412,0,0,0,5.8,10.877,5.988,5.988,0,0,0,4.121,2.073,9.643,9.643,0,0,1-.791-6.037,24.947,24.947,0,0,0,4.219,2.294,8.381,8.381,0,0,0,4.713.536L112.028,51a1.571,1.571,0,0,0-.088-.95c-.158-.283-.59-.429-.811-.193a.784.784,0,0,0-.16.372c-.578,2.487-.9,4.713-1.475,7.2-.414.411-1.691.241-2.53-.069-.733-.27-1.013-.875-1.5-1.486s-.4-.5-1.116-.809c-1.319-.561-3.855-.114-4.408,1.071s-.134,2.747.233,3.911A17.747,17.747,0,0,1,92.7,49.679"/>
            </g>
          </g>
        </g>
        <g id="Grupo_699" data-name="Grupo 699" opacity="0.3">
          <g id="Grupo_698" data-name="Grupo 698">
            <g id="Grupo_697" data-name="Grupo 697" clip-path="url(#clip-path-13)">
              <path id="Trazado_4220" data-name="Trazado 4220" d="M120.915,61.78c-.1.206,3.189,11.31,3.189,11.31l-4.268-2.433Z"/>
            </g>
          </g>
        </g>
        <path id="Trazado_4221" data-name="Trazado 4221" d="M94.4,29.562V47.243A4.286,4.286,0,0,0,95.409,50a12.941,12.941,0,0,0,3.55,2.941l3.566,2.009,2.95-2.634a4.3,4.3,0,0,0,1.428-3.031c.052-1.289.051-2.586.051-2.586s5-.359,5.468-5.287c.22-2.322.291-7.075.3-11.455a9.586,9.586,0,0,0-8.8-9.577l-.141-.011a9.162,9.162,0,0,0-9.384,9.19" fill="#ffc09d"/>
        <path id="Trazado_4222" data-name="Trazado 4222" d="M106.953,46.7a11.94,11.94,0,0,1-6.267-2.431s1.294,3.74,6.254,3.7Z" fill="#ff9b6c"/>
        <path id="Trazado_4223" data-name="Trazado 4223" d="M111.265,33.128a.707.707,0,0,1-.738.655.675.675,0,0,1-.673-.695.706.706,0,0,1,.737-.655.675.675,0,0,1,.674.695" fill="#1a2e35"/>
        <path id="Trazado_4224" data-name="Trazado 4224" d="M111.465,31.949c-.095.085-.6-.354-1.354-.415s-1.346.272-1.42.173c-.038-.044.065-.2.322-.36a1.947,1.947,0,0,1,1.146-.252,1.874,1.874,0,0,1,1.069.446c.218.2.283.371.237.408" fill="#1a2e35"/>
        <path id="Trazado_4225" data-name="Trazado 4225" d="M104.114,32.769a.707.707,0,0,1-.737.655.675.675,0,0,1-.674-.695.706.706,0,0,1,.737-.655.674.674,0,0,1,.674.695" fill="#1a2e35"/>
        <path id="Trazado_4226" data-name="Trazado 4226" d="M104,31.474c-.1.084-.6-.354-1.354-.416s-1.346.272-1.42.173c-.038-.044.065-.2.323-.359a1.931,1.931,0,0,1,1.145-.252,1.874,1.874,0,0,1,1.069.445c.217.2.284.371.237.409" fill="#1a2e35"/>
        <path id="Trazado_4227" data-name="Trazado 4227" d="M106.286,37.325a5.015,5.015,0,0,1,1.25-.121c.195,0,.382-.027.426-.156a1,1,0,0,0-.082-.585q-.216-.726-.45-1.522a25.154,25.154,0,0,1-.967-3.962,25.492,25.492,0,0,1,1.283,3.875c.148.534.29,1.042.426,1.529a1.129,1.129,0,0,1,.037.768.488.488,0,0,1-.342.257,1.354,1.354,0,0,1-.332.019,5.013,5.013,0,0,1-1.249-.1" fill="#1a2e35"/>
        <path id="Trazado_4228" data-name="Trazado 4228" d="M104.012,37.664c.124,0,.058.825.714,1.468s1.539.625,1.536.74c.007.053-.209.144-.58.123a2.057,2.057,0,0,1-1.286-.571,1.792,1.792,0,0,1-.546-1.227c0-.346.106-.543.162-.533" fill="#1a2e35"/>
        <path id="Trazado_4229" data-name="Trazado 4229" d="M104.443,28.519c-.093.2-.841.039-1.739.073-.9.015-1.639.216-1.741.022-.045-.093.1-.277.4-.452a3.029,3.029,0,0,1,2.651-.073c.316.159.467.334.427.43" fill="#1a2e35"/>
        <path id="Trazado_4230" data-name="Trazado 4230" d="M111.368,29.732c-.147.161-.655-.061-1.282-.121-.625-.083-1.169.019-1.278-.171-.045-.092.052-.258.3-.4a1.865,1.865,0,0,1,2.063.235c.207.195.265.379.2.458" fill="#1a2e35"/>
        <path id="Trazado_4231" data-name="Trazado 4231" d="M100.205,24.595l-.029.02A3.9,3.9,0,0,0,98.525,27c-.007.034-.014.068-.021.1-.31,1.391-.394,2.826-.716,4.214s-.264,2.449-1.654,2.762a1.85,1.85,0,0,1-1.936-.787,1.207,1.207,0,0,1-.123-.659c.019-3.42-.669-4.748-.369-8.3A3.006,3.006,0,0,1,95.151,22c.788-.471,1.742-.949,2.536-.489s1.738,2.1,2.325,2.805" fill="#1a2e35"/>
        <path id="Trazado_4232" data-name="Trazado 4232" d="M95.879,31.932c-.081-.043-3.307-1.283-3.479,2.1s3.26,2.856,3.271,2.759.208-4.858.208-4.858" fill="#ffc09d"/>
        <path id="Trazado_4233" data-name="Trazado 4233" d="M94.7,35.457c-.014-.012-.061.038-.162.078a.585.585,0,0,1-.442-.013,1.458,1.458,0,0,1-.608-1.341,1.954,1.954,0,0,1,.208-.836.682.682,0,0,1,.466-.43.3.3,0,0,1,.34.18c.04.1.015.163.033.17s.075-.054.056-.195a.382.382,0,0,0-.123-.218.444.444,0,0,0-.322-.1.827.827,0,0,0-.641.493,1.991,1.991,0,0,0-.252.933,1.531,1.531,0,0,0,.785,1.5.631.631,0,0,0,.543-.063c.109-.078.131-.152.119-.159" fill="#ff9b6c"/>
        <path id="Trazado_4234" data-name="Trazado 4234" d="M97.531,22.021c-.719-1.418,1.717-3.168,3.426-3.555s3.834.607,5.445,1.293a9.237,9.237,0,0,0,3.122,1.049,7.514,7.514,0,0,0,2.184-.368,5.466,5.466,0,0,1,2.192-.247,2.041,2.041,0,0,1,1.683,1.272,1.281,1.281,0,0,1-1,1.652,1.661,1.661,0,1,1,.187,3.1c.51-.323,1.195.338,1.087.932a1.749,1.749,0,0,1-1.26,1.181,6.338,6.338,0,0,1-4.5-.442c-1.416-.61-2.7-1.485-4.1-2.131s-3.74-1.79-5.231-1.4c-1.1.288-1.946,1.512-2.525,1.178a2.068,2.068,0,0,1-.942-1.6,5.991,5.991,0,0,1,.225-1.915" fill="#1a2e35"/>
        <path id="Trazado_4235" data-name="Trazado 4235" d="M115,23.057c-.027-.02-.194.235-.59.6a4.671,4.671,0,0,1-1.973,1.051,4.286,4.286,0,0,1-3.207-.4,15.251,15.251,0,0,1-3.05-2.781,7.019,7.019,0,0,0-3.641-2.135,3.9,3.9,0,0,0-3.318.849,2.964,2.964,0,0,0-.946,2.118,2.287,2.287,0,0,0,.094.632c.05.137.083.206.094.2a5.387,5.387,0,0,1-.058-.831,2.916,2.916,0,0,1,.975-1.946,3.7,3.7,0,0,1,3.1-.722,6.854,6.854,0,0,1,3.46,2.068,14.735,14.735,0,0,0,3.138,2.814,4.6,4.6,0,0,0,5.42-.831,3.18,3.18,0,0,0,.4-.5c.078-.122.114-.189.1-.2" fill="#375a64"/>
        <path id="Trazado_4236" data-name="Trazado 4236" d="M95.033,31.714c.012.013.153-.081.3-.338a2.279,2.279,0,0,0,.269-1.209c.016-1.093-.849-2.339-.847-3.85a3.4,3.4,0,0,1,.54-1.983,2.576,2.576,0,0,1,1.343-.978A2.186,2.186,0,0,1,97.78,23.3c.268.065.408.141.423.115s-.11-.129-.386-.24a2.1,2.1,0,0,0-1.239-.043,2.721,2.721,0,0,0-1.531,1.029,3.586,3.586,0,0,0-.623,2.164A6.161,6.161,0,0,0,94.9,28.5a6.423,6.423,0,0,1,.471,1.68,2.611,2.611,0,0,1-.336,1.534" fill="#375a64"/>
        <path id="Trazado_4237" data-name="Trazado 4237" d="M108.946,129.4s-.259.012-.763.021-1.256.017-2.236.031c-1.966.031-4.864.1-8.594.289s-8.287.521-13.555,1.124c-2.633.316-5.446.678-8.413,1.17-2.968.474-6.092,1.065-9.345,1.806s-6.638,1.624-10.1,2.754a67.62,67.62,0,0,0-10.473,4.321,34.167,34.167,0,0,0-5.022,3.208,16.043,16.043,0,0,0-4.112,4.5c-.125.226-.26.448-.377.678l-.29.723-.146.361c-.04.124-.063.253-.1.378l-.183.761a7.64,7.64,0,0,0,.153,3.126,11.445,11.445,0,0,0,3.443,5.371,37.712,37.712,0,0,0,11.546,6.872,94.707,94.707,0,0,0,13.454,4.255,176.93,176.93,0,0,0,29.368,4.325,233.059,233.059,0,0,0,29.713.116,186.928,186.928,0,0,0,27.431-3.579,115.916,115.916,0,0,0,12.439-3.355,61.8,61.8,0,0,0,11.117-4.843,30.306,30.306,0,0,0,4.687-3.339,13.545,13.545,0,0,0,3.4-4.32l.251-.626a3.259,3.259,0,0,0,.218-.632l.156-.647c.023-.109.057-.215.072-.324l.027-.33a6.47,6.47,0,0,0-.193-2.584,9.135,9.135,0,0,0-1.083-2.312,14.151,14.151,0,0,0-1.586-1.947,23.826,23.826,0,0,0-3.749-3.091,39.561,39.561,0,0,0-3.974-2.369,68.9,68.9,0,0,0-7.748-3.449,116.563,116.563,0,0,0-12.989-4.005c-3.622-.9-6.465-1.475-8.4-1.844-.964-.193-1.7-.316-2.2-.41s-.748-.146-.748-.146,1.021.151,2.956.5,4.782.906,8.411,1.8a114.793,114.793,0,0,1,13.015,3.966,68.4,68.4,0,0,1,7.775,3.438,40,40,0,0,1,4,2.37,24.17,24.17,0,0,1,3.784,3.109,14.257,14.257,0,0,1,1.611,1.972,9.352,9.352,0,0,1,1.112,2.365,6.665,6.665,0,0,1,.2,2.66l-.027.338c-.015.112-.049.221-.074.332l-.159.665a3.432,3.432,0,0,1-.221.647l-.256.64a13.747,13.747,0,0,1-3.439,4.393A30.56,30.56,0,0,1,174.017,164a62.063,62.063,0,0,1-11.153,4.874A116.368,116.368,0,0,1,150.4,172.25a186.744,186.744,0,0,1-27.468,3.6,232.84,232.84,0,0,1-29.747-.111A176.821,176.821,0,0,1,63.776,171.4a94.947,94.947,0,0,1-13.489-4.273,37.952,37.952,0,0,1-11.619-6.93,11.693,11.693,0,0,1-3.506-5.49,7.852,7.852,0,0,1-.154-3.224l.188-.783c.033-.13.058-.263.1-.39l.149-.371.3-.741c.121-.236.258-.463.386-.694a16.281,16.281,0,0,1,4.174-4.561,34.514,34.514,0,0,1,5.061-3.225A67.655,67.655,0,0,1,55.877,136.4c3.47-1.126,6.863-2.007,10.121-2.741s6.388-1.322,9.361-1.79c2.97-.488,5.786-.842,8.421-1.152,5.274-.587,9.837-.9,13.568-1.079s6.632-.225,8.6-.24l2.236,0c.5,0,.763.007.763.007" fill="#ff4f5b"/>
        <path id="Trazado_4238" data-name="Trazado 4238" d="M67.087,90.591s-.291.064-.861.179-1.421.273-2.532.511c-2.22.462-5.493,1.174-9.651,2.311a98.876,98.876,0,0,0-14.785,5.227c-1.39.637-2.811,1.336-4.231,2.143a40.032,40.032,0,0,0-4.245,2.724,23.432,23.432,0,0,0-3.92,3.6A12.359,12.359,0,0,0,24.2,112.16a8.952,8.952,0,0,0,.422,5.737,14.842,14.842,0,0,0,3.546,4.959,39.871,39.871,0,0,0,10.975,7.006c8.249,3.749,17.67,6.262,27.669,8.139a232.144,232.144,0,0,0,31.746,3.5,273.544,273.544,0,0,0,34.289-.611,198.584,198.584,0,0,0,33.831-5.512,101.367,101.367,0,0,0,15.409-5.291,52.744,52.744,0,0,0,6.961-3.716,26.524,26.524,0,0,0,5.865-4.947,11.1,11.1,0,0,0,2.908-6.724,5.835,5.835,0,0,0-.032-.915,6.122,6.122,0,0,0-.1-.907l-.2-.889a6.133,6.133,0,0,0-.292-.86,12.793,12.793,0,0,0-1.757-3.141,24.1,24.1,0,0,0-5.2-4.8,47.219,47.219,0,0,0-5.947-3.477,84.14,84.14,0,0,0-12.182-4.782c-4.013-1.255-7.928-2.25-11.687-3.083a225.226,225.226,0,0,0-36.167-4.613c-4.305-.223-7.653-.233-9.921-.29l-2.581-.057c-.581-.014-.879-.028-.879-.028s.3,0,.879,0l2.582.03c2.269.04,5.618.033,9.925.24a222.694,222.694,0,0,1,36.2,4.533c3.766.827,7.687,1.819,11.709,3.071a84.175,84.175,0,0,1,12.217,4.78A47.253,47.253,0,0,1,190.384,103a24.358,24.358,0,0,1,5.251,4.845,13.033,13.033,0,0,1,1.793,3.2,6.287,6.287,0,0,1,.3.88l.206.912a6.28,6.28,0,0,1,.1.932,6.01,6.01,0,0,1,.033.939,9.542,9.542,0,0,1-.888,3.665,13.605,13.605,0,0,1-2.072,3.208,26.755,26.755,0,0,1-5.917,5,52.922,52.922,0,0,1-6.993,3.737,101.52,101.52,0,0,1-15.446,5.311,198.25,198.25,0,0,1-33.877,5.525,272.913,272.913,0,0,1-34.322.607,231.8,231.8,0,0,1-31.778-3.521c-10.011-1.885-19.446-4.41-27.718-8.179A40.047,40.047,0,0,1,28.029,123a15.06,15.06,0,0,1-3.586-5.033,9.142,9.142,0,0,1-.42-5.858,12.53,12.53,0,0,1,2.7-4.941,23.5,23.5,0,0,1,3.955-3.622,39.841,39.841,0,0,1,4.268-2.727c1.427-.806,2.853-1.5,4.247-2.14a98.324,98.324,0,0,1,14.82-5.192c4.165-1.121,7.443-1.817,9.668-2.262s3.4-.638,3.4-.638" fill="#ff4f5b"/>
        <path id="Trazado_4239" data-name="Trazado 4239" d="M85.042,167.887l-2.555.4c-1.674.27-4.139.694-7.286,1.381a92.985,92.985,0,0,0-11.284,3.182,52.662,52.662,0,0,0-6.71,2.915,29.129,29.129,0,0,0-3.4,2.082,17.636,17.636,0,0,0-3.13,2.787,10.1,10.1,0,0,0-1.236,1.781,7.022,7.022,0,0,0-.764,2.072c-.028.184-.072.368-.09.554l-.033.563c0,.377.048.756.082,1.134a11.155,11.155,0,0,0,.294,1.111l.217.538.109.269.144.255a12.634,12.634,0,0,0,3.077,3.622A25.356,25.356,0,0,0,56.6,195.3a54.546,54.546,0,0,0,9.658,4.031,100.043,100.043,0,0,0,10.766,2.753,160.5,160.5,0,0,0,23.692,2.831,192.905,192.905,0,0,0,25.619-.445,136.521,136.521,0,0,0,25.234-4.35,63.4,63.4,0,0,0,11.369-4.332,28.445,28.445,0,0,0,4.946-3.194c.391-.29.72-.65,1.08-.97s.651-.708.978-1.057a9.38,9.38,0,0,0,1.457-2.435,6.525,6.525,0,0,0-.225-5.4,12.973,12.973,0,0,0-3.528-4.108,36.02,36.02,0,0,0-9.156-5.011,77.332,77.332,0,0,0-9.319-2.984c-3.042-.785-6-1.4-8.831-1.9a174.827,174.827,0,0,0-27.131-2.483l-10-.054s3.562-.046,10-.008a173.305,173.305,0,0,1,27.15,2.433c2.837.5,5.795,1.11,8.842,1.893a77.418,77.418,0,0,1,9.337,2.981,36.08,36.08,0,0,1,9.195,5.025,13.107,13.107,0,0,1,3.569,4.153,6.683,6.683,0,0,1,.234,5.519,9.575,9.575,0,0,1-1.479,2.475c-.33.354-.633.738-.99,1.07s-.694.686-1.088.978a28.535,28.535,0,0,1-4.971,3.215,63.705,63.705,0,0,1-11.4,4.348,136.585,136.585,0,0,1-25.263,4.357,192.719,192.719,0,0,1-25.641.443A160.544,160.544,0,0,1,77,202.234a100.359,100.359,0,0,1-10.78-2.764,54.644,54.644,0,0,1-9.68-4.049,25.513,25.513,0,0,1-4.144-2.788,12.773,12.773,0,0,1-3.1-3.662l-.145-.259-.111-.274-.219-.547a11.206,11.206,0,0,1-.3-1.131c-.035-.387-.079-.772-.082-1.156l.034-.574c.018-.19.062-.376.092-.564a7.107,7.107,0,0,1,.778-2.1,10.25,10.25,0,0,1,1.251-1.8,17.873,17.873,0,0,1,3.154-2.8,29.27,29.27,0,0,1,3.42-2.084,52.471,52.471,0,0,1,6.727-2.909,91.971,91.971,0,0,1,11.3-3.158c3.15-.679,5.619-1.094,7.294-1.352s2.56-.371,2.56-.371" fill="#ff4f5b"/>
        <path id="Trazado_4240" data-name="Trazado 4240" d="M151.926,214.726a5.257,5.257,0,0,0-.425-1.866,9.77,9.77,0,0,0-3.75-3.955c-4.025-2.65-10.753-4.874-19.222-6.235a117.2,117.2,0,0,0-13.974-1.368,134.294,134.294,0,0,0-16.112.3c-2.83.225-5.724.551-8.66,1.018a82.407,82.407,0,0,0-8.893,1.876c-1.491.4-2.98.866-4.453,1.407a35.967,35.967,0,0,0-4.346,1.894,17.585,17.585,0,0,0-3.939,2.728,5.209,5.209,0,0,0-.006,8.4,17.557,17.557,0,0,0,3.939,2.729,35.689,35.689,0,0,0,4.348,1.9c1.473.542,2.962,1.007,4.453,1.409a82.458,82.458,0,0,0,8.9,1.876c2.936.467,5.83.794,8.661,1.018a134.121,134.121,0,0,0,16.114.3,117.2,117.2,0,0,0,13.974-1.368c8.469-1.361,15.2-3.585,19.221-6.235a9.766,9.766,0,0,0,3.749-3.955,5.254,5.254,0,0,0,.425-1.865c0,.077-.014.207-.033.489a2.7,2.7,0,0,1-.107.594,3.9,3.9,0,0,1-.265.791,9.753,9.753,0,0,1-3.746,3.98c-4.027,2.667-10.757,4.9-19.232,6.275a116.754,116.754,0,0,1-13.983,1.383,133.821,133.821,0,0,1-16.125-.287c-2.833-.223-5.73-.548-8.669-1.015a82.748,82.748,0,0,1-8.907-1.876c-1.494-.4-2.986-.867-4.463-1.41a35.72,35.72,0,0,1-4.36-1.9A17.629,17.629,0,0,1,68.072,219a7.716,7.716,0,0,1-1.51-1.918,4.6,4.6,0,0,1,0-4.724,7.728,7.728,0,0,1,1.511-1.916,17.7,17.7,0,0,1,3.964-2.744,35.863,35.863,0,0,1,4.36-1.9c1.476-.542,2.967-1.008,4.462-1.409a82.663,82.663,0,0,1,8.9-1.876c2.938-.466,5.834-.792,8.667-1.015a134.214,134.214,0,0,1,16.124-.287,116.965,116.965,0,0,1,13.982,1.383c8.474,1.371,15.205,3.609,19.233,6.275a9.756,9.756,0,0,1,3.747,3.98,3.888,3.888,0,0,1,.265.792,2.691,2.691,0,0,1,.107.594c.019.281.028.412.033.489" fill="#ff4f5b"/>
        <path id="Trazado_4241" data-name="Trazado 4241" d="M38.761,135.282a1.636,1.636,0,1,1-1.635-1.635,1.635,1.635,0,0,1,1.635,1.635" fill="#ff4f5b"/>
        <path id="Trazado_4242" data-name="Trazado 4242" d="M186.655,136.39a1.635,1.635,0,1,1-1.636-1.635,1.636,1.636,0,0,1,1.636,1.635" fill="#ff4f5b"/>
        <path id="Trazado_4243" data-name="Trazado 4243" d="M119.955,196.647a1.636,1.636,0,1,1-1.636-1.636,1.635,1.635,0,0,1,1.636,1.636" fill="#ff4f5b"/>
        <path id="Trazado_4244" data-name="Trazado 4244" d="M70.3,154.622a.817.817,0,1,1-.817-.817.817.817,0,0,1,.817.817" fill="#ff4f5b"/>
        <path id="Trazado_4245" data-name="Trazado 4245" d="M171.977,174.438a.818.818,0,1,1-.817-.817.817.817,0,0,1,.817.817" fill="#ff4f5b"/>
        <path id="Trazado_4246" data-name="Trazado 4246" d="M107.43,212.254a.818.818,0,1,1-.817-.817.817.817,0,0,1,.817.817" fill="#ff4f5b"/>
        <path id="Trazado_4247" data-name="Trazado 4247" d="M65.162,69.106a.41.41,0,1,1-.41-.411.41.41,0,0,1,.41.411" fill="#ff4f5b"/>
        <path id="Trazado_4248" data-name="Trazado 4248" d="M138.471,132.005c-19.859,5.258-39,4.858-59.862,0L76.173,93.87a148.583,148.583,0,0,0,62.3-.9Z" fill="#ff4f5b"/>
        <g id="Grupo_702" data-name="Grupo 702" opacity="0.8">
          <g id="Grupo_701" data-name="Grupo 701">
            <g id="Grupo_700" data-name="Grupo 700" clip-path="url(#clip-path-14)">
              <path id="Trazado_4249" data-name="Trazado 4249" d="M138.471,132.005c-19.859,5.258-39,4.858-59.862,0L76.173,93.87a148.583,148.583,0,0,0,62.3-.9Z" fill="#fff"/>
            </g>
          </g>
        </g>
        <path id="Trazado_4250" data-name="Trazado 4250" d="M135.393,126.206a.522.522,0,0,1-.124.062l-.375.16c-.333.132-.815.347-1.456.576a54.832,54.832,0,0,1-5.5,1.724,71.82,71.82,0,0,1-18.841,2.151,109.941,109.941,0,0,1-18.88-2.021c-2.389-.453-4.311-.873-5.636-1.18-.662-.151-1.173-.28-1.521-.366l-.4-.1a.574.574,0,0,1-.131-.044.5.5,0,0,1,.138.017l.4.077,1.532.315c1.33.276,3.257.667,5.647,1.1a115.926,115.926,0,0,0,18.849,1.938,74.158,74.158,0,0,0,18.791-2.065c2.353-.591,4.227-1.187,5.507-1.64.645-.213,1.134-.413,1.472-.528l.384-.135a.6.6,0,0,1,.135-.037" fill="#ff4f5b"/>
        <path id="Trazado_4251" data-name="Trazado 4251" d="M106.216,127.762a13.055,13.055,0,0,1-7.646-.256V113.932a19.186,19.186,0,0,1,7.646,0Z" fill="#ff4f5b"/>
        <path id="Trazado_4252" data-name="Trazado 4252" d="M118.558,126.953a.475.475,0,0,1-.011-.1c0-.08-.007-.177-.011-.295q-.012-.416-.032-1.134c-.019-1-.048-2.43-.084-4.215-.053-3.6-.13-8.643-.217-14.486l.1.124a20.464,20.464,0,0,0-7.913.006l.108-.133,0,.269c.081,8.021.155,15.267.207,20.441l-.074-.09a17.878,17.878,0,0,0,3.332.406,12.2,12.2,0,0,0,2.518-.207,12.46,12.46,0,0,0,1.544-.4l.386-.135a.954.954,0,0,1,.142-.044.5.5,0,0,1-.122.062l-.389.167a10.917,10.917,0,0,1-1.542.456,12.031,12.031,0,0,1-2.539.252,17.552,17.552,0,0,1-3.367-.372l-.073-.014v-.075c-.073-5.173-.175-12.418-.288-20.44l0-.269,0-.113.11-.02a20.622,20.622,0,0,1,8.014.007l.1.02v.1c.044,5.871.082,10.935.11,14.553,0,1.777.009,3.2.011,4.195q0,.707-.005,1.112c0,.115,0,.208-.006.285a.315.315,0,0,1-.009.091" fill="#ff4f5b"/>
        <path id="Trazado_4253" data-name="Trazado 4253" d="M130.31,125.356c-2.048,1.108-4.742,1.255-7.646,1.088V104.027a16.317,16.317,0,0,1,7.646,0Z" fill="#ff4f5b"/>
        <path id="Trazado_4254" data-name="Trazado 4254" d="M94.076,126.651a5.554,5.554,0,0,1-.025-.574q-.012-.593-.031-1.567c-.014-1.365-.035-3.253-.059-5.505l.074.108a17.119,17.119,0,0,0-7.36-1.223h-.014l.12-.133c-.006,2.8-.013,5.418-.017,7.647l-.072-.106a14.257,14.257,0,0,0,2.952.842c.905.163,1.7.257,2.36.323l1.53.129c.337.028.533.051.542.058a3.751,3.751,0,0,1-.545.013c-.355-.007-.876-.022-1.538-.067s-1.466-.121-2.381-.269a13.969,13.969,0,0,1-3.009-.817l-.07-.028V125.4c-.006-2.229-.012-4.849-.019-7.647v-.123l.122-.009h.013a16.978,16.978,0,0,1,7.468,1.272l.075.028V119c-.024,2.283-.045,4.2-.059,5.581-.013.637-.023,1.152-.031,1.54a3.6,3.6,0,0,1-.026.525" fill="#ff4f5b"/>
        <path id="Trazado_4255" data-name="Trazado 4255" d="M97.673,106.816a7.7,7.7,0,0,1-1.5.092c-.925.014-2.2,0-3.612-.086s-2.683-.215-3.6-.338a7.657,7.657,0,0,1-1.475-.267,9.132,9.132,0,0,1,1.5.079c.92.075,2.19.176,3.6.259s2.677.131,3.6.164a9.414,9.414,0,0,1,1.494.1" fill="#ff4f5b"/>
        <path id="Trazado_4256" data-name="Trazado 4256" d="M96.534,108.485a6.5,6.5,0,0,1-1.312-.007c-.81-.037-1.927-.108-3.161-.2s-2.349-.194-3.155-.28a6.307,6.307,0,0,1-1.3-.195,6.507,6.507,0,0,1,1.317.006c.809.038,1.925.109,3.157.2s2.345.2,3.15.282a6.473,6.473,0,0,1,1.3.194" fill="#ff4f5b"/>
        <path id="Trazado_4257" data-name="Trazado 4257" d="M99.331,110.671a4.449,4.449,0,0,1,.006-.476c.014-.327.03-.767.053-1.321.054-1.157.13-2.786.225-4.786l.1.1a109.736,109.736,0,0,1-14.152-.785l.149-.125v.053l0,.055-.007.108-.012.216-.025.431c-.017.286-.033.571-.05.854q-.049.849-.1,1.675c-.066,1.1-.13,2.166-.191,3.186l-.11-.133c4.092.5,7.628.717,10.134.814l2.933.089.772.023a2.407,2.407,0,0,1,.281.019,1.489,1.489,0,0,1-.26.02c-.174.006-.451.018-.794.022-.683.01-1.681.012-2.937-.016-2.511-.052-6.057-.233-10.16-.72l-.118-.014.007-.119c.058-1.02.117-2.086.18-3.187.031-.549.063-1.109.1-1.674q.024-.426.048-.855l.026-.431.013-.215,0-.109,0-.055,0-.026v-.024h0c-.032.026.283-.238.151-.126A120.121,120.121,0,0,0,99.712,104h.1l-.006.1c-.139,2.022-.252,3.668-.333,4.838q-.063.816-.1,1.3a3.355,3.355,0,0,1-.047.437" fill="#ff4f5b"/>
        <path id="Trazado_4258" data-name="Trazado 4258" d="M101.076,113.547a6.121,6.121,0,0,1-.985-1.367,4.838,4.838,0,0,1-.759-1.509,6.173,6.173,0,0,1,.985,1.368,4.9,4.9,0,0,1,.759,1.508" fill="#ff4f5b"/>
        <path id="Trazado_4259" data-name="Trazado 4259" d="M18.1,63.888l6.492,39.273S34.5,121.715,60.828,125.9L56.58,90.839S32.231,83.309,18.1,63.888" fill="#ff4f5b"/>
        <g id="Grupo_705" data-name="Grupo 705" opacity="0.8">
          <g id="Grupo_704" data-name="Grupo 704">
            <g id="Grupo_703" data-name="Grupo 703" clip-path="url(#clip-path-15)">
              <path id="Trazado_4260" data-name="Trazado 4260" d="M18.1,63.888l6.492,39.273S34.5,121.715,60.828,125.9L56.58,90.839S32.231,83.309,18.1,63.888" fill="#fff"/>
            </g>
          </g>
        </g>
        <path id="Trazado_4261" data-name="Trazado 4261" d="M57.433,123.1a.851.851,0,0,1-.168-.039l-.484-.141c-.441-.133-1.063-.323-1.856-.565-.8-.258-1.8-.522-2.911-.975l-1.792-.682c-.636-.239-1.308-.491-1.987-.818-1.371-.628-2.894-1.272-4.441-2.143-1.585-.8-3.193-1.805-4.875-2.876a48.985,48.985,0,0,1-9.783-8.48,29.18,29.18,0,0,1-3.529-4.924l-.009-.015,0-.023C24.41,93.764,23.369,87.04,22.621,82.21c-.359-2.395-.648-4.321-.85-5.666-.093-.651-.165-1.161-.217-1.525-.021-.163-.038-.294-.051-.4a.6.6,0,0,1-.008-.135.805.805,0,0,1,.033.132c.018.1.043.23.073.392.062.363.15.871.262,1.52.219,1.34.536,3.262.928,5.653l3.062,19.192-.012-.038a29.28,29.28,0,0,0,3.5,4.867,49.368,49.368,0,0,0,9.719,8.449c1.67,1.072,3.268,2.083,4.843,2.886,1.536.875,3.05,1.529,4.411,2.165.676.332,1.344.589,1.976.833l1.78.7c1.1.465,2.1.743,2.891,1.015l1.839.613.477.166a.868.868,0,0,1,.16.065" fill="#ff4f5b"/>
        <path id="Trazado_4262" data-name="Trazado 4262" d="M55.119,111.7a.532.532,0,0,1-.091.082c-.072.058-.164.131-.278.224l-1.1.852-4.136,3.167-.065.05-.048-.066c-1.391-1.926-3.107-4.3-5.058-7l.155.026c-1.219.867-2.52,1.793-3.878,2.761l-.129.091-.056-.148c-1.512-4.1-3.21-8.709-5-13.559q-.36-.984-.717-1.952l.244.014-3.158,6.269-.137.272-.1-.287c-2.747-7.92-5.081-14.652-6.6-19.018l.14-.008c-.415,1.748-.742,3.129-.971,4.09q-.169.69-.265,1.078c-.03.113-.054.2-.073.276a.391.391,0,0,1-.031.092.3.3,0,0,1,.012-.1c.014-.074.031-.165.054-.279.054-.262.13-.623.228-1.086.213-.966.518-2.353.9-4.107l.055-.248.085.24,6.7,18.982-.236-.016c1.012-2.014,2.065-4.113,3.15-6.272l.138-.275.106.288q.357.969.718,1.952c1.781,4.853,3.47,9.46,4.977,13.567l-.185-.058c1.364-.961,2.668-1.881,3.89-2.744l.091-.064.064.09c1.931,2.712,3.63,5.1,5.007,7.033l-.113-.018,4.18-3.108,1.12-.818c.121-.085.216-.154.292-.208a.536.536,0,0,1,.1-.063" fill="#ff4f5b"/>
        <path id="Trazado_4263" data-name="Trazado 4263" d="M54.21,92.863a2.278,2.278,0,0,1-.553-.123c-.351-.1-.854-.249-1.471-.454a49.722,49.722,0,0,1-4.73-1.855,50.325,50.325,0,0,1-4.519-2.321c-.562-.328-1.01-.6-1.313-.8a2.259,2.259,0,0,1-.458-.333,2.42,2.42,0,0,1,.511.244l1.351.728c1.143.612,2.737,1.429,4.538,2.243s3.467,1.468,4.682,1.92l1.441.532a2.338,2.338,0,0,1,.521.223" fill="#ff4f5b"/>
        <path id="Trazado_4264" data-name="Trazado 4264" d="M55.256,94.492a5.429,5.429,0,0,1-1.272-.225A28.83,28.83,0,0,1,51,93.374a29.249,29.249,0,0,1-2.874-1.2A5.511,5.511,0,0,1,47,91.54,7.062,7.062,0,0,1,48.2,92c.733.3,1.748.715,2.887,1.122s2.184.733,2.943.963a7.215,7.215,0,0,1,1.223.406" fill="#ff4f5b"/>
        <path id="Trazado_4265" data-name="Trazado 4265" d="M44.879,109.019c0,.325-.2.589-.44.589s-.442-.264-.442-.589.2-.588.442-.588.44.264.44.588" fill="#ff4f5b"/>
        <path id="Trazado_4266" data-name="Trazado 4266" d="M35.248,96.6c0,.325-.2.589-.441.589s-.442-.264-.442-.589.2-.588.442-.588.441.264.441.588" fill="#ff4f5b"/>
        <path id="Trazado_4267" data-name="Trazado 4267" d="M25.521,83.648c0,.325-.2.589-.441.589s-.442-.264-.442-.589.2-.588.442-.588.441.264.441.588" fill="#ff4f5b"/>
        <path id="Trazado_4268" data-name="Trazado 4268" d="M189.86,70.885l-3.253,39.9s-9.5,17.063-35.647,17.713l3.231-40.173s22.814-.925,35.669-17.44" fill="#ff4f5b"/>
        <path id="Trazado_4269" data-name="Trazado 4269" d="M189.376,68.805c-.853-2.763-2.919-6.7-7.838-7.518l-5.813,53.669s10.914-2.178,11.207-8.161c.025-.516,2.21-27.191,2.756-33.8a10.825,10.825,0,0,0-.312-4.194" fill="#ff4f5b"/>
        <g id="Grupo_708" data-name="Grupo 708" opacity="0.8">
          <g id="Grupo_707" data-name="Grupo 707">
            <g id="Grupo_706" data-name="Grupo 706" clip-path="url(#clip-path-16)">
              <path id="Trazado_4270" data-name="Trazado 4270" d="M189.86,70.885l-3.253,39.9s-9.5,17.063-35.647,17.713l3.231-40.173s22.814-.925,35.669-17.44" fill="#fff"/>
            </g>
          </g>
        </g>
        <path id="Trazado_4271" data-name="Trazado 4271" d="M189.081,81.057a23.658,23.658,0,0,0-4.168,12.9,10.8,10.8,0,0,1-.451,3.919,2.841,2.841,0,0,1-3.1,1.9c-1.334-.365-1.931-1.942-3.1-2.681a3.458,3.458,0,0,0-3.51.074,5.887,5.887,0,0,0-2.3,2.8c-.95,2.188-1.012,4.655-1.713,6.936s-2.418,4.578-4.8,4.682c-.87.037-1.73-.225-2.6-.2a5.349,5.349,0,0,0-4.3,3.052,15.744,15.744,0,0,0-1.358,5.324s13.94,1.328,29.59-17.151Z" fill="#ff4f5b"/>
        <path id="Trazado_4272" data-name="Trazado 4272" d="M166.916,105.26c0,.495-.245.9-.547.9s-.547-.4-.547-.9.245-.9.547-.9.547.4.547.9" fill="#ff4f5b"/>
        <path id="Trazado_4273" data-name="Trazado 4273" d="M173.484,88.671c0,.5-.245.9-.547.9s-.548-.4-.548-.9.245-.9.548-.9.547.4.547.9" fill="#ff4f5b"/>
        <path id="Trazado_4274" data-name="Trazado 4274" d="M188.767,82.983a1.091,1.091,0,0,1-.09.227l-.295.646c-.274.583-.661,1.4-1.149,2.438-1.014,2.111-2.445,5.092-4.157,8.659l-.056.117-.11-.07c-2.9-1.833-6.268-3.965-9.863-6.24l.2-.062c-.13.319-.27.663-.41,1.009-2.44,5.974-4.672,11.438-6.369,15.591l-.043.107-.1-.056c-2.459-1.384-4.465-2.494-5.86-3.252-.7-.378-1.242-.669-1.615-.858l-.427-.208a.688.688,0,0,1-.149-.067A12.09,12.09,0,0,1,160.513,102c1.412.728,3.434,1.812,5.906,3.174l-.143.051c1.68-4.16,3.891-9.633,6.309-15.616.14-.346.28-.689.41-1.009l.06-.147.135.085,9.844,6.269-.167.047,4.244-8.617c.512-1.022.919-1.833,1.207-2.409l.326-.631a1.289,1.289,0,0,1,.123-.211" fill="#ff4f5b"/>
      </g>
    </g>
  </g>
</svg>
