<svg id="Grupo_912" data-name="Grupo 912" xmlns="http://www.w3.org/2000/svg" xmlns:xlink="http://www.w3.org/1999/xlink" width="550.828" height="396.355" viewBox="0 0 550.828 396.355">
  <defs>
    <clipPath id="clip-path">
      <rect id="Rectángulo_988" data-name="Rectángulo 988" width="550.828" height="396.356" fill="none"/>
    </clipPath>
    <clipPath id="clip-path-2">
      <rect id="Rectángulo_987" data-name="Rectángulo 987" width="550.828" height="396.357" transform="translate(0 -0.001)" fill="none"/>
    </clipPath>
    <clipPath id="clip-path-3">
      <rect id="Rectángulo_874" data-name="Rectángulo 874" width="20.143" height="12.678" transform="translate(73.404 367.182)" fill="none"/>
    </clipPath>
    <clipPath id="clip-path-4">
      <rect id="Rectángulo_875" data-name="Rectángulo 875" width="14.503" height="30.131" transform="translate(84.461 326.575)" fill="none"/>
    </clipPath>
    <clipPath id="clip-path-5">
      <rect id="Rectángulo_983" data-name="Rectángulo 983" width="7.659" height="5.149" transform="translate(508.426 248.645)" fill="none"/>
    </clipPath>
    <clipPath id="clip-path-6">
      <rect id="Rectángulo_984" data-name="Rectángulo 984" width="24.318" height="14.516" transform="translate(510.775 239.492)" fill="none"/>
    </clipPath>
    <clipPath id="clip-path-7">
      <rect id="Rectángulo_985" data-name="Rectángulo 985" width="25.729" height="63.833" transform="translate(402.352 153.489)" fill="none"/>
    </clipPath>
    <clipPath id="clip-path-8">
      <rect id="Rectángulo_986" data-name="Rectángulo 986" width="23.306" height="13.728" transform="translate(397.53 140.92)" fill="none"/>
    </clipPath>
  </defs>
  <g id="Grupo_911" data-name="Grupo 911" clip-path="url(#clip-path)">
    <g id="Grupo_910" data-name="Grupo 910">
      <g id="Grupo_909" data-name="Grupo 909" clip-path="url(#clip-path-2)">
        <path id="Trazado_4877" data-name="Trazado 4877" d="M92.895,379.851c17.555-15.386,19.149-40.527,15.951-62.615-.533-3.688-.557-7.634-2.676-10.688s-6.471-4.818-9.613-2.893c-2.6,1.6-3.451,4.925-4.7,7.739a21.774,21.774,0,0,1-7.766,9.248c-2.221,1.482-5.054,2.553-7.522,1.526-3.387-1.41-4.25-5.778-4.633-9.463q-1.07-10.3-2.142-20.594c-.382-3.683-.786-7.443-2.316-10.81s-4.418-6.334-8.027-6.929-7.718,1.9-8.06,5.587a34.169,34.169,0,0,0,.4,4.595c.067,1.539-.46,3.309-1.863,3.894-1.422.593-3.01-.287-4.229-1.243-4.209-3.3-7.316-7.8-10.25-12.3s-5.811-9.113-9.7-12.787-9.017-6.359-14.322-6.077S.864,260.2.1,265.524c-.764,5.337,2.845,10.267,6.6,14.1a82.594,82.594,0,0,0,18.905,14.421c1.251.7,2.607,1.447,3.2,2.761,1.07,2.366-.986,5.06-3.32,6.134-2.643,1.217-5.652,1.26-8.485,1.914s-5.8,2.264-6.589,5.1c-1.092,3.928,2.49,7.525,5.871,9.766a70.848,70.848,0,0,0,22.157,9.728c2.816.691,5.761,1.247,8.155,2.908s4.076,4.824,3.043,7.562-4.328,3.945-7.223,3.731-5.6-1.473-8.418-2.194c-5.268-1.352-11.762-.283-14.52,4.447-1.813,3.108-1.559,7.131-.1,10.437a27.018,27.018,0,0,0,6.583,8.482c9.158,8.617,20.38,15.131,32.565,17.9S81.7,385.4,92.895,379.851" fill="#ececec"/>
        <path id="Trazado_4878" data-name="Trazado 4878" d="M95,396.257a162.527,162.527,0,0,0-9.36-29.674A331.518,331.518,0,0,0,68.63,332.517l-4.917-8.7c-1.621-2.853-3.228-5.681-4.97-8.35A165.8,165.8,0,0,0,47.851,300.7c-3.692-4.528-7.361-8.691-10.819-12.558s-6.768-7.4-9.913-10.5A131.563,131.563,0,0,0,11.2,264.153c-2-1.44-3.582-2.506-4.667-3.215l-1.237-.8a2.762,2.762,0,0,0-.435-.252,2.473,2.473,0,0,0,.4.31l1.2.855c1.059.745,2.618,1.847,4.589,3.317a139.2,139.2,0,0,1,15.733,13.624c3.115,3.111,6.388,6.659,9.831,10.532s7.085,8.051,10.755,12.579a167.643,167.643,0,0,1,10.817,14.73c1.729,2.657,3.319,5.462,4.941,8.322l4.912,8.7a339.852,339.852,0,0,1,17.024,33.974,165.283,165.283,0,0,1,9.466,29.527" fill="#e1e1e1"/>
        <path id="Trazado_4879" data-name="Trazado 4879" d="M58.546,315.462a7.49,7.49,0,0,0,.187-1.61c.082-1.038.149-2.544.2-4.407.117-3.721.1-8.868.063-14.541s.021-10.808.192-14.518c.082-1.855.163-3.357.232-4.393a7.411,7.411,0,0,0,.029-1.621,7.423,7.423,0,0,0-.293,1.594c-.15,1.031-.3,2.531-.446,4.389-.3,3.716-.433,8.869-.394,14.549.052,5.6.1,10.664.135,14.534.006,1.748.009,3.221.012,4.4a7.467,7.467,0,0,0,.078,1.62" fill="#e1e1e1"/>
        <path id="Trazado_4880" data-name="Trazado 4880" d="M10.246,311.837a10.291,10.291,0,0,0,1.912.018c1.227-.026,3-.074,5.194-.061,4.386-.01,10.446.189,17.121.7s12.7,1.254,17.039,1.908c2.173.312,3.925.612,5.137.811a10.252,10.252,0,0,0,1.9.25,10.061,10.061,0,0,0-1.847-.514c-1.2-.28-2.942-.653-5.112-1.029-4.333-.779-10.368-1.588-17.065-2.114a168.049,168.049,0,0,0-17.177-.5c-2.2.051-3.977.171-5.2.28a10,10,0,0,0-1.9.25" fill="#e1e1e1"/>
        <path id="Trazado_4881" data-name="Trazado 4881" d="M84.961,365.777a2.463,2.463,0,0,0,.261-.612l.621-1.8c.531-1.566,1.242-3.854,2.083-6.69C89.61,351,91.692,343.09,93.871,334.33s4.185-16.682,5.749-22.382c.769-2.772,1.4-5.052,1.872-6.746.2-.736.365-1.342.5-1.84a2.439,2.439,0,0,0,.13-.655,2.5,2.5,0,0,0-.262.614c-.167.487-.372,1.08-.62,1.8-.531,1.566-1.242,3.853-2.083,6.691-1.685,5.673-3.766,13.583-5.946,22.346s-4.184,16.678-5.748,22.379c-.771,2.771-1.4,5.052-1.873,6.746-.2.734-.364,1.342-.5,1.839a2.505,2.505,0,0,0-.13.655" fill="#e1e1e1"/>
        <path id="Trazado_4882" data-name="Trazado 4882" d="M19.839,352.444a2.485,2.485,0,0,0,.652.188c.51.112,1.136.247,1.894.412l6.975,1.439c5.889,1.217,14,2.991,22.968,4.963s17.106,3.675,23.023,4.77c2.958.549,5.355.968,7.017,1.224l1.917.284a2.481,2.481,0,0,0,.676.052,2.626,2.626,0,0,0-.652-.189l-1.894-.41-6.973-1.439c-5.89-1.217-14.006-2.991-22.973-4.965s-17.1-3.674-23.018-4.768c-2.959-.549-5.355-.969-7.019-1.225-.769-.113-1.4-.208-1.917-.283a2.515,2.515,0,0,0-.676-.053" fill="#e1e1e1"/>
        <rect id="Rectángulo_786" data-name="Rectángulo 786" width="84.763" height="259.654" transform="translate(94.365 136.532)" fill="#f5f5f5"/>
        <rect id="Rectángulo_787" data-name="Rectángulo 787" width="66.99" height="259.654" transform="translate(178.865 136.532)" fill="#fafafa"/>
        <rect id="Rectángulo_788" data-name="Rectángulo 788" width="71.902" height="20.243" transform="translate(98.915 178.088)" fill="#e1e1e1"/>
        <rect id="Rectángulo_789" data-name="Rectángulo 789" width="4.026" height="15.492" transform="translate(100.922 180.633)" fill="#f5f5f5"/>
        <path id="Trazado_4883" data-name="Trazado 4883" d="M109.691,183.892a1.28,1.28,0,1,1-1.279-1.279,1.279,1.279,0,0,1,1.279,1.279" fill="#fafafa"/>
        <path id="Trazado_4884" data-name="Trazado 4884" d="M109.691,189.366a1.28,1.28,0,1,1-1.279-1.28,1.279,1.279,0,0,1,1.279,1.28" fill="#fafafa"/>
        <rect id="Rectángulo_790" data-name="Rectángulo 790" width="3.956" height="11.9" transform="translate(114.807 182.613)" fill="#f5f5f5"/>
        <rect id="Rectángulo_791" data-name="Rectángulo 791" width="3.956" height="11.9" transform="translate(120.521 182.613)" fill="#f5f5f5"/>
        <rect id="Rectángulo_792" data-name="Rectángulo 792" width="3.957" height="11.9" transform="translate(126.236 182.613)" fill="#f5f5f5"/>
        <rect id="Rectángulo_793" data-name="Rectángulo 793" width="3.957" height="11.9" transform="translate(131.951 182.613)" fill="#f5f5f5"/>
        <rect id="Rectángulo_794" data-name="Rectángulo 794" width="3.956" height="11.9" transform="translate(137.667 182.613)" fill="#f5f5f5"/>
        <rect id="Rectángulo_795" data-name="Rectángulo 795" width="3.956" height="11.9" transform="translate(143.382 182.613)" fill="#f5f5f5"/>
        <rect id="Rectángulo_796" data-name="Rectángulo 796" width="3.956" height="11.9" transform="translate(149.097 182.613)" fill="#f5f5f5"/>
        <rect id="Rectángulo_797" data-name="Rectángulo 797" width="3.956" height="11.9" transform="translate(154.811 182.613)" fill="#f5f5f5"/>
        <rect id="Rectángulo_798" data-name="Rectángulo 798" width="3.957" height="11.9" transform="translate(160.526 182.613)" fill="#f5f5f5"/>
        <rect id="Rectángulo_799" data-name="Rectángulo 799" width="3.957" height="11.9" transform="translate(166.241 182.613)" fill="#f5f5f5"/>
        <rect id="Rectángulo_800" data-name="Rectángulo 800" width="71.902" height="20.242" transform="translate(98.915 210.512)" fill="#e1e1e1"/>
        <rect id="Rectángulo_801" data-name="Rectángulo 801" width="4.026" height="15.492" transform="translate(100.922 213.057)" fill="#f5f5f5"/>
        <path id="Trazado_4885" data-name="Trazado 4885" d="M109.691,216.316a1.28,1.28,0,1,1-1.279-1.28,1.279,1.279,0,0,1,1.279,1.28" fill="#fafafa"/>
        <path id="Trazado_4886" data-name="Trazado 4886" d="M109.691,221.789a1.28,1.28,0,1,1-1.279-1.279,1.28,1.28,0,0,1,1.279,1.279" fill="#fafafa"/>
        <rect id="Rectángulo_802" data-name="Rectángulo 802" width="3.956" height="11.901" transform="translate(114.807 215.036)" fill="#f5f5f5"/>
        <rect id="Rectángulo_803" data-name="Rectángulo 803" width="3.956" height="11.901" transform="translate(120.521 215.036)" fill="#f5f5f5"/>
        <rect id="Rectángulo_804" data-name="Rectángulo 804" width="3.957" height="11.901" transform="translate(126.236 215.036)" fill="#f5f5f5"/>
        <rect id="Rectángulo_805" data-name="Rectángulo 805" width="3.957" height="11.901" transform="translate(131.951 215.036)" fill="#f5f5f5"/>
        <rect id="Rectángulo_806" data-name="Rectángulo 806" width="3.956" height="11.901" transform="translate(137.667 215.036)" fill="#f5f5f5"/>
        <rect id="Rectángulo_807" data-name="Rectángulo 807" width="3.956" height="11.901" transform="translate(143.382 215.036)" fill="#f5f5f5"/>
        <rect id="Rectángulo_808" data-name="Rectángulo 808" width="3.956" height="11.901" transform="translate(149.097 215.036)" fill="#f5f5f5"/>
        <rect id="Rectángulo_809" data-name="Rectángulo 809" width="3.956" height="11.901" transform="translate(154.811 215.036)" fill="#f5f5f5"/>
        <rect id="Rectángulo_810" data-name="Rectángulo 810" width="3.957" height="11.901" transform="translate(160.526 215.036)" fill="#f5f5f5"/>
        <rect id="Rectángulo_811" data-name="Rectángulo 811" width="3.957" height="11.901" transform="translate(166.241 215.036)" fill="#f5f5f5"/>
        <rect id="Rectángulo_812" data-name="Rectángulo 812" width="71.902" height="20.242" transform="translate(98.915 242.936)" fill="#e1e1e1"/>
        <rect id="Rectángulo_813" data-name="Rectángulo 813" width="4.026" height="15.493" transform="translate(100.922 245.48)" fill="#f5f5f5"/>
        <path id="Trazado_4887" data-name="Trazado 4887" d="M109.691,248.739a1.28,1.28,0,1,1-1.279-1.28,1.279,1.279,0,0,1,1.279,1.28" fill="#fafafa"/>
        <path id="Trazado_4888" data-name="Trazado 4888" d="M109.691,254.213a1.28,1.28,0,1,1-1.279-1.279,1.28,1.28,0,0,1,1.279,1.279" fill="#fafafa"/>
        <rect id="Rectángulo_814" data-name="Rectángulo 814" width="3.956" height="11.9" transform="translate(114.807 247.46)" fill="#f5f5f5"/>
        <rect id="Rectángulo_815" data-name="Rectángulo 815" width="3.956" height="11.9" transform="translate(120.521 247.46)" fill="#f5f5f5"/>
        <rect id="Rectángulo_816" data-name="Rectángulo 816" width="3.957" height="11.9" transform="translate(126.236 247.46)" fill="#f5f5f5"/>
        <rect id="Rectángulo_817" data-name="Rectángulo 817" width="3.957" height="11.9" transform="translate(131.951 247.46)" fill="#f5f5f5"/>
        <rect id="Rectángulo_818" data-name="Rectángulo 818" width="3.956" height="11.9" transform="translate(137.667 247.46)" fill="#f5f5f5"/>
        <rect id="Rectángulo_819" data-name="Rectángulo 819" width="3.956" height="11.9" transform="translate(143.382 247.46)" fill="#f5f5f5"/>
        <rect id="Rectángulo_820" data-name="Rectángulo 820" width="3.956" height="11.9" transform="translate(149.097 247.46)" fill="#f5f5f5"/>
        <rect id="Rectángulo_821" data-name="Rectángulo 821" width="3.956" height="11.9" transform="translate(154.811 247.46)" fill="#f5f5f5"/>
        <rect id="Rectángulo_822" data-name="Rectángulo 822" width="3.957" height="11.9" transform="translate(160.526 247.46)" fill="#f5f5f5"/>
        <rect id="Rectángulo_823" data-name="Rectángulo 823" width="3.957" height="11.9" transform="translate(166.241 247.46)" fill="#f5f5f5"/>
        <rect id="Rectángulo_824" data-name="Rectángulo 824" width="71.902" height="20.243" transform="translate(98.915 275.359)" fill="#e1e1e1"/>
        <rect id="Rectángulo_825" data-name="Rectángulo 825" width="4.026" height="15.493" transform="translate(100.922 277.904)" fill="#f5f5f5"/>
        <path id="Trazado_4889" data-name="Trazado 4889" d="M109.691,281.162a1.28,1.28,0,1,1-1.279-1.279,1.28,1.28,0,0,1,1.279,1.279" fill="#fafafa"/>
        <path id="Trazado_4890" data-name="Trazado 4890" d="M109.691,286.637a1.28,1.28,0,1,1-1.279-1.28,1.279,1.279,0,0,1,1.279,1.28" fill="#fafafa"/>
        <rect id="Rectángulo_826" data-name="Rectángulo 826" width="3.956" height="11.9" transform="translate(114.807 279.883)" fill="#f5f5f5"/>
        <rect id="Rectángulo_827" data-name="Rectángulo 827" width="3.956" height="11.9" transform="translate(120.521 279.883)" fill="#f5f5f5"/>
        <rect id="Rectángulo_828" data-name="Rectángulo 828" width="3.957" height="11.9" transform="translate(126.236 279.883)" fill="#f5f5f5"/>
        <rect id="Rectángulo_829" data-name="Rectángulo 829" width="3.957" height="11.9" transform="translate(131.951 279.883)" fill="#f5f5f5"/>
        <rect id="Rectángulo_830" data-name="Rectángulo 830" width="3.956" height="11.9" transform="translate(137.667 279.883)" fill="#f5f5f5"/>
        <rect id="Rectángulo_831" data-name="Rectángulo 831" width="3.956" height="11.9" transform="translate(143.382 279.883)" fill="#f5f5f5"/>
        <rect id="Rectángulo_832" data-name="Rectángulo 832" width="3.956" height="11.9" transform="translate(149.097 279.883)" fill="#f5f5f5"/>
        <rect id="Rectángulo_833" data-name="Rectángulo 833" width="3.956" height="11.9" transform="translate(154.811 279.883)" fill="#f5f5f5"/>
        <rect id="Rectángulo_834" data-name="Rectángulo 834" width="3.957" height="11.9" transform="translate(160.526 279.883)" fill="#f5f5f5"/>
        <rect id="Rectángulo_835" data-name="Rectángulo 835" width="3.957" height="11.9" transform="translate(166.241 279.883)" fill="#f5f5f5"/>
        <rect id="Rectángulo_836" data-name="Rectángulo 836" width="71.902" height="20.243" transform="translate(98.915 307.782)" fill="#e1e1e1"/>
        <rect id="Rectángulo_837" data-name="Rectángulo 837" width="4.026" height="15.492" transform="translate(100.922 310.328)" fill="#f5f5f5"/>
        <path id="Trazado_4891" data-name="Trazado 4891" d="M109.691,313.586a1.28,1.28,0,1,1-1.279-1.279,1.279,1.279,0,0,1,1.279,1.279" fill="#fafafa"/>
        <path id="Trazado_4892" data-name="Trazado 4892" d="M109.691,319.061a1.28,1.28,0,1,1-1.279-1.28,1.279,1.279,0,0,1,1.279,1.28" fill="#fafafa"/>
        <rect id="Rectángulo_838" data-name="Rectángulo 838" width="3.956" height="11.9" transform="translate(114.807 312.307)" fill="#f5f5f5"/>
        <rect id="Rectángulo_839" data-name="Rectángulo 839" width="3.956" height="11.9" transform="translate(120.521 312.307)" fill="#f5f5f5"/>
        <rect id="Rectángulo_840" data-name="Rectángulo 840" width="3.957" height="11.9" transform="translate(126.236 312.307)" fill="#f5f5f5"/>
        <rect id="Rectángulo_841" data-name="Rectángulo 841" width="3.957" height="11.9" transform="translate(131.951 312.307)" fill="#f5f5f5"/>
        <rect id="Rectángulo_842" data-name="Rectángulo 842" width="3.956" height="11.9" transform="translate(137.667 312.307)" fill="#f5f5f5"/>
        <rect id="Rectángulo_843" data-name="Rectángulo 843" width="3.956" height="11.9" transform="translate(143.382 312.307)" fill="#f5f5f5"/>
        <rect id="Rectángulo_844" data-name="Rectángulo 844" width="3.956" height="11.9" transform="translate(149.097 312.307)" fill="#f5f5f5"/>
        <rect id="Rectángulo_845" data-name="Rectángulo 845" width="3.956" height="11.9" transform="translate(154.811 312.307)" fill="#f5f5f5"/>
        <rect id="Rectángulo_846" data-name="Rectángulo 846" width="3.957" height="11.9" transform="translate(160.526 312.307)" fill="#f5f5f5"/>
        <rect id="Rectángulo_847" data-name="Rectángulo 847" width="3.957" height="11.9" transform="translate(166.241 312.307)" fill="#f5f5f5"/>
        <rect id="Rectángulo_848" data-name="Rectángulo 848" width="71.902" height="20.242" transform="translate(98.915 340.206)" fill="#e1e1e1"/>
        <rect id="Rectángulo_849" data-name="Rectángulo 849" width="4.026" height="15.492" transform="translate(100.922 342.751)" fill="#f5f5f5"/>
        <path id="Trazado_4893" data-name="Trazado 4893" d="M109.691,346.01a1.28,1.28,0,1,1-1.279-1.279,1.279,1.279,0,0,1,1.279,1.279" fill="#fafafa"/>
        <path id="Trazado_4894" data-name="Trazado 4894" d="M109.691,351.484a1.28,1.28,0,1,1-1.279-1.279,1.28,1.28,0,0,1,1.279,1.279" fill="#fafafa"/>
        <rect id="Rectángulo_850" data-name="Rectángulo 850" width="3.956" height="11.9" transform="translate(114.807 344.731)" fill="#f5f5f5"/>
        <rect id="Rectángulo_851" data-name="Rectángulo 851" width="3.956" height="11.9" transform="translate(120.521 344.731)" fill="#f5f5f5"/>
        <rect id="Rectángulo_852" data-name="Rectángulo 852" width="3.957" height="11.9" transform="translate(126.236 344.731)" fill="#f5f5f5"/>
        <rect id="Rectángulo_853" data-name="Rectángulo 853" width="3.957" height="11.9" transform="translate(131.951 344.731)" fill="#f5f5f5"/>
        <rect id="Rectángulo_854" data-name="Rectángulo 854" width="3.956" height="11.9" transform="translate(137.667 344.731)" fill="#f5f5f5"/>
        <rect id="Rectángulo_855" data-name="Rectángulo 855" width="3.956" height="11.9" transform="translate(143.382 344.731)" fill="#f5f5f5"/>
        <rect id="Rectángulo_856" data-name="Rectángulo 856" width="3.956" height="11.9" transform="translate(149.097 344.731)" fill="#f5f5f5"/>
        <rect id="Rectángulo_857" data-name="Rectángulo 857" width="3.956" height="11.9" transform="translate(154.811 344.731)" fill="#f5f5f5"/>
        <rect id="Rectángulo_858" data-name="Rectángulo 858" width="3.957" height="11.9" transform="translate(160.526 344.731)" fill="#f5f5f5"/>
        <rect id="Rectángulo_859" data-name="Rectángulo 859" width="3.957" height="11.9" transform="translate(166.241 344.731)" fill="#f5f5f5"/>
        <rect id="Rectángulo_860" data-name="Rectángulo 860" width="71.902" height="20.242" transform="translate(98.915 372.63)" fill="#e1e1e1"/>
        <rect id="Rectángulo_861" data-name="Rectángulo 861" width="4.026" height="15.493" transform="translate(100.922 375.174)" fill="#f5f5f5"/>
        <path id="Trazado_4895" data-name="Trazado 4895" d="M109.691,378.434a1.28,1.28,0,1,1-1.279-1.28,1.279,1.279,0,0,1,1.279,1.28" fill="#fafafa"/>
        <path id="Trazado_4896" data-name="Trazado 4896" d="M109.691,383.907a1.28,1.28,0,1,1-1.279-1.279,1.28,1.28,0,0,1,1.279,1.279" fill="#fafafa"/>
        <rect id="Rectángulo_862" data-name="Rectángulo 862" width="3.956" height="11.9" transform="translate(114.807 377.154)" fill="#f5f5f5"/>
        <rect id="Rectángulo_863" data-name="Rectángulo 863" width="3.956" height="11.9" transform="translate(120.521 377.154)" fill="#f5f5f5"/>
        <rect id="Rectángulo_864" data-name="Rectángulo 864" width="3.957" height="11.9" transform="translate(126.236 377.154)" fill="#f5f5f5"/>
        <rect id="Rectángulo_865" data-name="Rectángulo 865" width="3.957" height="11.9" transform="translate(131.951 377.154)" fill="#f5f5f5"/>
        <rect id="Rectángulo_866" data-name="Rectángulo 866" width="3.956" height="11.9" transform="translate(137.667 377.154)" fill="#f5f5f5"/>
        <rect id="Rectángulo_867" data-name="Rectángulo 867" width="3.956" height="11.9" transform="translate(143.382 377.154)" fill="#f5f5f5"/>
        <rect id="Rectángulo_868" data-name="Rectángulo 868" width="3.956" height="11.9" transform="translate(149.097 377.154)" fill="#f5f5f5"/>
        <rect id="Rectángulo_869" data-name="Rectángulo 869" width="3.956" height="11.9" transform="translate(154.811 377.154)" fill="#f5f5f5"/>
        <rect id="Rectángulo_870" data-name="Rectángulo 870" width="3.957" height="11.9" transform="translate(160.526 377.154)" fill="#f5f5f5"/>
        <rect id="Rectángulo_871" data-name="Rectángulo 871" width="3.957" height="11.9" transform="translate(166.241 377.154)" fill="#f5f5f5"/>
        <path id="Trazado_4897" data-name="Trazado 4897" d="M143.382,178.088a2.609,2.609,0,0,1-.079-.625c-.031-.41-.056-1.018-.077-1.8s-.037-1.736-.092-2.84a18.072,18.072,0,0,0-.495-3.689,13.215,13.215,0,0,0-1.92-4.039,8.941,8.941,0,0,0-3.932-3.159,19.067,19.067,0,0,0-5.581-1.132l-6.192-.535c-8.487-.737-16.182-1.21-21.76-1.317-2.788-.062-5.046-.048-6.606-.043l-1.8.015a2.9,2.9,0,0,1-.629-.029,2.923,2.923,0,0,1,.625-.076l1.8-.113c1.56-.067,3.821-.138,6.616-.122,5.591.012,13.307.429,21.8,1.165l6.195.547a19.292,19.292,0,0,1,5.718,1.2,9.336,9.336,0,0,1,4.1,3.352,13.378,13.378,0,0,1,1.924,4.193,17.617,17.617,0,0,1,.431,3.774c.027,1.113.013,2.069,0,2.849-.009.736-.016,1.331-.021,1.8a3.064,3.064,0,0,1-.026.628" fill="#e1e1e1"/>
        <path id="Trazado_4898" data-name="Trazado 4898" d="M121.569,178.088a2.552,2.552,0,0,1-.049-.59c-.006-.444-.014-1-.024-1.692-.007-.735-.008-1.632-.089-2.664a8.189,8.189,0,0,0-.886-3.326,6.359,6.359,0,0,0-3.239-2.487,8.914,8.914,0,0,0-4.723-.478,7.985,7.985,0,0,0-2.436.828,4.644,4.644,0,0,0-1.888,1.787,2.536,2.536,0,0,0,.008,2.511,3.36,3.36,0,0,0,2.135,1.6,2.708,2.708,0,0,0,2.5-.722A3.7,3.7,0,0,0,114,170.478a3.62,3.62,0,0,0-.747-2.439,5.349,5.349,0,0,0-1.892-1.672,7.06,7.06,0,0,0-2.368-.61c-.811-.121-1.6-.228-2.363-.314-1.53-.172-2.96-.272-4.269-.327-2.617-.1-4.743-.067-6.212-.069l-1.691-.008a2.569,2.569,0,0,1-.591-.038,2.5,2.5,0,0,1,.588-.067l1.69-.09c1.468-.06,3.594-.154,6.229-.1,1.316.031,2.759.111,4.3.266.77.077,1.566.177,2.384.29.41.064.816.115,1.248.194a4.827,4.827,0,0,1,1.273.443,5.815,5.815,0,0,1,2.079,1.812,4.123,4.123,0,0,1,.849,2.764,4.2,4.2,0,0,1-1.276,2.718,3.228,3.228,0,0,1-2.968.854,3.869,3.869,0,0,1-2.472-1.861,3.058,3.058,0,0,1,0-3,5.11,5.11,0,0,1,2.1-1.983,8.429,8.429,0,0,1,2.595-.866,9.305,9.305,0,0,1,4.962.55,6.7,6.7,0,0,1,3.4,2.707,8.328,8.328,0,0,1,.856,3.487c.056,1.051.025,1.952,0,2.687-.03.688-.055,1.248-.073,1.691a2.471,2.471,0,0,1-.057.589" fill="#e1e1e1"/>
        <path id="Trazado_4899" data-name="Trazado 4899" d="M149.251,178.088a3.475,3.475,0,0,1-.152-.669c-.079-.44-.2-1.09-.384-1.921a37.641,37.641,0,0,0-2.126-6.852,19.978,19.978,0,0,0-6.254-8.385,11.777,11.777,0,0,0-5.723-2.177,59.742,59.742,0,0,0-6.739-.361c-9.29-.176-17.714-.142-23.807-.385-3.045-.108-5.509-.254-7.209-.378l-1.956-.168a3.254,3.254,0,0,1-.679-.1,3.545,3.545,0,0,1,.686-.009l1.96.071c1.7.061,4.164.151,7.209.212,6.088.148,14.5.056,23.808.232a58.585,58.585,0,0,1,6.8.377,12.208,12.208,0,0,1,5.938,2.3,18.234,18.234,0,0,1,3.961,4.192,24.273,24.273,0,0,1,2.344,4.434,34.466,34.466,0,0,1,1.985,6.955c.15.841.242,1.5.289,1.944a3.355,3.355,0,0,1,.048.685" fill="#e1e1e1"/>
        <rect id="Rectángulo_872" data-name="Rectángulo 872" width="69.925" height="10.15" transform="translate(99.904 139.761)" fill="#e1e1e1"/>
        <rect id="Rectángulo_873" data-name="Rectángulo 873" width="38.07" height="5.075" transform="translate(115.282 144.836)" fill="#f5f5f5"/>
        <path id="Trazado_4900" data-name="Trazado 4900" d="M89.843,368.77a16.564,16.564,0,0,0-10.272-1.321,8.549,8.549,0,0,0-5.1,2.231c-1.278,1.393-1.536,3.857-.087,5.07a4.862,4.862,0,0,0,3.2.835c2.718-.012,5.738-.469,7.9,1.181,1.231.942,2.046,2.5,3.523,2.968a3.5,3.5,0,0,0,3.865-1.688,5.978,5.978,0,0,0,.466-4.414,6.739,6.739,0,0,0-3.493-4.862" fill="#ff4f5b"/>
        <g id="Grupo_893" data-name="Grupo 893" opacity="0.3">
          <g id="Grupo_892" data-name="Grupo 892">
            <g id="Grupo_891" data-name="Grupo 891" clip-path="url(#clip-path-3)">
              <path id="Trazado_4901" data-name="Trazado 4901" d="M89.843,368.77a16.564,16.564,0,0,0-10.272-1.321,8.549,8.549,0,0,0-5.1,2.231c-1.278,1.393-1.536,3.857-.087,5.07a4.862,4.862,0,0,0,3.2.835c2.718-.012,5.738-.469,7.9,1.181,1.231.942,2.046,2.5,3.523,2.968a3.5,3.5,0,0,0,3.865-1.688,5.978,5.978,0,0,0,.466-4.414,6.739,6.739,0,0,0-3.493-4.862"/>
            </g>
          </g>
        </g>
        <path id="Trazado_4902" data-name="Trazado 4902" d="M97.1,354.988c-1.932,2.718-5.642,1.787-7.354.108s-2.422-4.1-3.069-6.409c-1.478-5.275-2.967-10.808-1.8-16.162a8.976,8.976,0,0,1,2.093-4.376,4.686,4.686,0,0,1,4.452-1.446c1.87.508,3.023,2.351,3.852,4.1a38.5,38.5,0,0,1,3.688,16.546c-.009,2.661-.342,5.449-1.859,7.636" fill="#ff4f5b"/>
        <g id="Grupo_896" data-name="Grupo 896" opacity="0.3">
          <g id="Grupo_895" data-name="Grupo 895">
            <g id="Grupo_894" data-name="Grupo 894" clip-path="url(#clip-path-4)">
              <path id="Trazado_4903" data-name="Trazado 4903" d="M97.1,354.988c-1.932,2.718-5.642,1.787-7.354.108s-2.422-4.1-3.069-6.409c-1.478-5.275-2.967-10.808-1.8-16.162a8.976,8.976,0,0,1,2.093-4.376,4.686,4.686,0,0,1,4.452-1.446c1.87.508,3.023,2.351,3.852,4.1a38.5,38.5,0,0,1,3.688,16.546c-.009,2.661-.342,5.449-1.859,7.636" fill="#fff"/>
            </g>
          </g>
        </g>
        <path id="Trazado_4904" data-name="Trazado 4904" d="M102.328,358.944a9.937,9.937,0,0,1-1.482-9.156,17.64,17.64,0,0,1,5.471-7.821,29.172,29.172,0,0,1,9.74-5.654,10.362,10.362,0,0,1,4.368-.711,4.58,4.58,0,0,1,3.645,2.24c1.007,1.955.012,4.309-1.06,6.228a73.744,73.744,0,0,1-6.439,9.657c-1.927,2.448-4.131,4.862-7.049,5.954s-5.94.94-7.468-1.089" fill="#ff4f5b"/>
        <path id="Trazado_4905" data-name="Trazado 4905" d="M96.945,396.19a6.009,6.009,0,0,1-.164-1.242c-.081-.9-.184-2.039-.306-3.39a48.948,48.948,0,0,0-.727-4.973,38.385,38.385,0,0,0-1.765-5.876,21.63,21.63,0,0,0-2.957-5.327,11.181,11.181,0,0,0-3.763-3.173,10.589,10.589,0,0,0-3.181-1.015,5.9,5.9,0,0,1-1.235-.188,5.832,5.832,0,0,1,1.258-.01,9.642,9.642,0,0,1,3.319.888,11.171,11.171,0,0,1,3.97,3.2,21.105,21.105,0,0,1,3.066,5.434,35.838,35.838,0,0,1,1.751,5.972,42.043,42.043,0,0,1,.626,5.036c.1,1.438.129,2.6.143,3.409a5.75,5.75,0,0,1-.035,1.253" fill="#1a2e35"/>
        <path id="Trazado_4906" data-name="Trazado 4906" d="M96.73,393.581a2.434,2.434,0,0,1-.029-.576c0-.433.009-.978.015-1.647.015-1.428.029-3.5-.03-6.051-.091-5.109-.481-12.163-1.276-19.918s-1.887-14.74-2.886-19.749c-.235-1.256-.474-2.387-.7-3.376s-.4-1.848-.575-2.539c-.151-.653-.275-1.183-.373-1.6a2.349,2.349,0,0,1-.1-.569,2.47,2.47,0,0,1,.2.542c.123.415.277.938.467,1.581.207.685.419,1.535.66,2.523s.515,2.114.774,3.368a186.9,186.9,0,0,1,3.04,19.77c.8,7.772,1.131,14.846,1.128,19.967.013,2.56-.055,4.632-.13,6.062-.046.668-.083,1.213-.113,1.645a2.375,2.375,0,0,1-.074.571" fill="#1a2e35"/>
        <path id="Trazado_4907" data-name="Trazado 4907" d="M96.792,379.943a11.052,11.052,0,0,1,.024-1.72c.071-1.1.234-2.7.559-4.657a61.488,61.488,0,0,1,1.563-6.779,60.306,60.306,0,0,1,2.9-8.015,42.84,42.84,0,0,1,8.43-12.927,21.124,21.124,0,0,1,1.974-1.809c.3-.252.571-.5.843-.7l.766-.52a10.93,10.93,0,0,1,1.454-.917,51.415,51.415,0,0,0-4.777,4.2,45.11,45.11,0,0,0-8.221,12.88,64.16,64.16,0,0,0-2.911,7.942c-.762,2.489-1.273,4.781-1.661,6.711-.368,1.935-.585,3.515-.716,4.61a11.225,11.225,0,0,1-.223,1.7" fill="#1a2e35"/>
        <path id="Trazado_4908" data-name="Trazado 4908" d="M260.913,98.5c-.144,0-.261-11.034-.261-24.643s.117-24.644.261-24.644.26,11.032.26,24.644-.116,24.643-.26,24.643" fill="#1a2e35"/>
        <rect id="Rectángulo_876" data-name="Rectángulo 876" width="112.705" height="123.657" transform="translate(401.313 265.611)" fill="#1a2e35"/>
        <rect id="Rectángulo_877" data-name="Rectángulo 877" width="123.209" height="30.568" transform="translate(384.856 290.343)" fill="#375a64"/>
        <rect id="Rectángulo_878" data-name="Rectángulo 878" width="24.259" height="3.732" transform="translate(390.327 296.639)" fill="#1a2e35"/>
        <rect id="Rectángulo_879" data-name="Rectángulo 879" width="24.259" height="3.732" transform="translate(390.327 303.061)" fill="#1a2e35"/>
        <rect id="Rectángulo_880" data-name="Rectángulo 880" width="24.259" height="3.731" transform="translate(390.327 309.703)" fill="#1a2e35"/>
        <path id="Trazado_4909" data-name="Trazado 4909" d="M424.18,298.894a1.391,1.391,0,1,1-1.392-1.392,1.392,1.392,0,0,1,1.392,1.392" fill="#1a2e35"/>
        <path id="Trazado_4910" data-name="Trazado 4910" d="M430.321,298.894a1.392,1.392,0,1,1-1.392-1.392,1.392,1.392,0,0,1,1.392,1.392" fill="#1a2e35"/>
        <path id="Trazado_4911" data-name="Trazado 4911" d="M436.462,298.894a1.392,1.392,0,1,1-1.392-1.392,1.392,1.392,0,0,1,1.392,1.392" fill="#1a2e35"/>
        <path id="Trazado_4912" data-name="Trazado 4912" d="M442.6,298.894a1.391,1.391,0,1,1-1.392-1.392,1.392,1.392,0,0,1,1.392,1.392" fill="#1a2e35"/>
        <path id="Trazado_4913" data-name="Trazado 4913" d="M490.192,298.894A1.391,1.391,0,1,1,488.8,297.5a1.392,1.392,0,0,1,1.392,1.392" fill="#1a2e35"/>
        <path id="Trazado_4914" data-name="Trazado 4914" d="M496.455,298.894a1.391,1.391,0,1,1-1.392-1.392,1.392,1.392,0,0,1,1.392,1.392" fill="#1a2e35"/>
        <path id="Trazado_4915" data-name="Trazado 4915" d="M448.744,298.894a1.391,1.391,0,1,1-1.392-1.392,1.392,1.392,0,0,1,1.392,1.392" fill="#1a2e35"/>
        <path id="Trazado_4916" data-name="Trazado 4916" d="M478.9,298.894a1.391,1.391,0,1,1-1.391-1.392,1.391,1.391,0,0,1,1.391,1.392" fill="#1a2e35"/>
        <path id="Trazado_4917" data-name="Trazado 4917" d="M454.886,298.894a1.391,1.391,0,1,1-1.392-1.392,1.392,1.392,0,0,1,1.392,1.392" fill="#f5f5f5"/>
        <path id="Trazado_4918" data-name="Trazado 4918" d="M461.026,298.894a1.391,1.391,0,1,1-1.392-1.392,1.392,1.392,0,0,1,1.392,1.392" fill="#f5f5f5"/>
        <path id="Trazado_4919" data-name="Trazado 4919" d="M473.486,298.894a1.391,1.391,0,1,1-1.392-1.392,1.392,1.392,0,0,1,1.392,1.392" fill="#f5f5f5"/>
        <path id="Trazado_4920" data-name="Trazado 4920" d="M501.55,298.894a1.391,1.391,0,1,1-1.392-1.392,1.392,1.392,0,0,1,1.392,1.392" fill="#f5f5f5"/>
        <path id="Trazado_4921" data-name="Trazado 4921" d="M467.168,298.894a1.391,1.391,0,1,1-1.392-1.392,1.392,1.392,0,0,1,1.392,1.392" fill="#ff4f5b"/>
        <path id="Trazado_4922" data-name="Trazado 4922" d="M484.751,298.894a1.392,1.392,0,1,1-1.392-1.392,1.392,1.392,0,0,1,1.392,1.392" fill="#ff4f5b"/>
        <path id="Trazado_4923" data-name="Trazado 4923" d="M498.767,305.6a1.391,1.391,0,1,1,1.392,1.392,1.391,1.391,0,0,1-1.392-1.392" fill="#1a2e35"/>
        <path id="Trazado_4924" data-name="Trazado 4924" d="M492.625,305.6a1.392,1.392,0,1,1,1.393,1.392,1.392,1.392,0,0,1-1.393-1.392" fill="#1a2e35"/>
        <path id="Trazado_4925" data-name="Trazado 4925" d="M486.484,305.6a1.391,1.391,0,1,1,1.392,1.392,1.392,1.392,0,0,1-1.392-1.392" fill="#1a2e35"/>
        <path id="Trazado_4926" data-name="Trazado 4926" d="M480.343,305.6a1.392,1.392,0,1,1,1.392,1.392,1.392,1.392,0,0,1-1.392-1.392" fill="#1a2e35"/>
        <path id="Trazado_4927" data-name="Trazado 4927" d="M432.754,305.6a1.391,1.391,0,1,1,1.392,1.392,1.392,1.392,0,0,1-1.392-1.392" fill="#1a2e35"/>
        <path id="Trazado_4928" data-name="Trazado 4928" d="M426.491,305.6a1.392,1.392,0,1,1,1.393,1.392,1.392,1.392,0,0,1-1.393-1.392" fill="#1a2e35"/>
        <path id="Trazado_4929" data-name="Trazado 4929" d="M474.2,305.6a1.391,1.391,0,1,1,1.392,1.392A1.392,1.392,0,0,1,474.2,305.6" fill="#1a2e35"/>
        <path id="Trazado_4930" data-name="Trazado 4930" d="M444.042,305.6a1.392,1.392,0,1,1,1.392,1.392,1.392,1.392,0,0,1-1.392-1.392" fill="#1a2e35"/>
        <path id="Trazado_4931" data-name="Trazado 4931" d="M468.06,305.6a1.391,1.391,0,1,1,1.392,1.392,1.392,1.392,0,0,1-1.392-1.392" fill="#f5f5f5"/>
        <path id="Trazado_4932" data-name="Trazado 4932" d="M461.919,305.6a1.392,1.392,0,1,1,1.393,1.392,1.393,1.393,0,0,1-1.393-1.392" fill="#f5f5f5"/>
        <path id="Trazado_4933" data-name="Trazado 4933" d="M449.46,305.6a1.392,1.392,0,1,1,1.392,1.392,1.392,1.392,0,0,1-1.392-1.392" fill="#f5f5f5"/>
        <path id="Trazado_4934" data-name="Trazado 4934" d="M421.4,305.6a1.391,1.391,0,1,1,1.392,1.392A1.392,1.392,0,0,1,421.4,305.6" fill="#f5f5f5"/>
        <path id="Trazado_4935" data-name="Trazado 4935" d="M455.778,305.6a1.391,1.391,0,1,1,1.392,1.392,1.392,1.392,0,0,1-1.392-1.392" fill="#ff4f5b"/>
        <path id="Trazado_4936" data-name="Trazado 4936" d="M438.2,305.6a1.391,1.391,0,1,1,1.392,1.392A1.392,1.392,0,0,1,438.2,305.6" fill="#ff4f5b"/>
        <path id="Trazado_4937" data-name="Trazado 4937" d="M424.18,311.568a1.391,1.391,0,1,1-1.392-1.392,1.392,1.392,0,0,1,1.392,1.392" fill="#1a2e35"/>
        <path id="Trazado_4938" data-name="Trazado 4938" d="M430.321,311.568a1.392,1.392,0,1,1-1.392-1.392,1.392,1.392,0,0,1,1.392,1.392" fill="#1a2e35"/>
        <path id="Trazado_4939" data-name="Trazado 4939" d="M436.462,311.568a1.392,1.392,0,1,1-1.392-1.392,1.392,1.392,0,0,1,1.392,1.392" fill="#1a2e35"/>
        <path id="Trazado_4940" data-name="Trazado 4940" d="M442.6,311.568a1.391,1.391,0,1,1-1.392-1.392,1.392,1.392,0,0,1,1.392,1.392" fill="#1a2e35"/>
        <path id="Trazado_4941" data-name="Trazado 4941" d="M490.192,311.568a1.391,1.391,0,1,1-1.392-1.392,1.392,1.392,0,0,1,1.392,1.392" fill="#1a2e35"/>
        <path id="Trazado_4942" data-name="Trazado 4942" d="M496.455,311.568a1.391,1.391,0,1,1-1.392-1.392,1.392,1.392,0,0,1,1.392,1.392" fill="#1a2e35"/>
        <path id="Trazado_4943" data-name="Trazado 4943" d="M448.744,311.568a1.391,1.391,0,1,1-1.392-1.392,1.392,1.392,0,0,1,1.392,1.392" fill="#1a2e35"/>
        <path id="Trazado_4944" data-name="Trazado 4944" d="M478.9,311.568a1.391,1.391,0,1,1-1.391-1.392,1.391,1.391,0,0,1,1.391,1.392" fill="#1a2e35"/>
        <path id="Trazado_4945" data-name="Trazado 4945" d="M454.886,311.568a1.391,1.391,0,1,1-1.392-1.392,1.392,1.392,0,0,1,1.392,1.392" fill="#f5f5f5"/>
        <path id="Trazado_4946" data-name="Trazado 4946" d="M461.026,311.568a1.391,1.391,0,1,1-1.392-1.392,1.392,1.392,0,0,1,1.392,1.392" fill="#f5f5f5"/>
        <path id="Trazado_4947" data-name="Trazado 4947" d="M473.486,311.568a1.391,1.391,0,1,1-1.392-1.392,1.392,1.392,0,0,1,1.392,1.392" fill="#f5f5f5"/>
        <path id="Trazado_4948" data-name="Trazado 4948" d="M501.55,311.568a1.391,1.391,0,1,1-1.392-1.392,1.392,1.392,0,0,1,1.392,1.392" fill="#f5f5f5"/>
        <path id="Trazado_4949" data-name="Trazado 4949" d="M467.168,311.568a1.391,1.391,0,1,1-1.392-1.392,1.392,1.392,0,0,1,1.392,1.392" fill="#ff4f5b"/>
        <path id="Trazado_4950" data-name="Trazado 4950" d="M484.751,311.568a1.392,1.392,0,1,1-1.392-1.392,1.392,1.392,0,0,1,1.392,1.392" fill="#ff4f5b"/>
        <rect id="Rectángulo_881" data-name="Rectángulo 881" width="123.209" height="30.567" transform="translate(384.856 328.066)" fill="#375a64"/>
        <path id="Trazado_4951" data-name="Trazado 4951" d="M423.874,336.313a1.391,1.391,0,1,1-1.392-1.392,1.391,1.391,0,0,1,1.392,1.392" fill="#1a2e35"/>
        <path id="Trazado_4952" data-name="Trazado 4952" d="M430.016,336.313a1.392,1.392,0,1,1-1.393-1.392,1.393,1.393,0,0,1,1.393,1.392" fill="#1a2e35"/>
        <path id="Trazado_4953" data-name="Trazado 4953" d="M436.157,336.313a1.392,1.392,0,1,1-1.392-1.392,1.392,1.392,0,0,1,1.392,1.392" fill="#1a2e35"/>
        <path id="Trazado_4954" data-name="Trazado 4954" d="M442.3,336.313a1.391,1.391,0,1,1-1.392-1.392,1.392,1.392,0,0,1,1.392,1.392" fill="#1a2e35"/>
        <path id="Trazado_4955" data-name="Trazado 4955" d="M489.887,336.313a1.391,1.391,0,1,1-1.392-1.392,1.392,1.392,0,0,1,1.392,1.392" fill="#1a2e35"/>
        <path id="Trazado_4956" data-name="Trazado 4956" d="M496.149,336.313a1.391,1.391,0,1,1-1.392-1.392,1.392,1.392,0,0,1,1.392,1.392" fill="#1a2e35"/>
        <path id="Trazado_4957" data-name="Trazado 4957" d="M448.439,336.313a1.391,1.391,0,1,1-1.392-1.392,1.392,1.392,0,0,1,1.392,1.392" fill="#1a2e35"/>
        <path id="Trazado_4958" data-name="Trazado 4958" d="M478.6,336.313a1.392,1.392,0,1,1-1.393-1.392,1.393,1.393,0,0,1,1.393,1.392" fill="#1a2e35"/>
        <path id="Trazado_4959" data-name="Trazado 4959" d="M454.58,336.313a1.391,1.391,0,1,1-1.392-1.392,1.392,1.392,0,0,1,1.392,1.392" fill="#f5f5f5"/>
        <path id="Trazado_4960" data-name="Trazado 4960" d="M460.722,336.313a1.391,1.391,0,1,1-1.392-1.392,1.392,1.392,0,0,1,1.392,1.392" fill="#f5f5f5"/>
        <path id="Trazado_4961" data-name="Trazado 4961" d="M473.181,336.313a1.391,1.391,0,1,1-1.392-1.392,1.392,1.392,0,0,1,1.392,1.392" fill="#f5f5f5"/>
        <path id="Trazado_4962" data-name="Trazado 4962" d="M501.245,336.313a1.391,1.391,0,1,1-1.392-1.392,1.392,1.392,0,0,1,1.392,1.392" fill="#f5f5f5"/>
        <path id="Trazado_4963" data-name="Trazado 4963" d="M466.863,336.313a1.392,1.392,0,1,1-1.392-1.392,1.392,1.392,0,0,1,1.392,1.392" fill="#ff4f5b"/>
        <path id="Trazado_4964" data-name="Trazado 4964" d="M484.446,336.313a1.392,1.392,0,1,1-1.392-1.392,1.392,1.392,0,0,1,1.392,1.392" fill="#ff4f5b"/>
        <path id="Trazado_4965" data-name="Trazado 4965" d="M498.462,343.021a1.391,1.391,0,1,1,1.392,1.392,1.392,1.392,0,0,1-1.392-1.392" fill="#1a2e35"/>
        <path id="Trazado_4966" data-name="Trazado 4966" d="M492.32,343.021a1.391,1.391,0,1,1,1.392,1.392,1.392,1.392,0,0,1-1.392-1.392" fill="#1a2e35"/>
        <path id="Trazado_4967" data-name="Trazado 4967" d="M486.179,343.021a1.392,1.392,0,1,1,1.393,1.392,1.392,1.392,0,0,1-1.393-1.392" fill="#1a2e35"/>
        <path id="Trazado_4968" data-name="Trazado 4968" d="M480.038,343.021a1.392,1.392,0,1,1,1.392,1.392,1.392,1.392,0,0,1-1.392-1.392" fill="#1a2e35"/>
        <path id="Trazado_4969" data-name="Trazado 4969" d="M432.449,343.021a1.391,1.391,0,1,1,1.392,1.392,1.392,1.392,0,0,1-1.392-1.392" fill="#1a2e35"/>
        <path id="Trazado_4970" data-name="Trazado 4970" d="M426.186,343.021a1.391,1.391,0,1,1,1.392,1.392,1.392,1.392,0,0,1-1.392-1.392" fill="#1a2e35"/>
        <path id="Trazado_4971" data-name="Trazado 4971" d="M473.9,343.021a1.391,1.391,0,1,1,1.392,1.392,1.392,1.392,0,0,1-1.392-1.392" fill="#1a2e35"/>
        <path id="Trazado_4972" data-name="Trazado 4972" d="M443.737,343.021a1.391,1.391,0,1,1,1.392,1.392,1.392,1.392,0,0,1-1.392-1.392" fill="#1a2e35"/>
        <path id="Trazado_4973" data-name="Trazado 4973" d="M467.756,343.021a1.391,1.391,0,1,1,1.392,1.392,1.392,1.392,0,0,1-1.392-1.392" fill="#f5f5f5"/>
        <path id="Trazado_4974" data-name="Trazado 4974" d="M461.614,343.021a1.391,1.391,0,1,1,1.392,1.392,1.392,1.392,0,0,1-1.392-1.392" fill="#f5f5f5"/>
        <path id="Trazado_4975" data-name="Trazado 4975" d="M449.154,343.021a1.392,1.392,0,1,1,1.392,1.392,1.392,1.392,0,0,1-1.392-1.392" fill="#f5f5f5"/>
        <path id="Trazado_4976" data-name="Trazado 4976" d="M421.091,343.021a1.391,1.391,0,1,1,1.392,1.392,1.392,1.392,0,0,1-1.392-1.392" fill="#f5f5f5"/>
        <path id="Trazado_4977" data-name="Trazado 4977" d="M455.473,343.021a1.392,1.392,0,1,1,1.392,1.392,1.392,1.392,0,0,1-1.392-1.392" fill="#ff4f5b"/>
        <path id="Trazado_4978" data-name="Trazado 4978" d="M437.889,343.021a1.391,1.391,0,1,1,1.392,1.392,1.392,1.392,0,0,1-1.392-1.392" fill="#ff4f5b"/>
        <path id="Trazado_4979" data-name="Trazado 4979" d="M423.874,348.986a1.391,1.391,0,1,1-1.392-1.392,1.391,1.391,0,0,1,1.392,1.392" fill="#1a2e35"/>
        <path id="Trazado_4980" data-name="Trazado 4980" d="M430.016,348.986a1.392,1.392,0,1,1-1.393-1.392,1.393,1.393,0,0,1,1.393,1.392" fill="#1a2e35"/>
        <path id="Trazado_4981" data-name="Trazado 4981" d="M436.157,348.986a1.392,1.392,0,1,1-1.392-1.392,1.392,1.392,0,0,1,1.392,1.392" fill="#1a2e35"/>
        <path id="Trazado_4982" data-name="Trazado 4982" d="M442.3,348.986a1.391,1.391,0,1,1-1.392-1.392,1.392,1.392,0,0,1,1.392,1.392" fill="#1a2e35"/>
        <path id="Trazado_4983" data-name="Trazado 4983" d="M489.887,348.986a1.391,1.391,0,1,1-1.392-1.392,1.392,1.392,0,0,1,1.392,1.392" fill="#1a2e35"/>
        <path id="Trazado_4984" data-name="Trazado 4984" d="M496.149,348.986a1.391,1.391,0,1,1-1.392-1.392,1.392,1.392,0,0,1,1.392,1.392" fill="#1a2e35"/>
        <path id="Trazado_4985" data-name="Trazado 4985" d="M448.439,348.986a1.391,1.391,0,1,1-1.392-1.392,1.392,1.392,0,0,1,1.392,1.392" fill="#1a2e35"/>
        <path id="Trazado_4986" data-name="Trazado 4986" d="M478.6,348.986a1.392,1.392,0,1,1-1.393-1.392,1.393,1.393,0,0,1,1.393,1.392" fill="#1a2e35"/>
        <path id="Trazado_4987" data-name="Trazado 4987" d="M454.58,348.986a1.391,1.391,0,1,1-1.392-1.392,1.392,1.392,0,0,1,1.392,1.392" fill="#f5f5f5"/>
        <path id="Trazado_4988" data-name="Trazado 4988" d="M460.722,348.986a1.391,1.391,0,1,1-1.392-1.392,1.392,1.392,0,0,1,1.392,1.392" fill="#f5f5f5"/>
        <path id="Trazado_4989" data-name="Trazado 4989" d="M473.181,348.986a1.391,1.391,0,1,1-1.392-1.392,1.392,1.392,0,0,1,1.392,1.392" fill="#f5f5f5"/>
        <path id="Trazado_4990" data-name="Trazado 4990" d="M501.245,348.986a1.391,1.391,0,1,1-1.392-1.392,1.392,1.392,0,0,1,1.392,1.392" fill="#f5f5f5"/>
        <path id="Trazado_4991" data-name="Trazado 4991" d="M466.863,348.986a1.392,1.392,0,1,1-1.392-1.392,1.392,1.392,0,0,1,1.392,1.392" fill="#ff4f5b"/>
        <path id="Trazado_4992" data-name="Trazado 4992" d="M484.446,348.986a1.392,1.392,0,1,1-1.392-1.392,1.392,1.392,0,0,1,1.392,1.392" fill="#ff4f5b"/>
        <rect id="Rectángulo_882" data-name="Rectángulo 882" width="24.259" height="3.732" transform="translate(390.327 334.362)" fill="#1a2e35"/>
        <rect id="Rectángulo_883" data-name="Rectángulo 883" width="24.259" height="3.732" transform="translate(390.327 340.784)" fill="#1a2e35"/>
        <rect id="Rectángulo_884" data-name="Rectángulo 884" width="24.259" height="3.732" transform="translate(390.327 347.424)" fill="#1a2e35"/>
        <rect id="Rectángulo_885" data-name="Rectángulo 885" width="123.209" height="30.568" transform="translate(384.856 365.788)" fill="#375a64"/>
        <rect id="Rectángulo_886" data-name="Rectángulo 886" width="24.259" height="3.732" transform="translate(390.327 372.085)" fill="#1a2e35"/>
        <rect id="Rectángulo_887" data-name="Rectángulo 887" width="24.259" height="3.732" transform="translate(390.327 378.506)" fill="#1a2e35"/>
        <rect id="Rectángulo_888" data-name="Rectángulo 888" width="24.259" height="3.732" transform="translate(390.327 385.147)" fill="#1a2e35"/>
        <path id="Trazado_4993" data-name="Trazado 4993" d="M423.428,374.035a1.392,1.392,0,1,1-1.392-1.392,1.391,1.391,0,0,1,1.392,1.392" fill="#1a2e35"/>
        <path id="Trazado_4994" data-name="Trazado 4994" d="M429.569,374.035a1.391,1.391,0,1,1-1.392-1.392,1.392,1.392,0,0,1,1.392,1.392" fill="#1a2e35"/>
        <path id="Trazado_4995" data-name="Trazado 4995" d="M435.711,374.035a1.391,1.391,0,1,1-1.392-1.392,1.392,1.392,0,0,1,1.392,1.392" fill="#1a2e35"/>
        <path id="Trazado_4996" data-name="Trazado 4996" d="M441.851,374.035a1.392,1.392,0,1,1-1.392-1.392,1.392,1.392,0,0,1,1.392,1.392" fill="#1a2e35"/>
        <path id="Trazado_4997" data-name="Trazado 4997" d="M489.44,374.035a1.391,1.391,0,1,1-1.392-1.392,1.392,1.392,0,0,1,1.392,1.392" fill="#1a2e35"/>
        <path id="Trazado_4998" data-name="Trazado 4998" d="M495.7,374.035a1.391,1.391,0,1,1-1.392-1.392,1.392,1.392,0,0,1,1.392,1.392" fill="#1a2e35"/>
        <path id="Trazado_4999" data-name="Trazado 4999" d="M447.993,374.035a1.392,1.392,0,1,1-1.392-1.392,1.392,1.392,0,0,1,1.392,1.392" fill="#1a2e35"/>
        <path id="Trazado_5000" data-name="Trazado 5000" d="M478.152,374.035a1.392,1.392,0,1,1-1.392-1.392,1.392,1.392,0,0,1,1.392,1.392" fill="#1a2e35"/>
        <path id="Trazado_5001" data-name="Trazado 5001" d="M454.134,374.035a1.391,1.391,0,1,1-1.392-1.392,1.392,1.392,0,0,1,1.392,1.392" fill="#f5f5f5"/>
        <path id="Trazado_5002" data-name="Trazado 5002" d="M460.275,374.035a1.391,1.391,0,1,1-1.392-1.392,1.392,1.392,0,0,1,1.392,1.392" fill="#f5f5f5"/>
        <path id="Trazado_5003" data-name="Trazado 5003" d="M472.735,374.035a1.391,1.391,0,1,1-1.392-1.392,1.392,1.392,0,0,1,1.392,1.392" fill="#f5f5f5"/>
        <path id="Trazado_5004" data-name="Trazado 5004" d="M500.8,374.035a1.392,1.392,0,1,1-1.392-1.392,1.392,1.392,0,0,1,1.392,1.392" fill="#f5f5f5"/>
        <path id="Trazado_5005" data-name="Trazado 5005" d="M466.417,374.035a1.391,1.391,0,1,1-1.392-1.392,1.392,1.392,0,0,1,1.392,1.392" fill="#ff4f5b"/>
        <path id="Trazado_5006" data-name="Trazado 5006" d="M484,374.035a1.391,1.391,0,1,1-1.392-1.392A1.392,1.392,0,0,1,484,374.035" fill="#ff4f5b"/>
        <path id="Trazado_5007" data-name="Trazado 5007" d="M498.016,380.743a1.391,1.391,0,1,1,1.392,1.392,1.391,1.391,0,0,1-1.392-1.392" fill="#1a2e35"/>
        <path id="Trazado_5008" data-name="Trazado 5008" d="M491.874,380.743a1.392,1.392,0,1,1,1.392,1.392,1.392,1.392,0,0,1-1.392-1.392" fill="#1a2e35"/>
        <path id="Trazado_5009" data-name="Trazado 5009" d="M485.732,380.743a1.392,1.392,0,1,1,1.392,1.392,1.392,1.392,0,0,1-1.392-1.392" fill="#1a2e35"/>
        <path id="Trazado_5010" data-name="Trazado 5010" d="M479.592,380.743a1.391,1.391,0,1,1,1.392,1.392,1.392,1.392,0,0,1-1.392-1.392" fill="#1a2e35"/>
        <path id="Trazado_5011" data-name="Trazado 5011" d="M432,380.743a1.392,1.392,0,1,1,1.392,1.392A1.392,1.392,0,0,1,432,380.743" fill="#1a2e35"/>
        <path id="Trazado_5012" data-name="Trazado 5012" d="M425.74,380.743a1.392,1.392,0,1,1,1.392,1.392,1.392,1.392,0,0,1-1.392-1.392" fill="#1a2e35"/>
        <path id="Trazado_5013" data-name="Trazado 5013" d="M473.45,380.743a1.391,1.391,0,1,1,1.392,1.392,1.392,1.392,0,0,1-1.392-1.392" fill="#1a2e35"/>
        <path id="Trazado_5014" data-name="Trazado 5014" d="M443.291,380.743a1.392,1.392,0,1,1,1.392,1.392,1.392,1.392,0,0,1-1.392-1.392" fill="#1a2e35"/>
        <path id="Trazado_5015" data-name="Trazado 5015" d="M467.309,380.743a1.392,1.392,0,1,1,1.392,1.392,1.392,1.392,0,0,1-1.392-1.392" fill="#f5f5f5"/>
        <path id="Trazado_5016" data-name="Trazado 5016" d="M461.168,380.743a1.391,1.391,0,1,1,1.392,1.392,1.392,1.392,0,0,1-1.392-1.392" fill="#f5f5f5"/>
        <path id="Trazado_5017" data-name="Trazado 5017" d="M448.708,380.743a1.391,1.391,0,1,1,1.392,1.392,1.392,1.392,0,0,1-1.392-1.392" fill="#f5f5f5"/>
        <path id="Trazado_5018" data-name="Trazado 5018" d="M420.644,380.743a1.391,1.391,0,1,1,1.392,1.392,1.392,1.392,0,0,1-1.392-1.392" fill="#f5f5f5"/>
        <path id="Trazado_5019" data-name="Trazado 5019" d="M455.026,380.743a1.392,1.392,0,1,1,1.393,1.392,1.393,1.393,0,0,1-1.393-1.392" fill="#ff4f5b"/>
        <path id="Trazado_5020" data-name="Trazado 5020" d="M437.443,380.743a1.392,1.392,0,1,1,1.392,1.392,1.392,1.392,0,0,1-1.392-1.392" fill="#ff4f5b"/>
        <path id="Trazado_5021" data-name="Trazado 5021" d="M423.428,386.709a1.392,1.392,0,1,1-1.392-1.392,1.391,1.391,0,0,1,1.392,1.392" fill="#1a2e35"/>
        <path id="Trazado_5022" data-name="Trazado 5022" d="M429.569,386.709a1.391,1.391,0,1,1-1.392-1.392,1.392,1.392,0,0,1,1.392,1.392" fill="#1a2e35"/>
        <path id="Trazado_5023" data-name="Trazado 5023" d="M435.711,386.709a1.391,1.391,0,1,1-1.392-1.392,1.392,1.392,0,0,1,1.392,1.392" fill="#1a2e35"/>
        <path id="Trazado_5024" data-name="Trazado 5024" d="M441.851,386.709a1.392,1.392,0,1,1-1.392-1.392,1.392,1.392,0,0,1,1.392,1.392" fill="#1a2e35"/>
        <path id="Trazado_5025" data-name="Trazado 5025" d="M489.44,386.709a1.391,1.391,0,1,1-1.392-1.392,1.392,1.392,0,0,1,1.392,1.392" fill="#1a2e35"/>
        <path id="Trazado_5026" data-name="Trazado 5026" d="M495.7,386.709a1.391,1.391,0,1,1-1.392-1.392,1.392,1.392,0,0,1,1.392,1.392" fill="#1a2e35"/>
        <path id="Trazado_5027" data-name="Trazado 5027" d="M447.993,386.709a1.392,1.392,0,1,1-1.392-1.392,1.392,1.392,0,0,1,1.392,1.392" fill="#1a2e35"/>
        <path id="Trazado_5028" data-name="Trazado 5028" d="M478.152,386.709a1.392,1.392,0,1,1-1.392-1.392,1.392,1.392,0,0,1,1.392,1.392" fill="#1a2e35"/>
        <path id="Trazado_5029" data-name="Trazado 5029" d="M454.134,386.709a1.391,1.391,0,1,1-1.392-1.392,1.392,1.392,0,0,1,1.392,1.392" fill="#f5f5f5"/>
        <path id="Trazado_5030" data-name="Trazado 5030" d="M460.275,386.709a1.391,1.391,0,1,1-1.392-1.392,1.392,1.392,0,0,1,1.392,1.392" fill="#f5f5f5"/>
        <path id="Trazado_5031" data-name="Trazado 5031" d="M472.735,386.709a1.391,1.391,0,1,1-1.392-1.392,1.392,1.392,0,0,1,1.392,1.392" fill="#f5f5f5"/>
        <path id="Trazado_5032" data-name="Trazado 5032" d="M500.8,386.709a1.392,1.392,0,1,1-1.392-1.392,1.392,1.392,0,0,1,1.392,1.392" fill="#f5f5f5"/>
        <path id="Trazado_5033" data-name="Trazado 5033" d="M466.417,386.709a1.391,1.391,0,1,1-1.392-1.392,1.392,1.392,0,0,1,1.392,1.392" fill="#ff4f5b"/>
        <path id="Trazado_5034" data-name="Trazado 5034" d="M484,386.709a1.391,1.391,0,1,1-1.392-1.392A1.392,1.392,0,0,1,484,386.709" fill="#ff4f5b"/>
        <path id="Trazado_5035" data-name="Trazado 5035" d="M526.588,320.861l-18.522.05V290.342l18.522-.049Z" fill="#1a2e35"/>
        <path id="Trazado_5036" data-name="Trazado 5036" d="M526.588,283.694l-18.522.05V253.175l18.522-.048Z" fill="#1a2e35"/>
        <path id="Trazado_5037" data-name="Trazado 5037" d="M526.588,358.346l-18.522.05V327.827l18.522-.049Z" fill="#1a2e35"/>
        <path id="Trazado_5038" data-name="Trazado 5038" d="M526.588,396.307l-18.522.049V365.787l18.522-.048Z" fill="#1a2e35"/>
        <rect id="Rectángulo_889" data-name="Rectángulo 889" width="123.209" height="30.568" transform="translate(385.748 252.892)" fill="#375a64"/>
        <rect id="Rectángulo_890" data-name="Rectángulo 890" width="24.26" height="3.732" transform="translate(391.218 259.189)" fill="#1a2e35"/>
        <rect id="Rectángulo_891" data-name="Rectángulo 891" width="24.26" height="3.732" transform="translate(391.218 265.611)" fill="#1a2e35"/>
        <rect id="Rectángulo_892" data-name="Rectángulo 892" width="24.26" height="3.732" transform="translate(391.218 272.252)" fill="#1a2e35"/>
        <path id="Trazado_5039" data-name="Trazado 5039" d="M425.072,261.444a1.392,1.392,0,1,1-1.393-1.392,1.393,1.393,0,0,1,1.393,1.392" fill="#1a2e35"/>
        <path id="Trazado_5040" data-name="Trazado 5040" d="M431.213,261.444a1.392,1.392,0,1,1-1.392-1.392,1.392,1.392,0,0,1,1.392,1.392" fill="#1a2e35"/>
        <path id="Trazado_5041" data-name="Trazado 5041" d="M437.354,261.444a1.391,1.391,0,1,1-1.392-1.392,1.392,1.392,0,0,1,1.392,1.392" fill="#1a2e35"/>
        <path id="Trazado_5042" data-name="Trazado 5042" d="M443.495,261.444a1.391,1.391,0,1,1-1.392-1.392,1.392,1.392,0,0,1,1.392,1.392" fill="#1a2e35"/>
        <path id="Trazado_5043" data-name="Trazado 5043" d="M491.084,261.444a1.392,1.392,0,1,1-1.392-1.392,1.392,1.392,0,0,1,1.392,1.392" fill="#1a2e35"/>
        <path id="Trazado_5044" data-name="Trazado 5044" d="M497.347,261.444a1.391,1.391,0,1,1-1.392-1.392,1.392,1.392,0,0,1,1.392,1.392" fill="#1a2e35"/>
        <path id="Trazado_5045" data-name="Trazado 5045" d="M449.637,261.444a1.391,1.391,0,1,1-1.392-1.392,1.392,1.392,0,0,1,1.392,1.392" fill="#1a2e35"/>
        <path id="Trazado_5046" data-name="Trazado 5046" d="M479.8,261.444a1.391,1.391,0,1,1-1.392-1.392,1.392,1.392,0,0,1,1.392,1.392" fill="#1a2e35"/>
        <path id="Trazado_5047" data-name="Trazado 5047" d="M455.777,261.444a1.392,1.392,0,1,1-1.392-1.392,1.392,1.392,0,0,1,1.392,1.392" fill="#f5f5f5"/>
        <path id="Trazado_5048" data-name="Trazado 5048" d="M461.919,261.444a1.392,1.392,0,1,1-1.392-1.392,1.392,1.392,0,0,1,1.392,1.392" fill="#f5f5f5"/>
        <path id="Trazado_5049" data-name="Trazado 5049" d="M474.379,261.444a1.391,1.391,0,1,1-1.392-1.392,1.392,1.392,0,0,1,1.392,1.392" fill="#f5f5f5"/>
        <path id="Trazado_5050" data-name="Trazado 5050" d="M502.442,261.444a1.391,1.391,0,1,1-1.392-1.392,1.392,1.392,0,0,1,1.392,1.392" fill="#f5f5f5"/>
        <path id="Trazado_5051" data-name="Trazado 5051" d="M468.06,261.444a1.391,1.391,0,1,1-1.392-1.392,1.392,1.392,0,0,1,1.392,1.392" fill="#ff4f5b"/>
        <path id="Trazado_5052" data-name="Trazado 5052" d="M485.643,261.444a1.392,1.392,0,1,1-1.392-1.392,1.392,1.392,0,0,1,1.392,1.392" fill="#ff4f5b"/>
        <path id="Trazado_5053" data-name="Trazado 5053" d="M499.659,268.152a1.391,1.391,0,1,1,1.392,1.392,1.392,1.392,0,0,1-1.392-1.392" fill="#1a2e35"/>
        <path id="Trazado_5054" data-name="Trazado 5054" d="M493.517,268.152a1.391,1.391,0,1,1,1.392,1.392,1.392,1.392,0,0,1-1.392-1.392" fill="#1a2e35"/>
        <path id="Trazado_5055" data-name="Trazado 5055" d="M487.376,268.152a1.392,1.392,0,1,1,1.392,1.392,1.392,1.392,0,0,1-1.392-1.392" fill="#1a2e35"/>
        <path id="Trazado_5056" data-name="Trazado 5056" d="M481.235,268.152a1.392,1.392,0,1,1,1.392,1.392,1.392,1.392,0,0,1-1.392-1.392" fill="#1a2e35"/>
        <path id="Trazado_5057" data-name="Trazado 5057" d="M433.646,268.152a1.391,1.391,0,1,1,1.392,1.392,1.392,1.392,0,0,1-1.392-1.392" fill="#1a2e35"/>
        <path id="Trazado_5058" data-name="Trazado 5058" d="M427.384,268.152a1.391,1.391,0,1,1,1.392,1.392,1.392,1.392,0,0,1-1.392-1.392" fill="#1a2e35"/>
        <path id="Trazado_5059" data-name="Trazado 5059" d="M475.094,268.152a1.392,1.392,0,1,1,1.392,1.392,1.392,1.392,0,0,1-1.392-1.392" fill="#1a2e35"/>
        <path id="Trazado_5060" data-name="Trazado 5060" d="M444.934,268.152a1.392,1.392,0,1,1,1.392,1.392,1.392,1.392,0,0,1-1.392-1.392" fill="#1a2e35"/>
        <path id="Trazado_5061" data-name="Trazado 5061" d="M468.953,268.152a1.391,1.391,0,1,1,1.392,1.392,1.392,1.392,0,0,1-1.392-1.392" fill="#f5f5f5"/>
        <path id="Trazado_5062" data-name="Trazado 5062" d="M462.811,268.152a1.391,1.391,0,1,1,1.392,1.392,1.392,1.392,0,0,1-1.392-1.392" fill="#f5f5f5"/>
        <path id="Trazado_5063" data-name="Trazado 5063" d="M450.351,268.152a1.391,1.391,0,1,1,1.392,1.392,1.392,1.392,0,0,1-1.392-1.392" fill="#f5f5f5"/>
        <path id="Trazado_5064" data-name="Trazado 5064" d="M422.288,268.152a1.392,1.392,0,1,1,1.392,1.392,1.392,1.392,0,0,1-1.392-1.392" fill="#f5f5f5"/>
        <path id="Trazado_5065" data-name="Trazado 5065" d="M456.67,268.152a1.391,1.391,0,1,1,1.392,1.392,1.392,1.392,0,0,1-1.392-1.392" fill="#ff4f5b"/>
        <path id="Trazado_5066" data-name="Trazado 5066" d="M439.087,268.152a1.391,1.391,0,1,1,1.392,1.392,1.392,1.392,0,0,1-1.392-1.392" fill="#ff4f5b"/>
        <path id="Trazado_5067" data-name="Trazado 5067" d="M425.072,274.117a1.392,1.392,0,1,1-1.393-1.392,1.393,1.393,0,0,1,1.393,1.392" fill="#1a2e35"/>
        <path id="Trazado_5068" data-name="Trazado 5068" d="M431.213,274.117a1.392,1.392,0,1,1-1.392-1.392,1.392,1.392,0,0,1,1.392,1.392" fill="#1a2e35"/>
        <path id="Trazado_5069" data-name="Trazado 5069" d="M437.354,274.117a1.391,1.391,0,1,1-1.392-1.392,1.392,1.392,0,0,1,1.392,1.392" fill="#1a2e35"/>
        <path id="Trazado_5070" data-name="Trazado 5070" d="M443.495,274.117a1.391,1.391,0,1,1-1.392-1.392,1.392,1.392,0,0,1,1.392,1.392" fill="#1a2e35"/>
        <path id="Trazado_5071" data-name="Trazado 5071" d="M491.084,274.117a1.392,1.392,0,1,1-1.392-1.392,1.392,1.392,0,0,1,1.392,1.392" fill="#1a2e35"/>
        <path id="Trazado_5072" data-name="Trazado 5072" d="M497.347,274.117a1.391,1.391,0,1,1-1.392-1.392,1.392,1.392,0,0,1,1.392,1.392" fill="#1a2e35"/>
        <path id="Trazado_5073" data-name="Trazado 5073" d="M449.637,274.117a1.391,1.391,0,1,1-1.392-1.392,1.392,1.392,0,0,1,1.392,1.392" fill="#1a2e35"/>
        <path id="Trazado_5074" data-name="Trazado 5074" d="M479.8,274.117a1.391,1.391,0,1,1-1.392-1.392,1.392,1.392,0,0,1,1.392,1.392" fill="#1a2e35"/>
        <path id="Trazado_5075" data-name="Trazado 5075" d="M455.777,274.117a1.392,1.392,0,1,1-1.392-1.392,1.392,1.392,0,0,1,1.392,1.392" fill="#f5f5f5"/>
        <path id="Trazado_5076" data-name="Trazado 5076" d="M461.919,274.117a1.392,1.392,0,1,1-1.392-1.392,1.392,1.392,0,0,1,1.392,1.392" fill="#f5f5f5"/>
        <path id="Trazado_5077" data-name="Trazado 5077" d="M474.379,274.117a1.391,1.391,0,1,1-1.392-1.392,1.392,1.392,0,0,1,1.392,1.392" fill="#f5f5f5"/>
        <path id="Trazado_5078" data-name="Trazado 5078" d="M502.442,274.117a1.391,1.391,0,1,1-1.392-1.392,1.392,1.392,0,0,1,1.392,1.392" fill="#f5f5f5"/>
        <path id="Trazado_5079" data-name="Trazado 5079" d="M468.06,274.117a1.391,1.391,0,1,1-1.392-1.392,1.392,1.392,0,0,1,1.392,1.392" fill="#ff4f5b"/>
        <path id="Trazado_5080" data-name="Trazado 5080" d="M485.643,274.117a1.392,1.392,0,1,1-1.392-1.392,1.392,1.392,0,0,1,1.392,1.392" fill="#ff4f5b"/>
        <path id="Trazado_5081" data-name="Trazado 5081" d="M306.121,33.738s.349-.017,1.029-.025l3.021-.027c2.667-.01,6.579-.027,11.613-.049,10.1-.019,24.688-.047,42.713-.084,36.076-.018,85.895-.044,140.918-.075a31.121,31.121,0,0,1,10.171,1.557,28.222,28.222,0,0,1,8.9,4.9,29.356,29.356,0,0,1,10.153,16.738,48.3,48.3,0,0,1,.571,9.659q0,4.776,0,9.459,0,9.361-.009,18.312c-.02,23.845-.04,45.318-.055,63.354q-.011,6.761-.019,12.862,0,3.045-.01,5.916a11.821,11.821,0,0,1-1.071,5.465,11.3,11.3,0,0,1-7.545,6.2,17.039,17.039,0,0,1-4.4.333l-3.992-.012-11.612-.048-3.019-.026c-.68-.009-1.029-.027-1.029-.027s.349-.018,1.029-.026l3.019-.026,11.612-.048q1.891-.008,3.992-.011a16.973,16.973,0,0,0,4.342-.349,11.038,11.038,0,0,0,7.34-6.081,11.488,11.488,0,0,0,1.025-5.341q0-2.868-.01-5.916-.009-6.092-.019-12.862c-.015-18.036-.035-39.509-.055-63.354q0-8.941-.009-18.312,0-4.682,0-9.459a47.963,47.963,0,0,0-.566-9.558,28.845,28.845,0,0,0-9.979-16.436,27.716,27.716,0,0,0-8.74-4.812,30.6,30.6,0,0,0-10-1.527c-55.023-.031-104.842-.059-140.918-.076-18.025-.036-32.615-.065-42.713-.083-5.034-.022-8.946-.039-11.613-.049l-3.021-.028c-.68-.007-1.029-.026-1.029-.026" fill="#1a2e35"/>
        <rect id="Rectángulo_893" data-name="Rectángulo 893" width="96.611" height="295.95" transform="translate(205.268 99.857)" fill="#ececec"/>
        <path id="Trazado_5082" data-name="Trazado 5082" d="M378.1,395.807H301.879l-.136-295.95H378.1Z" fill="#e1e1e1"/>
        <rect id="Rectángulo_894" data-name="Rectángulo 894" width="81.953" height="23.072" transform="translate(210.616 147.222)" fill="#1a2e35"/>
        <rect id="Rectángulo_895" data-name="Rectángulo 895" width="4.589" height="17.658" transform="translate(212.903 150.122)" fill="#375a64"/>
        <path id="Trazado_5083" data-name="Trazado 5083" d="M222.9,153.837a1.459,1.459,0,1,1-1.459-1.459,1.458,1.458,0,0,1,1.459,1.459" fill="#fff"/>
        <path id="Trazado_5084" data-name="Trazado 5084" d="M222.9,160.076a1.459,1.459,0,1,1-1.459-1.459,1.459,1.459,0,0,1,1.459,1.459" fill="#fff"/>
        <rect id="Rectángulo_896" data-name="Rectángulo 896" width="4.51" height="13.564" transform="translate(228.728 152.379)" fill="#375a64"/>
        <rect id="Rectángulo_897" data-name="Rectángulo 897" width="4.509" height="13.564" transform="translate(235.243 152.379)" fill="#375a64"/>
        <rect id="Rectángulo_898" data-name="Rectángulo 898" width="4.51" height="13.564" transform="translate(241.756 152.379)" fill="#375a64"/>
        <rect id="Rectángulo_899" data-name="Rectángulo 899" width="4.51" height="13.564" transform="translate(248.27 152.379)" fill="#375a64"/>
        <rect id="Rectángulo_900" data-name="Rectángulo 900" width="4.51" height="13.564" transform="translate(254.784 152.379)" fill="#375a64"/>
        <rect id="Rectángulo_901" data-name="Rectángulo 901" width="4.51" height="13.564" transform="translate(261.297 152.379)" fill="#375a64"/>
        <rect id="Rectángulo_902" data-name="Rectángulo 902" width="4.509" height="13.564" transform="translate(267.812 152.379)" fill="#375a64"/>
        <rect id="Rectángulo_903" data-name="Rectángulo 903" width="4.51" height="13.564" transform="translate(274.326 152.379)" fill="#375a64"/>
        <rect id="Rectángulo_904" data-name="Rectángulo 904" width="4.51" height="13.564" transform="translate(280.839 152.379)" fill="#375a64"/>
        <rect id="Rectángulo_905" data-name="Rectángulo 905" width="4.51" height="13.564" transform="translate(287.353 152.379)" fill="#375a64"/>
        <rect id="Rectángulo_906" data-name="Rectángulo 906" width="81.953" height="23.073" transform="translate(210.616 180.367)" fill="#1a2e35"/>
        <rect id="Rectángulo_907" data-name="Rectángulo 907" width="4.589" height="17.658" transform="translate(212.903 183.269)" fill="#375a64"/>
        <path id="Trazado_5085" data-name="Trazado 5085" d="M222.9,186.983a1.459,1.459,0,1,1-1.459-1.458,1.459,1.459,0,0,1,1.459,1.458" fill="#fff"/>
        <path id="Trazado_5086" data-name="Trazado 5086" d="M222.9,193.222a1.459,1.459,0,1,1-1.459-1.458,1.459,1.459,0,0,1,1.459,1.458" fill="#fff"/>
        <rect id="Rectángulo_908" data-name="Rectángulo 908" width="4.51" height="13.563" transform="translate(228.728 185.525)" fill="#375a64"/>
        <rect id="Rectángulo_909" data-name="Rectángulo 909" width="4.509" height="13.563" transform="translate(235.243 185.525)" fill="#375a64"/>
        <rect id="Rectángulo_910" data-name="Rectángulo 910" width="4.51" height="13.563" transform="translate(241.756 185.525)" fill="#375a64"/>
        <rect id="Rectángulo_911" data-name="Rectángulo 911" width="4.51" height="13.563" transform="translate(248.27 185.525)" fill="#375a64"/>
        <rect id="Rectángulo_912" data-name="Rectángulo 912" width="4.51" height="13.563" transform="translate(254.784 185.525)" fill="#375a64"/>
        <rect id="Rectángulo_913" data-name="Rectángulo 913" width="4.51" height="13.563" transform="translate(261.297 185.525)" fill="#375a64"/>
        <rect id="Rectángulo_914" data-name="Rectángulo 914" width="4.509" height="13.563" transform="translate(267.812 185.525)" fill="#375a64"/>
        <rect id="Rectángulo_915" data-name="Rectángulo 915" width="4.51" height="13.563" transform="translate(274.326 185.525)" fill="#375a64"/>
        <rect id="Rectángulo_916" data-name="Rectángulo 916" width="4.51" height="13.563" transform="translate(280.839 185.525)" fill="#375a64"/>
        <rect id="Rectángulo_917" data-name="Rectángulo 917" width="4.51" height="13.563" transform="translate(287.353 185.525)" fill="#375a64"/>
        <rect id="Rectángulo_918" data-name="Rectángulo 918" width="81.953" height="23.073" transform="translate(210.616 213.779)" fill="#1a2e35"/>
        <rect id="Rectángulo_919" data-name="Rectángulo 919" width="4.589" height="17.658" transform="translate(212.903 216.68)" fill="#375a64"/>
        <path id="Trazado_5087" data-name="Trazado 5087" d="M222.9,220.394a1.459,1.459,0,1,1-1.459-1.458,1.459,1.459,0,0,1,1.459,1.458" fill="#fff"/>
        <path id="Trazado_5088" data-name="Trazado 5088" d="M222.9,226.633a1.459,1.459,0,1,1-1.459-1.458,1.459,1.459,0,0,1,1.459,1.458" fill="#fff"/>
        <rect id="Rectángulo_920" data-name="Rectángulo 920" width="4.51" height="13.563" transform="translate(228.728 218.936)" fill="#375a64"/>
        <rect id="Rectángulo_921" data-name="Rectángulo 921" width="4.509" height="13.563" transform="translate(235.243 218.936)" fill="#375a64"/>
        <rect id="Rectángulo_922" data-name="Rectángulo 922" width="4.51" height="13.563" transform="translate(241.756 218.936)" fill="#375a64"/>
        <rect id="Rectángulo_923" data-name="Rectángulo 923" width="4.51" height="13.563" transform="translate(248.27 218.936)" fill="#375a64"/>
        <rect id="Rectángulo_924" data-name="Rectángulo 924" width="4.51" height="13.563" transform="translate(254.784 218.936)" fill="#375a64"/>
        <rect id="Rectángulo_925" data-name="Rectángulo 925" width="4.51" height="13.563" transform="translate(261.297 218.936)" fill="#375a64"/>
        <rect id="Rectángulo_926" data-name="Rectángulo 926" width="4.509" height="13.563" transform="translate(267.812 218.936)" fill="#375a64"/>
        <rect id="Rectángulo_927" data-name="Rectángulo 927" width="4.51" height="13.563" transform="translate(274.326 218.936)" fill="#375a64"/>
        <rect id="Rectángulo_928" data-name="Rectángulo 928" width="4.51" height="13.563" transform="translate(280.839 218.936)" fill="#375a64"/>
        <rect id="Rectángulo_929" data-name="Rectángulo 929" width="4.51" height="13.563" transform="translate(287.353 218.936)" fill="#375a64"/>
        <rect id="Rectángulo_930" data-name="Rectángulo 930" width="81.953" height="23.072" transform="translate(210.616 249.871)" fill="#1a2e35"/>
        <rect id="Rectángulo_931" data-name="Rectángulo 931" width="4.589" height="17.658" transform="translate(212.903 252.772)" fill="#375a64"/>
        <path id="Trazado_5089" data-name="Trazado 5089" d="M222.9,256.486a1.459,1.459,0,1,1-1.459-1.459,1.458,1.458,0,0,1,1.459,1.459" fill="#fff"/>
        <path id="Trazado_5090" data-name="Trazado 5090" d="M222.9,262.726a1.459,1.459,0,1,1-1.459-1.459,1.459,1.459,0,0,1,1.459,1.459" fill="#fff"/>
        <rect id="Rectángulo_932" data-name="Rectángulo 932" width="4.51" height="13.564" transform="translate(228.728 255.028)" fill="#375a64"/>
        <rect id="Rectángulo_933" data-name="Rectángulo 933" width="4.509" height="13.564" transform="translate(235.243 255.028)" fill="#375a64"/>
        <rect id="Rectángulo_934" data-name="Rectángulo 934" width="4.51" height="13.564" transform="translate(241.756 255.028)" fill="#375a64"/>
        <rect id="Rectángulo_935" data-name="Rectángulo 935" width="4.51" height="13.564" transform="translate(248.27 255.028)" fill="#375a64"/>
        <rect id="Rectángulo_936" data-name="Rectángulo 936" width="4.51" height="13.564" transform="translate(254.784 255.028)" fill="#375a64"/>
        <rect id="Rectángulo_937" data-name="Rectángulo 937" width="4.51" height="13.564" transform="translate(261.297 255.028)" fill="#375a64"/>
        <rect id="Rectángulo_938" data-name="Rectángulo 938" width="4.509" height="13.564" transform="translate(267.812 255.028)" fill="#375a64"/>
        <rect id="Rectángulo_939" data-name="Rectángulo 939" width="4.51" height="13.564" transform="translate(274.326 255.028)" fill="#375a64"/>
        <rect id="Rectángulo_940" data-name="Rectángulo 940" width="4.51" height="13.564" transform="translate(280.839 255.028)" fill="#375a64"/>
        <rect id="Rectángulo_941" data-name="Rectángulo 941" width="4.51" height="13.564" transform="translate(287.353 255.028)" fill="#375a64"/>
        <rect id="Rectángulo_942" data-name="Rectángulo 942" width="81.953" height="23.072" transform="translate(210.616 286.321)" fill="#1a2e35"/>
        <rect id="Rectángulo_943" data-name="Rectángulo 943" width="4.589" height="17.658" transform="translate(212.903 289.221)" fill="#375a64"/>
        <path id="Trazado_5091" data-name="Trazado 5091" d="M222.9,292.936a1.459,1.459,0,1,1-1.459-1.459,1.458,1.458,0,0,1,1.459,1.459" fill="#fff"/>
        <path id="Trazado_5092" data-name="Trazado 5092" d="M222.9,299.175a1.459,1.459,0,1,1-1.459-1.459,1.458,1.458,0,0,1,1.459,1.459" fill="#fff"/>
        <rect id="Rectángulo_944" data-name="Rectángulo 944" width="4.51" height="13.564" transform="translate(228.728 291.477)" fill="#375a64"/>
        <rect id="Rectángulo_945" data-name="Rectángulo 945" width="4.509" height="13.564" transform="translate(235.243 291.477)" fill="#375a64"/>
        <rect id="Rectángulo_946" data-name="Rectángulo 946" width="4.51" height="13.564" transform="translate(241.756 291.477)" fill="#375a64"/>
        <rect id="Rectángulo_947" data-name="Rectángulo 947" width="4.51" height="13.564" transform="translate(248.27 291.477)" fill="#375a64"/>
        <rect id="Rectángulo_948" data-name="Rectángulo 948" width="4.51" height="13.564" transform="translate(254.784 291.477)" fill="#375a64"/>
        <rect id="Rectángulo_949" data-name="Rectángulo 949" width="4.51" height="13.564" transform="translate(261.297 291.477)" fill="#375a64"/>
        <rect id="Rectángulo_950" data-name="Rectángulo 950" width="4.509" height="13.564" transform="translate(267.812 291.477)" fill="#375a64"/>
        <rect id="Rectángulo_951" data-name="Rectángulo 951" width="4.51" height="13.564" transform="translate(274.326 291.477)" fill="#375a64"/>
        <rect id="Rectángulo_952" data-name="Rectángulo 952" width="4.51" height="13.564" transform="translate(280.839 291.477)" fill="#375a64"/>
        <rect id="Rectángulo_953" data-name="Rectángulo 953" width="4.51" height="13.564" transform="translate(287.353 291.477)" fill="#375a64"/>
        <rect id="Rectángulo_954" data-name="Rectángulo 954" width="81.953" height="23.072" transform="translate(210.616 358.863)" fill="#1a2e35"/>
        <rect id="Rectángulo_955" data-name="Rectángulo 955" width="4.589" height="17.658" transform="translate(212.903 361.763)" fill="#375a64"/>
        <path id="Trazado_5093" data-name="Trazado 5093" d="M222.9,365.477a1.459,1.459,0,1,1-1.459-1.458,1.459,1.459,0,0,1,1.459,1.458" fill="#fff"/>
        <path id="Trazado_5094" data-name="Trazado 5094" d="M222.9,371.716a1.459,1.459,0,1,1-1.459-1.458,1.459,1.459,0,0,1,1.459,1.458" fill="#fff"/>
        <rect id="Rectángulo_956" data-name="Rectángulo 956" width="4.51" height="13.563" transform="translate(228.728 364.019)" fill="#375a64"/>
        <rect id="Rectángulo_957" data-name="Rectángulo 957" width="4.509" height="13.563" transform="translate(235.243 364.019)" fill="#375a64"/>
        <rect id="Rectángulo_958" data-name="Rectángulo 958" width="4.51" height="13.563" transform="translate(241.756 364.019)" fill="#375a64"/>
        <rect id="Rectángulo_959" data-name="Rectángulo 959" width="4.51" height="13.563" transform="translate(248.27 364.019)" fill="#375a64"/>
        <rect id="Rectángulo_960" data-name="Rectángulo 960" width="4.51" height="13.563" transform="translate(254.784 364.019)" fill="#375a64"/>
        <rect id="Rectángulo_961" data-name="Rectángulo 961" width="4.51" height="13.563" transform="translate(261.297 364.019)" fill="#375a64"/>
        <rect id="Rectángulo_962" data-name="Rectángulo 962" width="4.509" height="13.563" transform="translate(267.812 364.019)" fill="#375a64"/>
        <rect id="Rectángulo_963" data-name="Rectángulo 963" width="4.51" height="13.563" transform="translate(274.326 364.019)" fill="#375a64"/>
        <rect id="Rectángulo_964" data-name="Rectángulo 964" width="4.51" height="13.563" transform="translate(280.839 364.019)" fill="#375a64"/>
        <rect id="Rectángulo_965" data-name="Rectángulo 965" width="4.51" height="13.563" transform="translate(287.353 364.019)" fill="#375a64"/>
        <rect id="Rectángulo_966" data-name="Rectángulo 966" width="81.953" height="23.072" transform="translate(210.616 322.622)" fill="#1a2e35"/>
        <rect id="Rectángulo_967" data-name="Rectángulo 967" width="4.589" height="17.658" transform="translate(212.903 325.523)" fill="#375a64"/>
        <path id="Trazado_5095" data-name="Trazado 5095" d="M222.9,329.237a1.459,1.459,0,1,1-1.459-1.459,1.459,1.459,0,0,1,1.459,1.459" fill="#fff"/>
        <path id="Trazado_5096" data-name="Trazado 5096" d="M222.9,335.477a1.459,1.459,0,1,1-1.459-1.458,1.459,1.459,0,0,1,1.459,1.458" fill="#fff"/>
        <rect id="Rectángulo_968" data-name="Rectángulo 968" width="4.51" height="13.564" transform="translate(228.728 327.779)" fill="#375a64"/>
        <rect id="Rectángulo_969" data-name="Rectángulo 969" width="4.509" height="13.564" transform="translate(235.243 327.779)" fill="#375a64"/>
        <rect id="Rectángulo_970" data-name="Rectángulo 970" width="4.51" height="13.564" transform="translate(241.756 327.779)" fill="#375a64"/>
        <rect id="Rectángulo_971" data-name="Rectángulo 971" width="4.51" height="13.564" transform="translate(248.27 327.779)" fill="#375a64"/>
        <rect id="Rectángulo_972" data-name="Rectángulo 972" width="4.51" height="13.564" transform="translate(254.784 327.779)" fill="#375a64"/>
        <rect id="Rectángulo_973" data-name="Rectángulo 973" width="4.51" height="13.564" transform="translate(261.297 327.779)" fill="#375a64"/>
        <rect id="Rectángulo_974" data-name="Rectángulo 974" width="4.509" height="13.564" transform="translate(267.812 327.779)" fill="#375a64"/>
        <rect id="Rectángulo_975" data-name="Rectángulo 975" width="4.51" height="13.564" transform="translate(274.326 327.779)" fill="#375a64"/>
        <rect id="Rectángulo_976" data-name="Rectángulo 976" width="4.51" height="13.564" transform="translate(280.839 327.779)" fill="#375a64"/>
        <rect id="Rectángulo_977" data-name="Rectángulo 977" width="4.51" height="13.564" transform="translate(287.353 327.779)" fill="#375a64"/>
        <path id="Trazado_5097" data-name="Trazado 5097" d="M261.3,147.222a3.551,3.551,0,0,1-.082-.712c-.033-.469-.06-1.16-.081-2.05s-.038-1.978-.1-3.237a20.587,20.587,0,0,0-.56-4.211,15.041,15.041,0,0,0-2.19-4.615,10.212,10.212,0,0,0-4.492-3.613,21.734,21.734,0,0,0-6.37-1.295l-7.059-.612c-9.673-.839-18.445-1.375-24.8-1.489-3.179-.068-5.751-.048-7.531-.038-.847.011-1.528.018-2.047.024a3.623,3.623,0,0,1-.716-.026,3.636,3.636,0,0,1,.711-.079l2.047-.121c1.779-.072,4.356-.15,7.542-.128,6.371.02,15.164.5,24.842,1.339l7.062.622a21.966,21.966,0,0,1,6.508,1.36,10.616,10.616,0,0,1,4.66,3.806,15.231,15.231,0,0,1,2.192,4.769,20.221,20.221,0,0,1,.5,4.295c.032,1.268.018,2.358.01,3.247-.007.848-.013,1.529-.017,2.048a3.846,3.846,0,0,1-.023.716" fill="#1a2e35"/>
        <path id="Trazado_5098" data-name="Trazado 5098" d="M236.437,147.222a3.209,3.209,0,0,1-.049-.673c-.005-.494-.012-1.135-.02-1.929-.006-.836,0-1.86-.1-3.038a9.344,9.344,0,0,0-1.007-3.8,7.276,7.276,0,0,0-3.7-2.85,10.184,10.184,0,0,0-5.4-.55,9.129,9.129,0,0,0-2.788.946,5.321,5.321,0,0,0-2.166,2.05,2.932,2.932,0,0,0,.007,2.9,3.874,3.874,0,0,0,2.458,1.847,3.129,3.129,0,0,0,2.878-.832,4.246,4.246,0,0,0,1.29-2.739,4.156,4.156,0,0,0-.858-2.8,6.135,6.135,0,0,0-2.169-1.915,8.054,8.054,0,0,0-2.71-.7c-.925-.137-1.824-.258-2.7-.355-1.744-.2-3.376-.308-4.868-.369-2.984-.116-5.407-.069-7.081-.068l-1.928,0a3.31,3.31,0,0,1-.673-.035,3.107,3.107,0,0,1,.671-.069l1.926-.1c1.672-.064,4.1-.167,7.1-.1,1.5.037,3.144.129,4.9.308.878.088,1.784.2,2.715.331.468.074.932.133,1.421.223a5.468,5.468,0,0,1,1.442.5,6.565,6.565,0,0,1,2.356,2.055,4.661,4.661,0,0,1,.961,3.128,4.753,4.753,0,0,1-1.443,3.075,3.646,3.646,0,0,1-3.349.964,4.379,4.379,0,0,1-2.8-2.1,3.452,3.452,0,0,1,0-3.387,5.789,5.789,0,0,1,2.378-2.246,9.59,9.59,0,0,1,2.947-.984,10.557,10.557,0,0,1,5.638.622,7.6,7.6,0,0,1,3.865,3.069,9.5,9.5,0,0,1,.978,3.963c.063,1.2.032,2.224.007,3.061-.031.794-.057,1.433-.076,1.927a3.281,3.281,0,0,1-.057.672" fill="#1a2e35"/>
        <path id="Trazado_5099" data-name="Trazado 5099" d="M267.988,147.222a4.454,4.454,0,0,1-.166-.764c-.089-.5-.229-1.243-.432-2.19a42.5,42.5,0,0,0-2.412-7.817,22.779,22.779,0,0,0-7.132-9.575,13.471,13.471,0,0,0-6.538-2.49,68.051,68.051,0,0,0-7.685-.412c-10.591-.2-20.191-.158-27.135-.429-3.472-.119-6.279-.282-8.217-.419l-2.229-.184a4.182,4.182,0,0,1-.775-.1,4.62,4.62,0,0,1,.782,0l2.233.088c1.94.074,4.747.181,8.217.254,6.939.175,16.531.075,27.135.275a67.1,67.1,0,0,1,7.748.428,13.908,13.908,0,0,1,6.753,2.612,20.669,20.669,0,0,1,4.509,4.769,27.757,27.757,0,0,1,2.674,5.046,39.488,39.488,0,0,1,2.272,7.92c.172.958.281,1.706.336,2.215a4.354,4.354,0,0,1,.062.779" fill="#1a2e35"/>
        <rect id="Rectángulo_978" data-name="Rectángulo 978" width="79.699" height="11.569" transform="translate(211.743 103.538)" fill="#1a2e35"/>
        <rect id="Rectángulo_979" data-name="Rectángulo 979" width="43.392" height="5.784" transform="translate(229.271 109.323)" fill="#375a64"/>
        <path id="Trazado_5100" data-name="Trazado 5100" d="M323.958,343.488c.008.056-.879.145-2.41.589a20.855,20.855,0,0,0-6.021,2.949,16.856,16.856,0,0,0-3.381,3.142,11.672,11.672,0,0,0-1.387,2.143,14.342,14.342,0,0,0-.869,2.57c-.911,3.654-.635,7.839-.454,12.2s-.105,8.693-1.827,12.181a13.531,13.531,0,0,1-3.252,4.349,15.75,15.75,0,0,1-7.725,3.65,13.423,13.423,0,0,1-2.938.124,9.768,9.768,0,0,1-1.831-.288,3.053,3.053,0,0,1-.618-.188c.014-.064.87.208,2.46.274a14.2,14.2,0,0,0,2.878-.209,15.772,15.772,0,0,0,3.631-1.165,15.592,15.592,0,0,0,3.855-2.519,13.231,13.231,0,0,0,3.107-4.235c1.644-3.385,1.92-7.625,1.739-11.957s-.45-8.59.509-12.334a14.672,14.672,0,0,1,.924-2.656,12.067,12.067,0,0,1,1.464-2.215,16.969,16.969,0,0,1,3.5-3.171,19.918,19.918,0,0,1,6.179-2.843,13.477,13.477,0,0,1,1.819-.346,3,3,0,0,1,.645-.047" fill="#1a2e35"/>
        <rect id="Rectángulo_980" data-name="Rectángulo 980" width="6.544" height="7.959" transform="translate(287.221 383.334)" fill="#1a2e35"/>
        <rect id="Rectángulo_981" data-name="Rectángulo 981" width="36.688" height="40.198" transform="translate(323.958 323.389)" fill="#375a64"/>
        <path id="Trazado_5101" data-name="Trazado 5101" d="M354.379,343.647A12.076,12.076,0,1,1,342.3,331.571a12.076,12.076,0,0,1,12.077,12.076" fill="#1a2e35"/>
        <path id="Trazado_5102" data-name="Trazado 5102" d="M348.341,343.647a6.038,6.038,0,1,1-6.039-6.038,6.038,6.038,0,0,1,6.039,6.038" fill="#375a64"/>
        <path id="Trazado_5103" data-name="Trazado 5103" d="M330.042,329.628a1.121,1.121,0,1,1-1.121-1.121,1.121,1.121,0,0,1,1.121,1.121" fill="#1a2e35"/>
        <path id="Trazado_5104" data-name="Trazado 5104" d="M356.157,329.628a1.122,1.122,0,1,1-1.122-1.121,1.122,1.122,0,0,1,1.122,1.121" fill="#1a2e35"/>
        <path id="Trazado_5105" data-name="Trazado 5105" d="M356.4,359.314a1.121,1.121,0,1,1-1.122-1.122,1.121,1.121,0,0,1,1.122,1.122" fill="#1a2e35"/>
        <path id="Trazado_5106" data-name="Trazado 5106" d="M330.042,359.774a1.121,1.121,0,1,1-1.121-1.121,1.121,1.121,0,0,1,1.121,1.121" fill="#1a2e35"/>
        <rect id="Rectángulo_982" data-name="Rectángulo 982" width="2.96" height="40.198" transform="translate(360.646 323.389)" fill="#1a2e35"/>
        <path id="Trazado_5107" data-name="Trazado 5107" d="M315.989,55.293c3.619-8.457,1.424-17.277-4.526-24.294a25.477,25.477,0,0,0-24.931-8.084,27.871,27.871,0,0,0-55.278,3.595,20.862,20.862,0,0,0-15.933,28.3Z" fill="#ff4f5b"/>
        <path id="Trazado_5108" data-name="Trazado 5108" d="M524.412,271.134a1.634,1.634,0,0,1,.356-.027l1.047-.026,4.026-.049a22.052,22.052,0,0,0,6.269-.732,19.255,19.255,0,0,0,13.056-12.064,17.458,17.458,0,0,0,1.116-5.493c.109-1.928.024-3.964.046-6.024-.007-8.267-.014-17.351-.02-26.886v-7.064a27.327,27.327,0,0,0-.13-3.42,14.866,14.866,0,0,0-.773-3.247,15.518,15.518,0,0,0-8.48-9.05c-3.769-1.724-7.826-1.135-11.476-1.294l-10.224-.1-14.8-.186-4.025-.077-1.047-.033a1.7,1.7,0,0,1-.355-.03,1.982,1.982,0,0,1,.356-.023l1.047-.019,4.025-.021c3.527,0,8.577.013,14.8.02l10.224.04,5.7.036a15.67,15.67,0,0,1,5.963,1.249,16,16,0,0,1,8.773,9.32,15.29,15.29,0,0,1,.8,3.354,27.645,27.645,0,0,1,.139,3.484q0,3.483,0,7.064c-.007,9.535-.015,18.619-.02,26.886-.03,2.071.049,4.069-.069,6.05a17.83,17.83,0,0,1-1.168,5.615,19.509,19.509,0,0,1-13.385,12.2,21.77,21.77,0,0,1-6.345.654l-4.026-.049-1.047-.026a1.782,1.782,0,0,1-.356-.026" fill="#1a2e35"/>
        <path id="Trazado_5109" data-name="Trazado 5109" d="M257.713,55V40.825h-7.1L261.3,25.738l10.69,14.984h-6.962V55Z" fill="#fff"/>
        <path id="Trazado_5110" data-name="Trazado 5110" d="M500.85,238.735l7.547,9.86,14.373-6.359-9.193-14.754Z" fill="#e1e1e1"/>
        <path id="Trazado_5111" data-name="Trazado 5111" d="M505.325,239.9l.231,4.877,4.753,2.23-.243-5Z" fill="#375a64"/>
        <path id="Trazado_5112" data-name="Trazado 5112" d="M509.835,237.171l.231,4.877,4.753,2.229-.242-5Z" fill="#375a64"/>
        <path id="Trazado_5113" data-name="Trazado 5113" d="M514.423,234.444l.231,4.877,4.753,2.229-.243-5Z" fill="#375a64"/>
        <path id="Trazado_5114" data-name="Trazado 5114" d="M523.344,242.04l-1.642-2.508-14.085,8.912,3.322,5.564.925-.461c4.094-2.086,20.672-10.9,22.857-13.241,2.436-2.618-11.377,1.734-11.377,1.734" fill="#ff4f5b"/>
        <g id="Grupo_899" data-name="Grupo 899" opacity="0.5">
          <g id="Grupo_898" data-name="Grupo 898">
            <g id="Grupo_897" data-name="Grupo 897" clip-path="url(#clip-path-5)">
              <path id="Trazado_5115" data-name="Trazado 5115" d="M516.085,250.864a5.885,5.885,0,0,0-3.576-2.144,4.857,4.857,0,0,0-4.082,1.08l2.407,3.994Z" fill="#fff"/>
            </g>
          </g>
        </g>
        <g id="Grupo_902" data-name="Grupo 902" opacity="0.5">
          <g id="Grupo_901" data-name="Grupo 901">
            <g id="Grupo_900" data-name="Grupo 900" clip-path="url(#clip-path-6)">
              <path id="Trazado_5116" data-name="Trazado 5116" d="M530.216,240.127s5-1.254,4.875-.238-16.543,10.548-24.152,14.119l-.164-.335,19.246-10.956s-.621-2.069.2-2.59" fill="#fff"/>
            </g>
          </g>
        </g>
        <path id="Trazado_5117" data-name="Trazado 5117" d="M510.544,253.795a1.454,1.454,0,0,0,.263-.116c.22-.112.462-.233.734-.369l2.68-1.406c2.253-1.2,5.344-2.905,8.717-4.858s6.387-3.793,8.55-5.15l2.551-1.626.686-.454a1.612,1.612,0,0,0,.231-.17,1.562,1.562,0,0,0-.253.135L534,240.2l-2.584,1.571c-2.182,1.327-5.206,3.143-8.576,5.1s-6.449,3.674-8.685,4.908l-2.647,1.461-.718.4a1.49,1.49,0,0,0-.243.152" fill="#1a2e35"/>
        <path id="Trazado_5118" data-name="Trazado 5118" d="M530.146,242.943a6.766,6.766,0,0,1-.236-1.531,6.851,6.851,0,0,1,.309-1.518,2.692,2.692,0,0,0-.073,3.049" fill="#1a2e35"/>
        <path id="Trazado_5119" data-name="Trazado 5119" d="M524.653,243.253a3.372,3.372,0,0,0,.064-1.638,1.8,1.8,0,0,0-.132.816,1.743,1.743,0,0,0,.068.822" fill="#1a2e35"/>
        <path id="Trazado_5120" data-name="Trazado 5120" d="M523.132,243.314c.053.018.191-.266.311-.632s.17-.678.118-.7-.192.266-.311.633-.172.677-.118.694" fill="#1a2e35"/>
        <path id="Trazado_5121" data-name="Trazado 5121" d="M521.607,242.384a1.959,1.959,0,0,0,.806-.34c.418-.236.734-.467.707-.515a1.961,1.961,0,0,0-.807.339c-.417.237-.733.468-.706.516" fill="#1a2e35"/>
        <path id="Trazado_5122" data-name="Trazado 5122" d="M520.8,241.573a1.683,1.683,0,0,0,.979-.242c.509-.245.833-.578.8-.617a5.321,5.321,0,0,0-.885.435,5.4,5.4,0,0,0-.891.424" fill="#1a2e35"/>
        <path id="Trazado_5123" data-name="Trazado 5123" d="M524.413,241.716a3.084,3.084,0,0,0,.921-.542,6.34,6.34,0,0,0,.857-.788,3.087,3.087,0,0,0,.429-.56.58.58,0,0,0,.062-.42.421.421,0,0,0-.355-.288,1.962,1.962,0,0,0-1.808,1.713,1.925,1.925,0,0,0,.057.792c.055.179.109.268.121.263a2.99,2.99,0,0,1-.037-1.032,1.932,1.932,0,0,1,.491-.972,1.658,1.658,0,0,1,1.146-.564c.21.023.253.229.145.421a3.217,3.217,0,0,1-.389.524,7.53,7.53,0,0,1-.809.8c-.5.42-.848.625-.831.653" fill="#1a2e35"/>
        <path id="Trazado_5124" data-name="Trazado 5124" d="M524.679,241.623a1.043,1.043,0,0,0-.266-.7,1.74,1.74,0,0,0-.644-.528,1.07,1.07,0,0,0-1.043-.025.426.426,0,0,0-.037.592,1.175,1.175,0,0,0,.4.322,3.29,3.29,0,0,0,.762.306,1.532,1.532,0,0,0,.746.066c0-.031-.28-.058-.705-.2a3.719,3.719,0,0,1-.709-.33c-.24-.122-.531-.422-.323-.6a.955.955,0,0,1,.836.04,1.749,1.749,0,0,1,.61.449,3.834,3.834,0,0,1,.377.614" fill="#1a2e35"/>
        <path id="Trazado_5125" data-name="Trazado 5125" d="M508.553,249.691c.021.03.389-.278,1.083-.579a5.208,5.208,0,0,1,5.51.815c.578.49.84.891.869.868a.943.943,0,0,0-.168-.291,4.464,4.464,0,0,0-.607-.684,5.055,5.055,0,0,0-5.663-.838,4.4,4.4,0,0,0-.779.48c-.17.133-.253.219-.245.229" fill="#1a2e35"/>
        <path id="Trazado_5126" data-name="Trazado 5126" d="M517.08,248.412a13.672,13.672,0,0,0,4.226-2.4c-.035-.048-.94.554-2.105,1.214s-2.144,1.132-2.121,1.186" fill="#1a2e35"/>
        <path id="Trazado_5127" data-name="Trazado 5127" d="M514.26,250.044c-.015.056.192.154.413.314s.384.321.432.289-.058-.271-.315-.453-.519-.2-.53-.15" fill="#1a2e35"/>
        <path id="Trazado_5128" data-name="Trazado 5128" d="M512.43,249.339c-.015.054.165.149.4.214s.44.073.454.019-.165-.149-.4-.213-.439-.074-.454-.02" fill="#1a2e35"/>
        <path id="Trazado_5129" data-name="Trazado 5129" d="M510.559,249.617c.038.043.229-.069.482-.118s.473-.025.492-.078-.217-.184-.532-.119-.483.279-.442.315" fill="#1a2e35"/>
        <path id="Trazado_5130" data-name="Trazado 5130" d="M509.311,249.961c.009.055.135.08.281.058s.257-.087.248-.142-.133-.081-.28-.058-.258.086-.249.142" fill="#1a2e35"/>
        <path id="Trazado_5131" data-name="Trazado 5131" d="M405.463,231.437,461.7,178.408a18.487,18.487,0,0,1,29.269,3.745l28.771,49.438-18.254,10.532-27.71-35.237-27.767,25.089Z" fill="#1a2e35"/>
        <path id="Trazado_5132" data-name="Trazado 5132" d="M388.906,234.1c-.238.715-1.907,18.833,22.408,18.833h64.97a14.89,14.89,0,1,0,0-29.78H415.792a14.886,14.886,0,0,0-6.266,1.382Z" fill="#1a2e35"/>
        <path id="Trazado_5133" data-name="Trazado 5133" d="M482.028,223.149c0,.144-13.419.26-29.969.26s-29.97-.116-29.97-.26,13.416-.261,29.97-.261,29.969.116,29.969.261" fill="#375a64"/>
        <path id="Trazado_5134" data-name="Trazado 5134" d="M472,194.49c.156,0,.163,2.812.673,6.22.494,3.411,1.3,6.1,1.148,6.149A26.07,26.07,0,0,1,472,194.49" fill="#375a64"/>
        <path id="Trazado_5135" data-name="Trazado 5135" d="M474.759,194.086a26.43,26.43,0,0,1-.025,6.4,26.39,26.39,0,0,1-1.064,6.3c-.148-.025.249-2.85.544-6.35s.4-6.35.545-6.35" fill="#375a64"/>
        <path id="Trazado_5136" data-name="Trazado 5136" d="M424.388,114.331a1.9,1.9,0,0,1-3.057,1.692c-1.108-.862-.933-2.589-.426-3.9s1.25-2.669.925-4.035a9.358,9.358,0,0,0-1.661-2.737,6.067,6.067,0,0,1-.668-5.371,5.094,5.094,0,0,1,4.207-3.262c1.9-.154,4.023.836,5.623-.209,1.16-.758,1.522-2.3,2.5-3.283,1.513-1.529,4.043-1.325,6.079-.631s4.034,1.78,6.181,1.67c1.794-.092,3.431-1.014,5.177-1.434a9.413,9.413,0,0,1,9.556,15.029c-.873,1.092-2.839,4.359-6.753,3.545" fill="#1a2e35"/>
        <path id="Trazado_5137" data-name="Trazado 5137" d="M426.615,99.528l-.527,2.817-8.161,42.123c-.946,4.89,2.5,9.6,7.748,10.574,5.3.984,10.426-2.208,11.464-7.132,1.09-5.169,2.332-10.59,2.332-10.59s6.893.277,10.079-8.128c1.584-4.181,2.838-11.313,3.676-17.183a9.375,9.375,0,0,0-8.346-10.66Z" fill="#ffc09d"/>
        <path id="Trazado_5138" data-name="Trazado 5138" d="M449.281,116.191a1.139,1.139,0,0,1-1.309.9,1.088,1.088,0,0,1-.94-1.244,1.139,1.139,0,0,1,1.308-.9,1.089,1.089,0,0,1,.941,1.244" fill="#1a2e35"/>
        <path id="Trazado_5139" data-name="Trazado 5139" d="M450.923,115.377c-.168.117-.883-.684-2.083-.93-1.2-.262-2.2.172-2.3,0-.05-.078.145-.311.586-.51a3.117,3.117,0,0,1,1.882-.179,3,3,0,0,1,1.62.922c.311.359.381.648.3.7" fill="#1a2e35"/>
        <path id="Trazado_5140" data-name="Trazado 5140" d="M437.81,113.859a1.137,1.137,0,0,1-1.308.9,1.087,1.087,0,0,1-.94-1.243,1.138,1.138,0,0,1,1.308-.9,1.088,1.088,0,0,1,.94,1.244" fill="#1a2e35"/>
        <path id="Trazado_5141" data-name="Trazado 5141" d="M439.085,113.152c-.168.117-.884-.683-2.084-.929-1.194-.262-2.2.172-2.3,0-.049-.078.145-.311.587-.51a3.122,3.122,0,0,1,1.881-.178,2.99,2.99,0,0,1,1.621.922c.31.359.38.648.3.7" fill="#1a2e35"/>
        <path id="Trazado_5142" data-name="Trazado 5142" d="M441.591,122.953a8.091,8.091,0,0,1,2.021.053c.314.032.617.031.711-.167a1.587,1.587,0,0,0-.015-.95q-.2-1.2-.422-2.521a41.1,41.1,0,0,1-.768-6.524,40.874,40.874,0,0,1,1.291,6.447q.2,1.323.38,2.526a1.809,1.809,0,0,1-.091,1.236.776.776,0,0,1-.6.342,2.062,2.062,0,0,1-.535-.035,8.057,8.057,0,0,1-1.976-.407" fill="#1a2e35"/>
        <path id="Trazado_5143" data-name="Trazado 5143" d="M439.472,137.32a22.576,22.576,0,0,1-11-5.521s1.584,6.556,10.453,7.55Z" fill="#ff9b6c"/>
        <path id="Trazado_5144" data-name="Trazado 5144" d="M437.888,123.05c.2.029-.07,1.332.852,2.487s2.338,1.3,2.311,1.485c0,.085-.362.188-.951.083a3.312,3.312,0,0,1-1.944-1.166,2.879,2.879,0,0,1-.631-2.069c.063-.554.275-.846.363-.82" fill="#1a2e35"/>
        <path id="Trazado_5145" data-name="Trazado 5145" d="M440.371,108.516c-.186.3-1.352-.1-2.794-.225-1.44-.151-2.661.025-2.787-.306-.054-.157.207-.423.732-.644a4.877,4.877,0,0,1,4.251.4c.474.316.681.626.6.771" fill="#1a2e35"/>
        <path id="Trazado_5146" data-name="Trazado 5146" d="M451.2,111.814c-.268.229-1.035-.226-2.026-.445-.983-.254-1.873-.2-2.008-.524-.056-.155.134-.4.555-.583a3,3,0,0,1,3.25.781c.292.353.35.658.229.771" fill="#1a2e35"/>
        <path id="Trazado_5147" data-name="Trazado 5147" d="M454.316,108.213s-4.922,1.4-10.312-2.577c-3.537-2.612-7.889-4.347-9.021-3.742s-2.04,4.561-6.083,5.055c0,0-1.069,7.665-4.059,6.862s.619-15.883.619-15.883l8.419,1.283,8.376-.113,7.454,2.413,5.628,2.653Z" fill="#1a2e35"/>
        <path id="Trazado_5148" data-name="Trazado 5148" d="M425.7,95.726c-.019-.123.75-.244,1.521.233s1.018,1.21.9,1.249c-.118.063-.49-.463-1.142-.853s-1.28-.5-1.279-.629" fill="#1a2e35"/>
        <path id="Trazado_5149" data-name="Trazado 5149" d="M428.742,93.689c.138.04-.094.918-.149,1.976s.229,1.9.105,1.952a2.4,2.4,0,0,1-.569-1.972,3.017,3.017,0,0,1,.613-1.956" fill="#1a2e35"/>
        <path id="Trazado_5150" data-name="Trazado 5150" d="M425.665,110.73c-.111-.086-4.668-2.764-5.773,2.295s4.2,5.126,4.243,4.982,1.53-7.277,1.53-7.277" fill="#ffc09d"/>
        <path id="Trazado_5151" data-name="Trazado 5151" d="M423.008,115.753c-.019-.021-.1.042-.266.078a.9.9,0,0,1-.662-.131,2.23,2.23,0,0,1-.581-2.176,2.98,2.98,0,0,1,.523-1.209,1.045,1.045,0,0,1,.81-.532.459.459,0,0,1,.467.356c.037.156-.017.251.008.264s.127-.06.133-.278a.584.584,0,0,0-.13-.36.684.684,0,0,0-.46-.236,1.269,1.269,0,0,0-1.092.583,3.066,3.066,0,0,0-.613,1.344,2.342,2.342,0,0,0,.807,2.465.966.966,0,0,0,.836.043c.184-.091.236-.2.22-.211" fill="#ff9b6c"/>
        <path id="Trazado_5152" data-name="Trazado 5152" d="M442.431,113.688c-.053,0-.04-.479-.267-1.289a5.357,5.357,0,0,0-1.968-2.84,5.153,5.153,0,1,0,0,8.257,5.361,5.361,0,0,0,1.968-2.84c.227-.809.214-1.291.267-1.288.019,0,.03.118.035.346a4.114,4.114,0,0,1-.1.991,5.356,5.356,0,0,1-1.943,3.084,5.566,5.566,0,0,1-7.9-1.092,5.581,5.581,0,0,1,0-6.659,5.565,5.565,0,0,1,7.9-1.092,5.358,5.358,0,0,1,1.944,3.084,4.118,4.118,0,0,1,.1.991c-.005.229-.016.347-.035.347" fill="#375a64"/>
        <path id="Trazado_5153" data-name="Trazado 5153" d="M455.338,116.02c-.053,0-.041-.479-.267-1.289a5.369,5.369,0,0,0-1.969-2.84,5.153,5.153,0,1,0,0,8.257,5.366,5.366,0,0,0,1.969-2.84c.226-.809.214-1.291.267-1.288.018,0,.029.118.034.346a4.075,4.075,0,0,1-.1.992,5.357,5.357,0,0,1-1.943,3.083,5.566,5.566,0,0,1-7.9-1.092,5.581,5.581,0,0,1,0-6.659,5.566,5.566,0,0,1,7.9-1.092,5.356,5.356,0,0,1,1.943,3.084,4.068,4.068,0,0,1,.1.991c-.005.229-.016.347-.034.347" fill="#375a64"/>
        <path id="Trazado_5154" data-name="Trazado 5154" d="M432.289,110.708a20.236,20.236,0,0,1-6.473.021,20.236,20.236,0,0,1,6.473-.021" fill="#375a64"/>
        <path id="Trazado_5155" data-name="Trazado 5155" d="M444.581,114.991c-.131.057-.448-.431-1.041-.6s-1.119.063-1.2-.055c-.04-.055.048-.21.289-.344a1.433,1.433,0,0,1,1.892.552c.131.242.121.42.059.445" fill="#375a64"/>
        <path id="Trazado_5156" data-name="Trazado 5156" d="M432.687,222.721v-3.337l47.5.972,27.35-43.7,2.509,1.811-28.019,44.68Z" fill="#e1e1e1"/>
        <path id="Trazado_5157" data-name="Trazado 5157" d="M465.549,208.157l2.391,3.546V219a1.586,1.586,0,0,1-1.732-.7,29.231,29.231,0,0,1-1.154-4.371l-1.157,2.989a2.578,2.578,0,0,1-3.031,1.569l-8.807-2.209,3.6-10.292Z" fill="#ffc09d"/>
        <path id="Trazado_5158" data-name="Trazado 5158" d="M416.911,137.661s-13.146,3.287-17.091,9.2-8.435,15.734-13.274,34.777c-4.223,16.618-7.481,43.157-2.908,49.383,3.148,4.288,5.156,5.379,5.156,5.379l10.145-3.634a78.444,78.444,0,0,0,26.42-15.9l15.569-14.2-8.241-6.5s6.269-33.862,4.6-45.694c-1.457-10.345-20.379-12.81-20.379-12.81" fill="#ff4f5b"/>
        <path id="Trazado_5159" data-name="Trazado 5159" d="M420.311,147.865c-5.06,1.256-9.927,3.31-16.843,3.889a7.672,7.672,0,0,1-4.667-1.018c-4.365-2.694-2.853-7.683-.468-11.043,2.529-3.56,6.51-6.625,10.855-6.187a5.005,5.005,0,0,1,2.483-5.855,8.186,8.186,0,0,1,6.727-.152,24.187,24.187,0,0,1,5.892,3.621l7.434,5.611a14.134,14.134,0,0,1,4.351,4.434c.961,1.853,4.52,9.129,2.939,10.493,0,0-2.022.589-3,0a1.822,1.822,0,0,1-.182-.127,18.184,18.184,0,0,0-15.521-3.666" fill="#ff4f5b"/>
        <path id="Trazado_5160" data-name="Trazado 5160" d="M412.837,154.03l-8.69,40.623a14.542,14.542,0,0,0,9.248,16.71l37.767,7.242,4.709-14.077-30.648-9.561,8.988-39.246Z" fill="#ff4f5b"/>
        <path id="Trazado_5161" data-name="Trazado 5161" d="M403.823,202.379a1.384,1.384,0,0,1,.06.236c.036.176.083.407.142.7.031.158.066.331.1.521q.1.279.219.6l.258.707c.13.236.269.488.414.754a10.077,10.077,0,0,0,3.055,3.229,17.137,17.137,0,0,0,5.54,2.417l37.367,6.836-.252.145c1.556-4.459,3.2-9.174,4.913-14.083l.157.312-30.655-9.545-.235-.073.061-.241c.535-2.091,1.106-4.332,1.681-6.588,1.781-7.114,3.451-14.078,4.9-20.834.711-3.38,1.386-6.71,1.852-9.992.137-.82.133-1.631.207-2.441a10.747,10.747,0,0,0-.268-2.374,9.914,9.914,0,0,0-2.091-4.162,10.223,10.223,0,0,0-8.008-3.586,10.46,10.46,0,0,0-7.436,3.763,19.6,19.6,0,0,0-3.831,7.061,62.639,62.639,0,0,0-1.737,7.312c-1.857,9.416-3.361,17.042-4.406,22.336-.529,2.618-.94,4.659-1.224,6.067q-.215,1.016-.331,1.575c-.078.355-.131.534-.131.534s.019-.186.078-.544c.067-.377.16-.9.281-1.585.261-1.413.641-3.46,1.127-6.085,1.006-5.3,2.456-12.939,4.245-22.369a62.448,62.448,0,0,1,1.715-7.365,19.984,19.984,0,0,1,3.892-7.224,10.9,10.9,0,0,1,7.742-3.934,10.686,10.686,0,0,1,8.389,3.732,10.4,10.4,0,0,1,2.2,4.364,11.321,11.321,0,0,1,.284,2.489c-.072.829-.071,1.681-.208,2.5-.464,3.308-1.136,6.642-1.844,10.031-1.448,6.769-3.115,13.736-4.9,20.855-.576,2.257-1.148,4.5-1.683,6.592l-.173-.313,30.643,9.579.239.074-.083.236c-1.723,4.9-3.38,9.617-4.947,14.072l-.063.181-.189-.035c-15.46-2.891-28.329-5.252-37.349-7.022a17.22,17.22,0,0,1-5.593-2.506,10.094,10.094,0,0,1-3.058-3.325l-.4-.774-.246-.721c-.074-.223-.143-.428-.206-.617-.032-.193-.061-.37-.086-.529-.046-.3-.082-.534-.11-.712a1.223,1.223,0,0,1-.024-.241" fill="#1a2e35"/>
        <path id="Trazado_5162" data-name="Trazado 5162" d="M419.954,200.288c-.06,0-.112-.477.079-1.215a5.673,5.673,0,0,1,4.1-3.936c.745-.162,1.216-.09,1.216-.032.005.084-.446.146-1.114.385a6.556,6.556,0,0,0-3.852,3.7c-.266.658-.346,1.107-.429,1.1" fill="#1a2e35"/>
        <g id="Grupo_905" data-name="Grupo 905" opacity="0.2">
          <g id="Grupo_904" data-name="Grupo 904">
            <g id="Grupo_903" data-name="Grupo 903" clip-path="url(#clip-path-7)">
              <path id="Trazado_5163" data-name="Trazado 5163" d="M411.951,153.489a234.134,234.134,0,0,0-9.1,43.385,34.924,34.924,0,0,0-.2,10.208A11.318,11.318,0,0,0,417,217.035c3.133-.594,8.2-1.287,11.085-2.65l-16.9-3.484s-10.9-.678-6.216-21.542,6.985-35.87,6.985-35.87"/>
            </g>
          </g>
        </g>
        <g id="Grupo_908" data-name="Grupo 908" opacity="0.2">
          <g id="Grupo_907" data-name="Grupo 907">
            <g id="Grupo_906" data-name="Grupo 906" clip-path="url(#clip-path-8)">
              <path id="Trazado_5164" data-name="Trazado 5164" d="M397.543,150.022c-.067,1.667.089,3.723,1.6,4.421,1.558.717,3.246-.584,4.506-1.746a72.591,72.591,0,0,1,17.184-11.777,40.247,40.247,0,0,0-23.263,9.4"/>
            </g>
          </g>
        </g>
        <path id="Trazado_5165" data-name="Trazado 5165" d="M430.642,144.93a28.1,28.1,0,0,0-4.657-2.486,19.77,19.77,0,0,0-5.547-1.261,18.414,18.414,0,0,0-6.892.749,34.728,34.728,0,0,0-6.416,2.81c-1.9,1.035-3.6,2.018-5.058,2.784a38.618,38.618,0,0,1-3.528,1.671,6.862,6.862,0,0,1-1.359.455,8.388,8.388,0,0,1,1.277-.641c.826-.4,2.007-1,3.434-1.809l5-2.881a33.186,33.186,0,0,1,6.5-2.888,18.328,18.328,0,0,1,7.081-.728,19.156,19.156,0,0,1,5.644,1.4,16.49,16.49,0,0,1,3.42,1.907,9.587,9.587,0,0,1,.836.657c.185.16.276.249.264.264" fill="#1a2e35"/>
        <path id="Trazado_5166" data-name="Trazado 5166" d="M435.93,147.035c-.065.065-1.261-1.126-3.372-2.828a48.846,48.846,0,0,0-18.8-9.371c-2.631-.661-4.3-.9-4.288-.989a5.07,5.07,0,0,1,1.185.082,31.375,31.375,0,0,1,3.188.548,43.617,43.617,0,0,1,18.953,9.447,31.542,31.542,0,0,1,2.358,2.215,5.231,5.231,0,0,1,.779.9" fill="#1a2e35"/>
        <path id="Trazado_5167" data-name="Trazado 5167" d="M438.454,179.91a3.465,3.465,0,0,1-.2-.845c-.1-.552-.238-1.362-.329-2.4a12.1,12.1,0,0,1,.171-3.733,2.154,2.154,0,0,1,1.642-1.679,1.266,1.266,0,0,1,1.281.522,1.148,1.148,0,0,1-.072,1.464l-.051.05-.077.014a1.621,1.621,0,0,1-1.434-.563,2.645,2.645,0,0,1-.614-1.412c-.122-1-.125-1.96-.192-2.977-.249-4.794-.445-9.134-.561-12.278-.044-1.493-.082-2.742-.11-3.724a6.874,6.874,0,0,1,.03-1.369,6.851,6.851,0,0,1,.172,1.36c.073.977.165,2.224.276,3.714.21,3.139.465,7.477.713,12.271.065,1,.074,2.021.179,2.924a2.152,2.152,0,0,0,.479,1.151,1.129,1.129,0,0,0,.981.417l-.127.064a.674.674,0,0,0,.012-.84.788.788,0,0,0-.816-.334,1.732,1.732,0,0,0-1.312,1.342,12.644,12.644,0,0,0-.267,3.6c.117,2.047.3,3.255.227,3.263" fill="#e1e1e1"/>
        <path id="Trazado_5168" data-name="Trazado 5168" d="M422.033,212.979a10.264,10.264,0,0,1-1.221,1.15c-.8.72-2.005,1.72-3.515,2.921a110.7,110.7,0,0,1-12.449,8.511,105.488,105.488,0,0,1-13.516,6.692c-1.788.728-3.252,1.274-4.276,1.616a10.317,10.317,0,0,1-1.6.489,10.09,10.09,0,0,1,1.533-.679c1-.4,2.44-1,4.2-1.764a125.726,125.726,0,0,0,13.4-6.8,132.69,132.69,0,0,0,12.486-8.354c1.536-1.16,2.77-2.113,3.611-2.785a10.429,10.429,0,0,1,1.351-.994" fill="#1a2e35"/>
        <path id="Trazado_5169" data-name="Trazado 5169" d="M391.576,235.711c-.114.086-.712-.514-1.334-1.341s-1.034-1.566-.919-1.653.713.514,1.335,1.341,1.033,1.566.918,1.653" fill="#1a2e35"/>
        <path id="Trazado_5170" data-name="Trazado 5170" d="M397.612,233.16c-.081.113-.906-.352-1.68-1.206s-1.162-1.716-1.042-1.786.688.627,1.427,1.435,1.384,1.439,1.3,1.557" fill="#1a2e35"/>
        <path id="Trazado_5171" data-name="Trazado 5171" d="M405.2,230.658c-.108.1-.945-.677-1.871-1.725s-1.588-1.975-1.481-2.07.946.677,1.872,1.726,1.587,1.974,1.48,2.069" fill="#1a2e35"/>
        <path id="Trazado_5172" data-name="Trazado 5172" d="M413.334,226.337c-.11.092-1-.806-2-2A7.831,7.831,0,0,1,409.745,222c.11-.092,1,.805,1.995,2a7.818,7.818,0,0,1,1.594,2.335" fill="#1a2e35"/>
        <path id="Trazado_5173" data-name="Trazado 5173" d="M420.892,220.684a6.949,6.949,0,0,1-2.135-1.579c-1.083-.98-1.883-1.859-1.786-1.966a6.926,6.926,0,0,1,2.136,1.579c1.082.98,1.882,1.86,1.785,1.966" fill="#1a2e35"/>
        <path id="Trazado_5174" data-name="Trazado 5174" d="M493.435,139.541a2.322,2.322,0,1,1-2.311-2.332,2.322,2.322,0,0,1,2.311,2.332" fill="#375a64"/>
        <path id="Trazado_5175" data-name="Trazado 5175" d="M486.474,136.557a6.433,6.433,0,0,1,9.308-.123,1.306,1.306,0,0,0,1.854-1.837,9.071,9.071,0,0,0-13,.106c-1.158,1.215.677,3.074,1.838,1.854" fill="#375a64"/>
        <path id="Trazado_5176" data-name="Trazado 5176" d="M478.59,125.751a19,19,0,0,1,12.463-4.983,18.49,18.49,0,0,1,12.715,4.865c1.223,1.149,3.083-.685,1.854-1.838a21.2,21.2,0,0,0-14.557-5.639,21.828,21.828,0,0,0-14.313,5.741c-1.273,1.1.571,2.95,1.838,1.854" fill="#375a64"/>
        <path id="Trazado_5177" data-name="Trazado 5177" d="M481.7,131.74a12.772,12.772,0,0,1,18.768-.268c1.173,1.206,3.028-.631,1.854-1.837a15.374,15.374,0,0,0-22.46.251c-1.14,1.231.693,3.091,1.838,1.854" fill="#375a64"/>
      </g>
    </g>
  </g>
</svg>
