<svg id="Grupo_666" data-name="Grupo 666" xmlns="http://www.w3.org/2000/svg" xmlns:xlink="http://www.w3.org/1999/xlink" width="321.656" height="201.502" viewBox="0 0 321.656 201.502">
  <defs>
    <clipPath id="clip-path">
      <rect id="Rectángulo_490" data-name="Rectángulo 490" width="321.656" height="201.502" fill="none"/>
    </clipPath>
    <clipPath id="clip-path-3">
      <rect id="Rectángulo_479" data-name="Rectángulo 479" width="11.028" height="16.729" fill="none"/>
    </clipPath>
    <clipPath id="clip-path-4">
      <rect id="Rectángulo_480" data-name="Rectángulo 480" width="1.427" height="28.14" fill="none"/>
    </clipPath>
    <clipPath id="clip-path-5">
      <rect id="Rectángulo_481" data-name="Rectángulo 481" width="1.299" height="2.758" fill="none"/>
    </clipPath>
    <clipPath id="clip-path-6">
      <rect id="Rectángulo_482" data-name="Rectángulo 482" width="4.336" height="16.543" fill="none"/>
    </clipPath>
    <clipPath id="clip-path-7">
      <rect id="Rectángulo_483" data-name="Rectángulo 483" width="38.608" height="3.412" fill="none"/>
    </clipPath>
    <clipPath id="clip-path-8">
      <rect id="Rectángulo_484" data-name="Rectángulo 484" width="12.368" height="7.831" fill="none"/>
    </clipPath>
    <clipPath id="clip-path-9">
      <rect id="Rectángulo_485" data-name="Rectángulo 485" width="1.647" height="3.392" fill="none"/>
    </clipPath>
    <clipPath id="clip-path-10">
      <rect id="Rectángulo_486" data-name="Rectángulo 486" width="3.52" height="2.491" fill="none"/>
    </clipPath>
    <clipPath id="clip-path-11">
      <rect id="Rectángulo_487" data-name="Rectángulo 487" width="16.052" height="1.695" fill="none"/>
    </clipPath>
    <clipPath id="clip-path-12">
      <rect id="Rectángulo_488" data-name="Rectángulo 488" width="44.688" height="58.333" fill="none"/>
    </clipPath>
  </defs>
  <g id="Grupo_665" data-name="Grupo 665" clip-path="url(#clip-path)">
    <rect id="Rectángulo_471" data-name="Rectángulo 471" width="182.533" height="122.253" transform="translate(115.145)" fill="#fafafa"/>
    <rect id="Rectángulo_472" data-name="Rectángulo 472" width="182.533" height="12.211" transform="translate(115.145 0.001)" fill="#ececec"/>
    <g id="Grupo_664" data-name="Grupo 664">
      <g id="Grupo_663" data-name="Grupo 663" clip-path="url(#clip-path)">
        <path id="Trazado_3887" data-name="Trazado 3887" d="M142.149,6.858a1.479,1.479,0,0,1-2.951,0,1.479,1.479,0,0,1,2.951,0" transform="translate(-19.097 -0.753)" fill="#fafafa"/>
        <path id="Trazado_3888" data-name="Trazado 3888" d="M147.666,6.858a1.479,1.479,0,0,1-2.951,0,1.479,1.479,0,0,1,2.951,0" transform="translate(-19.854 -0.753)" fill="#fafafa"/>
        <path id="Trazado_3889" data-name="Trazado 3889" d="M153.185,6.858a1.479,1.479,0,0,1-2.951,0,1.479,1.479,0,0,1,2.951,0" transform="translate(-20.611 -0.753)" fill="#fafafa"/>
        <path id="Trazado_3890" data-name="Trazado 3890" d="M324.76,149.71c-9.539-6.665-11.7-19.035-11.325-30.154.062-1.857-.141-3.813.741-5.442s2.944-2.741,4.6-1.959c1.379.649,1.979,2.252,2.751,3.578a10.849,10.849,0,0,0,4.353,4.157,4.138,4.138,0,0,0,3.811.346c1.6-.884,1.789-3.1,1.777-4.942q-.031-5.161-.064-10.322a17.175,17.175,0,0,1,.557-5.482,5.723,5.723,0,0,1,3.6-3.871,3.472,3.472,0,0,1,4.3,2.327,16.994,16.994,0,0,1,.052,2.3,1.941,1.941,0,0,0,1.137,1.827,2.231,2.231,0,0,0,2.027-.846,24.572,24.572,0,0,0,4.407-6.653,34.047,34.047,0,0,1,4.11-6.865,9.982,9.982,0,0,1,6.764-3.795c2.644-.149,5.461,1.482,6.129,4.078s-.849,5.242-2.5,7.349a41.194,41.194,0,0,1-8.579,8.179,3.382,3.382,0,0,0-1.435,1.543c-.4,1.231.765,2.453,1.98,2.857a21.283,21.283,0,0,0,4.308.486c1.44.169,3,.805,3.544,2.165.756,1.886-.822,3.865-2.374,5.16a35.278,35.278,0,0,1-10.448,6.03,11.932,11.932,0,0,0-3.882,1.888,3.415,3.415,0,0,0-1.094,3.913,3.48,3.48,0,0,0,3.782,1.455,24.638,24.638,0,0,0,4.052-1.548c2.537-.958,5.813-.783,7.438,1.41a5.846,5.846,0,0,1,.621,5.166,13.45,13.45,0,0,1-2.8,4.562,35.5,35.5,0,0,1-15.156,10.652c-5.884,2.04-11.338,2.593-17.186.454" transform="translate(-42.996 -11.511)" fill="#ff4f5b"/>
        <path id="Trazado_3891" data-name="Trazado 3891" d="M326.4,158.2a81.07,81.07,0,0,1,3.016-15.214,165.352,165.352,0,0,1,6.566-17.809l1.961-4.58c.647-1.5,1.288-2.991,2.006-4.408a82.579,82.579,0,0,1,4.59-7.911c1.582-2.446,3.172-4.709,4.674-6.814s2.949-4.037,4.339-5.743a65.5,65.5,0,0,1,7.148-7.556c.91-.823,1.638-1.438,2.135-1.848l.571-.463a1.214,1.214,0,0,1,.2-.148,1.387,1.387,0,0,1-.179.175l-.548.488c-.483.427-1.2,1.059-2.093,1.895a69.286,69.286,0,0,0-7.05,7.611c-1.374,1.711-2.8,3.648-4.3,5.755s-3.071,4.377-4.642,6.82a83.764,83.764,0,0,0-4.554,7.889c-.712,1.412-1.346,2.888-1.994,4.393l-1.958,4.579a169.225,169.225,0,0,0-6.579,17.764,82.478,82.478,0,0,0-3.078,15.147" transform="translate(-44.78 -11.758)" fill="#1a2e35"/>
        <path id="Trazado_3892" data-name="Trazado 3892" d="M341.784,117.792a3.738,3.738,0,0,1-.18-.788c-.1-.51-.213-1.252-.342-2.173-.261-1.838-.536-4.388-.827-7.2s-.6-5.354-.89-7.184c-.141-.914-.262-1.654-.354-2.163a3.771,3.771,0,0,1-.1-.8,3.7,3.7,0,0,1,.233.773c.13.5.288,1.238.461,2.151.35,1.825.7,4.37.99,7.188.28,2.776.534,5.289.727,7.208l.235,2.182a3.693,3.693,0,0,1,.05.808" transform="translate(-46.52 -13.374)" fill="#1a2e35"/>
        <path id="Trazado_3893" data-name="Trazado 3893" d="M365.948,115.875a5.149,5.149,0,0,1-.947.114c-.609.053-1.49.128-2.576.254-2.174.235-5.165.663-8.445,1.282s-6.223,1.316-8.338,1.877c-1.06.273-1.912.518-2.5.682a5.229,5.229,0,0,1-.926.228,5.15,5.15,0,0,1,.888-.356c.578-.2,1.422-.484,2.477-.789,2.1-.623,5.049-1.354,8.339-1.98A83.762,83.762,0,0,1,362.4,116c1.091-.1,1.979-.133,2.593-.145a5.087,5.087,0,0,1,.953.019" transform="translate(-46.95 -15.894)" fill="#1a2e35"/>
        <path id="Trazado_3894" data-name="Trazado 3894" d="M328.332,146.768a1.157,1.157,0,0,1-.162-.289l-.406-.859c-.349-.747-.826-1.842-1.4-3.2-1.145-2.719-2.609-6.525-4.166-10.745s-2.985-8.037-4.072-10.776l-1.3-3.24c-.14-.354-.255-.645-.348-.885a1.265,1.265,0,0,1-.1-.318,1.206,1.206,0,0,1,.163.29c.11.233.243.516.406.858.349.747.826,1.841,1.4,3.2,1.145,2.72,2.608,6.525,4.167,10.747s2.984,8.036,4.072,10.776c.532,1.33.971,2.426,1.3,3.239.141.354.255.645.349.884a1.221,1.221,0,0,1,.1.318" transform="translate(-43.406 -15.977)" fill="#1a2e35"/>
        <path id="Trazado_3895" data-name="Trazado 3895" d="M361.771,139.807a1.312,1.312,0,0,1-.312.129l-.916.307-3.378,1.094c-2.852.926-6.775,2.248-11.109,3.714s-8.275,2.756-11.147,3.622c-1.436.433-2.6.772-3.411.991l-.934.245a1.175,1.175,0,0,1-.332.062,1.379,1.379,0,0,1,.314-.129l.915-.307,3.376-1.094c2.852-.924,6.776-2.248,11.111-3.715s8.273-2.755,11.145-3.621c1.436-.433,2.6-.772,3.411-.99l.934-.245a1.223,1.223,0,0,1,.332-.062" transform="translate(-45.306 -19.18)" fill="#1a2e35"/>
        <path id="Trazado_3896" data-name="Trazado 3896" d="M83.573,66.975a4.154,4.154,0,0,1-1.77.2,4.154,4.154,0,0,1-1.77-.2,4.178,4.178,0,0,1,1.77-.2,4.178,4.178,0,0,1,1.77.2" transform="translate(-10.98 -9.162)" fill="#1a2e35"/>
        <path id="Trazado_3897" data-name="Trazado 3897" d="M86.284,61.426a4.292,4.292,0,0,1,.2,1.8,4.3,4.3,0,0,1-.2,1.8,4.27,4.27,0,0,1-.2-1.8,4.267,4.267,0,0,1,.2-1.8" transform="translate(-11.811 -8.427)" fill="#1a2e35"/>
        <path id="Trazado_3898" data-name="Trazado 3898" d="M88.635,66.842a8.061,8.061,0,0,1,3.54,0,8.1,8.1,0,0,1-3.54,0" transform="translate(-12.16 -9.143)" fill="#1a2e35"/>
        <path id="Trazado_3899" data-name="Trazado 3899" d="M86.426,71.883a4.267,4.267,0,0,1-.2-1.8,4.27,4.27,0,0,1,.2-1.8,4.294,4.294,0,0,1,.2,1.8,4.292,4.292,0,0,1-.2,1.8" transform="translate(-11.83 -9.369)" fill="#1a2e35"/>
        <path id="Trazado_3900" data-name="Trazado 3900" d="M89.569,69.819c-.083.069-.432-.211-.779-.628s-.563-.809-.479-.879.431.212.779.628.563.81.479.879" transform="translate(-12.113 -9.371)" fill="#1a2e35"/>
        <path id="Trazado_3901" data-name="Trazado 3901" d="M89.371,63.729c.077.077-.154.433-.514.8s-.716.6-.793.521.154-.433.515-.8.715-.6.792-.521" transform="translate(-12.08 -8.741)" fill="#1a2e35"/>
        <path id="Trazado_3902" data-name="Trazado 3902" d="M84.679,65.175c-.069.084-.4-.081-.748-.367s-.566-.585-.5-.668.4.081.746.368.566.584.5.667" transform="translate(-11.445 -8.797)" fill="#1a2e35"/>
        <path id="Trazado_3903" data-name="Trazado 3903" d="M84.5,68.131c.079.072-.122.423-.449.783s-.657.592-.738.519.121-.423.449-.783.657-.592.738-.519" transform="translate(-11.428 -9.345)" fill="#1a2e35"/>
        <path id="Trazado_3904" data-name="Trazado 3904" d="M2.01,128.577a2.368,2.368,0,0,1-1.005.111A2.368,2.368,0,0,1,0,128.577a2.368,2.368,0,0,1,1.005-.111,2.368,2.368,0,0,1,1.005.111" transform="translate(0 -17.625)" fill="#1a2e35"/>
        <path id="Trazado_3905" data-name="Trazado 3905" d="M3.548,125.427a4.724,4.724,0,0,1,0,2.039,4.724,4.724,0,0,1,0-2.039" transform="translate(-0.472 -17.208)" fill="#1a2e35"/>
        <path id="Trazado_3906" data-name="Trazado 3906" d="M4.883,128.5a2.368,2.368,0,0,1,1.005-.111,2.363,2.363,0,0,1,1,.111,2.379,2.379,0,0,1-1,.111,2.384,2.384,0,0,1-1.005-.111" transform="translate(-0.67 -17.615)" fill="#1a2e35"/>
        <path id="Trazado_3907" data-name="Trazado 3907" d="M3.629,131.364a4.724,4.724,0,0,1,0-2.039,4.76,4.76,0,0,1,0,2.039" transform="translate(-0.483 -17.743)" fill="#1a2e35"/>
        <path id="Trazado_3908" data-name="Trazado 3908" d="M5.414,130.191c-.047.041-.245-.12-.443-.355s-.319-.46-.272-.5.245.12.443.356.318.46.271.5" transform="translate(-0.643 -17.744)" fill="#1a2e35"/>
        <path id="Trazado_3909" data-name="Trazado 3909" d="M5.3,126.735c.044.043-.088.246-.292.452s-.406.34-.45.3.087-.245.292-.452.406-.339.45-.3" transform="translate(-0.624 -17.386)" fill="#1a2e35"/>
        <path id="Trazado_3910" data-name="Trazado 3910" d="M2.638,127.556c-.04.048-.23-.046-.424-.208s-.322-.332-.282-.38.229.047.424.209.322.331.282.379" transform="translate(-0.264 -17.418)" fill="#1a2e35"/>
        <path id="Trazado_3911" data-name="Trazado 3911" d="M2.537,129.234c.046.041-.069.24-.255.444s-.374.336-.418.294.068-.24.255-.443.373-.337.418-.3" transform="translate(-0.254 -17.729)" fill="#1a2e35"/>
        <path id="Trazado_3912" data-name="Trazado 3912" d="M89.341,118.243l.116.277a1.961,1.961,0,0,0,1.074,1.065l.3.122-.289.117a1.958,1.958,0,0,0-1.082,1.085l-.082.2-.123-.253a1.963,1.963,0,0,0-1.095-.994l-.263-.095.343-.167a1.963,1.963,0,0,0,.956-1.011Z" transform="translate(-12.059 -16.222)" fill="#1a2e35"/>
        <path id="Trazado_3913" data-name="Trazado 3913" d="M27.108,77.03l.116.276A1.962,1.962,0,0,0,28.3,78.371l.3.122-.289.117a1.963,1.963,0,0,0-1.082,1.085l-.081.2-.123-.254a1.958,1.958,0,0,0-1.1-.993l-.262-.1.343-.167a1.959,1.959,0,0,0,.955-1.012Z" transform="translate(-3.521 -10.568)" fill="#1a2e35"/>
        <path id="Trazado_3914" data-name="Trazado 3914" d="M284,160.084H108.526a12.569,12.569,0,0,1-12.568-12.568V39.988a12.569,12.569,0,0,1,12.568-12.569H284a12.568,12.568,0,0,1,12.568,12.569V147.515A12.568,12.568,0,0,1,284,160.084" transform="translate(-13.165 -3.762)" fill="#1a2e35"/>
        <path id="Trazado_3915" data-name="Trazado 3915" d="M291.978,181.415H97.842a11.608,11.608,0,0,1-11.608-11.608H303.586a11.608,11.608,0,0,1-11.608,11.608" transform="translate(-11.831 -23.297)" fill="#1a2e35"/>
        <rect id="Rectángulo_473" data-name="Rectángulo 473" width="189.285" height="112.034" transform="translate(88.178 28.927)" fill="#375a64"/>
        <path id="Trazado_3916" data-name="Trazado 3916" d="M189.294,169.807l2.7,4.291h37.951l2.506-4.291Z" transform="translate(-25.97 -23.297)" fill="#375a64"/>
        <path id="Trazado_3917" data-name="Trazado 3917" d="M285.771,145.806H109.542a2.824,2.824,0,0,1-2.824-2.824V40.747a2.823,2.823,0,0,1,2.824-2.823H285.771a2.823,2.823,0,0,1,2.823,2.823V142.983a2.823,2.823,0,0,1-2.823,2.823" transform="translate(-14.641 -5.203)" fill="#ececec"/>
        <rect id="Rectángulo_474" data-name="Rectángulo 474" width="181.877" height="99.978" transform="translate(92.076 40.625)" fill="#fafafa"/>
        <path id="Trazado_3918" data-name="Trazado 3918" d="M123.545,42.521a1.453,1.453,0,1,1-1.454-1.452,1.453,1.453,0,0,1,1.454,1.452" transform="translate(-16.551 -5.634)" fill="#1a2e35"/>
        <path id="Trazado_3919" data-name="Trazado 3919" d="M113.341,42.521a1.453,1.453,0,1,1-1.453-1.452,1.452,1.452,0,0,1,1.453,1.452" transform="translate(-15.151 -5.634)" fill="#1a2e35"/>
        <path id="Trazado_3920" data-name="Trazado 3920" d="M118.239,42.521a1.453,1.453,0,1,1-1.453-1.452,1.452,1.452,0,0,1,1.453,1.452" transform="translate(-15.823 -5.634)" fill="#1a2e35"/>
        <path id="Trazado_3921" data-name="Trazado 3921" d="M294.849,169.786c0,.072-44.527.129-99.441.129-54.933,0-99.451-.058-99.451-.129s44.518-.129,99.451-.129c54.914,0,99.441.058,99.441.129" transform="translate(-13.165 -23.276)" fill="#375a64"/>
        <rect id="Rectángulo_475" data-name="Rectángulo 475" width="41.504" height="2.777" transform="translate(104.681 90.989)" fill="#e1e1e1"/>
        <rect id="Rectángulo_476" data-name="Rectángulo 476" width="41.504" height="2.777" transform="translate(158.288 52.442)" fill="#e1e1e1"/>
        <path id="Trazado_3922" data-name="Trazado 3922" d="M286.689,72.745c0,.072-23.111.129-51.613.129s-51.618-.058-51.618-.129,23.106-.13,51.618-.13,51.613.058,51.613.13" transform="translate(-25.169 -9.962)" fill="#e1e1e1"/>
        <path id="Trazado_3923" data-name="Trazado 3923" d="M286.689,79.771c0,.072-23.111.129-51.613.129s-51.618-.058-51.618-.129,23.106-.129,51.618-.129,51.613.058,51.613.129" transform="translate(-25.169 -10.926)" fill="#e1e1e1"/>
        <path id="Trazado_3924" data-name="Trazado 3924" d="M286.689,86.8c0,.072-23.111.129-51.613.129s-51.618-.058-51.618-.129,23.106-.129,51.618-.129,51.613.058,51.613.129" transform="translate(-25.169 -11.891)" fill="#e1e1e1"/>
        <path id="Trazado_3925" data-name="Trazado 3925" d="M286.689,93.824c0,.072-23.111.129-51.613.129s-51.618-.058-51.618-.129,23.106-.129,51.618-.129,51.613.058,51.613.129" transform="translate(-25.169 -12.854)" fill="#e1e1e1"/>
        <path id="Trazado_3926" data-name="Trazado 3926" d="M286.689,100.85c0,.072-23.111.129-51.613.129s-51.618-.058-51.618-.129,23.106-.129,51.618-.129,51.613.058,51.613.129" transform="translate(-25.169 -13.818)" fill="#e1e1e1"/>
        <path id="Trazado_3927" data-name="Trazado 3927" d="M223.754,107.877c0,.072-9.021.13-20.147.13s-20.149-.058-20.149-.13,9.02-.129,20.149-.129,20.147.058,20.147.129" transform="translate(-25.169 -14.782)" fill="#e1e1e1"/>
        <path id="Trazado_3928" data-name="Trazado 3928" d="M291.44,121.514c0,.072-15.19.13-33.924.13s-33.928-.058-33.928-.13,15.187-.129,33.928-.129,33.924.058,33.924.129" transform="translate(-30.675 -16.653)" fill="#e1e1e1"/>
        <path id="Trazado_3929" data-name="Trazado 3929" d="M291.44,128.973c0,.072-15.19.13-33.924.13s-33.928-.059-33.928-.13,15.187-.129,33.928-.129,33.924.058,33.924.129" transform="translate(-30.675 -17.677)" fill="#e1e1e1"/>
        <path id="Trazado_3930" data-name="Trazado 3930" d="M291.44,136.432c0,.072-15.19.13-33.924.13s-33.928-.059-33.928-.13,15.187-.129,33.928-.129,33.924.058,33.924.129" transform="translate(-30.675 -18.7)" fill="#e1e1e1"/>
        <path id="Trazado_3931" data-name="Trazado 3931" d="M291.44,143.89c0,.072-15.19.13-33.924.13s-33.928-.059-33.928-.13,15.187-.129,33.928-.129,33.924.059,33.924.129" transform="translate(-30.675 -19.723)" fill="#e1e1e1"/>
        <path id="Trazado_3932" data-name="Trazado 3932" d="M163.119,120.8c0,.072-9.054.129-20.222.129s-20.225-.058-20.225-.129,9.053-.129,20.225-.129,20.222.058,20.222.129" transform="translate(-16.83 -16.556)" fill="#e1e1e1"/>
        <path id="Trazado_3933" data-name="Trazado 3933" d="M163.119,126.658c0,.072-9.054.129-20.222.129s-20.225-.058-20.225-.129,9.053-.129,20.225-.129,20.222.058,20.222.129" transform="translate(-16.83 -17.359)" fill="#e1e1e1"/>
        <path id="Trazado_3934" data-name="Trazado 3934" d="M163.119,132.516c0,.072-9.054.13-20.222.13s-20.225-.059-20.225-.13,9.053-.129,20.225-.129,20.222.058,20.222.129" transform="translate(-16.83 -18.163)" fill="#e1e1e1"/>
        <path id="Trazado_3935" data-name="Trazado 3935" d="M163.119,138.373c0,.072-9.054.13-20.222.13s-20.225-.059-20.225-.13,9.053-.129,20.225-.129,20.222.058,20.222.129" transform="translate(-16.83 -18.966)" fill="#e1e1e1"/>
        <path id="Trazado_3936" data-name="Trazado 3936" d="M163.119,144.231c0,.072-9.054.129-20.222.129s-20.225-.058-20.225-.129,9.053-.13,20.225-.13,20.222.058,20.222.13" transform="translate(-16.83 -19.77)" fill="#e1e1e1"/>
        <rect id="Rectángulo_477" data-name="Rectángulo 477" width="29.447" height="28.49" transform="translate(158.263 101.789)" fill="#f5f5f5"/>
        <path id="Trazado_3937" data-name="Trazado 3937" d="M186.075,145.838l8.145-14.66,6.663,9.37,4.048-4.976,6.024,10.266Z" transform="translate(-25.528 -17.997)" fill="#ececec"/>
        <path id="Trazado_3938" data-name="Trazado 3938" d="M205.853,127.536a2.119,2.119,0,1,1-2.119-2.119,2.119,2.119,0,0,1,2.119,2.119" transform="translate(-27.661 -17.207)" fill="#ececec"/>
        <path id="Trazado_3939" data-name="Trazado 3939" d="M210.928,144.459a.681.681,0,0,1-.007-.116c0-.085,0-.193-.007-.333,0-.3-.008-.73-.014-1.281-.008-1.129-.018-2.764-.031-4.838-.016-4.162-.036-10.088-.062-17.2l.121.121-24.878.02c-.034.029.263-.263.137-.136v3.223q0,1.6,0,3.173c0,2.093,0,4.143,0,6.138-.005,3.99-.009,7.764-.013,11.233l-.123-.123,17.99.063,5.074.032,1.345.014.349.007a.932.932,0,0,1,.123.007.5.5,0,0,1-.11.007l-.336.008-1.322.014-5.046.032-18.068.062h-.123v-.123c0-3.469-.009-7.242-.013-11.233,0-1.995,0-4.045,0-6.138q0-1.571,0-3.173v-3.223c-.125.123.17-.175.143-.144l24.878.02h.121v.12c-.027,7.147-.047,13.1-.063,17.279-.012,2.062-.023,3.687-.031,4.81-.006.542-.009.961-.013,1.26,0,.132-.005.236-.007.319a.515.515,0,0,1-.007.1" transform="translate(-25.501 -16.538)" fill="#ececec"/>
        <rect id="Rectángulo_478" data-name="Rectángulo 478" width="39.939" height="38.64" transform="translate(105.463 47.704)" fill="#f5f5f5"/>
        <path id="Trazado_3940" data-name="Trazado 3940" d="M125.822,93.078l11.049-19.884,9.036,12.71,5.492-6.75,8.168,13.924Z" transform="translate(-17.262 -10.042)" fill="#e1e1e1"/>
        <path id="Trazado_3941" data-name="Trazado 3941" d="M152.648,68.255a2.874,2.874,0,1,1-2.874-2.875,2.874,2.874,0,0,1,2.874,2.875" transform="translate(-20.154 -8.97)" fill="#e1e1e1"/>
        <path id="Trazado_3942" data-name="Trazado 3942" d="M159.53,91.207a1.263,1.263,0,0,1-.009-.159c0-.115-.005-.262-.009-.45q-.006-.617-.019-1.739c-.01-1.532-.024-3.748-.042-6.562-.02-5.644-.048-13.682-.083-23.33l.162.162-33.742.028c-.046.04.357-.358.186-.185v4.372q0,2.172,0,4.3,0,4.259,0,8.327c-.007,5.411-.013,10.527-.019,15.234l-.166-.166,24.4.085,6.882.043,1.826.02.473.009a1.4,1.4,0,0,1,.166.009.7.7,0,0,1-.148.009l-.455.009-1.793.02-6.845.043-24.505.084h-.166v-.167c-.006-4.707-.011-9.823-.018-15.234q0-4.061-.005-8.327,0-2.129,0-4.3V58.972c-.169.167.232-.239.194-.2l33.742.026h.164v.164c-.035,9.692-.063,17.765-.083,23.434-.018,2.8-.033,5-.042,6.525q-.013,1.1-.02,1.707c0,.18-.006.322-.009.433a.624.624,0,0,1-.009.14" transform="translate(-17.225 -8.063)" fill="#e1e1e1"/>
        <path id="Trazado_3943" data-name="Trazado 3943" d="M229.463,83.987l-3.992-.056.153-10.868a14.536,14.536,0,0,0-29.072.028l-.151,10.9-3.992-.056.152-10.868a18.527,18.527,0,0,1,37.055.028Z" transform="translate(-26.397 -7.486)" fill="#1a2e35"/>
        <path id="Trazado_3944" data-name="Trazado 3944" d="M221.786,136.573H198.022A15.776,15.776,0,0,1,182.246,120.8V98.3a15.777,15.777,0,0,1,15.776-15.777h23.763A15.777,15.777,0,0,1,237.563,98.3V120.8a15.777,15.777,0,0,1-15.777,15.776" transform="translate(-25.003 -11.322)" fill="#ff4f5b"/>
        <g id="Grupo_635" data-name="Grupo 635" transform="translate(179.387 89.864)" opacity="0.3">
          <g id="Grupo_634" data-name="Grupo 634">
            <g id="Grupo_633" data-name="Grupo 633" clip-path="url(#clip-path-3)">
              <path id="Trazado_3945" data-name="Trazado 3945" d="M218.939,109.667a5.514,5.514,0,1,0-8.417,4.682l-1.412,6.531h9.046s-1.017-4.1-1.657-6.635a5.509,5.509,0,0,0,2.44-4.579" transform="translate(-207.911 -104.153)"/>
            </g>
          </g>
        </g>
        <g id="Grupo_638" data-name="Grupo 638" transform="translate(160.364 80.725)" opacity="0.2">
          <g id="Grupo_637" data-name="Grupo 637">
            <g id="Grupo_636" data-name="Grupo 636" clip-path="url(#clip-path-4)">
              <path id="Trazado_3946" data-name="Trazado 3946" d="M186.282,121.7c-.358-.008-.518-6.313-.355-14.083s.586-14.064.945-14.057.517,6.312.355,14.084-.586,14.063-.945,14.055" transform="translate(-185.864 -93.561)" fill="#fff"/>
            </g>
          </g>
        </g>
        <g id="Grupo_641" data-name="Grupo 641" transform="translate(160.156 112.358)" opacity="0.2">
          <g id="Grupo_640" data-name="Grupo 640">
            <g id="Grupo_639" data-name="Grupo 639" clip-path="url(#clip-path-5)">
              <path id="Trazado_3947" data-name="Trazado 3947" d="M186.291,132.982c-.359.005-.658-.608-.668-1.37s.273-1.383.632-1.387.657.608.667,1.371-.273,1.382-.631,1.387" transform="translate(-185.623 -130.224)" fill="#fff"/>
            </g>
          </g>
        </g>
        <g id="Grupo_644" data-name="Grupo 644" transform="translate(176.721 90.936)" opacity="0.2">
          <g id="Grupo_643" data-name="Grupo 643">
            <g id="Grupo_642" data-name="Grupo 642" clip-path="url(#clip-path-6)">
              <path id="Trazado_3948" data-name="Trazado 3948" d="M206.277,121.936c-.286-.093.388-2.966,1.563-6.791l.146.632c-.531-.531-1.086-1.086-1.665-1.7a6.084,6.084,0,0,1-1.491-3.67,5.654,5.654,0,0,1,.736-3.117,4.9,4.9,0,0,1,1.4-1.583c.411-.284.684-.358.733-.29.129.159-.716.827-1.31,2.277a5.341,5.341,0,0,0,.892,5.512l1.606,1.7.267.282-.122.35c-1.315,3.778-2.472,6.493-2.758,6.4" transform="translate(-204.822 -105.396)" fill="#fff"/>
            </g>
          </g>
        </g>
        <g id="Grupo_647" data-name="Grupo 647" transform="translate(162.404 74.143)" opacity="0.2">
          <g id="Grupo_646" data-name="Grupo 646">
            <g id="Grupo_645" data-name="Grupo 645" clip-path="url(#clip-path-7)">
              <path id="Trazado_3949" data-name="Trazado 3949" d="M226.836,86.75c0,.179-2.211.324-5.781.415s-8.5.126-13.948.085c-2.724-.021-5.319-.059-7.68-.11-2.361-.027-4.494-.195-6.2-.017a7.988,7.988,0,0,0-3.786,1.279c-.791.543-1.119,1-1.206.938-.062-.032.124-.606.889-1.331a7.556,7.556,0,0,1,3.978-1.8,19.972,19.972,0,0,1,2.977-.234l3.355-.036c2.36-.015,4.955-.013,7.68.008,5.446.041,10.377.152,13.946.3s5.776.324,5.774.5" transform="translate(-188.228 -85.933)" fill="#fff"/>
            </g>
          </g>
        </g>
        <path id="Trazado_3950" data-name="Trazado 3950" d="M15.871,220.732l-.351,1.324s-4.808,7.82-4.238,8.55a3.062,3.062,0,0,0,3.332,1.041c1.672-.418,8.731-7.122,8.731-7.122l.4-1.072Z" transform="translate(-1.541 -30.283)" fill="#ff4f5b"/>
        <g id="Grupo_650" data-name="Grupo 650" transform="translate(9.63 193.671)" opacity="0.3">
          <g id="Grupo_649" data-name="Grupo 649">
            <g id="Grupo_648" data-name="Grupo 648" clip-path="url(#clip-path-8)">
              <path id="Trazado_3951" data-name="Trazado 3951" d="M11.75,229.348s2.083-.921,3.282,1.767a15.322,15.322,0,0,0,3.4-2.425c2.5-2.09,4.906-4.132,4.906-4.132s.258-.2.18,0-.18.566-.18.566l-4.818,4.248a24.437,24.437,0,0,1-3.609,2.671,3.174,3.174,0,0,1-2.374.029,2.558,2.558,0,0,1-1.372-1.188c0-.124.589-1.537.589-1.537" transform="translate(-11.162 -224.467)"/>
            </g>
          </g>
        </g>
        <path id="Trazado_3952" data-name="Trazado 3952" d="M15.42,232.728c-.025.005-.078-.267-.255-.665a3.66,3.66,0,0,0-2.512-2.1c-.425-.1-.7-.107-.7-.134a1.737,1.737,0,0,1,.723.026,3.426,3.426,0,0,1,2.591,2.168,1.718,1.718,0,0,1,.153.707" transform="translate(-1.64 -31.528)" fill="#1a2e35"/>
        <path id="Trazado_3953" data-name="Trazado 3953" d="M23.753,224.178s-.035.043-.11.113c-.1.089-.21.188-.336.3-.336.292-.756.655-1.254,1.085l-4.176,3.535a17.679,17.679,0,0,1-2.4,1.827,3.877,3.877,0,0,1-2.39.567,2.411,2.411,0,0,1-1.475-.747,1.421,1.421,0,0,1-.321-.519,3.205,3.205,0,0,0,.365.477,2.4,2.4,0,0,0,1.443.68,3.821,3.821,0,0,0,2.306-.582,18.5,18.5,0,0,0,2.376-1.824l4.2-3.5c.51-.416.94-.765,1.286-1.047l.355-.279a.559.559,0,0,1,.13-.089" transform="translate(-1.548 -30.756)" fill="#1a2e35"/>
        <path id="Trazado_3954" data-name="Trazado 3954" d="M16.633,227.807a5.381,5.381,0,0,1-.89-.553,5.472,5.472,0,0,1-.864-.592,2.67,2.67,0,0,1,.949.462,2.707,2.707,0,0,1,.8.683" transform="translate(-2.041 -31.096)" fill="#1a2e35"/>
        <path id="Trazado_3955" data-name="Trazado 3955" d="M17.763,226.534a6.906,6.906,0,0,1-1.091-.452,6.762,6.762,0,0,1-1.071-.5,3.427,3.427,0,0,1,1.134.357,3.4,3.4,0,0,1,1.028.594" transform="translate(-2.14 -30.948)" fill="#1a2e35"/>
        <path id="Trazado_3956" data-name="Trazado 3956" d="M18.852,225.388c-.031.035-.466-.346-1.1-.654s-1.2-.425-1.186-.472a2.545,2.545,0,0,1,1.255.332,2.553,2.553,0,0,1,1.028.794" transform="translate(-2.273 -30.766)" fill="#1a2e35"/>
        <path id="Trazado_3957" data-name="Trazado 3957" d="M19.54,224.092c-.028.036-.433-.258-.991-.5s-1.045-.356-1.038-.4a2.244,2.244,0,0,1,1.1.26,2.242,2.242,0,0,1,.927.647" transform="translate(-2.403 -30.618)" fill="#1a2e35"/>
        <path id="Trazado_3958" data-name="Trazado 3958" d="M19.333,222.664a1.931,1.931,0,0,1-.594-.4,4.315,4.315,0,0,1-.544-.557c-.093-.114-.185-.239-.274-.372a1,1,0,0,1-.123-.229.307.307,0,0,1,.051-.309.5.5,0,0,1,.544-.062,1.139,1.139,0,0,1,.4.273,1.488,1.488,0,0,1,.366.7,2.142,2.142,0,0,1,.049.525c0,.123-.017.191-.028.191-.028,0-.016-.276-.129-.688a1.468,1.468,0,0,0-.361-.633,1.034,1.034,0,0,0-.35-.231.362.362,0,0,0-.373.024c-.078.078,0,.223.085.349s.17.253.257.366a5.426,5.426,0,0,0,.5.565c.312.3.535.459.52.479" transform="translate(-2.439 -30.277)" fill="#1a2e35"/>
        <path id="Trazado_3959" data-name="Trazado 3959" d="M19.441,222.609c-.009,0,0-.073.053-.191a1.857,1.857,0,0,1,.286-.458,2.064,2.064,0,0,1,.629-.5,2,2,0,0,1,.452-.168.606.606,0,0,1,.279,0,.3.3,0,0,1,.227.224.633.633,0,0,1-.206.51,1.827,1.827,0,0,1-.362.318,1.878,1.878,0,0,1-.749.3,1.635,1.635,0,0,1-.541,0,.422.422,0,0,1-.19-.058,3.82,3.82,0,0,0,.709-.053,1.918,1.918,0,0,0,.689-.307,1.764,1.764,0,0,0,.327-.3.519.519,0,0,0,.172-.375c-.021-.116-.181-.14-.324-.108a1.936,1.936,0,0,0-.418.147,2.132,2.132,0,0,0-.613.447,5.29,5.29,0,0,0-.42.575" transform="translate(-2.65 -30.357)" fill="#1a2e35"/>
        <path id="Trazado_3960" data-name="Trazado 3960" d="M23.776,223.432a1.166,1.166,0,0,0-.677.035,2.5,2.5,0,0,0-1.211,1.1,2.692,2.692,0,0,0-.321,1.616c.05.43.165.682.14.691a1.476,1.476,0,0,1-.249-.676,2.6,2.6,0,0,1,.294-1.707,2.423,2.423,0,0,1,1.312-1.131.734.734,0,0,1,.712.069" transform="translate(-2.939 -30.638)" fill="#1a2e35"/>
        <path id="Trazado_3961" data-name="Trazado 3961" d="M20.575,227.1a4.254,4.254,0,0,1-.813.793,4.205,4.205,0,0,1-.915.676,4.213,4.213,0,0,1,.813-.794,4.193,4.193,0,0,1,.915-.675" transform="translate(-2.586 -31.157)" fill="#1a2e35"/>
        <path id="Trazado_3962" data-name="Trazado 3962" d="M21.95,226.515c.043,0,.1.1.128.228s.016.245-.024.259-.1-.086-.128-.227-.019-.256.024-.26" transform="translate(-3.006 -31.077)" fill="#1a2e35"/>
        <path id="Trazado_3963" data-name="Trazado 3963" d="M22.073,225.374c.041.015.049.131.018.261s-.09.229-.133.224-.051-.121-.018-.26.092-.241.133-.225" transform="translate(-3.007 -30.92)" fill="#1a2e35"/>
        <path id="Trazado_3964" data-name="Trazado 3964" d="M22.657,224.4c.034.035-.028.127-.1.236s-.173.174-.21.152,0-.134.087-.249.2-.167.224-.139" transform="translate(-3.064 -30.786)" fill="#1a2e35"/>
        <path id="Trazado_3965" data-name="Trazado 3965" d="M23.615,223.8c.014.041-.072.121-.192.177s-.236.072-.259.036.063-.116.192-.177.245-.077.259-.036" transform="translate(-3.177 -30.701)" fill="#1a2e35"/>
        <path id="Trazado_3966" data-name="Trazado 3966" d="M24.749,223.655c-.005.043-.117.079-.248.08s-.243-.034-.249-.077.105-.079.248-.079.255.033.249.076" transform="translate(-3.327 -30.674)" fill="#1a2e35"/>
        <path id="Trazado_3967" data-name="Trazado 3967" d="M90.4,77.2a27.028,27.028,0,0,0-.75,4.336s-7.31,12.456-8.328,12.648-5.45-8.655-5.45-8.655L71.317,89.72s2.376,11.147,9.8,13.059c3.506.9,9.618-10.213,13.7-19.446C94.886,83.185,97,78.156,97,78.156Z" transform="translate(-9.784 -10.591)" fill="#b86958"/>
        <path id="Trazado_3968" data-name="Trazado 3968" d="M100.55,78.627c.008.01,0,.054-.025.126-.191.6-1.323,3.066-1.672,3.038-.393-.03-1.156-.6-1.07-.953S99.3,77.776,99.3,77.776s.254-.414,1.042-.195c.486.135.208,1.046.208,1.046" transform="translate(-13.414 -10.635)" fill="#b86958"/>
        <path id="Trazado_3969" data-name="Trazado 3969" d="M99.278,76.83c.008.009,0,.053-.024.126-.192.6-1.323,3.066-1.673,3.038-.392-.03-1.156-.6-1.07-.953s1.517-3.062,1.517-3.062.254-.414,1.042-.195c.487.135.208,1.046.208,1.046" transform="translate(-13.24 -10.388)" fill="#b86958"/>
        <path id="Trazado_3970" data-name="Trazado 3970" d="M97.816,75.568a.283.283,0,0,1-.025.126c-.191.6-1.323,3.066-1.672,3.038-.393-.03-1.156-.6-1.071-.953s1.518-3.062,1.518-3.062.254-.415,1.041-.195c.487.135.209,1.046.209,1.046" transform="translate(-13.039 -10.215)" fill="#b86958"/>
        <path id="Trazado_3971" data-name="Trazado 3971" d="M96.349,74.341c.008.01,0,.054-.024.126-.192.6-1.323,3.066-1.673,3.038-.392-.03-1.156-.6-1.07-.953S95.1,73.491,95.1,73.491s.254-.415,1.042-.195c.487.135.208,1.046.208,1.046" transform="translate(-12.838 -10.047)" fill="#b86958"/>
        <path id="Trazado_3972" data-name="Trazado 3972" d="M98.14,80.141a5.265,5.265,0,0,0,.65-1.158,5.08,5.08,0,0,0,.488-1.214,5.369,5.369,0,0,0-.65,1.159,5.068,5.068,0,0,0-.488,1.213" transform="translate(-13.464 -10.669)" fill="#8d4231"/>
        <path id="Trazado_3973" data-name="Trazado 3973" d="M96.438,79.241a10.4,10.4,0,0,0,.9-1.658,10.373,10.373,0,0,0,.743-1.733,10.643,10.643,0,0,0-.9,1.658,10.5,10.5,0,0,0-.743,1.733" transform="translate(-13.23 -10.406)" fill="#8d4231"/>
        <g id="Grupo_653" data-name="Grupo 653" transform="translate(81.77 64.664)" opacity="0.78">
          <g id="Grupo_652" data-name="Grupo 652">
            <g id="Grupo_651" data-name="Grupo 651" clip-path="url(#clip-path-9)">
              <path id="Trazado_3974" data-name="Trazado 3974" d="M94.776,78.337a10.38,10.38,0,0,0,.9-1.658,10.437,10.437,0,0,0,.743-1.733,10.461,10.461,0,0,0-.9,1.658,10.383,10.383,0,0,0-.743,1.733" transform="translate(-94.773 -74.946)" fill="#8d4231"/>
            </g>
          </g>
        </g>
        <path id="Trazado_3975" data-name="Trazado 3975" d="M93.358,82l-.5-2.189a3.806,3.806,0,0,1,.448-2.8l.387-.643,4.776,2.414s-1.192,1.553-2.394.638l.877,1.887Z" transform="translate(-12.727 -10.477)" fill="#b86958"/>
        <path id="Trazado_3976" data-name="Trazado 3976" d="M96.664,81.483c-.028,0,.022-.253-.046-.678a2.427,2.427,0,0,0-.859-1.5L95.3,78.94l.559.182,1.239.4-.027-.006a1.45,1.45,0,0,0,1.432-.594.921.921,0,0,0,.057-.112l.068.162c-1.379-.625-2.617-1.209-3.485-1.682a7.761,7.761,0,0,1-1.363-.834,13.713,13.713,0,0,1,1.445.671c.885.43,2.129.985,3.511,1.608l.111.052-.043.11a1.033,1.033,0,0,1-.078.158,1.459,1.459,0,0,1-.773.615,2.045,2.045,0,0,1-.908.09h-.014l-.013-.006-1.229-.428.1-.187a2.449,2.449,0,0,1,.846,1.651,1.286,1.286,0,0,1-.079.694" transform="translate(-12.867 -10.489)" fill="#8d4231"/>
        <path id="Trazado_3977" data-name="Trazado 3977" d="M98.553,79.642c.05.005-.042.267.018.62a.457.457,0,0,0,.362.381.682.682,0,0,0,.582-.367c.317-.5.638-.963.832-1.3s.3-.563.337-.55-.01.261-.173.633a11.343,11.343,0,0,1-.784,1.363.894.894,0,0,1-.825.456.642.642,0,0,1-.513-.588,1.086,1.086,0,0,1,.071-.494c.04-.107.074-.161.091-.157" transform="translate(-13.498 -10.76)" fill="#8d4231"/>
        <path id="Trazado_3978" data-name="Trazado 3978" d="M68.983,111.268s-4.071-10.016-4.05-10.2l1.053-3.726.427-2.158,1.375,1.6,6.721-7.024c.124.17-3.042-4.429-6.251-8.929C66.021,77.689,63.6,77,62.187,76.9a9.737,9.737,0,0,0-1.8-.369l-11.567-.1a10.942,10.942,0,0,0-6.9,2.531A72.884,72.884,0,0,0,33.929,91.12l9.3,6.717,1.533-2.7.006.053c.129.915.681,3.582.862,4.487.564,2.811.742,6.194-.627,8.515a70.794,70.794,0,0,0-2.665,7.959H70.88s-.92-2.476-1.9-4.886" transform="translate(-4.655 -10.486)" fill="#375a64"/>
        <path id="Trazado_3979" data-name="Trazado 3979" d="M45.259,109.495l-.981-.788c-.005-.057-.008-.09-.008-.09l-.04.051-6.461-5.191,2.771-4.566-6.687-4.884c.03.324-6.205,9.563-5.362,11.379,1.193,2.566,9.293,7.7,12.609,9.717a21.136,21.136,0,0,0-2.678.528c-.844.278,1.909,1.007,2.575,1.141.261.053.795-.361,1.364-.91l.153.091.179-.421a19.11,19.11,0,0,0,1.7-1.984,7.009,7.009,0,0,0,.081-2.219Z" transform="translate(-3.898 -12.9)" fill="#b86958"/>
        <path id="Trazado_3980" data-name="Trazado 3980" d="M87.871,223.726l-.035-.945-9.568.277.083,3.115.592.019c2.632.066,13.39.159,15.131-.384,1.942-.6-6.2-2.082-6.2-2.082" transform="translate(-10.738 -30.564)" fill="#ff4f5b"/>
        <g id="Grupo_656" data-name="Grupo 656" transform="translate(67.544 192.99)" opacity="0.3">
          <g id="Grupo_655" data-name="Grupo 655">
            <g id="Grupo_654" data-name="Grupo 654" clip-path="url(#clip-path-10)">
              <path id="Trazado_3981" data-name="Trazado 3981" d="M81.8,226.133a3.054,3.054,0,0,0-1.274-1.855,3.384,3.384,0,0,0-2.246-.584l.075,2.475Z" transform="translate(-78.284 -223.677)"/>
            </g>
          </g>
        </g>
        <g id="Grupo_659" data-name="Grupo 659" transform="translate(67.613 194.014)" opacity="0.3">
          <g id="Grupo_658" data-name="Grupo 658">
            <g id="Grupo_657" data-name="Grupo 657" clip-path="url(#clip-path-11)">
              <path id="Trazado_3982" data-name="Trazado 3982" d="M91.869,224.865s2.859.684,2.519,1.129-11.216.729-16.024.466l.009-.2,12.688-.232s.254-1.127.808-1.163" transform="translate(-78.364 -224.865)"/>
            </g>
          </g>
        </g>
        <path id="Trazado_3983" data-name="Trazado 3983" d="M78.2,226.415a.983.983,0,0,0,.164.012l.471.014,1.734.024c1.463.009,3.486,0,5.719-.058s4.254-.15,5.714-.235l1.729-.113.47-.038a1.246,1.246,0,0,0,.162-.02.845.845,0,0,0-.164,0l-.471.018L92,226.1c-1.461.066-3.481.147-5.713.2s-4.253.079-5.715.089l-1.733.009-.471.006a.827.827,0,0,0-.165.01" transform="translate(-10.729 -31.006)" fill="#1a2e35"/>
        <path id="Trazado_3984" data-name="Trazado 3984" d="M93.079,226.147a3.528,3.528,0,0,1,.3-.777,3.7,3.7,0,0,1,.572-.632,1.26,1.26,0,0,0-.672.578,1.127,1.127,0,0,0-.2.83" transform="translate(-12.767 -30.833)" fill="#1a2e35"/>
        <path id="Trazado_3985" data-name="Trazado 3985" d="M89.777,224.8c.028.016.158-.141.29-.348s.218-.388.192-.4-.158.141-.29.348-.218.387-.192.4" transform="translate(-12.316 -30.738)" fill="#1a2e35"/>
        <path id="Trazado_3986" data-name="Trazado 3986" d="M88.871,224.423c.022.021.169-.076.33-.217s.272-.273.25-.3-.17.076-.33.217-.272.274-.25.3" transform="translate(-12.192 -30.719)" fill="#1a2e35"/>
        <path id="Trazado_3987" data-name="Trazado 3987" d="M88.276,223.541a1.2,1.2,0,0,0,.5.046,1.169,1.169,0,0,0,.5-.062,2.363,2.363,0,0,0-1,.016" transform="translate(-12.111 -30.66)" fill="#1a2e35"/>
        <path id="Trazado_3988" data-name="Trazado 3988" d="M88.061,222.871a1.011,1.011,0,0,0,.559.135,1.031,1.031,0,0,0,.571-.085,3.234,3.234,0,0,0-.566-.022,3.347,3.347,0,0,0-.564-.028" transform="translate(-12.081 -30.575)" fill="#1a2e35"/>
        <path id="Trazado_3989" data-name="Trazado 3989" d="M90.126,223.884a1.881,1.881,0,0,0,.612-.02,3.84,3.84,0,0,0,.648-.15,1.864,1.864,0,0,0,.368-.154.31.31,0,0,0,.146-.18.218.218,0,0,0-.1-.225,1.173,1.173,0,0,0-1.378.342.968.968,0,0,0-.188.385.315.315,0,0,0-.012.154,1.576,1.576,0,0,1,.265-.494,1.111,1.111,0,0,1,.513-.329,1.011,1.011,0,0,1,.73.027c.1.065.066.172-.041.234a1.81,1.81,0,0,1-.341.146,4.526,4.526,0,0,1-.626.17c-.364.07-.6.076-.6.094" transform="translate(-12.365 -30.602)" fill="#1a2e35"/>
        <path id="Trazado_3990" data-name="Trazado 3990" d="M90.179,223.87a.532.532,0,0,0,.058-.4.9.9,0,0,0-.179-.412.624.624,0,0,0-.518-.276.227.227,0,0,0-.181.267.6.6,0,0,0,.112.252,1.722,1.722,0,0,0,.3.336.9.9,0,0,0,.356.221c.011-.014-.124-.1-.3-.274a2.053,2.053,0,0,1-.267-.335c-.087-.118-.152-.333,0-.362a.558.558,0,0,1,.411.231.913.913,0,0,1,.185.365,1.89,1.89,0,0,1,.022.383" transform="translate(-12.259 -30.565)" fill="#1a2e35"/>
        <path id="Trazado_3991" data-name="Trazado 3991" d="M78.341,223.654c0,.02.272-.031.7,0a3.217,3.217,0,0,1,1.554.549,2.867,2.867,0,0,1,1,1.235c.157.376.179.631.2.627a.432.432,0,0,0-.005-.179,2.21,2.21,0,0,0-.118-.475,2.747,2.747,0,0,0-1.005-1.3,3.1,3.1,0,0,0-1.617-.538,2.668,2.668,0,0,0-.523.027.573.573,0,0,0-.186.045" transform="translate(-10.748 -30.674)" fill="#1a2e35"/>
        <path id="Trazado_3992" data-name="Trazado 3992" d="M83.723,225.478a5.809,5.809,0,0,0,1.393.091,5.72,5.72,0,0,0,1.391-.141c0-.03-.626.022-1.393.034s-1.389-.016-1.392.016" transform="translate(-11.486 -30.926)" fill="#1a2e35"/>
        <path id="Trazado_3993" data-name="Trazado 3993" d="M81.558,225.539c-.022.022.054.122.123.253s.106.248.139.244.044-.141-.035-.292-.206-.227-.226-.205" transform="translate(-11.189 -30.942)" fill="#1a2e35"/>
        <path id="Trazado_3994" data-name="Trazado 3994" d="M80.714,224.617c-.022.022.042.112.143.2s.2.147.223.125-.042-.112-.143-.2-.2-.146-.223-.125" transform="translate(-11.073 -30.816)" fill="#1a2e35"/>
        <path id="Trazado_3995" data-name="Trazado 3995" d="M79.536,224.209c.008.03.134.025.274.067s.245.109.269.089-.059-.141-.235-.191-.32.008-.309.035" transform="translate(-10.912 -30.753)" fill="#1a2e35"/>
        <path id="Trazado_3996" data-name="Trazado 3996" d="M78.7,224.033c-.011.028.046.072.125.1s.153.026.164,0-.046-.072-.126-.1-.153-.025-.163,0" transform="translate(-10.797 -30.733)" fill="#1a2e35"/>
        <path id="Trazado_3997" data-name="Trazado 3997" d="M54.455,49.062a3.486,3.486,0,0,0-4.069-.315,15.842,15.842,0,0,1-1.76,1.286c-1.1.506-2.4.111-3.593.3a3.793,3.793,0,0,0-3.079,3.811c.049.959.461,1.99-.008,2.829-.412.737-1.332.994-1.987,1.526a2.842,2.842,0,0,0-.394,3.86,14.015,14.015,0,0,1,1.123,1.2,6.045,6.045,0,0,1,.522,2.53c.119.861.619,1.834,1.487,1.892.7.045,1.328-.542,2.027-.485.979.08,1.38,1.255,1.947,2.059a3.488,3.488,0,0,0,3.251,1.415c.891-.121,1.774-.592,2.645-.371,1.1.279,1.754,1.563,2.873,1.723a2.894,2.894,0,0,0,2.223-1.005,4.5,4.5,0,0,1,2.076-1.371c1-.179,1.957.424,2.96.562A3.344,3.344,0,0,0,66,68.856c.552-1,.55-2.226,1.065-3.244a18.47,18.47,0,0,1,1.33-1.865,2.509,2.509,0,0,0,.481-2.157c-.181-.519-.621-.91-.834-1.416a4.962,4.962,0,0,1,0-2.436,2.034,2.034,0,0,0-.833-2.149,7.685,7.685,0,0,1-.96-.319c-.583-.363-.553-1.195-.606-1.88a3.128,3.128,0,0,0-1.416-2.515,1.924,1.924,0,0,0-2.606.645" transform="translate(-5.348 -6.618)" fill="#1a2e35"/>
        <path id="Trazado_3998" data-name="Trazado 3998" d="M50.319,58.337a6.5,6.5,0,0,1,3.5-9.219,10.292,10.292,0,0,1,3.915-.456,8.174,8.174,0,0,1,3.3.676,3.565,3.565,0,0,1,2.041,2.541" transform="translate(-6.796 -6.674)" fill="#ff4f5b"/>
        <path id="Trazado_3999" data-name="Trazado 3999" d="M56.954,78.929h0a4.585,4.585,0,0,0,4.931-4.4c.1-2.494.179-5.017.179-5.017s3.782-.354,4.055-4.1.149-12.381.149-12.381a13.038,13.038,0,0,0-13.178.847l-.58.393.211,20.128a4.583,4.583,0,0,0,4.232,4.522" transform="translate(-7.204 -7.085)" fill="#b86958"/>
        <path id="Trazado_4000" data-name="Trazado 4000" d="M66.368,60.746a.545.545,0,1,1,.771.009.546.546,0,0,1-.771-.009" transform="translate(-9.084 -8.207)" fill="#1a2e35"/>
        <path id="Trazado_4001" data-name="Trazado 4001" d="M67.784,60.066c-.062.062-.413-.243-.928-.277s-.907.209-.959.14c-.027-.032.039-.145.211-.259a1.269,1.269,0,0,1,1.506.11c.153.137.2.26.171.286" transform="translate(-9.04 -8.159)" fill="#1a2e35"/>
        <path id="Trazado_4002" data-name="Trazado 4002" d="M60.59,60.06a.545.545,0,1,1-.759.133.546.546,0,0,1,.759-.133" transform="translate(-8.195 -8.226)" fill="#1a2e35"/>
        <path id="Trazado_4003" data-name="Trazado 4003" d="M61.262,60.2a1.06,1.06,0,0,0-.928-.278c-.516-.041-.907.21-.959.14-.027-.031.039-.144.211-.259a1.274,1.274,0,0,1,1.507.11c.152.138.2.26.17.286" transform="translate(-8.145 -8.178)" fill="#1a2e35"/>
        <path id="Trazado_4004" data-name="Trazado 4004" d="M63.68,64.226a2.465,2.465,0,0,1,.845-.126c.136-.006.244-.031.258-.1a.728.728,0,0,0-.073-.392c-.112-.349-.224-.7-.343-1.072a14.331,14.331,0,0,1-.715-2.809,14.437,14.437,0,0,1,1,2.723c.111.372.217.727.322,1.079a.856.856,0,0,1,.04.565.356.356,0,0,1-.245.2.875.875,0,0,1-.232.016,2.538,2.538,0,0,1-.851-.082" transform="translate(-8.731 -8.194)" fill="#1a2e35"/>
        <path id="Trazado_4005" data-name="Trazado 4005" d="M62.831,72.028a8.727,8.727,0,0,1-4.8-1.685s.99,2.765,4.748,2.656Z" transform="translate(-7.962 -9.651)" fill="#8d4231"/>
        <path id="Trazado_4006" data-name="Trazado 4006" d="M56.456,51.424a3.525,3.525,0,0,0,3,3.085c.92.11,1.915-.145,2.743.274a4.8,4.8,0,0,1,1.4,1.406,2.225,2.225,0,0,0,1.657.992,4.572,4.572,0,0,0,.938-.221,1.1,1.1,0,0,1,.928.1,7.227,7.227,0,0,0,.554-3.487A3.213,3.213,0,0,0,65.607,50.9a19.886,19.886,0,0,0-2.311-.213,7.538,7.538,0,0,1-1.795-.662,5.634,5.634,0,0,0-3.086-.657,2.292,2.292,0,0,0-2.045,2.1" transform="translate(-7.734 -6.768)" fill="#1a2e35"/>
        <path id="Trazado_4007" data-name="Trazado 4007" d="M52.481,61.735c1.356,1.09,2.992-1.735,3.718-3.506a17.42,17.42,0,0,0,1.053-5.661,2.805,2.805,0,0,0-.33-1.824c-.388-.525-.561.12-.984-.374-.832-.968-2.37-.445-3.128-.116a4.438,4.438,0,0,0-2.3,3.389,14.036,14.036,0,0,0,.158,4.344l.28,1.973a3.222,3.222,0,0,0,.391,1.333.953.953,0,0,0,1.143.442" transform="translate(-6.914 -6.834)" fill="#1a2e35"/>
        <path id="Trazado_4008" data-name="Trazado 4008" d="M52.358,59.972a.564.564,0,0,0-.541-.566c-.7-.02-1.842.259-1.948,2.187a1.8,1.8,0,0,0,2.508,1.987c.007-.062-.011-2.538-.019-3.608" transform="translate(-6.841 -8.15)" fill="#b86958"/>
        <path id="Trazado_4009" data-name="Trazado 4009" d="M51.885,62.639c-.011-.01-.05.031-.132.063a.483.483,0,0,1-.36-.011,1.192,1.192,0,0,1-.491-1.1,1.583,1.583,0,0,1,.173-.68.553.553,0,0,1,.38-.349.244.244,0,0,1,.276.148c.033.079.012.133.027.138s.061-.043.046-.158a.306.306,0,0,0-.1-.179.37.37,0,0,0-.261-.085.676.676,0,0,0-.525.4,1.616,1.616,0,0,0-.208.758,1.247,1.247,0,0,0,.634,1.229.519.519,0,0,0,.443-.049c.088-.063.106-.124.1-.129" transform="translate(-6.957 -8.291)" fill="#8d4231"/>
        <path id="Trazado_4010" data-name="Trazado 4010" d="M62.147,65.652a.729.729,0,1,0,.06-.089" transform="translate(-8.514 -8.958)" fill="#8d4231"/>
        <path id="Trazado_4011" data-name="Trazado 4011" d="M63.819,66.21a1.438,1.438,0,0,1-1.168-.039c-.633-.223-.981-.668-.928-.709s.444.265,1.016.465,1.074.207,1.08.283" transform="translate(-8.467 -8.98)" fill="#1a2e35"/>
        <path id="Trazado_4012" data-name="Trazado 4012" d="M55.7,48.437a2.511,2.511,0,0,1-1.918-2.153,7.217,7.217,0,0,1,.36-3.04A4.356,4.356,0,0,1,55.6,48.65" transform="translate(-7.371 -5.933)" fill="#ff4f5b"/>
        <path id="Trazado_4013" data-name="Trazado 4013" d="M55.939,48.7a1.784,1.784,0,0,1,.852-1.973,3.67,3.67,0,0,1,2.246-.4.394.394,0,0,1,.192.051.348.348,0,0,1,.116.238,1.915,1.915,0,0,1-1.074,1.855A5.6,5.6,0,0,1,56.064,49a.663.663,0,0,1-.354-.03.229.229,0,0,1-.124-.3" transform="translate(-7.623 -6.354)" fill="#ff4f5b"/>
        <path id="Trazado_4014" data-name="Trazado 4014" d="M70.736,54.106c-.013,0-.017-.053-.066-.13a.47.47,0,0,0-.339-.188.419.419,0,0,0-.476.267.594.594,0,0,0,.309.663.718.718,0,0,0,.847-.273,1.143,1.143,0,0,0,.077-1.1,1.944,1.944,0,0,0-2.233-1.105l-.151.047-.693.217.568-.441a1.127,1.127,0,0,0,.328-1.195,1.4,1.4,0,0,0-.851-.863,2.4,2.4,0,0,0-2.106.309c-.273.165-.5.358-.735.492a1.321,1.321,0,0,1-.659.2c-.4,0-.55-.21-.533-.21a.988.988,0,0,0,.528.11,1.289,1.289,0,0,0,.589-.228c.213-.135.431-.338.714-.523a3.194,3.194,0,0,1,1.008-.446,2.155,2.155,0,0,1,1.28.069A1.634,1.634,0,0,1,69.149,50.8a1.372,1.372,0,0,1-.412,1.474l-.124-.224.176-.055a2.171,2.171,0,0,1,2.522,1.271,1.356,1.356,0,0,1-.129,1.314.91.91,0,0,1-1.1.3.747.747,0,0,1-.362-.873.492.492,0,0,1,.292-.3.609.609,0,0,1,.34-.024.51.51,0,0,1,.368.262c.041.1.026.157.021.156" transform="translate(-8.783 -6.812)" fill="#1a2e35"/>
        <path id="Trazado_4015" data-name="Trazado 4015" d="M39.857,58.376a.576.576,0,0,1,.269.016,1.061,1.061,0,0,1,.615.469,1.094,1.094,0,0,1,.178.547.915.915,0,0,1-.231.65,1.172,1.172,0,0,1-.7.369,1.077,1.077,0,0,1-.862-.237,1.834,1.834,0,0,1-.3-1.923,2.7,2.7,0,0,1,1.548-1.638c.383-.148.789-.205,1.167-.324a1.413,1.413,0,0,0,.9-.671,1.982,1.982,0,0,0,.141-1.193,7,7,0,0,0-.35-1.267,4.26,4.26,0,0,1-.267-1.35,1.907,1.907,0,0,1,.479-1.274,2.382,2.382,0,0,1,1.108-.7A3.11,3.11,0,0,1,44.8,49.76c.815.082,1.487.5,2.146.6a1.449,1.449,0,0,0,.917-.126,2.64,2.64,0,0,0,.688-.57A3.968,3.968,0,0,1,49.764,48.6a2.324,2.324,0,0,1,1.211-.2,2.118,2.118,0,0,1,.742.215,1.343,1.343,0,0,1,.173.1c.037.026.054.041.053.046a2.929,2.929,0,0,0-.976-.262,2.27,2.27,0,0,0-1.139.23,3.932,3.932,0,0,0-1.145,1.058,2.862,2.862,0,0,1-.73.624,1.662,1.662,0,0,1-1.043.161c-.726-.11-1.38-.506-2.141-.572a2.4,2.4,0,0,0-2.129.719,1.651,1.651,0,0,0-.412,1.11,4.03,4.03,0,0,0,.255,1.267,7.089,7.089,0,0,1,.36,1.312,2.228,2.228,0,0,1-.173,1.348,1.667,1.667,0,0,1-1.054.789c-.406.123-.8.178-1.154.311a2.489,2.489,0,0,0-1.43,1.486,1.654,1.654,0,0,0,.218,1.717.993.993,0,0,0,1.332-.094.87.87,0,0,0,.075-1.046,1.053,1.053,0,0,0-.544-.473c-.161-.056-.255-.053-.255-.066" transform="translate(-5.308 -6.638)" fill="#1a2e35"/>
        <path id="Trazado_4016" data-name="Trazado 4016" d="M58.414,63a.112.112,0,1,1,.079-.15.121.121,0,0,1-.079.15" transform="translate(-7.991 -8.614)" fill="#1a2e35"/>
        <path id="Trazado_4017" data-name="Trazado 4017" d="M59.556,62.893a.146.146,0,1,1,.108-.161.138.138,0,0,1-.108.161" transform="translate(-8.15 -8.589)" fill="#1a2e35"/>
        <path id="Trazado_4018" data-name="Trazado 4018" d="M60.6,63.122a.15.15,0,0,1-.108-.179c.011-.091.079-.157.149-.148a.15.15,0,0,1,.109.179c-.012.091-.079.157-.15.148" transform="translate(-8.299 -8.615)" fill="#1a2e35"/>
        <path id="Trazado_4019" data-name="Trazado 4019" d="M59.368,63.848a.123.123,0,1,1,.13-.123.126.126,0,0,1-.13.123" transform="translate(-8.127 -8.726)" fill="#1a2e35"/>
        <path id="Trazado_4020" data-name="Trazado 4020" d="M66.571,63.273a.145.145,0,1,1,.109-.161.138.138,0,0,1-.109.161" transform="translate(-9.113 -8.641)" fill="#1a2e35"/>
        <path id="Trazado_4021" data-name="Trazado 4021" d="M67.342,63.3c-.068-.022-.1-.124-.061-.225s.116-.166.185-.143.1.124.061.226-.116.165-.185.142" transform="translate(-9.229 -8.634)" fill="#1a2e35"/>
        <path id="Trazado_4022" data-name="Trazado 4022" d="M66.957,64.362A.145.145,0,0,1,67,64.077a.145.145,0,0,1-.043.286" transform="translate(-9.171 -8.791)" fill="#1a2e35"/>
        <path id="Trazado_4023" data-name="Trazado 4023" d="M79.86,209.087,68.6,127.522l-.316-5.265L40.119,120.92l-1.174,4.436c-3.955,13.931-23.924,81.3-23.924,81.3l9.756,3.077,29.039-77.2,13.519,76.409Z" transform="translate(-2.061 -16.59)" fill="#1a2e35"/>
        <path id="Trazado_4024" data-name="Trazado 4024" d="M75.063,121.438c-.071.007-.145-.154-.165-.36s.022-.378.093-.385.146.154.165.36-.022.378-.093.385" transform="translate(-10.275 -16.558)" fill="#375a64"/>
        <path id="Trazado_4025" data-name="Trazado 4025" d="M75.4,124.76c-.072.008-.162-.319-.2-.729s-.017-.747.054-.755.163.319.2.729.016.748-.054.755" transform="translate(-10.313 -16.913)" fill="#375a64"/>
        <path id="Trazado_4026" data-name="Trazado 4026" d="M75.754,128.2c-.071.008-.163-.318-.206-.728s-.021-.747.051-.755.164.318.207.728.02.748-.052.755" transform="translate(-10.362 -17.385)" fill="#375a64"/>
        <path id="Trazado_4027" data-name="Trazado 4027" d="M76.124,131.636c-.072.008-.165-.318-.21-.727s-.023-.747.048-.755.166.318.211.727.022.747-.049.755" transform="translate(-10.412 -17.856)" fill="#375a64"/>
        <path id="Trazado_4028" data-name="Trazado 4028" d="M76.507,135.072c-.072.009-.167-.317-.212-.726s-.026-.747.046-.756.167.318.211.727.026.747-.045.755" transform="translate(-10.464 -18.328)" fill="#375a64"/>
        <path id="Trazado_4029" data-name="Trazado 4029" d="M76.9,138.507c-.071.009-.167-.317-.215-.726s-.028-.747.043-.756.167.317.215.726.028.747-.043.756" transform="translate(-10.517 -18.799)" fill="#375a64"/>
        <path id="Trazado_4030" data-name="Trazado 4030" d="M77.308,141.94c-.072.009-.168-.317-.217-.726s-.03-.747.041-.756.168.316.217.726.03.747-.041.756" transform="translate(-10.573 -19.27)" fill="#375a64"/>
        <path id="Trazado_4031" data-name="Trazado 4031" d="M77.725,145.373c-.072.009-.169-.316-.22-.725s-.032-.747.039-.756.169.316.219.725.033.747-.038.756" transform="translate(-10.629 -19.741)" fill="#375a64"/>
        <path id="Trazado_4032" data-name="Trazado 4032" d="M78.15,148.8c-.072.009-.17-.315-.222-.724s-.035-.747.037-.756.17.315.221.724.035.747-.036.756" transform="translate(-10.687 -20.212)" fill="#375a64"/>
        <path id="Trazado_4033" data-name="Trazado 4033" d="M78.584,152.233c-.071.009-.171-.314-.223-.723s-.036-.747.035-.757.171.315.223.724.036.747-.035.756" transform="translate(-10.747 -20.682)" fill="#375a64"/>
        <path id="Trazado_4034" data-name="Trazado 4034" d="M79.024,155.663c-.071.009-.172-.314-.224-.723s-.038-.747.033-.757.173.314.225.723.038.747-.034.757" transform="translate(-10.807 -21.153)" fill="#375a64"/>
        <path id="Trazado_4035" data-name="Trazado 4035" d="M79.471,159.091c-.071.009-.172-.314-.225-.722s-.04-.747.032-.757.173.314.225.723.04.746-.032.756" transform="translate(-10.868 -21.624)" fill="#375a64"/>
        <path id="Trazado_4036" data-name="Trazado 4036" d="M79.924,162.518c-.071.01-.173-.313-.227-.722s-.041-.746.031-.757.173.314.227.723.04.746-.031.756" transform="translate(-10.929 -22.094)" fill="#375a64"/>
        <path id="Trazado_4037" data-name="Trazado 4037" d="M80.381,165.946c-.072.009-.173-.314-.229-.722s-.041-.747.03-.757.173.313.228.722.041.746-.029.757" transform="translate(-10.992 -22.564)" fill="#375a64"/>
        <path id="Trazado_4038" data-name="Trazado 4038" d="M80.841,169.373c-.072.009-.173-.314-.229-.722s-.041-.746.029-.757.173.313.228.722.042.746-.028.757" transform="translate(-11.055 -23.034)" fill="#375a64"/>
        <path id="Trazado_4039" data-name="Trazado 4039" d="M81.3,172.8c-.071.01-.173-.313-.229-.721s-.041-.747.029-.757.173.313.229.721.042.747-.029.757" transform="translate(-11.118 -23.504)" fill="#375a64"/>
        <path id="Trazado_4040" data-name="Trazado 4040" d="M81.768,176.224c-.072.01-.173-.313-.23-.721s-.041-.746.029-.757.173.313.229.722.042.746-.028.756" transform="translate(-11.182 -23.974)" fill="#375a64"/>
        <path id="Trazado_4041" data-name="Trazado 4041" d="M82.243,179.645c-.072.011-.176-.311-.234-.72s-.047-.745.023-.756.176.312.234.72.047.745-.023.756" transform="translate(-11.246 -24.444)" fill="#375a64"/>
        <path id="Trazado_4042" data-name="Trazado 4042" d="M82.748,183.063c-.071.01-.178-.311-.238-.718s-.053-.745.018-.756.178.311.238.718.053.745-.018.756" transform="translate(-11.314 -24.913)" fill="#375a64"/>
        <path id="Trazado_4043" data-name="Trazado 4043" d="M83.26,186.478c-.072.01-.179-.311-.24-.718s-.053-.746.017-.757.179.31.24.718.053.745-.017.757" transform="translate(-11.384 -25.382)" fill="#375a64"/>
        <path id="Trazado_4044" data-name="Trazado 4044" d="M83.777,189.9c-.071.011-.179-.31-.24-.717s-.054-.745.016-.757.179.311.241.718.053.745-.017.756" transform="translate(-11.455 -25.85)" fill="#375a64"/>
        <path id="Trazado_4045" data-name="Trazado 4045" d="M84.3,193.309c-.072.011-.179-.31-.241-.716s-.054-.745.016-.756.179.31.241.716.053.745-.016.756" transform="translate(-11.526 -26.319)" fill="#375a64"/>
        <path id="Trazado_4046" data-name="Trazado 4046" d="M84.814,196.723c-.072.01-.179-.311-.241-.717s-.054-.745.016-.756.179.31.241.716.054.745-.016.757" transform="translate(-11.597 -26.787)" fill="#375a64"/>
        <path id="Trazado_4047" data-name="Trazado 4047" d="M85.334,200.138c-.072.01-.179-.311-.242-.718s-.055-.745.016-.757.179.311.241.718.054.745-.016.757" transform="translate(-11.668 -27.256)" fill="#375a64"/>
        <path id="Trazado_4048" data-name="Trazado 4048" d="M85.854,203.558c-.072.011-.179-.311-.241-.719s-.055-.746.016-.758.179.311.242.719.054.746-.016.758" transform="translate(-11.74 -27.725)" fill="#375a64"/>
        <path id="Trazado_4049" data-name="Trazado 4049" d="M86.374,206.976c-.071.011-.179-.31-.241-.718s-.054-.745.016-.757.179.311.241.718.054.745-.016.757" transform="translate(-11.811 -28.194)" fill="#375a64"/>
        <path id="Trazado_4050" data-name="Trazado 4050" d="M86.892,210.4c-.071.01-.179-.311-.24-.718s-.055-.746.016-.758.178.311.241.718.053.746-.017.758" transform="translate(-11.882 -28.663)" fill="#375a64"/>
        <path id="Trazado_4051" data-name="Trazado 4051" d="M87.41,213.814c-.071.01-.179-.311-.24-.719s-.054-.745.016-.757.179.311.241.718.053.746-.017.758" transform="translate(-11.954 -29.132)" fill="#375a64"/>
        <path id="Trazado_4052" data-name="Trazado 4052" d="M87.925,217.234c-.072.01-.179-.311-.239-.719s-.054-.746.016-.758.179.311.24.719.054.746-.017.758" transform="translate(-12.024 -29.601)" fill="#375a64"/>
        <path id="Trazado_4053" data-name="Trazado 4053" d="M88.436,220.657c-.072.01-.178-.311-.238-.72s-.053-.747.019-.758.177.311.237.72.053.746-.018.758" transform="translate(-12.095 -30.07)" fill="#375a64"/>
        <path id="Trazado_4054" data-name="Trazado 4054" d="M88.822,223.362c-.072.009-.153-.148-.18-.352s.005-.378.077-.387.152.147.18.352-.006.378-.077.387" transform="translate(-12.16 -30.543)" fill="#375a64"/>
        <path id="Trazado_4055" data-name="Trazado 4055" d="M25.484,221.389c.068.021.074.2.012.4s-.168.34-.237.318-.073-.2-.01-.4.167-.339.236-.318" transform="translate(-3.458 -30.373)" fill="#375a64"/>
        <path id="Trazado_4056" data-name="Trazado 4056" d="M26.518,218.042c.068.022.02.362-.108.761s-.286.7-.355.682-.021-.363.107-.762.287-.7.355-.682" transform="translate(-3.57 -29.914)" fill="#375a64"/>
        <path id="Trazado_4057" data-name="Trazado 4057" d="M27.6,214.7c.068.022.018.362-.111.762s-.291.7-.359.679-.018-.363.111-.761.291-.7.359-.68" transform="translate(-3.718 -29.456)" fill="#375a64"/>
        <path id="Trazado_4058" data-name="Trazado 4058" d="M28.705,211.364c.068.022.017.363-.116.76s-.294.7-.362.679-.016-.363.116-.761.294-.7.362-.678" transform="translate(-3.869 -28.998)" fill="#375a64"/>
        <path id="Trazado_4059" data-name="Trazado 4059" d="M29.824,208.033c.068.022.015.363-.12.759s-.3.7-.365.677-.015-.363.119-.76.3-.7.366-.676" transform="translate(-4.021 -28.541)" fill="#375a64"/>
        <path id="Trazado_4060" data-name="Trazado 4060" d="M30.959,204.7c.068.023.013.363-.123.759s-.3.7-.368.676-.014-.363.123-.76.3-.7.368-.675" transform="translate(-4.176 -28.084)" fill="#375a64"/>
        <path id="Trazado_4061" data-name="Trazado 4061" d="M32.108,201.383c.068.023.012.364-.126.759s-.3.7-.372.674-.011-.364.126-.759.3-.7.372-.674" transform="translate(-4.333 -27.628)" fill="#375a64"/>
        <path id="Trazado_4062" data-name="Trazado 4062" d="M33.272,198.066c.067.023.01.363-.129.758s-.307.7-.374.672-.01-.363.129-.758.307-.7.374-.672" transform="translate(-4.492 -27.173)" fill="#375a64"/>
        <path id="Trazado_4063" data-name="Trazado 4063" d="M34.45,194.752c.068.024.009.364-.132.758s-.31.7-.378.67-.008-.363.133-.758.31-.694.377-.67" transform="translate(-4.653 -26.719)" fill="#375a64"/>
        <path id="Trazado_4064" data-name="Trazado 4064" d="M35.639,191.443c.067.024.008.364-.135.758s-.313.694-.381.669-.006-.363.136-.758.311-.694.379-.67" transform="translate(-4.815 -26.265)" fill="#375a64"/>
        <path id="Trazado_4065" data-name="Trazado 4065" d="M36.84,188.137c.067.025.006.364-.137.758s-.315.694-.383.668,0-.363.139-.757.314-.693.381-.669" transform="translate(-4.979 -25.811)" fill="#375a64"/>
        <path id="Trazado_4066" data-name="Trazado 4066" d="M38.052,184.835c.067.025.005.364-.14.757s-.317.693-.384.667,0-.363.141-.757.317-.691.383-.667" transform="translate(-5.145 -25.358)" fill="#375a64"/>
        <path id="Trazado_4067" data-name="Trazado 4067" d="M39.276,181.536c.067.026,0,.364-.142.758s-.319.691-.387.666,0-.364.143-.757.318-.691.386-.667" transform="translate(-5.312 -24.906)" fill="#375a64"/>
        <path id="Trazado_4068" data-name="Trazado 4068" d="M40.507,178.242c.067.025,0,.364-.145.756s-.321.691-.387.665,0-.363.144-.756.321-.69.388-.665" transform="translate(-5.481 -24.454)" fill="#375a64"/>
        <path id="Trazado_4069" data-name="Trazado 4069" d="M41.747,174.95c.067.025,0,.363-.146.756s-.323.689-.39.664,0-.364.147-.756.323-.689.389-.664" transform="translate(-5.65 -24.002)" fill="#375a64"/>
        <path id="Trazado_4070" data-name="Trazado 4070" d="M43,171.66c.067.025,0,.364-.148.756s-.324.689-.391.663,0-.364.148-.756.324-.689.391-.663" transform="translate(-5.821 -23.551)" fill="#375a64"/>
        <path id="Trazado_4071" data-name="Trazado 4071" d="M44.25,168.372c.067.026,0,.364-.149.756s-.326.688-.393.663,0-.364.15-.755.325-.689.392-.663" transform="translate(-5.993 -23.1)" fill="#375a64"/>
        <path id="Trazado_4072" data-name="Trazado 4072" d="M45.511,165.088c.067.026,0,.364-.151.755s-.327.688-.393.662,0-.363.151-.755.327-.688.393-.662" transform="translate(-6.166 -22.649)" fill="#375a64"/>
        <path id="Trazado_4073" data-name="Trazado 4073" d="M46.779,161.806c.066.026,0,.364-.153.755s-.328.687-.4.661,0-.364.153-.755.328-.687.4-.661" transform="translate(-6.339 -22.199)" fill="#375a64"/>
        <path id="Trazado_4074" data-name="Trazado 4074" d="M48.049,158.526c.067.025,0,.363-.154.754s-.329.687-.4.661,0-.364.154-.755.329-.686.4-.66" transform="translate(-6.513 -21.749)" fill="#375a64"/>
        <path id="Trazado_4075" data-name="Trazado 4075" d="M49.324,155.246c.066.026,0,.364-.154.754s-.33.687-.4.661,0-.364.154-.755.33-.686.4-.66" transform="translate(-6.688 -21.299)" fill="#375a64"/>
        <path id="Trazado_4076" data-name="Trazado 4076" d="M50.6,151.969c.066.026,0,.364-.155.754s-.33.686-.4.66,0-.363.155-.754.33-.686.4-.66" transform="translate(-6.863 -20.849)" fill="#375a64"/>
        <path id="Trazado_4077" data-name="Trazado 4077" d="M51.881,148.694c.067.026,0,.363-.155.753s-.33.686-.4.66,0-.364.155-.754.33-.685.4-.659" transform="translate(-7.039 -20.4)" fill="#375a64"/>
        <path id="Trazado_4078" data-name="Trazado 4078" d="M53.164,145.419c.066.026,0,.363-.157.753s-.33.685-.4.659,0-.363.156-.753.331-.685.4-.659" transform="translate(-7.214 -19.95)" fill="#375a64"/>
        <path id="Trazado_4079" data-name="Trazado 4079" d="M54.5,142.169c.066.028-.013.364-.175.748s-.349.675-.416.648.013-.362.177-.749.349-.676.414-.647" transform="translate(-7.393 -19.505)" fill="#375a64"/>
        <path id="Trazado_4080" data-name="Trazado 4080" d="M55.994,138.993c.063.034-.036.364-.222.737s-.389.652-.454.621.034-.36.222-.737.39-.655.454-.621" transform="translate(-7.587 -19.069)" fill="#375a64"/>
        <path id="Trazado_4081" data-name="Trazado 4081" d="M57.834,136.017c.055.046-.09.358-.326.7s-.477.585-.538.548.085-.349.326-.7.483-.594.538-.549" transform="translate(-7.814 -18.66)" fill="#375a64"/>
        <path id="Trazado_4082" data-name="Trazado 4082" d="M59.878,134.38c.019.07-.112.169-.283.261s-.336.141-.379.081.064-.209.257-.311.387-.1.4-.031" transform="translate(-8.123 -18.429)" fill="#375a64"/>
        <path id="Trazado_4083" data-name="Trazado 4083" d="M48.282,84.763l-17.849-.481h-18.2a4.406,4.406,0,0,0-4.319,4.489v12.342a52.25,52.25,0,0,0,5.938,24.565,39.417,39.417,0,0,0,16.582,16.938C37.8,139.848,43.3,132.47,46.663,126.16A52.255,52.255,0,0,0,52.6,101.6V89.252a4.406,4.406,0,0,0-4.319-4.488" transform="translate(-1.086 -11.563)" fill="#ff4f5b"/>
        <path id="Trazado_4084" data-name="Trazado 4084" d="M32.249,116.358l-6.6-5.464,2.227-2.69,3.981,3.293,6.514-7.475,2.633,2.3Z" transform="translate(-3.518 -14.271)" fill="#fff"/>
        <g id="Grupo_662" data-name="Grupo 662" transform="translate(6.827 72.719)" opacity="0.3">
          <g id="Grupo_661" data-name="Grupo 661">
            <g id="Grupo_660" data-name="Grupo 660" clip-path="url(#clip-path-12)">
              <path id="Trazado_4085" data-name="Trazado 4085" d="M48.282,84.764l-17.849-.481h-18.2a4.406,4.406,0,0,0-4.318,4.488v12.342a52.248,52.248,0,0,0,5.937,24.564,39.42,39.42,0,0,0,16.583,16.938c7.368-2.768,12.868-10.145,16.23-16.455A52.259,52.259,0,0,0,52.6,101.6V89.253a4.406,4.406,0,0,0-4.318-4.488m-.59,17.744a41.339,41.339,0,0,1-4.7,19.435c-2.66,4.993-6.573,10.134-12.914,13.4-6.341-3.267-10.106-8.408-12.766-13.4a41.338,41.338,0,0,1-4.7-19.435V92.744a3.486,3.486,0,0,1,3.417-3.552H44.274a3.486,3.486,0,0,1,3.418,3.552Z" transform="translate(-7.913 -84.282)"/>
            </g>
          </g>
        </g>
      </g>
    </g>
  </g>
</svg>
