<svg id="Grupo_325" data-name="Grupo 325" xmlns="http://www.w3.org/2000/svg" xmlns:xlink="http://www.w3.org/1999/xlink" width="122.279" height="121.595" viewBox="0 0 122.279 121.595">
  <defs>
    <clipPath id="clip-path">
      <rect id="Rectángulo_204" data-name="Rectángulo 204" width="122.279" height="121.595" fill="none"/>
    </clipPath>
  </defs>
  <g id="Grupo_324" data-name="Grupo 324" clip-path="url(#clip-path)">
    <path id="Trazado_1969" data-name="Trazado 1969" d="M117.259,60.8a58.63,58.63,0,1,1-58.63-58.63,58.63,58.63,0,0,1,58.63,58.63" fill="#fff"/>
    <path id="Trazado_1970" data-name="Trazado 1970" d="M61.481,121.6a60.8,60.8,0,1,1,60.8-60.8,60.867,60.867,0,0,1-60.8,60.8m0-117.259A56.462,56.462,0,1,0,117.944,60.8,56.526,56.526,0,0,0,61.481,4.336" fill="#3e145e"/>
    <path id="Trazado_1971" data-name="Trazado 1971" d="M37.835,23.016H46.55l-.262,7.061,3.655,1.51,4.1-3.053,4.748,4.748L55.9,36.174l1.35,4.862,6.06-1.262V50.489l-5.1-2-2.315,5.6,5.014,3.6L54.749,63.85l-3.6-5.015L47.55,61.9v4.347l-9.715,1,.461-3.9-4.174-2.565-3.779.951L25.6,56.981l.951-3.779-1.121-2.713H21.077l1-8.715,5.061-.738-.592-3.975-3.072-3.072,6.162-7.577,4.805,5.175,3.656-1.51Z" fill="#ffe227"/>
    <path id="Trazado_1972" data-name="Trazado 1972" d="M46.55,67.246H37.835a1,1,0,0,1-1-1V61.9a17.321,17.321,0,0,1-2.713-1.121L31.05,63.85a1,1,0,0,1-1.414,0l-6.162-6.163a1,1,0,0,1,0-1.414L26.546,53.2a17.556,17.556,0,0,1-1.121-2.713H21.077a1,1,0,0,1-1-1V40.773a1,1,0,0,1,1-1h4.348a17.638,17.638,0,0,1,1.121-2.713l-3.072-3.072a1,1,0,0,1,0-1.414l6.162-6.162a1,1,0,0,1,1.414,0l3.072,3.072a17.515,17.515,0,0,1,2.713-1.121s.447-5.347,1-5.347H46.55a1,1,0,0,1,1,1v4.347a17.515,17.515,0,0,1,2.713,1.121l3.072-3.072a1,1,0,0,1,1.414,0l6.162,6.162a1,1,0,0,1,0,1.414l-3.072,3.071a17.691,17.691,0,0,1,1.121,2.714h4.347a1,1,0,0,1,1,1v8.715a1,1,0,0,1-1,1H58.96A17.556,17.556,0,0,1,57.839,53.2l3.072,3.072a1,1,0,0,1,0,1.414L54.749,63.85a1,1,0,0,1-1.414,0l-3.072-3.073A17.321,17.321,0,0,1,47.55,61.9v4.348a1,1,0,0,1-1,1m-7.715-2H45.55v-4.1a1,1,0,0,1,.738-.965,15.458,15.458,0,0,0,3.655-1.51,1,1,0,0,1,1.2.16l2.894,2.893L58.79,56.98,55.9,54.087a1,1,0,0,1-.161-1.2,15.486,15.486,0,0,0,1.511-3.657,1,1,0,0,1,.965-.738h4.095V41.773H58.212a1,1,0,0,1-.965-.738,15.5,15.5,0,0,0-1.511-3.656,1,1,0,0,1,.161-1.205l2.893-2.893-4.748-4.748-2.894,2.894a1,1,0,0,1-1.2.16,15.461,15.461,0,0,0-3.655-1.511,1,1,0,0,1-.738-.965V25.016H38.835v4.095a1,1,0,0,1-.738.965,15.485,15.485,0,0,0-3.656,1.511,1,1,0,0,1-1.205-.16l-2.893-2.894-4.748,4.748,2.893,2.894a1,1,0,0,1,.16,1.2,15.493,15.493,0,0,0-1.51,3.656,1,1,0,0,1-.965.738h-4.1v6.715h4.1a1,1,0,0,1,.965.738,15.483,15.483,0,0,0,1.51,3.657,1,1,0,0,1-.16,1.2L25.595,56.98l4.748,4.748,2.893-2.893a1,1,0,0,1,1.205-.16,15.483,15.483,0,0,0,3.656,1.51,1,1,0,0,1,.738.965Z" fill="#3e145e"/>
    <path id="Trazado_1973" data-name="Trazado 1973" d="M46.089,45.131a3.9,3.9,0,1,1-3.9-3.9,3.9,3.9,0,0,1,3.9,3.9" fill="#3e145e"/>
    <path id="Trazado_1974" data-name="Trazado 1974" d="M59.328,89.058a.908.908,0,0,1-.126-.008,31.048,31.048,0,0,1-23.48-16.193,1,1,0,1,1,1.763-.942A29.048,29.048,0,0,0,59.452,87.066a1,1,0,0,1-.124,1.992" fill="#3e145e"/>
    <path id="Trazado_1975" data-name="Trazado 1975" d="M87.835,99.417H63.55a5.229,5.229,0,0,1-5.223-5.223V77.616a5.228,5.228,0,0,1,5.223-5.222h7.388a1,1,0,0,1,0,2H63.55a3.225,3.225,0,0,0-3.223,3.222V94.194a3.226,3.226,0,0,0,3.223,3.223H87.835a3.226,3.226,0,0,0,3.223-3.223V79.368a1,1,0,0,1,1-1h7.689L92.181,58.61a.992.992,0,0,1-.067-.357A29.031,29.031,0,0,0,63.1,29.268a1,1,0,0,1,0-2,31.033,31.033,0,0,1,31.011,30.8l8.022,20.945a1,1,0,0,1-.934,1.357H93.058V94.194a5.229,5.229,0,0,1-5.223,5.223" fill="#3e145e"/>
    <path id="Trazado_1976" data-name="Trazado 1976" d="M90.965,88.761h-11a1,1,0,0,1,0-2h11a1,1,0,0,1,0,2" fill="#3e145e"/>
    <path id="Trazado_1977" data-name="Trazado 1977" d="M78.845,67.24A8.588,8.588,0,1,1,87.3,58.653a8.531,8.531,0,0,1-8.454,8.587m0-15.174A6.588,6.588,0,1,0,85.3,58.653a6.529,6.529,0,0,0-6.454-6.587" fill="#3e145e"/>
    <path id="Trazado_1978" data-name="Trazado 1978" d="M81.285,58.653a2.44,2.44,0,1,1-2.44-2.44,2.44,2.44,0,0,1,2.44,2.44" fill="#3e145e"/>
    <path id="Trazado_1979" data-name="Trazado 1979" d="M92.619,59.4H86.812a.75.75,0,0,1,0-1.5h5.807a.75.75,0,0,1,0,1.5" fill="#3e145e"/>
    <path id="Trazado_1980" data-name="Trazado 1980" d="M42.193,45.5a1,1,0,0,1-1-1V35.232a1,1,0,1,1,2,0V44.5a1,1,0,0,1-1,1" fill="#3e145e"/>
    <path id="Trazado_1981" data-name="Trazado 1981" d="M42.193,56.4a11.269,11.269,0,0,1-5.246-21.244,1,1,0,0,1,.932,1.769,9.272,9.272,0,1,0,8.627,0,1,1,0,0,1,.932-1.769A11.269,11.269,0,0,1,42.193,56.4" fill="#3e145e"/>
    <path id="Trazado_1982" data-name="Trazado 1982" d="M42.528,80.126a.75.75,0,0,1-.53-1.28l5.983-5.983a.75.75,0,0,1,1.061,1.061l-5.984,5.982a.744.744,0,0,1-.53.22" fill="#3e145e"/>
    <path id="Trazado_1983" data-name="Trazado 1983" d="M47.812,84.008a.75.75,0,0,1-.53-1.28l5.983-5.983a.75.75,0,0,1,1.061,1.061l-5.984,5.982a.744.744,0,0,1-.53.22" fill="#3e145e"/>
    <path id="Trazado_1984" data-name="Trazado 1984" d="M89.063,44.988H68.358a.75.75,0,0,1,0-1.5H89.063a.75.75,0,0,1,0,1.5" fill="#3e145e"/>
    <path id="Trazado_1985" data-name="Trazado 1985" d="M71.917,44.988a.75.75,0,0,1-.75-.75V37.345a.75.75,0,0,1,1.5,0v6.893a.75.75,0,0,1-.75.75" fill="#3e145e"/>
    <path id="Trazado_1986" data-name="Trazado 1986" d="M77.8,44.988a.75.75,0,0,1-.75-.75V37.345a.75.75,0,0,1,1.5,0v6.893a.75.75,0,0,1-.75.75" fill="#3e145e"/>
  </g>
</svg>
