<svg id="Grupo_311" data-name="Grupo 311" xmlns="http://www.w3.org/2000/svg" xmlns:xlink="http://www.w3.org/1999/xlink" width="122.279" height="121.595" viewBox="0 0 122.279 121.595">
  <defs>
    <clipPath id="clip-path">
      <rect id="Rectángulo_195" data-name="Rectángulo 195" width="122.279" height="121.595" fill="none"/>
    </clipPath>
  </defs>
  <g id="Grupo_310" data-name="Grupo 310" clip-path="url(#clip-path)">
    <path id="Trazado_1822" data-name="Trazado 1822" d="M117.259,60.8a58.63,58.63,0,1,1-58.63-58.63,58.63,58.63,0,0,1,58.63,58.63" fill="#fff"/>
    <path id="Trazado_1823" data-name="Trazado 1823" d="M61.481,121.6a60.8,60.8,0,1,1,60.8-60.8,60.866,60.866,0,0,1-60.8,60.8m0-117.259A56.462,56.462,0,1,0,117.943,60.8,56.526,56.526,0,0,0,61.481,4.336" fill="#3e145e"/>
    <path id="Trazado_1824" data-name="Trazado 1824" d="M58.063,83.979l1,12.857L71.626,84.272l24.244-.293S99,85.131,99,75.13V35.637s3.182-3.126-3.126-3.126H26.409s-3.126-1.108-3.126,5.334V76.63s-1.933,9.349,5.267,9.349H57.063Z" fill="#ffe227"/>
    <path id="Trazado_1825" data-name="Trazado 1825" d="M58.063,100.25a1.01,1.01,0,0,1-.383-.076,1,1,0,0,1-.617-.924V85.979H26.409a5.132,5.132,0,0,1-5.126-5.126V35.637a5.132,5.132,0,0,1,5.126-5.126H95.87A5.132,5.132,0,0,1,101,35.637V80.853a5.132,5.132,0,0,1-5.126,5.126H72.748L58.77,99.957a1,1,0,0,1-.707.293M26.409,32.511a3.129,3.129,0,0,0-3.126,3.126V80.853a3.129,3.129,0,0,0,3.126,3.126H58.063a1,1,0,0,1,1,1V96.836L71.627,84.272a1,1,0,0,1,.707-.293H95.87A3.129,3.129,0,0,0,99,80.853V35.637a3.129,3.129,0,0,0-3.126-3.126Z" fill="#3e145e"/>
    <path id="Trazado_1826" data-name="Trazado 1826" d="M35.777,50.74a2.8,2.8,0,0,1-2.8-2.8V43.616a2.8,2.8,0,0,1,5.593,0v4.327a2.8,2.8,0,0,1-2.8,2.8m0-8.42a1.3,1.3,0,0,0-1.3,1.3v4.327a1.3,1.3,0,1,0,2.593,0V43.616a1.3,1.3,0,0,0-1.3-1.3" fill="#3e145e"/>
    <path id="Trazado_1827" data-name="Trazado 1827" d="M42.827,50.318a.75.75,0,0,1-.75-.75V41.991a.75.75,0,0,1,1.5,0v7.577a.75.75,0,0,1-.75.75" fill="#3e145e"/>
    <path id="Trazado_1828" data-name="Trazado 1828" d="M49.012,50.74a2.8,2.8,0,0,1-2.8-2.8V43.616a2.8,2.8,0,0,1,5.594,0v4.327a2.8,2.8,0,0,1-2.8,2.8m0-8.42a1.3,1.3,0,0,0-1.3,1.3v4.327a1.3,1.3,0,1,0,2.594,0V43.616a1.3,1.3,0,0,0-1.3-1.3" fill="#3e145e"/>
    <path id="Trazado_1829" data-name="Trazado 1829" d="M62.312,50.74a2.8,2.8,0,0,1-2.8-2.8V43.616a2.8,2.8,0,0,1,5.593,0v4.327a2.8,2.8,0,0,1-2.8,2.8m0-8.42a1.3,1.3,0,0,0-1.3,1.3v4.327a1.3,1.3,0,1,0,2.593,0V43.616a1.3,1.3,0,0,0-1.3-1.3" fill="#3e145e"/>
    <path id="Trazado_1830" data-name="Trazado 1830" d="M71.345,50.74a2.8,2.8,0,0,1-2.8-2.8V43.616a2.8,2.8,0,0,1,5.593,0v4.327a2.8,2.8,0,0,1-2.8,2.8m0-8.42a1.3,1.3,0,0,0-1.3,1.3v4.327a1.3,1.3,0,1,0,2.593,0V43.616a1.3,1.3,0,0,0-1.3-1.3" fill="#3e145e"/>
    <path id="Trazado_1831" data-name="Trazado 1831" d="M80.378,50.74a2.8,2.8,0,0,1-2.8-2.8V43.616a2.8,2.8,0,0,1,5.593,0v4.327a2.8,2.8,0,0,1-2.8,2.8m0-8.42a1.3,1.3,0,0,0-1.3,1.3v4.327a1.3,1.3,0,1,0,2.593,0V43.616a1.3,1.3,0,0,0-1.3-1.3" fill="#3e145e"/>
    <path id="Trazado_1832" data-name="Trazado 1832" d="M55.223,50.318a.75.75,0,0,1-.75-.75V41.991a.75.75,0,0,1,1.5,0v7.577a.75.75,0,0,1-.75.75" fill="#3e145e"/>
    <path id="Trazado_1833" data-name="Trazado 1833" d="M88.549,50.318a.75.75,0,0,1-.75-.75V41.991a.75.75,0,0,1,1.5,0v7.577a.751.751,0,0,1-.75.75" fill="#3e145e"/>
    <path id="Trazado_1834" data-name="Trazado 1834" d="M86.5,63.684a2.8,2.8,0,0,1-2.8-2.8V56.561a2.8,2.8,0,0,1,5.594,0v4.327a2.8,2.8,0,0,1-2.8,2.8m0-8.419a1.3,1.3,0,0,0-1.3,1.3v4.327a1.3,1.3,0,0,0,2.594,0V56.561a1.3,1.3,0,0,0-1.3-1.3" fill="#3e145e"/>
    <path id="Trazado_1835" data-name="Trazado 1835" d="M79.452,63.264a.75.75,0,0,1-.75-.75V54.936a.75.75,0,0,1,1.5,0v7.578a.75.75,0,0,1-.75.75" fill="#3e145e"/>
    <path id="Trazado_1836" data-name="Trazado 1836" d="M73.266,63.684a2.8,2.8,0,0,1-2.8-2.8V56.561a2.8,2.8,0,0,1,5.594,0v4.327a2.8,2.8,0,0,1-2.8,2.8m0-8.419a1.3,1.3,0,0,0-1.3,1.3v4.327a1.3,1.3,0,0,0,2.594,0V56.561a1.3,1.3,0,0,0-1.3-1.3" fill="#3e145e"/>
    <path id="Trazado_1837" data-name="Trazado 1837" d="M59.966,63.684a2.8,2.8,0,0,1-2.8-2.8V56.561a2.8,2.8,0,0,1,5.593,0v4.327a2.8,2.8,0,0,1-2.8,2.8m0-8.419a1.3,1.3,0,0,0-1.3,1.3v4.327a1.3,1.3,0,0,0,2.593,0V56.561a1.3,1.3,0,0,0-1.3-1.3" fill="#3e145e"/>
    <path id="Trazado_1838" data-name="Trazado 1838" d="M50.933,63.684a2.8,2.8,0,0,1-2.8-2.8V56.561a2.8,2.8,0,0,1,5.593,0v4.327a2.8,2.8,0,0,1-2.8,2.8m0-8.419a1.3,1.3,0,0,0-1.3,1.3v4.327a1.3,1.3,0,0,0,2.593,0V56.561a1.3,1.3,0,0,0-1.3-1.3" fill="#3e145e"/>
    <path id="Trazado_1839" data-name="Trazado 1839" d="M41.9,63.684a2.8,2.8,0,0,1-2.8-2.8V56.561a2.8,2.8,0,0,1,5.593,0v4.327a2.8,2.8,0,0,1-2.8,2.8m0-8.419a1.3,1.3,0,0,0-1.3,1.3v4.327a1.3,1.3,0,0,0,2.593,0V56.561a1.3,1.3,0,0,0-1.3-1.3" fill="#3e145e"/>
    <path id="Trazado_1840" data-name="Trazado 1840" d="M67.055,63.264a.75.75,0,0,1-.75-.75V54.936a.75.75,0,0,1,1.5,0v7.578a.75.75,0,0,1-.75.75" fill="#3e145e"/>
    <path id="Trazado_1841" data-name="Trazado 1841" d="M33.731,63.264a.75.75,0,0,1-.75-.75V54.936a.75.75,0,0,1,1.5,0v7.578a.75.75,0,0,1-.75.75" fill="#3e145e"/>
    <path id="Trazado_1842" data-name="Trazado 1842" d="M35.777,76.631a2.8,2.8,0,0,1-2.8-2.8V69.508a2.8,2.8,0,1,1,5.593,0v4.327a2.8,2.8,0,0,1-2.8,2.8m0-8.42a1.3,1.3,0,0,0-1.3,1.3v4.327a1.3,1.3,0,0,0,2.593,0V69.508a1.3,1.3,0,0,0-1.3-1.3" fill="#3e145e"/>
    <path id="Trazado_1843" data-name="Trazado 1843" d="M42.827,76.209a.75.75,0,0,1-.75-.75V67.882a.75.75,0,0,1,1.5,0v7.577a.75.75,0,0,1-.75.75" fill="#3e145e"/>
    <path id="Trazado_1844" data-name="Trazado 1844" d="M49.012,76.631a2.8,2.8,0,0,1-2.8-2.8V69.508a2.8,2.8,0,1,1,5.594,0v4.327a2.8,2.8,0,0,1-2.8,2.8m0-8.42a1.3,1.3,0,0,0-1.3,1.3v4.327a1.3,1.3,0,0,0,2.594,0V69.508a1.3,1.3,0,0,0-1.3-1.3" fill="#3e145e"/>
    <path id="Trazado_1845" data-name="Trazado 1845" d="M62.312,76.631a2.8,2.8,0,0,1-2.8-2.8V69.508a2.8,2.8,0,1,1,5.593,0v4.327a2.8,2.8,0,0,1-2.8,2.8m0-8.42a1.3,1.3,0,0,0-1.3,1.3v4.327a1.3,1.3,0,0,0,2.593,0V69.508a1.3,1.3,0,0,0-1.3-1.3" fill="#3e145e"/>
    <path id="Trazado_1846" data-name="Trazado 1846" d="M71.345,76.631a2.8,2.8,0,0,1-2.8-2.8V69.508a2.8,2.8,0,1,1,5.593,0v4.327a2.8,2.8,0,0,1-2.8,2.8m0-8.42a1.3,1.3,0,0,0-1.3,1.3v4.327a1.3,1.3,0,0,0,2.593,0V69.508a1.3,1.3,0,0,0-1.3-1.3" fill="#3e145e"/>
    <path id="Trazado_1847" data-name="Trazado 1847" d="M80.378,76.631a2.8,2.8,0,0,1-2.8-2.8V69.508a2.8,2.8,0,1,1,5.593,0v4.327a2.8,2.8,0,0,1-2.8,2.8m0-8.42a1.3,1.3,0,0,0-1.3,1.3v4.327a1.3,1.3,0,0,0,2.593,0V69.508a1.3,1.3,0,0,0-1.3-1.3" fill="#3e145e"/>
    <path id="Trazado_1848" data-name="Trazado 1848" d="M55.223,76.209a.75.75,0,0,1-.75-.75V67.882a.75.75,0,0,1,1.5,0v7.577a.75.75,0,0,1-.75.75" fill="#3e145e"/>
    <path id="Trazado_1849" data-name="Trazado 1849" d="M88.549,76.209a.75.75,0,0,1-.75-.75V67.882a.75.75,0,0,1,1.5,0v7.577a.751.751,0,0,1-.75.75" fill="#3e145e"/>
  </g>
</svg>
