<svg id="Grupo_313" data-name="Grupo 313" xmlns="http://www.w3.org/2000/svg" xmlns:xlink="http://www.w3.org/1999/xlink" width="122.279" height="121.595" viewBox="0 0 122.279 121.595">
  <defs>
    <clipPath id="clip-path">
      <rect id="Rect치ngulo_197" data-name="Rect치ngulo 197" width="122.279" height="121.595" fill="none"/>
    </clipPath>
  </defs>
  <g id="Grupo_312" data-name="Grupo 312" clip-path="url(#clip-path)">
    <path id="Trazado_1850" data-name="Trazado 1850" d="M117.259,60.8a58.63,58.63,0,1,1-58.63-58.63,58.63,58.63,0,0,1,58.63,58.63" fill="#fff"/>
    <path id="Trazado_1851" data-name="Trazado 1851" d="M61.481,121.6a60.8,60.8,0,1,1,60.8-60.8,60.867,60.867,0,0,1-60.8,60.8m0-117.259A56.462,56.462,0,1,0,117.943,60.8,56.526,56.526,0,0,0,61.481,4.336" fill="#3e145e"/>
    <rect id="Rect치ngulo_196" data-name="Rect치ngulo 196" width="50.032" height="66.842" transform="translate(30.119 31.412)" fill="#ffe227"/>
    <path id="Trazado_1852" data-name="Trazado 1852" d="M91.7,91.326H86.5a1.142,1.142,0,0,1-1.141-1.142V27.948H41.669a1.141,1.141,0,0,1-1.141-1.142V22.2a1.141,1.141,0,0,1,1.141-1.142H91.7A1.142,1.142,0,0,1,92.844,22.2V90.184A1.143,1.143,0,0,1,91.7,91.326m-4.063-2.284H90.56v-65.7H42.811v2.322H86.5a1.142,1.142,0,0,1,1.142,1.142Z" fill="#3e145e"/>
    <path id="Trazado_1853" data-name="Trazado 1853" d="M81.292,100.537H31.26A1.141,1.141,0,0,1,30.119,99.4V31.412A1.141,1.141,0,0,1,31.26,30.27H81.292a1.142,1.142,0,0,1,1.142,1.142V99.4a1.141,1.141,0,0,1-1.142,1.141M32.4,98.254H80.151v-65.7H32.4Z" fill="#3e145e"/>
    <path id="Trazado_1854" data-name="Trazado 1854" d="M86.5,95.932H81.292a1.142,1.142,0,0,1-1.141-1.142V32.554H36.465a1.142,1.142,0,0,1-1.142-1.142V26.806a1.142,1.142,0,0,1,1.142-1.142H86.5a1.142,1.142,0,0,1,1.142,1.142V94.79A1.142,1.142,0,0,1,86.5,95.932m-4.063-2.284h2.922v-65.7H37.607V30.27H81.292a1.142,1.142,0,0,1,1.142,1.142Z" fill="#3e145e"/>
    <path id="Trazado_1855" data-name="Trazado 1855" d="M47.795,52.727H36.925a1.14,1.14,0,0,1-1.141-1.141V40.716a1.141,1.141,0,0,1,1.141-1.142h10.87a1.142,1.142,0,0,1,1.142,1.142v10.87a1.141,1.141,0,0,1-1.142,1.141m-9.728-2.283h8.587V41.858H38.067Z" fill="#3e145e"/>
    <path id="Trazado_1856" data-name="Trazado 1856" d="M40.852,61.11h-2.3a1.142,1.142,0,0,1,0-2.284h2.3a1.142,1.142,0,1,1,0,2.284" fill="#3e145e"/>
    <path id="Trazado_1857" data-name="Trazado 1857" d="M47.795,71.981H36.925a1.142,1.142,0,0,1-1.142-1.142V67.27a1.142,1.142,0,1,1,2.283,0V69.7h8.587V63.62a1.142,1.142,0,0,1,2.284,0v7.219a1.142,1.142,0,0,1-1.142,1.142" fill="#3e145e"/>
    <path id="Trazado_1858" data-name="Trazado 1858" d="M47.795,92.339H36.925A1.141,1.141,0,0,1,35.784,91.2V80.327a1.141,1.141,0,0,1,1.141-1.142h10.87a1.142,1.142,0,0,1,1.142,1.142V91.2a1.142,1.142,0,0,1-1.142,1.142m-9.728-2.284h8.587V81.469H38.067Z" fill="#3e145e"/>
    <path id="Trazado_1859" data-name="Trazado 1859" d="M72.587,50.3H53.519a1.142,1.142,0,1,1,0-2.284H72.587a1.142,1.142,0,0,1,0,2.284" fill="#3e145e"/>
    <path id="Trazado_1860" data-name="Trazado 1860" d="M72.587,44.287H53.519a1.142,1.142,0,1,1,0-2.284H72.587a1.142,1.142,0,0,1,0,2.284" fill="#3e145e"/>
    <path id="Trazado_1861" data-name="Trazado 1861" d="M72.587,69.551H53.519a1.142,1.142,0,1,1,0-2.284H72.587a1.142,1.142,0,0,1,0,2.284" fill="#3e145e"/>
    <path id="Trazado_1862" data-name="Trazado 1862" d="M72.587,63.54H53.519a1.142,1.142,0,1,1,0-2.284H72.587a1.142,1.142,0,0,1,0,2.284" fill="#3e145e"/>
    <path id="Trazado_1863" data-name="Trazado 1863" d="M72.587,88.8H53.519a1.142,1.142,0,1,1,0-2.284H72.587a1.142,1.142,0,0,1,0,2.284" fill="#3e145e"/>
    <path id="Trazado_1864" data-name="Trazado 1864" d="M72.587,82.793H53.519a1.142,1.142,0,1,1,0-2.284H72.587a1.142,1.142,0,0,1,0,2.284" fill="#3e145e"/>
    <path id="Trazado_1865" data-name="Trazado 1865" d="M40.738,67.1a1.143,1.143,0,0,1-.69-.232L34.589,62.72A1.142,1.142,0,1,1,35.97,60.9l4.548,3.455,5.6-7.381a1.142,1.142,0,1,1,1.819,1.38l-6.287,8.291a1.135,1.135,0,0,1-.754.441,1,1,0,0,1-.155.011" fill="#3e145e"/>
  </g>
</svg>
