<svg id="Grupo_323" data-name="Grupo 323" xmlns="http://www.w3.org/2000/svg" xmlns:xlink="http://www.w3.org/1999/xlink" width="122.279" height="121.595" viewBox="0 0 122.279 121.595">
  <defs>
    <clipPath id="clip-path">
      <rect id="Rectángulo_203" data-name="Rectángulo 203" width="122.279" height="121.595" fill="none"/>
    </clipPath>
  </defs>
  <g id="Grupo_322" data-name="Grupo 322" clip-path="url(#clip-path)">
    <path id="Trazado_1956" data-name="Trazado 1956" d="M117.259,60.8a58.63,58.63,0,1,1-58.63-58.63,58.63,58.63,0,0,1,58.63,58.63" fill="#fff"/>
    <path id="Trazado_1957" data-name="Trazado 1957" d="M61.481,121.6a60.8,60.8,0,1,1,60.8-60.8,60.867,60.867,0,0,1-60.8,60.8m0-117.259A56.462,56.462,0,1,0,117.943,60.8,56.525,56.525,0,0,0,61.481,4.336" fill="#3e145e"/>
    <path id="Trazado_1958" data-name="Trazado 1958" d="M62.26,34.946,87.68,51.4S94.36,77.47,62.748,95.825c0,0-26.524-14.458-26.4-45.823Z" fill="#ffe227"/>
    <path id="Trazado_1959" data-name="Trazado 1959" d="M97.206,47.5H81.672a.972.972,0,1,1,0-1.945H97.206a.972.972,0,1,1,0,1.945" fill="#3e145e"/>
    <path id="Trazado_1960" data-name="Trazado 1960" d="M44.188,47.5H25.944a.972.972,0,1,1,0-1.945H44.188a.972.972,0,1,1,0,1.945" fill="#3e145e"/>
    <path id="Trazado_1961" data-name="Trazado 1961" d="M34.511,42.141a1.725,1.725,0,1,0-1.725,1.725,1.725,1.725,0,0,0,1.725-1.725" fill="#3e145e"/>
    <path id="Trazado_1962" data-name="Trazado 1962" d="M39.35,42.141a1.725,1.725,0,1,0-1.726,1.725,1.725,1.725,0,0,0,1.726-1.725" fill="#3e145e"/>
    <path id="Trazado_1963" data-name="Trazado 1963" d="M44.188,42.141a1.725,1.725,0,1,0-1.725,1.725,1.725,1.725,0,0,0,1.725-1.725" fill="#3e145e"/>
    <path id="Trazado_1964" data-name="Trazado 1964" d="M62.752,90.109A.963.963,0,0,1,62.308,90C56.426,86.981,42.6,77.411,41.184,53.839a.973.973,0,0,1,.483-.9L62.261,40.973a.968.968,0,0,1,.976,0l20.6,11.966a.97.97,0,0,1,.482.9C82.9,77.42,69.075,86.984,63.2,90a.969.969,0,0,1-.444.107M43.164,54.318C44.669,75.883,57,84.956,62.752,88.038,68.5,84.959,80.829,75.891,82.334,54.319L62.749,42.94Z" fill="#3e145e"/>
    <path id="Trazado_1965" data-name="Trazado 1965" d="M62.749,95.825a.974.974,0,0,1-.333-.059c-.261-.1-26.115-9.9-26.553-44.911A.972.972,0,0,1,36.347,50L62.26,34.946a.97.97,0,0,1,.977,0L89.151,50a.969.969,0,0,1,.483.854C89.2,85.866,63.342,95.671,63.081,95.766a.977.977,0,0,1-.332.059M37.818,51.4C38.461,82.428,59.805,92.554,62.749,93.8,65.692,92.554,87.038,82.428,87.68,51.4L62.749,36.912Z" fill="#3e145e"/>
    <path id="Trazado_1966" data-name="Trazado 1966" d="M52.669,89.422H30.852a5.887,5.887,0,0,1-5.881-5.881V42.665a5.887,5.887,0,0,1,5.881-5.881H59.361a.972.972,0,0,1,.488,1.813L37.818,51.4c.4,19.2,8.621,30.339,15.49,36.317a.973.973,0,0,1-.639,1.707M30.852,38.729a3.941,3.941,0,0,0-3.936,3.936V83.541a3.941,3.941,0,0,0,3.936,3.935H50.181C43.4,80.847,36.094,69.42,35.863,50.856A.97.97,0,0,1,36.347,50l19.4-11.273Z" fill="#3e145e"/>
    <path id="Trazado_1967" data-name="Trazado 1967" d="M92.3,89.422H72.828a.973.973,0,0,1-.638-1.707C79.058,81.738,87.284,70.6,87.68,51.4L65.649,38.6a.972.972,0,0,1,.488-1.813H92.3a5.886,5.886,0,0,1,5.881,5.88V83.54A5.887,5.887,0,0,1,92.3,89.422m-16.98-1.946H92.3a3.941,3.941,0,0,0,3.936-3.936V42.664A3.941,3.941,0,0,0,92.3,38.729H69.748L89.151,50a.969.969,0,0,1,.483.854C89.4,69.42,82.1,80.847,75.317,87.476" fill="#3e145e"/>
    <path id="Trazado_1968" data-name="Trazado 1968" d="M62.752,90.109a.973.973,0,0,1-.973-.973V57.963a.973.973,0,0,1,1.946,0V89.136a.973.973,0,0,1-.973.973" fill="#3e145e"/>
  </g>
</svg>
