<svg xmlns="http://www.w3.org/2000/svg" xmlns:xlink="http://www.w3.org/1999/xlink" viewBox="0 0 516.62 469.99"><defs><style>.cls-1{fill:none;}.cls-2{fill:#f5f5f5;}.cls-3{fill:#e1e1e1;}.cls-4{fill:#ececec;}.cls-5{fill:#fff;}.cls-6{fill:#ff4f5b;}.cls-7{opacity:0.4;}.cls-8{fill:#c78976;}.cls-9{fill:#bf654e;}.cls-10{fill:#1a2e35;}.cls-11{fill:#375a64;}.cls-12{fill:#fafafa;}.cls-13{opacity:0.2;}.cls-14{clip-path:url(#clip-path);}.cls-15{opacity:0.3;}.cls-16{fill:#ffbf9d;}.cls-17{fill:#ff9a6c;}</style><clipPath id="clip-path"><rect class="cls-1" x="29.97" y="9.38" width="245.1" height="193.35"/></clipPath></defs><g id="Capa_2" data-name="Capa 2"><g id="Capa_1-2" data-name="Capa 1"><path class="cls-2" d="M513.42,44.56s-6.22-3.8-13.1,11-9.39,23.28-9.39,23.28-1.85,3.12-4,1.2-5.23-7.46-8.75-6.31-4.71,5.34-3.79,11.37,2.45,19.28,2.59,20.48-.49,2.94-2.17,1.88-11.51-11.25-16.06-6.3.77,21.3,1.32,23.1.22,2.59-.62,3.07-3.83-3.25-6.74-6-6.78-5.49-9.17-2.41-2.73,15.5,9.79,35.21l6.4,8.75,10.85-1c23.08-3.55,32.2-12,32.95-15.81s-3.84-4.94-7.85-5.31-8.79-.15-9-1.1.18-1.72,1.9-2.49,17.52-7.53,18.26-14.21-13.4-7.39-15.31-8-1-2.19,0-2.86,12-8.27,17.13-11.54,7.57-6.8,6.06-10.33-7.65-2.07-10.51-2.44S502.46,84,502.46,84s4.74-7.46,11.35-22.38-.52-17.13-.52-17.13"/><path class="cls-3" d="M507.23,57.8a2.77,2.77,0,0,1-.12.32c-.09.23-.22.53-.39.93-.36.82-.87,2-1.53,3.54-1.34,3.07-3.31,7.51-5.76,13-4.89,10.94-11.78,26-19.45,42.59s-14.6,31.65-19.56,42.56c-2.47,5.44-4.46,9.86-5.85,12.92l-1.6,3.52-.42.91c-.1.2-.16.3-.16.3a2.77,2.77,0,0,1,.12-.32c.09-.22.22-.53.39-.92l1.53-3.54c1.34-3.08,3.31-7.51,5.76-13,4.89-10.94,11.79-26,19.45-42.6s14.6-31.64,19.56-42.55l5.86-12.93L506.65,59c.18-.39.32-.69.43-.91A2.85,2.85,0,0,1,507.23,57.8Z"/><path class="cls-3" d="M482.15,81.66a3.68,3.68,0,0,1,.31.72c.17.47.41,1.16.68,2,.56,1.71,1.27,4.1,2,6.75s1.34,5,1.83,6.79c.22.81.41,1.49.57,2a3,3,0,0,1,.17.77,3.68,3.68,0,0,1-.31-.72c-.17-.48-.41-1.17-.68-2-.54-1.72-1.21-4.11-1.94-6.76s-1.38-5-1.88-6.78c-.23-.8-.42-1.49-.58-2A3.74,3.74,0,0,1,482.15,81.66Z"/><path class="cls-3" d="M488.72,100.91c0-.09,4.82-1.77,10.84-3.74s10.93-3.48,11-3.39-4.82,1.77-10.84,3.74S488.75,101,488.72,100.91Z"/><path class="cls-3" d="M475.79,125.88a3.65,3.65,0,0,1,.8-.07l2.17-.08c1.84-.06,4.37-.16,7.17-.37s5.31-.47,7.14-.68l2.16-.25a3,3,0,0,1,.8,0,3.86,3.86,0,0,1-.78.19c-.51.09-1.24.22-2.15.36-1.82.27-4.34.58-7.15.79s-5.34.26-7.18.26c-.92,0-1.67,0-2.18,0A3,3,0,0,1,475.79,125.88Z"/><path class="cls-3" d="M466,109.77s.18.19.45.59.65,1,1.11,1.67c.93,1.42,2.19,3.4,3.56,5.6s2.6,4.2,3.47,5.66c.44.73.78,1.32,1,1.74a3.15,3.15,0,0,1,.33.66s-.19-.19-.46-.59-.65-1-1.11-1.67c-.93-1.42-2.19-3.4-3.56-5.6s-2.6-4.2-3.47-5.66c-.43-.73-.78-1.32-1-1.74A2.61,2.61,0,0,1,466,109.77Z"/><path class="cls-3" d="M451.81,130.36a5.12,5.12,0,0,1,.56.76l1.44,2.14c1.2,1.82,2.83,4.34,4.62,7.14s3.38,5.35,4.52,7.21l1.34,2.2a4.69,4.69,0,0,1,.45.84,5.54,5.54,0,0,1-.57-.76c-.38-.57-.86-1.29-1.44-2.14-1.19-1.82-2.83-4.35-4.61-7.15s-3.39-5.35-4.53-7.2l-1.34-2.21A3.67,3.67,0,0,1,451.81,130.36Z"/><path class="cls-3" d="M464.57,150.07a6.06,6.06,0,0,1,1-.11l2.76-.19c2.32-.17,5.53-.41,9.07-.77s6.73-.76,9-1.07l2.74-.36a6.26,6.26,0,0,1,1-.09,4.68,4.68,0,0,1-1,.23c-.64.13-1.57.29-2.72.48-2.3.37-5.5.82-9,1.18s-6.77.56-9.1.65c-1.16,0-2.11.08-2.76.08A4.43,4.43,0,0,1,464.57,150.07Z"/><path class="cls-4" d="M70.17,117.88c17.37-11.59,21.6-33.52,21.23-53.29-.06-3.3.36-6.78-1.18-9.69S85,49.94,82,51.29c-2.5,1.11-3.63,4-5,6.28a19.47,19.47,0,0,1-8,7.28c-2.14,1.06-4.79,1.68-6.87.51C59.24,63.74,59,59.81,59,56.53q.21-9.18.4-18.35c.08-3.28.14-6.63-.85-9.76s-3.22-6.05-6.37-7-7.09.83-7.81,4a30.73,30.73,0,0,0-.16,4.08c-.11,1.36-.78,2.86-2.09,3.22s-2.65-.59-3.63-1.56c-3.38-3.37-5.64-7.67-7.75-11.95S26.61,10.61,23.56,7,16.24.36,11.48,0,1.6,2.52.33,7.11s1.38,9.34,4.3,13.13A74,74,0,0,0,19.85,35a6.1,6.1,0,0,1,2.55,2.78c.68,2.2-1.45,4.34-3.65,5-2.49.78-5.18.49-7.77.75s-5.43,1.35-6.44,3.75c-1.42,3.34,1.37,6.89,4.13,9.24a64,64,0,0,0,18.65,11c2.43.92,5,1.73,6.94,3.46s3.09,4.69,1.86,7-4.3,3-6.85,2.48S24.44,78.56,22,77.61c-4.55-1.77-10.45-1.54-13.44,2.31-2,2.53-2.19,6.1-1.26,9.16a23.78,23.78,0,0,0,4.91,8.19,63.92,63.92,0,0,0,27,19.34c10.55,3.78,20.35,4.91,30.94,1.27"/><path class="cls-3" d="M68.81,118.26c-2.8-10-10.44-33.58-15-44.66L50.4,65.41c-1.12-2.69-2.23-5.35-3.48-7.89a150.46,150.46,0,0,0-8-14.18C36.1,39,33.3,34.89,30.65,31.1S25.46,23.85,23,20.78A117.92,117.92,0,0,0,10.36,7.15C8.74,5.66,7.45,4.54,6.57,3.8L5.56,3c-.23-.19-.36-.28-.36-.28L5.52,3l1,.88c.86.77,2.13,1.91,3.72,3.42A122.84,122.84,0,0,1,22.73,21c2.43,3.07,4.95,6.55,7.58,10.34s5.42,7.86,8.18,12.25a149.83,149.83,0,0,1,8,14.14c1.24,2.53,2.35,5.18,3.47,7.87s2.25,5.43,3.4,8.19c4.55,11.07,12.21,34.61,15,44.59"/><path class="cls-3" d="M46.79,57.47a7.08,7.08,0,0,0,.33-1.4c.18-.9.4-2.22.66-3.85.51-3.26,1.06-7.79,1.67-12.78s1.23-9.5,1.81-12.74c.29-1.63.53-2.94.72-3.84a8.23,8.23,0,0,0,.23-1.42,8,8,0,0,0-.42,1.38c-.24.89-.54,2.19-.87,3.81-.67,3.24-1.36,7.75-2,12.75s-1.12,9.43-1.52,12.79c-.2,1.57-.37,2.87-.5,3.87A8.84,8.84,0,0,0,46.79,57.47Z"/><path class="cls-3" d="M4.17,49a1.59,1.59,0,0,0,.44.08l1.26.12c1.1.11,2.69.26,4.64.51,3.91.46,9.29,1.3,15.18,2.49s11.17,2.51,15,3.57c1.9.52,3.42,1,4.48,1.3l1.22.36c.28.08.43.11.43.09s-.13-.08-.4-.19l-1.19-.44c-1-.37-2.55-.89-4.45-1.45-3.77-1.16-9.06-2.53-15-3.73s-11.31-2-15.24-2.35c-2-.2-3.56-.3-4.66-.35l-1.27,0A1.59,1.59,0,0,0,4.17,49Z"/><path class="cls-3" d="M64.68,104.63a2.32,2.32,0,0,0,.29-.52c.2-.39.44-.9.75-1.52.64-1.32,1.52-3.25,2.59-5.66,2.12-4.8,4.86-11.53,7.78-19s5.61-14.2,7.65-19l2.44-5.72.66-1.55a2.13,2.13,0,0,0,.2-.56,3.3,3.3,0,0,0-.29.52L86,53.1c-.64,1.33-1.52,3.26-2.58,5.66-2.13,4.81-4.87,11.54-7.79,19S70,92,68,96.79l-2.44,5.72-.66,1.56A3.86,3.86,0,0,0,64.68,104.63Z"/><path class="cls-3" d="M8.16,85.71a2.42,2.42,0,0,0,.57.23l1.64.56,6.06,2c5.11,1.71,12.15,4.16,19.91,6.88s14.82,5.13,20,6.75c2.57.82,4.66,1.46,6.11,1.87l1.67.48a3.61,3.61,0,0,0,.59.13,2.2,2.2,0,0,0-.56-.23l-1.65-.56-6-2c-5.12-1.71-12.15-4.16-19.92-6.88s-14.82-5.13-20-6.76c-2.57-.81-4.66-1.45-6.11-1.86l-1.67-.48A3.57,3.57,0,0,0,8.16,85.71Z"/><path class="cls-5" d="M356,3.2h93.84L431.46,16.25v10.9A20.3,20.3,0,0,1,411,47.3H352.12a20.3,20.3,0,0,1-20.45-20.15h0A24.13,24.13,0,0,1,356,3.2Z"/><path class="cls-3" d="M415.63,17.77c0,.1-15.67.19-35,.19s-35-.09-35-.19,15.67-.2,35-.2S415.63,17.66,415.63,17.77Z"/><path class="cls-3" d="M415.63,25c0,.11-15.67.19-35,.19s-35-.08-35-.19,15.67-.2,35-.2S415.63,24.91,415.63,25Z"/><path class="cls-5" d="M213.61,226.54h-111l18.09,13.06v25.68a5.36,5.36,0,0,0,5.36,5.36h87.6a5.36,5.36,0,0,0,5.36-5.36V231.91A5.36,5.36,0,0,0,213.61,226.54Z"/><path class="cls-3" d="M209,244.69c0,.11-16.75.2-37.41.2s-37.4-.09-37.4-.2,16.74-.19,37.4-.19S209,244.59,209,244.69Z"/><path class="cls-3" d="M209,254.55c0,.11-16.75.2-37.41.2s-37.4-.09-37.4-.2,16.74-.19,37.4-.19S209,254.45,209,254.55Z"/><rect class="cls-6" x="281.49" y="99.99" width="187.7" height="163.52" rx="38.79"/><g class="cls-7"><rect x="281.49" y="99.99" width="187.7" height="163.52" rx="38.79"/></g><polygon class="cls-6" points="469.15 157 497.26 157 468.51 185.74 469.15 157"/><g class="cls-7"><polygon points="469.15 157 497.26 157 468.51 185.74 469.15 157"/></g><path class="cls-8" d="M277,174.67,265.22,161.3c-3.19-3.18-4.28-4.72-3.64-5.28.84-.74.48-.5,7.1,4.47,0,0-9.38-7.17-6.13-7.21.57,0,2.17.92,3.87,2-2.32-2-3-3.31-2.52-3.94.76-1.1,6.49,2.88,9.14,4.8-2.17-1.61-6.28-4.74-7-5.72-1-1.33,1-1.23,2.66-.67,1.84.63,12,5.82,15,7.16a2,2,0,0,0,2.8-.95c1.1-4.65,4.45-7.69,5.75-8.08s2.26,1.25,1.35,2.43a17.8,17.8,0,0,0-2,4.42,11.5,11.5,0,0,0-.6,3.81c0,1.51.1,2.78.2,3.86L302,177.22l-18,10.44Z"/><path class="cls-9" d="M272.77,162.54c-.12.17-2.22-1.27-4.68-3.21s-4.34-3.65-4.21-3.81,2.23,1.28,4.68,3.22S272.89,162.37,272.77,162.54Z"/><path class="cls-9" d="M275.06,160.19c-.11.17-2.43-1.24-5.17-3.14s-4.86-3.6-4.74-3.77,2.43,1.24,5.17,3.15S275.18,160,275.06,160.19Z"/><path class="cls-9" d="M276.73,157.69c-.12.17-2.33-1.12-5-2.89s-4.64-3.35-4.52-3.52,2.33,1.12,4.95,2.89S276.85,157.52,276.73,157.69Z"/><path class="cls-8" d="M292.22,164.47l42.93,54.45-9.83,22.89s-11.77-2.61-15.34-7.57-33-59.57-33-59.57Z"/><path class="cls-10" d="M401.21,88.29c3.09,2.68,3.08,7.4,2.72,11.47s-.63,8.71,2.19,11.67c2.33,2.44,6.55,3.51,7.09,6.83a3.83,3.83,0,0,1-6.33,3.48c.91,2.62.28,5.91-2,7.5s-6.09.61-6.8-2.07a3.37,3.37,0,1,1-6.62,1.2"/><path class="cls-10" d="M357,115.77a4.06,4.06,0,1,1-7.48-3.13c.7-1.55,2.38-2.67,2.54-4.36.19-2.06-1.9-3.52-3.76-4.41s-4-2.06-4.23-4.11,1.58-3.52,3.06-4.85,2.95-3.37,2-5.14c-.46-.9-1.44-1.42-2.07-2.23-1.39-1.77-.66-4.59,1.11-6a8.16,8.16,0,0,1,6.46-1.18,62.26,62.26,0,0,1,6.46,2,27,27,0,0,0,21.47-2.81"/><path class="cls-8" d="M370.15,163.77a14.94,14.94,0,0,0,17.57-11.46l10.55-48.43a21.49,21.49,0,0,0-16.57-26l-1.1-.16A21.65,21.65,0,0,0,356.37,94.3c-2.35,10.22-4.81,21.55-5.56,27.11-1.54,11.51,9.69,15,9.69,15l-2,9.69a14.94,14.94,0,0,0,11.66,17.69Z"/><path class="cls-10" d="M358.44,101.89a1.66,1.66,0,0,0,1.34,1.89,1.59,1.59,0,0,0,1.91-1.23,1.65,1.65,0,0,0-1.34-1.89A1.59,1.59,0,0,0,358.44,101.89Z"/><path class="cls-10" d="M358,100.29c.17.24,1.55-.5,3.31-.23s2.93,1.33,3.16,1.14-.05-.49-.55-1A4.54,4.54,0,0,0,361.45,99a4.28,4.28,0,0,0-2.67.45C358.17,99.82,357.93,100.18,358,100.29Z"/><path class="cls-10" d="M375.7,104.76a1.65,1.65,0,0,0,1.34,1.88,1.59,1.59,0,0,0,1.91-1.23,1.66,1.66,0,0,0-1.34-1.89A1.59,1.59,0,0,0,375.7,104.76Z"/><path class="cls-10" d="M375.33,103.16c.17.24,1.55-.5,3.31-.23s2.93,1.33,3.15,1.14,0-.49-.54-1a4.61,4.61,0,0,0-2.49-1.18,4.33,4.33,0,0,0-2.68.45C375.48,102.69,375.24,103.05,375.33,103.16Z"/><path class="cls-10" d="M367,115.31a12.27,12.27,0,0,0-2.79-.93c-.45-.12-.86-.27-.89-.59a2.27,2.27,0,0,1,.5-1.29l1.83-3.24c2.57-4.61,4.5-8.44,4.31-8.54s-2.42,3.56-5,8.18l-1.78,3.26a2.69,2.69,0,0,0-.49,1.74,1.17,1.17,0,0,0,.64.77,2.86,2.86,0,0,0,.75.21A11.54,11.54,0,0,0,367,115.31Z"/><path class="cls-10" d="M375.88,96.17c.11.51,1.9.54,3.94,1.09s3.63,1.36,4,1c.16-.18-.07-.68-.68-1.24a7.08,7.08,0,0,0-6-1.57C376.28,95.61,375.84,95.93,375.88,96.17Z"/><path class="cls-10" d="M359.42,95.27c.25.45,1.52.21,3,.4s2.66.67,3,.29c.15-.18,0-.61-.47-1.07a4.17,4.17,0,0,0-2.33-1,4.21,4.21,0,0,0-2.51.46C359.54,94.67,359.31,95.06,359.42,95.27Z"/><path class="cls-10" d="M387.64,89.45l.06.06a9.12,9.12,0,0,1,2.5,6.34v.24c0,3.34-.6,6.66-.6,10s.65,6.84,2.74,9.45c.86,1.08,2.53,2,3.51,1a2.8,2.8,0,0,0,.62-1.44c1.78-7.82,5-14.52,6.16-22.8a7,7,0,0,0-2.06-6.1c-1.55-1.5-3.48-3.1-5.54-2.47s-5.08,3.87-6.79,5.18"/><path class="cls-8" d="M393.64,108.51c.21-.05,8.24-1.18,6.84,6.64s-9,4.8-8.94,4.57S393.64,108.51,393.64,108.51Z"/><path class="cls-9" d="M394.46,117.19s.12.12.33.27a1.4,1.4,0,0,0,1,.2c.88-.16,1.81-1.34,2.11-2.74a4.71,4.71,0,0,0,0-2,1.58,1.58,0,0,0-.83-1.23.69.69,0,0,0-.87.23c-.15.2-.13.36-.17.37s-.15-.16,0-.48a.91.91,0,0,1,.39-.43,1,1,0,0,1,.79-.06,2,2,0,0,1,1.21,1.46,4.79,4.79,0,0,1,.08,2.27c-.34,1.56-1.41,2.89-2.59,3a1.51,1.51,0,0,1-1.21-.43C394.44,117.38,394.43,117.2,394.46,117.19Z"/><path class="cls-10" d="M395.12,85c2.39-2.86-2.24-8.15-5.94-9.94s-9.08-.65-13.13.07c-2.55.45-5.14,1.22-7.69.74a17.32,17.32,0,0,1-4.79-2,13,13,0,0,0-4.88-1.73,4.79,4.79,0,0,0-4.52,2c-.89,1.49-.27,3.81,1.4,4.3a3.9,3.9,0,1,0-2.08,7c-1-1-2.91.13-3,1.55s1.05,2.61,2.25,3.37c3.07,1.91,7,2,10.51,1.37s7-2,10.51-2.7,9.49-2.1,12.69-.42c2.36,1.24,3.65,4.49,5.15,4a4.84,4.84,0,0,0,3-3.17,13.81,13.81,0,0,0,.5-4.49"/><path class="cls-11" d="M410.43,121.29a1.12,1.12,0,0,0,.41-.18,2.29,2.29,0,0,0,.85-1,3.42,3.42,0,0,0,.26-2,4.11,4.11,0,0,0-1.41-2.29,9.92,9.92,0,0,0-2.82-1.64,18.77,18.77,0,0,1-3.29-1.6,6.63,6.63,0,0,1-2.4-3.1,11,11,0,0,1-.69-4.23c.08-3,.91-5.77,1.11-8.4a10.81,10.81,0,0,0-1.25-6.79,6.35,6.35,0,0,0-3.72-2.8,4.23,4.23,0,0,0-1.27-.12,2.17,2.17,0,0,0-.44.06,7.59,7.59,0,0,1,1.67.21,6.34,6.34,0,0,1,3.52,2.8,10.66,10.66,0,0,1,1.13,6.61c-.22,2.58-1.06,5.36-1.15,8.42a11.25,11.25,0,0,0,.73,4.38,7,7,0,0,0,2.55,3.27,18.61,18.61,0,0,0,3.38,1.59,10.13,10.13,0,0,1,2.76,1.55,3.87,3.87,0,0,1,1.37,2.13,3.26,3.26,0,0,1-.18,1.91A2.48,2.48,0,0,1,410.43,121.29Z"/><path class="cls-11" d="M355.31,78.28a1.54,1.54,0,0,0-.34-.18,2,2,0,0,0-.43-.17,4.11,4.11,0,0,0-.63-.16A4.71,4.71,0,0,0,350,79h0a6.32,6.32,0,0,0-1.41,4.66A7.79,7.79,0,0,0,351.43,89a12,12,0,0,0,6.5,2.62,26.45,26.45,0,0,0,7.73-.48,35.06,35.06,0,0,0,11.39-4.4,35.3,35.3,0,0,1,4.7-2.44,12.43,12.43,0,0,1,4.47-.91,13.34,13.34,0,0,1,6.41,1.51c1.4.75,2.05,1.35,2.08,1.31a9.12,9.12,0,0,0-2-1.44,13,13,0,0,0-6.5-1.66,12.75,12.75,0,0,0-4.58.88,33.57,33.57,0,0,0-4.76,2.44,35.12,35.12,0,0,1-11.29,4.32,26.37,26.37,0,0,1-7.61.48,11.66,11.66,0,0,1-6.32-2.5,7.48,7.48,0,0,1-2.8-5.06,6.08,6.08,0,0,1,1.28-4.49h0a4.66,4.66,0,0,1,3.77-1.25A8.41,8.41,0,0,1,355.31,78.28Z"/><path class="cls-11" d="M359.67,71.77a4.52,4.52,0,0,0,.28,1.76A7.33,7.33,0,0,0,363,77.24a9.27,9.27,0,0,0,3.12,1.29,12.89,12.89,0,0,0,3.86.2,51.77,51.77,0,0,0,8.6-1.91c3-.78,6-1.19,8.58-.49A11.24,11.24,0,0,1,393,80.11a11.74,11.74,0,0,1,2.23,4.2c.3,1.1.34,1.74.39,1.73a3.17,3.17,0,0,0,0-.46,10.64,10.64,0,0,0-.22-1.31,11.3,11.3,0,0,0-2.16-4.33,11.44,11.44,0,0,0-6-4c-2.68-.73-5.77-.32-8.78.46A53.11,53.11,0,0,1,370,78.37a13,13,0,0,1-3.77-.16,9.16,9.16,0,0,1-3-1.21,7.46,7.46,0,0,1-3.09-3.52A10.67,10.67,0,0,1,359.67,71.77Z"/><path class="cls-9" d="M363.47,121.17a8.2,8.2,0,0,0,.61,2.23,2.75,2.75,0,0,0,1.67,1.5,2.48,2.48,0,0,0,2.26-.68,4,4,0,0,0,1.05-2.19c.12-.74,0-1.68-.74-1.91a1.8,1.8,0,0,0-.92,0l-4.12.74"/><path class="cls-10" d="M364.2,124.29a5.58,5.58,0,0,0,2.05.39,2.9,2.9,0,0,0,1.92-.88,3.08,3.08,0,0,0,.82-2.4,2.87,2.87,0,0,0-.14-.66c-.1-.2-.07-.18-.24-.21s-.44,0-.67,0l-.68.06-2.38.15a7.44,7.44,0,0,1-2.21,0,6.92,6.92,0,0,1,2.16-.45c.67-.1,1.47-.2,2.37-.3l.68-.08c.24,0,.44-.06.76-.06a1,1,0,0,1,.55.19,1.07,1.07,0,0,1,.3.46,3,3,0,0,1,.19.83,3.59,3.59,0,0,1-1.06,2.92,3.25,3.25,0,0,1-2.36.92,3.13,3.13,0,0,1-1.62-.45C364.3,124.51,364.17,124.33,364.2,124.29Z"/><path class="cls-9" d="M360.5,136.39s7.51,2.84,14.81.78c0,0-5.51,4.61-15.56,2.84Z"/><path class="cls-12" d="M372,243.1a8.54,8.54,0,0,1-1-.78c-.32-.27-.71-.58-1.2-.92s-1-.77-1.63-1.16-1.29-.86-2.06-1.28-1.57-.87-2.44-1.32A38.52,38.52,0,0,0,351.44,234c-1-.1-1.9-.22-2.77-.25s-1.68-.06-2.43,0-1.41,0-2,.07-1.09.07-1.5.11a6.9,6.9,0,0,1-1.29.09,8.84,8.84,0,0,1,1.27-.24,15,15,0,0,1,1.51-.18c.59,0,1.26-.13,2-.13s1.56,0,2.44,0,1.82.12,2.8.21a39.85,39.85,0,0,1,6.29,1.3,39.29,39.29,0,0,1,6,2.37c.88.46,1.72.89,2.46,1.36s1.43.91,2,1.33,1.15.85,1.62,1.21.85.7,1.16,1A8.55,8.55,0,0,1,372,243.1Z"/><path class="cls-6" d="M328.2,204.88l6.11-26.45c2.34-10,5.1-19.5,9.75-20.64v3.08l-2,75.56s-12.44,14.17-28.31,6.29c-4.95-2.46-14-19.76-14-19.76s-21-37.55-20.14-39.26,13.73-18.27,15.05-19.09Z"/><path class="cls-6" d="M391,150.34c12.13,2.32,25.8,9.4,32.08,27.53,2.3,6.62,19,55.45,19,55.45l-28.49-.59L409,222.66,411.23,239l1.93,23.31-71.93,1.2.5-35.09.69-69.82s.81-1.06,13.21-7.9C363.34,146.43,391,150.34,391,150.34Z"/><g class="cls-13"><path d="M398.19,197c1.18,14.74,2.54,19.29,3.72,34a13,13,0,0,0,.78,4.1,4.39,4.39,0,0,0,3,2.71c2.1.43,4.82,1.94,5.41-.11l-2-14.2a27.53,27.53,0,0,0-2-6c-4.41-9.8-6.05-10.37-8.93-20.54"/></g><path class="cls-6" d="M355.63,158.24l.24-1.53,2.3-14.71a1.7,1.7,0,0,1,1.83-1.44l28.33,2.36a3.26,3.26,0,0,1,3,3.49l-.63,8.54-8.84,11.54-12.74,2"/><path class="cls-10" d="M341.41,185.89c.11,0,.2,11.53.2,25.73s-.09,25.74-.2,25.74-.19-11.52-.19-25.74S341.31,185.89,341.41,185.89Z"/><path class="cls-10" d="M414.21,235.08s0-.05-.09-.16l-.24-.51-.86-2c-.75-1.73-1.81-4.19-3.11-7.22-2.6-6.15-6.17-14.59-10.12-23.91l-5.53-13.17a25.14,25.14,0,0,1-1.83-6,33.55,33.55,0,0,1-.49-5.43,22.38,22.38,0,0,1,1.13-7.78c.09-.21.16-.42.24-.61s.18-.36.26-.52A4,4,0,0,1,394,167l.32-.46q.1-.16.12-.15a13.69,13.69,0,0,0-1.23,2.58,22.58,22.58,0,0,0-1,7.73A28.22,28.22,0,0,0,394.59,188l5.56,13.16,10,24,3,7.28c.33.84.6,1.5.79,2l.2.52Z"/><path class="cls-12" d="M399.84,152.9a7.44,7.44,0,0,1-.83.72,12.31,12.31,0,0,1-2.71,1.58,20.44,20.44,0,0,1-4.78,1.35,60.34,60.34,0,0,1-6.55.64c-2.44.11-5.11.06-8,.12a36.86,36.86,0,0,0-9,1.09,16.66,16.66,0,0,0-8.47,5,11.45,11.45,0,0,0-2.35,4.65,9.91,9.91,0,0,0,.08,5.32,8.73,8.73,0,0,0,1.25,2.38,6.16,6.16,0,0,0,2,1.69A4.29,4.29,0,0,0,363,178a3.38,3.38,0,0,0,2.18-1.12,5.87,5.87,0,0,0,1.1-4.71,8,8,0,0,0-.71-2.33,11.65,11.65,0,0,0-1.32-2,14,14,0,0,0-7.63-4.52,16.17,16.17,0,0,0-7.81.08,21.62,21.62,0,0,0-6,2.56,27.86,27.86,0,0,0-4,2.95c-1,.89-1.74,1.66-2.25,2.17l-.55.6a1.55,1.55,0,0,1-.2.19,25.31,25.31,0,0,1,2.9-3.08,27.22,27.22,0,0,1,4-3,21.25,21.25,0,0,1,6-2.64,16.45,16.45,0,0,1,7.95-.14,14.33,14.33,0,0,1,7.83,4.61,11.23,11.23,0,0,1,1.38,2.06,8.44,8.44,0,0,1,.75,2.44,7.84,7.84,0,0,1-.05,2.6,5,5,0,0,1-1.14,2.41,3.76,3.76,0,0,1-2.42,1.25,4.74,4.74,0,0,1-2.71-.56,6.62,6.62,0,0,1-2.14-1.8,9,9,0,0,1-1.31-2.5,10.33,10.33,0,0,1-.09-5.54,11.85,11.85,0,0,1,2.44-4.79,16.93,16.93,0,0,1,8.66-5.1A36.84,36.84,0,0,1,377,157c2.86-.05,5.53,0,8-.07a60.36,60.36,0,0,0,6.52-.59,20.53,20.53,0,0,0,4.76-1.27,13.49,13.49,0,0,0,2.73-1.5c.3-.2.5-.39.65-.49A2.08,2.08,0,0,1,399.84,152.9Z"/><path class="cls-12" d="M424.46,183.88s-.11,0-.32.06-.52.05-.92.06a27.53,27.53,0,0,1-3.37-.08c-1.42-.1-3.1-.32-5-.58s-3.91-.53-6.06-.65a23.35,23.35,0,0,0-6,.46,15.23,15.23,0,0,0-4.59,1.74,13.51,13.51,0,0,0-3.4,3,1,1,0,0,1,.16-.27,6.08,6.08,0,0,1,.54-.75,10.24,10.24,0,0,1,2.55-2.22,15.06,15.06,0,0,1,4.66-1.86,23.21,23.21,0,0,1,6.13-.5c2.18.12,4.23.42,6.09.69s3.52.52,4.93.66,2.56.19,3.35.2A10.28,10.28,0,0,1,424.46,183.88Z"/><path class="cls-12" d="M406.57,217.25a15.75,15.75,0,0,0-4.28-.36,23.34,23.34,0,0,0-5,.89c-1.9.51-4,1.26-6.4,2a26.41,26.41,0,0,1-8,1.39,23.06,23.06,0,0,1-9.14-1.9,22.61,22.61,0,0,1-8.34-6.06,17.08,17.08,0,0,1-2.95-4.63,10.52,10.52,0,0,1-.85-5.59,8.06,8.06,0,0,1,2.64-5,5.89,5.89,0,0,1,2.51-1.28,5.94,5.94,0,0,1,5.15,1.39,4.61,4.61,0,0,1,1.35,2.32,4.67,4.67,0,0,1-.21,2.62,6.34,6.34,0,0,1-1.39,2.13,11.17,11.17,0,0,1-4.09,2.6,12.22,12.22,0,0,1-2.24.61l-1.11.21-1.11.13a24.07,24.07,0,0,1-8.12-.57,25.24,25.24,0,0,1-6.27-2.42,23,23,0,0,1-4.18-2.88l-.74-.65-.61-.62a10.79,10.79,0,0,1-.92-1c-.23-.27-.4-.49-.53-.65l-.18-.22s.08.06.21.2.32.36.56.61a10.19,10.19,0,0,0,.94,1l.62.6.75.63a22.85,22.85,0,0,0,4.18,2.81,25.24,25.24,0,0,0,6.23,2.34,23.87,23.87,0,0,0,8,.52l1.09-.14c.36-.05.73-.13,1.09-.2a12.08,12.08,0,0,0,2.19-.61,10.82,10.82,0,0,0,3.95-2.53,6,6,0,0,0,1.31-2,4.13,4.13,0,0,0,.18-2.41,4.68,4.68,0,0,0-3.47-3.34,5.26,5.26,0,0,0-4.92,1.13,7.7,7.7,0,0,0-2.51,4.74,10.31,10.31,0,0,0,.82,5.38,17.54,17.54,0,0,0,2.89,4.54,22.57,22.57,0,0,0,8.19,6,22.89,22.89,0,0,0,9,1.9,26.18,26.18,0,0,0,7.94-1.34c2.38-.71,4.51-1.45,6.43-1.94a22.51,22.51,0,0,1,5-.83,13.78,13.78,0,0,1,1.85,0c.53.08,1,.12,1.35.2l.81.2Z"/><path class="cls-12" d="M341.16,209.32c-.06,0-.4-.79-1.13-2a19.44,19.44,0,0,0-3.44-4.27,19.74,19.74,0,0,0-4.5-3.14c-1.26-.64-2.1-.92-2.08-1a2.34,2.34,0,0,1,.61.14,12.93,12.93,0,0,1,1.59.6,17.52,17.52,0,0,1,4.64,3.1,17.21,17.21,0,0,1,3.42,4.42,10.94,10.94,0,0,1,.71,1.54C341.12,209.09,341.19,209.31,341.16,209.32Z"/><path class="cls-12" d="M312.28,241.17s0-.06-.12-.18l-.3-.56c-.27-.5-.66-1.23-1.13-2.19a50.74,50.74,0,0,1-3.41-8.38,27.52,27.52,0,0,1-1.07-6.17,18.42,18.42,0,0,1,1-7.11,15.74,15.74,0,0,1,4.36-6.62,10.73,10.73,0,0,1,7.95-2.78,5.91,5.91,0,0,1,3.91,1.9,4.79,4.79,0,0,1,1.11,4.07,3.64,3.64,0,0,1-1.06,1.84,4.22,4.22,0,0,1-1.82,1,5.36,5.36,0,0,1-3.88-.47,9,9,0,0,1-2.85-2.42,13.15,13.15,0,0,1-1.78-3,13.39,13.39,0,0,1-1-6.18,12.7,12.7,0,0,1,1.48-4.95,13.18,13.18,0,0,1,2.33-3.13,12.41,12.41,0,0,1,1.92-1.55c.23-.15.42-.25.55-.33s.19-.1.19-.09-.24.17-.7.49a12.84,12.84,0,0,0-1.85,1.59,13.17,13.17,0,0,0-2.25,3.12,12.44,12.44,0,0,0-1.39,4.87,13.14,13.14,0,0,0,1,6,12.73,12.73,0,0,0,1.76,2.94,8.66,8.66,0,0,0,2.74,2.31,5,5,0,0,0,3.63.43,3.49,3.49,0,0,0,2.6-2.55,4.46,4.46,0,0,0-1-3.74,5.55,5.55,0,0,0-3.66-1.77,10.34,10.34,0,0,0-7.66,2.69,15.53,15.53,0,0,0-4.28,6.45,19.91,19.91,0,0,0-.88,3.54,19,19,0,0,0-.16,3.43,27.26,27.26,0,0,0,1,6.11,55.89,55.89,0,0,0,3.28,8.4c.45.94.81,1.68,1.07,2.21l.27.58C312.26,241.1,312.29,241.17,312.28,241.17Z"/><path class="cls-12" d="M303.09,175.46a1,1,0,0,1,.07.31c0,.2.08.51.11.9a19.41,19.41,0,0,1,0,3.34,21.25,21.25,0,0,1-12,17.44,18.87,18.87,0,0,1-3.12,1.21c-.38.11-.68.17-.88.22s-.32.06-.32,0a10.85,10.85,0,0,1,1.15-.41,23.42,23.42,0,0,0,3-1.3A21.77,21.77,0,0,0,303,180a23,23,0,0,0,.13-3.31A9.36,9.36,0,0,1,303.09,175.46Z"/><path class="cls-12" d="M431,207.73a10.77,10.77,0,0,0-2.87,2.63c-.74.95-1.49,2.2-2.34,3.57a26.64,26.64,0,0,1-10.8,9.94,22.42,22.42,0,0,1-2.67,1.14,5.85,5.85,0,0,1-1,.3,5.33,5.33,0,0,1,1-.44c.62-.27,1.52-.66,2.59-1.24a28.61,28.61,0,0,0,7.47-5.76,29.13,29.13,0,0,0,3.16-4.13,37.19,37.19,0,0,1,2.42-3.55,9,9,0,0,1,2.14-2,5.26,5.26,0,0,1,.69-.38A.84.84,0,0,1,431,207.73Z"/><path class="cls-10" d="M390.74,151.2s-.11.05-.34.09l-1,.18c-.86.14-2.11.33-3.66.54-3.09.42-7.38.9-12.13,1.25a60.47,60.47,0,0,1-6.72.24,18.64,18.64,0,0,1-5.43-.93,12.18,12.18,0,0,1-3.32-1.67,9,9,0,0,1-.78-.64c-.17-.16-.25-.25-.24-.26s.38.3,1.11.77a12.93,12.93,0,0,0,3.31,1.54,19.53,19.53,0,0,0,5.36.83,62.85,62.85,0,0,0,6.68-.27c4.75-.34,9-.79,12.13-1.13l3.67-.42A11,11,0,0,1,390.74,151.2Z"/><path class="cls-8" d="M441.73,238.58a20,20,0,0,1-19.44,23.78l-56.38-.63,1.48-18.25,48.34-7.21"/><path class="cls-8" d="M370.88,244.31a50.11,50.11,0,0,1-6.44-2.72,20.84,20.84,0,0,0-9.9-1.92l-13.44.68a6.58,6.58,0,0,0,2.26,3c1.42.78,9.78.95,9.78.95l-.43.44a9.62,9.62,0,0,1-6.69,2.93l-1.28,0a12.16,12.16,0,0,1-2.81-.55l-3.31-1.34c-1-.45-2.07-.37-2.5.64s-.11,2.17,2.63,3.55c1.53.77,7.2,2.73,7.2,2.73a13.36,13.36,0,0,0,.33,2.39c.25.83,2.48,1.65,2.48,1.65a29.05,29.05,0,0,0,2,3.55,20.09,20.09,0,0,0,4.42,1.53,19.07,19.07,0,0,0,10.59-.08l5.13-1.53v-15.6"/><path class="cls-9" d="M352.49,254.5A10.6,10.6,0,0,1,349,254a10.78,10.78,0,0,1-3.29-1.28c0-.09,1.5.47,3.37,1S352.5,254.4,352.49,254.5Z"/><path class="cls-9" d="M352,257.65a3.46,3.46,0,0,1-1.89-.14,3.3,3.3,0,0,1-1.7-.84,13.16,13.16,0,0,1,1.79.52A12.42,12.42,0,0,1,352,257.65Z"/><path class="cls-9" d="M354.47,243.1a5.74,5.74,0,0,1-1,1.11,16.78,16.78,0,0,1-2.93,2.22,11.92,11.92,0,0,1-3.43,1.32,4.67,4.67,0,0,1-1.52.16,19,19,0,0,0,4.78-1.78,22.36,22.36,0,0,0,2.94-2.1A8.38,8.38,0,0,1,354.47,243.1Z"/><path class="cls-6" d="M372.24,241.85l-1.36,20.64,53.11,0a19.93,19.93,0,0,0,10.23-2.83h0a19.86,19.86,0,0,0,9.26-20.86,60.69,60.69,0,0,0-3.43-11.45l-26.7,4.39.86,3.32Z"/><path class="cls-10" d="M426.51,233.36l-.54.12-1.55.28-5.71,1-18.88,3-18.9,2.89-5.73.83-1.56.21a4.48,4.48,0,0,1-.55,0,2.21,2.21,0,0,1,.54-.13l1.55-.28,5.71-.95,18.88-3,18.89-2.89,5.74-.84,1.56-.2A2.84,2.84,0,0,1,426.51,233.36Z"/><path class="cls-12" d="M399.33,262.53c-.09,0,.32-1.49.37-3.92a17.28,17.28,0,0,0-.07-2,19.26,19.26,0,0,0-.33-2.24,21.19,21.19,0,0,0-1.73-4.9,22.29,22.29,0,0,0-2.9-4.32l-.78-.87c-.26-.28-.54-.53-.79-.78-.5-.51-1-.92-1.49-1.32-1.89-1.52-3.24-2.23-3.2-2.3a5.76,5.76,0,0,1,.95.48,12.33,12.33,0,0,1,1.07.65,14.48,14.48,0,0,1,1.35,1,16.91,16.91,0,0,1,1.54,1.3c.26.25.55.49.81.77s.54.58.81.88a21.89,21.89,0,0,1,3,4.37,20.83,20.83,0,0,1,1.73,5,20.19,20.19,0,0,1,.3,2.3,17.18,17.18,0,0,1,0,2,15,15,0,0,1-.15,1.66,9.55,9.55,0,0,1-.22,1.23A4.91,4.91,0,0,1,399.33,262.53Z"/><path class="cls-12" d="M431.66,261a10.93,10.93,0,0,1-2.46-.29,12.78,12.78,0,0,1-2.76-1,10.82,10.82,0,0,1-3.1-2.32,9.82,9.82,0,0,1-2.29-4.09,11,11,0,0,1-.39-2.6,10.17,10.17,0,0,1,.22-2.78,8.34,8.34,0,0,1,1.1-2.73,6.16,6.16,0,0,1,2.23-2.13,5.56,5.56,0,0,1,3.12-.71,4.14,4.14,0,0,1,2.91,1.51,4,4,0,0,1,1,3.13,3.72,3.72,0,0,1-1.83,2.62,8.74,8.74,0,0,1-5.87.8,12.22,12.22,0,0,1-10.35-11.73,9,9,0,0,1,.21-2.47,20,20,0,0,0-.06,2.47,12.56,12.56,0,0,0,2.12,6.26,12.16,12.16,0,0,0,8.14,5.12,8.4,8.4,0,0,0,5.61-.77,3.35,3.35,0,0,0,1.65-2.35,3.75,3.75,0,0,0-.89-2.84,3.84,3.84,0,0,0-2.66-1.37,5.25,5.25,0,0,0-2.89.66,6.76,6.76,0,0,0-3.17,4.61,9.87,9.87,0,0,0-.23,2.69,11.43,11.43,0,0,0,.36,2.52,9.61,9.61,0,0,0,2.18,4,10.61,10.61,0,0,0,3,2.3,12.62,12.62,0,0,0,2.69,1C430.77,260.9,431.67,260.92,431.66,261Z"/><path class="cls-6" d="M221,36H88A29.31,29.31,0,0,0,58.67,65.34v47.4H30l28.7,28.7v32.22A29.31,29.31,0,0,0,88,203H221a29.31,29.31,0,0,0,29.31-29.31V65.34A29.31,29.31,0,0,0,221,36Z"/><g class="cls-14"><path class="cls-11" d="M160.68,433.92,160,457s23.22,8.43,23.51,12.7l-44.76.31-.44-36Z"/><path class="cls-10" d="M165.45,458.66c.05.21-.9.59-1.63,1.52s-.95,1.91-1.16,1.9-.37-1.24.57-2.38S165.44,458.45,165.45,458.66Z"/><path class="cls-10" d="M168.15,464.26c-.2.05-.51-1,0-2.24s1.57-1.69,1.66-1.51-.53.83-1,1.82S168.37,464.24,168.15,464.26Z"/><path class="cls-11" d="M82.33,433.93l-4.68,23s-23.22,8.43-23.51,12.7L98.9,470l5.44-36Z"/><path class="cls-10" d="M72.22,458.65c0,.21.89.59,1.63,1.52s.94,1.91,1.16,1.9.36-1.24-.58-2.38S72.22,458.44,72.22,458.65Z"/><path class="cls-10" d="M69.51,464.25c.2.05.51-1,0-2.24s-1.57-1.69-1.67-1.51.54.83,1,1.82S69.29,464.23,69.51,464.25Z"/><polygon class="cls-6" points="104.96 214.07 71.12 456.88 103.95 456.25 140.84 249.59 132.28 457.21 168.24 455 180.87 212.6 104.96 214.07"/><g class="cls-15"><polygon points="179.92 231.66 180.06 228.15 102.66 230.56 101.86 237.29 179.92 231.66"/></g><path class="cls-10" d="M155,456c.16,0,2.54-48.31,5.33-107.92s4.91-107.94,4.75-108-2.55,48.3-5.33,107.93S154.88,456,155,456Z"/><path class="cls-10" d="M86.83,454s0-.19.11-.55l.26-1.61c.21-1.44.52-3.52.92-6.19l3.37-22.76c2.87-19.22,7-45.76,11.79-75s9.51-55.7,13-74.82l4.13-22.64c.48-2.66.85-4.73,1.11-6.16.12-.69.21-1.22.28-1.61a5.52,5.52,0,0,0,.07-.55s0,.18-.13.54l-.33,1.6c-.28,1.43-.7,3.49-1.22,6.13-1,5.34-2.53,13.06-4.32,22.61-3.57,19.11-8.3,45.54-13.14,74.81s-8.86,55.81-11.62,75.05c-1.38,9.62-2.47,17.41-3.19,22.79-.35,2.68-.63,4.76-.82,6.21-.08.69-.15,1.23-.2,1.61S86.83,454,86.83,454Z"/><path class="cls-5" d="M182.42,152.17s17-4,17.51-4.75L186,111.51A27,27,0,0,0,176.33,99a26.57,26.57,0,0,0-6.6-3.33,46.1,46.1,0,0,0-16.47-2.54l-23.53-1.25A46.56,46.56,0,0,0,111.16,97a37.52,37.52,0,0,0-17.44,19.21L83.17,142.59l26.63,5.57,1,28.32L98.63,230.77l85-2.78-3.79-74.37h0Z"/><g class="cls-15"><path class="cls-5" d="M197,142.73c0,.08-4.37,1.51-9.82,3.2s-9.89,3-9.91,2.92,4.37-1.52,9.82-3.21S197,142.65,197,142.73Z"/></g><path class="cls-10" d="M120.12,117.48a3.53,3.53,0,0,1-.45-.61c-.27-.41-.68-1-1.22-1.69a27.25,27.25,0,0,0-2-2.33,30.15,30.15,0,0,0-2.76-2.55,28.11,28.11,0,0,0-3.08-2.16,29.18,29.18,0,0,0-2.7-1.46c-.79-.38-1.44-.66-1.9-.83a3.71,3.71,0,0,1-.7-.32,4,4,0,0,1,.74.21,18.79,18.79,0,0,1,2,.74,26.24,26.24,0,0,1,2.76,1.42,29.41,29.41,0,0,1,3.12,2.16,30.64,30.64,0,0,1,2.77,2.6,26.7,26.7,0,0,1,2,2.39c.51.72.9,1.32,1.14,1.75A3.85,3.85,0,0,1,120.12,117.48Z"/><path class="cls-10" d="M116.65,126.05c.08,0-.74,8.66-1.84,19.32s-2,19.29-2.13,19.29.74-8.66,1.83-19.32S116.56,126,116.65,126.05Z"/><path class="cls-10" d="M174.52,110s-.15-.68-.37-1.76a34.26,34.26,0,0,0-1.17-4.15,32.92,32.92,0,0,0-1.74-4,14.6,14.6,0,0,1-.82-1.59s.12.12.3.38.43.63.71,1.11a24.44,24.44,0,0,1,2.93,8.16c.08.55.14,1,.16,1.31S174.55,110,174.52,110Z"/><path class="cls-10" d="M176,140.27a5.25,5.25,0,0,1-.15-.85c-.07-.55-.16-1.35-.25-2.34-.19-2-.4-4.7-.5-7.72s-.1-5.76,0-7.74c0-1,.06-1.79.1-2.34a4.55,4.55,0,0,1,.08-.86,4.87,4.87,0,0,1,0,.86c0,.61,0,1.4,0,2.34,0,2,0,4.71.13,7.73s.27,5.74.41,7.72c.07.94.12,1.73.16,2.34A4.67,4.67,0,0,1,176,140.27Z"/><path class="cls-5" d="M140.41,135.21a120.78,120.78,0,0,1-18.54-.35v2.41h18.54Z"/><g class="cls-15"><path class="cls-5" d="M158.85,95.15s0,.13.07.37.09.62.16,1.07c.12.93.28,2.31.41,4,.28,3.48.52,8.43.61,14.27v.22l-.2-.09c-3.7-1.8-7.84-3.76-12.15-5.92L126.68,98.58l-6.37-3.23-1.72-.89-.45-.23-.15-.09s.06,0,.16.06l.46.21,1.75.84,6.42,3.14,21.1,10.47c4.32,2.15,8.45,4.12,12.14,5.93l-.2.12c-.06-5.83-.26-10.78-.49-14.26-.11-1.74-.25-3.11-.34-4.05l-.12-1.07A2.17,2.17,0,0,1,158.85,95.15Z"/></g><g class="cls-15"><path class="cls-5" d="M114.59,145.2a1.35,1.35,0,0,1-.31,0l-.86-.21-3.17-.81c-2.68-.68-6.37-1.62-10.47-2.61s-7.81-1.84-10.5-2.46l-3.18-.73-.87-.21a1.1,1.1,0,0,1-.29-.09l.31,0,.87.16c.76.14,1.86.35,3.21.63,2.7.56,6.43,1.39,10.53,2.38s7.78,2,10.44,2.7c1.33.37,2.41.67,3.15.89l.85.27A1.21,1.21,0,0,1,114.59,145.2Z"/></g><path class="cls-10" d="M155.61,90.77c0-.09,1.59.75,3.13,3a28.47,28.47,0,0,1,3.73,9.84,40,40,0,0,1,.67,5.76c0,.89,0,1.74,0,2.53s-.05,1.53-.12,2.2-.14,1.27-.19,1.81-.17,1-.23,1.35a4.34,4.34,0,0,1-.28,1.14,4.75,4.75,0,0,1,0-1.17l.13-1.36c0-.53.07-1.13.11-1.79s0-1.4,0-2.18,0-1.62-.06-2.5a45.72,45.72,0,0,0-.72-5.68A30.75,30.75,0,0,0,158.38,94a13.21,13.21,0,0,0-1.93-2.46C155.93,91,155.58,90.81,155.61,90.77Z"/><path class="cls-10" d="M129.27,90.94a13.28,13.28,0,0,1-1.22,1.76,24.25,24.25,0,0,0-2.73,5.09,34.82,34.82,0,0,0-2,8.33c-.42,3.21-.61,6.8-.84,10.56s-.21,7.34-.21,10.6V136c0,2.48-.07,4.48-.14,5.86a9.59,9.59,0,0,1-.21,2.15,9.25,9.25,0,0,1-.14-2.15c0-1.41-.09-3.4-.15-5.85s-.15-5.41-.19-8.68-.06-6.88.14-10.66.44-7.37.91-10.63a33,33,0,0,1,2.26-8.45,21,21,0,0,1,3-5.06A7.75,7.75,0,0,1,129.27,90.94Z"/><path class="cls-10" d="M168.22,139.36a11.64,11.64,0,0,1-.11-1.91c0-1.23-.07-3-.09-5.22,0-1.1,0-2.31,0-3.6s0-2.69-.08-4.11a6.78,6.78,0,0,0-1.48-4,5.57,5.57,0,0,0-4.08-1.93,6.39,6.39,0,0,0-4.27,1.65,7.34,7.34,0,0,0-2.16,3.76c-.36,1.38-.51,2.77-.72,4s-.39,2.47-.57,3.56c-.35,2.18-.64,3.94-.86,5.15a11.31,11.31,0,0,1-.39,1.87,12.23,12.23,0,0,1,.16-1.91c.15-1.22.38-3,.67-5.17.15-1.09.32-2.29.49-3.57s.33-2.66.68-4.11a7.9,7.9,0,0,1,2.31-4.06,6.94,6.94,0,0,1,4.67-1.81,6.13,6.13,0,0,1,4.52,2.14,7.3,7.3,0,0,1,1.58,4.39c.09,1.49,0,2.86,0,4.16s0,2.5,0,3.6c0,2.2-.07,4-.11,5.22A12.19,12.19,0,0,1,168.22,139.36Z"/><path class="cls-10" d="M162.63,112.87a9.82,9.82,0,0,1-2.25,5.78,8.29,8.29,0,0,1,3.74.07,12.76,12.76,0,0,1-1-5.85"/><path class="cls-10" d="M168.24,126.05a17.18,17.18,0,0,0-.92-2.29,7.24,7.24,0,0,0-1.68-2,6.37,6.37,0,0,0-2.85-1.36,6.17,6.17,0,0,0-3.14.32,6.87,6.87,0,0,0-2.24,1.35,16.7,16.7,0,0,0-1.6,1.9,4.2,4.2,0,0,1,1.3-2.2,6.75,6.75,0,0,1,2.34-1.57,6.31,6.31,0,0,1,3.44-.39,6.52,6.52,0,0,1,3.11,1.53,6.76,6.76,0,0,1,1.7,2.24A4.23,4.23,0,0,1,168.24,126.05Z"/><path class="cls-16" d="M183.74,191.68c3.45,0,6.53-2.49,8.16-5.53s2-6.58,2.2-10a81.71,81.71,0,0,0-3.32-27.05l-15.12,2.64,4.12,40.72Z"/><polygon class="cls-10" points="122.59 196.75 171.82 194.96 183.76 137.27 131.91 140.15 122.59 196.75"/><path class="cls-11" d="M147.93,139.16l.74-1.47,3.93-.29s1-2.58,6.61-2.84c5-.23,5.24,2.3,5.24,2.3h2.71v1.23Z"/><path class="cls-16" d="M175.38,178.16l3.73-1.09a4.51,4.51,0,0,1,2.16-.09h0a4.44,4.44,0,0,1,2.31,1.22,30.41,30.41,0,0,1,3.51,3.83,3.59,3.59,0,0,1,0,2.95c-.41.56.92,3.43.75,4.39a5.71,5.71,0,0,1-.75,2.31c-.33.4,0,1.76-.83,2.8a13.71,13.71,0,0,1-1.58,1.67s-10.25.47-11.25,0a14.8,14.8,0,0,1-2.75-2.32s-.92-1.67.5-1.83l-5.84-2.24a1.37,1.37,0,0,1-.84-1.74.93.93,0,0,1,.51-.57s-2.62-.83-3.22-1.1c-1.21-.53-1.67-3.35.84-3,1.32.19,3.11.58,3.11.58a1.84,1.84,0,0,1,.38-2.48c.81-.56,4.46.12,4.46.12l4.8-3.42Z"/><path class="cls-17" d="M176.68,193.54a8.56,8.56,0,0,1-3-.45,7.59,7.59,0,0,1-2.8-1.26c0-.07,1.26.53,2.88,1S176.69,193.46,176.68,193.54Z"/><path class="cls-17" d="M174.45,189.9a38.89,38.89,0,0,1-4.76-1.06,38.23,38.23,0,0,1-4.68-1.35,38.54,38.54,0,0,1,4.75,1.06A41,41,0,0,1,174.45,189.9Z"/><path class="cls-17" d="M175.66,186.27a42,42,0,0,1-5.12-1,43.18,43.18,0,0,1-5-1.34,46.46,46.46,0,0,1,5.12,1.05A44.48,44.48,0,0,1,175.66,186.27Z"/><path class="cls-17" d="M179.45,181.61a6.51,6.51,0,0,1-1.31.41l-1.45.38-.86.21a3.17,3.17,0,0,1-1,.09,5.67,5.67,0,0,1-1-.15l-.86-.2-1.46-.35a6.92,6.92,0,0,1-1.32-.39,5.59,5.59,0,0,1,1.37.18l1.47.29a15.66,15.66,0,0,0,1.78.32,6.73,6.73,0,0,0,1.75-.27l1.47-.31A5.42,5.42,0,0,1,179.45,181.61Z"/><path class="cls-17" d="M180.11,183.57s.17.1.28.38a1.66,1.66,0,0,1,0,1.14,1.75,1.75,0,0,1-.68.92c-.25.16-.44.19-.45.15s.61-.39.85-1.16A3.28,3.28,0,0,0,180.11,183.57Z"/><path class="cls-17" d="M179.9,187.53c.07,0,.3.38.27.94s-.31.95-.37.9,0-.43.07-.92S179.82,187.56,179.9,187.53Z"/><path class="cls-17" d="M180,191.83c.08,0,.23.25.16.61s-.33.56-.38.51,0-.28.08-.57S179.88,191.85,180,191.83Z"/><path class="cls-17" d="M181.07,181.37a3.21,3.21,0,0,1-1-.05l-1.05-.14a4.06,4.06,0,0,0-1.26-.06,3.11,3.11,0,0,0-1.11.5c-.32.22-.6.46-.87.62a1.67,1.67,0,0,1-1,.32c0-.05.35-.15.83-.5a5,5,0,0,1,2.06-1.24,4.27,4.27,0,0,1,.71,0c.23,0,.42.07.63.11l1,.2A3,3,0,0,1,181.07,181.37Z"/><path class="cls-17" d="M187,191.87a4.38,4.38,0,0,1,.26-.74,5,5,0,0,0,.19-3.46c-.12-.51-.35-1-.48-1.63a5.24,5.24,0,0,1,.12-1.89,3.3,3.3,0,0,0-.33-1.86,8.06,8.06,0,0,0-1.07-1.65c-.4-.51-.79-1-1.17-1.44a6.86,6.86,0,0,0-2.43-1.9,4.08,4.08,0,0,0-2-.31c-.49.07-.74.2-.75.17s.06,0,.18-.1a2.19,2.19,0,0,1,.55-.18,3.78,3.78,0,0,1,2.14.23,6.82,6.82,0,0,1,2.55,1.9c.41.45.8.93,1.21,1.44a9,9,0,0,1,1.1,1.71,3.68,3.68,0,0,1,.36,2,5,5,0,0,0-.15,1.8c.11.56.34,1.09.45,1.62a5.28,5.28,0,0,1,.19,1.48,5.16,5.16,0,0,1-.51,2.09A3.41,3.41,0,0,1,187,191.87Z"/><path class="cls-16" d="M152.54,163.34l-40.42,6.42,1.79-21.1-22.47-4.34L88.7,175.55l-.47,7.16A14,14,0,0,0,94.1,195h0a14,14,0,0,0,12.41,1.88l8.68-2.83L157.55,179"/><path class="cls-16" d="M177,159a1.14,1.14,0,0,0-1.15-1.35c-2.28,0-8.43,0-10.6.64-2.69.76-12.7,5.06-12.7,5.06L156.78,179l15.37.16s5.62-2.58,5.69-3.69a20.89,20.89,0,0,0-.14-2.1l1.69-.9c2.53-1.61.91-4.68.91-4.68a3.74,3.74,0,0,0,1.83-2.73,2.78,2.78,0,0,0-1.36-2.6s.7-2.47-.6-3.14-3.48.19-3.48.19A.93.93,0,0,0,177,159Z"/><path class="cls-17" d="M177.88,159.25a2.11,2.11,0,0,1-.48.16,13,13,0,0,1-1.32.29c-1.13.2-2.7.37-4.43.55a37.38,37.38,0,0,0-4.39.67c-1.11.26-1.73.6-1.75.56s.14-.12.42-.27a6.91,6.91,0,0,1,1.27-.49,27.1,27.1,0,0,1,4.41-.77c1.74-.18,3.31-.32,4.44-.47S177.86,159.2,177.88,159.25Z"/><path class="cls-17" d="M180.77,162.38a3.63,3.63,0,0,1-1.08.56,17.35,17.35,0,0,1-2.8.81c-1.12.23-2.14.38-2.87.48a5.17,5.17,0,0,1-1.21.09,37.84,37.84,0,0,1,4-.86c1.11-.24,2.09-.5,2.8-.73A7.56,7.56,0,0,1,180.77,162.38Z"/><path class="cls-17" d="M180.33,167.83a16.59,16.59,0,0,1-6.75,1.53c0-.09,1.53-.28,3.39-.71S180.3,167.74,180.33,167.83Z"/><path class="cls-17" d="M179.39,172.48a8,8,0,0,1-2.53.93,7.89,7.89,0,0,1-2.67.32,24.45,24.45,0,0,1,2.6-.62A22.52,22.52,0,0,1,179.39,172.48Z"/><path class="cls-17" d="M171.38,169.7s-.16.14-.47.16a1.76,1.76,0,0,1-1.17-.32,1.73,1.73,0,0,1-.68-1c-.08-.3,0-.5,0-.5a2.21,2.21,0,0,0,2.32,1.65Z"/><path class="cls-17" d="M171.05,174.55c0,.09-.6.12-1.12-.35s-.57-1.08-.48-1.08.23.47.68.85S171.06,174.47,171.05,174.55Z"/><path class="cls-17" d="M169.27,164.69c0,.08-.39.21-.78-.09s-.38-.74-.3-.73.19.28.48.49S169.26,164.61,169.27,164.69Z"/><path class="cls-17" d="M152.54,163.34l.12-.07.36-.17,1.43-.63c1.25-.54,3.06-1.32,5.36-2.26,1.15-.47,2.41-1,3.8-1.5a14.28,14.28,0,0,1,2.21-.68,20.86,20.86,0,0,1,2.44-.3c1.68-.14,3.46-.19,5.32-.22h2.12a1.52,1.52,0,0,1,.77.15,1.24,1.24,0,0,1,.65,1.4.51.51,0,0,1-.17.2l-.18.11-.35.16a4.18,4.18,0,0,1-.73.25.15.15,0,0,1-.18-.1.15.15,0,0,1,.11-.18,17.08,17.08,0,0,1,1.91-.43,7.63,7.63,0,0,1,2-.07,1.91,1.91,0,0,1,1,.43,1.85,1.85,0,0,1,.5,1,5.18,5.18,0,0,1-.14,2.11l-.07-.17a2.76,2.76,0,0,1,.85.75,3,3,0,0,1,.44,2.74,4.05,4.05,0,0,1-1.76,2.1l.06-.2a4.89,4.89,0,0,1,.49,2.68,3.12,3.12,0,0,1-1.45,2.19h0l-1.7.91.08-.14c0,.4.08.81.11,1.21l0,.6c0,.1,0,.2,0,.3a.69.69,0,0,1-.12.34,3.62,3.62,0,0,1-.88.83c-.31.23-.63.44-.95.64a37.91,37.91,0,0,1-3.82,2l0,0L161,179.12l-3.09-.06-.81,0a1.58,1.58,0,0,1-.28,0l.28,0H161l11.18.06h-.05a39.75,39.75,0,0,0,3.78-2c.31-.2.63-.4.93-.63a3.23,3.23,0,0,0,.8-.76.5.5,0,0,0,.09-.2v-.29l0-.58q0-.6-.12-1.2a.16.16,0,0,1,.08-.14l1.69-.91h0a2.72,2.72,0,0,0,1.31-2,4.57,4.57,0,0,0-.46-2.5.17.17,0,0,1,.06-.2,3.74,3.74,0,0,0,1.62-1.93,2.73,2.73,0,0,0-.39-2.47,2.45,2.45,0,0,0-.75-.66.18.18,0,0,1-.08-.18,4.71,4.71,0,0,0,.13-2,1.51,1.51,0,0,0-.4-.82,1.59,1.59,0,0,0-.84-.35,6.6,6.6,0,0,0-1.93.07,14.61,14.61,0,0,0-1.88.41l-.07-.28a4.6,4.6,0,0,0,.68-.24,1.87,1.87,0,0,0,.32-.15c.11,0,.2-.15.24-.14a1.18,1.18,0,0,0-.09-.61,1,1,0,0,0-.45-.44,1.1,1.1,0,0,0-.63-.13h-2.12c-1.86,0-3.63.08-5.3.2a22.61,22.61,0,0,0-2.42.28,14.8,14.8,0,0,0-2.17.66c-1.39.5-2.66,1-3.81,1.46l-5.39,2.18-1.45.59-.37.15Z"/><path class="cls-17" d="M112.28,169.72a16.07,16.07,0,0,0-3,2.57,16.45,16.45,0,0,0-2,3.41,3.26,3.26,0,0,1,.31-1.14,9,9,0,0,1,1.45-2.46,9.16,9.16,0,0,1,2.15-1.88A3.37,3.37,0,0,1,112.28,169.72Z"/><path class="cls-16" d="M165.06,44.74a20.41,20.41,0,0,0-20.31-18.81h-1.06c-11.4.65-17.23,10.69-16.27,22.07l2,45.62a2.05,2.05,0,0,0,1.18,1.77l25.59,12-.79-23.94s11-1.68,11.12-12.64C166.57,65.52,165.84,54.61,165.06,44.74Z"/><path class="cls-17" d="M155.46,83.43a26.55,26.55,0,0,1-14.35-4.23s3.36,7.9,14.3,6.93Z"/><path class="cls-10" d="M162.4,53.32a1.56,1.56,0,0,1-1.51,1.57,1.5,1.5,0,0,1-1.61-1.41,1.57,1.57,0,0,1,1.51-1.58A1.5,1.5,0,0,1,162.4,53.32Z"/><path class="cls-10" d="M162.69,50.1c-.19.2-1.37-.68-3.06-.68s-2.92.85-3.1.64.11-.46.65-.85a4.25,4.25,0,0,1,2.48-.76,4.13,4.13,0,0,1,2.44.79C162.62,49.64,162.79,50,162.69,50.1Z"/><path class="cls-10" d="M146.6,53.72a1.56,1.56,0,0,1-1.51,1.58,1.5,1.5,0,0,1-1.61-1.41A1.57,1.57,0,0,1,145,52.31,1.48,1.48,0,0,1,146.6,53.72Z"/><path class="cls-10" d="M146.14,50.38c-.19.2-1.38-.68-3.06-.68s-2.92.85-3.1.64.1-.46.65-.85a4.25,4.25,0,0,1,2.48-.76,4.13,4.13,0,0,1,2.44.79C146.06,49.92,146.24,50.29,146.14,50.38Z"/><path class="cls-10" d="M152.23,62.88a11.17,11.17,0,0,1,2.73-.49c.43,0,.84-.13.91-.42a2.08,2.08,0,0,0-.28-1.27c-.4-1.05-.82-2.14-1.27-3.28-1.75-4.67-3-8.5-2.83-8.57s1.76,3.65,3.52,8.32c.42,1.15.82,2.25,1.21,3.3a2.48,2.48,0,0,1,.22,1.68,1.05,1.05,0,0,1-.71.63,2.59,2.59,0,0,1-.73.1A10.63,10.63,0,0,1,152.23,62.88Z"/><path class="cls-10" d="M147.27,64c.27,0,.27,1.82,1.83,3.12s3.51,1.1,3.53,1.36c0,.11-.44.35-1.26.37a4.5,4.5,0,0,1-2.94-1A4,4,0,0,1,147,65.24C146.94,64.48,147.14,64,147.27,64Z"/><path class="cls-10" d="M146.59,43.78c-.17.46-1.85.24-3.82.47s-3.58.77-3.84.36c-.12-.2.16-.63.81-1.07a6.43,6.43,0,0,1,2.84-1,6.54,6.54,0,0,1,3,.36C146.3,43.2,146.66,43.56,146.59,43.78Z"/><path class="cls-10" d="M162.09,45.22c-.3.39-1.46,0-2.86,0s-2.57.25-2.84-.15c-.12-.2.06-.58.58-.94a4.14,4.14,0,0,1,4.59.15C162.06,44.64,162.22,45,162.09,45.22Z"/><path class="cls-16" d="M129.06,56.1c-.19-.08-7.52-2.24-7.3,5.25s7.7,5.72,7.71,5.51S129.06,56.1,129.06,56.1Z"/><path class="cls-17" d="M127.75,64.09s-.13.09-.34.2a1.27,1.27,0,0,1-1,0,3.24,3.24,0,0,1-1.58-2.85,4.38,4.38,0,0,1,.31-1.88,1.5,1.5,0,0,1,1-1,.64.64,0,0,1,.78.33c.11.21.07.36.11.37s.15-.13.08-.44a.81.81,0,0,0-.3-.46,1,1,0,0,0-.73-.17,1.85,1.85,0,0,0-1.33,1.21,4.46,4.46,0,0,0-.39,2.1c.09,1.51.91,2.9,2,3.18a1.39,1.39,0,0,0,1.19-.24C127.74,64.27,127.78,64.1,127.75,64.09Z"/><path class="cls-10" d="M134,33.83l31.24.69a14.29,14.29,0,0,0-4.59-5.31,24.4,24.4,0,0,0-14.14-5.09c-5.1-.09-15.47,6.12-19.16,9.63-2.95,2.81-2.93,5.25-2.93,5.25-.47,4,1.79,8.65,2.69,12.63.47,2,1.37,8.25,1.37,8.25h0c1.72,0,2.36-1.37,2.1-3.07l-.33-6.68a10.08,10.08,0,0,0,3.09-11.77C132.86,37.75,131.91,35,134,33.83Z"/><path class="cls-17" d="M140.53,57.53a.2.2,0,0,1-.22-.17.19.19,0,0,1,.14-.23.2.2,0,0,1,.08.4Z"/><path class="cls-17" d="M143.75,56.8a.21.21,0,0,1-.23-.19.22.22,0,0,1,.14-.26.23.23,0,0,1,.09.45Z"/><path class="cls-17" d="M145.92,56.75c-.1,0-.2-.11-.22-.27s0-.32.14-.33.2.11.22.28S146,56.74,145.92,56.75Z"/><path class="cls-17" d="M142.11,59.55c-.1,0-.19,0-.19-.12s.09-.12.19-.12.19.06.19.12S142.21,59.55,142.11,59.55Z"/><path class="cls-17" d="M145.06,58.87a.21.21,0,1,1,.17-.22A.2.2,0,0,1,145.06,58.87Z"/><path class="cls-17" d="M160.42,57.07a.2.2,0,0,1-.22-.17.2.2,0,0,1,.14-.24.19.19,0,0,1,.22.17A.2.2,0,0,1,160.42,57.07Z"/><path class="cls-17" d="M162.61,56.87a.2.2,0,0,1-.2-.21.21.21,0,0,1,.16-.25c.1,0,.19.08.21.21A.21.21,0,0,1,162.61,56.87Z"/><path class="cls-17" d="M158.48,57.12a.16.16,0,1,1-.06-.32.17.17,0,0,1,.21.12A.18.18,0,0,1,158.48,57.12Z"/><path class="cls-17" d="M160.11,59.32a.21.21,0,0,1-.26-.13.2.2,0,0,1,.08-.27.21.21,0,0,1,.26.12A.22.22,0,0,1,160.11,59.32Z"/><path class="cls-17" d="M162,59a.18.18,0,0,1-.14-.2.17.17,0,0,1,.22-.11.18.18,0,0,1,.14.2A.17.17,0,0,1,162,59Z"/><path class="cls-10" d="M127.11,34.18a9.24,9.24,0,0,1,9.23-11.48,29.16,29.16,0,0,0,4.36.31c2.71-.29,4.79-2.46,7.3-3.51a9.52,9.52,0,0,1,11.23,3.37c1,1.42,1.57,3.17,3,4.06,1.26.78,2.84.71,4.26,1.14A7,7,0,0,1,171.19,35a8.2,8.2,0,0,1-5,6.88,10,10,0,0,1-8.63-.61c-2.36-1.31-4.47-3.55-7.17-3.47s-5.23,2.72-8,2.17a7.7,7.7,0,0,1-3.59-2.41,6.26,6.26,0,0,0-3.73-2.14c-1.46-.09-2.22,1.92-1.7,3.29l-6.3-4.48"/><path class="cls-11" d="M164.61,30.56l-.05.11c0,.07-.1.17-.19.3a5.37,5.37,0,0,1-.89,1,5.43,5.43,0,0,1-1.86,1.07,5.19,5.19,0,0,1-2.83.17,5.6,5.6,0,0,1-3-1.7,37.44,37.44,0,0,1-2.16-3.29,4.33,4.33,0,0,0-1.51-1.37,4.4,4.4,0,0,0-2.07-.46,4.75,4.75,0,0,0-2.13.58,4,4,0,0,0-1.57,1.61,22.37,22.37,0,0,1-1.1,2.11,2.59,2.59,0,0,1-2,1.21,3.81,3.81,0,0,1-2.18-.63,8.25,8.25,0,0,1-1.66-1.37,7,7,0,0,0-3.09-2.21,4,4,0,0,0-3.14.74,5.39,5.39,0,0,0-1.73,2.14,9.29,9.29,0,0,0-.64,2c-.12.57-.17,1-.21,1.33a2.93,2.93,0,0,1-.06.47s0,0,0-.12,0-.2,0-.35c0-.31.06-.77.15-1.35a8.64,8.64,0,0,1,.61-2.05,5.57,5.57,0,0,1,1.75-2.24,4.14,4.14,0,0,1,3.32-.81,7.13,7.13,0,0,1,3.24,2.25,8.26,8.26,0,0,0,1.61,1.33,3.68,3.68,0,0,0,2,.58A2.33,2.33,0,0,0,145,30.54c.42-.63.69-1.37,1.08-2.09a4.27,4.27,0,0,1,1.69-1.73,4.92,4.92,0,0,1,2.26-.6,4.33,4.33,0,0,1,3.82,1.95A37.69,37.69,0,0,0,156,31.36,5.43,5.43,0,0,0,158.83,33a5.2,5.2,0,0,0,2.74-.12,5.59,5.59,0,0,0,1.83-1A7.79,7.79,0,0,0,164.61,30.56Z"/><path class="cls-11" d="M170.27,30.67a1.64,1.64,0,0,1,.12.6,4.8,4.8,0,0,1-.15,1.67,6,6,0,0,1-1.17,2.21,6.91,6.91,0,0,1-2.48,1.8,10.15,10.15,0,0,1-5.44.61,14.9,14.9,0,0,1-1.64-.32,1.88,1.88,0,0,1-.58-.2s.85.16,2.24.31a10.54,10.54,0,0,0,5.3-.68,6.75,6.75,0,0,0,2.38-1.7A5.71,5.71,0,0,0,170,32.88,6.74,6.74,0,0,0,170.27,30.67Z"/><path class="cls-3" d="M117,151.37a6.32,6.32,0,0,0,1.32,3.24,4.28,4.28,0,0,0,3.13,1.66,4.76,4.76,0,0,0,4.21-2.11c1.33-2.12,1.66-6.54.59-9.16-.74-1.79-2.39-3.46-4.33-3.51a4.78,4.78,0,0,0-4.69,3.65"/><path class="cls-10" d="M117.18,145.14a3.67,3.67,0,0,1,.47-1.25,5.2,5.2,0,0,1,1-1.26,4.46,4.46,0,0,1,1.8-1.06,4.64,4.64,0,0,1,1.21-.19,3.83,3.83,0,0,1,1.33.17,5.19,5.19,0,0,1,2.36,1.7,6.7,6.7,0,0,1,1.39,2.9,12.16,12.16,0,0,1,.26,3.43,9.38,9.38,0,0,1-1.48,5,4.51,4.51,0,0,1-1.92,1.45,5.22,5.22,0,0,1-2.18.37h0a3.34,3.34,0,0,1-1.56-.39,5.08,5.08,0,0,1-1.17-.82,5.88,5.88,0,0,1-1.28-1.9,5.35,5.35,0,0,1-.4-1.41,2.31,2.31,0,0,1,0-.38v-.13a8.89,8.89,0,0,0,.57,1.86A5.94,5.94,0,0,0,118.8,155a5.29,5.29,0,0,0,1.14.77,3.1,3.1,0,0,0,1.45.34h0a4.65,4.65,0,0,0,3.85-1.74,9.39,9.39,0,0,0,1.4-4.85,8.76,8.76,0,0,0-1.56-6.13,5,5,0,0,0-2.23-1.64,3.62,3.62,0,0,0-1.24-.18,4.33,4.33,0,0,0-1.16.17,4.24,4.24,0,0,0-1.75,1,5.37,5.37,0,0,0-1,1.18A8.62,8.62,0,0,0,117.18,145.14Z"/><path class="cls-3" d="M115.6,151.48a6.22,6.22,0,0,0,1.31,3.25,4.28,4.28,0,0,0,3.13,1.66,4.77,4.77,0,0,0,4.21-2.12c1.33-2.12,1.66-6.54.59-9.15-.73-1.8-2.39-3.47-4.33-3.52a4.8,4.8,0,0,0-4.69,3.65"/><path class="cls-10" d="M115.82,145.25a4,4,0,0,1,.47-1.25,5.17,5.17,0,0,1,1-1.25,4.46,4.46,0,0,1,1.8-1.06,4.79,4.79,0,0,1,1.21-.2,3.62,3.62,0,0,1,1.33.18,5.25,5.25,0,0,1,2.37,1.69,6.93,6.93,0,0,1,1.39,2.9,12.57,12.57,0,0,1,.26,3.43,9.53,9.53,0,0,1-1.48,5,4.41,4.41,0,0,1-1.92,1.45,5.28,5.28,0,0,1-2.18.37h0a3.28,3.28,0,0,1-1.56-.39,4.94,4.94,0,0,1-1.18-.82,5.67,5.67,0,0,1-1.28-1.9,5.55,5.55,0,0,1-.4-1.41,3.8,3.8,0,0,1,0-.38c0-.08,0-.13,0-.13a7.48,7.48,0,0,0,.56,1.86,5.85,5.85,0,0,0,1.29,1.82,4.86,4.86,0,0,0,1.13.76,3.13,3.13,0,0,0,1.45.34h0a4.61,4.61,0,0,0,3.85-1.74,9.45,9.45,0,0,0,1.41-4.84c.12-2.29-.26-4.6-1.57-6.14a4.91,4.91,0,0,0-2.23-1.63,3.14,3.14,0,0,0-1.24-.18,4.33,4.33,0,0,0-1.16.16,4.47,4.47,0,0,0-1.75,1,5.4,5.4,0,0,0-1,1.19A10.92,10.92,0,0,0,115.82,145.25Z"/><path class="cls-3" d="M118.06,144.6a3,3,0,0,0-3.11,1.79,5.14,5.14,0,0,0,0,3.78,4.71,4.71,0,0,0,1,1.7,2.53,2.53,0,0,0,1.73.84A3,3,0,0,0,120,151.3a5.38,5.38,0,0,0,.81-4.44c-.26-1-1-2-2-2.06"/><path class="cls-10" d="M118.81,144.8a.52.52,0,0,1,.23,0,1.58,1.58,0,0,1,.63.21,3.09,3.09,0,0,1,1.33,2,5.53,5.53,0,0,1-.36,3.54,4.62,4.62,0,0,1-1.3,1.71,2.51,2.51,0,0,1-2.24.53,3.13,3.13,0,0,1-1.78-1.46,6.6,6.6,0,0,1-.75-2,4.5,4.5,0,0,1,.58-3.5,3.1,3.1,0,0,1,2-1.28,2,2,0,0,1,.66,0l.23.06a4.06,4.06,0,0,0-.87.05,3.11,3.11,0,0,0-1.86,1.29,4.3,4.3,0,0,0-.48,3.33,6.4,6.4,0,0,0,.72,1.9,2.84,2.84,0,0,0,1.62,1.32,2.21,2.21,0,0,0,2-.48,4.3,4.3,0,0,0,1.23-1.59,5.34,5.34,0,0,0,.4-3.38,3.06,3.06,0,0,0-1.18-1.94A2.25,2.25,0,0,0,118.81,144.8Z"/><path class="cls-10" d="M121,154.12s-.11-.18-.31-.41a2.08,2.08,0,0,0-1-.64,5.62,5.62,0,0,0-1.21-.19c-.33,0-.53,0-.53-.09s.19-.09.52-.12a3.48,3.48,0,0,1,1.31.11,1.92,1.92,0,0,1,1.07.8C121,153.89,121,154.12,121,154.12Z"/><path class="cls-10" d="M121.43,143.81s-.09.21-.36.42a2.77,2.77,0,0,1-1.22.53,2.71,2.71,0,0,1-1.33-.07c-.32-.11-.5-.23-.48-.27a6.94,6.94,0,0,0,1.76.05A7.58,7.58,0,0,0,121.43,143.81Z"/><path class="cls-10" d="M98.63,230.77c0,.16,19.1-.32,42.64-1.08s42.63-1.5,42.62-1.66-19.09.32-42.64,1.08S98.63,230.61,98.63,230.77Z"/></g><path class="cls-11" d="M305.14,55.69a2.61,2.61,0,1,0,2.61-2.6A2.61,2.61,0,0,0,305.14,55.69Z"/><circle class="cls-11" cx="297.32" cy="55.69" r="2.61"/><path class="cls-11" d="M284.32,54.39a2.61,2.61,0,1,0,3.56-1A2.6,2.6,0,0,0,284.32,54.39Z"/><path class="cls-11" d="M297.16,25.26a4.27,4.27,0,0,0-.53,0l-1.54.05c-.34,0-.73,0-1.15.05l-1.36.19-1.6.23-1.78.44A28.78,28.78,0,0,0,280.57,30a30.54,30.54,0,0,0-14,22.9A32,32,0,0,0,266.5,57c.05.7,0,1.42.14,2.13s.21,1.43.32,2.15a30.56,30.56,0,0,0,2.9,8.5,33,33,0,0,0,5.55,7.63,32.08,32.08,0,0,0,8,5.74,29,29,0,0,0,9.74,3,18.87,18.87,0,0,0,2.6.22,23,23,0,0,0,2.63,0,30.85,30.85,0,0,0,15.73-5.07l-.32,0,10.67,4.28.63.25-.18-.65q-1.61-5.88-3.13-11.41l-.06.28a30.49,30.49,0,0,0,5.7-13,28,28,0,0,0,.41-6.68,21.15,21.15,0,0,0-.3-3.2q-.12-.8-.24-1.56c-.1-.52-.25-1-.38-1.51A30.52,30.52,0,0,0,315,30.82a29.32,29.32,0,0,0-7.08-3.73l-1.6-.57-1.51-.39-1.39-.34c-.44-.09-.87-.13-1.27-.19-.81-.11-1.52-.25-2.14-.28l-1.57-.05-1,0a1.57,1.57,0,0,0-.32,0,1.19,1.19,0,0,0,.32,0l1,.07,1.56.11c.61,0,1.31.2,2.11.32a30.32,30.32,0,0,1,24.26,22.5c.12.49.27,1,.36,1.49s.15,1,.23,1.53a20.38,20.38,0,0,1,.28,3.15,26.9,26.9,0,0,1-.43,6.54,30,30,0,0,1-5.62,12.75l-.09.13,0,.16q1.51,5.52,3.11,11.41l.45-.41L314,80.77l-.17-.07-.15.1a30,30,0,0,1-10.24,4.31,30.88,30.88,0,0,1-5.14.65,22,22,0,0,1-2.57-.05,19.62,19.62,0,0,1-2.54-.21,28.5,28.5,0,0,1-9.53-2.92,31.28,31.28,0,0,1-7.82-5.6,31.92,31.92,0,0,1-5.45-7.46,30,30,0,0,1-2.87-8.31l-.33-2.1c-.1-.7-.09-1.41-.14-2.1a29.29,29.29,0,0,1,.07-4.09A30.1,30.1,0,0,1,280.78,30.3a29.11,29.11,0,0,1,8.49-3.83L291,26l1.58-.26,1.35-.22c.42-.05.8-.06,1.14-.08l1.54-.12Z"/></g></g></svg>