<svg id="Grupo_320" data-name="Grupo 320" xmlns="http://www.w3.org/2000/svg" xmlns:xlink="http://www.w3.org/1999/xlink" width="121.595" height="121.595" viewBox="0 0 121.595 121.595">
  <defs>
    <clipPath id="clip-path">
      <rect id="Rect치ngulo_158" data-name="Rect치ngulo 158" width="121.595" height="121.595" fill="none"/>
    </clipPath>
  </defs>
  <g id="Grupo_319" data-name="Grupo 319" clip-path="url(#clip-path)">
    <path id="Trazado_1514" data-name="Trazado 1514" d="M119.427,60.8A58.63,58.63,0,1,1,60.8,2.168a58.631,58.631,0,0,1,58.63,58.63" fill="#fff"/>
    <path id="Trazado_1515" data-name="Trazado 1515" d="M60.8,121.6a60.8,60.8,0,1,1,60.8-60.8,60.867,60.867,0,0,1-60.8,60.8m0-117.26A56.462,56.462,0,1,0,117.259,60.8,56.526,56.526,0,0,0,60.8,4.336" fill="#3e145e"/>
    <rect id="Rect치ngulo_157" data-name="Rect치ngulo 157" width="37.011" height="42.569" transform="translate(40.774 32.692)" fill="#ffe227"/>
    <path id="Trazado_1516" data-name="Trazado 1516" d="M88.385,88.345H30.053a5.88,5.88,0,0,1-5.873-5.874V47.263a5.88,5.88,0,0,1,5.873-5.874h5.963a1.184,1.184,0,1,1,0,2.368H30.053a3.509,3.509,0,0,0-3.5,3.506V82.471a3.508,3.508,0,0,0,3.5,3.5H88.385a3.508,3.508,0,0,0,3.5-3.5V47.263a3.509,3.509,0,0,0-3.5-3.506H81.751a1.184,1.184,0,1,1,0-2.368h6.634a5.881,5.881,0,0,1,5.874,5.874V82.471a5.881,5.881,0,0,1-5.874,5.874" fill="#3e145e"/>
    <path id="Trazado_1517" data-name="Trazado 1517" d="M93.074,81.674H25.365a1.184,1.184,0,1,1,0-2.368H93.074a1.184,1.184,0,1,1,0,2.368" fill="#3e145e"/>
    <path id="Trazado_1518" data-name="Trazado 1518" d="M63.214,95.082h-7.99A1.185,1.185,0,0,1,54.04,93.9V87.16a1.185,1.185,0,0,1,1.184-1.185h7.99A1.185,1.185,0,0,1,64.4,87.16V93.9a1.185,1.185,0,0,1-1.185,1.186m-6.8-2.37h5.62V88.345H56.41Z" fill="#3e145e"/>
    <path id="Trazado_1519" data-name="Trazado 1519" d="M66.736,102.394H51.7a1.184,1.184,0,0,1-1.185-1.184V93.9A1.184,1.184,0,0,1,51.7,92.712H66.736A1.184,1.184,0,0,1,67.92,93.9v7.314a1.184,1.184,0,0,1-1.184,1.184m-13.847-2.37H65.551V95.082H52.889Z" fill="#3e145e"/>
    <path id="Trazado_1520" data-name="Trazado 1520" d="M77.3,102.394H41.142a1.185,1.185,0,1,1,0-2.37H77.3a1.185,1.185,0,1,1,0,2.37" fill="#3e145e"/>
    <path id="Trazado_1521" data-name="Trazado 1521" d="M81.308,28.051H37.13a1.116,1.116,0,0,0-1.114,1.114V78.913a1.115,1.115,0,0,0,1.114,1.113H81.308a1.114,1.114,0,0,0,1.114-1.113V29.165a1.115,1.115,0,0,0-1.114-1.114m-.742,50.12H37.873V29.908H80.566Z" fill="#3e145e"/>
    <path id="Trazado_1522" data-name="Trazado 1522" d="M40.7,76.4H77.737a1.115,1.115,0,0,0,1.113-1.114V32.8a1.115,1.115,0,0,0-1.113-1.114H40.7A1.115,1.115,0,0,0,39.589,32.8V75.282A1.115,1.115,0,0,0,40.7,76.4M57.42,74.54V66.4a9.505,9.505,0,0,0-2.2-6.183,2.092,2.092,0,0,1-.424-1.864A2,2,0,0,1,56.2,56.9a1.95,1.95,0,0,1,1.658.3,2.292,2.292,0,0,0,2.722,0,1.956,1.956,0,0,1,1.66-.3,2.005,2.005,0,0,1,1.4,1.45,2.091,2.091,0,0,1-.425,1.865,9.5,9.5,0,0,0-2.2,6.182V74.54Zm3.6-41v8.141a9.495,9.495,0,0,0,2.2,6.181,2.1,2.1,0,0,1,.425,1.865,2,2,0,0,1-1.4,1.451,1.946,1.946,0,0,1-1.66-.3,2.294,2.294,0,0,0-2.721,0,1.948,1.948,0,0,1-1.659.3,2,2,0,0,1-1.4-1.451,2.1,2.1,0,0,1,.424-1.865,9.5,9.5,0,0,0,2.2-6.183V33.538Zm-19.574,0H55.563v8.139a7.645,7.645,0,0,1-1.755,4.978,3.934,3.934,0,0,0-.818,3.5,3.856,3.856,0,0,0,2.745,2.821,3.783,3.783,0,0,0,3.211-.59.446.446,0,0,1,.548,0A3.751,3.751,0,0,0,61.7,53.1a4.082,4.082,0,0,0,1-.129,3.856,3.856,0,0,0,2.745-2.821,3.934,3.934,0,0,0-.818-3.5,7.637,7.637,0,0,1-1.755-4.976V33.538H77v41H62.876V66.4a7.637,7.637,0,0,1,1.755-4.976,3.934,3.934,0,0,0,.818-3.5A3.856,3.856,0,0,0,62.7,55.1a3.779,3.779,0,0,0-3.21.59.446.446,0,0,1-.549,0,3.783,3.783,0,0,0-3.21-.59,3.856,3.856,0,0,0-2.745,2.821,3.931,3.931,0,0,0,.818,3.5A7.647,7.647,0,0,1,55.563,66.4v8.14H41.445Z" fill="#3e145e"/>
    <path id="Trazado_1523" data-name="Trazado 1523" d="M50.886,53.11H46.6a.928.928,0,1,0,0,1.856h4.286a.928.928,0,0,0,0-1.856" fill="#3e145e"/>
    <path id="Trazado_1524" data-name="Trazado 1524" d="M50.436,56.4,46.15,58.783a.928.928,0,0,0,.451,1.739.912.912,0,0,0,.449-.117l4.286-2.381a.927.927,0,1,0-.9-1.622" fill="#3e145e"/>
    <path id="Trazado_1525" data-name="Trazado 1525" d="M46.15,49.295l4.286,2.381a.928.928,0,1,0,.9-1.623L47.05,47.672a.928.928,0,1,0-.9,1.623" fill="#3e145e"/>
    <path id="Trazado_1526" data-name="Trazado 1526" d="M67.552,54.966h4.286a.928.928,0,1,0,0-1.855H67.552a.927.927,0,1,0,0,1.855" fill="#3e145e"/>
    <path id="Trazado_1527" data-name="Trazado 1527" d="M72.29,58.783,68,56.4a.928.928,0,1,0-.9,1.622L71.389,60.4a.912.912,0,0,0,.449.117.928.928,0,0,0,.452-1.739" fill="#3e145e"/>
    <path id="Trazado_1528" data-name="Trazado 1528" d="M67.553,51.793a.927.927,0,0,0,.45-.117l4.286-2.381a.928.928,0,1,0-.9-1.623L67.1,50.053a.928.928,0,0,0,.451,1.74" fill="#3e145e"/>
    <path id="Trazado_1529" data-name="Trazado 1529" d="M70.943,36.844h3.7a.928.928,0,1,0,0-1.855h-3.7a.928.928,0,1,0,0,1.855" fill="#3e145e"/>
    <path id="Trazado_1530" data-name="Trazado 1530" d="M68.605,39.623h6.04a.928.928,0,1,0,0-1.856h-6.04a.928.928,0,1,0,0,1.856" fill="#3e145e"/>
    <path id="Trazado_1531" data-name="Trazado 1531" d="M68.605,42.4h6.04a.928.928,0,0,0,0-1.856h-6.04a.928.928,0,1,0,0,1.856" fill="#3e145e"/>
  </g>
</svg>
