<svg id="Grupo_322" data-name="Grupo 322" xmlns="http://www.w3.org/2000/svg" xmlns:xlink="http://www.w3.org/1999/xlink" width="121.595" height="121.595" viewBox="0 0 121.595 121.595">
  <defs>
    <clipPath id="clip-path">
      <rect id="Rectángulo_159" data-name="Rectángulo 159" width="121.595" height="121.595" fill="none"/>
    </clipPath>
  </defs>
  <g id="Grupo_321" data-name="Grupo 321" clip-path="url(#clip-path)">
    <path id="Trazado_1532" data-name="Trazado 1532" d="M120.182,60.8a58.63,58.63,0,1,1-58.63-58.63,58.631,58.631,0,0,1,58.63,58.63" fill="#fff"/>
    <path id="Trazado_1533" data-name="Trazado 1533" d="M60.8,121.6a60.8,60.8,0,1,1,60.8-60.8,60.867,60.867,0,0,1-60.8,60.8m0-117.26A56.462,56.462,0,1,0,117.26,60.8,56.526,56.526,0,0,0,60.8,4.336" fill="#3e145e"/>
    <path id="Trazado_1534" data-name="Trazado 1534" d="M40.563,72.025H81.032V59.546s-1.352-4.369-8.8-6.6L70.049,52.4l-3.4-1.957-.952,6.3s-8.329,1.31-9.592,0l-.965-4.954-5.693.517.777,2.382s-11.92-4.471-9.66,17.333" fill="#ffe227"/>
    <path id="Trazado_1535" data-name="Trazado 1535" d="M90.776,78.758H30.819A4.066,4.066,0,0,1,26.758,74.7V36.716a4.067,4.067,0,0,1,4.061-4.061H90.776a4.067,4.067,0,0,1,4.061,4.061V74.7a4.066,4.066,0,0,1-4.061,4.061M30.819,35.044a1.674,1.674,0,0,0-1.672,1.672V74.7a1.674,1.674,0,0,0,1.672,1.672H90.776A1.674,1.674,0,0,0,92.448,74.7V36.716a1.674,1.674,0,0,0-1.672-1.672H30.819Z" fill="#3e145e"/>
    <path id="Trazado_1536" data-name="Trazado 1536" d="M86.689,72.607H34.906a2.177,2.177,0,0,1-2.176-2.176V40.981a2.178,2.178,0,0,1,2.176-2.176H86.689a2.179,2.179,0,0,1,2.176,2.176v29.45a2.178,2.178,0,0,1-2.176,2.176M35.118,70.218H86.475V41.194H35.118Z" fill="#3e145e"/>
    <path id="Trazado_1537" data-name="Trazado 1537" d="M93.881,94.642H27.713A5.022,5.022,0,0,1,22.7,89.627V86.88a1.2,1.2,0,0,1,1.2-1.195H97.7A1.2,1.2,0,0,1,98.9,86.88v2.747a5.021,5.021,0,0,1-5.017,5.015M25.086,88.074v1.553a2.631,2.631,0,0,0,2.627,2.627H93.881a2.632,2.632,0,0,0,2.628-2.627V88.074Z" fill="#3e145e"/>
    <path id="Trazado_1538" data-name="Trazado 1538" d="M23.892,88.074a1.2,1.2,0,0,1-1.141-1.551l1.792-5.733a1.194,1.194,0,0,1,2.28.713l-1.791,5.733a1.2,1.2,0,0,1-1.14.838" fill="#3e145e"/>
    <path id="Trazado_1539" data-name="Trazado 1539" d="M97.7,88.074a1.2,1.2,0,0,1-1.139-.838L94.771,81.5a1.194,1.194,0,0,1,2.28-.713l1.792,5.733A1.2,1.2,0,0,1,97.7,88.074" fill="#3e145e"/>
    <path id="Trazado_1540" data-name="Trazado 1540" d="M73.7,83.774h-41.8a1.195,1.195,0,0,1,0-2.389H73.7a1.195,1.195,0,0,1,0,2.389" fill="#3e145e"/>
    <path id="Trazado_1541" data-name="Trazado 1541" d="M59.5,29.908h6l2.713,2.784,2.826,2.938.457,3.763-1.976,1.151-2.14,2.7-1.215,4.124-5.3,1.69L57.184,47.2l-2.955-2.632L52.8,40.544,52.033,39,50.1,36.845l1.771-1.8.922-3.363,2.344-3.629H56.9Z" fill="#fff"/>
    <path id="Trazado_1542" data-name="Trazado 1542" d="M76.207,54.029l-3.976-1.083a1.072,1.072,0,0,0-.772-1.246l-4.414-1.226h0a1.109,1.109,0,0,0-.4-.026,9.518,9.518,0,0,1-.483-3.083,9.018,9.018,0,0,0,3.261-5.9,3.273,3.273,0,0,0,1.085-.528,2.561,2.561,0,0,0,.985-1.545c.384-1.749.234-2.98-.457-3.764a2.13,2.13,0,0,0-.742-.518,14.523,14.523,0,0,0,.976-6.961,9.525,9.525,0,0,0-7.553-7.91,8.256,8.256,0,0,0-7.445,2.052,6.991,6.991,0,0,0-4.743,1.9c-1.44,1.441-2.11,3.563-1.99,6.307a9.77,9.77,0,0,0,1.528,4.8,2.083,2.083,0,0,0-.4.34c-.685.784-.831,2.012-.449,3.756a2.558,2.558,0,0,0,.985,1.543,3.258,3.258,0,0,0,1.085.529,9.1,9.1,0,0,0,3.084,5.758l.005.155a10.024,10.024,0,0,1-.452,3.07,1.04,1.04,0,0,0-.364.024L50.149,51.7a1.081,1.081,0,0,0-.7.612,1.067,1.067,0,0,0-.06.684l-2.027.54h0l-1.925.514a8.029,8.029,0,0,0-5.982,7.728v9.134a1.115,1.115,0,0,0,1.113,1.114H81.031a1.115,1.115,0,0,0,1.113-1.114V61.746a8.036,8.036,0,0,0-5.937-7.717m-34.9,7.748a6.147,6.147,0,0,1,4.029-5.729,9.326,9.326,0,0,0-.731,4.033,4.579,4.579,0,0,0-1.857,1.9,5.982,5.982,0,0,0-.352,4.548,6.365,6.365,0,0,0,.54,1.182l.195.315a.637.637,0,0,0,.843.23l1.133-.6a.929.929,0,0,0,.338-1.335.955.955,0,0,0-1.244-.286l-.012.006c-.006-.02-.013-.041-.019-.06a4.105,4.105,0,0,1,.217-3.126,2.626,2.626,0,0,1,1.552-1.327c1.6-.483,3.4.747,4.014,2.734.021.065.039.135.057.206l-.134.036a.928.928,0,0,0,.486,1.792l.9-.245.306-.1A.637.637,0,0,0,52,65.278l-.025-.269a6.519,6.519,0,0,0-.252-1.3,5.559,5.559,0,0,0-5.266-4.134,6.042,6.042,0,0,1,1.573-4.3l2.191-.584,1.224,2.373-1.077,1a1.087,1.087,0,0,0-.181,1.373l6.759,10.728H41.306ZM52.033,39c-.27-1.236-.159-1.914.035-2.137a.326.326,0,0,1,.164-.086,1.063,1.063,0,0,0,1.122.168,1.087,1.087,0,0,0,.64-1.117c-.537-4.958,1.111-6.76,2.033-7.368.911.945,3.142,2.427,8.171,2.457a2.952,2.952,0,0,1,2.433,1.234,6.437,6.437,0,0,1,1,3.884,1.075,1.075,0,0,0,.826,1.079,1.021,1.021,0,0,0,.261.033,1.069,1.069,0,0,0,.8-.355.314.314,0,0,1,.133.069c.2.222.307.9.037,2.139a.739.739,0,0,1-.255.434,1.015,1.015,0,0,1-.6.255,1.1,1.1,0,0,0-.8.248,1.079,1.079,0,0,0-.382.739c-.088,1.083-.835,6.487-6.783,6.526-5.808-.038-6.671-5.005-6.8-6.523a1.077,1.077,0,0,0-1.08-.994.922.922,0,0,0-.1.005,1.035,1.035,0,0,1-.6-.257A.733.733,0,0,1,52.033,39m4.51-14.846a1.077,1.077,0,0,0,.775-.3,6.439,6.439,0,0,1,6.018-1.8,7.664,7.664,0,0,1,6.1,6.346,11.531,11.531,0,0,1-.373,4.524,7.084,7.084,0,0,0-.9-1.834,4.8,4.8,0,0,0-3.95-2.037c-5.572-.034-6.93-1.941-7.066-2.159a1.079,1.079,0,0,0-1.292-.432c-.653.248-3.522,1.629-3.8,6.756a7.8,7.8,0,0,1-.661-2.8c-.1-2.2.391-3.855,1.448-4.913A5.191,5.191,0,0,1,56.4,24.148l.144,0m4.321,24.905a9.4,9.4,0,0,0,3.484-.65,8.885,8.885,0,0,0,1.151,3.9l-.708,3.781a21.351,21.351,0,0,1-7.972.011L56.1,52.277a9.172,9.172,0,0,0,1.106-3.937,9.338,9.338,0,0,0,3.655.715M75.546,61.608a1.168,1.168,0,1,1-1.191,1.167,1.18,1.18,0,0,1,1.191-1.167M59.454,70.169,57.185,58.051a22.975,22.975,0,0,0,7.24-.008L62.154,70.169ZM51.56,53.234l2.695-.748L56.9,66.608l-4.8-7.615,1.041-.97a1.091,1.091,0,0,0,.223-1.29Zm15.794-.748,2.7.748-1.807,3.5a1.086,1.086,0,0,0,.226,1.29l1.039.968-4.8,7.615ZM80.289,70.169H64.661l6.76-10.73a1.09,1.09,0,0,0-.181-1.37l-1.079-1,1.249-2.418,1.379.375a.858.858,0,0,0,.136.154c.018.013,1.728,1.405,1.691,4.735a3.047,3.047,0,1,0,1.857,0,9.134,9.134,0,0,0-.854-4.117l.1.027a6.179,6.179,0,0,1,4.569,5.926Z" fill="#3e145e"/>
  </g>
</svg>
