<svg xmlns="http://www.w3.org/2000/svg" xmlns:xlink="http://www.w3.org/1999/xlink" width="86.617" height="64.723" viewBox="0 0 86.617 64.723">
  <defs>
    <clipPath id="clip-path">
      <rect id="Rectángulo_22" data-name="Rectángulo 22" width="86.617" height="64.723" transform="translate(0 0)" fill="none"/>
    </clipPath>
  </defs>
  <g id="Grupo_14" data-name="Grupo 14" transform="translate(0 0)">
    <g id="Grupo_13" data-name="Grupo 13" clip-path="url(#clip-path)">
      <path id="Trazado_88" data-name="Trazado 88" d="M59.142,17.209l9.786,5.462-4.646,1.35,4.143,10.012h4.751S75.392,54.192,62.915,60.09c0,0-19.012,6.942-28.88-4.565l-4.059-9.991-3.244,1.5s-1.251-13.263,1.742-15.306c0,0,5.3-.885,6.435-10.908,0,0,25.136,5.647,24.233-3.611" fill="#ffe227"/>
      <path id="Trazado_89" data-name="Trazado 89" d="M24.73,33.652a1.417,1.417,0,0,1-.084-2.831c7.675-.46,8.814-8.431,8.858-8.771a1.418,1.418,0,0,1,1.4-1.231h19.4a1.417,1.417,0,0,1,0,2.833H36.08c-.928,3.83-4.1,9.567-11.264,10l-.086,0" fill="#3e145e"/>
      <path id="Trazado_90" data-name="Trazado 90" d="M75.173,53.65H69.305a1.417,1.417,0,0,1,0-2.833h5.868A3.772,3.772,0,0,0,78.964,47.9a3.588,3.588,0,0,0-3.523-4.248,1.417,1.417,0,1,1,0-2.833h4.494A3.771,3.771,0,0,0,83.726,37.9,3.587,3.587,0,0,0,80.2,33.652l-4.174-.037a1.417,1.417,0,0,1,.012-2.833,2.8,2.8,0,0,0,2.227-.981,3.933,3.933,0,0,0,.7-3.229,3.772,3.772,0,0,0-3.791-2.92H66.592a1.417,1.417,0,1,1,0-2.833h8.581a6.632,6.632,0,0,1,6.582,5.261,6.969,6.969,0,0,1-.78,4.784,6.425,6.425,0,0,1,5.542,7.527A6.586,6.586,0,0,1,80.732,43.6a6.462,6.462,0,0,1,1.023,4.785,6.632,6.632,0,0,1-6.582,5.261" fill="#3e145e"/>
      <path id="Trazado_91" data-name="Trazado 91" d="M50.126,63.648H35.49A46.77,46.77,0,0,1,21.6,61.541,48.473,48.473,0,0,0,7.225,59.363H1.417a1.417,1.417,0,1,1,0-2.833H7.225a51.283,51.283,0,0,1,15.213,2.306A43.982,43.982,0,0,0,35.49,60.815H50.126a1.417,1.417,0,0,1,0,2.833" fill="#3e145e"/>
      <path id="Trazado_92" data-name="Trazado 92" d="M64.7,63.648H50.127a1.417,1.417,0,1,1,0-2.833H64.7a3.771,3.771,0,0,0,3.79-2.919,3.6,3.6,0,0,0-1.114-3.316,1.416,1.416,0,0,1,1.9-2.1,6.42,6.42,0,0,1,2,5.9,6.632,6.632,0,0,1-6.581,5.26" fill="#3e145e"/>
      <path id="Trazado_93" data-name="Trazado 93" d="M54.312,23.652a1.417,1.417,0,1,1,0-2.833A5.012,5.012,0,0,0,59.3,15.356a5.226,5.226,0,0,0-5.325-4.56H34.618a13.827,13.827,0,0,0-9.457,3.722l-9.4,8.754a1.413,1.413,0,0,1-.965.38H1.416a1.417,1.417,0,1,1,0-2.833H14.235l9-8.375A16.651,16.651,0,0,1,34.618,7.963h19.36a8.074,8.074,0,0,1,8.147,7.147,7.776,7.776,0,0,1-2.03,6,7.865,7.865,0,0,1-5.783,2.544" fill="#3e145e"/>
      <path id="Trazado_94" data-name="Trazado 94" d="M1.416,64.723A1.417,1.417,0,0,1,0,63.306V17.832a1.417,1.417,0,0,1,2.833,0V63.306a1.416,1.416,0,0,1-1.416,1.417" fill="#3e145e"/>
      <path id="Trazado_95" data-name="Trazado 95" d="M28.069,47.982a1.393,1.393,0,0,1-.492-.089,1.412,1.412,0,0,1-.845-.859,24.684,24.684,0,0,1-.2-15.878,1.417,1.417,0,0,1,2.694.879,21.929,21.929,0,0,0-1.076,6.808,21.666,21.666,0,0,0,.745,5.608l36.71-21.195A21.824,21.824,0,0,0,59.79,19.1a1.416,1.416,0,1,1,1.248-2.543,24.736,24.736,0,0,1,7.89,6.11,1.415,1.415,0,0,1-.365,2.151L28.777,47.793a1.422,1.422,0,0,1-.708.189" fill="#3e145e"/>
      <path id="Trazado_96" data-name="Trazado 96" d="M50.126,63.648a24.67,24.67,0,0,1-17.255-7,1.417,1.417,0,0,1,.278-2.245L72.092,31.915a1.417,1.417,0,0,1,2.082.882A24.77,24.77,0,0,1,50.126,63.648M36.262,55.873A21.944,21.944,0,0,0,71.812,35.35Z" fill="#3e145e"/>
      <path id="Trazado_97" data-name="Trazado 97" d="M35.264,56.233a1.417,1.417,0,0,1-1.229-.708l-5.37-9.3a1.417,1.417,0,0,1,.517-1.935l35.1-20.265a1.416,1.416,0,0,1,1.935.519l5.372,9.3a1.421,1.421,0,0,1-.519,1.936l-35.1,20.265a1.421,1.421,0,0,1-.707.189m-3.438-10.2,3.954,6.85L68.426,34.033l-3.954-6.849Z" fill="#3e145e"/>
      <path id="Trazado_98" data-name="Trazado 98" d="M74.577,17.225a1.42,1.42,0,0,1-.617-.141c-5.612-2.716-7.676-6.143-8.419-8.541A6.608,6.608,0,0,1,65.2,6.864a4.09,4.09,0,0,1-.021-.553A6.158,6.158,0,0,1,71.107,0a5.637,5.637,0,0,1,3.47,1.2A5.647,5.647,0,0,1,78.049,0,6.162,6.162,0,0,1,83.98,6.348a4.378,4.378,0,0,1-.026.546,6.64,6.64,0,0,1-.346,1.666c-.746,2.4-2.813,5.812-8.413,8.524a1.425,1.425,0,0,1-.618.141M68.008,6.411c0,.038,0,.112.014.218a3.911,3.911,0,0,0,.21,1.027c.466,1.505,1.889,4.237,6.345,6.567,4.462-2.332,5.881-5.064,6.331-6.521a4.028,4.028,0,0,0,.224-1.046c.013-.153.016-.235.015-.264a3.347,3.347,0,0,0-3.1-3.559,2.96,2.96,0,0,0-2.344,1.224,1.418,1.418,0,0,1-2.256,0,2.953,2.953,0,0,0-2.342-1.224,3.335,3.335,0,0,0-3.1,3.523c0,.019,0,.036,0,.055" fill="#3e145e"/>
    </g>
  </g>
</svg>
