<svg xmlns="http://www.w3.org/2000/svg" xmlns:xlink="http://www.w3.org/1999/xlink" width="87.337" height="66.101" viewBox="0 0 87.337 66.101">
  <defs>
    <clipPath id="clip-path">
      <rect width="87.337" height="66.101" fill="none"/>
    </clipPath>
    <clipPath id="clip-path-2">
      <rect id="Rectángulo_39" data-name="Rectángulo 39" width="87.337" height="66.101" transform="translate(0 0)" fill="none"/>
    </clipPath>
  </defs>
  <g id="Cuadrícula_de_repetición_2" data-name="Cuadrícula de repetición 2" clip-path="url(#clip-path)">
    <g id="Grupo_36" data-name="Grupo 36">
      <g id="Grupo_35" data-name="Grupo 35" clip-path="url(#clip-path-2)">
        <path id="Trazado_356" data-name="Trazado 356" d="M80.843,41.843H7.464a6.494,6.494,0,0,1-6.5-6.494V29.51a6.5,6.5,0,0,1,6.5-6.5H80.843a6.5,6.5,0,0,1,6.495,6.5v5.839a6.494,6.494,0,0,1-6.495,6.494" fill="#ffe227"/>
        <path id="Trazado_357" data-name="Trazado 357" d="M18.4,23.533c-.044,0-.088,0-.133-.005a1.418,1.418,0,0,1-1.279-1.542c.539-5.81,5.023-10.193,10.432-10.193.209,0,.417.007.624.018a1.417,1.417,0,0,1-.177,2.829c-.149-.009-.3-.014-.447-.014-3.936,0-7.208,3.276-7.611,7.621A1.416,1.416,0,0,1,18.4,23.533" fill="#3e145e"/>
        <path id="Trazado_358" data-name="Trazado 358" d="M43.669,66.1a1.414,1.414,0,0,1-.616-.142C29.634,59.466,19.7,51.351,13.541,41.838a1.416,1.416,0,0,1,1.189-2.187H72.608A1.416,1.416,0,0,1,73.8,41.838a53.3,53.3,0,0,1-5.931,7.514,1.416,1.416,0,1,1-2.061-1.943,51.983,51.983,0,0,0,4.106-4.925H17.425c5.843,8,14.655,14.926,26.244,20.625A90.5,90.5,0,0,0,56.02,55.832a1.416,1.416,0,1,1,1.637,2.311,93.735,93.735,0,0,1-13.371,7.816,1.418,1.418,0,0,1-.617.142" fill="#3e145e"/>
        <path id="Trazado_359" data-name="Trazado 359" d="M78.726,23.544H8.611A1.417,1.417,0,0,1,7.2,22.067C7.715,9.692,17.032,0,28.41,0A20.4,20.4,0,0,1,43.668,7.025,20.394,20.394,0,0,1,58.927,0C70.3,0,79.622,9.692,80.141,22.067a1.418,1.418,0,0,1-1.415,1.477M10.137,20.711H77.2C76.112,10.572,68.329,2.833,58.927,2.833A17.762,17.762,0,0,0,44.8,10.111a1.469,1.469,0,0,1-2.256,0A17.761,17.761,0,0,0,28.41,2.833c-9.4,0-17.186,7.739-18.273,17.878" fill="#3e145e"/>
        <path id="Trazado_360" data-name="Trazado 360" d="M81.964,42.483H5.374A5.38,5.38,0,0,1,0,37.11V26.084a5.38,5.38,0,0,1,5.374-5.373h76.59a5.38,5.38,0,0,1,5.374,5.373V37.11a5.38,5.38,0,0,1-5.374,5.373M5.374,23.544a2.544,2.544,0,0,0-2.541,2.54V37.11a2.543,2.543,0,0,0,2.541,2.54h76.59A2.544,2.544,0,0,0,84.5,37.11V26.084a2.544,2.544,0,0,0-2.541-2.54Z" fill="#3e145e"/>
        <path id="Trazado_361" data-name="Trazado 361" d="M70.884,37.385a1.513,1.513,0,0,1-.291-.03,1.415,1.415,0,0,1-1.065-.979l-2.141-7.113L63.2,32.694a1.411,1.411,0,0,1-.9.32H54.128a1.417,1.417,0,0,1-1.263-.775L50.9,28.352l-6.1,8.066a1.4,1.4,0,0,1-1.269.556,1.418,1.418,0,0,1-1.136-.793l-3.147-6.5L36.93,32.5a1.418,1.418,0,0,1-1.1.518H28.469a1.418,1.418,0,0,1-1.351-.989l-.685-2.165-4.989,6.935a1.418,1.418,0,0,1-2.18.146l-3.708-3.927H1.417a1.416,1.416,0,1,1,0-2.832H16.166a1.418,1.418,0,0,1,1.03.443l2.95,3.123,5.635-7.834a1.417,1.417,0,0,1,2.5.4l1.225,3.868h5.658l3.3-4.016a1.416,1.416,0,0,1,2.37.282l3.1,6.414L50,24.834a1.418,1.418,0,0,1,2.394.214L55,30.182h6.8l5.437-4.456a1.417,1.417,0,0,1,2.254.687l2,6.658,2.038-2.392a1.415,1.415,0,0,1,1.078-.5H85.921a1.416,1.416,0,1,1,0,2.832H75.261l-3.3,3.873a1.419,1.419,0,0,1-1.078.5" fill="#3e145e"/>
      </g>
    </g>
  </g>
</svg>
