<svg id="Grupo_12" data-name="Grupo 12" xmlns="http://www.w3.org/2000/svg" xmlns:xlink="http://www.w3.org/1999/xlink" width="121.595" height="121.595" viewBox="0 0 121.595 121.595">
  <defs>
    <clipPath id="clip-path">
      <rect id="Rectángulo_21" data-name="Rectángulo 21" width="121.595" height="121.595" fill="none"/>
    </clipPath>
  </defs>
  <g id="Grupo_11" data-name="Grupo 11" clip-path="url(#clip-path)">
    <path id="Trazado_72" data-name="Trazado 72" d="M119.427,60.8A58.63,58.63,0,1,1,60.8,2.168a58.629,58.629,0,0,1,58.63,58.63" fill="#fff"/>
    <path id="Trazado_73" data-name="Trazado 73" d="M60.8,121.6a60.8,60.8,0,1,1,60.8-60.8,60.867,60.867,0,0,1-60.8,60.8m0-117.26A56.462,56.462,0,1,0,117.26,60.8,56.526,56.526,0,0,0,60.8,4.335" fill="#3e145e"/>
    <rect id="Rectángulo_16" data-name="Rectángulo 16" width="12.224" height="21.573" transform="translate(56.26 37.563)" fill="#ffe227"/>
    <rect id="Rectángulo_17" data-name="Rectángulo 17" width="12.224" height="21.573" transform="translate(86.653 37.563)" fill="#ffe227"/>
    <rect id="Rectángulo_18" data-name="Rectángulo 18" width="22.474" height="17.597" transform="translate(65.874 38.898)" fill="#ffe227"/>
    <rect id="Rectángulo_19" data-name="Rectángulo 19" width="8.193" height="5.57" transform="translate(73.092 56.064)" fill="#ffe227"/>
    <rect id="Rectángulo_20" data-name="Rectángulo 20" width="6.397" height="24.599" transform="translate(74.888 61.378)" fill="#ffe227"/>
    <path id="Trazado_74" data-name="Trazado 74" d="M98.509,93.969H25.187a1.332,1.332,0,0,1-1.332-1.332V38.166a1.334,1.334,0,0,1,.454-1l20.3-17.814a1.328,1.328,0,0,1,.877-.331h31.6a1.332,1.332,0,0,1,1.332,1.332V34.137a1.332,1.332,0,1,1-2.664,0V21.684H45.991L26.519,38.77V91.305h71.99a1.332,1.332,0,0,1,0,2.664" fill="#3e145e"/>
    <path id="Trazado_75" data-name="Trazado 75" d="M61.646,30.372H45.491a1.332,1.332,0,1,1,0-2.664H61.646a1.332,1.332,0,1,1,0,2.664" fill="#3e145e"/>
    <path id="Trazado_76" data-name="Trazado 76" d="M51.02,37.563H45.491a1.332,1.332,0,1,1,0-2.664H51.02a1.332,1.332,0,0,1,0,2.664" fill="#3e145e"/>
    <path id="Trazado_77" data-name="Trazado 77" d="M51.02,44.754H32.456a1.332,1.332,0,0,1,0-2.664H51.02a1.332,1.332,0,0,1,0,2.664" fill="#3e145e"/>
    <path id="Trazado_78" data-name="Trazado 78" d="M51.02,51.945H32.456a1.332,1.332,0,0,1,0-2.664H51.02a1.332,1.332,0,1,1,0,2.664" fill="#3e145e"/>
    <path id="Trazado_79" data-name="Trazado 79" d="M51.02,59.136H32.456a1.332,1.332,0,1,1,0-2.664H51.02a1.332,1.332,0,0,1,0,2.664" fill="#3e145e"/>
    <path id="Trazado_80" data-name="Trazado 80" d="M69.823,66.328H32.456a1.332,1.332,0,1,1,0-2.664H69.823a1.332,1.332,0,0,1,0,2.664" fill="#3e145e"/>
    <path id="Trazado_81" data-name="Trazado 81" d="M69.823,73.519H32.456a1.332,1.332,0,1,1,0-2.664H69.823a1.332,1.332,0,0,1,0,2.664" fill="#3e145e"/>
    <path id="Trazado_82" data-name="Trazado 82" d="M45.491,39.5h-20.3a1.332,1.332,0,0,1-.878-2.333l20.3-17.815a1.332,1.332,0,0,1,2.21,1V38.167A1.333,1.333,0,0,1,45.491,39.5M28.724,36.835H44.159V23.293Z" fill="#3e145e"/>
    <path id="Trazado_83" data-name="Trazado 83" d="M77.572,59.019A35.811,35.811,0,0,1,67.753,57.7a1.333,1.333,0,0,1-.961-1.279V40.256a1.333,1.333,0,0,1,.961-1.279,37.873,37.873,0,0,1,19.64,0,1.332,1.332,0,0,1,.96,1.279V56.419a1.332,1.332,0,0,1-.96,1.279,35.809,35.809,0,0,1-9.821,1.321M69.456,55.4a35.507,35.507,0,0,0,16.233,0V41.276a35.548,35.548,0,0,0-16.233,0Z" fill="#3e145e"/>
    <path id="Trazado_84" data-name="Trazado 84" d="M95.551,60.711h-5.57a4.3,4.3,0,0,1-4.291-4.292V40.256a4.3,4.3,0,0,1,4.291-4.29h5.57a4.3,4.3,0,0,1,4.29,4.29V56.419a4.3,4.3,0,0,1-4.29,4.292M89.981,38.63a1.629,1.629,0,0,0-1.627,1.626V56.419a1.63,1.63,0,0,0,1.627,1.628h5.57a1.629,1.629,0,0,0,1.627-1.628V40.256a1.629,1.629,0,0,0-1.627-1.626Z" fill="#3e145e"/>
    <path id="Trazado_85" data-name="Trazado 85" d="M65.165,60.711H59.6a4.3,4.3,0,0,1-4.29-4.292V40.256a4.3,4.3,0,0,1,4.29-4.29h5.57a4.3,4.3,0,0,1,4.291,4.29V56.419a4.3,4.3,0,0,1-4.291,4.292M59.6,38.63a1.629,1.629,0,0,0-1.627,1.626V56.419A1.63,1.63,0,0,0,59.6,58.047h5.57a1.629,1.629,0,0,0,1.627-1.628V40.256a1.628,1.628,0,0,0-1.627-1.626Z" fill="#3e145e"/>
    <path id="Trazado_86" data-name="Trazado 86" d="M77.572,88.659a4.481,4.481,0,0,1-4.479-4.6l.581-22.311a1.33,1.33,0,0,1,2.18-.99,2.734,2.734,0,0,0,3.437,0,1.33,1.33,0,0,1,2.18.99l.582,22.311a4.483,4.483,0,0,1-4.481,4.6M76.283,63.884l-.527,20.247a1.8,1.8,0,0,0,.514,1.315,1.86,1.86,0,0,0,2.6,0,1.8,1.8,0,0,0,.515-1.316l-.526-20.246a5.412,5.412,0,0,1-2.58,0" fill="#3e145e"/>
    <path id="Trazado_87" data-name="Trazado 87" d="M77.573,64.042A5.364,5.364,0,0,1,72.452,57.1a1.321,1.321,0,0,1,1.41-.931,36.384,36.384,0,0,0,7.422,0,1.33,1.33,0,0,1,1.41.929,5.365,5.365,0,0,1-5.121,6.949m-2.685-5.116a2.7,2.7,0,0,0,5.371,0,39.135,39.135,0,0,1-5.371,0" fill="#3e145e"/>
  </g>
</svg>
