<svg id="Grupo_6" data-name="Grupo 6" xmlns="http://www.w3.org/2000/svg" xmlns:xlink="http://www.w3.org/1999/xlink" width="121.595" height="121.595" viewBox="0 0 121.595 121.595">
  <defs>
    <clipPath id="clip-path">
      <rect id="Rectángulo_13" data-name="Rectángulo 13" width="121.595" height="121.595" fill="none"/>
    </clipPath>
  </defs>
  <g id="Grupo_5" data-name="Grupo 5" clip-path="url(#clip-path)">
    <path id="Trazado_31" data-name="Trazado 31" d="M119.427,60.8A58.63,58.63,0,1,1,60.8,2.168a58.63,58.63,0,0,1,58.63,58.63" fill="#fff"/>
    <path id="Trazado_32" data-name="Trazado 32" d="M60.8,121.6a60.8,60.8,0,1,1,60.8-60.8,60.866,60.866,0,0,1-60.8,60.8m0-117.259A56.462,56.462,0,1,0,117.26,60.8,56.526,56.526,0,0,0,60.8,4.336" fill="#3e145e"/>
    <rect id="Rectángulo_6" data-name="Rectángulo 6" width="5.931" height="19.489" transform="translate(39.703 48.63)" fill="#ffe227"/>
    <rect id="Rectángulo_7" data-name="Rectángulo 7" width="5.931" height="17.331" transform="translate(77.328 50.788)" fill="#ffe227"/>
    <rect id="Rectángulo_8" data-name="Rectángulo 8" width="5.48" height="23.376" transform="translate(44.479 47.708)" fill="#ffe227"/>
    <rect id="Rectángulo_9" data-name="Rectángulo 9" width="5.48" height="23.376" transform="translate(72.233 47.708)" fill="#ffe227"/>
    <rect id="Rectángulo_10" data-name="Rectángulo 10" width="25.9" height="14.532" transform="translate(47.219 51.599)" fill="#ffe227"/>
    <rect id="Rectángulo_11" data-name="Rectángulo 11" width="8.229" height="5.029" transform="translate(56.78 66.13)" fill="#ffe227"/>
    <rect id="Rectángulo_12" data-name="Rectángulo 12" width="5.791" height="24.036" transform="translate(58.335 69.267)" fill="#ffe227"/>
    <path id="Trazado_33" data-name="Trazado 33" d="M65.009,93.21a3.78,3.78,0,1,1-3.779-3.78,3.778,3.778,0,0,1,3.779,3.78" fill="#ffe227"/>
    <path id="Trazado_34" data-name="Trazado 34" d="M91.2,86.651H68.024a1.187,1.187,0,0,1,0-2.374H90.008V79.345a1.187,1.187,0,1,1,2.374,0v6.119A1.187,1.187,0,0,1,91.2,86.651" fill="#3e145e"/>
    <path id="Trazado_35" data-name="Trazado 35" d="M54.437,86.651H31.265a1.187,1.187,0,0,1-1.186-1.187V79.345a1.187,1.187,0,1,1,2.374,0v4.932H54.437a1.187,1.187,0,1,1,0,2.374" fill="#3e145e"/>
    <path id="Trazado_36" data-name="Trazado 36" d="M42.167,69.267A3.472,3.472,0,0,1,38.7,65.8V51.882a3.468,3.468,0,1,1,6.936,0V65.8a3.471,3.471,0,0,1-3.467,3.467m0-18.479a1.1,1.1,0,0,0-1.1,1.094V65.8a1.094,1.094,0,0,0,2.188,0V51.882a1.094,1.094,0,0,0-1.093-1.094" fill="#3e145e"/>
    <path id="Trazado_37" data-name="Trazado 37" d="M47.488,72.347a4.233,4.233,0,0,1-4.229-4.228V49.562a4.229,4.229,0,0,1,8.457,0V68.119a4.233,4.233,0,0,1-4.228,4.228m0-24.639a1.856,1.856,0,0,0-1.854,1.854V68.119a1.854,1.854,0,0,0,3.708,0V49.562a1.857,1.857,0,0,0-1.854-1.854" fill="#3e145e"/>
    <path id="Trazado_38" data-name="Trazado 38" d="M71.932,67.318h-21.4a1.187,1.187,0,0,1-1.187-1.187V51.55a1.186,1.186,0,0,1,1.187-1.187h21.4a1.187,1.187,0,0,1,1.187,1.187V66.131a1.188,1.188,0,0,1-1.187,1.187M51.716,64.944H70.745V52.737H51.716Z" fill="#3e145e"/>
    <path id="Trazado_39" data-name="Trazado 39" d="M80.294,69.267A3.471,3.471,0,0,1,76.826,65.8V51.882a3.468,3.468,0,1,1,6.935,0V65.8a3.471,3.471,0,0,1-3.467,3.467m0-18.479A1.094,1.094,0,0,0,79.2,51.882V65.8a1.094,1.094,0,0,0,2.187,0V51.882a1.094,1.094,0,0,0-1.093-1.094" fill="#3e145e"/>
    <path id="Trazado_40" data-name="Trazado 40" d="M74.973,72.347a4.233,4.233,0,0,1-4.228-4.228V49.562a4.228,4.228,0,1,1,8.456,0V68.119a4.233,4.233,0,0,1-4.228,4.228m0-24.639a1.856,1.856,0,0,0-1.854,1.854V68.119a1.854,1.854,0,0,0,3.708,0V49.562a1.857,1.857,0,0,0-1.854-1.854" fill="#3e145e"/>
    <path id="Trazado_41" data-name="Trazado 41" d="M65.519,72.346H56.943a1.187,1.187,0,0,1-1.188-1.187V66.131a1.187,1.187,0,0,1,1.188-1.187h8.576a1.186,1.186,0,0,1,1.186,1.187v5.028a1.186,1.186,0,0,1-1.186,1.187m-7.39-2.374h6.2V67.317h-6.2Z" fill="#3e145e"/>
    <path id="Trazado_42" data-name="Trazado 42" d="M61.224,98.573a5.472,5.472,0,0,1-1.213-.138,5.253,5.253,0,0,1-2.664-8.671.511.511,0,0,0,.1-.335V71.159a1.187,1.187,0,0,1,1.187-1.187h5.185a1.188,1.188,0,0,1,1.187,1.187V89.43a.515.515,0,0,0,.109.34,5.258,5.258,0,0,1-3.894,8.8m-1.4-26.227V89.429a2.852,2.852,0,0,1-.729,1.942,2.88,2.88,0,0,0,1.441,4.749,2.9,2.9,0,0,0,3.59-2.817,2.85,2.85,0,0,0-.759-1.929,2.863,2.863,0,0,1-.732-1.944V72.346Z" fill="#3e145e"/>
    <path id="Trazado_43" data-name="Trazado 43" d="M68.025,82.983a1.187,1.187,0,0,1-.436-2.292C73.05,78.538,82,76.459,94.01,78.48V34.613C73.352,31,62.1,40.012,61.985,40.106a1.19,1.19,0,0,1-1.508,0c-.112-.091-11.432-9.092-32.026-5.493V78.48c12.008-2.022,20.958.058,26.421,2.211A1.187,1.187,0,1,1,54,82.9c-5.383-2.121-14.351-4.16-26.516-1.835a1.2,1.2,0,0,1-.98-.252,1.183,1.183,0,0,1-.43-.914V33.623a1.185,1.185,0,0,1,.964-1.165c19.515-3.735,31.194,3.16,34.19,5.252,3-2.092,14.677-8.984,34.19-5.252a1.185,1.185,0,0,1,.963,1.165V79.9a1.186,1.186,0,0,1-1.409,1.166C82.808,78.739,73.84,80.779,68.46,82.9a1.166,1.166,0,0,1-.435.083" fill="#3e145e"/>
    <path id="Trazado_44" data-name="Trazado 44" d="M61.231,48.63a1.186,1.186,0,0,1-1.187-1.187V39.189a1.187,1.187,0,1,1,2.374,0v8.254a1.187,1.187,0,0,1-1.187,1.187" fill="#3e145e"/>
  </g>
</svg>
