<svg xmlns="http://www.w3.org/2000/svg" xmlns:xlink="http://www.w3.org/1999/xlink" width="80.298" height="87.236" viewBox="0 0 80.298 87.236">
  <defs>
    <clipPath id="clip-path">
      <rect id="Rectángulo_33" data-name="Rectángulo 33" width="80.298" height="87.236" transform="translate(0 0)" fill="none"/>
    </clipPath>
  </defs>
  <g id="Grupo_25" data-name="Grupo 25" transform="translate(0 0)">
    <g id="Grupo_24" data-name="Grupo 24" clip-path="url(#clip-path)">
      <path id="Trazado_289" data-name="Trazado 289" d="M76.151,43.816c-.068-.169-.159-.509-.269-.86A7.944,7.944,0,0,0,78.839,33.7c-1.4-3.746-3.619-5.821-3.391-10.158.217-4.123,1.669-8.124,3.04-11.982s-2.717-6.825-6.15-6.15l-4.3.844a4.751,4.751,0,0,0-1.162-.465,9.974,9.974,0,0,0-4.67-.1c-.639.064-1.273.151-1.9.273-3.463-1.042-7.024-.448-11.033.8-6.49,2.02-11.382,1.527-18.006.275A58.033,58.033,0,0,0,22.42,5.892L17.3,2.382c-2.3-1.576-5.14-.509-6.584,1.532C7.82,3.206,4.964,6.128,4.719,8.958L3.61,21.793a4.116,4.116,0,0,0,.606,2.577c-.69,3.1-1.139,6.231-1.76,8.731a4.737,4.737,0,0,0,2.908,5.767A7.5,7.5,0,0,0,3.877,42.28a7.926,7.926,0,0,0,1.2,5.751,5.007,5.007,0,0,0-.328,5.044C7.6,59.115,15.759,65.009,21.4,58.193a7.869,7.869,0,0,0,.266-9.45,10.924,10.924,0,0,0-2.039-2.2,4.115,4.115,0,0,0,.813-1.786c1.153-6.048,1.522-13.725-5.022-16.865a10.831,10.831,0,0,0-1.242-.493l.093-.376c.29-1.164.568-2.332.868-3.493a13.888,13.888,0,0,1,.6-2.24c.017-.037.023-.061.037-.094A5.478,5.478,0,0,0,18.8,17a23.254,23.254,0,0,0,4.546-.517,4.725,4.725,0,0,0,1.431-.55c2.08.305,4.068.791,5.406,1.051,4.533.88,9.137,1.8,13.771,1.348a31.933,31.933,0,0,0,6.508-1.439l.11-.037a4.908,4.908,0,0,0,5.282,1.958l10.577-2.079a33.719,33.719,0,0,0-1.017,7.589,22.078,22.078,0,0,0,.893,6.612,20.671,20.671,0,0,0,1.331,3.325c.12.207.238.414.357.622-1.828,2.362-2.779,4.41-2.548,7.5.018.228.05.447.08.666A15.556,15.556,0,0,0,61.53,55.241a5.337,5.337,0,0,0-5.653,1.6,5.436,5.436,0,0,0-1.806-1.1c-4.352-1.6-9.2-2.675-13.47-.218a9.616,9.616,0,0,0-4.957,9.358,13.545,13.545,0,0,0,1.633,4.71c1.067,2.115,1.005,2.487.589,4.776-.753,4.132-.253,7.135,3.289,9.7,4.623,3.352,9.067-3.074,6.425-7.189.023-.132.044-.275.06-.453q.32-1.212.522-2.45a13.179,13.179,0,0,0,.118-3.768,11.667,11.667,0,0,0,14.773-2.733A11.122,11.122,0,0,0,73.4,64.414a5.113,5.113,0,0,0,.407-6.613,8.2,8.2,0,0,0,3.872-5.212,10.981,10.981,0,0,0-.166-5.419,29.681,29.681,0,0,0-1.36-3.354" fill="#ffe227"/>
      <path id="Trazado_290" data-name="Trazado 290" d="M79.569,45.339v0a10.247,10.247,0,0,1-.319-5.355v-.006l0-.006.734-3.534v0A14.436,14.436,0,0,0,79.72,29.4v0L78.71,25.909V25.9a10.616,10.616,0,0,1-.347-4.108v0l.87-8.066A9.726,9.726,0,0,0,69.511,2.658h-.043A6.1,6.1,0,0,1,67.251,2.3h0a11.574,11.574,0,0,0-10.1,1.09,6.155,6.155,0,0,1-3.217.922h0l-7.941.046h0a9.877,9.877,0,0,0-3.591.686l0,0-.005,0-1.6.64-.158.062a7.806,7.806,0,0,0-1.078.487h0a3.968,3.968,0,0,1-4.907-.768c-.013-.015-.028-.028-.042-.043s-.025-.029-.039-.043l-.054-.051L34.5,5.327a7.44,7.44,0,0,0-8.787-1.185l-.017.009-.048.026c-.019.011-.036.023-.054.035s-.04.021-.058.034a2.426,2.426,0,0,1-2.45.134L18.2,1.3l-.051-.028-.047-.029A9.818,9.818,0,0,0,3.6,11.232h0A6.117,6.117,0,0,1,2.635,15.5,11.122,11.122,0,0,0,1.518,25.618,6.105,6.105,0,0,1,1.2,30.634a10.566,10.566,0,0,0,.886,11.179,6.058,6.058,0,0,1,1.02,5.3,11.991,11.991,0,0,0,11.549,15.2,11.574,11.574,0,0,0,2.52-.277h.005l.007,0a10.8,10.8,0,0,0,3.356-1.4,21.864,21.864,0,0,0,13.044,4.3l.187,0a17.112,17.112,0,0,0,2.3,6.761h0a.706.706,0,0,1,.08.57A12.947,12.947,0,0,0,38.8,84.27h0l1.193,1.377,0,0a4.66,4.66,0,0,0,4.712,1.425A4.567,4.567,0,0,0,48,83.451v0l.642-3.484v-.009a4.554,4.554,0,0,0-.1-2.2l0-.008-.459-1.47v0h0a.777.777,0,0,1,.051-.585l1.8-3.429a12.157,12.157,0,0,0,11.485-.583,8.873,8.873,0,0,1,3.348-1.212L68.242,70h0a8.633,8.633,0,0,0,5.508-2.745,8.723,8.723,0,0,0,2.327-5.779,8.746,8.746,0,0,1,1.7-5.031h0a12.413,12.413,0,0,0,1.788-11.11M29.653,60.623a4.609,4.609,0,0,0,1.189-3.7V56.9l-.092-.827,0-.01v-.011a1.659,1.659,0,0,1,.87-1.694l2.476-1.329a1.514,1.514,0,1,0-1.432-2.667l-2.479,1.332h0A4.687,4.687,0,0,0,27.74,56.4v.005l.092.826v.021A1.624,1.624,0,0,1,27,58.907l-.019.012-.011.005-.878.507a18.29,18.29,0,0,1-2.662-1.5,10.8,10.8,0,0,0,0-12.815,6.042,6.042,0,0,1-.947-5.362,10.46,10.46,0,0,0-1.4-8.931,10.186,10.186,0,0,1,12.4.265,1.513,1.513,0,1,0,1.906-2.351,13.117,13.117,0,0,0-9.131-2.906c-.391.025-.781.069-1.166.128a3.352,3.352,0,0,1,.385-2.629,1.514,1.514,0,1,0-2.569-1.6,6.4,6.4,0,0,0-.733,5.033,13.069,13.069,0,0,0-2.75,1.519,6.167,6.167,0,0,1-.18-3.978,11.742,11.742,0,0,0-.263-7.314,6.57,6.57,0,0,1,2.377.746l2.249,1.193h0a9.976,9.976,0,0,0,4.663,1.152c.154,0,.309,0,.464-.01h.01l3.572-.184a6.235,6.235,0,0,1,1.917.254h0l5.657,1.565a7.155,7.155,0,0,0-.915,2.191A20.023,20.023,0,0,0,33.02,22.55a1.514,1.514,0,0,0-.212,3.02A16.958,16.958,0,0,1,39,27.211a7.153,7.153,0,0,0,2.637,4,1.514,1.514,0,0,0,1.82-2.419,4.106,4.106,0,0,1-.087-6.5,10.189,10.189,0,0,0,2.176-.241h.005l6.7-1.514a6.48,6.48,0,0,1,1.682-.14h0l3.391.184h.006c.091.005.18.008.271.011a3.646,3.646,0,0,1-.785,5.182,1.514,1.514,0,0,0,1.757,2.465,6.665,6.665,0,0,0,2.253-8.081,9.79,9.79,0,0,0,1.283-.493l.008,0,.008,0,2.326-1.119.338,2.109a6.119,6.119,0,0,1-.38,3.313v.006l-.87,2.1h0l0,.005v0a9.932,9.932,0,0,0-.624,5.513v0l.734,4.316v.006A6.014,6.014,0,0,1,62.966,40v0a32.468,32.468,0,0,0-2.722,6.091l-1.315-2.017h0a5.546,5.546,0,0,0-2.956-2.265l-4.5-1.468a2.669,2.669,0,0,1-1.454-1.2l0,0v0l-1.286-2.2a1.513,1.513,0,1,0-2.614,1.525l1.285,2.2,0,0a5.729,5.729,0,0,0,3.13,2.555h0l4.5,1.469h0a2.544,2.544,0,0,1,1.358,1.04l2.822,4.326q-.182.931-.309,1.877a1.348,1.348,0,0,1-1.336,1.133h-.1c-.337.01-.673.017-1.01.024-.974.02-1.981.042-2.989.106-.685.045-1.372.1-2.035.16-.334.029-.667.057-1,.083l-.017,0c-.027,0-.052,0-.077.005a5.973,5.973,0,0,1-3.316-.559,9.177,9.177,0,0,0-12.839,5.759l-.008.033-.009.033a16.684,16.684,0,0,0-.42,2.34,18.16,18.16,0,0,1-4.1-.428m38.168,5.531c-.014,0-.027,0-.042.006l-.043,0-3.488.459-.009,0H64.23a12.612,12.612,0,0,0-4.83,1.742,8.248,8.248,0,0,1-8.683-.095l-4.668-3.445a1.937,1.937,0,1,0-2.3,3.117l2.936,2.167L44.7,73.884h0a4.667,4.667,0,0,0-.318,3.539v0L44.84,78.9v0h0a.839.839,0,0,1-.01.35v0l-.642,3.484a.719.719,0,0,1-.494.6.761.761,0,0,1-.773-.222h0l-1.193-1.376a9.083,9.083,0,0,1-1.85-8.429,4.56,4.56,0,0,0-.486-3.61,13.274,13.274,0,0,1-1.868-6.725c0-.049,0-.1,0-.151a13.084,13.084,0,0,1,.392-3.115,5.3,5.3,0,0,1,7.45-3.32h0a9.979,9.979,0,0,0,4.282.974,9.6,9.6,0,0,0,1.072-.06h.026l1.02-.086c.644-.055,1.31-.112,1.955-.154.925-.059,1.846-.079,2.821-.1.332-.007.664-.014,1-.023h.033a5.206,5.206,0,0,0,5.173-4.491,28.569,28.569,0,0,1,3.578-10.513h0a9.975,9.975,0,0,0,1.144-6.674h0v-.006h0l-.734-4.309v-.006a6.074,6.074,0,0,1,.385-3.376v-.006l.872-2.112v0a9.969,9.969,0,0,0,.627-5.4v0h0L68.178,17.3l1.08-.188a1.937,1.937,0,1,0-.661-3.817l-1.833.317a7.953,7.953,0,0,0-2.682.807l-.008,0-3.613,1.738a6.192,6.192,0,0,1-2.931.552h0l-3.391-.184h-.005a10.268,10.268,0,0,0-2.724.228H51.4l-6.7,1.514a6.14,6.14,0,0,1-2.962-.068h0l-6.472-1.79h0a10.027,10.027,0,0,0-3.13-.39h-.01l-3.57.184h0a6.117,6.117,0,0,1-3.136-.7l-2.248-1.192h0a10.047,10.047,0,0,0-5.313-1.209h0A8.534,8.534,0,0,1,16,13.016l-.019,0a6.1,6.1,0,0,1-1.956-.762,1.937,1.937,0,1,0-1.9,3.373,10.8,10.8,0,0,0,2.346,1.008,7.853,7.853,0,0,1,1.054,6.6,9.974,9.974,0,0,0,1.95,9.237,6.6,6.6,0,0,1,1.294,6.178,9.886,9.886,0,0,0,1.545,8.773,6.922,6.922,0,0,1-.979,9.286l-.028.023a6.9,6.9,0,0,1-2.988,1.528,8.106,8.106,0,0,1-9.485-10.1,9.9,9.9,0,0,0-1.647-8.666h0a6.673,6.673,0,0,1-.557-7.058,9.984,9.984,0,0,0,.51-8.2,7.242,7.242,0,0,1,.722-6.589,9.986,9.986,0,0,0,1.58-6.962v0a5.925,5.925,0,0,1,2.5-5.75A6.035,6.035,0,0,1,16.2,4.62L21.1,7.7c.034.02.067.04.1.058l.013.008,0,0,.039.02a6.287,6.287,0,0,0,6.329-.257,3.556,3.556,0,0,1,4.237.586,7.782,7.782,0,0,0,5.751,2.509A7.884,7.884,0,0,0,41.457,9.61h0a4.651,4.651,0,0,1,.571-.247l.184-.072h0l0,0,1.6-.64a6.037,6.037,0,0,1,2.19-.415h0l7.942-.046h0a10.033,10.033,0,0,0,5.237-1.5h0a7.722,7.722,0,0,1,6.738-.739,9.95,9.95,0,0,0,3.4.591c.071,0,.142,0,.215,0a5.855,5.855,0,0,1,5.842,6.691c0,.012,0,.024,0,.036a.223.223,0,0,0,0,.036l-.874,8.08h0a14.5,14.5,0,0,0,.479,5.609v0L76,30.475v.006a10.543,10.543,0,0,1,.194,5.155v.012l-.734,3.534v0a14.07,14.07,0,0,0,.426,7.343,8.537,8.537,0,0,1-1.23,7.636h0a12.6,12.6,0,0,0-2.446,7.249,4.873,4.873,0,0,1-4.385,4.74" fill="#3e145e"/>
      <path id="Trazado_291" data-name="Trazado 291" d="M51.373,31.132h0A3.84,3.84,0,0,1,53.8,33.213a18.124,18.124,0,0,0,3.345,4.894,1.514,1.514,0,0,0,2.187-2.094,15.075,15.075,0,0,1-2.788-4.077A6.86,6.86,0,0,0,52.2,28.22h0a2.977,2.977,0,0,1-2.114-2.351,1.513,1.513,0,0,0-2.983.512,6.018,6.018,0,0,0,4.275,4.752" fill="#3e145e"/>
      <path id="Trazado_292" data-name="Trazado 292" d="M37.348,40.145h0a6.909,6.909,0,0,0,3.819,5.087h0a6.8,6.8,0,0,1,3.585,4.17,1.513,1.513,0,0,0,2.9-.864A9.85,9.85,0,0,0,42.479,42.5a3.93,3.93,0,0,1-2.145-2.854h0A8.08,8.08,0,0,0,34.2,33.092a1.513,1.513,0,0,0-.695,2.946,5.062,5.062,0,0,1,3.84,4.107" fill="#3e145e"/>
      <path id="Trazado_293" data-name="Trazado 293" d="M31.211,44.251a2.32,2.32,0,0,1-.613-4.005,1.514,1.514,0,1,0-1.858-2.39,5.347,5.347,0,0,0,1.412,9.231,1.533,1.533,0,0,0,.529.1,1.514,1.514,0,0,0,.53-2.932" fill="#3e145e"/>
    </g>
  </g>
</svg>
