<svg id="Grupo_8" data-name="Grupo 8" xmlns="http://www.w3.org/2000/svg" xmlns:xlink="http://www.w3.org/1999/xlink" width="121.595" height="121.595" viewBox="0 0 121.595 121.595">
  <defs>
    <clipPath id="clip-path">
      <rect id="Rectángulo_14" data-name="Rectángulo 14" width="121.595" height="121.595" fill="none"/>
    </clipPath>
  </defs>
  <g id="Grupo_7" data-name="Grupo 7" clip-path="url(#clip-path)">
    <path id="Trazado_45" data-name="Trazado 45" d="M119.427,60.8A58.63,58.63,0,1,1,60.8,2.168,58.63,58.63,0,0,1,119.427,60.8" fill="#fff"/>
    <path id="Trazado_46" data-name="Trazado 46" d="M60.8,121.6a60.8,60.8,0,1,1,60.8-60.8,60.867,60.867,0,0,1-60.8,60.8m0-117.26A56.462,56.462,0,1,0,117.26,60.8,56.526,56.526,0,0,0,60.8,4.335" fill="#3e145e"/>
    <path id="Trazado_47" data-name="Trazado 47" d="M61.794,103.729S94.927,88.672,100.737,60.8c0,0,1.69-28.753-24.873-28.707,0,0-12.844,4.37-14.07,8.665,0,0-9.146-12.885-26.28-6.317,0,0-17.89,12.007-11,28.811,0,0,.1,18.063,37.277,40.479" fill="#ffe227"/>
    <path id="Trazado_48" data-name="Trazado 48" d="M24.517,63.249A1.443,1.443,0,0,1,23.1,62.072a27.289,27.289,0,0,1-.394-3.013,18.028,18.028,0,0,1-.093-2.038c0-13.887,10.377-25.181,23.132-25.181a22.2,22.2,0,0,1,16.676,7.734A22.2,22.2,0,0,1,79.1,31.84a21.415,21.415,0,0,1,7.187,1.239A1.443,1.443,0,1,1,85.32,35.8,18.548,18.548,0,0,0,79.1,34.727a19.516,19.516,0,0,0-15.527,8,1.5,1.5,0,0,1-2.3,0,19.522,19.522,0,0,0-15.528-8c-11.155,0-20.23,9.982-20.246,22.258a15.669,15.669,0,0,0,.083,1.832,24.736,24.736,0,0,0,.355,2.722,1.444,1.444,0,0,1-1.421,1.71" fill="#3e145e"/>
    <path id="Trazado_49" data-name="Trazado 49" d="M62.423,103.873a1.431,1.431,0,0,1-.629-.145C48.441,97.267,38.218,89.3,31.41,80.052a1.443,1.443,0,1,1,2.325-1.711c6.419,8.722,16.07,16.285,28.687,22.484,23.854-11.717,32.5-25.9,35.539-35.766a24.169,24.169,0,0,0,1.3-6.2,15.6,15.6,0,0,0,.087-1.784,23.235,23.235,0,0,0-6.337-16.247,1.443,1.443,0,1,1,2.082-2,26.068,26.068,0,0,1,7.141,18.192,17.286,17.286,0,0,1-.1,2.082A26.874,26.874,0,0,1,100.7,65.96C97.481,76.414,88.317,91.5,63.051,103.728a1.426,1.426,0,0,1-.628.145" fill="#3e145e"/>
    <path id="Trazado_50" data-name="Trazado 50" d="M35.835,58.459a1.442,1.442,0,0,1-1.443-1.443c0-6.775,5.092-12.287,11.353-12.287q.341,0,.678.021a1.443,1.443,0,1,1-.186,2.88q-.244-.015-.492-.015c-4.669,0-8.468,4.217-8.468,9.4a1.442,1.442,0,0,1-1.442,1.443" fill="#3e145e"/>
    <path id="Trazado_51" data-name="Trazado 51" d="M54.2,82.038l-.1,0a1.445,1.445,0,0,1-1.3-1.09L48.4,63.367l-4.5,12.3a1.442,1.442,0,0,1-2.375.525l-4.075-4.074H18.916a1.443,1.443,0,1,1,0-2.886H38.055a1.443,1.443,0,0,1,1.021.423l2.9,2.9,5.335-14.6a1.422,1.422,0,0,1,1.432-.945A1.443,1.443,0,0,1,50.065,58.1l4.46,17.841,2.259-5.578a1.442,1.442,0,0,1,1.338-.9h3.321l7.331-18.4a1.443,1.443,0,0,1,2.783.534V73.589l2.123-4.044a1.444,1.444,0,0,1,1.278-.772h6.919a1.443,1.443,0,1,1,0,2.886H75.83l-4.438,8.454a1.443,1.443,0,0,1-2.72-.671V59.117L63.763,71.442a1.444,1.444,0,0,1-1.341.909H59.1l-3.557,8.786a1.444,1.444,0,0,1-1.337.9" fill="#3e145e"/>
  </g>
</svg>
