<svg xmlns="http://www.w3.org/2000/svg" xmlns:xlink="http://www.w3.org/1999/xlink" width="93.048" height="98.307" viewBox="0 0 93.048 98.307">
  <defs>
    <clipPath id="clip-path">
      <rect id="Rectángulo_38" data-name="Rectángulo 38" width="93.048" height="98.307" transform="translate(0 0)" fill="none"/>
    </clipPath>
  </defs>
  <g id="Grupo_34" data-name="Grupo 34" transform="translate(0 0)">
    <g id="Grupo_33" data-name="Grupo 33" clip-path="url(#clip-path)">
      <path id="Trazado_341" data-name="Trazado 341" d="M62.189,46.62A15.661,15.661,0,1,1,46.527,30.958,15.662,15.662,0,0,1,62.189,46.62" fill="#ffe227"/>
      <path id="Trazado_342" data-name="Trazado 342" d="M21.374,18.98a9.49,9.49,0,1,1,9.491-9.49,9.5,9.5,0,0,1-9.491,9.49m0-15.94a6.45,6.45,0,1,0,6.45,6.45,6.457,6.457,0,0,0-6.45-6.45" fill="#3e145e"/>
      <path id="Trazado_343" data-name="Trazado 343" d="M31.231,41.964a5.257,5.257,0,0,1-4.5-7.974l3.912-6.474-3.055-4.582a21.747,21.747,0,0,1-12.436,0L12.1,27.516l3.913,6.473a5.256,5.256,0,0,1-8.8,5.73L.887,30.678A4.9,4.9,0,0,1,.75,25.264l6.991-10.2a1.521,1.521,0,0,1,2.509,1.719L3.293,26.93a1.846,1.846,0,0,0,.086,2.007L9.7,37.977a2.215,2.215,0,0,0,3.712-2.415L9,28.262a1.518,1.518,0,0,1,.035-1.629l4.233-6.349a1.523,1.523,0,0,1,1.78-.586,18.685,18.685,0,0,0,12.653,0,1.522,1.522,0,0,1,1.78.586l4.231,6.349a1.521,1.521,0,0,1,.038,1.629l-4.412,7.3a2.215,2.215,0,0,0,3.71,2.416l6.322-9.042a1.863,1.863,0,0,0,.051-2.059L32.5,16.783a1.52,1.52,0,1,1,2.508-1.718l6.955,10.146a4.917,4.917,0,0,1-.1,5.468l-6.32,9.04A5.243,5.243,0,0,1,31.7,41.943c-.156.013-.312.021-.465.021" fill="#3e145e"/>
      <path id="Trazado_344" data-name="Trazado 344" d="M71.68,18.98a9.49,9.49,0,1,1,9.489-9.49,9.5,9.5,0,0,1-9.489,9.49m0-15.94a6.45,6.45,0,1,0,6.448,6.45A6.457,6.457,0,0,0,71.68,3.04" fill="#3e145e"/>
      <path id="Trazado_345" data-name="Trazado 345" d="M61.823,41.964c-.154,0-.309-.008-.464-.021a5.242,5.242,0,0,1-3.848-2.224l-6.319-9.041a4.9,4.9,0,0,1-.138-5.414l6.991-10.2a1.52,1.52,0,1,1,2.507,1.718L53.6,26.93a1.847,1.847,0,0,0,.087,2L60,37.977a2.21,2.21,0,0,0,1.623.937,2.179,2.179,0,0,0,1.759-.639,2.214,2.214,0,0,0,.33-2.713l-4.412-7.3a1.521,1.521,0,0,1,.038-1.629l4.231-6.349a1.524,1.524,0,0,1,1.78-.586A18.685,18.685,0,0,0,78,19.7a1.522,1.522,0,0,1,1.78.586l4.231,6.349a1.518,1.518,0,0,1,.037,1.629l-4.411,7.3a2.213,2.213,0,0,0,.329,2.713,2.217,2.217,0,0,0,3.382-.3l6.321-9.041a1.863,1.863,0,0,0,.051-2.059l-6.92-10.094a1.52,1.52,0,1,1,2.508-1.718l6.955,10.146a4.917,4.917,0,0,1-.1,5.468l-6.32,9.04a5.256,5.256,0,0,1-8.806-5.729l3.912-6.474L77.9,22.934a21.756,21.756,0,0,1-12.436,0l-3.054,4.582,3.912,6.473a5.258,5.258,0,0,1-4.495,7.975" fill="#3e145e"/>
      <path id="Trazado_346" data-name="Trazado 346" d="M46.528,98.307a9.491,9.491,0,1,1,9.489-9.491,9.5,9.5,0,0,1-9.489,9.491m0-15.941a6.45,6.45,0,1,0,6.448,6.45,6.458,6.458,0,0,0-6.448-6.45" fill="#3e145e"/>
      <path id="Trazado_347" data-name="Trazado 347" d="M59.46,83.094a1.521,1.521,0,0,1-1.253-2.38l6.4-9.338a1.845,1.845,0,0,0-.087-2.006L58.2,60.328a2.215,2.215,0,0,0-3.711,2.415l4.412,7.3a1.521,1.521,0,0,1-.037,1.629l-4.231,6.348a1.516,1.516,0,0,1-1.78.587,18.682,18.682,0,0,0-12.654,0,1.517,1.517,0,0,1-1.78-.587l-4.231-6.348a1.521,1.521,0,0,1-.038-1.629l4.412-7.3a2.215,2.215,0,0,0-3.711-2.416L28.531,69.37a1.863,1.863,0,0,0-.051,2.059l6.366,9.285a1.521,1.521,0,0,1-2.508,1.72l-6.4-9.339a4.919,4.919,0,0,1,.1-5.466l6.321-9.043a5.256,5.256,0,0,1,8.805,5.731L37.253,70.79l3.055,4.582a21.725,21.725,0,0,1,12.437,0L55.8,70.79l-3.912-6.473a5.256,5.256,0,0,1,8.805-5.731l6.321,9.042a4.9,4.9,0,0,1,.138,5.414l-6.436,9.392a1.521,1.521,0,0,1-1.256.66" fill="#3e145e"/>
      <path id="Trazado_348" data-name="Trazado 348" d="M72.362,72.927H66.38a1.521,1.521,0,1,1,0-3.041h5.982a5.782,5.782,0,0,0,5.775-5.776V44.857a1.521,1.521,0,1,1,3.041,0V64.11a8.826,8.826,0,0,1-8.816,8.817" fill="#3e145e"/>
      <path id="Trazado_349" data-name="Trazado 349" d="M26.675,72.927H20.692a8.827,8.827,0,0,1-8.818-8.817V44.857a1.52,1.52,0,1,1,3.04,0V64.11a5.783,5.783,0,0,0,5.778,5.776h5.983a1.521,1.521,0,1,1,0,3.041" fill="#3e145e"/>
      <path id="Trazado_350" data-name="Trazado 350" d="M54.478,24.476h-15.9a1.52,1.52,0,1,1,0-3.04h15.9a1.52,1.52,0,1,1,0,3.04" fill="#3e145e"/>
      <path id="Trazado_351" data-name="Trazado 351" d="M58.71,60.2a1.52,1.52,0,0,1-1.089-2.581A15.5,15.5,0,0,0,60.865,40.99a1.52,1.52,0,0,1,2.816-1.147,18.535,18.535,0,0,1-3.882,19.9,1.507,1.507,0,0,1-1.089.461" fill="#3e145e"/>
      <path id="Trazado_352" data-name="Trazado 352" d="M53.5,32.842a1.528,1.528,0,0,1-.624-.134,15.593,15.593,0,0,0-12.693,0,1.52,1.52,0,0,1-1.25-2.772,18.644,18.644,0,0,1,15.193,0,1.52,1.52,0,0,1-.626,2.906" fill="#3e145e"/>
      <path id="Trazado_353" data-name="Trazado 353" d="M34.347,60.2a1.516,1.516,0,0,1-1.089-.459,18.541,18.541,0,0,1-3.885-19.9,1.52,1.52,0,1,1,2.815,1.147,15.506,15.506,0,0,0,3.249,16.635,1.519,1.519,0,0,1-1.09,2.58" fill="#3e145e"/>
      <path id="Trazado_354" data-name="Trazado 354" d="M46.528,65.345a18.423,18.423,0,0,1-6.838-1.3,1.521,1.521,0,0,1,1.124-2.826,15.6,15.6,0,0,0,11.424,0,1.52,1.52,0,0,1,1.123,2.826,18.412,18.412,0,0,1-6.833,1.3" fill="#3e145e"/>
      <path id="Trazado_355" data-name="Trazado 355" d="M49.617,57.013H43.435a1.52,1.52,0,0,1-1.52-1.519V51.439H37.861a1.52,1.52,0,0,1-1.519-1.52V43.737a1.52,1.52,0,0,1,1.519-1.521h4.054V38.162a1.521,1.521,0,0,1,1.52-1.52h6.182a1.52,1.52,0,0,1,1.52,1.52v4.054h4.055a1.521,1.521,0,0,1,1.521,1.521v6.182a1.521,1.521,0,0,1-1.521,1.52H51.137v4.055a1.52,1.52,0,0,1-1.52,1.519m-4.661-3.04H48.1V49.919a1.519,1.519,0,0,1,1.52-1.52h4.055V45.257H49.617a1.519,1.519,0,0,1-1.52-1.52V39.683H44.956v4.054a1.52,1.52,0,0,1-1.521,1.52H39.382V48.4h4.053a1.52,1.52,0,0,1,1.521,1.52Z" fill="#3e145e"/>
    </g>
  </g>
</svg>
