<svg id="Grupo_19" data-name="Grupo 19" xmlns="http://www.w3.org/2000/svg" xmlns:xlink="http://www.w3.org/1999/xlink" width="119.663" height="115.856" viewBox="0 0 119.663 115.856">
  <defs>
    <clipPath id="clip-path">
      <rect id="Rectángulo_28" data-name="Rectángulo 28" width="119.663" height="115.856" fill="none"/>
    </clipPath>
  </defs>
  <g id="Grupo_18" data-name="Grupo 18" clip-path="url(#clip-path)">
    <path id="Trazado_248" data-name="Trazado 248" d="M109.307,114.355H94.162a8.559,8.559,0,0,1-8.559-8.56V31.723a8.559,8.559,0,0,1,8.559-8.56h15.145a8.56,8.56,0,0,1,8.561,8.56v74.072a8.56,8.56,0,0,1-8.561,8.56" fill="#ffe227"/>
    <path id="Trazado_249" data-name="Trazado 249" d="M101.729,31.429h0A5.133,5.133,0,0,1,96.6,26.3V7.312a5.133,5.133,0,1,1,10.266,0V26.3a5.133,5.133,0,0,1-5.133,5.133" fill="#ffe227"/>
    <path id="Trazado_250" data-name="Trazado 250" d="M104.542,77.761h-7.1a1.521,1.521,0,0,1-1.52-1.52V71.933H91.62a1.52,1.52,0,0,1-1.52-1.521V63.318a1.519,1.519,0,0,1,1.52-1.52h4.307V57.491a1.521,1.521,0,0,1,1.52-1.521h7.1a1.52,1.52,0,0,1,1.52,1.521V61.8h4.307a1.52,1.52,0,0,1,1.521,1.52v7.094a1.521,1.521,0,0,1-1.521,1.521h-4.307v4.308a1.52,1.52,0,0,1-1.52,1.52M98.968,74.72h4.054V70.412a1.521,1.521,0,0,1,1.52-1.52h4.307V64.838h-4.307a1.52,1.52,0,0,1-1.52-1.52V59.011H98.968v4.307a1.521,1.521,0,0,1-1.521,1.52H93.141v4.054h4.306a1.521,1.521,0,0,1,1.521,1.52Z" fill="#3e145e"/>
    <path id="Trazado_251" data-name="Trazado 251" d="M48.25,82.976a1.413,1.413,0,0,1-.94-.357,10.839,10.839,0,0,1-2.838-4.644,14.349,14.349,0,0,1-9.812,0,10.84,10.84,0,0,1-2.838,4.644A1.417,1.417,0,0,1,29.941,80.5a9.6,9.6,0,0,0,2.451-4.809,1.417,1.417,0,0,1,2-.912,11.516,11.516,0,0,0,10.339,0,1.418,1.418,0,0,1,2.006.912,9.591,9.591,0,0,0,2.45,4.809,1.417,1.417,0,0,1-.941,2.476" fill="#3e145e"/>
    <path id="Trazado_252" data-name="Trazado 252" d="M54.185,64.329a4.753,4.753,0,0,1-2.307-.607,1.417,1.417,0,0,1-.734-1.242v-8.9a1.415,1.415,0,0,1,.734-1.241,4.742,4.742,0,0,1,2.307-.607c2.98,0,5.4,2.826,5.4,6.3s-2.424,6.3-5.4,6.3m-.208-2.846c1.46.17,2.779-1.481,2.779-3.455s-1.317-3.629-2.779-3.454Z" fill="#3e145e"/>
    <path id="Trazado_253" data-name="Trazado 253" d="M24.948,64.329c-2.979,0-5.4-2.827-5.4-6.3s2.424-6.3,5.4-6.3a4.747,4.747,0,0,1,2.307.607,1.418,1.418,0,0,1,.735,1.242v8.9a1.418,1.418,0,0,1-.735,1.242,4.758,4.758,0,0,1-2.307.607m0-9.768c-1.394,0-2.57,1.587-2.57,3.467,0,1.973,1.309,3.63,2.779,3.455V54.574a1.847,1.847,0,0,0-.209-.013" fill="#3e145e"/>
    <path id="Trazado_254" data-name="Trazado 254" d="M39.566,78.843a14.426,14.426,0,0,1-14.41-14.41V50.543a1.416,1.416,0,0,1,1.792-1.365C27,49.193,32.493,50.7,36,51.792c5.822,1.8,14.47-1.277,15.616-2.3a1.417,1.417,0,0,1,2.362,1.055v13.89a14.427,14.427,0,0,1-14.41,14.41M27.99,52.408V64.433a11.577,11.577,0,1,0,23.153,0V52.914C47.46,54.492,40.611,56.189,35.16,54.5c-2.224-.69-5.265-1.555-7.17-2.09" fill="#3e145e"/>
    <path id="Trazado_255" data-name="Trazado 255" d="M74.514,115.772H4.618A1.416,1.416,0,0,1,3.2,114.355v-12.46A21.777,21.777,0,0,1,24.954,80.143h5.928a1.416,1.416,0,0,1,1.036,2.382,2.706,2.706,0,0,0-.838,1.832c0,1.954,2.892,3.831,6.6,4.292h3.77c3.707-.461,6.6-2.338,6.6-4.292a2.712,2.712,0,0,0-.836-1.832,1.416,1.416,0,0,1,1.036-2.382h5.927a21.777,21.777,0,0,1,21.753,21.752v12.46a1.417,1.417,0,0,1-1.417,1.417M6.035,112.939H73.1V101.895a18.941,18.941,0,0,0-18.92-18.919H50.685a4.908,4.908,0,0,1,.2,1.381c0,3.549-3.776,6.475-9.182,7.115a1.326,1.326,0,0,1-.167.01H37.6a1.326,1.326,0,0,1-.167-.01c-5.407-.64-9.182-3.566-9.182-7.115a4.907,4.907,0,0,1,.2-1.381H24.954A18.939,18.939,0,0,0,6.035,101.895Z" fill="#3e145e"/>
    <path id="Trazado_256" data-name="Trazado 256" d="M77.716,115.772H1.416a1.417,1.417,0,0,1,0-2.833h76.3a1.417,1.417,0,1,1,0,2.833" fill="#3e145e"/>
    <path id="Trazado_257" data-name="Trazado 257" d="M58.172,59.445a1.416,1.416,0,0,1-1.416-1.416c0-2.3-1.819-4.137-3.514-3.21a1.416,1.416,0,0,1-2.1-1.242v-.662C47.46,54.493,40.609,56.188,35.16,54.5c-2.223-.69-5.264-1.555-7.17-2.09v1.169a1.418,1.418,0,0,1-2.1,1.243c-1.7-.933-3.516.906-3.515,3.209a1.417,1.417,0,0,1-2.833,0V48.164a8.422,8.422,0,0,1-1.49-4.8,8.519,8.519,0,0,1,11.727-7.892,7.507,7.507,0,0,1,13.681.815A7.011,7.011,0,0,1,50,35.769a7.3,7.3,0,0,1,4.133-1.291A7.374,7.374,0,0,1,61.5,41.844a7.25,7.25,0,0,1-1.911,4.926V58.029a1.416,1.416,0,0,1-1.417,1.416m-3.987-7.717a4.774,4.774,0,0,1,2.571.76v-6.3a1.414,1.414,0,0,1,.452-1.037,4.479,4.479,0,0,0,1.459-3.308A4.511,4.511,0,0,0,51.1,38.5a1.414,1.414,0,0,1-1.715.145,4.035,4.035,0,0,0-2.175-.637,3.974,3.974,0,0,0-3.389,1.86,1.417,1.417,0,0,1-2.616-.706,4.9,4.9,0,0,0-4.772-4.9,4.808,4.808,0,0,0-4.579,3.577,1.416,1.416,0,0,1-2.144.783,5.68,5.68,0,0,0-7.633,8.212,1.414,1.414,0,0,1,.3.868v4.785a4.829,4.829,0,0,1,2.78-.755v-1.19a1.415,1.415,0,0,1,1.792-1.365c.055.015,5.545,1.527,9.049,2.614,5.825,1.807,14.47-1.277,15.617-2.3a1.417,1.417,0,0,1,2.362,1.055v1.19c.068,0,.139-.005.208-.005" fill="#3e145e"/>
    <path id="Trazado_258" data-name="Trazado 258" d="M96.6,2.18a7.469,7.469,0,0,1,12.74,5.306L109.31,20.85a10.309,10.309,0,0,1,10.352,10.332l-.077,38.184a1.659,1.659,0,0,1-3.318-.007l.076-38.183a6.991,6.991,0,0,0-6.977-7.007l-1.722,0a1.659,1.659,0,0,1-1.656-1.663l.03-15.023a4.152,4.152,0,0,0-8.3-.017l-.03,15.024a1.659,1.659,0,0,1-1.663,1.656l-1.724,0a7,7,0,0,0-7.006,6.978L87.142,105.5a6.994,6.994,0,0,0,6.977,7.007l15.069.03a7,7,0,0,0,7.006-6.979l.011-5.9a1.66,1.66,0,0,1,3.319.006l-.012,5.9a10.322,10.322,0,0,1-10.331,10.29l-15.068-.03a10.308,10.308,0,0,1-10.29-10.332l.15-74.384A10.323,10.323,0,0,1,94.305,20.82c.063,0,.09-13.364.09-13.364A7.451,7.451,0,0,1,96.6,2.18" fill="#3e145e"/>
    <path id="Trazado_259" data-name="Trazado 259" d="M116.7,95.834a1.66,1.66,0,0,1,2.83,1.179l-.006,2.655a1.659,1.659,0,1,1-3.318-.006l0-2.655a1.651,1.651,0,0,1,.489-1.173" fill="#3e145e"/>
    <path id="Trazado_260" data-name="Trazado 260" d="M116.729,80.838a1.66,1.66,0,0,1,2.831,1.179l-.01,5a1.66,1.66,0,0,1-3.319-.007l.01-5a1.654,1.654,0,0,1,.488-1.173" fill="#3e145e"/>
    <path id="Trazado_261" data-name="Trazado 261" d="M116.755,68.186a1.66,1.66,0,0,1,2.83,1.18l0,2.655a1.66,1.66,0,1,1-3.319-.007l.006-2.655a1.646,1.646,0,0,1,.488-1.173" fill="#3e145e"/>
    <path id="Trazado_262" data-name="Trazado 262" d="M50.581,65.824c-13.852-5.591-21.4-.4-21.717-.173L27.1,63.221c.365-.266,9.108-6.432,24.6-.178Z" fill="#3e145e"/>
    <path id="Trazado_263" data-name="Trazado 263" d="M62.631,78.2c-10.118,0-22.759-5.651-23.473-5.975L40.4,69.493c6.108,2.762,23.311,8.829,29.463,3.8,2.362-1.931,2.96-5.538,1.777-10.722l-.03-.185c-.207-2.079-4.74-50.975,22.5-56.4l.586,2.942c-24.1,4.8-20.316,50.74-20.107,53.07,1.426,6.337.476,10.918-2.826,13.615C69.449,77.5,66.195,78.2,62.631,78.2" fill="#3e145e"/>
  </g>
</svg>
