<svg id="Grupo_44" data-name="Grupo 44" xmlns="http://www.w3.org/2000/svg" xmlns:xlink="http://www.w3.org/1999/xlink" width="121.595" height="121.595" viewBox="0 0 121.595 121.595">
  <defs>
    <clipPath id="clip-path">
      <rect id="Rectángulo_47" data-name="Rectángulo 47" width="121.595" height="121.595" fill="none"/>
    </clipPath>
  </defs>
  <g id="Grupo_43" data-name="Grupo 43" clip-path="url(#clip-path)">
    <path id="Trazado_402" data-name="Trazado 402" d="M119.427,60.8A58.63,58.63,0,1,1,60.8,2.167a58.629,58.629,0,0,1,58.63,58.63" fill="#fff"/>
    <path id="Trazado_403" data-name="Trazado 403" d="M60.8,121.6a60.8,60.8,0,1,1,60.8-60.8,60.867,60.867,0,0,1-60.8,60.8m0-117.26A56.462,56.462,0,1,0,117.259,60.8,56.527,56.527,0,0,0,60.8,4.335" fill="#3e145e"/>
    <path id="Trazado_404" data-name="Trazado 404" d="M25.924,34.652S40.693,35.97,60.873,20.813c0,0,15.817,13.7,34.22,15,0,0,2.831,42.9-6.208,53.165L62.306,103.311,34.222,90.463s-9.238-14.366-8.3-29.988Z" fill="#ffe227"/>
    <path id="Trazado_405" data-name="Trazado 405" d="M34.093,39.148s11.521,2.016,26.7-10.363c0,0,11.491,10.25,25.337,11.314,0,0,4.206,34.069-2.6,42.45L61.465,95.223,40.336,84.729S33.386,73,34.093,60.238Z" fill="#fff"/>
    <path id="Trazado_406" data-name="Trazado 406" d="M60.873,95.357a1.369,1.369,0,0,1-.593-.134L45.493,88.162A22.3,22.3,0,0,1,32.861,68.133V40.515a1.375,1.375,0,0,1,1.232-1.367c17.625-1.832,25.633-11.417,25.712-11.513a1.376,1.376,0,0,1,1.067-.507,1.436,1.436,0,0,1,1.069.507c.091.111,8.1,9.682,25.711,11.513a1.375,1.375,0,0,1,1.233,1.367V68.133A22.3,22.3,0,0,1,76.254,88.162L61.465,95.223a1.365,1.365,0,0,1-.592.134M35.611,41.742V68.133A19.542,19.542,0,0,0,46.678,85.68l14.195,6.778L75.068,85.68A19.541,19.541,0,0,0,86.134,68.133V41.742c-14.5-1.822-22.527-8.493-25.261-11.218-2.734,2.725-10.76,9.4-25.262,11.218" fill="#3e145e"/>
    <path id="Trazado_407" data-name="Trazado 407" d="M60.873,105.088a1.371,1.371,0,0,1-.593-.135L41.1,95.794A28.525,28.525,0,0,1,24.944,70.18V34.355a1.376,1.376,0,0,1,1.232-1.369C49.23,30.591,59.7,18.029,59.8,17.9a1.379,1.379,0,0,1,2.137,0c.1.126,10.574,12.688,33.629,15.083A1.376,1.376,0,0,1,96.8,34.355V70.18A28.522,28.522,0,0,1,80.648,95.794l-19.183,9.159a1.366,1.366,0,0,1-.592.135m-33.179-69.5v34.6A25.76,25.76,0,0,0,42.283,93.312l18.59,8.876,18.59-8.876A25.757,25.757,0,0,0,94.051,70.18v-34.6C74.567,33.232,64.085,24.109,60.873,20.813c-3.212,3.3-13.694,12.419-33.179,14.771" fill="#3e145e"/>
    <path id="Trazado_408" data-name="Trazado 408" d="M52.546,79.914a1.374,1.374,0,0,1-1.375-1.375v-9.9a1.375,1.375,0,0,1,2.751,0v9.9a1.376,1.376,0,0,1-1.376,1.375" fill="#3e145e"/>
    <path id="Trazado_409" data-name="Trazado 409" d="M69.2,79.914a1.375,1.375,0,0,1-1.375-1.375v-9.9a1.375,1.375,0,0,1,2.75,0v9.9A1.375,1.375,0,0,1,69.2,79.914" fill="#3e145e"/>
    <path id="Trazado_410" data-name="Trazado 410" d="M60.873,56.036a7.969,7.969,0,1,1,7.968-7.969,7.978,7.978,0,0,1-7.968,7.969m0-13.186a5.218,5.218,0,1,0,5.218,5.217,5.222,5.222,0,0,0-5.218-5.217" fill="#3e145e"/>
    <path id="Trazado_411" data-name="Trazado 411" d="M75.256,79.914H46.49a1.376,1.376,0,0,1-1.376-1.375V66.66a9.183,9.183,0,0,1,9.173-9.172H67.459a9.183,9.183,0,0,1,9.173,9.172V78.539a1.376,1.376,0,0,1-1.376,1.375M47.865,77.163H73.881V66.66a6.429,6.429,0,0,0-6.422-6.422H54.287a6.429,6.429,0,0,0-6.422,6.422Z" fill="#3e145e"/>
  </g>
</svg>
