<svg xmlns="http://www.w3.org/2000/svg" xmlns:xlink="http://www.w3.org/1999/xlink" width="955.423" height="428.461" viewBox="0 0 955.423 428.461">
  <defs>
    <clipPath id="clip-path">
      <rect id="Rectángulo_47" data-name="Rectángulo 47" width="955.423" height="428.461" fill="none"/>
    </clipPath>
    <clipPath id="clip-path-4">
      <rect id="Rectángulo_53" data-name="Rectángulo 53" width="269.972" height="28.139" transform="translate(282.817 155.238)" fill="none"/>
    </clipPath>
    <clipPath id="clip-path-5">
      <rect id="Rectángulo_58" data-name="Rectángulo 58" width="25.541" height="4.219" transform="translate(488.493 242.194)" fill="none"/>
    </clipPath>
    <clipPath id="clip-path-6">
      <rect id="Rectángulo_62" data-name="Rectángulo 62" width="29.769" height="5.808" transform="translate(440.062 182.685)" fill="none"/>
    </clipPath>
    <clipPath id="clip-path-7">
      <rect id="Rectángulo_64" data-name="Rectángulo 64" width="29.769" height="5.808" transform="translate(440.062 194.543)" fill="none"/>
    </clipPath>
    <clipPath id="clip-path-8">
      <rect id="Rectángulo_66" data-name="Rectángulo 66" width="29.769" height="6.423" transform="translate(440.062 208.706)" fill="none"/>
    </clipPath>
    <clipPath id="clip-path-9">
      <rect id="Rectángulo_88" data-name="Rectángulo 88" width="2.909" height="2.877" transform="translate(595.381 405.583)" fill="none"/>
    </clipPath>
    <clipPath id="clip-path-10">
      <rect id="Rectángulo_89" data-name="Rectángulo 89" width="36.494" height="9.756" transform="translate(568.81 413.572)" fill="none"/>
    </clipPath>
    <clipPath id="clip-path-11">
      <rect id="Rectángulo_90" data-name="Rectángulo 90" width="2.91" height="2.876" transform="translate(553.188 410.346)" fill="none"/>
    </clipPath>
    <clipPath id="clip-path-12">
      <rect id="Rectángulo_91" data-name="Rectángulo 91" width="36.406" height="10.23" transform="translate(526.83 418.231)" fill="none"/>
    </clipPath>
    <clipPath id="clip-path-13">
      <rect id="Rectángulo_92" data-name="Rectángulo 92" width="42.151" height="71.869" transform="translate(605.694 235.066)" fill="none"/>
    </clipPath>
  </defs>
  <g id="Grupo_33" data-name="Grupo 33" clip-path="url(#clip-path)">
    <g id="Grupo_68" data-name="Grupo 68" transform="translate(0 -1)">
      <g id="Grupo_67" data-name="Grupo 67" clip-path="url(#clip-path)">
        <g id="Grupo_66" data-name="Grupo 66">
          <g id="Grupo_65" data-name="Grupo 65" clip-path="url(#clip-path)">
            <path id="Trazado_1" data-name="Trazado 1" d="M426.267,412.946c-1.394-1.193-4.5-4.981-2.1-9.386.878-1.615,2.745-2.414,4.435-3.125a18.052,18.052,0,0,0,4.863-2.518c2.637-2.243,3.365-5.971,5.115-8.964,2.009-3.436,5.759-6.009,9.722-5.828,4.537.206,8.322,3.911,10.037,8.137s1.776,8.917,1.811,13.481c.019,2.522-.092,5.368-1.944,7.071-1.708,1.571-4.281,1.591-6.6,1.52l-24.8-.762" fill="#f5f5f5"/>
            <path id="Trazado_2" data-name="Trazado 2" d="M473.7,344.758H408.482L420.229,414.8a7.822,7.822,0,0,0,5.568,6.237c.074.023.152.041.229.062.193.05.38.115.58.15a8.257,8.257,0,0,0,1.326.152c0,.022.007.046.011.067l.318-.049h29.065a8.171,8.171,0,0,0,1.6-.16,7.853,7.853,0,0,0,6.6-6.846l5.662-48.262.256-1.919h-.031l2.243-19.113Zm-12.3,44.68H454.7l.675-20.328h7.754Zm2.387-20.328h6.407L467.8,389.438h-5.759Zm-19.12,42.864-.407-17.661h9.638l-.587,17.661ZM434.24,394.313h9.365l.407,17.661h-8.4Zm.724,17.661h-7.852c-.746-4.768-1.716-10.965-2.767-17.661h9.247Zm-1.1-22.536-1.581-20.328h10.744l.467,20.328Zm10.278,0-.468-20.328h11.055l-.675,20.328Zm-.58-25.2-.434-18.825h12.389l-.626,18.825Zm-.648,0H431.9L430.44,345.41h12.039Zm-11.658,0H419.606c-.412-2.6-.8-5.061-1.158-7.275-1.214-7.612-1.671-10.475-1.924-11.55h13.267Zm.379,4.875,1.58,20.328h-9.634c-.324-2.062-.652-4.148-.98-6.237-.755-4.8-1.511-9.6-2.222-14.091Zm-8.708,20.328h-6.294l-3.409-20.328h6.5c.993,6.282,2.1,13.274,3.2,20.328m.765,4.875c.96,6.111,1.9,12.138,2.768,17.661h-6.047l-2.962-17.661Zm30.261,17.661.587-17.661h6.438l-1.509,17.661Zm1.586-47.739.625-18.825h8.992l-1.608,18.825ZM415.906,345.41c.259,1.36,1.45,8.767,3.043,18.825H412.4l-3.158-18.825Zm49.25,66.564h-5.04l1.509-17.661h5.6Zm5.6-47.739H464.2L465.8,345.41h7.163Z" fill="#e1e1e1"/>
            <rect id="Rectángulo_48" data-name="Rectángulo 48" width="101.265" height="68.256" transform="matrix(0.986, -0.167, 0.167, 0.986, 542.454, 46.18)" fill="#ececec"/>
            <path id="Trazado_3" data-name="Trazado 3" d="M642.295,29.263a6.959,6.959,0,0,1-.777,1.054l-2.368,2.906-8.842,10.59L600.8,78.611l-.243.286-.33-.183-.8-.441L559.048,55.745l-12.187-6.919L543.57,46.9a7.255,7.255,0,0,1-1.116-.725,7.368,7.368,0,0,1,1.206.562l3.374,1.772,12.328,6.663c10.445,5.746,24.729,13.607,40.514,22.292.273.15.545.3.8.441l-.571.1,29.715-34.62c3.78-4.338,6.86-7.871,9.064-10.4l2.5-2.8a7.083,7.083,0,0,1,.917-.934" fill="#fafafa"/>
            <path id="Trazado_4" data-name="Trazado 4" d="M553.857,113.477c-.219-.129,5.727-10.626,13.276-23.442S580.985,66.927,581.2,67.056,575.479,77.679,567.926,90.5s-13.85,23.106-14.069,22.977" fill="#fafafa"/>
            <path id="Trazado_5" data-name="Trazado 5" d="M614.248,60.591c.171-.187,9.142,7.713,20.034,17.644S653.869,96.372,653.7,96.56s-9.139-7.711-20.035-17.646-19.586-18.136-19.415-18.323" fill="#fafafa"/>
            <rect id="Rectángulo_49" data-name="Rectángulo 49" width="50.867" height="34.285" transform="translate(287.688 213.948) rotate(-5.076)" fill="#f5f5f5"/>
            <path id="Trazado_6" data-name="Trazado 6" d="M338.355,209.447a3.553,3.553,0,0,1-.432.5c-.328.344-.759.8-1.3,1.361l-4.85,4.952-16.159,16.251-.133.133-.158-.1-.381-.253L295.617,219.4l-5.827-3.949-1.572-1.093a3.732,3.732,0,0,1-.53-.407,3.628,3.628,0,0,1,.581.329l1.619,1.022c1.438.93,3.446,2.231,5.908,3.826L315.2,231.9l.382.253-.291.029,16.256-16.154c2.066-2.021,3.748-3.669,4.953-4.848l1.361-1.3a3.448,3.448,0,0,1,.5-.431" fill="#e1e1e1"/>
            <path id="Trazado_7" data-name="Trazado 7" d="M290.721,248.1c-.1-.073,3.29-5.094,7.58-11.211s7.856-11.019,7.96-10.946-3.289,5.092-7.581,11.211-7.855,11.019-7.959,10.946" fill="#e1e1e1"/>
            <path id="Trazado_8" data-name="Trazado 8" d="M323.065,224.018c.093-.087,4.271,4.226,9.33,9.632s9.087,9.861,8.994,9.948-4.27-4.225-9.331-9.633-9.086-9.859-8.993-9.947" fill="#e1e1e1"/>
            <path id="Trazado_9" data-name="Trazado 9" d="M698.32,172.616s.034-.27.115-.769q.13-.774.372-2.2c.334-1.937.823-4.751,1.444-8.344,1.265-7.2,3.08-17.516,5.285-30.067l.163.235-60.2-10.748H645.5l.292-.2c-2.656,14.759-5.177,28.781-7.437,41.341l-.185-.265c17.708,3.222,32.716,5.955,43.321,7.884l12.382,2.283,3.3.621.853.167c.194.039.293.061.3.066a1.885,1.885,0,0,1-.275-.035l-.834-.136-3.263-.558-12.353-2.153-43.509-7.688-.226-.04.041-.226c2.246-12.564,4.755-26.588,7.394-41.349l.044-.248.247.045h.005l60.18,10.844.2.035-.036.2c-2.3,12.587-4.2,22.933-5.514,30.153-.663,3.566-1.182,6.36-1.539,8.283-.177.93-.312,1.648-.41,2.153-.092.485-.15.72-.15.72" fill="#e1e1e1"/>
            <path id="Trazado_10" data-name="Trazado 10" d="M705.735,131.272a5.317,5.317,0,0,1-.686.5l-2.018,1.342c-1.8,1.173-4.349,2.825-7.474,4.857L670.8,153.832c-.673-.12-.192-.04-.345-.071l-.01-.013-.02-.027-.041-.053-.082-.108-.162-.214-.323-.428-.644-.85-1.276-1.684L665.4,147.09l-4.7-6.231-7.943-10.568c-2.224-2.992-4.034-5.424-5.319-7.152l-1.426-1.959a5.3,5.3,0,0,1-.469-.7,5.315,5.315,0,0,1,.55.643q.557.7,1.5,1.9c1.316,1.7,3.168,4.1,5.447,7.056l8.028,10.5c1.507,1.981,3.088,4.059,4.728,6.213q1.227,1.618,2.5,3.29l1.276,1.682.645.851.324.427.162.213.081.108.041.054.02.027.01.013c-.145-.024.341.072-.324-.049l24.838-15.741,7.559-4.722,2.07-1.263a5.243,5.243,0,0,1,.74-.411" fill="#e1e1e1"/>
            <path id="Trazado_11" data-name="Trazado 11" d="M662.272,142.55c.087.108-5.275,4.545-11.976,9.907s-12.2,9.624-12.29,9.516,5.275-4.543,11.977-9.907,12.2-9.624,12.289-9.516" fill="#e1e1e1"/>
            <path id="Trazado_12" data-name="Trazado 12" d="M698.62,173.168c-.121.066-3.608-6.085-7.788-13.737s-7.471-13.913-7.349-13.98,3.609,6.083,7.789,13.738,7.47,13.913,7.348,13.979" fill="#e1e1e1"/>
            <path id="Trazado_13" data-name="Trazado 13" d="M431.162,250.525v11.622H381.19a5.811,5.811,0,0,1,0-11.622" fill="#e1e1e1"/>
            <path id="Trazado_14" data-name="Trazado 14" d="M431.162,259.71H414.607a3.274,3.274,0,0,1-3.274-3.275v-.2a3.274,3.274,0,0,1,3.274-3.274h16.555Z" fill="#fafafa"/>
            <path id="Trazado_15" data-name="Trazado 15" d="M431.162,238.9v11.621H381.19a5.81,5.81,0,0,1,0-11.621Z" fill="#f5f5f5"/>
            <path id="Trazado_16" data-name="Trazado 16" d="M431.162,248.089H414.607a3.275,3.275,0,0,1-3.274-3.275v-.2a3.275,3.275,0,0,1,3.274-3.275h16.555Z" fill="#e1e1e1"/>
            <path id="Trazado_17" data-name="Trazado 17" d="M395.073,220.262,387.135,238.9h5.109l3.525-9.957Z" fill="#e1e1e1"/>
            <path id="Trazado_18" data-name="Trazado 18" d="M419.443,203.393l3.065,35.511H396.57l-2.851-35.511Z" fill="#ececec"/>
            <path id="Trazado_19" data-name="Trazado 19" d="M416.908,206.21l2.686,29.743-19.471.256-2.63-30.172Z" fill="#fafafa"/>
            <path id="Trazado_20" data-name="Trazado 20" d="M412.778,210.327l1.527,20.467H403.92l-1.833-20.467Z" fill="#e1e1e1"/>
            <path id="Trazado_21" data-name="Trazado 21" d="M955.423,421.472c0,.144-213.9.261-477.688.261C213.85,421.733,0,421.616,0,421.472s213.85-.261,477.735-.261c263.792,0,477.688.117,477.688.261" fill="#1a2e35"/>
            <rect id="Rectángulo_50" data-name="Rectángulo 50" width="269.768" height="183" transform="translate(281.888 0.239)" fill="#fafafa"/>
            <path id="Trazado_22" data-name="Trazado 22" d="M552.893,183.377H282.714V.1H552.893ZM552.687.239H282.919v183H552.687" fill="#fafafa"/>
            <path id="Trazado_23" data-name="Trazado 23" d="M552.893,183.377H282.714V.1H552.893ZM552.687.239H282.919v183H552.687" fill="#fafafa"/>
            <rect id="Rectángulo_51" data-name="Rectángulo 51" width="269.973" height="18.142" transform="translate(282.816 0.205)" fill="#ff4f5b"/>
            <g id="Grupo_37" data-name="Grupo 37" style="mix-blend-mode: multiply;isolation: isolate">
              <g id="Grupo_36" data-name="Grupo 36">
                <g id="Grupo_35" data-name="Grupo 35" clip-path="url(#clip-path-4)">
                  <rect id="Rectángulo_52" data-name="Rectángulo 52" width="269.973" height="28.139" transform="translate(282.816 155.238)" fill="#ececec"/>
                </g>
              </g>
            </g>
            <path id="Trazado_24" data-name="Trazado 24" d="M334.057,168.856h2.228l.7,1.459h.479l-2.231-4.657h-.123l-2.236,4.657h.485Zm1.117-2.322.9,1.888h-1.806Z" fill="#1a2e35"/>
            <rect id="Rectángulo_54" data-name="Rectángulo 54" width="5.277" height="0.372" transform="translate(332.521 171.308)" fill="#1a2e35"/>
            <path id="Trazado_25" data-name="Trazado 25" d="M301.26,165.4H300.9a1.963,1.963,0,0,0-1.853,2,8.324,8.324,0,0,0,1.853,3.97s.14.244.357,0a8.307,8.307,0,0,0,1.854-3.97,1.964,1.964,0,0,0-1.854-2m-.178,3.168a1.1,1.1,0,1,1,1.1-1.1,1.1,1.1,0,0,1-1.1,1.1" fill="#1a2e35"/>
            <path id="Trazado_26" data-name="Trazado 26" d="M325.976,170.051a1.13,1.13,0,1,1-2.259,0V166.4a.731.731,0,1,1,1.462,0V169.5h0a.414.414,0,0,1-.811-.006v-2.382H324.1v2.277h0v.11h.012a.675.675,0,0,0,1.337,0h.006v-.06c0-.018,0-.033,0-.051h0v-3.018h0a1,1,0,0,0-2,0h0v3.813h.007a1.4,1.4,0,0,0,2.792,0h.006v-3.072h-.273Z" fill="#1a2e35"/>
            <path id="Trazado_27" data-name="Trazado 27" d="M313.961,167.289l-1.045-2.117-1.045,2.117-2.338.341,1.692,1.649-.4,2.327,2.091-1.1,2.091,1.1-.4-2.327,1.691-1.649Zm.593,3.695-1.638-.862-1.637.862.3-1.735.017-.088-1.327-1.292,1.833-.267.817-1.66.822,1.66,1.829.267-1.261,1.229-.063.063Z" fill="#1a2e35"/>
            <path id="Trazado_28" data-name="Trazado 28" d="M355.112,162.571h-.341v10.847h.341Zm-.171,10.846v0Z" fill="#1a2e35"/>
            <rect id="Rectángulo_55" data-name="Rectángulo 55" width="4.317" height="4.602" transform="translate(344.156 166.409)" fill="#1a2e35"/>
            <path id="Trazado_29" data-name="Trazado 29" d="M345.519,165.332v.354h1.591v-.354h1.363v.708h-4.317v-.708Z" fill="#1a2e35"/>
            <rect id="Rectángulo_56" data-name="Rectángulo 56" width="1.591" height="0.354" transform="translate(345.519 164.978)" fill="#1a2e35"/>
            <rect id="Rectángulo_57" data-name="Rectángulo 57" width="1.591" height="0.354" transform="translate(345.519 165.332)" fill="#1a2e35"/>
            <path id="Trazado_30" data-name="Trazado 30" d="M364.887,168.874l1.325-1.326.161.161-1.486,1.486-1.487-1.486.161-.161Z" fill="#1a2e35"/>
            <path id="Trazado_31" data-name="Trazado 31" d="M527.61,9.475h3.743v-.2h0v-.2H527.61Z" fill="#1a2e35"/>
            <path id="Trazado_32" data-name="Trazado 32" d="M546.279,7.544l-.28-.28L544.266,9l-1.73-1.731-.281.28,1.731,1.731-1.731,1.733.281.28,1.73-1.731L546,11.288l.28-.28-1.73-1.733Z" fill="#1a2e35"/>
            <path id="Trazado_33" data-name="Trazado 33" d="M534.711,11.347h4.14V7.2h-4.14Zm.4-3.744h3.347V10.95h-3.347Z" fill="#1a2e35"/>
            <path id="Trazado_34" data-name="Trazado 34" d="M546.687,59.737a1.47,1.47,0,0,0-1.42-1.467v0h-5.578v.01a2.051,2.051,0,0,0,0,4.085v.01h4.5v-.4h-4.309a1.653,1.653,0,0,1,0-3.305h5.341a1.07,1.07,0,1,1,0,2.139h-4.529v.005a.606.606,0,0,1,.009-1.186h3.488v-.4h-3.5v.017a.987.987,0,0,0,0,1.956v.009h.09c.024,0,.049.008.074.008v-.008h4.415v0a1.471,1.471,0,0,0,1.42-1.467" fill="#1a2e35"/>
            <path id="Trazado_35" data-name="Trazado 35" d="M549.876,69.079c0,.144-59.766.261-133.473.261-73.732,0-133.484-.117-133.484-.261s59.752-.261,133.484-.261c73.707,0,133.473.117,133.473.261" fill="#e1e1e1"/>
            <path id="Trazado_36" data-name="Trazado 36" d="M549.876,51.515c0,.144-59.788.26-133.523.26-73.761,0-133.537-.116-133.537-.26s59.776-.261,133.537-.261c73.735,0,133.523.117,133.523.261" fill="#e1e1e1"/>
            <path id="Trazado_37" data-name="Trazado 37" d="M549.876,36.1c0,.144-59.766.261-133.473.261-73.732,0-133.484-.117-133.484-.261s59.752-.261,133.484-.261c73.707,0,133.473.117,133.473.261" fill="#e1e1e1"/>
            <path id="Trazado_38" data-name="Trazado 38" d="M518.91,28.76c0,.145-50.891.261-113.651.261-62.785,0-113.663-.116-113.663-.261s50.878-.26,113.663-.26c62.76,0,113.651.116,113.651.26" fill="#1a2e35"/>
            <path id="Trazado_39" data-name="Trazado 39" d="M518.91,42.2c0,.145-50.891.261-113.651.261-62.785,0-113.663-.116-113.663-.261s50.878-.26,113.663-.26c62.76,0,113.651.116,113.651.26" fill="#1a2e35"/>
            <path id="Trazado_40" data-name="Trazado 40" d="M518.91,48.806c0,.144-50.891.26-113.651.26-62.785,0-113.663-.116-113.663-.26s50.878-.261,113.663-.261c62.76,0,113.651.116,113.651.261" fill="#1a2e35"/>
            <path id="Trazado_41" data-name="Trazado 41" d="M518.91,58.006c0,.145-50.891.261-113.651.261-62.785,0-113.663-.116-113.663-.261s50.878-.26,113.663-.26c62.76,0,113.651.116,113.651.26" fill="#1a2e35"/>
            <path id="Trazado_42" data-name="Trazado 42" d="M518.91,64.181c0,.144-50.891.26-113.651.26-62.785,0-113.663-.116-113.663-.26s50.878-.261,113.663-.261c62.76,0,113.651.116,113.651.261" fill="#1a2e35"/>
            <path id="Trazado_43" data-name="Trazado 43" d="M518.91,78.575c0,.144-50.891.261-113.651.261-62.785,0-113.663-.117-113.663-.261s50.878-.261,113.663-.261c62.76,0,113.651.117,113.651.261" fill="#1a2e35"/>
            <path id="Trazado_44" data-name="Trazado 44" d="M518.91,92.97c0,.144-50.891.261-113.651.261-62.785,0-113.663-.117-113.663-.261s50.878-.26,113.663-.26c62.76,0,113.651.116,113.651.26" fill="#1a2e35"/>
            <path id="Trazado_45" data-name="Trazado 45" d="M518.91,107.365c0,.144-50.891.26-113.651.26-62.785,0-113.663-.116-113.663-.26s50.878-.261,113.663-.261c62.76,0,113.651.116,113.651.261" fill="#1a2e35"/>
            <path id="Trazado_46" data-name="Trazado 46" d="M518.91,121.76c0,.144-50.891.26-113.651.26-62.785,0-113.663-.116-113.663-.26s50.878-.261,113.663-.261c62.76,0,113.651.117,113.651.261" fill="#1a2e35"/>
            <path id="Trazado_47" data-name="Trazado 47" d="M518.91,136.155c0,.144-50.891.261-113.651.261-62.785,0-113.663-.117-113.663-.261s50.878-.261,113.663-.261c62.76,0,113.651.117,113.651.261" fill="#1a2e35"/>
            <text id="Historia_clínica" data-name="Historia clínica" transform="translate(302.43 16.136)" fill="#fff" font-size="19.09" font-family="CerebriSans-Book, Cerebri Sans"><tspan x="0" y="0">His</tspan><tspan y="0" letter-spacing="-0.004em">t</tspan><tspan y="0">oria clínica</tspan></text>
            <path id="Trazado_48" data-name="Trazado 48" d="M282.919.239,552.686,0h.238V.239c.007,55.7.015,117.727.022,182.979v.282h-.26l-269.767-.052h-.209v-.209c.127-111.421.207-181.292.209-183,0,1.707.081,71.579.208,183l-.208-.209,269.767-.052-.26.261v-.021c.008-65.252.015-127.283.022-182.979l.238.238L282.919.239" fill="#1a2e35"/>
            <path id="Trazado_49" data-name="Trazado 49" d="M562.452,242.2H441.374a9.442,9.442,0,0,1-9.441-9.441V150.986a4.282,4.282,0,0,1,4.282-4.281h131.4a4.282,4.282,0,0,1,4.282,4.281v81.768a9.442,9.442,0,0,1-9.441,9.441" fill="#ff4f5b"/>
            <path id="Trazado_50" data-name="Trazado 50" d="M562.452,242.2s.1-.015.3-.029.495-.012.88-.079a9.386,9.386,0,0,0,7.135-5.035,9.258,9.258,0,0,0,.994-3.412c.086-1.268.016-2.653.033-4.1-.02-11.626-.048-28.432-.083-49.2q-.008-7.79-.017-16.3,0-4.251-.008-8.672,0-2.208-.007-4.456a4.09,4.09,0,0,0-2.144-3.51,4.215,4.215,0,0,0-2.113-.481H565.1l-4.7,0-9.612.006-20.066.012-89.342.02h-4.449a7.708,7.708,0,0,0-1.428.066,4.032,4.032,0,0,0-3.312,3.881q0,5.866-.005,11.655,0,11.577,0,22.8c0,14.945-.01,29.361-.015,43.094.017,1.707-.042,3.444.038,5.1a9.217,9.217,0,0,0,5.406,7.6,10.329,10.329,0,0,0,4.7.81l18.928.012,33.974.032,49.193.083,13.375.049,3.477.026c.785.008,1.186.027,1.186.027s-.4.018-1.186.026l-3.477.026-13.375.049-49.193.083-33.974.032-18.928.013a10.814,10.814,0,0,1-4.891-.845,9.688,9.688,0,0,1-5.69-7.986c-.086-1.733-.025-3.411-.045-5.136-.005-13.733-.01-28.149-.015-43.094q0-11.21,0-22.8,0-5.792,0-11.665a4.539,4.539,0,0,1,3.741-4.384,8.412,8.412,0,0,1,1.519-.074h4.449l89.342.021,20.066.01,9.612.007,4.7,0,2.319,0a4.67,4.67,0,0,1,2.318.536,4.519,4.519,0,0,1,2.363,3.884v4.463q0,4.419-.007,8.672-.009,8.5-.017,16.3c-.035,20.764-.063,37.57-.083,49.2-.023,1.456.038,2.816-.057,4.118a9.378,9.378,0,0,1-1.035,3.467,9.633,9.633,0,0,1-3.947,3.988,9.348,9.348,0,0,1-3.318,1.027,9.083,9.083,0,0,1-1.185.056" fill="#1a2e35"/>
            <path id="Trazado_51" data-name="Trazado 51" d="M514.034,242.2H489.725s-7.48,12.472,0,19.952h25.142s-12.393-8.116-.833-19.952" fill="#ff4f5b"/>
            <g id="Grupo_40" data-name="Grupo 40" opacity="0.3">
              <g id="Grupo_39" data-name="Grupo 39">
                <g id="Grupo_38" data-name="Grupo 38" clip-path="url(#clip-path-5)">
                  <path id="Trazado_52" data-name="Trazado 52" d="M489.726,242.2l-1.232,2.473,22.279,1.746a52.346,52.346,0,0,1,3.262-4.219Z"/>
                </g>
              </g>
            </g>
            <path id="Trazado_53" data-name="Trazado 53" d="M507.641,232.926a2.755,2.755,0,1,1-2.755-2.756,2.755,2.755,0,0,1,2.755,2.756" fill="#fafafa"/>
            <rect id="Rectángulo_59" data-name="Rectángulo 59" width="126.539" height="72.826" transform="translate(438.644 151.965)" fill="#fafafa"/>
            <path id="Trazado_54" data-name="Trazado 54" d="M565.183,224.791s-.014-.453-.021-1.316-.013-2.148-.022-3.814c-.012-3.351-.029-8.266-.051-14.576-.025-12.613-.061-30.8-.106-53.12l.2.2-126.529.06h-.01l.261-.26c-.007,25.771-.013,50.4-.019,72.826l-.242-.242,91.007.117,26.139.066,6.97.03,1.8.014c.406.005.62.015.62.015s-.194.01-.592.015l-1.774.014-6.921.03-26.085.065-91.167.118H438.4v-.242c-.006-22.428-.012-47.055-.019-72.826V151.7h.271l126.529.06h.2v.2c-.045,22.378-.082,40.6-.106,53.244-.023,6.29-.039,11.189-.051,14.53-.01,1.651-.018,2.913-.023,3.778-.006.849-.021,1.274-.021,1.274" fill="#1a2e35"/>
            <rect id="Rectángulo_60" data-name="Rectángulo 60" width="29.781" height="64.879" transform="translate(440.062 158.13)" fill="#ff4f5b"/>
            <g id="Grupo_43" data-name="Grupo 43" opacity="0.4">
              <g id="Grupo_42" data-name="Grupo 42">
                <g id="Grupo_41" data-name="Grupo 41" clip-path="url(#clip-path-6)">
                  <rect id="Rectángulo_61" data-name="Rectángulo 61" width="29.77" height="5.807" transform="translate(440.061 182.685)"/>
                </g>
              </g>
            </g>
            <g id="Grupo_46" data-name="Grupo 46" opacity="0.4">
              <g id="Grupo_45" data-name="Grupo 45">
                <g id="Grupo_44" data-name="Grupo 44" clip-path="url(#clip-path-7)">
                  <rect id="Rectángulo_63" data-name="Rectángulo 63" width="29.77" height="5.808" transform="translate(440.061 194.543)"/>
                </g>
              </g>
            </g>
            <g id="Grupo_49" data-name="Grupo 49" opacity="0.4">
              <g id="Grupo_48" data-name="Grupo 48">
                <g id="Grupo_47" data-name="Grupo 47" clip-path="url(#clip-path-8)">
                  <rect id="Rectángulo_65" data-name="Rectángulo 65" width="29.77" height="6.423" transform="translate(440.061 208.706)"/>
                </g>
              </g>
            </g>
            <path id="Trazado_55" data-name="Trazado 55" d="M464.664,191.539a88.107,88.107,0,0,1-9.575.261,88.1,88.1,0,0,1-9.576-.261,88.1,88.1,0,0,1,9.576-.261,88.107,88.107,0,0,1,9.575.261" fill="#1a2e35"/>
            <path id="Trazado_56" data-name="Trazado 56" d="M464.664,185.479a88.276,88.276,0,0,1-9.575.26,88.272,88.272,0,0,1-9.576-.26,88.1,88.1,0,0,1,9.576-.261,88.107,88.107,0,0,1,9.575.261" fill="#1a2e35"/>
            <path id="Trazado_57" data-name="Trazado 57" d="M469.843,215.129c0,.144-6.606.26-14.754.26s-14.755-.116-14.755-.26,6.6-.261,14.755-.261,14.754.117,14.754.261" fill="#1a2e35"/>
            <path id="Trazado_58" data-name="Trazado 58" d="M460.129,197.659a102.832,102.832,0,0,1-14.616,0,102.442,102.442,0,0,1,14.616,0" fill="#1a2e35"/>
            <path id="Trazado_59" data-name="Trazado 59" d="M462.19,211.221a102.832,102.832,0,0,1-14.616,0,102.448,102.448,0,0,1,14.616,0" fill="#1a2e35"/>
            <path id="Trazado_60" data-name="Trazado 60" d="M464.664,204.366a88.274,88.274,0,0,1-9.575.26,88.27,88.27,0,0,1-9.576-.26,87.8,87.8,0,0,1,9.576-.261,87.8,87.8,0,0,1,9.575.261" fill="#1a2e35"/>
            <path id="Trazado_61" data-name="Trazado 61" d="M464.664,218.931a88.276,88.276,0,0,1-9.575.26,88.272,88.272,0,0,1-9.576-.26,88.1,88.1,0,0,1,9.576-.261,88.107,88.107,0,0,1,9.575.261" fill="#1a2e35"/>
            <rect id="Rectángulo_67" data-name="Rectángulo 67" width="93.251" height="8.726" transform="translate(469.844 179.837)" fill="#ececec"/>
            <rect id="Rectángulo_68" data-name="Rectángulo 68" width="93.251" height="4.376" transform="translate(469.844 158.13)" fill="#f5f5f5"/>
            <path id="Trazado_62" data-name="Trazado 62" d="M536.112,161.154h-62.97a.719.719,0,0,1-.719-.72v-.273a.719.719,0,0,1,.719-.72h62.97a.721.721,0,0,1,.721.72v.273a.721.721,0,0,1-.721.72" fill="#e1e1e1"/>
            <path id="Trazado_63" data-name="Trazado 63" d="M545.1,161.154h-4.188a.72.72,0,0,1-.72-.72v-.273a.72.72,0,0,1,.72-.72H545.1a.721.721,0,0,1,.721.72v.273a.721.721,0,0,1-.721.72" fill="#e1e1e1"/>
            <rect id="Rectángulo_69" data-name="Rectángulo 69" width="0.705" height="0.705" transform="translate(548.814 159.319)" fill="#e1e1e1"/>
            <rect id="Rectángulo_70" data-name="Rectángulo 70" width="0.705" height="0.705" transform="translate(548.814 160.253)" fill="#e1e1e1"/>
            <rect id="Rectángulo_71" data-name="Rectángulo 71" width="0.706" height="0.705" transform="translate(549.91 159.319)" fill="#e1e1e1"/>
            <rect id="Rectángulo_72" data-name="Rectángulo 72" width="0.706" height="0.705" transform="translate(549.91 160.253)" fill="#e1e1e1"/>
            <rect id="Rectángulo_73" data-name="Rectángulo 73" width="93.251" height="8.726" transform="translate(469.844 162.506)" fill="#e1e1e1"/>
            <rect id="Rectángulo_74" data-name="Rectángulo 74" width="2.64" height="2.64" transform="translate(472.423 165.354)" fill="#ff4f5b"/>
            <path id="Trazado_64" data-name="Trazado 64" d="M515.849,166.667c0,.144-8.559.26-19.114.26s-19.116-.116-19.116-.26,8.557-.261,19.116-.261,19.114.116,19.114.261" fill="#1a2e35"/>
            <path id="Trazado_65" data-name="Trazado 65" d="M551.876,166.6a9.019,9.019,0,0,1-4.308,0,9.019,9.019,0,0,1,4.308,0" fill="#1a2e35"/>
            <rect id="Rectángulo_75" data-name="Rectángulo 75" width="93.251" height="8.726" transform="translate(469.844 188.492)" fill="#fafafa"/>
            <rect id="Rectángulo_76" data-name="Rectángulo 76" width="2.665" height="2.64" transform="translate(472.068 191.341)" fill="#ff4f5b"/>
            <path id="Trazado_66" data-name="Trazado 66" d="M515.91,192.652c0,.146-8.641.261-19.3.261s-19.3-.115-19.3-.261,8.639-.259,19.3-.259,19.3.115,19.3.259" fill="#1a2e35"/>
            <path id="Trazado_67" data-name="Trazado 67" d="M552.282,192.581a9.189,9.189,0,0,1-4.349,0,9.189,9.189,0,0,1,4.349,0" fill="#1a2e35"/>
            <rect id="Rectángulo_77" data-name="Rectángulo 77" width="93.251" height="8.725" transform="translate(469.844 197.09)" fill="#e1e1e1"/>
            <rect id="Rectángulo_78" data-name="Rectángulo 78" width="2.665" height="2.641" transform="translate(472.068 199.937)" fill="#ff4f5b"/>
            <path id="Trazado_68" data-name="Trazado 68" d="M515.91,201.25c0,.144-8.641.26-19.3.26s-19.3-.116-19.3-.26,8.639-.261,19.3-.261,19.3.117,19.3.261" fill="#1a2e35"/>
            <path id="Trazado_69" data-name="Trazado 69" d="M552.282,201.178a9.189,9.189,0,0,1-4.349,0,9.223,9.223,0,0,1,4.349,0" fill="#1a2e35"/>
            <rect id="Rectángulo_79" data-name="Rectángulo 79" width="93.251" height="8.726" transform="translate(469.844 205.686)" fill="#fafafa"/>
            <rect id="Rectángulo_80" data-name="Rectángulo 80" width="2.665" height="2.64" transform="translate(472.068 208.535)" fill="#ff4f5b"/>
            <path id="Trazado_70" data-name="Trazado 70" d="M515.91,209.847c0,.145-8.641.261-19.3.261s-19.3-.116-19.3-.261,8.639-.26,19.3-.26,19.3.116,19.3.26" fill="#1a2e35"/>
            <path id="Trazado_71" data-name="Trazado 71" d="M552.282,209.776a9.223,9.223,0,0,1-4.349,0,9.189,9.189,0,0,1,4.349,0" fill="#1a2e35"/>
            <rect id="Rectángulo_81" data-name="Rectángulo 81" width="93.251" height="8.725" transform="translate(469.844 214.284)" fill="#ececec"/>
            <rect id="Rectángulo_82" data-name="Rectángulo 82" width="2.665" height="2.64" transform="translate(472.068 217.132)" fill="#ff4f5b"/>
            <path id="Trazado_72" data-name="Trazado 72" d="M515.91,218.445c0,.144-8.641.26-19.3.26s-19.3-.116-19.3-.26,8.639-.261,19.3-.261,19.3.116,19.3.261" fill="#1a2e35"/>
            <path id="Trazado_73" data-name="Trazado 73" d="M552.282,218.372a9.189,9.189,0,0,1-4.349,0,9.189,9.189,0,0,1,4.349,0" fill="#1a2e35"/>
            <rect id="Rectángulo_83" data-name="Rectángulo 83" width="93.264" height="8.726" transform="translate(469.831 171.121)" fill="#fafafa"/>
            <rect id="Rectángulo_84" data-name="Rectángulo 84" width="2.64" height="2.64" transform="translate(472.423 173.97)" fill="#ff4f5b"/>
            <path id="Trazado_74" data-name="Trazado 74" d="M499.5,175.281c0,.145-4.9.261-10.938.261s-10.941-.116-10.941-.261,4.9-.26,10.941-.26,10.938.116,10.938.26" fill="#1a2e35"/>
            <path id="Trazado_75" data-name="Trazado 75" d="M551.876,175.534a9.019,9.019,0,0,1-4.308,0,9.019,9.019,0,0,1,4.308,0" fill="#1a2e35"/>
            <path id="Trazado_76" data-name="Trazado 76" d="M551.876,184.005a9.019,9.019,0,0,1-4.308,0,9.019,9.019,0,0,1,4.308,0" fill="#1a2e35"/>
            <rect id="Rectángulo_85" data-name="Rectángulo 85" width="2.64" height="2.64" transform="translate(472.423 182.685)" fill="#ff4f5b"/>
            <path id="Trazado_77" data-name="Trazado 77" d="M530.331,184c0,.144-11.8.261-26.355.261s-26.358-.117-26.358-.261,11.8-.261,26.358-.261,26.355.117,26.355.261" fill="#1a2e35"/>
            <path id="Trazado_78" data-name="Trazado 78" d="M444.215,155.986a.8.8,0,1,1-.795-.8.8.8,0,0,1,.795.8" fill="#1a2e35"/>
            <path id="Trazado_79" data-name="Trazado 79" d="M447.316,155.986a.8.8,0,1,1-.8-.8.8.8,0,0,1,.8.8" fill="#1a2e35"/>
            <path id="Trazado_80" data-name="Trazado 80" d="M450.417,155.986a.8.8,0,1,1-.8-.8.8.8,0,0,1,.8.8" fill="#1a2e35"/>
            <path id="Trazado_81" data-name="Trazado 81" d="M563.095,223.009c0-1.6-.046-26.842-.119-69.263l.119.12-123.023.037h-.009l.155-.157c0,24.5-.007,47.922-.01,69.263l-.145-.146,123.032.146-123.032.146h-.147v-.146c0-21.341-.007-44.766-.01-69.263v-.156h.166l123.023.037h.12v.119c-.073,42.421-.117,67.668-.12,69.263" fill="#1a2e35"/>
            <path id="Trazado_82" data-name="Trazado 82" d="M623.242,421.472h-7.521L598.946,270.846h9.868Z" fill="#375a64"/>
            <path id="Trazado_83" data-name="Trazado 83" d="M575.69,421.472h-7.521l-16.9-150.626h9.867Z" fill="#375a64"/>
            <path id="Trazado_84" data-name="Trazado 84" d="M625.55,270.846H360.467v-8.7H625.55Z" fill="#375a64"/>
            <path id="Trazado_85" data-name="Trazado 85" d="M415.487,421.472h7.521l16.134-150.626h-9.868Z" fill="#1a2e35"/>
            <path id="Trazado_86" data-name="Trazado 86" d="M350.974,421.472h7.521L375.38,270.846h-9.868Z" fill="#1a2e35"/>
            <rect id="Rectángulo_86" data-name="Rectángulo 86" width="81.673" height="8.699" transform="translate(360.467 262.147)" fill="#1a2e35"/>
            <rect id="Rectángulo_87" data-name="Rectángulo 87" width="56.396" height="2.602" transform="translate(479.543 259.545)" fill="#1a2e35"/>
            <path id="Trazado_87" data-name="Trazado 87" d="M599.969,387.2l5.335,29.306-36.427,6.823c-.438-3.52,17.1-14.036,17.1-14.036l-4.189-18.637Z" fill="#ff4f5b"/>
            <g id="Grupo_52" data-name="Grupo 52" opacity="0.6">
              <g id="Grupo_51" data-name="Grupo 51">
                <g id="Grupo_50" data-name="Grupo 50" clip-path="url(#clip-path-9)">
                  <path id="Trazado_88" data-name="Trazado 88" d="M596.943,405.6a1.515,1.515,0,0,1,1.347,1.505,1.458,1.458,0,0,1-1.48,1.349,1.6,1.6,0,0,1-1.418-1.6,1.511,1.511,0,0,1,1.7-1.231" fill="#fff"/>
                </g>
              </g>
            </g>
            <g id="Grupo_55" data-name="Grupo 55" opacity="0.6">
              <g id="Grupo_54" data-name="Grupo 54">
                <g id="Grupo_53" data-name="Grupo 53" clip-path="url(#clip-path-10)">
                  <path id="Trazado_89" data-name="Trazado 89" d="M605.3,416.505l-.653-2.934-34.681,7.64s-1.49,1.01-1.093,2.117Z" fill="#fff"/>
                </g>
              </g>
            </g>
            <path id="Trazado_90" data-name="Trazado 90" d="M585.35,409.218c.039.177.943.091,1.926.5.993.382,1.589,1.067,1.739.967.157-.066-.307-1.079-1.505-1.552s-2.229-.07-2.16.086" fill="#1a2e35"/>
            <path id="Trazado_91" data-name="Trazado 91" d="M581.825,411.514c-.009.18.818.338,1.563.978.764.616,1.069,1.4,1.245,1.36.172,0,.1-1.067-.841-1.845s-1.995-.664-1.967-.493" fill="#1a2e35"/>
            <path id="Trazado_92" data-name="Trazado 92" d="M580.512,416.492c.169.008.25-.927-.39-1.815s-1.544-1.121-1.59-.958c-.074.165.564.585,1.078,1.324.53.724.722,1.465.9,1.449" fill="#1a2e35"/>
            <path id="Trazado_93" data-name="Trazado 93" d="M584.866,404.864c.1.148.875-.25,1.894-.37,1.015-.141,1.861.05,1.924-.119.079-.149-.808-.664-2.006-.506s-1.925.872-1.812,1" fill="#1a2e35"/>
            <path id="Trazado_94" data-name="Trazado 94" d="M584.924,400.38a3.477,3.477,0,0,0,1.823-.352,8.283,8.283,0,0,0,1.8-.943,8.924,8.924,0,0,0,.943-.752,2.272,2.272,0,0,0,.47-.532.787.787,0,0,0-.1-.962.991.991,0,0,0-.855-.261,2.428,2.428,0,0,0-.666.223,6.759,6.759,0,0,0-1.062.6,6.576,6.576,0,0,0-1.475,1.42c-.7.941-.862,1.66-.795,1.683.092.043.4-.591,1.138-1.4a7.385,7.385,0,0,1,1.455-1.221,6.857,6.857,0,0,1,.987-.52c.366-.174.694-.238.825-.085.049.059.058.084,0,.212a1.844,1.844,0,0,1-.345.39,9.882,9.882,0,0,1-.862.73,10.227,10.227,0,0,1-1.636,1.007,12.831,12.831,0,0,0-1.646.76" fill="#1a2e35"/>
            <path id="Trazado_95" data-name="Trazado 95" d="M585.2,400.592a2.956,2.956,0,0,0,.151-1.853,5.993,5.993,0,0,0-.623-1.95,6.083,6.083,0,0,0-.672-1.021,1.533,1.533,0,0,0-1.335-.7.864.864,0,0,0-.667.652,2.508,2.508,0,0,0-.063.7,4.138,4.138,0,0,0,.23,1.23,4.27,4.27,0,0,0,1.131,1.738c.889.81,1.671.884,1.675.821.043-.1-.642-.328-1.356-1.133a4.275,4.275,0,0,1-.9-1.606,3.853,3.853,0,0,1-.164-1.061c-.015-.4.071-.737.224-.724.18-.037.543.2.75.478a6.167,6.167,0,0,1,.638.9,6.707,6.707,0,0,1,.694,1.753c.25,1.06.184,1.761.286,1.771" fill="#1a2e35"/>
            <path id="Trazado_96" data-name="Trazado 96" d="M557.513,391.922l5.723,29.232L526.9,428.461c-.486-3.514,16.91-14.262,16.91-14.262l-4.436-18.579Z" fill="#ff4f5b"/>
            <g id="Grupo_58" data-name="Grupo 58" opacity="0.6">
              <g id="Grupo_57" data-name="Grupo 57">
                <g id="Grupo_56" data-name="Grupo 56" clip-path="url(#clip-path-11)">
                  <path id="Trazado_97" data-name="Trazado 97" d="M554.731,410.365a1.513,1.513,0,0,1,1.366,1.487,1.453,1.453,0,0,1-1.461,1.367,1.594,1.594,0,0,1-1.439-1.582,1.509,1.509,0,0,1,1.679-1.253" fill="#fff"/>
                </g>
              </g>
            </g>
            <g id="Grupo_61" data-name="Grupo 61" opacity="0.6">
              <g id="Grupo_60" data-name="Grupo 60">
                <g id="Grupo_59" data-name="Grupo 59" clip-path="url(#clip-path-12)">
                  <path id="Trazado_98" data-name="Trazado 98" d="M563.235,421.154l-.691-2.924-34.578,8.1s-1.475,1.029-1.064,2.132Z" fill="#fff"/>
                </g>
              </g>
            </g>
            <path id="Trazado_99" data-name="Trazado 99" d="M543.187,414.133c.042.177.944.078,1.933.474,1,.369,1.6,1.047,1.752.943.156-.067-.322-1.074-1.526-1.531s-2.23-.041-2.159.114" fill="#1a2e35"/>
            <path id="Trazado_100" data-name="Trazado 100" d="M539.693,416.476c-.006.18.823.327,1.577.956.772.607,1.087,1.388,1.262,1.345.173-.006.086-1.07-.865-1.834s-2-.637-1.974-.467" fill="#1a2e35"/>
            <path id="Trazado_101" data-name="Trazado 101" d="M538.445,421.472c.169.005.237-.931-.413-1.811s-1.559-1.1-1.6-.937c-.071.166.573.579,1.1,1.31.54.718.741,1.456.921,1.438" fill="#1a2e35"/>
            <path id="Trazado_102" data-name="Trazado 102" d="M542.646,409.786c.106.147.871-.262,1.888-.4,1.014-.154,1.862.026,1.924-.145.077-.149-.817-.652-2.012-.479s-1.915.9-1.8,1.019" fill="#1a2e35"/>
            <path id="Trazado_103" data-name="Trazado 103" d="M542.644,405.3a3.5,3.5,0,0,0,1.818-.375,8.325,8.325,0,0,0,1.786-.968,8.67,8.67,0,0,0,.933-.764,2.267,2.267,0,0,0,.464-.539.789.789,0,0,0-.108-.96.994.994,0,0,0-.86-.249,2.38,2.38,0,0,0-.663.231,6.8,6.8,0,0,0-1.054.615,6.584,6.584,0,0,0-1.456,1.44,3.1,3.1,0,0,0-.772,1.692c.092.042.391-.6,1.118-1.412a7.4,7.4,0,0,1,1.44-1.241,6.95,6.95,0,0,1,.979-.533c.365-.177.691-.247.825-.1.049.058.059.083,0,.212a1.8,1.8,0,0,1-.342.393,9.4,9.4,0,0,1-.85.743,10.343,10.343,0,0,1-1.623,1.029,12.671,12.671,0,0,0-1.636.781" fill="#1a2e35"/>
            <path id="Trazado_104" data-name="Trazado 104" d="M542.926,405.51a2.957,2.957,0,0,0,.127-1.854,6.041,6.041,0,0,0-.649-1.943,6.185,6.185,0,0,0-.686-1.012,1.535,1.535,0,0,0-1.345-.684.866.866,0,0,0-.658.66,2.483,2.483,0,0,0-.053.7,4.181,4.181,0,0,0,.245,1.227,4.251,4.251,0,0,0,1.156,1.722c.9.8,1.682.863,1.684.8.042-.1-.645-.318-1.371-1.114a4.283,4.283,0,0,1-.919-1.594,3.8,3.8,0,0,1-.177-1.058c-.022-.4.06-.739.213-.728.18-.039.545.189.756.468a6.246,6.246,0,0,1,.65.895,6.711,6.711,0,0,1,.717,1.745c.264,1.057.208,1.759.31,1.767" fill="#1a2e35"/>
            <path id="Trazado_105" data-name="Trazado 105" d="M578.715,397.765l-14.128-78.659a22.49,22.49,0,0,1,22.135-26.466h49.836l32.565,14.433A20.188,20.188,0,0,1,647.357,327.2l-53.181-4.172,7.663,71.248Z" fill="#1a2e35"/>
            <path id="Trazado_106" data-name="Trazado 106" d="M537.492,401.93l-16.123-82.824A22.49,22.49,0,0,1,543.5,292.64H593.34l32.565,14.433v21.834l-74.947-5.88,9.817,73.6Z" fill="#1a2e35"/>
            <path id="Trazado_107" data-name="Trazado 107" d="M560.776,396.627a5.678,5.678,0,0,1-.171-.882q-.144-.939-.389-2.542c-.321-2.258-.774-5.444-1.332-9.36-1.08-7.953-2.562-18.861-4.2-30.91-1.516-11.573-2.894-22.091-3.915-29.882l.083.133c-3.569-2.455-6.287-4.654-8.231-6.086l-2.236-1.656a6.914,6.914,0,0,1-.772-.589.812.812,0,0,1,.22.115l.614.385c.535.346,1.311.875,2.3,1.575,1.983,1.382,4.744,3.539,8.318,5.94l.071.048.012.085c1.057,7.786,2.483,18.3,4.054,29.862,1.578,12.058,3.008,22.973,4.049,30.931.489,3.926.886,7.119,1.168,9.383q.184,1.611.292,2.554a5.849,5.849,0,0,1,.066.9" fill="#375a64"/>
            <path id="Trazado_108" data-name="Trazado 108" d="M513.589,259.73l3.535-6.626a2.12,2.12,0,0,1,1.862-.936l1.581.074,2.69-2.511H526.4l2.418-1.614,9.327,1.793,7.673,2.063-4.369,8.675-4.381-.924-7.353-.126a8.26,8.26,0,0,1-5.673-2.389,6.984,6.984,0,0,0-4.91-2.017s-2.311,5.163-5.543,4.538" fill="#ffc09d"/>
            <path id="Trazado_109" data-name="Trazado 109" d="M619.85,159.991,620,207.876l-20.543.98-.594-11.647s-7.3,1.449-9.179-5.328c-1.2-4.329-.9-37.784-.9-37.784Z" fill="#ffc09d"/>
            <path id="Trazado_110" data-name="Trazado 110" d="M620.21,197.493c2.187-2.272,3.2-5.435,3.707-8.547s.6-6.291,1.28-9.37c.717-3.233,2.082-6.3,2.778-9.536s.631-6.863-1.287-9.564c0,0-1.266-3.71-6.692-4.011,0,0-4.606-7.46-11.414-6.808-9.254.886-9.506-1.837-15.881-2.842a5.849,5.849,0,0,0-7.066,4.375s-3.277,2.433-3.427,5.935c0,.031,0,.062,0,.094a8.077,8.077,0,0,0,5.522,7.894q.617.208,1.237.407a7.839,7.839,0,0,1,3.247,1.633c1.289,1.284,1.5,3.283,1.434,5.1s-.327,3.7.289,5.41c.21.584.711,1.224,1.309,1.064.715-.189.683-1.184.752-1.92.2-2.143,2.959-3.771,4.9-2.2a3.281,3.281,0,0,1,.983,3.99c-.719,1.507-2.29,2.687-2.6,4.358-.513,2.815,2.791,5.278,4.05,6.809a11.326,11.326,0,0,0,1.441,1.512c2.726,2.3,5.4,5.469,8.986,6.71,2.4.832,5.33.62,7.158-1.149" fill="#1a2e35"/>
            <path id="Trazado_111" data-name="Trazado 111" d="M595.852,206.541c-4.529,3.234-2.667,11.914-2.728,16.468-.136,10.164.829,19.7,1.361,21.295.776,2.33,3.593,22.192,3.593,22.192L593.34,292.64s6.119,15.612,32.566,15.457l13.18-3.149a13.682,13.682,0,0,0,10.455-14.475l-3-35.11-3.994-28.5c-1.045-14.951-10.409-22.906-22.377-22.056Z" fill="#ff4f5b"/>
            <g id="Grupo_64" data-name="Grupo 64" opacity="0.5">
              <g id="Grupo_63" data-name="Grupo 63">
                <g id="Grupo_62" data-name="Grupo 62" clip-path="url(#clip-path-13)">
                  <path id="Trazado_112" data-name="Trazado 112" d="M606.707,304.684c-2.894-1.505.994-30.737,4.374-45.706,1.317-5.836,3.068-11.871,7.215-16.185a24.38,24.38,0,0,1,12.356-6.439,62.789,62.789,0,0,1,13.045-1.287l4.148,66.54s-28.686,9.552-41.138,3.077"/>
                </g>
              </g>
            </g>
            <path id="Trazado_113" data-name="Trazado 113" d="M595.852,206.541A17.936,17.936,0,0,0,583,216.483c-3.332,6.912-17.9,35.687-17.9,35.687l-22.274-1.485-4.453,10.161,30.564,8.195c6.295,1.205,11.8-2.636,14.9-8.314l12.8-23.418Z" fill="#ff4f5b"/>
            <path id="Trazado_114" data-name="Trazado 114" d="M598.077,206.541s-.561-5.088.175-5.961,22.83-.726,22.83-.726l1.163,5.833-2.46,4.363-21.019,1.827Z" fill="#ff4f5b"/>
            <path id="Trazado_115" data-name="Trazado 115" d="M567.741,257.19a6.894,6.894,0,0,1-2.318-4.676,448.209,448.209,0,0,1,2.318,4.676" fill="#1a2e35"/>
            <path id="Trazado_116" data-name="Trazado 116" d="M599.65,229.357a70.331,70.331,0,0,1-3.294,7.9,70.508,70.508,0,0,1-3.768,7.678,70.4,70.4,0,0,1,3.294-7.894,70.463,70.463,0,0,1,3.768-7.679" fill="#1a2e35"/>
            <path id="Trazado_117" data-name="Trazado 117" d="M622.06,204.756a1.292,1.292,0,0,1,.131.7,1.685,1.685,0,0,1-1.171,1.6l-.01,0-.027,0c-2.315.144-6.038.317-10.23.467-3.563.126-6.764.212-9.128.248a6.345,6.345,0,0,1-2.738-.6,1.963,1.963,0,0,1-.809-.634c.029-.037.306.2.9.45a6.825,6.825,0,0,0,2.656.411c2.3-.128,5.545-.273,9.1-.4,4.2-.149,7.929-.241,10.247-.261l-.037.005a1.513,1.513,0,0,0,1.082-1.3c.05-.434,0-.681.038-.687" fill="#1a2e35"/>
            <path id="Trazado_118" data-name="Trazado 118" d="M585.278,212.945c.128.065-4.25,8.778-9.778,19.455s-10.114,19.284-10.242,19.218,4.25-8.776,9.781-19.457,10.112-19.281,10.239-19.216" fill="#1a2e35"/>
            <path id="Trazado_119" data-name="Trazado 119" d="M593.656,219.347c0-.029.2-.056.516.08a1.769,1.769,0,0,1,.954,1.075,1.857,1.857,0,0,1-.712,2.019,2.106,2.106,0,0,1-1.273.359c-.446,0-.873-.085-1.289-.115a2.447,2.447,0,0,0-2.034.744,2.35,2.35,0,0,0-.659,1.673,4.055,4.055,0,0,0,.523,1.686c-.007.057-.747-.412-.89-1.667a2.639,2.639,0,0,1,.675-2.018,2.865,2.865,0,0,1,2.424-.938c.9.092,1.705.272,2.247-.118a1.489,1.489,0,0,0,.633-1.527,1.694,1.694,0,0,0-.7-1c-.25-.173-.427-.217-.417-.258" fill="#fafafa"/>
            <path id="Trazado_120" data-name="Trazado 120" d="M623.183,219.673c0-.029.2-.057.516.079a1.766,1.766,0,0,1,.954,1.076,1.856,1.856,0,0,1-.712,2.019,2.1,2.1,0,0,1-1.273.359c-.445,0-.872-.085-1.289-.115a2.444,2.444,0,0,0-2.033.744,2.35,2.35,0,0,0-.659,1.673,4.055,4.055,0,0,0,.523,1.686c-.007.056-.749-.412-.89-1.667a2.635,2.635,0,0,1,.675-2.018,2.863,2.863,0,0,1,2.422-.938c.9.092,1.706.272,2.248-.118a1.489,1.489,0,0,0,.633-1.527,1.7,1.7,0,0,0-.7-1c-.251-.172-.427-.216-.418-.257" fill="#fafafa"/>
            <path id="Trazado_121" data-name="Trazado 121" d="M622.824,241.024c.027.009.007.206-.2.481a1.756,1.756,0,0,1-1.274.669A1.856,1.856,0,0,1,619.56,241a2.111,2.111,0,0,1-.044-1.322c.11-.431.292-.827.421-1.223a2.447,2.447,0,0,0-.236-2.153,2.349,2.349,0,0,0-1.466-1.041,4.081,4.081,0,0,0-1.764.1,1.981,1.981,0,0,1,1.833-.466,2.638,2.638,0,0,1,1.8,1.139,2.863,2.863,0,0,1,.33,2.577c-.3.853-.671,1.592-.423,2.211a1.486,1.486,0,0,0,1.331.979,1.69,1.69,0,0,0,1.133-.438c.228-.2.313-.363.351-.344" fill="#fafafa"/>
            <path id="Trazado_122" data-name="Trazado 122" d="M609.878,271.309c.027.009.007.206-.2.481a1.756,1.756,0,0,1-1.274.669,1.856,1.856,0,0,1-1.789-1.174,2.111,2.111,0,0,1-.044-1.322c.11-.431.292-.827.421-1.223a2.447,2.447,0,0,0-.236-2.153,2.344,2.344,0,0,0-1.466-1.04,4.073,4.073,0,0,0-1.764.1,1.981,1.981,0,0,1,1.833-.466,2.642,2.642,0,0,1,1.8,1.139,2.863,2.863,0,0,1,.33,2.577c-.3.853-.671,1.592-.423,2.211a1.486,1.486,0,0,0,1.331.979,1.69,1.69,0,0,0,1.133-.438c.228-.2.313-.363.351-.344" fill="#fafafa"/>
            <path id="Trazado_123" data-name="Trazado 123" d="M636.412,227.01c0-.028.2-.056.516.08a1.767,1.767,0,0,1,.955,1.076,1.854,1.854,0,0,1-.713,2.018,2.1,2.1,0,0,1-1.273.359c-.444,0-.872-.085-1.288-.114a2.442,2.442,0,0,0-2.033.743,2.342,2.342,0,0,0-.659,1.673,4.047,4.047,0,0,0,.522,1.687c-.006.056-.748-.412-.89-1.668a2.634,2.634,0,0,1,.675-2.017,2.862,2.862,0,0,1,2.423-.938c.9.091,1.706.271,2.248-.118a1.489,1.489,0,0,0,.632-1.527,1.7,1.7,0,0,0-.7-1c-.25-.172-.427-.217-.418-.258" fill="#fafafa"/>
            <path id="Trazado_124" data-name="Trazado 124" d="M605.577,253.836c-.026.013-.15-.141-.2-.482a1.763,1.763,0,0,1,.425-1.374,1.853,1.853,0,0,1,2.094-.439,2.116,2.116,0,0,1,.968.9c.228.382.379.79.569,1.162a2.445,2.445,0,0,0,1.692,1.352,2.344,2.344,0,0,0,1.772-.3,4.042,4.042,0,0,0,1.17-1.322c.052-.022.036.854-.963,1.627a2.639,2.639,0,0,1-2.075.47,2.864,2.864,0,0,1-2.059-1.585c-.389-.818-.654-1.6-1.267-1.86a1.487,1.487,0,0,0-1.634.251,1.7,1.7,0,0,0-.49,1.113c-.017.3.037.477,0,.491" fill="#fafafa"/>
            <path id="Trazado_125" data-name="Trazado 125" d="M607.029,233.765c0-.028.2-.056.516.08a1.766,1.766,0,0,1,.954,1.076,1.854,1.854,0,0,1-.712,2.018,2.1,2.1,0,0,1-1.273.359c-.445,0-.872-.085-1.288-.115a2.445,2.445,0,0,0-2.034.744,2.35,2.35,0,0,0-.659,1.673,4.063,4.063,0,0,0,.523,1.687c-.007.056-.748-.412-.89-1.668a2.638,2.638,0,0,1,.675-2.018,2.866,2.866,0,0,1,2.422-.938c.9.092,1.707.272,2.248-.117a1.488,1.488,0,0,0,.633-1.527,1.7,1.7,0,0,0-.7-1c-.251-.173-.427-.217-.418-.258" fill="#fafafa"/>
            <path id="Trazado_126" data-name="Trazado 126" d="M606.428,281.261c0-.028.2-.056.516.08a1.767,1.767,0,0,1,.955,1.076,1.856,1.856,0,0,1-.713,2.019,2.116,2.116,0,0,1-1.273.359c-.444,0-.872-.085-1.288-.115a2.443,2.443,0,0,0-2.033.744,2.34,2.34,0,0,0-.659,1.673,4.046,4.046,0,0,0,.522,1.686c-.006.056-.748-.412-.89-1.668a2.634,2.634,0,0,1,.675-2.017,2.867,2.867,0,0,1,2.423-.938c.9.092,1.706.271,2.248-.118a1.486,1.486,0,0,0,.632-1.527,1.692,1.692,0,0,0-.7-1c-.25-.172-.427-.217-.418-.258" fill="#fafafa"/>
            <path id="Trazado_127" data-name="Trazado 127" d="M578.144,255.949c0-.029.2-.056.517.08a1.766,1.766,0,0,1,.954,1.076,1.856,1.856,0,0,1-.712,2.018,2.107,2.107,0,0,1-1.274.359c-.444,0-.872-.085-1.288-.115a2.444,2.444,0,0,0-2.033.744,2.35,2.35,0,0,0-.659,1.673,4.063,4.063,0,0,0,.522,1.686c-.006.057-.748-.412-.89-1.667a2.643,2.643,0,0,1,.675-2.018,2.869,2.869,0,0,1,2.423-.938c.9.092,1.706.272,2.248-.118a1.489,1.489,0,0,0,.633-1.527,1.7,1.7,0,0,0-.7-.995c-.251-.173-.427-.217-.419-.258" fill="#fafafa"/>
            <path id="Trazado_128" data-name="Trazado 128" d="M585.688,242.117c.028.006.038.2-.126.507a1.76,1.76,0,0,1-1.158.852,1.853,1.853,0,0,1-1.945-.891,2.1,2.1,0,0,1-.243-1.3c.043-.443.164-.861.232-1.273a2.444,2.444,0,0,0-.557-2.092,2.346,2.346,0,0,0-1.606-.809,4.089,4.089,0,0,0-1.728.368c-.055-.012.479-.708,1.742-.736a2.644,2.644,0,0,1,1.949.855,2.864,2.864,0,0,1,.713,2.5c-.172.89-.424,1.675-.086,2.25a1.485,1.485,0,0,0,1.463.768,1.7,1.7,0,0,0,1.056-.6c.194-.235.254-.406.294-.394" fill="#fafafa"/>
            <path id="Trazado_129" data-name="Trazado 129" d="M607.3,216.845c.028.005.038.2-.126.506a1.761,1.761,0,0,1-1.158.853,1.853,1.853,0,0,1-1.945-.892,2.1,2.1,0,0,1-.243-1.3c.043-.443.164-.861.232-1.272a2.446,2.446,0,0,0-.557-2.093,2.345,2.345,0,0,0-1.606-.808,4.081,4.081,0,0,0-1.728.367c-.055-.012.479-.708,1.742-.735a2.639,2.639,0,0,1,1.949.854,2.866,2.866,0,0,1,.713,2.5c-.172.889-.424,1.674-.086,2.25a1.488,1.488,0,0,0,1.463.768,1.7,1.7,0,0,0,1.056-.6c.194-.234.254-.406.294-.393" fill="#fafafa"/>
            <path id="Trazado_130" data-name="Trazado 130" d="M636.279,215.129c.028.005.037.2-.127.506a1.756,1.756,0,0,1-1.158.853,1.853,1.853,0,0,1-1.944-.892,2.1,2.1,0,0,1-.244-1.3c.044-.442.164-.861.232-1.272a2.446,2.446,0,0,0-.557-2.093,2.347,2.347,0,0,0-1.606-.808,4.067,4.067,0,0,0-1.727.367c-.056-.011.478-.707,1.741-.735a2.642,2.642,0,0,1,1.949.854,2.863,2.863,0,0,1,.713,2.5c-.172.889-.423,1.675-.085,2.25a1.488,1.488,0,0,0,1.463.768,1.693,1.693,0,0,0,1.055-.6c.194-.234.255-.406.295-.393" fill="#fafafa"/>
            <path id="Trazado_131" data-name="Trazado 131" d="M560.041,259.559c.028.006.037.2-.127.507a1.755,1.755,0,0,1-1.157.852,1.852,1.852,0,0,1-1.945-.891,2.11,2.11,0,0,1-.244-1.3c.044-.442.164-.86.232-1.272a2.441,2.441,0,0,0-.557-2.093,2.347,2.347,0,0,0-1.6-.808,4.06,4.06,0,0,0-1.728.368c-.055-.012.479-.708,1.741-.736a2.645,2.645,0,0,1,1.95.855,2.867,2.867,0,0,1,.713,2.5c-.172.89-.424,1.675-.086,2.25a1.486,1.486,0,0,0,1.463.768,1.69,1.69,0,0,0,1.055-.6c.194-.235.255-.406.3-.394" fill="#fafafa"/>
            <path id="Trazado_132" data-name="Trazado 132" d="M606.485,333.527l-.79,87.944H610.7l.373-86.194s.25-3.938,3.255-4.2,48,2.005,48,2.005l13.26,88.39h5.76L668.4,333.091s-37.793-12.781-56.575-8.843c0,0-4.508-.83-4.758,2.626s-.585,6.653-.585,6.653" fill="#e1e1e1"/>
            <path id="Trazado_133" data-name="Trazado 133" d="M607.364,323.364s7.816-60.976,10.629-71.334a18.7,18.7,0,0,1,8.666-11.073,14.694,14.694,0,0,1,7.935-2.1l41.511.911a6.273,6.273,0,0,1,6.056,7.26L668.4,333.092c-15.276-.039-51.018,0-51.018,0s-48.9-5.338-56.4-5.666c-4.7-.206-5.049,1.6-5.44,3.566h0c-4.4-3.566-1.776-10.892,3.878-10.547Z" fill="#375a64"/>
            <path id="Trazado_134" data-name="Trazado 134" d="M681.875,243.949a1.784,1.784,0,0,1-.356.026l-1.046.026-4.023.049-14.793.083-10.216.032-5.69.013-2.977.005c-1,.006-2.033-.018-3.032.064a11.183,11.183,0,0,0-9.416,7.438,18.756,18.756,0,0,0-.7,3.276q-.277,1.692-.558,3.409-.561,3.434-1.138,6.964c-3.11,18.8-5.924,35.808-7.967,48.158-1.041,6.135-1.884,11.109-2.474,14.584-.3,1.7-.533,3.024-.7,3.961-.081.431-.145.77-.194,1.028a1.822,1.822,0,0,1-.084.348,1.841,1.841,0,0,1,.031-.357c.036-.259.083-.6.144-1.036.142-.94.343-2.273.6-3.976.551-3.481,1.339-8.465,2.311-14.611,2-12.356,4.765-29.379,7.816-48.184q.578-3.526,1.142-6.964.282-1.717.56-3.408a19.225,19.225,0,0,1,.73-3.359,11.664,11.664,0,0,1,9.851-7.749c1.061-.083,2.074-.051,3.079-.055l2.977.006,5.69.013,10.216.031c6.222.036,11.269.064,14.793.083l4.023.049,1.046.026a1.634,1.634,0,0,1,.356.027" fill="#1a2e35"/>
            <path id="Trazado_135" data-name="Trazado 135" d="M555.466,333.527l-2.278,87.944H558.2l1.3-86.057s.061-5.123,3.964-4.7c3,.329,48.438,5.609,48.438,5.609l15.3,85.144h5.759l-15.569-88.38-55.692-7.015a5.928,5.928,0,0,0-3.4.514,4.945,4.945,0,0,0-2.749,4.4c-.245,3.458-.078,2.534-.078,2.534" fill="#ececec"/>
            <path id="Trazado_136" data-name="Trazado 136" d="M669.123,239.613s-28.041,91.166-61.76,83.752l.558-4.3s26.062,4.329,56.73-79.552Z" fill="#ff4f5b"/>
            <path id="Trazado_137" data-name="Trazado 137" d="M609.773,322.343a78.476,78.476,0,0,0,5.484,27.71c1.013,2.56,2.344,5.26,4.823,6.456,2.456,1.185,5.365.571,7.993-.153a121.641,121.641,0,0,0,19.065-7.018c2.254-1.052,4.617-2.306,5.773-4.509,1.377-2.628.65-5.817-.136-8.677q-3.786-13.779-8.494-27.282c-.654-1.875-3.655-9.107-3.655-9.107" fill="#ff4f5b"/>
            <path id="Trazado_138" data-name="Trazado 138" d="M643.994,310.557a1.786,1.786,0,0,1,.014.488c0,.32-.035.789-.089,1.394a28.948,28.948,0,0,1-.953,5.049,26.376,26.376,0,0,1-3.11,6.965A22.282,22.282,0,0,1,633.3,331.1a18.917,18.917,0,0,1-8.8,3.081,17.239,17.239,0,0,1-7.542-1.119,15.122,15.122,0,0,1-4.4-2.655,10.641,10.641,0,0,1-.993-.988c-.212-.239-.316-.37-.3-.382.04-.039.486.464,1.424,1.214a16.138,16.138,0,0,0,4.407,2.466,17.272,17.272,0,0,0,7.372.986,18.754,18.754,0,0,0,8.558-3.039,22.252,22.252,0,0,0,6.434-6.471,27.11,27.11,0,0,0,3.158-6.809,34,34,0,0,0,1.106-4.97,18.749,18.749,0,0,1,.276-1.856" fill="#1a2e35"/>
            <path id="Trazado_139" data-name="Trazado 139" d="M630.714,335.909a36.4,36.4,0,0,1,.588-8.692,36.531,36.531,0,0,1-.588,8.692" fill="#1a2e35"/>
            <path id="Trazado_140" data-name="Trazado 140" d="M327.948,355.608c7.281,2.543,16.781.271,23.013-4.278s10.712-11.069,14.685-17.681c1.7-2.821,3.351-5.763,3.888-9.011s-.254-6.9-2.774-9.021c-3.914-3.294-9.912-1.623-14.358.909a49.517,49.517,0,0,0-24.454,39.082" fill="#ff4f5b"/>
            <path id="Trazado_141" data-name="Trazado 141" d="M335.767,373.038c4.373,5.771,11.888,8.339,19.12,8.674s14.38-1.665,21.14-4.259c2.453-.94,5.136-2.23,5.977-4.72a6,6,0,0,0-1.28-5.566,12.469,12.469,0,0,0-4.882-3.327,33.345,33.345,0,0,0-21.277-1.153c-7,1.816-13.117,5.875-18.8,10.351" fill="#ff4f5b"/>
            <path id="Trazado_142" data-name="Trazado 142" d="M327.841,324.408c6.028.12,10.592-5.161,13.321-10.537a39.051,39.051,0,0,0,3.59-24.353c-.551-3.081-1.716-6.4-4.473-7.884-2.8-1.506-6.447-.514-8.795,1.629s-3.636,5.206-4.575,8.244c-3.235,10.471-2.538,22.505.932,32.9" fill="#ff4f5b"/>
            <path id="Trazado_143" data-name="Trazado 143" d="M308.038,357.753c10.278-17.494,11.992-38.9,5.921-58.259-.985-3.14-2.844-6.734-6.128-6.942-3.638-.231-5.918,3.825-6.923,7.329-3.524,12.294-2.774,25.352-2,38.117.48,7.863,3.182,14.586,9.126,19.755" fill="#ff4f5b"/>
            <path id="Trazado_144" data-name="Trazado 144" d="M297.349,364.947a42.043,42.043,0,0,0-24.942-26.45c-2.73-1.028-6.2-1.613-8.236.475-2,2.049-1.382,5.473-.1,8.031,2.069,4.131,5.428,7.451,8.776,10.636,3.044,2.9,6.208,5.807,10.059,7.491s10.922,2.112,14.443-.183" fill="#ff4f5b"/>
            <path id="Trazado_145" data-name="Trazado 145" d="M361.076,320.005c.005.007-.056.061-.18.159l-.553.43-2.155,1.61-1.562,1.155c-.563.434-1.149.937-1.792,1.458-1.273,1.064-2.777,2.208-4.29,3.647l-2.423,2.2c-.838.771-1.646,1.64-2.518,2.5-1.769,1.7-3.482,3.687-5.325,5.737a113.264,113.264,0,0,0-18.788,30.4c-1.01,2.565-2.019,4.985-2.75,7.329-.381,1.165-.8,2.276-1.111,3.37s-.605,2.148-.887,3.153c-.611,2-.962,3.853-1.345,5.466-.178.81-.366,1.559-.5,2.255q-.182,1.044-.333,1.914c-.2,1.119-.361,2-.477,2.647-.056.279-.1.5-.136.687a.121.121,0,1,1-.05-.007c.024-.184.053-.413.089-.694q.143-.971.389-2.665c.088-.582.185-1.225.292-1.925.124-.7.3-1.454.466-2.268.358-1.622.686-3.491,1.278-5.5q.409-1.517.859-3.171c.306-1.1.715-2.218,1.089-3.391.717-2.357,1.716-4.792,2.719-7.373a110.73,110.73,0,0,1,18.862-30.515c1.86-2.05,3.591-4.033,5.379-5.728.881-.858,1.7-1.725,2.546-2.489s1.67-1.491,2.452-2.187c1.532-1.428,3.056-2.557,4.348-3.6.653-.514,1.249-1.007,1.82-1.431l1.592-1.123,2.21-1.538.582-.391a.849.849,0,0,1,.207-.118" fill="#1a2e35"/>
            <path id="Trazado_146" data-name="Trazado 146" d="M374.688,368.5a3.8,3.8,0,0,1-.7-.117c-.46-.083-1.127-.261-2-.4a56.461,56.461,0,0,0-7.441-.912,54.309,54.309,0,0,0-44.091,18.348,56.474,56.474,0,0,0-4.6,5.92c-.514.724-.857,1.321-1.123,1.706a4.086,4.086,0,0,1-.413.583,3.8,3.8,0,0,1,.329-.634c.24-.4.559-1.016,1.05-1.759a50.049,50.049,0,0,1,4.5-6.043,53.429,53.429,0,0,1,44.37-18.462,50.21,50.21,0,0,1,7.458,1.067c.872.175,1.533.383,1.987.5a3.968,3.968,0,0,1,.682.212" fill="#1a2e35"/>
            <path id="Trazado_147" data-name="Trazado 147" d="M336.727,288.617a1.085,1.085,0,0,1-.039.272c-.043.2-.1.462-.164.786-.162.722-.389,1.73-.676,3.011-.592,2.615-1.495,6.386-2.63,11.041-2.264,9.313-5.555,22.136-8.983,36.346-1.7,7.11-3.246,13.9-4.575,20.094-1.3,6.2-2.416,11.792-3.244,16.51-.444,2.353-.778,4.494-1.093,6.37s-.573,3.495-.766,4.82l-.475,3.048c-.055.326-.1.587-.135.792a1.077,1.077,0,0,1-.063.267,1.206,1.206,0,0,1,.014-.274c.022-.207.052-.47.088-.8.092-.734.22-1.759.385-3.061.164-1.331.385-2.955.684-4.836s.6-4.028,1.024-6.387c.785-4.73,1.863-10.335,3.144-16.543,1.306-6.2,2.836-13,4.54-20.115,3.43-14.216,6.774-27.026,9.122-36.316,1.167-4.619,2.114-8.37,2.78-11l.764-2.99c.086-.318.155-.574.21-.774a1.173,1.173,0,0,1,.088-.261" fill="#1a2e35"/>
            <path id="Trazado_148" data-name="Trazado 148" d="M313.124,390.568a.737.737,0,0,1-.065-.212c-.039-.171-.086-.378-.144-.631l-.506-2.435c-.435-2.117-1.013-5.189-1.672-8.994-1.317-7.612-2.881-18.182-3.842-29.937-.464-5.88-.724-11.494-.837-16.6-.085-5.109-.041-9.711.119-13.573.047-1.931.174-3.675.259-5.207s.186-2.85.285-3.926q.144-1.566.228-2.477c.029-.258.053-.469.072-.643a.111.111,0,1,1,.049,0c-.006.175-.013.387-.023.647q-.049.912-.138,2.482c-.07,1.077-.15,2.395-.2,3.928s-.162,3.273-.187,5.2c-.116,3.857-.124,8.453-.015,13.553.138,5.1.41,10.7.875,16.574.959,11.736,2.467,22.3,3.7,29.919.615,3.81,1.141,6.891,1.519,9.016q.264,1.549.417,2.452c.039.257.07.466.1.639a.792.792,0,0,1,.017.222" fill="#1a2e35"/>
            <path id="Trazado_149" data-name="Trazado 149" d="M313.884,392.789a3.463,3.463,0,0,1-.268-.6c-.171-.448-.4-1.033-.676-1.76-.148-.387-.308-.812-.483-1.272q-.307-.687-.66-1.478t-.755-1.7c-.265-.6-.609-1.209-.935-1.863l-1.049-2.039q-.6-1.035-1.25-2.149c-.825-1.509-1.893-3.008-2.923-4.641a109.713,109.713,0,0,0-7.742-9.894,121.734,121.734,0,0,0-8.885-8.893c-1.477-1.246-2.83-2.492-4.2-3.537l-1.947-1.551q-.96-.709-1.846-1.361c-1.165-.886-2.263-1.624-3.228-2.272s-1.791-1.213-2.493-1.633l-1.593-1.01a3.417,3.417,0,0,1-.539-.381,3.308,3.308,0,0,1,.588.3c.418.237.963.548,1.643.933.718.4,1.57.927,2.543,1.57.983.627,2.1,1.348,3.279,2.218l1.873,1.342,1.97,1.535c1.383,1.035,2.752,2.274,4.243,3.517a115.349,115.349,0,0,1,8.95,8.9,104.523,104.523,0,0,1,7.749,9.966c1.026,1.649,2.086,3.163,2.9,4.688q.637,1.126,1.232,2.174.534,1.074,1.026,2.064c.318.662.654,1.276.909,1.887s.5,1.182.724,1.722.432,1.035.626,1.5l.444,1.292c.246.742.443,1.337.593,1.794a3.258,3.258,0,0,1,.175.635" fill="#1a2e35"/>
            <path id="Trazado_150" data-name="Trazado 150" d="M357.264,340.3c0,.076-1.246.076-3.246.188a58.111,58.111,0,0,0-15.324,2.911c-1.9.63-3.06,1.085-3.089,1.014a3.134,3.134,0,0,1,.771-.419c.509-.244,1.261-.56,2.2-.919a46.182,46.182,0,0,1,15.425-2.929c1.009-.013,1.824.006,2.388.047a3.035,3.035,0,0,1,.871.107" fill="#1a2e35"/>
            <path id="Trazado_151" data-name="Trazado 151" d="M365.019,378.168A23.585,23.585,0,0,0,354.737,367.1a7.211,7.211,0,0,1,2.089.924,18.444,18.444,0,0,1,7.426,8,7.151,7.151,0,0,1,.767,2.151" fill="#1a2e35"/>
            <path id="Trazado_152" data-name="Trazado 152" d="M338.576,302.82c.1.1-1.795,1.979-3.86,4.521s-3.533,4.767-3.655,4.692a28.918,28.918,0,0,1,7.515-9.213" fill="#1a2e35"/>
            <path id="Trazado_153" data-name="Trazado 153" d="M332.365,292.1a17.944,17.944,0,0,1,.937,4.057,18.126,18.126,0,0,1,.459,4.138,35.76,35.76,0,0,1-1.4-8.2" fill="#1a2e35"/>
            <path id="Trazado_154" data-name="Trazado 154" d="M313.137,325.75a50.894,50.894,0,0,1-3.009,6.331,50.718,50.718,0,0,1-3.439,6.109,101.356,101.356,0,0,1,6.448-12.44" fill="#1a2e35"/>
            <path id="Trazado_155" data-name="Trazado 155" d="M301.692,314.324a56.58,56.58,0,0,1,4.667,9.376,56.589,56.589,0,0,1-4.667-9.376" fill="#1a2e35"/>
            <path id="Trazado_156" data-name="Trazado 156" d="M284.871,353.4c-.032.139-2.072-.258-4.617-.433s-4.62-.081-4.632-.223a18.526,18.526,0,0,1,9.249.656" fill="#1a2e35"/>
            <path id="Trazado_157" data-name="Trazado 157" d="M296.359,387.948l5.722,30.093a4.219,4.219,0,0,0,4.144,3.43h16.9a4.217,4.217,0,0,0,4.162-3.528l4.974-29.995Z" fill="#1a2e35"/>
            <path id="Trazado_158" data-name="Trazado 158" d="M298.218,397.729h32.33l1.718-9.78H296.359Z" fill="#375a64"/>
            <path id="Trazado_159" data-name="Trazado 159" d="M298.218,397.729l.679,3.565h31.156l.495-3.565Z" fill="#fafafa"/>
          </g>
        </g>
      </g>
    </g>
  </g>
</svg>
