<svg id="Grupo_105" data-name="Grupo 105" xmlns="http://www.w3.org/2000/svg" xmlns:xlink="http://www.w3.org/1999/xlink" width="946.255" height="434.955" viewBox="0 0 946.255 434.955">
  <defs>
    <clipPath id="clip-path">
      <rect id="Rectángulo_112" data-name="Rectángulo 112" width="946.255" height="434.955" fill="none"/>
    </clipPath>
    <clipPath id="clip-path-2">
      <rect id="Rectángulo_111" data-name="Rectángulo 111" width="946.255" height="434.956" transform="translate(0 -0.001)" fill="none"/>
    </clipPath>
    <clipPath id="clip-path-3">
      <rect id="Rectángulo_98" data-name="Rectángulo 98" width="204.21" height="282.752" transform="translate(304.935 24.843)" fill="none"/>
    </clipPath>
    <clipPath id="clip-path-4">
      <rect id="Rectángulo_101" data-name="Rectángulo 101" width="3.093" height="3.085" transform="translate(537.351 420.867)" fill="none"/>
    </clipPath>
    <clipPath id="clip-path-5">
      <rect id="Rectángulo_102" data-name="Rectángulo 102" width="39.72" height="3.219" transform="translate(506.074 430.934)" fill="none"/>
    </clipPath>
    <clipPath id="clip-path-6">
      <rect id="Rectángulo_103" data-name="Rectángulo 103" width="3.095" height="3.086" transform="translate(584.578 421.493)" fill="none"/>
    </clipPath>
    <clipPath id="clip-path-7">
      <rect id="Rectángulo_104" data-name="Rectángulo 104" width="39.725" height="3.286" transform="translate(579.059 431.461)" fill="none"/>
    </clipPath>
    <clipPath id="clip-path-8">
      <rect id="Rectángulo_105" data-name="Rectángulo 105" width="10.946" height="12.326" transform="translate(183.215 309.746)" fill="none"/>
    </clipPath>
    <clipPath id="clip-path-9">
      <rect id="Rectángulo_106" data-name="Rectángulo 106" width="24.949" height="10.529" transform="translate(164.487 318.21)" fill="none"/>
    </clipPath>
    <clipPath id="clip-path-10">
      <rect id="Rectángulo_107" data-name="Rectángulo 107" width="24.508" height="16.646" transform="translate(184.103 326.466)" fill="none"/>
    </clipPath>
    <clipPath id="clip-path-11">
      <rect id="Rectángulo_108" data-name="Rectángulo 108" width="10.811" height="20.843" transform="translate(213.147 321.905)" fill="none"/>
    </clipPath>
    <clipPath id="clip-path-12">
      <rect id="Rectángulo_109" data-name="Rectángulo 109" width="23.732" height="16.178" transform="translate(199.375 339.303)" fill="none"/>
    </clipPath>
    <clipPath id="clip-path-13">
      <rect id="Rectángulo_110" data-name="Rectángulo 110" width="9.41" height="9.657" transform="translate(196.146 317.164)" fill="none"/>
    </clipPath>
  </defs>
  <g id="Grupo_104" data-name="Grupo 104" clip-path="url(#clip-path)">
    <g id="Grupo_103" data-name="Grupo 103">
      <g id="Grupo_102" data-name="Grupo 102" clip-path="url(#clip-path-2)">
        <path id="Trazado_160" data-name="Trazado 160" d="M712.887,215.776s-7.919-.57-7.189,17.193,2.541,27.226,2.541,27.226-.233,3.939-3.284,3.166-8.789-4.606-11.623-1.74c-2.939,2.97-1.894,7.529,2.005,12.9s12.009,17.445,12.738,18.539c.716,1.075,1,3.09-1.159,2.9s-16.758-5.141-18.691,1.925,11.387,20.239,12.815,21.707,1.505,2.394.926,3.282-5.329-1.237-9.538-2.474-9.307-1.933-10.079,2.237,5.093,16.375,27.062,29.2l10.569,5.277,10-6.381c20.576-14.96,25.192-27.69,24.006-31.763s-6.189-2.869-10.253-1.217-8.578,4.242-9.243,3.416-.681-1.755.593-3.359,13.21-16.042,10.58-22.88-16.658-.455-18.79-.046-2.049-1.625-1.443-2.765c.616-1.162,7.477-13.989,10.82-19.721s3.926-10.372.7-13.034c-3.106-2.568-8.432,1.82-11.39,2.894s-3.584-2.821-3.584-2.821.857-9.595-.2-27.344-9.063-16.315-9.063-16.315" fill="#ececec"/>
        <path id="Trazado_161" data-name="Trazado 161" d="M713.513,231.685s.021.126.042.371c.02.263.048.625.084,1.09.066.978.162,2.389.285,4.2.242,3.644.554,8.918.914,15.437.725,13.037,1.571,31.054,2.441,50.956s1.671,37.929,2.322,50.969c.331,6.505.6,11.776.785,15.44.09,1.809.16,3.221.209,4.2.019.466.033.829.044,1.093.008.246,0,.372,0,.372s-.021-.125-.042-.37c-.021-.263-.049-.625-.084-1.09-.066-.977-.162-2.388-.285-4.194-.242-3.643-.554-8.917-.914-15.436-.725-13.037-1.572-31.056-2.441-50.965s-1.671-37.92-2.322-50.96c-.331-6.505-.6-11.777-.785-15.442-.09-1.809-.16-3.22-.209-4.2-.019-.466-.033-.829-.044-1.093-.008-.246,0-.373,0-.373" fill="#e1e1e1"/>
        <path id="Trazado_162" data-name="Trazado 162" d="M701.144,267.306a3.4,3.4,0,0,1,.657.547c.407.369.979.922,1.677,1.61,1.395,1.382,3.27,3.341,5.3,5.542l5.169,5.655,1.573,1.707a3.482,3.482,0,0,1,.551.654,3.527,3.527,0,0,1-.662-.542c-.406-.371-.977-.924-1.669-1.621-1.381-1.4-3.231-3.378-5.259-5.578l-5.208-5.618q-.932-1-1.583-1.7a3.482,3.482,0,0,1-.546-.658" fill="#e1e1e1"/>
        <path id="Trazado_163" data-name="Trazado 163" d="M717.119,282.672c-.079-.079,3.786-4.127,8.632-9.04s8.842-8.835,8.922-8.757-3.785,4.126-8.633,9.041-8.842,8.834-8.921,8.756" fill="#e1e1e1"/>
        <path id="Trazado_164" data-name="Trazado 164" d="M717.076,313.3a3.665,3.665,0,0,1,.737-.468q.846-.475,2.067-1.161c1.744-.979,4.148-2.342,6.748-3.939s4.91-3.114,6.573-4.227c.774-.518,1.434-.957,1.972-1.315a3.69,3.69,0,0,1,.751-.446,3.567,3.567,0,0,1-.66.574c-.44.346-1.086.836-1.9,1.421-1.624,1.176-3.913,2.741-6.525,4.338s-5.042,2.929-6.825,3.847c-.892.455-1.62.814-2.129,1.048a3.626,3.626,0,0,1-.809.328" fill="#e1e1e1"/>
        <path id="Trazado_165" data-name="Trazado 165" d="M699.567,302.581a3.135,3.135,0,0,1,.73.343c.457.244,1.113.607,1.917,1.064,1.609.915,3.818,2.2,6.244,3.645s4.613,2.769,6.184,3.747c.786.488,1.418.889,1.851,1.175a3.167,3.167,0,0,1,.65.478,3,3,0,0,1-.73-.343c-.458-.243-1.113-.607-1.917-1.064-1.609-.915-3.818-2.2-6.244-3.646s-4.613-2.768-6.184-3.746c-.786-.488-1.418-.889-1.851-1.174a3.146,3.146,0,0,1-.65-.479" fill="#e1e1e1"/>
        <path id="Trazado_166" data-name="Trazado 166" d="M696.093,329.615a5.207,5.207,0,0,1,.93.45c.651.36,1.475.815,2.46,1.357,2.068,1.161,4.911,2.789,8.039,4.609s5.948,3.487,7.979,4.712l2.4,1.468a5,5,0,0,1,.85.586,5.014,5.014,0,0,1-.929-.451c-.652-.358-1.476-.813-2.46-1.356-2.069-1.161-4.911-2.789-8.04-4.609s-5.948-3.488-7.979-4.711l-2.4-1.469a5.057,5.057,0,0,1-.851-.586" fill="#e1e1e1"/>
        <path id="Trazado_167" data-name="Trazado 167" d="M718.294,342.329a5.8,5.8,0,0,1,.919-.615l2.569-1.565c2.168-1.321,5.157-3.155,8.4-5.271s6.137-4.1,8.22-5.551l2.471-1.716a5.825,5.825,0,0,1,.934-.592,5.851,5.851,0,0,1-.841.719c-.557.442-1.374,1.067-2.4,1.821-2.043,1.513-4.913,3.541-8.166,5.658s-6.268,3.919-8.476,5.178c-1.106.628-2.006,1.125-2.636,1.455a5.769,5.769,0,0,1-1,.479" fill="#e1e1e1"/>
        <path id="Trazado_168" data-name="Trazado 168" d="M734.179,360.569h-29.24l9.544,72.241h10.152Z" fill="#e1e1e1"/>
        <path id="Trazado_169" data-name="Trazado 169" d="M706.456,369.449c-.011.008.032.1.156.258a1.872,1.872,0,0,0,.705.505,3.545,3.545,0,0,0,3.089-.38c1.181-.652,2.209-1.931,3.791-2.5a8.3,8.3,0,0,1,5.377.107,22.96,22.96,0,0,1,5.007,2.426,34.566,34.566,0,0,0,4.071,2.184,11.241,11.241,0,0,0,3,.869,5.572,5.572,0,0,0,.849.057c.194,0,.3-.009.3-.025a15.177,15.177,0,0,1-4.011-1.209,39.788,39.788,0,0,1-3.982-2.253,22.265,22.265,0,0,0-5.092-2.505,8.585,8.585,0,0,0-5.675-.061,7.454,7.454,0,0,0-2.137,1.321,16.808,16.808,0,0,1-1.673,1.3,3.441,3.441,0,0,1-2.847.494,2.931,2.931,0,0,1-.928-.589" fill="#f5f5f5"/>
        <path id="Trazado_170" data-name="Trazado 170" d="M707.524,382.754c.039.024.231-.3.688-.775a6.507,6.507,0,0,1,2.335-1.481,10.391,10.391,0,0,1,4.067-.612,42.79,42.79,0,0,1,5.088.692,17.445,17.445,0,0,0,5.21.216,14.3,14.3,0,0,0,4.1-1.17,12.956,12.956,0,0,0,2.466-1.466,3.457,3.457,0,0,0,.78-.7,25.927,25.927,0,0,1-3.379,1.859,14.936,14.936,0,0,1-4.018,1.043,17.945,17.945,0,0,1-5.081-.25,38.536,38.536,0,0,0-5.15-.663,10.3,10.3,0,0,0-4.207.74,6.125,6.125,0,0,0-2.346,1.67,4.2,4.2,0,0,0-.443.647c-.085.158-.123.243-.108.252" fill="#f5f5f5"/>
        <path id="Trazado_171" data-name="Trazado 171" d="M730.867,389.877a2.515,2.515,0,0,0-.807-.419,8.632,8.632,0,0,0-2.422-.519,15.487,15.487,0,0,0-3.664.209c-1.364.221-2.826.6-4.361.924a18.421,18.421,0,0,1-4.354.492,9.481,9.481,0,0,1-3.457-.749,8,8,0,0,1-2.622-1.951,2.247,2.247,0,0,0,.495.763,6.189,6.189,0,0,0,1.985,1.495,9.307,9.307,0,0,0,3.58.881,17.652,17.652,0,0,0,4.472-.464c1.551-.33,3-.718,4.337-.958a16.8,16.8,0,0,1,3.569-.306,13.5,13.5,0,0,1,3.249.6" fill="#f5f5f5"/>
        <path id="Trazado_172" data-name="Trazado 172" d="M710.107,399.9a4.74,4.74,0,0,1,2.839-.287,13.745,13.745,0,0,1,2.971,1.107,11.275,11.275,0,0,0,3.854,1.063,11.572,11.572,0,0,0,6.995-1.621,10.022,10.022,0,0,0,1.741-1.338c.356-.379.538-.6.515-.62a25.252,25.252,0,0,1-2.425,1.667,11.99,11.99,0,0,1-6.783,1.437c-2.769-.158-4.894-1.809-6.812-2.027a4.341,4.341,0,0,0-2.206.19c-.495.194-.7.411-.689.429" fill="#f5f5f5"/>
        <path id="Trazado_173" data-name="Trazado 173" d="M711.736,413.762a5.59,5.59,0,0,0,2.438-.484c1.47-.492,3.289-1.619,5.414-2.462a8.778,8.778,0,0,1,3.107-.651,5.73,5.73,0,0,1,2.5.57A5.553,5.553,0,0,1,727,412.293a1.35,1.35,0,0,0-.279-.616,3.994,3.994,0,0,0-1.369-1.239,5.716,5.716,0,0,0-2.651-.713,8.711,8.711,0,0,0-3.283.645c-2.2.877-3.963,2.038-5.367,2.594-1.386.6-2.326.722-2.315.8" fill="#f5f5f5"/>
        <path id="Trazado_174" data-name="Trazado 174" d="M713.169,420.213a6.819,6.819,0,0,0,1.852.6,33.977,33.977,0,0,0,9.319.915,6.786,6.786,0,0,0,1.933-.229c-.007-.144-2.963-.017-6.578-.382-3.615-.346-6.491-1.046-6.526-.906" fill="#f5f5f5"/>
        <rect id="Rectángulo_95" data-name="Rectángulo 95" width="70.958" height="102.85" transform="translate(595.926 55.258)" fill="#e1e1e1"/>
        <rect id="Rectángulo_96" data-name="Rectángulo 96" width="70.958" height="102.85" transform="translate(592.371 55.258)" fill="#f5f5f5"/>
        <rect id="Rectángulo_97" data-name="Rectángulo 97" width="53.325" height="80.571" transform="translate(601.188 66.398)" fill="#fff"/>
        <path id="Trazado_175" data-name="Trazado 175" d="M654.513,146.969s-.007-.137-.01-.395-.006-.645-.011-1.142c0-1.013-.011-2.494-.021-4.419-.011-3.861-.027-9.489-.048-16.6-.021-14.207-.052-34.325-.087-58.017l.177.176-53.319.016h-.006l.192-.192c-.014,30.394-.028,58.419-.039,80.571l-.153-.154L640,146.9l10.723.039,2.815.017c.637.005.973.017.973.017s-.313.011-.94.017l-2.787.016c-2.463.01-6.07.023-10.689.039l-38.909.081h-.154v-.154c-.011-22.152-.025-50.177-.04-80.571V66.2h.2l53.319.017h.178V66.4c-.036,23.739-.067,43.9-.088,58.134-.02,7.091-.036,12.705-.047,16.557-.01,1.909-.017,3.379-.022,4.384,0,.488-.007.861-.01,1.122s-.011.374-.011.374" fill="#e1e1e1"/>
        <path id="Trazado_176" data-name="Trazado 176" d="M663.529,55.258a12.329,12.329,0,0,1-1.265,1.838c-.824,1.1-1.994,2.6-3.329,4.223s-2.584,3.056-3.508,4.077a12.151,12.151,0,0,1-1.561,1.593,13.262,13.262,0,0,1,1.354-1.771c.952-1.154,2.122-2.574,3.416-4.145l3.414-4.146a13.174,13.174,0,0,1,1.479-1.669" fill="#e1e1e1"/>
        <path id="Trazado_177" data-name="Trazado 177" d="M654.786,146.709a65.887,65.887,0,0,0,9.3,11.632" fill="#fff"/>
        <path id="Trazado_178" data-name="Trazado 178" d="M664.086,158.341a10.667,10.667,0,0,1-1.622-1.475,52.021,52.021,0,0,1-6.6-8.251,10.489,10.489,0,0,1-1.082-1.906,14.584,14.584,0,0,1,1.308,1.753c.782,1.1,1.882,2.6,3.164,4.206s2.507,3.007,3.406,4.011a14.7,14.7,0,0,1,1.423,1.662" fill="#e1e1e1"/>
        <path id="Trazado_179" data-name="Trazado 179" d="M592.362,158.027l9.294-11.467" fill="#fff"/>
        <path id="Trazado_180" data-name="Trazado 180" d="M601.656,146.559a70.713,70.713,0,0,1-4.5,5.855,70.606,70.606,0,0,1-4.8,5.613,70.621,70.621,0,0,1,4.5-5.856,71.413,71.413,0,0,1,4.8-5.612" fill="#e1e1e1"/>
        <path id="Trazado_181" data-name="Trazado 181" d="M592.371,55.258a64.14,64.14,0,0,1,4.512,5.393,64.65,64.65,0,0,1,4.209,5.632,63.558,63.558,0,0,1-4.512-5.393,64.32,64.32,0,0,1-4.209-5.632" fill="#e1e1e1"/>
        <path id="Trazado_182" data-name="Trazado 182" d="M639.594,108a5.716,5.716,0,1,1-5.716-5.715A5.716,5.716,0,0,1,639.594,108" fill="#e1e1e1"/>
        <path id="Trazado_183" data-name="Trazado 183" d="M642.663,87.868a4.273,4.273,0,1,1-4.272-4.273,4.272,4.272,0,0,1,4.272,4.273" fill="#e1e1e1"/>
        <path id="Trazado_184" data-name="Trazado 184" d="M626.03,94.443a3.092,3.092,0,1,1-3.092-3.092,3.092,3.092,0,0,1,3.092,3.092" fill="#e1e1e1"/>
        <path id="Trazado_185" data-name="Trazado 185" d="M643.078,126.855a1.923,1.923,0,1,1,0-2.719,1.924,1.924,0,0,1,0,2.719" fill="#e1e1e1"/>
        <path id="Trazado_186" data-name="Trazado 186" d="M617.039,111.635a3.091,3.091,0,1,1-3.091-3.091,3.092,3.092,0,0,1,3.091,3.091" fill="#e1e1e1"/>
        <path id="Trazado_187" data-name="Trazado 187" d="M633.878,108c.192-.09,2.1,3.591,4.268,8.22s3.764,8.455,3.572,8.545-2.1-3.59-4.269-8.22-3.763-8.454-3.571-8.545" fill="#e1e1e1"/>
        <path id="Trazado_188" data-name="Trazado 188" d="M633.418,108.579c.031.21-4.14,1-9.315,1.768s-9.4,1.216-9.428,1.006,4.139-1,9.315-1.767,9.4-1.217,9.428-1.007" fill="#e1e1e1"/>
        <path id="Trazado_189" data-name="Trazado 189" d="M633.026,105.834c-.131.151-2.786-2.012-5.452-5.268s-4.287-6.27-4.113-6.369c.191-.118,2.069,2.685,4.708,5.881s5.01,5.591,4.857,5.756" fill="#e1e1e1"/>
        <path id="Trazado_190" data-name="Trazado 190" d="M638.391,87.868l-.021,0c-.021-.011.022.023.033.009v.017l-.014.144-.1.553c-.141.651-.287,1.316-.438,2.013-.39,1.7-.96,4.031-1.615,6.6-1.322,5.144-2.424,9.3-2.62,9.258-.221-.045.551-4.3,1.875-9.448.655-2.576,1.31-4.892,1.835-6.556.263-.831.494-1.5.676-1.955a4.264,4.264,0,0,1,.238-.518.7.7,0,0,1,.089-.129l.024-.019c.019-.024.075.012.051.012a.031.031,0,0,1-.017.021" fill="#e1e1e1"/>
        <path id="Trazado_191" data-name="Trazado 191" d="M946.255,434.864c0,.051-211.843.091-473.1.091C211.8,434.955,0,434.915,0,434.864s211.8-.091,473.151-.091c261.261,0,473.1.041,473.1.091" fill="#1a2e35"/>
        <path id="Trazado_192" data-name="Trazado 192" d="M502.782,307.6H311.3a6.363,6.363,0,0,1-6.363-6.363V31.2a6.363,6.363,0,0,1,6.363-6.362H502.782a6.363,6.363,0,0,1,6.363,6.362V301.232a6.363,6.363,0,0,1-6.363,6.363" fill="#ff4f5b"/>
        <g id="Grupo_71" data-name="Grupo 71" opacity="0.3">
          <g id="Grupo_70" data-name="Grupo 70">
            <g id="Grupo_69" data-name="Grupo 69" clip-path="url(#clip-path-3)">
              <path id="Trazado_193" data-name="Trazado 193" d="M502.782,307.6H311.3a6.363,6.363,0,0,1-6.363-6.363V31.2a6.363,6.363,0,0,1,6.363-6.362H502.782a6.363,6.363,0,0,1,6.363,6.362V301.232a6.363,6.363,0,0,1-6.363,6.363"/>
            </g>
          </g>
        </g>
        <rect id="Rectángulo_99" data-name="Rectángulo 99" width="175.553" height="257.728" transform="translate(319.263 39.969)" fill="#e1e1e1"/>
        <rect id="Rectángulo_100" data-name="Rectángulo 100" width="175.552" height="252.806" transform="translate(316.846 37.903)" fill="#ececec"/>
        <path id="Trazado_194" data-name="Trazado 194" d="M492.4,290.709c0-2.113-.1-103.638-.237-252.805l.237.238c-53.244.005-112.815.013-175.531.022h-.021l.26-.26c-.019,94.929-.036,182.636-.05,252.805l-.21-.21,175.552.21-175.552.21h-.21v-.21c-.014-70.169-.032-157.876-.05-252.805v-.259h.281c62.716.006,122.287.014,175.531.022h.238V37.9c-.14,149.167-.236,250.693-.238,252.805" fill="#1a2e35"/>
        <path id="Trazado_195" data-name="Trazado 195" d="M430.125,290.709s45.109-17.174,61.855-45.651a46.862,46.862,0,0,1-36.046,7.5s-11.944,31.871-25.809,38.151" fill="#e1e1e1"/>
        <path id="Trazado_196" data-name="Trazado 196" d="M430.126,290.709l.746-.418a19.121,19.121,0,0,0,2.154-1.378,35.558,35.558,0,0,0,6.752-6.759c5.1-6.463,10.877-16.784,15.935-29.679l.073-.188.194.039a46.105,46.105,0,0,0,16.327.327c1.429-.172,2.837-.552,4.272-.852,1.41-.4,2.844-.781,4.245-1.307a47.862,47.862,0,0,0,8.248-3.827,32.07,32.07,0,0,0,2.748-1.813l1.078-.825-.693,1.16a70.891,70.891,0,0,1-9.7,12.55,106.064,106.064,0,0,1-10.989,9.8,156.6,156.6,0,0,1-20.8,13.532c-6.184,3.39-11.35,5.789-14.947,7.364-1.8.785-3.211,1.358-4.171,1.735-.464.175-.829.312-1.1.416a3.05,3.05,0,0,1-.381.12,3.987,3.987,0,0,1,.362-.17l1.078-.462c.948-.406,2.345-1.009,4.13-1.82,3.568-1.627,8.7-4.075,14.852-7.5a159.818,159.818,0,0,0,20.679-13.589,106.876,106.876,0,0,0,10.916-9.78,70.864,70.864,0,0,0,9.614-12.463l.385.337a32.726,32.726,0,0,1-2.8,1.852A48.169,48.169,0,0,1,481,250.982c-1.416.529-2.865.911-4.292,1.317-1.452.3-2.874.684-4.319.855a46.381,46.381,0,0,1-16.5-.366l.267-.147c-5.116,12.929-10.963,23.239-16.155,29.69a34.443,34.443,0,0,1-6.886,6.7,16.853,16.853,0,0,1-2.987,1.674" fill="#1a2e35"/>
        <path id="Trazado_197" data-name="Trazado 197" d="M355.417,128.259H340.8a3.418,3.418,0,0,1-3.419-3.419V110.218A3.418,3.418,0,0,1,340.8,106.8h14.622a3.418,3.418,0,0,1,3.419,3.418V124.84a3.419,3.419,0,0,1-3.419,3.419" fill="#ff4f5b"/>
        <path id="Trazado_198" data-name="Trazado 198" d="M346.76,120.624h-.017a.5.5,0,0,1-.363-.175l-3.005-3.506a.5.5,0,1,1,.76-.65l2.649,3.091,6.966-7.124a.5.5,0,0,1,.715.7l-7.348,7.514a.5.5,0,0,1-.357.15" fill="#fff"/>
        <path id="Trazado_199" data-name="Trazado 199" d="M471.916,109.412c0,.144-22.84.26-51.007.26s-51.013-.116-51.013-.26,22.835-.261,51.013-.261,51.007.116,51.007.261" fill="#1a2e35"/>
        <path id="Trazado_200" data-name="Trazado 200" d="M412.88,125.107a10.651,10.651,0,0,1-1.688.1l-4.607.083c-3.889.046-9.262.076-15.195.076s-11.31-.03-15.2-.076l-4.606-.083a10.657,10.657,0,0,1-1.689-.1,10.56,10.56,0,0,1,1.689-.1c1.176-.021,2.728-.048,4.606-.083,3.888-.046,9.261-.076,15.2-.076s11.306.03,15.195.076c1.878.035,3.431.062,4.607.083a10.554,10.554,0,0,1,1.688.1" fill="#1a2e35"/>
        <path id="Trazado_201" data-name="Trazado 201" d="M471.916,116.367c0,.145-22.84.261-51.007.261s-51.013-.116-51.013-.261,22.835-.26,51.013-.26,51.007.116,51.007.26" fill="#1a2e35"/>
        <path id="Trazado_202" data-name="Trazado 202" d="M355.417,165.926H340.8a3.418,3.418,0,0,1-3.419-3.418V147.886a3.418,3.418,0,0,1,3.419-3.419h14.622a3.419,3.419,0,0,1,3.419,3.419v14.622a3.418,3.418,0,0,1-3.419,3.418" fill="#ff4f5b"/>
        <path id="Trazado_203" data-name="Trazado 203" d="M346.76,158.291h-.017a.5.5,0,0,1-.363-.174l-3.005-3.507a.5.5,0,1,1,.76-.649l2.649,3.091,6.966-7.124a.5.5,0,0,1,.715.7l-7.348,7.515a.5.5,0,0,1-.357.15" fill="#fff"/>
        <path id="Trazado_204" data-name="Trazado 204" d="M471.916,147.079c0,.144-22.84.261-51.007.261s-51.013-.117-51.013-.261,22.835-.261,51.013-.261,51.007.117,51.007.261" fill="#1a2e35"/>
        <path id="Trazado_205" data-name="Trazado 205" d="M412.88,162.774a10.556,10.556,0,0,1-1.688.1l-4.607.082c-3.889.047-9.262.076-15.195.076s-11.31-.029-15.2-.076l-4.606-.082a10.562,10.562,0,0,1-1.689-.1,10.56,10.56,0,0,1,1.689-.1c1.176-.021,2.728-.048,4.606-.083,3.888-.046,9.261-.076,15.2-.076s11.306.03,15.195.076c1.878.035,3.431.062,4.607.083a10.554,10.554,0,0,1,1.688.1" fill="#1a2e35"/>
        <path id="Trazado_206" data-name="Trazado 206" d="M471.916,154.035c0,.144-22.84.26-51.007.26s-51.013-.116-51.013-.26,22.835-.261,51.013-.261,51.007.116,51.007.261" fill="#1a2e35"/>
        <path id="Trazado_207" data-name="Trazado 207" d="M355.417,203.594H340.8a3.419,3.419,0,0,1-3.419-3.419V185.553a3.418,3.418,0,0,1,3.419-3.419h14.622a3.419,3.419,0,0,1,3.419,3.419v14.622a3.419,3.419,0,0,1-3.419,3.419" fill="#ff4f5b"/>
        <path id="Trazado_208" data-name="Trazado 208" d="M346.76,195.959h-.017a.5.5,0,0,1-.363-.175l-3.005-3.507a.5.5,0,0,1,.76-.65l2.649,3.092,6.966-7.124a.5.5,0,0,1,.715.7l-7.348,7.515a.5.5,0,0,1-.357.15" fill="#fff"/>
        <path id="Trazado_209" data-name="Trazado 209" d="M471.916,184.746c0,.144-22.84.261-51.007.261s-51.013-.117-51.013-.261,22.835-.261,51.013-.261,51.007.117,51.007.261" fill="#1a2e35"/>
        <path id="Trazado_210" data-name="Trazado 210" d="M412.88,200.441a10.551,10.551,0,0,1-1.688.1c-1.176.02-2.729.048-4.607.083-3.889.046-9.262.076-15.195.076s-11.31-.03-15.2-.076c-1.878-.035-3.43-.063-4.606-.083a10.558,10.558,0,0,1-1.689-.1,10.562,10.562,0,0,1,1.689-.1c1.176-.02,2.728-.048,4.606-.083,3.888-.046,9.261-.076,15.2-.076s11.306.03,15.195.076c1.878.035,3.431.063,4.607.083a10.555,10.555,0,0,1,1.688.1" fill="#1a2e35"/>
        <path id="Trazado_211" data-name="Trazado 211" d="M471.916,191.7c0,.144-22.84.26-51.007.26s-51.013-.116-51.013-.26,22.835-.261,51.013-.261,51.007.117,51.007.261" fill="#1a2e35"/>
        <path id="Trazado_212" data-name="Trazado 212" d="M355.417,241.261H340.8a3.418,3.418,0,0,1-3.419-3.419V223.22A3.419,3.419,0,0,1,340.8,219.8h14.622a3.419,3.419,0,0,1,3.419,3.419v14.622a3.419,3.419,0,0,1-3.419,3.419" fill="#ff4f5b"/>
        <path id="Trazado_213" data-name="Trazado 213" d="M346.76,233.625h-.017a.5.5,0,0,1-.363-.174l-3.005-3.508a.5.5,0,1,1,.76-.649l2.649,3.091,6.966-7.124a.5.5,0,1,1,.715.7l-7.348,7.517a.5.5,0,0,1-.357.148" fill="#fff"/>
        <path id="Trazado_214" data-name="Trazado 214" d="M471.916,222.413c0,.145-22.84.261-51.007.261s-51.013-.116-51.013-.261,22.835-.26,51.013-.26,51.007.116,51.007.26" fill="#1a2e35"/>
        <path id="Trazado_215" data-name="Trazado 215" d="M412.88,238.108a10.556,10.556,0,0,1-1.688.1c-1.176.021-2.729.048-4.607.083-3.889.046-9.262.076-15.195.076s-11.31-.03-15.2-.076c-1.878-.035-3.43-.062-4.606-.083a10.562,10.562,0,0,1-1.689-.1,10.56,10.56,0,0,1,1.689-.1l4.606-.082c3.888-.047,9.261-.076,15.2-.076s11.306.029,15.195.076l4.607.082a10.554,10.554,0,0,1,1.688.1" fill="#1a2e35"/>
        <path id="Trazado_216" data-name="Trazado 216" d="M471.916,229.369c0,.144-22.84.261-51.007.261s-51.013-.117-51.013-.261,22.835-.26,51.013-.26,51.007.116,51.007.26" fill="#1a2e35"/>
        <path id="Trazado_217" data-name="Trazado 217" d="M342.239,22.168V35.4a13.905,13.905,0,0,0,13.9,13.9h97.1a13.905,13.905,0,0,0,13.9-13.9V22.193Z" fill="#1a2e35"/>
        <path id="Trazado_218" data-name="Trazado 218" d="M404.622,26.073a13.037,13.037,0,1,1,13.036-13.037,13.052,13.052,0,0,1-13.036,13.037m0-21.074a8.037,8.037,0,1,0,8.036,8.037A8.046,8.046,0,0,0,404.622,5" fill="#1a2e35"/>
        <path id="Trazado_219" data-name="Trazado 219" d="M534.372,40.159c.734-3.481,3.224-5.312,6.523-6.644a11.1,11.1,0,0,1,10.2,1.085c1.969,1.335,3.565,3.346,5.853,4,3.766,1.082,7.947-1.923,11.581-.459a5.056,5.056,0,0,1-1.861,9.745c2.461.748,3.4,4.147,2.108,6.372s-4.14,3.193-6.691,2.861a14.177,14.177,0,0,1-6.839-3.354c-2.005-1.611-3.823-3.46-5.949-4.907a11.038,11.038,0,0,0-7.223-2.211c-3.461.378-6.3,3.158-7.672,6.358s-1.538,6.773-1.541,10.255.13,7.014-.715,10.391c-.1.4-.259.844-.643.985-.554.2-1.066-.368-1.374-.872a51.075,51.075,0,0,1-6.872-18.648c-.605-3.825-.7-7.474,1.234-10.827s7.15-6.031,9.884-4.132" fill="#1a2e35"/>
        <path id="Trazado_220" data-name="Trazado 220" d="M529.179,62.986c-.176-.071-7.038-1.871-6.623,5.068s7.3,5.091,7.3,4.892-.673-9.96-.673-9.96" fill="#c78976"/>
        <path id="Trazado_221" data-name="Trazado 221" d="M527.576,70.444c-.033-.021-.117.092-.315.2a1.212,1.212,0,0,1-.9.074,3,3,0,0,1-1.545-2.6,4.009,4.009,0,0,1,.235-1.751,1.4,1.4,0,0,1,.853-.982.617.617,0,0,1,.734.289c.1.188.069.329.106.338.021.017.143-.125.069-.408a.774.774,0,0,0-.3-.418.907.907,0,0,0-.679-.136,1.7,1.7,0,0,0-1.2,1.151,4.107,4.107,0,0,0-.3,1.959c.129,1.4.923,2.661,1.943,2.892a1.307,1.307,0,0,0,1.095-.25c.2-.185.231-.342.208-.353" fill="#bf654e"/>
        <path id="Trazado_222" data-name="Trazado 222" d="M545.1,38.739a18.709,18.709,0,0,1,19.994,17.68c.455,8.693.855,18.1.759,22.831-.207,10.161-10.385,11.66-10.385,11.66s.225,3.014.476,6.752a13.385,13.385,0,1,1-26.731,1.395L527.7,58.1a18.715,18.715,0,0,1,17.4-19.36" fill="#c78976"/>
        <path id="Trazado_223" data-name="Trazado 223" d="M555.465,90.91a24.173,24.173,0,0,1-13.037-4.017s3.073,7.394,13.222,6.559Z" fill="#bf654e"/>
        <path id="Trazado_224" data-name="Trazado 224" d="M561.685,63.575a1.451,1.451,0,0,1-1.411,1.453,1.387,1.387,0,0,1-1.485-1.32,1.451,1.451,0,0,1,1.409-1.455,1.39,1.39,0,0,1,1.487,1.322" fill="#1a2e35"/>
        <path id="Trazado_225" data-name="Trazado 225" d="M562.607,60.018c-.182.187-1.274-.635-2.837-.644-1.559-.03-2.712.764-2.88.572-.083-.085.1-.426.606-.785a3.98,3.98,0,0,1,2.307-.692,3.828,3.828,0,0,1,2.256.749c.478.372.638.716.548.8" fill="#1a2e35"/>
        <path id="Trazado_226" data-name="Trazado 226" d="M546.6,63.352a1.451,1.451,0,0,1-1.411,1.453,1.388,1.388,0,0,1-1.486-1.32,1.452,1.452,0,0,1,1.41-1.454,1.389,1.389,0,0,1,1.487,1.321" fill="#1a2e35"/>
        <path id="Trazado_227" data-name="Trazado 227" d="M547.252,60.186c-.181.188-1.275-.634-2.836-.643-1.56-.03-2.713.764-2.881.572-.082-.085.1-.426.607-.785a3.974,3.974,0,0,1,2.306-.692,3.832,3.832,0,0,1,2.256.748c.477.373.638.717.548.8" fill="#1a2e35"/>
        <path id="Trazado_228" data-name="Trazado 228" d="M552.828,71.814a10.307,10.307,0,0,1,2.54-.437c.4-.039.777-.115.847-.386a2.042,2.042,0,0,0-.257-1.185q-.551-1.452-1.155-3.046c-1.6-4.337-2.76-7.9-2.585-7.965s1.617,3.4,3.219,7.739q.579,1.6,1.106,3.064a2.306,2.306,0,0,1,.194,1.567,1,1,0,0,1-.66.578,2.784,2.784,0,0,1-.678.089,10.144,10.144,0,0,1-2.571-.018" fill="#1a2e35"/>
        <path id="Trazado_229" data-name="Trazado 229" d="M548.223,72.858c.255-.013.244,1.683,1.686,2.9s3.248,1.042,3.258,1.28c.023.106-.4.326-1.168.341a4.223,4.223,0,0,1-2.72-.973,3.683,3.683,0,0,1-1.3-2.429c-.059-.709.134-1.127.249-1.116" fill="#1a2e35"/>
        <path id="Trazado_230" data-name="Trazado 230" d="M547.529,55.1c-.157.423-1.715.209-3.549.415-1.839.17-3.32.694-3.56.312-.107-.183.154-.581.755-.988a6.216,6.216,0,0,1,5.416-.553c.67.276,1.006.613.938.814" fill="#1a2e35"/>
        <path id="Trazado_231" data-name="Trazado 231" d="M562.388,55.352c-.277.353-1.351-.024-2.645-.051-1.292-.074-2.39.219-2.639-.154-.11-.182.065-.535.548-.867a3.823,3.823,0,0,1,4.257.166c.455.368.6.734.479.906" fill="#1a2e35"/>
        <path id="Trazado_232" data-name="Trazado 232" d="M566.882,51.751c-1.974,2.857-9.8,1.7-13.714-1.241a22.454,22.454,0,0,0-8.475-4.441,8.723,8.723,0,0,0-6.6,1.305,16.847,16.847,0,0,0-4.77,4.936c2.393,5.321,1.363,11.48.288,17.215a2.925,2.925,0,0,1-.752,1.741c-.828.717-2.156.274-2.957-.472a9.052,9.052,0,0,1-2.271-4.657A30.205,30.205,0,0,1,527,54.251a20.548,20.548,0,0,1,5.024-10.686,19.473,19.473,0,0,1,13.325-5.96,23.933,23.933,0,0,1,14.133,4.129,14.022,14.022,0,0,1,4.8,4.916" fill="#1a2e35"/>
        <path id="Trazado_233" data-name="Trazado 233" d="M526.536,402.04l.472,20.461s-20.64,7.352-20.921,11.143l39.707.508.571-31.912Z" fill="#ff4f5b"/>
        <g id="Grupo_74" data-name="Grupo 74" opacity="0.6">
          <g id="Grupo_73" data-name="Grupo 73">
            <g id="Grupo_72" data-name="Grupo 72" clip-path="url(#clip-path-4)">
              <path id="Trazado_234" data-name="Trazado 234" d="M539.308,420.938a1.623,1.623,0,0,1,1.1,1.865,1.56,1.56,0,0,1-1.839,1.1,1.712,1.712,0,0,1-1.152-1.982,1.618,1.618,0,0,1,2.04-.936" fill="#fff"/>
            </g>
          </g>
        </g>
        <g id="Grupo_77" data-name="Grupo 77" opacity="0.6">
          <g id="Grupo_76" data-name="Grupo 76">
            <g id="Grupo_75" data-name="Grupo 75" clip-path="url(#clip-path-5)">
              <path id="Trazado_235" data-name="Trazado 235" d="M545.793,434.153l-.067-3.219-38.045.715s-1.778.747-1.594,2Z" fill="#fff"/>
            </g>
          </g>
        </g>
        <path id="Trazado_236" data-name="Trazado 236" d="M526.367,422.291c0,.194.972.294,1.917.93.963.611,1.445,1.457,1.623,1.383.18-.036-.094-1.2-1.253-1.949s-2.328-.543-2.287-.364" fill="#1a2e35"/>
        <path id="Trazado_237" data-name="Trazado 237" d="M522.18,423.96c-.047.187.788.528,1.437,1.356.671.81.827,1.7,1.02,1.693.182.032.33-1.1-.495-2.116s-1.955-1.118-1.962-.933" fill="#1a2e35"/>
        <path id="Trazado_238" data-name="Trazado 238" d="M519.75,428.914c.176.044.458-.922-.026-1.99s-1.385-1.5-1.47-1.342c-.111.158.47.735.854,1.619.405.873.45,1.692.642,1.713" fill="#1a2e35"/>
        <path id="Trazado_239" data-name="Trazado 239" d="M526.777,417.617c.079.178.972-.078,2.066.01,1.1.066,1.946.445,2.048.28.115-.139-.709-.867-2-.953s-2.208.509-2.114.663" fill="#1a2e35"/>
        <path id="Trazado_240" data-name="Trazado 240" d="M526.757,413.487a3.727,3.727,0,0,0,1.989.015,8.876,8.876,0,0,0,2.088-.613,9.51,9.51,0,0,0,1.151-.59,2.5,2.5,0,0,0,.606-.46.848.848,0,0,0,.1-1.032,1.067,1.067,0,0,0-.844-.453,2.6,2.6,0,0,0-.747.093,7.179,7.179,0,0,0-1.242.408,7.033,7.033,0,0,0-1.849,1.181c-.932.841-1.256,1.561-1.191,1.6.088.066.543-.536,1.491-1.228a7.935,7.935,0,0,1,1.786-.977,7.479,7.479,0,0,1,1.146-.337c.422-.1.78-.1.885.085.038.072.043.1-.047.222a1.959,1.959,0,0,1-.445.336,10.411,10.411,0,0,1-1.059.587,11.121,11.121,0,0,1-1.931.713,13.775,13.775,0,0,0-1.889.451" fill="#1a2e35"/>
        <path id="Trazado_241" data-name="Trazado 241" d="M527.006,413.768a3.175,3.175,0,0,0,.549-1.914,6.476,6.476,0,0,0-.243-2.181,6.555,6.555,0,0,0-.492-1.214,1.642,1.642,0,0,0-1.255-1.02.927.927,0,0,0-.837.544,2.693,2.693,0,0,0-.214.726,4.438,4.438,0,0,0-.019,1.339,4.574,4.574,0,0,0,.824,2.066c.762,1.039,1.568,1.281,1.585,1.216.067-.1-.6-.48-1.186-1.477a4.587,4.587,0,0,1-.605-1.876,4.142,4.142,0,0,1,.051-1.149c.068-.421.231-.759.388-.714.2,0,.529.321.687.66a6.5,6.5,0,0,1,.479,1.084,7.083,7.083,0,0,1,.359,1.989c.04,1.166-.176,1.89-.071,1.921" fill="#1a2e35"/>
        <path id="Trazado_242" data-name="Trazado 242" d="M598.782,402.849l-.771,20.452s20.531,7.652,20.757,11.445l-39.71-.068-.108-31.917Z" fill="#ff4f5b"/>
        <g id="Grupo_80" data-name="Grupo 80" opacity="0.6">
          <g id="Grupo_79" data-name="Grupo 79">
            <g id="Grupo_78" data-name="Grupo 78" clip-path="url(#clip-path-6)">
              <path id="Trazado_243" data-name="Trazado 243" d="M585.737,421.56a1.621,1.621,0,0,0-1.125,1.849,1.56,1.56,0,0,0,1.823,1.13,1.71,1.71,0,0,0,1.181-1.963,1.618,1.618,0,0,0-2.026-.967" fill="#fff"/>
            </g>
          </g>
        </g>
        <g id="Grupo_83" data-name="Grupo 83" opacity="0.6">
          <g id="Grupo_82" data-name="Grupo 82">
            <g id="Grupo_81" data-name="Grupo 81" clip-path="url(#clip-path-7)">
              <path id="Trazado_244" data-name="Trazado 244" d="M579.059,434.678l.115-3.218,38.03,1.269s1.766.772,1.565,2.017Z" fill="#fff"/>
            </g>
          </g>
        </g>
        <path id="Trazado_245" data-name="Trazado 245" d="M598.657,423.1c-.007.194-.977.28-1.932.9-.971.6-1.464,1.436-1.643,1.36-.179-.038.112-1.2,1.282-1.93s2.335-.51,2.293-.332" fill="#1a2e35"/>
        <path id="Trazado_246" data-name="Trazado 246" d="M602.819,424.831c.044.187-.8.517-1.456,1.335-.685.8-.853,1.686-1.045,1.678-.183.03-.315-1.107.525-2.109s1.972-1.089,1.976-.9" fill="#1a2e35"/>
        <path id="Trazado_247" data-name="Trazado 247" d="M605.175,429.82c-.176.041-.444-.929.056-1.99s1.407-1.482,1.489-1.321c.109.161-.481.729-.878,1.607-.417.867-.475,1.684-.667,1.7" fill="#1a2e35"/>
        <path id="Trazado_248" data-name="Trazado 248" d="M598.315,418.42c-.082.177-.971-.093-2.067-.021-1.1.051-1.951.417-2.052.251-.111-.14.723-.857,2.015-.924s2.2.542,2.1.694" fill="#1a2e35"/>
        <path id="Trazado_249" data-name="Trazado 249" d="M598.394,414.29a3.712,3.712,0,0,1-1.989-.014,8.876,8.876,0,0,1-2.079-.642,9.175,9.175,0,0,1-1.141-.608,2.456,2.456,0,0,1-.6-.468.849.849,0,0,1-.086-1.033,1.066,1.066,0,0,1,.85-.441,2.62,2.62,0,0,1,.745.1,7,7,0,0,1,3.069,1.633c.92.855,1.232,1.58,1.166,1.617-.088.064-.536-.544-1.472-1.25a7.963,7.963,0,0,0-1.772-1,7.387,7.387,0,0,0-1.141-.354c-.42-.111-.778-.115-.886.072-.04.072-.045.1.043.223a2.012,2.012,0,0,0,.441.342,10.5,10.5,0,0,0,1.049.6,11,11,0,0,0,1.922.74,13.961,13.961,0,0,1,1.882.479" fill="#1a2e35"/>
        <path id="Trazado_250" data-name="Trazado 250" d="M598.141,414.569a3.18,3.18,0,0,1-.521-1.922,6.448,6.448,0,0,1,.783-3.384,1.646,1.646,0,0,1,1.27-1,.929.929,0,0,1,.83.557,2.674,2.674,0,0,1,.2.73,4.379,4.379,0,0,1,0,1.338,4.554,4.554,0,0,1-.853,2.053c-.777,1.028-1.587,1.259-1.6,1.193-.064-.1.613-.471,1.208-1.459a4.577,4.577,0,0,0,.632-1.868,4.083,4.083,0,0,0-.034-1.148c-.061-.423-.219-.764-.377-.721-.2,0-.534.314-.7.651a6.577,6.577,0,0,0-.494,1.077,7.158,7.158,0,0,0-.389,1.983c-.057,1.166.149,1.893.044,1.922" fill="#1a2e35"/>
        <path id="Trazado_251" data-name="Trazado 251" d="M575.315,205.433,605.367,421.07l-29.158-.566L543.961,239.836l7.092,181.528L519.119,419.4,507.9,204.125Z" fill="#1a2e35"/>
        <path id="Trazado_252" data-name="Trazado 252" d="M529.407,105.592l-.385-12.061s2.4,11.039,14.946,10.894c11.993-.138,11.773-9.724,11.773-9.724l.428,4.861V119.2l-7.823,32.032-9.989,1.267L527.316,108.71Z" fill="#ff4f5b"/>
        <path id="Trazado_253" data-name="Trazado 253" d="M554.624,101.732a1.2,1.2,0,0,1-.145.257,6.843,6.843,0,0,1-.475.7,10.291,10.291,0,0,1-2.234,2.162,12.845,12.845,0,0,1-4.172,1.959,14.729,14.729,0,0,1-5.629.39,18.353,18.353,0,0,1-5.408-1.628,23.5,23.5,0,0,1-3.95-2.38,27.339,27.339,0,0,1-2.391-1.981c-.273-.247-.469-.453-.607-.587a1.273,1.273,0,0,1-.2-.219,1.23,1.23,0,0,1,.232.181l.638.55c.554.478,1.37,1.151,2.432,1.909a24.481,24.481,0,0,0,3.943,2.313,18.554,18.554,0,0,0,5.34,1.588,14.774,14.774,0,0,0,5.536-.364,13,13,0,0,0,4.129-1.879,10.96,10.96,0,0,0,2.26-2.076c.457-.567.676-.91.7-.895" fill="#1a2e35"/>
        <path id="Trazado_254" data-name="Trazado 254" d="M546.6,267.1l.174-51.761-.221-67.579-16.986-41.543-.543-12.5-9.849,7.449s-14.342,49.356-14.562,47.645,3.467,43.85,3.467,43.85l-5.66,76.76Z" fill="#ececec"/>
        <path id="Trazado_255" data-name="Trazado 255" d="M560.11,99.02c-2.889-5.051-4.387-4.525-4.387-4.525l.152,1.8,0,3.784-1.37,16.231-9.167,30.436,1.427,67.374,3.425,53.281,42.535-3.482L577.9,190.543l5.3-50.685-.375-27.925Z" fill="#ececec"/>
        <path id="Trazado_256" data-name="Trazado 256" d="M535.917,210.338a4.684,4.684,0,0,1-.616,1.033,19.542,19.542,0,0,1-2.1,2.522,22.13,22.13,0,0,1-19.915,6.3,19.442,19.442,0,0,1-3.166-.855,4.855,4.855,0,0,1-1.1-.489c.033-.1,1.622.564,4.327.982a22.98,22.98,0,0,0,19.594-6.2c1.973-1.9,2.892-3.354,2.974-3.293" fill="#1a2e35"/>
        <path id="Trazado_257" data-name="Trazado 257" d="M527.193,220.067a12.736,12.736,0,0,0-.515-2.005l4.484-2.609a14.618,14.618,0,0,0-8.692-2.4,16.524,16.524,0,0,0-7.664,2.955,5,5,0,0,0-1.472,1,3.008,3.008,0,0,0-.4.267,4.266,4.266,0,0,0-.563.561l-.029.024h.008a8.315,8.315,0,0,0-1.56,3.937,29.359,29.359,0,0,0-.175,9.114c.159,1.151.6,2.527,1.745,2.751a1.822,1.822,0,0,0,1.762-.826,24.258,24.258,0,0,0,.386,3.906c.177.979.66,2.163,1.654,2.2,1.049.036,1.59-1.227,1.772-2.261a24.9,24.9,0,0,0,.275-6.621c.553,1.12.342,2.451.526,3.686s1.145,2.6,2.37,2.358c1.209-.238,1.583-1.757,1.707-2.982q.489-4.821.978-9.641c.663,1.075.632,2.441,1.124,3.6s2.062,2.1,2.975,1.222a2.59,2.59,0,0,0,.372-2.335q-.494-2.955-1.064-5.9" fill="#ff4f5b"/>
        <path id="Trazado_258" data-name="Trazado 258" d="M530.086,246.492a5.661,5.661,0,0,1-.934.992,19.719,19.719,0,0,1-2.944,2.277,14.594,14.594,0,0,1-5.137,2.062,11.005,11.005,0,0,1-6.714-.84,9.385,9.385,0,0,1-4.516-5.012,15.878,15.878,0,0,1-1.111-5.42,33.309,33.309,0,0,1,.06-3.713,6.6,6.6,0,0,1,.151-1.353c.1,0-.031,1.944.156,5.043a16.3,16.3,0,0,0,1.185,5.257,9.037,9.037,0,0,0,4.3,4.73,10.71,10.71,0,0,0,6.4.834,14.844,14.844,0,0,0,5.028-1.9,44.205,44.205,0,0,0,4.069-2.954" fill="#1a2e35"/>
        <path id="Trazado_259" data-name="Trazado 259" d="M578.038,210.935c.019.03-.209.2-.64.478a13.027,13.027,0,0,1-1.923,1.009,18.689,18.689,0,0,1-14.041.286,13.085,13.085,0,0,1-1.961-.931c-.442-.261-.676-.419-.659-.451.045-.083,1.037.461,2.745,1.036a20.5,20.5,0,0,0,13.778-.281c1.684-.644,2.653-1.227,2.7-1.146" fill="#1a2e35"/>
        <path id="Trazado_260" data-name="Trazado 260" d="M546.756,218.414a3.894,3.894,0,0,1-.052-.74c-.011-.536-.026-1.241-.046-2.122-.025-1.9-.061-4.553-.1-7.805-.105-6.641-.247-15.719-.4-25.748s-.327-19.112-.44-25.753c-.042-3.252-.075-5.9-.1-7.805,0-.881,0-1.587,0-2.123a3.765,3.765,0,0,1,.034-.741,4.026,4.026,0,0,1,.07.738c.025.537.06,1.241.1,2.121.064,1.9.155,4.55.265,7.8.2,6.589.419,15.693.592,25.752s.259,19.162.252,25.754c-.008,3.3-.021,5.964-.061,7.808-.021.881-.039,1.587-.052,2.122a4.037,4.037,0,0,1-.053.74" fill="#1a2e35"/>
        <path id="Trazado_261" data-name="Trazado 261" d="M519.323,109.292l2,1.513-1.406,9.209,23.6,24.715-21.431-28.142,1.826-7.3Z" fill="#e1e1e1"/>
        <path id="Trazado_262" data-name="Trazado 262" d="M546.8,175.52,510.59,164.9l-1.2-27.5,9.931-36.237s-23.674,11.811-25.285,19.327-5.494,25.787-5.908,38.992c-.37,11.808-.424,19.7,2.273,23.471,4.533,6.337,23.94,10.443,43.31,9.5,13.625-.667,27.233-4.251,35.628-9.511" fill="#ececec"/>
        <path id="Trazado_263" data-name="Trazado 263" d="M543.967,145.327a.8.8,0,0,1-.118-.133l-.325-.406-1.23-1.575-4.486-5.823-14.722-19.27-1.107-1.454-.037-.05.014-.06c.633-2.52,1.246-4.962,1.831-7.293l.119.153-4.584-.006h-.117v-.116c.007-2.98.014-5.711.02-8.131v-.048l.038-.029c2.986-2.27,5.418-4.117,7.117-5.408l1.953-1.467.514-.376a1.161,1.161,0,0,1,.181-.121,1.384,1.384,0,0,1-.164.143l-.5.4-1.921,1.508-7.064,5.476.038-.078c.006,2.42.012,5.151.02,8.131l-.118-.117,4.584-.006h.159l-.038.153c-.582,2.332-1.193,4.776-1.823,7.3l-.021-.108,1.107,1.454,14.662,19.315,4.421,5.872,1.192,1.605c.128.176.228.316.3.422a.952.952,0,0,1,.1.148" fill="#1a2e35"/>
        <path id="Trazado_264" data-name="Trazado 264" d="M582.831,111.933s8.584,6.337,9.327,16.531c.6,8.281,1.99,30.953,2.24,35.889.391,7.687-5.594,25.686-21.177,20.588-9.346-3.058-43.873-14.794-43.873-14.794l2.3-14.663,40.982,2.441.813-34.181Z" fill="#ececec"/>
        <path id="Trazado_265" data-name="Trazado 265" d="M531.178,157.172s-11.6-1.254-14.286-.6c-2.581.623-6.258,3.781-6.258,3.781l.053,4.583,18.661,5.216Z" fill="#c78976"/>
        <path id="Trazado_266" data-name="Trazado 266" d="M545.735,146.276a.824.824,0,0,1,.052-.158c.044-.114.1-.265.175-.453l.693-1.734c.619-1.516,1.5-3.683,2.6-6.356,1.106-2.685,2.421-5.874,3.88-9.414.368-.882.732-1.8,1.187-2.7.438-.909.954-1.8,1.486-2.7a59.076,59.076,0,0,1,3.683-5.315c.669-.863,1.344-1.7,2.041-2.51l-.023.131-1.445-3.675-.048-.122.123-.042,6.046-2.055-.062.169c-2.8-4.681-5.175-8.639-6.854-11.442a9.019,9.019,0,0,0-2.289-2.954,3.025,3.025,0,0,0-.917-.371c-.22-.053-.337-.073-.336-.081a2.5,2.5,0,0,1,.344.044,2.855,2.855,0,0,1,.947.345,4.163,4.163,0,0,1,1.162,1.127,20.518,20.518,0,0,1,1.2,1.814c1.7,2.792,4.1,6.735,6.937,11.4l.074.122-.136.047c-1.9.653-3.925,1.347-6.04,2.071l.077-.163q.706,1.8,1.449,3.672l.028.073-.051.059c-.689.8-1.364,1.638-2.029,2.5a59.888,59.888,0,0,0-3.672,5.289c-.53.894-1.045,1.777-1.48,2.676-.454.89-.817,1.8-1.189,2.683l-3.931,9.393-2.671,6.325-.738,1.715-.2.444a.766.766,0,0,1-.076.148" fill="#1a2e35"/>
        <path id="Trazado_267" data-name="Trazado 267" d="M587.54,182.088a1.169,1.169,0,0,1-.144.152l-.441.428a13.018,13.018,0,0,1-1.883,1.429,12.739,12.739,0,0,1-3.448,1.445,13.96,13.96,0,0,1-4.938.315,15.808,15.808,0,0,1-2.828-.6c-.962-.306-1.925-.683-2.944-1.04-2.025-.735-4.2-1.5-6.482-2.3-4.573-1.6-9.617-3.315-14.929-5.058-10.628-3.492-20.317-6.433-27.341-8.531l-8.324-2.462-2.262-.672-.587-.181a1.263,1.263,0,0,1-.2-.07,1.352,1.352,0,0,1,.2.044c.146.04.343.091.594.158.533.146,1.3.356,2.276.626,1.974.55,4.827,1.36,8.347,2.383,7.037,2.053,16.739,4.969,27.37,8.461,5.314,1.744,10.357,3.465,14.927,5.08,2.285.808,4.454,1.581,6.477,2.325,1.013.361,1.988.747,2.931,1.051a15.6,15.6,0,0,0,2.788.608,13.884,13.884,0,0,0,4.883-.273,12.862,12.862,0,0,0,3.431-1.391,14.046,14.046,0,0,0,1.9-1.382l.457-.409a1.3,1.3,0,0,1,.162-.133" fill="#1a2e35"/>
        <path id="Trazado_268" data-name="Trazado 268" d="M510.687,165.013c-.009.054-.651-.087-1.691-.046a7.821,7.821,0,0,0-1.791.3,8.252,8.252,0,0,0-2.018.92,9.4,9.4,0,0,0-2.806,2.883c-.549.885-.787,1.5-.833,1.475a1.7,1.7,0,0,1,.138-.438,7.944,7.944,0,0,1,.54-1.131,8.8,8.8,0,0,1,2.823-3.005,8.049,8.049,0,0,1,2.091-.932,7.252,7.252,0,0,1,1.852-.249,6.118,6.118,0,0,1,1.25.112,1.537,1.537,0,0,1,.445.115" fill="#1a2e35"/>
        <path id="Trazado_269" data-name="Trazado 269" d="M499.28,161.419c-.008,0,.008-.048.046-.129a1.244,1.244,0,0,1,.227-.322,2.325,2.325,0,0,1,1.288-.639,6.55,6.55,0,0,1,2.126.005,12.211,12.211,0,0,1,2.522.613,11.056,11.056,0,0,1,4,2.449,8.439,8.439,0,0,1,.928,1.086,2.045,2.045,0,0,1,.269.449c-.041.03-.446-.6-1.321-1.4a11.844,11.844,0,0,0-3.963-2.338,12.983,12.983,0,0,0-2.469-.622,6.816,6.816,0,0,0-2.062-.06,2.368,2.368,0,0,0-1.248.532c-.24.221-.323.393-.344.38" fill="#1a2e35"/>
        <path id="Trazado_270" data-name="Trazado 270" d="M512.8,129.831a4.437,4.437,0,0,1-.165-.746c-.073-.233-.181-.515-.292-.842-.157-.31-.311-.677-.536-1.052a14.966,14.966,0,0,0-1.846-2.455,19.769,19.769,0,0,0-2.828-2.487,17.041,17.041,0,0,0-6.184-2.841,13.027,13.027,0,0,0-2.058-.262,4.413,4.413,0,0,1-.766-.062,4.336,4.336,0,0,1,.768-.037,10.937,10.937,0,0,1,2.093.183,16.266,16.266,0,0,1,6.3,2.811,18.915,18.915,0,0,1,2.853,2.536,14.138,14.138,0,0,1,1.83,2.525c.219.388.364.768.512,1.088.1.34.2.63.255.871a4.36,4.36,0,0,1,.068.77" fill="#1a2e35"/>
        <path id="Trazado_271" data-name="Trazado 271" d="M581.546,171.888a.882.882,0,0,1-.012-.176c0-.129-.007-.3-.011-.514-.014-.452-.032-1.119-.1-1.974a27.535,27.535,0,0,0-1.456-7.089,10.071,10.071,0,0,0-.993-2.166,4.258,4.258,0,0,0-1.919-1.627c-1.649-.71-3.631-.616-5.648-.729l-13.206-.556c-10.912-.475-20.618-.884-26.717-1.21l.082-.066c-.368,2.241-.66,4.017-.863,5.25-.1.6-.182,1.061-.239,1.391-.028.148-.05.266-.067.358a.472.472,0,0,1-.031.12.632.632,0,0,1,.009-.123c.012-.093.026-.211.046-.361q.07-.5.2-1.4c.186-1.235.453-3.017.791-5.263l.011-.069.071,0,26.719,1.111,13.2.575c1.015.051,2,.074,2.969.154a8.635,8.635,0,0,1,2.754.618,4.445,4.445,0,0,1,2,1.714,10.1,10.1,0,0,1,1,2.213,26.684,26.684,0,0,1,1.384,7.142c.05.859.052,1.528.049,1.981-.006.215-.01.385-.014.514a.861.861,0,0,1-.014.176" fill="#1a2e35"/>
        <path id="Trazado_272" data-name="Trazado 272" d="M573.731,139.8c.071,0,.129,3.97.129,8.865s-.058,8.865-.129,8.865-.128-3.967-.128-8.865.058-8.865.128-8.865" fill="#1a2e35"/>
        <path id="Trazado_273" data-name="Trazado 273" d="M494.323,119.6s-.03.112-.1.327-.192.528-.295.96c-.24.852-.542,2.124-.882,3.782-.685,3.315-1.53,8.164-2.475,14.237-.47,3.036-.971,6.378-1.463,9.989-.251,1.8-.406,3.684-.536,5.631s-.233,3.956-.308,6.024c-.149,4.136-.237,8.505-.118,13.057.035,1.137.077,2.287.172,3.442.028.581.123,1.152.2,1.729a14.122,14.122,0,0,0,.419,1.7,9.671,9.671,0,0,0,1.63,3.115,7.024,7.024,0,0,0,2.8,2.155l.016.006.005,0a42.59,42.59,0,0,0,7.294,2.785c2.542.762,5.17,1.377,7.837,1.926a107.981,107.981,0,0,0,17.613,2.145,82.171,82.171,0,0,0,8.407-.22c2.739-.189,5.409-.476,7.992-.859a84.3,84.3,0,0,0,14.346-3.334,73.49,73.49,0,0,0,11.6-4.978l.012.16c-6.753-2.39-12.174-4.309-15.913-5.634-1.86-.664-3.3-1.178-4.285-1.53l-1.107-.4c-.249-.092-.374-.145-.374-.145s.13.037.381.121l1.117.379,4.3,1.487,15.94,5.558.188.066-.175.094a73.242,73.242,0,0,1-11.617,5.022,84.162,84.162,0,0,1-14.378,3.368c-2.588.388-5.264.678-8.009.87a82.016,82.016,0,0,1-8.432.227,107.763,107.763,0,0,1-17.655-2.144c-2.675-.551-5.309-1.167-7.86-1.931a42.92,42.92,0,0,1-7.34-2.809l.02.009a7.249,7.249,0,0,1-2.914-2.239,9.891,9.891,0,0,1-1.67-3.2,14.012,14.012,0,0,1-.426-1.731c-.073-.587-.169-1.171-.2-1.752-.094-1.162-.135-2.315-.168-3.454-.114-4.562-.02-8.933.137-13.072q.119-3.1.32-6.03c.135-1.947.295-3.835.551-5.643.5-3.613,1.013-6.953,1.494-9.989.968-6.07,1.837-10.918,2.55-14.229.353-1.656.671-2.928.924-3.777.111-.429.246-.741.318-.955s.123-.319.123-.319" fill="#1a2e35"/>
        <path id="Trazado_274" data-name="Trazado 274" d="M510.634,161.614c6.055-6.7,5.789-18.625,2.314-27.084-.321,9.163-1.4,17.289-2.23,26.194" fill="#e1e1e1"/>
        <path id="Trazado_275" data-name="Trazado 275" d="M512.96,136.246a1.209,1.209,0,0,1,0,.294c-.015.219-.033.5-.055.837-.059.76-.141,1.8-.242,3.074-.216,2.625-.51,6.194-.835,10.138-.308,3.946-.589,7.516-.794,10.142-.1,1.273-.175,2.315-.231,3.075-.03.339-.054.617-.073.836a1.429,1.429,0,0,1-.042.29,1.184,1.184,0,0,1-.01-.293c.007-.22.014-.5.025-.839.025-.728.077-1.781.15-3.08.149-2.6.4-6.19.72-10.152s.653-7.542.91-10.134c.133-1.269.243-2.308.323-3.066.042-.34.075-.615.1-.833a1.417,1.417,0,0,1,.053-.289" fill="#1a2e35"/>
        <path id="Trazado_276" data-name="Trazado 276" d="M527.888,124.132c.071,0,.129,2.328.129,5.2s-.058,5.2-.129,5.2-.128-2.327-.128-5.2.058-5.2.128-5.2" fill="#1a2e35"/>
        <path id="Trazado_277" data-name="Trazado 277" d="M523.944,141.4a5.329,5.329,0,0,0,1.114,2.757,3.634,3.634,0,0,0,2.657,1.41,4.052,4.052,0,0,0,3.576-1.794,10.189,10.189,0,0,0,.5-7.776,4.491,4.491,0,0,0-3.678-2.984,4.066,4.066,0,0,0-3.984,3.1" fill="#e1e1e1"/>
        <path id="Trazado_278" data-name="Trazado 278" d="M524.133,136.114a3.33,3.33,0,0,1,.4-1.062,4.355,4.355,0,0,1,.812-1.064,3.808,3.808,0,0,1,2.56-1.063,3.1,3.1,0,0,1,1.127.147,4.432,4.432,0,0,1,2.009,1.441,5.782,5.782,0,0,1,1.182,2.46,10.646,10.646,0,0,1,.22,2.915,8.058,8.058,0,0,1-1.256,4.246,3.8,3.8,0,0,1-1.633,1.231,4.448,4.448,0,0,1-1.849.312h.015a2.781,2.781,0,0,1-1.325-.33,4.329,4.329,0,0,1-1-.694,4.924,4.924,0,0,1-1.085-1.617,4.72,4.72,0,0,1-.344-1.194,2.785,2.785,0,0,1-.031-.326.3.3,0,0,1,0-.111,6.657,6.657,0,0,0,.479,1.582,5.019,5.019,0,0,0,1.091,1.541,4.229,4.229,0,0,0,.966.649,2.627,2.627,0,0,0,1.229.291h.015a3.936,3.936,0,0,0,3.27-1.482,7.916,7.916,0,0,0,1.194-4.111,7.474,7.474,0,0,0-1.328-5.213,4.254,4.254,0,0,0-1.893-1.388,2.938,2.938,0,0,0-1.055-.152,3.679,3.679,0,0,0-2.468.971,4.49,4.49,0,0,0-.824,1.009,9.394,9.394,0,0,0-.487,1.012" fill="#1a2e35"/>
        <path id="Trazado_279" data-name="Trazado 279" d="M522.792,141.5a5.323,5.323,0,0,0,1.114,2.759,3.627,3.627,0,0,0,2.657,1.409,4.05,4.05,0,0,0,3.576-1.793,10.194,10.194,0,0,0,.5-7.776,4.49,4.49,0,0,0-3.678-2.984,4.064,4.064,0,0,0-3.984,3.1" fill="#e1e1e1"/>
        <path id="Trazado_280" data-name="Trazado 280" d="M522.982,136.21a3.322,3.322,0,0,1,.4-1.06,4.371,4.371,0,0,1,.813-1.065,3.766,3.766,0,0,1,1.531-.9,3.833,3.833,0,0,1,1.029-.165,3.157,3.157,0,0,1,1.126.148,4.44,4.44,0,0,1,2.01,1.44,5.8,5.8,0,0,1,1.181,2.46,10.663,10.663,0,0,1,.221,2.917,8.079,8.079,0,0,1-1.256,4.246,3.812,3.812,0,0,1-1.633,1.23,4.43,4.43,0,0,1-1.849.311h.015a2.769,2.769,0,0,1-1.325-.329,4.358,4.358,0,0,1-1-.694,4.956,4.956,0,0,1-1.085-1.617,4.773,4.773,0,0,1-.344-1.194,2.988,2.988,0,0,1-.031-.326c0-.073,0-.11.005-.112a6.622,6.622,0,0,0,.479,1.582,5.01,5.01,0,0,0,1.091,1.542,4.226,4.226,0,0,0,.966.648,2.579,2.579,0,0,0,1.229.291h.015a3.934,3.934,0,0,0,3.269-1.481,7.908,7.908,0,0,0,1.194-4.112,7.466,7.466,0,0,0-1.327-5.212,4.264,4.264,0,0,0-1.894-1.388,2.9,2.9,0,0,0-1.055-.152,3.688,3.688,0,0,0-2.468.97,4.513,4.513,0,0,0-.823,1.01,9.07,9.07,0,0,0-.487,1.011" fill="#1a2e35"/>
        <path id="Trazado_281" data-name="Trazado 281" d="M524.88,135.658a2.532,2.532,0,0,0-2.642,1.521,4.37,4.37,0,0,0,.006,3.211,3.975,3.975,0,0,0,.82,1.447,2.162,2.162,0,0,0,1.467.713,2.558,2.558,0,0,0,2.032-1.2,4.584,4.584,0,0,0,.693-3.773c-.225-.853-.853-1.728-1.734-1.75" fill="#e1e1e1"/>
        <path id="Trazado_282" data-name="Trazado 282" d="M525.522,135.826a.45.45,0,0,1,.2-.006,1.389,1.389,0,0,1,.533.181,2.614,2.614,0,0,1,1.125,1.693,4.652,4.652,0,0,1-.3,3.012,3.923,3.923,0,0,1-1.1,1.447,2.129,2.129,0,0,1-1.9.454,2.64,2.64,0,0,1-1.517-1.239,5.558,5.558,0,0,1-.632-1.7,3.782,3.782,0,0,1,.492-2.972,2.635,2.635,0,0,1,1.716-1.091,1.885,1.885,0,0,1,.561,0c.126.027.19.045.188.054a3.564,3.564,0,0,0-.731.046,2.613,2.613,0,0,0-1.586,1.1,3.641,3.641,0,0,0-.408,2.819,5.379,5.379,0,0,0,.615,1.617,2.411,2.411,0,0,0,1.37,1.123,1.888,1.888,0,0,0,1.676-.406,3.714,3.714,0,0,0,1.043-1.35,4.546,4.546,0,0,0,.341-2.871,2.586,2.586,0,0,0-1-1.648,2.057,2.057,0,0,0-.677-.26" fill="#1a2e35"/>
        <path id="Trazado_283" data-name="Trazado 283" d="M527.362,143.745c-.039.01-.094-.155-.262-.353a1.847,1.847,0,0,0-.84-.539,4.68,4.68,0,0,0-1.033-.16c-.274-.019-.448-.042-.449-.078s.168-.076.448-.1a2.889,2.889,0,0,1,1.112.1,1.638,1.638,0,0,1,.91.678c.153.26.143.454.114.458" fill="#1a2e35"/>
        <path id="Trazado_284" data-name="Trazado 284" d="M527.747,134.987c.022.022-.075.176-.3.357a2.443,2.443,0,0,1-2.167.392c-.277-.09-.424-.2-.41-.228a3.686,3.686,0,0,0,2.882-.521" fill="#1a2e35"/>
        <path id="Trazado_285" data-name="Trazado 285" d="M561.551,99.749c0-.008.06.013.162.061a4.308,4.308,0,0,1,.438.224,8.972,8.972,0,0,1,1.473,1.056,10.561,10.561,0,0,1,3.167,5.009,31.979,31.979,0,0,1,1.2,5.833c.085.757.132,1.373.16,1.8a3.179,3.179,0,0,1,.013.664,3.436,3.436,0,0,1-.112-.654c-.064-.471-.144-1.069-.24-1.784a37.541,37.541,0,0,0-1.272-5.782,10.9,10.9,0,0,0-3.042-4.948,16.912,16.912,0,0,0-1.952-1.475" fill="#1a2e35"/>
        <path id="Trazado_286" data-name="Trazado 286" d="M555.423,153.9c1.426-.055,2.565-1.477,3.99-1.4a1.983,1.983,0,1,1-.334,3.949c-1.5-.174-2.373-1.929-3.842-2.266" fill="#1a2e35"/>
        <path id="Trazado_287" data-name="Trazado 287" d="M567.514,155.115a8.458,8.458,0,0,1-1.335-.11l.078-.486a5.663,5.663,0,0,0,4.4-.859c1.456-1.069,2.394-2.984,2.789-5.69l.015-.1c.161-1.072.384-22.113.384-26.108a6.812,6.812,0,0,0-5.71-7.124c-.222-.042-5.2-.874-7.842,5.942-2.765,7.137-7.187,20.891-7.48,22.5-.036.2-.09.441-.153.725-.459,2.064-1.417,6.358,1.448,8.832,3.192,2.757,5.711,1.69,5.816,1.644l.2.448c-.118.053-2.9,1.254-6.341-1.72-3.085-2.666-2.086-7.154-1.606-9.311.062-.276.115-.514.149-.706.295-1.625,4.734-15.437,7.506-22.593,2.8-7.212,8.326-6.262,8.38-6.25a7.4,7.4,0,0,1,6.123,7.61c0,3.291-.219,25.042-.389,26.18l-.015.1c-.414,2.84-1.419,4.864-2.985,6.014a5.652,5.652,0,0,1-3.434,1.059" fill="#1a2e35"/>
        <path id="Trazado_288" data-name="Trazado 288" d="M574.091,125.785a9.188,9.188,0,0,0-1.024-2.453,8.347,8.347,0,0,0-5.1-3.6,9.248,9.248,0,0,0-6.227.812,10.986,10.986,0,0,0-2.166,1.551c-.006-.006.033-.057.113-.151a4.038,4.038,0,0,1,.368-.392,7.4,7.4,0,0,1,1.6-1.167,9.149,9.149,0,0,1,6.372-.9,8.418,8.418,0,0,1,3.245,1.556,8.156,8.156,0,0,1,1.954,2.2,6.546,6.546,0,0,1,.759,1.831,3.736,3.736,0,0,1,.1.53.5.5,0,0,1,.012.187" fill="#1a2e35"/>
        <path id="Trazado_289" data-name="Trazado 289" d="M586.619,165.113a17.2,17.2,0,0,0-.676-2.1,9.165,9.165,0,0,0-3.336-4,7.218,7.218,0,0,0-2.709-.977,23.944,23.944,0,0,0-2.382-.247l-1.62-.111a2.726,2.726,0,0,1-.591-.082,2.676,2.676,0,0,1,.6-.019l1.625.031a20.293,20.293,0,0,1,2.411.2,7.2,7.2,0,0,1,2.808.994,8.92,8.92,0,0,1,3.367,4.15,7.944,7.944,0,0,1,.448,1.571,2.244,2.244,0,0,1,.059.6" fill="#1a2e35"/>
        <path id="Trazado_290" data-name="Trazado 290" d="M561.8,156.9s4.837-7.328,6.073-8.288,11.795-5.727,13.032-4.96.476,2.43.476,2.43,4.47-1.567,4.945-.95a2.208,2.208,0,0,1,0,2.52s2.474-.38,2.474.381a3.129,3.129,0,0,1-1.427,2.568c-1.141.856-8.563,5.8-9.159,7.162l-2.4-.146Z" fill="#c78976"/>
        <path id="Trazado_291" data-name="Trazado 291" d="M575.726,154.806a1.762,1.762,0,0,1,.221-.462,8.6,8.6,0,0,1,.795-1.145,13.328,13.328,0,0,1,3.508-2.954,26.5,26.5,0,0,1,4.15-1.95c.548-.208.995-.366,1.3-.47a1.992,1.992,0,0,1,.492-.137,2.027,2.027,0,0,1-.455.23q-.531.227-1.274.545a33.546,33.546,0,0,0-4.086,2,14.7,14.7,0,0,0-3.5,2.851c-.766.874-1.114,1.514-1.154,1.49" fill="#bf654e"/>
        <path id="Trazado_292" data-name="Trazado 292" d="M569.589,154.687a2.54,2.54,0,0,1,.234-.538c.167-.339.412-.826.745-1.416a13.379,13.379,0,0,1,1.333-1.974,6.219,6.219,0,0,1,1.013-1.005c.408-.275.838-.533,1.282-.8a35.212,35.212,0,0,1,4.723-2.356,13.861,13.861,0,0,1,1.52-.509,2.525,2.525,0,0,1,.58-.1c.009.043-.8.231-2.031.779a45.1,45.1,0,0,0-4.662,2.409c-.44.261-.872.519-1.269.783a6.28,6.28,0,0,0-.976.951,14.8,14.8,0,0,0-1.357,1.913c-.323.543-.594,1-.813,1.371a2.51,2.51,0,0,1-.322.491" fill="#bf654e"/>
        <path id="Trazado_293" data-name="Trazado 293" d="M190.329,320.862c-.958-1.5-2.248-2.062-3.694-3.1a7.714,7.714,0,0,1-3.324-4.036c-.436-1.726.648-3.912,2.427-3.977s2.932,1.775,3.706,3.371c1.364,2.812,3.352,6.139,4.716,8.952" fill="#ff4f5b"/>
        <g id="Grupo_86" data-name="Grupo 86" opacity="0.4">
          <g id="Grupo_85" data-name="Grupo 85">
            <g id="Grupo_84" data-name="Grupo 84" clip-path="url(#clip-path-8)">
              <path id="Trazado_294" data-name="Trazado 294" d="M190.329,320.862c-.958-1.5-2.248-2.062-3.694-3.1a7.714,7.714,0,0,1-3.324-4.036c-.436-1.726.648-3.912,2.427-3.977s2.932,1.775,3.706,3.371c1.364,2.812,3.352,6.139,4.716,8.952"/>
            </g>
          </g>
        </g>
        <path id="Trazado_295" data-name="Trazado 295" d="M184.911,319.562c-4.862-1.184-10.4-1.906-15.283-.815-2.37.529-4.944,2.029-5.131,4.45a4.819,4.819,0,0,0,2.271,4.1c3.328,2.32,7.931,1.534,11.61-.172s7.772-4.717,11.058-6.508" fill="#ff4f5b"/>
        <g id="Grupo_89" data-name="Grupo 89" opacity="0.4">
          <g id="Grupo_88" data-name="Grupo 88">
            <g id="Grupo_87" data-name="Grupo 87" clip-path="url(#clip-path-9)">
              <path id="Trazado_296" data-name="Trazado 296" d="M184.911,319.562c-4.862-1.184-10.4-1.906-15.283-.815-2.37.529-4.944,2.029-5.131,4.45a4.819,4.819,0,0,0,2.271,4.1c3.328,2.32,7.931,1.534,11.61-.172s7.772-4.717,11.058-6.508"/>
            </g>
          </g>
        </g>
        <path id="Trazado_297" data-name="Trazado 297" d="M204.2,326.515a34.445,34.445,0,0,0-13.961,2.156,10.244,10.244,0,0,0-5.2,3.572c-1.773,2.718-.9,6.659,1.542,8.79a9.71,9.71,0,0,0,9.181,1.58,16.005,16.005,0,0,0,7.644-5.78,43.822,43.822,0,0,0,5.2-7.729" fill="#ff4f5b"/>
        <g id="Grupo_92" data-name="Grupo 92" opacity="0.4">
          <g id="Grupo_91" data-name="Grupo 91">
            <g id="Grupo_90" data-name="Grupo 90" clip-path="url(#clip-path-10)">
              <path id="Trazado_298" data-name="Trazado 298" d="M204.2,326.515a34.445,34.445,0,0,0-13.961,2.156,10.244,10.244,0,0,0-5.2,3.572c-1.773,2.718-.9,6.659,1.542,8.79a9.71,9.71,0,0,0,9.181,1.58,16.005,16.005,0,0,0,7.644-5.78,43.822,43.822,0,0,0,5.2-7.729"/>
            </g>
          </g>
        </g>
        <path id="Trazado_299" data-name="Trazado 299" d="M217.125,335.142a21.017,21.017,0,0,1-3.76-8.3,6.651,6.651,0,0,1-.129-2.691,2.837,2.837,0,0,1,1.567-2.084,2.9,2.9,0,0,1,2.96.709,7.593,7.593,0,0,1,1.689,2.705c2.324,5.416,3.259,11.5,4.505,17.263" fill="#ff4f5b"/>
        <g id="Grupo_95" data-name="Grupo 95" opacity="0.4">
          <g id="Grupo_94" data-name="Grupo 94">
            <g id="Grupo_93" data-name="Grupo 93" clip-path="url(#clip-path-11)">
              <path id="Trazado_300" data-name="Trazado 300" d="M217.125,335.142a21.017,21.017,0,0,1-3.76-8.3,6.651,6.651,0,0,1-.129-2.691,2.837,2.837,0,0,1,1.567-2.084,2.9,2.9,0,0,1,2.96.709,7.593,7.593,0,0,1,1.689,2.705c2.324,5.416,3.259,11.5,4.505,17.263"/>
            </g>
          </g>
        </g>
        <path id="Trazado_301" data-name="Trazado 301" d="M220.516,339.587a21.766,21.766,0,0,0-17.619,4.962,10.488,10.488,0,0,0-3.176,4.245,5.238,5.238,0,0,0,.7,5.071c1.476,1.739,4.159,1.941,6.327,1.234,2.583-.842,4.691-2.7,6.719-4.506l9.644-8.6" fill="#ff4f5b"/>
        <g id="Grupo_98" data-name="Grupo 98" opacity="0.4">
          <g id="Grupo_97" data-name="Grupo 97">
            <g id="Grupo_96" data-name="Grupo 96" clip-path="url(#clip-path-12)">
              <path id="Trazado_302" data-name="Trazado 302" d="M220.516,339.587a21.766,21.766,0,0,0-17.619,4.962,10.488,10.488,0,0,0-3.176,4.245,5.238,5.238,0,0,0,.7,5.071c1.476,1.739,4.159,1.941,6.327,1.234,2.583-.842,4.691-2.7,6.719-4.506l9.644-8.6"/>
            </g>
          </g>
        </g>
        <path id="Trazado_303" data-name="Trazado 303" d="M220.8,314.587a28.051,28.051,0,0,1,11.447-19.4,13.937,13.937,0,0,1,6.538-2.783,7.065,7.065,0,0,1,6.389,2.518c1.734,2.368,1.316,5.735.039,8.379-2.078,4.3-6.1,7.429-10.518,9.249a45.141,45.141,0,0,1-13.984,2.8" fill="#ff4f5b"/>
        <path id="Trazado_304" data-name="Trazado 304" d="M216.2,297.572c.8-4.885,3.369-9.31,6.365-13.248a14.764,14.764,0,0,1,3.27-3.375,5.911,5.911,0,0,1,4.463-1.077,5.394,5.394,0,0,1,3.954,4.676,8.1,8.1,0,0,1-2.057,6.014,16.781,16.781,0,0,1-5.222,3.864A37.1,37.1,0,0,1,216.4,298" fill="#ff4f5b"/>
        <path id="Trazado_305" data-name="Trazado 305" d="M213.855,282.478c.063-6.31,2.618-13.466,7.413-17.568.846-.724,2.038-1.411,3.006-.859a2.638,2.638,0,0,1,1.019,1.469,12.636,12.636,0,0,1-11.438,16.958" fill="#ff4f5b"/>
        <path id="Trazado_306" data-name="Trazado 306" d="M213.474,276.3c-.177-5.457-2.989-10.085-6.388-14.358-.783-.986-1.816-1.992-3.074-1.932-1.729.081-2.681,2.081-2.852,3.8a11.735,11.735,0,0,0,3.01,9c2.212,2.4,6.043,3.543,9.3,3.481" fill="#ff4f5b"/>
        <path id="Trazado_307" data-name="Trazado 307" d="M214.7,261.431c-2.822-4.512-3.268-12.017-.6-16.62a9.83,9.83,0,0,1,3.55-3.72,5.94,5.94,0,0,1,5.009-.5c2.751,1.087,3.947,4.564,3.295,7.448s-2.708,5.241-4.9,7.23-4.6,3.779-6.362,6.157" fill="#ff4f5b"/>
        <path id="Trazado_308" data-name="Trazado 308" d="M215.181,292.469a38.087,38.087,0,0,0-5.63-6.779,15.166,15.166,0,0,0-7.766-3.936,9.546,9.546,0,0,0-8.144,2.47,7.018,7.018,0,0,0-1.3,8.125c1.137,1.984,3.3,3.152,5.45,3.923a25.7,25.7,0,0,0,17.7-.2" fill="#ff4f5b"/>
        <path id="Trazado_309" data-name="Trazado 309" d="M220.031,311.952a18.963,18.963,0,0,0-8.612-6.689,13.938,13.938,0,0,0-10.761.378c-1.608.788-3.172,2.2-3.161,3.988.013,1.849,1.672,3.239,3.289,4.137a22.241,22.241,0,0,0,19.476.887" fill="#ff4f5b"/>
        <path id="Trazado_310" data-name="Trazado 310" d="M228.529,339.684a17.826,17.826,0,0,1,2.174-13.055,20.6,20.6,0,0,1,10.726-8.674,11.04,11.04,0,0,1,5.284-.714,5.7,5.7,0,0,1,4.3,2.888c1.354,2.744-.466,6.149-3.026,7.826a36.479,36.479,0,0,1-8.278,4.229c-4.5,1.491-8.593,6.648-10.348,10.279" fill="#ff4f5b"/>
        <path id="Trazado_311" data-name="Trazado 311" d="M233.658,360.225a28.462,28.462,0,0,1,4.59-16.352,15.5,15.5,0,0,1,6.633-6.381c2.858-1.245,6.535-.968,8.683,1.29,2.752,2.891,1.972,7.853-.575,10.926s-6.357,4.746-9.982,6.417-6.47,3.592-8.658,6.93" fill="#ff4f5b"/>
        <path id="Trazado_312" data-name="Trazado 312" d="M236.8,377.123c1.4-5.061,2.98-10.207,6.127-14.413s8.2-7.352,13.426-6.85c2.48.239,5.055,1.477,6.048,3.762,1.229,2.834-.369,6.113-2.406,8.436a22.746,22.746,0,0,1-10.812,6.841c-2.33.663-4.767.953-7.035,1.8s-4.443,2.418-5.21,4.716" fill="#ff4f5b"/>
        <path id="Trazado_313" data-name="Trazado 313" d="M237.222,384.134c-1.624-5.349-6.5-9.024-11.4-11.705-3.671-2.007-7.769-3.717-11.919-3.2s-8.176,4.013-7.911,8.188c.268,4.249,4.665,7.153,8.878,7.76s8.491-.366,12.748-.276,8.286,1.3,10.053,5.171" fill="#ff4f5b"/>
        <path id="Trazado_314" data-name="Trazado 314" d="M234.6,365.782a17.053,17.053,0,0,0-12.028-11.036,6.646,6.646,0,0,0-4.815.321,5.068,5.068,0,0,0-1.817,6.156,8.264,8.264,0,0,0,5.128,4.446,24.154,24.154,0,0,0,6.908.969,25.207,25.207,0,0,1,6.915.927" fill="#ff4f5b"/>
        <path id="Trazado_315" data-name="Trazado 315" d="M198.876,323.653a9.516,9.516,0,0,1-2.611-4.261,2.148,2.148,0,0,1,.064-1.584,1.605,1.605,0,0,1,1.882-.548,4.38,4.38,0,0,1,1.68,1.261,50.706,50.706,0,0,1,5.665,8.3" fill="#ff4f5b"/>
        <path id="Trazado_316" data-name="Trazado 316" d="M220.514,244.13a2.325,2.325,0,0,1-.151.366c-.121.26-.284.607-.491,1.05q-.331.7-.8,1.7-.426,1.039-.975,2.375a66.314,66.314,0,0,0-2.181,6.685,69.276,69.276,0,0,0-1.716,9.146,89.5,89.5,0,0,0,.591,24.162,203.66,203.66,0,0,0,7.225,28.8c3.161,10.067,6.473,19.577,8.839,28.43a213.392,213.392,0,0,1,4.957,23.806c1.023,6.849,1.5,12.436,1.759,16.3.118,1.932.2,3.433.225,4.452.014.488.025.872.033,1.158a2.249,2.249,0,0,1-.007.395,2.166,2.166,0,0,1-.046-.393c-.022-.285-.049-.668-.085-1.156-.076-1.044-.184-2.535-.322-4.441-.322-3.853-.853-9.427-1.92-16.257a220.963,220.963,0,0,0-5.057-23.736c-2.386-8.823-5.708-18.32-8.873-28.4s-5.823-19.811-7.2-28.884a88.713,88.713,0,0,1-.484-24.28,68.2,68.2,0,0,1,1.8-9.175,62.6,62.6,0,0,1,2.274-6.685q.573-1.329,1.022-2.363.5-.987.853-1.684l.537-1.027a2.16,2.16,0,0,1,.2-.342" fill="#1a2e35"/>
        <path id="Trazado_317" data-name="Trazado 317" d="M179.217,318.7a3.805,3.805,0,0,1,.729.039c.476.051,1.182.1,2.082.231a62.242,62.242,0,0,1,7.551,1.508A67.276,67.276,0,0,1,212.4,331.412a64.191,64.191,0,0,1,10.3,9.468,58.862,58.862,0,0,1,6.6,9.331,62.676,62.676,0,0,1,3.4,6.908c.363.834.6,1.5.768,1.947a3.754,3.754,0,0,1,.229.693,3.9,3.9,0,0,1-.326-.654c-.205-.431-.466-1.086-.856-1.9a73.459,73.459,0,0,0-3.536-6.806,61.091,61.091,0,0,0-6.641-9.2,65.392,65.392,0,0,0-10.253-9.364,69.276,69.276,0,0,0-22.6-11A72.8,72.8,0,0,0,182,319.165c-.892-.164-1.593-.242-2.063-.326a3.944,3.944,0,0,1-.717-.144" fill="#1a2e35"/>
        <path id="Trazado_318" data-name="Trazado 318" d="M236.429,300.861c.04.072-1.005.7-2.617,1.808A49.547,49.547,0,0,0,222.723,313.1a31.551,31.551,0,0,1-1.963,2.5,2.73,2.73,0,0,1,.387-.768c.275-.479.711-1.149,1.282-1.954a39.827,39.827,0,0,1,11.181-10.52c.839-.521,1.533-.915,2.028-1.16a2.762,2.762,0,0,1,.791-.34" fill="#1a2e35"/>
        <path id="Trazado_319" data-name="Trazado 319" d="M243.01,322.975c.034.088-1.311.538-3.25,1.694a20.981,20.981,0,0,0-9.9,13.909c-.457,2.21-.443,3.628-.537,3.625a3.273,3.273,0,0,1-.069-.993,16.966,16.966,0,0,1,.244-2.7,19.872,19.872,0,0,1,10.077-14.159,16.894,16.894,0,0,1,2.473-1.115,3.306,3.306,0,0,1,.961-.26" fill="#1a2e35"/>
        <path id="Trazado_320" data-name="Trazado 320" d="M245.6,343.785c.05.081-1.043.745-2.6,2.073a25.333,25.333,0,0,0-8.16,13.386c-.469,1.99-.558,3.266-.653,3.258a3,3,0,0,1-.014-.9,16.323,16.323,0,0,1,.307-2.434,23.064,23.064,0,0,1,8.286-13.593,16.545,16.545,0,0,1,2.023-1.389,3.036,3.036,0,0,1,.808-.4" fill="#1a2e35"/>
        <path id="Trazado_321" data-name="Trazado 321" d="M252.188,363.88c.035.085-1.148.572-2.922,1.6a29.217,29.217,0,0,0-11,11.335c-.976,1.8-1.428,3-1.514,2.969a2.949,2.949,0,0,1,.236-.872,18.456,18.456,0,0,1,.951-2.265,26.117,26.117,0,0,1,11.152-11.49,18.514,18.514,0,0,1,2.237-1.018,3.047,3.047,0,0,1,.864-.263" fill="#1a2e35"/>
        <path id="Trazado_322" data-name="Trazado 322" d="M220.867,358.763a7.133,7.133,0,0,1,2.512.025,15.475,15.475,0,0,1,10.241,6.056,7.084,7.084,0,0,1,1.231,2.189c-.079.044-.55-.788-1.521-1.961a17.22,17.22,0,0,0-10.011-5.92c-1.5-.285-2.453-.3-2.452-.389" fill="#1a2e35"/>
        <path id="Trazado_323" data-name="Trazado 323" d="M218.463,377.229c-.018-.021.209-.268.748-.519a4.792,4.792,0,0,1,2.462-.345,10.829,10.829,0,0,1,3.487,1.139c1.233.589,2.581,1.248,3.959,2.023a27.061,27.061,0,0,1,6.495,4.815,15.118,15.118,0,0,1,1.558,1.9,2.974,2.974,0,0,1,.443.786c-.08.058-.777-1.02-2.261-2.428a31.117,31.117,0,0,0-6.489-4.621c-1.363-.766-2.7-1.435-3.914-2.044a11.285,11.285,0,0,0-3.324-1.206,5.272,5.272,0,0,0-3.164.5" fill="#1a2e35"/>
        <path id="Trazado_324" data-name="Trazado 324" d="M221.727,341.194a27.343,27.343,0,0,0-15.024,7.662,8.323,8.323,0,0,1,1.654-1.932,21.348,21.348,0,0,1,10.835-5.524,8.343,8.343,0,0,1,2.535-.206" fill="#1a2e35"/>
        <path id="Trazado_325" data-name="Trazado 325" d="M221.557,340.745a6.712,6.712,0,0,1-1.1-1.713,30.245,30.245,0,0,1-3.107-9.278,6.663,6.663,0,0,1-.153-2.03c.157-.022.608,3.039,1.823,6.63,1.193,3.6,2.677,6.314,2.537,6.391" fill="#1a2e35"/>
        <path id="Trazado_326" data-name="Trazado 326" d="M220.031,313.761a52.376,52.376,0,0,0-7.079-2.725,52.573,52.573,0,0,0-7.5-1.141,7.328,7.328,0,0,1,2.248-.145,23.731,23.731,0,0,1,10.45,2.772,7.35,7.35,0,0,1,1.881,1.239" fill="#1a2e35"/>
        <path id="Trazado_327" data-name="Trazado 327" d="M230.008,284.769a19.2,19.2,0,0,1-2.189,1.681c-1.365,1.011-3.211,2.46-5.129,4.2s-3.537,3.438-4.677,4.7a19.065,19.065,0,0,1-1.885,2.016,11.8,11.8,0,0,1,1.606-2.256,45.323,45.323,0,0,1,9.873-8.957,11.792,11.792,0,0,1,2.4-1.379" fill="#1a2e35"/>
        <path id="Trazado_328" data-name="Trazado 328" d="M215.979,295.575a21.571,21.571,0,0,1-2.366-1.286,39.645,39.645,0,0,0-12.115-4.331,21.567,21.567,0,0,1-2.646-.505,10.248,10.248,0,0,1,2.7.141,31.211,31.211,0,0,1,12.244,4.377,10.3,10.3,0,0,1,2.18,1.6" fill="#1a2e35"/>
        <path id="Trazado_329" data-name="Trazado 329" d="M221.951,270.645c.11.112-2.092,2.35-4.371,5.457-2.295,3.1-3.781,5.862-3.92,5.789a7,7,0,0,1,.833-1.891,35.531,35.531,0,0,1,5.9-8,7.047,7.047,0,0,1,1.561-1.355" fill="#1a2e35"/>
        <path id="Trazado_330" data-name="Trazado 330" d="M213.3,275.72a17.652,17.652,0,0,1-1.219-1.8,25.81,25.81,0,0,0-3.41-3.931c-1.478-1.409-2.923-2.577-3.959-3.436a9.569,9.569,0,0,1-1.627-1.463,8.8,8.8,0,0,1,1.852,1.171,38.108,38.108,0,0,1,4.094,3.352,19.925,19.925,0,0,1,3.36,4.107,6.219,6.219,0,0,1,.909,2" fill="#1a2e35"/>
        <path id="Trazado_331" data-name="Trazado 331" d="M206.642,327.778a45.27,45.27,0,0,0-6.625,2.55,45.08,45.08,0,0,0-5.857,4.012,6.461,6.461,0,0,1,1.423-1.561,20.765,20.765,0,0,1,8.966-4.713,6.438,6.438,0,0,1,2.093-.288" fill="#1a2e35"/>
        <path id="Trazado_332" data-name="Trazado 332" d="M185.147,320c.011.162-3.158.346-6.906,1.36-3.757.991-6.594,2.413-6.665,2.268a6.8,6.8,0,0,1,1.8-1.046,28.383,28.383,0,0,1,9.683-2.588,6.9,6.9,0,0,1,2.085.006" fill="#1a2e35"/>
        <path id="Trazado_333" data-name="Trazado 333" d="M191.592,321.461a32.932,32.932,0,0,1-3.995-7.251,33.1,33.1,0,0,1,3.995,7.251" fill="#1a2e35"/>
        <g id="Grupo_101" data-name="Grupo 101" opacity="0.4">
          <g id="Grupo_100" data-name="Grupo 100">
            <g id="Grupo_99" data-name="Grupo 99" clip-path="url(#clip-path-13)">
              <path id="Trazado_334" data-name="Trazado 334" d="M198.876,323.653a9.516,9.516,0,0,1-2.611-4.261,2.148,2.148,0,0,1,.064-1.584,1.605,1.605,0,0,1,1.882-.548,4.38,4.38,0,0,1,1.68,1.261,50.706,50.706,0,0,1,5.665,8.3"/>
            </g>
          </g>
        </g>
        <path id="Trazado_335" data-name="Trazado 335" d="M237.8,434.443h0a22.309,22.309,0,0,1-22.309-22.308V392.954H260.11v19.181A22.309,22.309,0,0,1,237.8,434.443" fill="#375a64"/>
        <path id="Trazado_336" data-name="Trazado 336" d="M260.068,406.442a12.818,12.818,0,0,1-1.733-.521c-1.108-.355-2.7-.9-4.713-1.4a22.191,22.191,0,0,0-7.17-.719,15.489,15.489,0,0,0-4.132.948c-1.393.509-2.794,1.168-4.273,1.769a17,17,0,0,1-4.519,1.267,13.778,13.778,0,0,1-4.368-.3c-2.723-.607-5.019-1.573-7-2.189a21.128,21.128,0,0,0-4.774-1.033,10.876,10.876,0,0,0-1.33-.044,1.652,1.652,0,0,1-.47-.029,1.622,1.622,0,0,1,.463-.076,7.917,7.917,0,0,1,1.348-.053,19.013,19.013,0,0,1,4.871.884c2.007.577,4.322,1.506,6.986,2.07a13.462,13.462,0,0,0,4.214.257,16.785,16.785,0,0,0,4.379-1.241c1.462-.594,2.872-1.253,4.3-1.767a15.664,15.664,0,0,1,4.267-.946,21.771,21.771,0,0,1,7.3.841,47,47,0,0,1,4.689,1.562c.543.21.963.38,1.244.5a1.579,1.579,0,0,1,.421.21" fill="#1a2e35"/>
        <path id="Trazado_337" data-name="Trazado 337" d="M260.068,403.757a12.824,12.824,0,0,1-1.733-.521c-1.108-.356-2.7-.9-4.713-1.4a22.191,22.191,0,0,0-7.17-.719,15.486,15.486,0,0,0-4.132.947c-1.393.509-2.794,1.168-4.273,1.77a17,17,0,0,1-4.519,1.266,13.778,13.778,0,0,1-4.368-.294c-2.723-.607-5.019-1.573-7-2.189a21.071,21.071,0,0,0-4.774-1.033,10.925,10.925,0,0,0-1.33-.045,1.684,1.684,0,0,1-.47-.028,1.578,1.578,0,0,1,.463-.076,7.792,7.792,0,0,1,1.348-.054,19.067,19.067,0,0,1,4.871.885c2.007.576,4.322,1.5,6.986,2.07a13.523,13.523,0,0,0,4.214.257,16.824,16.824,0,0,0,4.379-1.241c1.462-.6,2.872-1.254,4.3-1.768a15.7,15.7,0,0,1,4.267-.945,21.745,21.745,0,0,1,7.3.841,47.047,47.047,0,0,1,4.689,1.561c.543.211.963.381,1.244.5a1.579,1.579,0,0,1,.421.21" fill="#1a2e35"/>
      </g>
    </g>
    <text id="REGLAMENTACIÓN" transform="translate(359.67 71.075)" font-size="12" font-family="MyriadPro-Regular, Myriad Pro"><tspan x="0" y="0">REGL</tspan><tspan y="0" letter-spacing="-0.003em">A</tspan><tspan y="0">MEN</tspan><tspan y="0" letter-spacing="-0.074em">T</tspan><tspan y="0" letter-spacing="-0.014em">A</tspan><tspan y="0">CIÓN</tspan></text>
    <text id="HISTORIA_CLINICA" data-name="HISTORIA CLINICA" transform="translate(361.866 85.475)" font-size="12" font-family="MyriadPro-Regular, Myriad Pro"><tspan x="0" y="0">HIS</tspan><tspan y="0" letter-spacing="-0.027em">T</tspan><tspan y="0">ORIA CLINI</tspan><tspan y="0" letter-spacing="0.004em">C</tspan><tspan y="0">A</tspan></text>
  </g>
</svg>
