<svg id="Grupo_136" data-name="Grupo 136" xmlns="http://www.w3.org/2000/svg" xmlns:xlink="http://www.w3.org/1999/xlink" width="946.255" height="360.615" viewBox="0 0 946.255 360.615">
  <defs>
    <clipPath id="clip-path">
      <rect id="Rectángulo_137" data-name="Rectángulo 137" width="946.255" height="360.615" fill="none"/>
    </clipPath>
    <clipPath id="clip-path-3">
      <rect id="Rectángulo_127" data-name="Rectángulo 127" width="47.617" height="20.069" transform="translate(550.072 340.033)" fill="none"/>
    </clipPath>
    <clipPath id="clip-path-4">
      <rect id="Rectángulo_128" data-name="Rectángulo 128" width="9.1" height="57.796" transform="translate(531.025 201.074)" fill="none"/>
    </clipPath>
    <clipPath id="clip-path-5">
      <rect id="Rectángulo_129" data-name="Rectángulo 129" width="9.455" height="19.413" transform="translate(507.975 234.591)" fill="none"/>
    </clipPath>
    <clipPath id="clip-path-6">
      <rect id="Rectángulo_130" data-name="Rectángulo 130" width="27.981" height="64.003" transform="translate(392.638 122.295)" fill="none"/>
    </clipPath>
    <clipPath id="clip-path-7">
      <rect id="Rectángulo_131" data-name="Rectángulo 131" width="11.025" height="9.915" transform="translate(412.6 181.899)" fill="none"/>
    </clipPath>
    <clipPath id="clip-path-8">
      <rect id="Rectángulo_132" data-name="Rectángulo 132" width="7.12" height="18.329" transform="translate(333.733 167.993)" fill="none"/>
    </clipPath>
    <clipPath id="clip-path-9">
      <rect id="Rectángulo_133" data-name="Rectángulo 133" width="6.151" height="32.779" transform="translate(350.077 153.543)" fill="none"/>
    </clipPath>
    <clipPath id="clip-path-10">
      <rect id="Rectángulo_134" data-name="Rectángulo 134" width="13.065" height="58.157" transform="translate(363.945 124.019)" fill="none"/>
    </clipPath>
    <clipPath id="clip-path-11">
      <rect id="Rectángulo_135" data-name="Rectángulo 135" width="10.235" height="0.59" transform="translate(338.517 195.516)" fill="none"/>
    </clipPath>
  </defs>
  <g id="Grupo_135" data-name="Grupo 135" clip-path="url(#clip-path)">
    <g id="Grupo_134" data-name="Grupo 134">
      <g id="Grupo_133" data-name="Grupo 133" clip-path="url(#clip-path)">
        <path id="Trazado_338" data-name="Trazado 338" d="M341.163,247.882l-40.53,8.676a6.37,6.37,0,0,1-7.564-4.9l-8.676-40.531a6.37,6.37,0,0,1,4.9-7.562l40.531-8.676a6.369,6.369,0,0,1,7.563,4.895l8.676,40.531a6.37,6.37,0,0,1-4.9,7.563" fill="#ececec"/>
        <path id="Trazado_339" data-name="Trazado 339" d="M334.395,230.835a3.488,3.488,0,0,0-.322-1.145c-.045-.111-.091-.222-.146-.368a9.662,9.662,0,0,0-4.131-3.891,20.867,20.867,0,0,0-4.952-1.907l-.21-.053a.32.32,0,0,0-.358.15l-3.356,5.753-12.338-7.916,3.363-6.208a.324.324,0,0,0,.023-.253.316.316,0,0,0-.167-.191l-2.834-1.359c-.462-.215-.752-.35-.945-.413a2.926,2.926,0,0,0-.272-.147c-.048-.021-.1-.048-.162-.08a4.906,4.906,0,0,0-.635-.278,8.764,8.764,0,0,0-3.377-.512,8.637,8.637,0,0,0-5.032,1.913,8,8,0,0,0-3.029,6.408,5.6,5.6,0,0,0,1.826,3.9,11.017,11.017,0,0,0,1.79,1.319l18.771,12.02c.233.145.463.293.693.442a19.919,19.919,0,0,0,1.712,1.027,10.821,10.821,0,0,0,2.808.982,10.059,10.059,0,0,0,2.042.209,9.715,9.715,0,0,0,3.965-.833,9.058,9.058,0,0,0,4.389-4.163,6.942,6.942,0,0,0,.587-1.4l.079-.248a4.038,4.038,0,0,0,.26-1.246l.059-.807Zm-23.509-15.508-3.528,6.209a.326.326,0,0,0,.1.431l13.576,8.908a.318.318,0,0,0,.249.045.324.324,0,0,0,.2-.15l3.5-5.923a19.528,19.528,0,0,1,4.194,1.687,8.561,8.561,0,0,1,3.579,3.311c.042.12.091.239.14.357a2.412,2.412,0,0,1,.225.808l.091.563-.061.684a2.914,2.914,0,0,1-.2.927l-.086.271a5.558,5.558,0,0,1-.5,1.183,7.831,7.831,0,0,1-3.774,3.587,8.64,8.64,0,0,1-5.228.542,9.544,9.544,0,0,1-2.481-.864c-.538-.274-1.08-.623-1.6-.96-.235-.152-.471-.3-.705-.447l-18.82-11.916a10.27,10.27,0,0,1-1.639-1.175,4.484,4.484,0,0,1-1.507-3.108,7.07,7.07,0,0,1,2.566-5.589,7.81,7.81,0,0,1,4.442-1.8c.2-.011.389-.016.573-.016a7.985,7.985,0,0,1,3.286.653,1.752,1.752,0,0,0,.287.1c.17.113.441.26.855.484Z" fill="#fff"/>
        <path id="Trazado_340" data-name="Trazado 340" d="M316.668,217.219a23.565,23.565,0,0,0,3.778-.6c.718,3.625.991,4.012,1.253,4.012a.615.615,0,0,0,.1-.012h0c.3-.06.54-.119-.235-4.237,4.2-.909,4.167-1.151,4.11-1.452h0a.363.363,0,0,0-.149-.22c-.242-.162-1.656.026-4.179.547-.488-2.446-.858-3.782-1.1-3.944a.375.375,0,0,0-.257-.054.362.362,0,0,0-.219.145c-.164.241-.008,1.626.454,4.091-3.86.841-4.018,1.117-4.076,1.222a.358.358,0,0,0-.019.283c.042.114.084.224.532.224" fill="#fff"/>
        <rect id="Rectángulo_113" data-name="Rectángulo 113" width="93.88" height="155.397" transform="translate(557.117 14.805)" fill="#e1e1e1"/>
        <rect id="Rectángulo_114" data-name="Rectángulo 114" width="93.88" height="155.397" transform="translate(553.995 14.805)" fill="#ececec"/>
        <rect id="Rectángulo_115" data-name="Rectángulo 115" width="85.884" height="149.095" transform="translate(557.993 17.956)" fill="#fafafa"/>
        <rect id="Rectángulo_116" data-name="Rectángulo 116" width="52.812" height="110.348" transform="translate(574.344 37.33)" fill="#ececec"/>
        <path id="Trazado_341" data-name="Trazado 341" d="M574.344,108.629c-.123-10.308,9.146-20.371,19.354-21.811,4.867-.685,10.039.281,14.586-1.585,8.119-3.328,10.7-14.114,18.872-17.313l.373,79.758H574.344Z" fill="#e1e1e1"/>
        <rect id="Rectángulo_117" data-name="Rectángulo 117" width="72.213" height="75.275" transform="translate(458.083 14.51)" fill="#e1e1e1"/>
        <rect id="Rectángulo_118" data-name="Rectángulo 118" width="72.212" height="75.275" transform="translate(453.194 14.51)" fill="#fafafa"/>
        <path id="Trazado_342" data-name="Trazado 342" d="M525.428,89.808H453.171V14.488h72.257Zm-72.212-.045h72.167V14.532H453.216Z" fill="#e1e1e1"/>
        <rect id="Rectángulo_119" data-name="Rectángulo 119" width="52.798" height="55.037" transform="translate(462.901 24.629)" fill="#fafafa"/>
        <path id="Trazado_343" data-name="Trazado 343" d="M462.9,80.032a8.636,8.636,0,0,1-1.3,1.515c-.843.889-2.028,2.093-3.356,3.4s-2.549,2.474-3.449,3.3a8.431,8.431,0,0,1-1.526,1.27,8.377,8.377,0,0,1,1.3-1.509c.843-.889,2.031-2.1,3.363-3.408s2.556-2.48,3.455-3.307a8.2,8.2,0,0,1,1.52-1.265" fill="#e1e1e1"/>
        <path id="Trazado_344" data-name="Trazado 344" d="M515.7,79.9a8.65,8.65,0,0,1,1.515,1.3c.89.843,2.094,2.028,3.4,3.356s2.475,2.549,3.3,3.449a8.409,8.409,0,0,1,1.271,1.527,8.442,8.442,0,0,1-1.509-1.3c-.889-.844-2.1-2.032-3.409-3.364s-2.48-2.556-3.307-3.455A8.253,8.253,0,0,1,515.7,79.9" fill="#e1e1e1"/>
        <path id="Trazado_345" data-name="Trazado 345" d="M515.554,24.776a8.646,8.646,0,0,1,1.3-1.515c.843-.889,2.028-2.094,3.356-3.4s2.549-2.475,3.449-3.3a8.372,8.372,0,0,1,1.527-1.27,8.462,8.462,0,0,1-1.3,1.508c-.844.889-2.031,2.1-3.364,3.409s-2.555,2.48-3.455,3.307a8.2,8.2,0,0,1-1.52,1.265" fill="#e1e1e1"/>
        <path id="Trazado_346" data-name="Trazado 346" d="M462.756,24.91a8.581,8.581,0,0,1-1.515-1.3c-.889-.843-2.093-2.028-3.4-3.356s-2.475-2.549-3.3-3.449a8.432,8.432,0,0,1-1.27-1.526,8.354,8.354,0,0,1,1.508,1.3c.889.843,2.1,2.031,3.409,3.363s2.48,2.556,3.307,3.456a8.258,8.258,0,0,1,1.265,1.519" fill="#e1e1e1"/>
        <path id="Trazado_347" data-name="Trazado 347" d="M515.554,79.666a2.324,2.324,0,0,1-.011-.268c0-.187-.007-.44-.011-.768-.006-.69-.014-1.682-.025-2.971-.012-2.607-.03-6.4-.053-11.217-.025-9.639-.06-23.372-.1-39.813l.2.2-52.647.03H462.9l.234-.233c-.013,20.2-.024,39.1-.033,55.037l-.2-.2,38.125.1,10.708.053,2.833.024.732.01a2.21,2.21,0,0,1,.255.012,1.512,1.512,0,0,1-.232.011l-.711.011-2.794.024-10.664.052-38.252.1h-.2v-.2c-.009-15.938-.021-34.837-.033-55.037V24.4h.241l52.647.03h.2v.2c-.043,16.5-.079,30.273-.1,39.943-.024,4.8-.041,8.575-.054,11.171-.01,1.272-.019,2.251-.024,2.932,0,.318-.008.564-.011.746a1.752,1.752,0,0,1-.012.245" fill="#e1e1e1"/>
        <rect id="Rectángulo_120" data-name="Rectángulo 120" width="17.618" height="17.618" transform="translate(480.491 43.338)" fill="#ececec"/>
        <path id="Trazado_348" data-name="Trazado 348" d="M649.387,331.481l-2.792,28.62H631.819l-2.909-28.62Z" fill="#e1e1e1"/>
        <rect id="Rectángulo_121" data-name="Rectángulo 121" width="24.432" height="2.095" transform="translate(627.165 329.386)" fill="#ececec"/>
        <path id="Trazado_349" data-name="Trazado 349" d="M646.944,325.779l2.443,4.072H629.958l.93-4.072Z" fill="#ececec"/>
        <path id="Trazado_350" data-name="Trazado 350" d="M648.447,341.116l-1,10.213H630.927l-1.037-10.213Z" fill="#f5f5f5"/>
        <path id="Trazado_351" data-name="Trazado 351" d="M637.045,349.1a4.691,4.691,0,0,1,.766-2.526c.413-.641.912-1.194,1.313-1.746a5.337,5.337,0,0,0,.854-1.613,2.966,2.966,0,0,0,.13-.709c.039.021.078.037.114.06a2.593,2.593,0,0,1,1.08,1.688,4.866,4.866,0,0,1-.1,2.04,4.4,4.4,0,0,1-1.074,2.168,2.962,2.962,0,0,1-2.579.8,2.446,2.446,0,0,1-.509-.161" fill="#fafafa"/>
        <path id="Trazado_352" data-name="Trazado 352" d="M635.795,346.85a8.571,8.571,0,0,1,.522-2.678,2.956,2.956,0,0,1,1.956-1.811,2.278,2.278,0,0,1,1.419.066,3.1,3.1,0,0,1-.172.719,5.531,5.531,0,0,1-.873,1.514c-.4.53-.912,1.079-1.345,1.749a4.737,4.737,0,0,0-.751,2.112c-.017.153-.022.3-.024.451a1.559,1.559,0,0,1-.56-.566,2.727,2.727,0,0,1-.172-1.556" fill="#fafafa"/>
        <path id="Trazado_353" data-name="Trazado 353" d="M516.175,315.989c13.333-13.353,13.271-33.717,9.506-51.361-.628-2.946-.859-6.128-2.732-8.477s-5.478-3.539-7.909-1.818c-2.016,1.427-2.519,4.158-3.373,6.5A17.612,17.612,0,0,1,505.9,268.7c-1.713,1.315-3.941,2.33-5.987,1.635-2.807-.955-3.737-4.433-4.244-7.384q-1.416-8.249-2.832-16.5a27.918,27.918,0,0,0-2.449-8.6c-1.414-2.634-3.9-4.871-6.847-5.157s-6.122,1.948-6.2,4.938a27.96,27.96,0,0,0,.57,3.685c.136,1.238-.192,2.693-1.294,3.241s-2.443-.07-3.477-.776c-3.572-2.434-6.319-5.9-8.928-9.368s-5.176-7.038-8.514-9.792-7.614-4.647-11.877-4.134-8.3,3.92-8.625,8.254,2.845,8.128,6.082,11.021A66.8,66.8,0,0,0,457.3,250.391a5.494,5.494,0,0,1,2.729,2.056c.991,1.851-.523,4.134-2.348,5.125-2.067,1.123-4.491,1.319-6.74,2s-4.559,2.137-5.041,4.464c-.671,3.227,2.411,5.936,5.257,7.562a57.239,57.239,0,0,0,18.394,6.658c2.31.407,4.715.7,6.735,1.908s3.546,3.673,2.86,5.937-3.28,3.413-5.625,3.4-4.6-.888-6.908-1.319c-4.323-.807-9.5.4-11.474,4.367a9.475,9.475,0,0,0,.476,8.423,21.874,21.874,0,0,0,5.766,6.489,57.573,57.573,0,0,0,27.227,12.7c9.974,1.584,18.838.915,27.567-4.163" fill="#f5f5f5"/>
        <path id="Trazado_354" data-name="Trazado 354" d="M509.61,305.677a268.146,268.146,0,0,0-15.547-26.565q-2.245-3.422-4.433-6.754c-1.46-2.213-2.908-4.409-4.457-6.468a133.847,133.847,0,0,0-9.578-11.324c-3.22-3.455-6.4-6.617-9.4-9.55s-5.857-5.606-8.56-7.935a106.334,106.334,0,0,0-13.561-10.029c-1.689-1.056-3.025-1.831-3.937-2.344l-1.042-.577a2.313,2.313,0,0,0-.363-.18,1.979,1.979,0,0,0,.336.229l1.014.625c.893.545,2.211,1.349,3.88,2.43a112.481,112.481,0,0,1,13.42,10.145c2.68,2.341,5.509,5.027,8.5,7.967s6.146,6.114,9.349,9.569a135.631,135.631,0,0,1,9.515,11.3c1.537,2.05,2.97,4.228,4.431,6.447s2.934,4.473,4.429,6.752a275.078,275.078,0,0,1,15.556,26.49" fill="#e1e1e1"/>
        <path id="Trazado_355" data-name="Trazado 355" d="M485.014,265.9a5.977,5.977,0,0,0,.064-1.309c.01-.842-.016-2.06-.071-3.565-.1-3.009-.394-7.158-.728-11.732s-.565-8.719-.624-11.721c-.035-1.5-.05-2.716-.05-3.556a5.9,5.9,0,0,0-.064-1.308,6.075,6.075,0,0,0-.15,1.3c-.065.84-.11,2.059-.125,3.565-.04,3.013.128,7.176.464,11.757.342,4.512.651,8.6.888,11.715.1,1.41.18,2.6.246,3.551a5.98,5.98,0,0,0,.15,1.3" fill="#e1e1e1"/>
        <path id="Trazado_356" data-name="Trazado 356" d="M445.861,265.564a8.223,8.223,0,0,0,1.544-.088c.987-.087,2.416-.22,4.185-.327,3.538-.244,8.436-.409,13.848-.356s10.31.331,13.846.625c1.769.135,3.2.283,4.187.379a8.408,8.408,0,0,0,1.543.1,8.19,8.19,0,0,0-1.516-.315c-.983-.162-2.409-.37-4.18-.556-3.537-.4-8.447-.725-13.877-.79a136.048,136.048,0,0,0-13.883.52c-1.771.159-3.2.351-4.18.5a8.213,8.213,0,0,0-1.517.3" fill="#e1e1e1"/>
        <path id="Trazado_357" data-name="Trazado 357" d="M509.02,305.063a1.951,1.951,0,0,0,.178-.508l.4-1.486c.346-1.292.8-3.176,1.321-5.509,1.055-4.666,2.31-11.158,3.6-18.34s2.48-13.68,3.437-18.362c.471-2.276.86-4.149,1.148-5.542.122-.6.222-1.1.3-1.51a2.039,2.039,0,0,0,.069-.536,1.989,1.989,0,0,0-.178.51l-.4,1.485c-.345,1.292-.795,3.175-1.321,5.508-1.055,4.667-2.309,11.158-3.6,18.344s-2.48,13.676-3.437,18.359l-1.147,5.541c-.122.6-.223,1.1-.305,1.511a1.987,1.987,0,0,0-.069.535" fill="#e1e1e1"/>
        <path id="Trazado_358" data-name="Trazado 358" d="M455.777,297.8a2.058,2.058,0,0,0,.536.116l1.55.231c1.429.2,3.357.464,5.7.786,4.816.666,11.456,1.661,18.793,2.771s13.994,2.046,18.825,2.613c2.415.284,4.372.493,5.727.61l1.561.127a2.033,2.033,0,0,0,.548,0,2.051,2.051,0,0,0-.536-.117l-1.55-.229-5.7-.787c-4.815-.665-11.457-1.661-18.8-2.772s-13.991-2.046-18.822-2.612c-2.415-.284-4.372-.493-5.728-.61l-1.561-.126a1.919,1.919,0,0,0-.548-.006" fill="#e1e1e1"/>
        <rect id="Rectángulo_122" data-name="Rectángulo 122" width="63.498" height="60.916" transform="translate(293.081 63.526) rotate(-89.868)" fill="#e1e1e1"/>
        <rect id="Rectángulo_123" data-name="Rectángulo 123" width="63.499" height="60.916" transform="translate(288.955 63.516) rotate(-89.867)" fill="#375a64"/>
        <rect id="Rectángulo_124" data-name="Rectángulo 124" width="63.537" height="60.953" transform="matrix(0.002, -1, 1, 0.002, 288.937, 63.536)" fill="#f5f5f5"/>
        <rect id="Rectángulo_125" data-name="Rectángulo 125" width="46.427" height="44.538" transform="translate(297.164 55) rotate(-89.869)" fill="#fff"/>
        <path id="Trazado_359" data-name="Trazado 359" d="M297.163,55.309a7.27,7.27,0,0,1-1.1,1.275c-.712.749-1.714,1.763-2.837,2.864s-2.156,2.082-2.916,2.778a7.049,7.049,0,0,1-1.29,1.069,7.063,7.063,0,0,1,1.1-1.269c.713-.749,1.718-1.766,2.844-2.87s2.16-2.087,2.922-2.784a6.982,6.982,0,0,1,1.283-1.063" fill="#e1e1e1"/>
        <path id="Trazado_360" data-name="Trazado 360" d="M341.7,55.3a7.356,7.356,0,0,1,1.275,1.1c.748.712,1.763,1.714,2.863,2.837s2.083,2.156,2.78,2.916a7.006,7.006,0,0,1,1.068,1.291,7.178,7.178,0,0,1-1.27-1.1c-.749-.713-1.766-1.718-2.869-2.844s-2.088-2.16-2.783-2.922A6.876,6.876,0,0,1,341.7,55.3" fill="#e1e1e1"/>
        <path id="Trazado_361" data-name="Trazado 361" d="M341.687,8.8a7.268,7.268,0,0,1,1.1-1.275c.712-.749,1.714-1.763,2.837-2.864s2.156-2.082,2.916-2.778a7.049,7.049,0,0,1,1.29-1.069,7.116,7.116,0,0,1-1.1,1.269c-.713.749-1.718,1.766-2.844,2.87s-2.161,2.087-2.922,2.784A6.982,6.982,0,0,1,341.687,8.8" fill="#e1e1e1"/>
        <path id="Trazado_362" data-name="Trazado 362" d="M297.149,8.811a7.27,7.27,0,0,1-1.275-1.1c-.749-.712-1.763-1.714-2.864-2.837s-2.083-2.156-2.779-2.916A7.008,7.008,0,0,1,289.163.665a7.2,7.2,0,0,1,1.269,1.1c.749.713,1.765,1.718,2.869,2.844s2.087,2.16,2.784,2.922a7.032,7.032,0,0,1,1.064,1.283" fill="#e1e1e1"/>
        <path id="Trazado_363" data-name="Trazado 363" d="M341.58,55.1a2.077,2.077,0,0,1-.01-.226c0-.158,0-.372-.008-.647q0-.875-.014-2.507c-.005-2.2-.013-5.4-.024-9.462,0-8.132-.006-19.715-.009-33.585l.17.172-44.411-.076h0l.2-.2c-.05,17.041-.1,32.982-.134,46.426l-.169-.169,32.159.161,9.033.064,2.39.025.618.011a1.9,1.9,0,0,1,.215.01,1.5,1.5,0,0,1-.2.009l-.6.009-2.357.013-8.995.024-32.268.012h-.17V55c.022-13.444.05-29.385.078-46.425v-.2h.2l44.411.127h.173v.172c-.068,13.915-.125,25.536-.165,33.695-.028,4.045-.051,7.232-.066,9.422q-.017,1.61-.026,2.474c0,.268-.008.475-.011.629a1.488,1.488,0,0,1-.01.206" fill="#e1e1e1"/>
        <path id="Trazado_364" data-name="Trazado 364" d="M311.246,44.4a9.852,9.852,0,0,1-.408-12.96c1.241-1.418,2.889-2.452,4.039-3.944,2.489-3.233,2.467-8.331,5.928-10.492a6.31,6.31,0,0,1,7.976,1.678,8.449,8.449,0,0,1,.779,8.466c-.886,2.01-2.423,3.718-3.057,5.821-.649,2.151-.287,4.512-.96,6.656-.813,2.588-3.558,4.22-6.106,5.157a11.422,11.422,0,0,1-8.191-.382" fill="#f5f5f5"/>
        <path id="Trazado_365" data-name="Trazado 365" d="M323.823,23.042a8.111,8.111,0,0,1-.434,1.226c-.3.781-.771,1.9-1.389,3.259a91.069,91.069,0,0,1-5.529,10.3,91.147,91.147,0,0,1-6.807,9.506c-.951,1.155-1.744,2.07-2.314,2.684a7.747,7.747,0,0,1-.909.929,8.354,8.354,0,0,1,.791-1.031c.532-.644,1.29-1.585,2.211-2.76a110.659,110.659,0,0,0,6.689-9.54,110.546,110.546,0,0,0,5.612-10.209c.648-1.344,1.159-2.439,1.5-3.2a8.088,8.088,0,0,1,.577-1.165" fill="#e1e1e1"/>
        <path id="Trazado_366" data-name="Trazado 366" d="M314.591,31.067a15.019,15.019,0,0,1,.352,2.349c.171,1.464.385,3.508.606,5.816l-.3-.153.961-.56c2.23-1.294,4.259-2.445,5.737-3.262a18.8,18.8,0,0,1,2.435-1.25,18.506,18.506,0,0,1-2.293,1.5c-1.442.878-3.448,2.069-5.678,3.363l-.963.556-.269.157-.028-.31c-.208-2.308-.375-4.356-.476-5.829a14.946,14.946,0,0,1-.086-2.373" fill="#e1e1e1"/>
        <path id="Trazado_367" data-name="Trazado 367" d="M326.3,27.657a7.373,7.373,0,0,1-1.5.838c-.95.471-2.273,1.1-3.745,1.765l-.459.208-.239.107-.04-.259c-.23-1.483-.413-2.808-.529-3.764A6.315,6.315,0,0,1,319.677,25a6.323,6.323,0,0,1,.375,1.51c.184.945.416,2.262.653,3.745l-.279-.151.459-.209c1.472-.669,2.813-1.253,3.793-1.658a7.327,7.327,0,0,1,1.619-.58" fill="#e1e1e1"/>
        <path id="Trazado_368" data-name="Trazado 368" d="M946.255,360.1c0,.124-211.843.225-473.1.225C211.8,360.326,0,360.225,0,360.1s211.8-.224,473.151-.224c261.261,0,473.1.1,473.1.224" fill="#1a2e35"/>
        <path id="Trazado_369" data-name="Trazado 369" d="M378.967,284.028a21.453,21.453,0,0,1,13.313-1.617c2.415.4,4.932,1.121,6.576,2.935s1.955,5.006.068,6.566a6.3,6.3,0,0,1-4.146,1.052c-3.52-.041-7.424-.662-10.236,1.457-1.6,1.207-2.672,3.215-4.59,3.809a4.532,4.532,0,0,1-4.988-2.219,7.746,7.746,0,0,1-.564-5.718,8.729,8.729,0,0,1,4.567-6.265" fill="#ff4f5b"/>
        <path id="Trazado_370" data-name="Trazado 370" d="M369.691,266.12c2.476,3.536,7.288,2.365,9.52.207s3.173-5.287,4.032-8.27c1.962-6.817,3.939-13.967,2.48-20.909a11.613,11.613,0,0,0-2.67-5.684,6.072,6.072,0,0,0-5.751-1.914c-2.425.641-3.934,3.017-5.024,5.278a49.855,49.855,0,0,0-4.925,21.389c-.012,3.445.394,7.058,2.338,9.9" fill="#ff4f5b"/>
        <path id="Trazado_371" data-name="Trazado 371" d="M362.891,271.194c2.688-3.191,3.2-7.845,2-11.842a22.807,22.807,0,0,0-7.013-10.173,37.748,37.748,0,0,0-12.558-7.41,13.42,13.42,0,0,0-5.649-.96,5.932,5.932,0,0,0-4.74,2.868c-1.321,2.521-.054,5.579,1.316,8.073a95.846,95.846,0,0,0,8.249,12.561c2.472,3.188,5.305,6.332,9.073,7.773s7.682,1.27,9.679-1.343" fill="#ff4f5b"/>
        <path id="Trazado_372" data-name="Trazado 372" d="M369.523,319.465a7.8,7.8,0,0,0,.224-1.607c.114-1.169.256-2.638.426-4.385a63.481,63.481,0,0,1,.988-6.433,49.406,49.406,0,0,1,2.338-7.592,27.974,27.974,0,0,1,3.876-6.869,14.481,14.481,0,0,1,4.9-4.075,13.707,13.707,0,0,1,4.128-1.285,7.7,7.7,0,0,0,1.6-.232,7.688,7.688,0,0,0-1.627-.025,12.509,12.509,0,0,0-4.3,1.12,14.441,14.441,0,0,0-5.17,4.111,27.285,27.285,0,0,0-4.019,7.007,46.289,46.289,0,0,0-2.321,7.716,54.149,54.149,0,0,0-.855,6.514c-.14,1.862-.192,3.37-.218,4.412a7.558,7.558,0,0,0,.034,1.623" fill="#1a2e35"/>
        <path id="Trazado_373" data-name="Trazado 373" d="M369.824,316.09a3.191,3.191,0,0,0,.044-.745c0-.561,0-1.267-.006-2.133-.005-1.85,0-4.527.1-7.834.164-6.613.733-13.731,1.833-23.766,1.041-9.435,2.439-20.416,3.914-27.554.316-1.624.636-3.086.935-4.364s.531-2.389.766-3.284l.5-2.072a3.2,3.2,0,0,0,.131-.735,3.15,3.15,0,0,0-.259.7c-.163.536-.368,1.212-.619,2.043-.275.886-.557,1.984-.878,3.262s-.685,2.731-1.032,4.353a241.777,241.777,0,0,0-4.115,25.568c-1.1,10.055-1.6,19.211-1.643,25.841-.039,3.315.031,6,.116,7.85.053.866.1,1.571.13,2.131a3.213,3.213,0,0,0,.09.74" fill="#1a2e35"/>
        <path id="Trazado_374" data-name="Trazado 374" d="M369.869,298.432a14.166,14.166,0,0,0-.016-2.228c-.082-1.43-.279-3.5-.682-6.034a79.743,79.743,0,0,0-1.962-8.792,71.944,71.944,0,0,0-3.677-10.4,55.423,55.423,0,0,0-10.8-16.812,27.511,27.511,0,0,0-2.54-2.361c-.389-.329-.734-.658-1.085-.918l-.985-.68a14.234,14.234,0,0,0-1.875-1.2,66.69,66.69,0,0,1,6.146,5.484,58.425,58.425,0,0,1,10.528,16.751,82.423,82.423,0,0,1,3.7,10.307c.964,3.231,1.6,6.2,2.088,8.7.46,2.509.726,4.558.887,5.976a14.229,14.229,0,0,0,.273,2.206" fill="#1a2e35"/>
        <path id="Trazado_375" data-name="Trazado 375" d="M352.8,329.581l1.77,24.242h31.142l1.77-24.242Z" fill="#1a2e35"/>
        <rect id="Rectángulo_126" data-name="Rectángulo 126" width="41.405" height="9.555" transform="translate(349.793 320.026)" fill="#1a2e35"/>
        <path id="Trazado_376" data-name="Trazado 376" d="M349.793,352.9v2.648h40.721V352.9Z" fill="#375a64"/>
        <path id="Trazado_377" data-name="Trazado 377" d="M353.646,360.205l-1.907-4.661h37.292l-2.225,4.661Z" fill="#375a64"/>
        <path id="Trazado_378" data-name="Trazado 378" d="M386.9,337.5a1.032,1.032,0,0,1-.146.223l-.465.617-1.814,2.322-.081.1-.078-.108c-1.141-1.577-2.663-3.684-4.457-6.165h.257l-4.389,6.214-.137.194-.154-.182-5.2-6.193.3,0-.286.36c-1.615,2.023-3.177,3.981-4.654,5.834l-.155.194-.143-.2c-1.581-2.235-3.056-4.323-4.391-6.212l.256.013-5.407,6.16-.1.109-.073-.123-1.694-2.844c-.177-.309-.32-.558-.433-.757a1.126,1.126,0,0,1-.133-.271,1.267,1.267,0,0,1,.181.24l.481.73,1.777,2.792-.17-.014,5.321-6.235.134-.157.122.169,4.429,6.184-.3-.009c1.475-1.854,3.033-3.815,4.643-5.841l.287-.361.148-.185.152.181,5.189,6.2-.291.012c1.6-2.233,3.093-4.314,4.432-6.182l.13-.181.127.181c1.756,2.507,3.246,4.637,4.362,6.231l-.158-.005c.795-.953,1.427-1.711,1.888-2.262l.5-.585c.117-.13.179-.2.187-.189" fill="#e1e1e1"/>
        <path id="Trazado_379" data-name="Trazado 379" d="M387.916,329.421c0,.107-7.8.194-17.427.194s-17.428-.087-17.428-.194,7.8-.193,17.428-.193,17.427.087,17.427.193" fill="#375a64"/>
        <path id="Trazado_380" data-name="Trazado 380" d="M389.49,355.8c0,.107-8.48.194-18.939.194s-18.942-.087-18.942-.194,8.479-.193,18.942-.193,18.939.087,18.939.193" fill="#1a2e35"/>
        <path id="Trazado_381" data-name="Trazado 381" d="M619.29,171.1c-.675-2.915,2.766-12.983.545-13.207-2.829-.286-3.308,11.164-3.409,12.19-.1,1-1.585.879-1.444-.043.2-1.323,2.087-14.278-.769-14.309-1.583-.018-1.65,2.863-1.65,2.863s-1.066,12.768-2.415,12.707c-1.369-.06-.383-7.326-.246-10.027.132-2.591-1.166-4.079-2.125-2.96-1.406,1.642-1.4,8.222-1.571,10.814s-.87,10.039-3.545,6.315-6.1-5.61-7.367-5.481-1.5,1.95-.273,2.663a17.152,17.152,0,0,1,3.345,3.192,16.328,16.328,0,0,1,1.927,3.167,14.264,14.264,0,0,1,1.4,4.513,8.886,8.886,0,0,0,3.938,6.13l-.151,20.454-.634,10.119,15.923,5.524-2.092-36.089c.781-6.935,3.835-15.708,4.95-19.773,1.776-6.485.945-6.766.152-6.8-1.752-.077-3.833,10.884-4.491,8.039" fill="#b66955"/>
        <path id="Trazado_382" data-name="Trazado 382" d="M617.251,179.9a14.661,14.661,0,0,0-1.954.327,7.4,7.4,0,0,0-4.666,3.918l-.1.209-.154-.159a11.2,11.2,0,0,0-3.018-2.207c-.842-.42-1.386-.589-1.372-.635a4.51,4.51,0,0,1,1.46.442,10.037,10.037,0,0,1,3.159,2.165l-.259.049a7.445,7.445,0,0,1,.8-1.327,7.607,7.607,0,0,1,2.047-1.839,7.231,7.231,0,0,1,2.053-.845,6.087,6.087,0,0,1,1.471-.167,1.624,1.624,0,0,1,.536.069" fill="#8e3823"/>
        <path id="Trazado_383" data-name="Trazado 383" d="M616.465,189.481a11.883,11.883,0,0,1-6.919.224c.017-.1,1.558.144,3.466.076s3.431-.4,3.453-.3" fill="#8e3823"/>
        <path id="Trazado_384" data-name="Trazado 384" d="M520.2,136.124a11.966,11.966,0,0,1,9.795-10.756,15.518,15.518,0,0,0,4.038-.75,23.366,23.366,0,0,0,2.8-1.879,8,8,0,0,1,9.887,1.336c2.282,2.522,2.866-1.256,8.008,1.322,4.261,2.137,2.371,5.669,2.371,5.669a9.175,9.175,0,0,1,9.6,6.588c.675,2.6.368,5.848,2.546,7.421,1.056.763,2.459.894,3.544,1.613,2.018,1.338,2.288,4.182,2.027,6.588s-.822,4.968.221,7.153c1.71,3.58,7.061,4.667,7.988,8.524.438,1.822-.179,4.088,1.2,5.355a6.388,6.388,0,0,0,2.012.992,8.368,8.368,0,0,1,1.375,14.8c-.717.459-1.576.9-1.8,1.715-.253.915.4,1.8.889,2.616a8.044,8.044,0,0,1-10.666,11.22,12.591,12.591,0,0,1-6.953,6.386,7.64,7.64,0,0,1-4.374.429,8.768,8.768,0,0,1-3.144-1.641c-4.534-3.412-10.928-8.673-11.726-14.292" fill="#1a2e35"/>
        <path id="Trazado_385" data-name="Trazado 385" d="M520.095,144.873l-.2-4.022,24.033-5.349c7.43-1.02,15.723,6.2,16.426,13.667.781,8.3,1.408,18.454.616,24.686-1.594,12.532-11.1,14.415-11.1,14.415l.332,12.381-27.568,1.2Z" fill="#b66955"/>
        <path id="Trazado_386" data-name="Trazado 386" d="M555.826,158.231a1.6,1.6,0,0,1-1.493,1.661,1.532,1.532,0,0,1-1.694-1.39,1.6,1.6,0,0,1,1.491-1.663,1.533,1.533,0,0,1,1.7,1.392" fill="#1a2e35"/>
        <path id="Trazado_387" data-name="Trazado 387" d="M557.877,154.549c-.191.214-1.432-.645-3.152-.587-1.72.033-2.955.958-3.149.753-.095-.091.1-.473.634-.891a4.382,4.382,0,0,1,2.512-.86,4.219,4.219,0,0,1,2.517.727c.542.389.733.761.638.858" fill="#1a2e35"/>
        <path id="Trazado_388" data-name="Trazado 388" d="M539.761,159.036a1.6,1.6,0,0,1-1.492,1.662,1.531,1.531,0,0,1-1.694-1.391,1.6,1.6,0,0,1,1.491-1.663,1.533,1.533,0,0,1,1.7,1.392" fill="#1a2e35"/>
        <path id="Trazado_389" data-name="Trazado 389" d="M540.971,155.4c-.192.215-1.433-.645-3.152-.586-1.72.033-2.955.957-3.15.752-.094-.09.095-.473.634-.891a4.388,4.388,0,0,1,2.513-.86,4.213,4.213,0,0,1,2.516.728c.541.389.733.76.639.857" fill="#1a2e35"/>
        <path id="Trazado_390" data-name="Trazado 390" d="M547.613,167.963a11.452,11.452,0,0,1,2.779-.591c.439-.058.852-.159.916-.461a2.229,2.229,0,0,0-.334-1.294q-.668-1.575-1.4-3.305c-1.952-4.708-3.38-8.585-3.19-8.662s1.927,3.676,3.88,8.384q.705,1.743,1.349,3.328a2.551,2.551,0,0,1,.282,1.718,1.106,1.106,0,0,1-.7.665,2.973,2.973,0,0,1-.743.126,11.128,11.128,0,0,1-2.833.092" fill="#1a2e35"/>
        <path id="Trazado_391" data-name="Trazado 391" d="M549.86,188.3a33.036,33.036,0,0,1-17.266-3.949s4.484,8.6,17.355,7.058Z" fill="#8e3823"/>
        <path id="Trazado_392" data-name="Trazado 392" d="M547.013,172.134a3.1,3.1,0,0,0-2.815-1.065,2.829,2.829,0,0,0-1.923,1.108,1.8,1.8,0,0,0-.073,2.056,2.085,2.085,0,0,0,2.274.5,6.523,6.523,0,0,0,2.159-1.381,1.93,1.93,0,0,0,.476-.525.575.575,0,0,0-.023-.64" fill="#8e3823"/>
        <path id="Trazado_393" data-name="Trazado 393" d="M542.584,169.311c.28-.024.342,1.844,1.981,3.119s3.623,1.01,3.645,1.271c.03.116-.432.376-1.272.424a4.643,4.643,0,0,1-3.039-.954,4.054,4.054,0,0,1-1.542-2.619c-.095-.778.1-1.248.227-1.241" fill="#1a2e35"/>
        <path id="Trazado_394" data-name="Trazado 394" d="M541.206,148.637c-.155.473-1.881.3-3.892.61-2.018.266-3.628.908-3.909.5-.125-.2.145-.646.789-1.12a6.846,6.846,0,0,1,5.943-.842c.751.275,1.134.631,1.069.856" fill="#1a2e35"/>
        <path id="Trazado_395" data-name="Trazado 395" d="M557.09,149.588c-.291.4-1.489.031-2.915.056-1.427-.025-2.625.344-2.915-.056-.128-.194.05-.592.566-.979a4.226,4.226,0,0,1,4.7,0c.515.386.694.784.566.979" fill="#1a2e35"/>
        <path id="Trazado_396" data-name="Trazado 396" d="M562.465,133.874c-1.687,4.494-5.712,11.29-10.444,12.1a14.1,14.1,0,0,1-12.918-4.738c-.548,3.584-4.4,5.661-7.941,6.422a14.239,14.239,0,0,1-7.594-.142,7.55,7.55,0,0,1-5.07-5.322c-.508-2.513,2.791-8.909,5.285-9.5" fill="#1a2e35"/>
        <path id="Trazado_397" data-name="Trazado 397" d="M528.222,200.206a9.825,9.825,0,0,1-6.553,9.212,6.962,6.962,0,0,1-13.248,3.665,8.308,8.308,0,0,0-1.163-2.281c-1.328-1.455-3.682-.98-5.594-1.45-3.445-.849-5.2-4.873-5.071-8.418a8.214,8.214,0,0,0-.051-2.092c-.31-1.4-1.492-2.4-2.4-3.5-3.731-4.557-2.818-11.629.612-16.416,1.145-1.6,2.612-3.283,2.357-5.231a10.535,10.535,0,0,0-1.286-3.01,8.9,8.9,0,0,1,1.7-9.86,2.807,2.807,0,0,0,.937-1.309,2.709,2.709,0,0,0-.081-1.03,10.407,10.407,0,0,1,7.983-11.715,2.61,2.61,0,0,0,.9-.272c.769-.475.715-1.577.756-2.479.108-2.385,1.62-6.933,3.319-8.61,4.711-4.646,9.826-1.507,11.678,0,0,0,4.657,16.787,4.22,20.007s-2.2,11.3-1.021,14.823,3.222,10.776,2,14.119,0,15.852,0,15.852" fill="#1a2e35"/>
        <path id="Trazado_398" data-name="Trazado 398" d="M558.458,340.032s36.4,10.074,37.858,10.588c2.193.772,1.825,8.806-1.587,8.681-1.615-.06-27.958.98-31.287.772s-13.371-4.165-13.371-4.165Z" fill="#ff4f5b"/>
        <path id="Trazado_399" data-name="Trazado 399" d="M573.62,353.921c.184.025.43-1.9,1.6-3.908,1.146-2.026,2.688-3.2,2.574-3.351-.064-.14-1.871.886-3.1,3.047-1.25,2.149-1.229,4.228-1.076,4.212" fill="#1a2e35"/>
        <path id="Trazado_400" data-name="Trazado 400" d="M569.826,352.2c.178.03.546-1.69,1.516-3.592.95-1.911,2.113-3.231,1.982-3.356a9.13,9.13,0,0,0-3.5,6.948" fill="#1a2e35"/>
        <path id="Trazado_401" data-name="Trazado 401" d="M566.266,351.246c.184-.011.044-1.829.852-3.845.773-2.03,2.109-3.271,1.982-3.4-.073-.139-1.7.987-2.55,3.183-.868,2.184-.431,4.119-.284,4.066" fill="#1a2e35"/>
        <path id="Trazado_402" data-name="Trazado 402" d="M566.912,346.545a6.477,6.477,0,0,0,.391-2.708,12.762,12.762,0,0,0-.37-2.968,12.253,12.253,0,0,0-.542-1.689,2.022,2.022,0,0,0-.583-.893.97.97,0,0,0-1.25.062,1.612,1.612,0,0,0-.484,1.029,7.038,7.038,0,0,0-.048.962,8.044,8.044,0,0,0,.225,1.781,10.844,10.844,0,0,0,1.12,2.783,7.328,7.328,0,0,0,1.636,2.191c.083-.058-.528-.9-1.254-2.39A11.921,11.921,0,0,1,564.8,342a7.99,7.99,0,0,1-.176-1.663c.017-.56.009-1.259.336-1.527a.351.351,0,0,1,.481-.04,1.536,1.536,0,0,1,.4.635,13.6,13.6,0,0,1,.552,1.606,14.677,14.677,0,0,1,.481,2.843c.106,1.647-.06,2.677.04,2.692" fill="#1a2e35"/>
        <path id="Trazado_403" data-name="Trazado 403" d="M566.867,346.175a5.106,5.106,0,0,0-2.349-.379,10.537,10.537,0,0,0-2.582.317,5.673,5.673,0,0,0-1.487.547,1.539,1.539,0,0,0-.823,1.663,1.817,1.817,0,0,0,1.312,1.3,3.319,3.319,0,0,0,1.632,0,6.263,6.263,0,0,0,2.365-1.162,6.387,6.387,0,0,0,1.693-1.666,15.884,15.884,0,0,0-1.94,1.313,6.454,6.454,0,0,1-2.232.967,2.873,2.873,0,0,1-1.349-.019,1.233,1.233,0,0,1-.887-.865.939.939,0,0,1,.541-1.017,5.608,5.608,0,0,1,1.32-.515,12.25,12.25,0,0,1,2.453-.427c1.424-.1,2.318.046,2.333-.052" fill="#1a2e35"/>
        <path id="Trazado_404" data-name="Trazado 404" d="M579.213,354.311c.181-.021,0-1.576.718-3.283.681-1.721,1.9-2.709,1.782-2.85-.06-.147-1.582.715-2.346,2.62-.786,1.9-.3,3.577-.154,3.513" fill="#1a2e35"/>
        <path id="Trazado_405" data-name="Trazado 405" d="M553.816,355.99a7.629,7.629,0,0,0,1.408.663,31.231,31.231,0,0,0,4.051,1.255,57.762,57.762,0,0,0,13.895,1.317c5.456-.06,10.371-.308,13.935-.451l4.218-.223a7.666,7.666,0,0,0,1.545-.165,7.606,7.606,0,0,0-1.552-.073l-4.224.031-13.924.272a65.1,65.1,0,0,1-13.8-1.128c-3.48-.715-5.511-1.61-5.554-1.5" fill="#1a2e35"/>
        <path id="Trazado_406" data-name="Trazado 406" d="M552.74,356.82c.05.084,1.046-.5,2.728-1.235a12.675,12.675,0,0,1,6.887-1.146,10.908,10.908,0,0,1,5.953,3.542,21.712,21.712,0,0,0,2.1,2.143,11.271,11.271,0,0,0-1.781-2.435,14.433,14.433,0,0,0-2.414-2.257,8.638,8.638,0,0,0-3.76-1.594,12.035,12.035,0,0,0-7.165,1.356,9.676,9.676,0,0,0-2.546,1.626" fill="#1a2e35"/>
        <g id="Grupo_108" data-name="Grupo 108" opacity="0.3">
          <g id="Grupo_107" data-name="Grupo 107">
            <g id="Grupo_106" data-name="Grupo 106" clip-path="url(#clip-path-3)">
              <path id="Trazado_407" data-name="Trazado 407" d="M558.458,340.032s36.4,10.074,37.858,10.588c2.193.772,1.825,8.806-1.587,8.681-1.615-.06-27.958.98-31.287.772s-13.371-4.165-13.371-4.165Z"/>
            </g>
          </g>
        </g>
        <path id="Trazado_408" data-name="Trazado 408" d="M518.022,298.226l-7.858,16.148s-42.013-12.776-52.6-12.187-19.256,4.828-21.314,13.426-2.34,20.459,10.009,28.692,73.726,12.781,73.726,12.781h24.286l39.7-52.339-6.4-5.187Z" fill="#1a2e35"/>
        <path id="Trazado_409" data-name="Trazado 409" d="M531.233,333.651a4.5,4.5,0,0,1-.8-.014c-.52-.043-1.3-.04-2.279-.177a47.432,47.432,0,0,1-8.234-1.7,78.986,78.986,0,0,1-11.612-4.542c-4.246-2-8.777-4.468-13.538-7.025a140,140,0,0,0-13.714-6.579,61.528,61.528,0,0,0-11.865-3.548,41.971,41.971,0,0,0-8.317-.725c-.99-.022-1.753.083-2.275.089a4.328,4.328,0,0,1-.8.01,4.431,4.431,0,0,1,.788-.116c.52-.039,1.285-.178,2.279-.188a38.928,38.928,0,0,1,8.387.564,59.639,59.639,0,0,1,11.98,3.463,133.185,133.185,0,0,1,13.783,6.565c4.766,2.559,9.28,5.032,13.5,7.052a82.735,82.735,0,0,0,11.511,4.623,51.831,51.831,0,0,0,8.151,1.852c.976.169,1.745.2,2.262.276a4.322,4.322,0,0,1,.789.12" fill="#375a64"/>
        <path id="Trazado_410" data-name="Trazado 410" d="M559.939,352.814c7.8-3.065,50.713-16.719,65.9-34.272A16.8,16.8,0,0,0,630,303.969c-2.119-11.707-12.887-19.512-24.056-15.09-1.588.629-5.239,2.047-6.764,2.868-4.165,2.239-71.67,45.05-71.67,45.05s11.762,22.936,11.468,23.818Z" fill="#1a2e35"/>
        <path id="Trazado_411" data-name="Trazado 411" d="M581.073,301.919a.849.849,0,0,1-.184.146c-.153.1-.338.231-.565.384l-2.2,1.435-8.151,5.194-27,16.966-14.665,9.143.1-.3,7.689,18.5,2.163,5.31.555,1.419a2.618,2.618,0,0,1,.167.5,2.657,2.657,0,0,1-.241-.467l-.627-1.39-2.289-5.256-7.866-18.426-.081-.19.177-.112L542.7,325.6l27.078-16.835,8.24-5.052,2.254-1.351.594-.34a.751.751,0,0,1,.212-.1" fill="#375a64"/>
        <path id="Trazado_412" data-name="Trazado 412" d="M521.782,322.161a6.989,6.989,0,0,1-1.993-.75,27.924,27.924,0,0,1-8.257-6.044,6.958,6.958,0,0,1-1.316-1.674c.122-.11,2.268,2.321,5.477,4.653,3.192,2.353,6.158,3.666,6.089,3.815" fill="#375a64"/>
        <path id="Trazado_413" data-name="Trazado 413" d="M545.154,303.134a16.317,16.317,0,0,1,.1,2.687c.023,1.655.089,3.938.316,6.45s.573,4.769.848,6.4a16.21,16.21,0,0,1,.381,2.661,11.808,11.808,0,0,1-.748-2.589,50.053,50.053,0,0,1-1.17-12.929,11.769,11.769,0,0,1,.271-2.682" fill="#375a64"/>
        <path id="Trazado_414" data-name="Trazado 414" d="M550.172,302.578c0-.025.2-.049.527.072a2.359,2.359,0,0,1,1.118.939,2.58,2.58,0,0,1,.318,2.162,2.35,2.35,0,0,1-2.178,1.532,2.287,2.287,0,0,1-2.3-1.341,2.4,2.4,0,0,1,.3-2.169,2.1,2.1,0,0,1,1.175-.873c.343-.082.536-.023.534,0a2.488,2.488,0,0,0-1.392,1.072,2.069,2.069,0,0,0-.166,1.786,1.828,1.828,0,0,0,1.825,1,1.892,1.892,0,0,0,1.745-1.167,2.277,2.277,0,0,0-.18-1.811,3.171,3.171,0,0,0-1.324-1.2" fill="#375a64"/>
        <path id="Trazado_415" data-name="Trazado 415" d="M529.412,300.88a2.323,2.323,0,0,1,.369.8,7.236,7.236,0,0,1,.353,2.374,8.527,8.527,0,0,1-.783,3.483,7.8,7.8,0,0,1-6.976,4.693,8.551,8.551,0,0,1-3.522-.589,7.259,7.259,0,0,1-2.065-1.222c-.427-.374-.62-.622-.6-.641a13.054,13.054,0,0,0,2.793,1.513,8.7,8.7,0,0,0,3.368.454,7.547,7.547,0,0,0,6.562-4.414,8.683,8.683,0,0,0,.85-3.29,12.9,12.9,0,0,0-.35-3.158" fill="#375a64"/>
        <path id="Trazado_416" data-name="Trazado 416" d="M569.451,308.871a2.778,2.778,0,0,1-1.593-.225,6.03,6.03,0,0,1-4.025-6.164,2.8,2.8,0,0,1,.434-1.548c.083.023-.076.611-.061,1.56A6.339,6.339,0,0,0,568,308.3c.864.394,1.466.485,1.454.57" fill="#375a64"/>
        <path id="Trazado_417" data-name="Trazado 417" d="M590.441,340.969a1.781,1.781,0,0,1,.258-.139l.772-.377,2.975-1.432c2.577-1.256,6.314-3.062,10.822-5.5a82.863,82.863,0,0,0,14.939-9.942,44.112,44.112,0,0,0,7.145-7.781,17.273,17.273,0,0,0,2.588-10.794,16.969,16.969,0,0,0-1.421-5.527,14.763,14.763,0,0,0-1.385-2.432,19.782,19.782,0,0,0-1.768-2.125,47.336,47.336,0,0,0-4.017-3.621,12.1,12.1,0,0,0-4.379-2.618,16.342,16.342,0,0,0-4.857-.538,24.912,24.912,0,0,0-4.61.511,28.109,28.109,0,0,0-7.781,2.939l-10.62,5.886c-1.244.683-2.216,1.218-2.893,1.591-.322.171-.573.306-.757.406a1.787,1.787,0,0,1-.264.128,1.65,1.65,0,0,1,.247-.159l.739-.437,2.862-1.647c2.495-1.416,6.082-3.5,10.571-5.986a28.237,28.237,0,0,1,7.837-3.005,25.189,25.189,0,0,1,4.663-.533,16.621,16.621,0,0,1,4.955.536,12.382,12.382,0,0,1,4.5,2.67,46.9,46.9,0,0,1,4.052,3.642,19.832,19.832,0,0,1,1.8,2.161,15.04,15.04,0,0,1,1.42,2.487,17.281,17.281,0,0,1,1.452,5.642,17.587,17.587,0,0,1-2.65,11.012,44.214,44.214,0,0,1-7.219,7.835,81.861,81.861,0,0,1-15.033,9.916c-4.529,2.413-8.285,4.184-10.882,5.4l-3,1.374-.787.346a1.693,1.693,0,0,1-.273.106" fill="#375a64"/>
        <path id="Trazado_418" data-name="Trazado 418" d="M530.345,340.26s-36.52,9.623-37.986,10.119c-2.2.745-1.934,8.782,1.48,8.7,1.614-.039,27.943,1.328,31.274,1.161s12.332-3.6,12.332-3.6Z" fill="#ff4f5b"/>
        <path id="Trazado_419" data-name="Trazado 419" d="M515.012,353.96c-.184.022-.405-1.906-1.556-3.928-1.121-2.039-2.647-3.237-2.532-3.382.066-.139,1.86.909,3.064,3.085,1.223,2.163,1.176,4.243,1.024,4.225" fill="#1a2e35"/>
        <path id="Trazado_420" data-name="Trazado 420" d="M518.828,352.286c-.18.028-.526-1.7-1.473-3.609-.925-1.924-2.073-3.259-1.94-3.382a9.126,9.126,0,0,1,3.413,6.991" fill="#1a2e35"/>
        <path id="Trazado_421" data-name="Trazado 421" d="M522.4,351.376c-.184-.013-.021-1.829-.8-3.855-.748-2.04-2.069-3.3-1.939-3.428.074-.138,1.692,1.008,2.51,3.214.84,2.2.379,4.124.233,4.069" fill="#1a2e35"/>
        <path id="Trazado_422" data-name="Trazado 422" d="M521.811,346.668a6.472,6.472,0,0,1-.356-2.714,12.716,12.716,0,0,1,.4-2.963,12.439,12.439,0,0,1,.562-1.682,2.034,2.034,0,0,1,.594-.885.97.97,0,0,1,1.249.077,1.61,1.61,0,0,1,.473,1.035,7.148,7.148,0,0,1,.035.962,8.1,8.1,0,0,1-.246,1.779,10.852,10.852,0,0,1-1.155,2.769,7.339,7.339,0,0,1-1.663,2.171c-.082-.06.539-.9,1.284-2.375a11.979,11.979,0,0,0,.987-2.7,8,8,0,0,0,.2-1.66c-.009-.559.008-1.258-.316-1.531a.353.353,0,0,0-.481-.047,1.536,1.536,0,0,0-.407.631,13.407,13.407,0,0,0-.571,1.6,14.722,14.722,0,0,0-.517,2.836c-.127,1.646.027,2.678-.073,2.692" fill="#1a2e35"/>
        <path id="Trazado_423" data-name="Trazado 423" d="M521.861,346.3a5.106,5.106,0,0,1,2.353-.35,10.569,10.569,0,0,1,2.578.349,5.724,5.724,0,0,1,1.48.565,1.536,1.536,0,0,1,.8,1.674,1.817,1.817,0,0,1-1.327,1.283,3.331,3.331,0,0,1-1.632-.024,6.277,6.277,0,0,1-2.351-1.192,6.425,6.425,0,0,1-1.672-1.687,15.692,15.692,0,0,1,1.923,1.337,6.452,6.452,0,0,0,2.221.993,2.853,2.853,0,0,0,1.35,0,1.232,1.232,0,0,0,.9-.853.941.941,0,0,0-.528-1.023,5.532,5.532,0,0,0-1.315-.531,12.277,12.277,0,0,0-2.447-.459c-1.423-.116-2.317.018-2.332-.08" fill="#1a2e35"/>
        <path id="Trazado_424" data-name="Trazado 424" d="M509.414,354.28c-.18-.022.018-1.576-.677-3.292-.66-1.729-1.863-2.731-1.747-2.871.063-.148,1.573.734,2.315,2.648.761,1.906.255,3.581.109,3.515" fill="#1a2e35"/>
        <path id="Trazado_425" data-name="Trazado 425" d="M534.789,356.275a7.589,7.589,0,0,1-1.416.645,31.345,31.345,0,0,1-4.065,1.2A57.759,57.759,0,0,1,515.4,359.27c-5.453-.128-10.365-.436-13.927-.623l-4.215-.276a7.565,7.565,0,0,1-1.542-.184,7.677,7.677,0,0,1,1.553-.053l4.222.082c3.686.119,8.546.273,13.92.445a65.119,65.119,0,0,0,13.812-.957c3.487-.672,5.53-1.542,5.571-1.429" fill="#1a2e35"/>
        <path id="Trazado_426" data-name="Trazado 426" d="M535.855,357.117c-.05.083-1.039-.511-2.711-1.27a12.677,12.677,0,0,0-6.873-1.229,10.906,10.906,0,0,0-6,3.468,21.513,21.513,0,0,1-2.124,2.116,11.333,11.333,0,0,1,1.811-2.413,14.494,14.494,0,0,1,2.442-2.227,8.656,8.656,0,0,1,3.779-1.547,12.035,12.035,0,0,1,7.149,1.445,9.615,9.615,0,0,1,2.524,1.657" fill="#1a2e35"/>
        <path id="Trazado_427" data-name="Trazado 427" d="M499.324,358.24c-.065-.046.251-.522.549-1.369a6.67,6.67,0,0,0-1.123-6.535c-.564-.7-1.021-1.043-.974-1.108.028-.049.57.2,1.236.875A6.206,6.206,0,0,1,500.2,357c-.4.86-.829,1.273-.873,1.238" fill="#1a2e35"/>
        <path id="Trazado_428" data-name="Trazado 428" d="M528.662,198.42l-18.775,5.262,6.1,58.414s-3.51,20.855-3.51,26.336a10.893,10.893,0,0,0,5.542,9.794L578,300.038l3.066-2.654a8.657,8.657,0,0,0,2-6.691l-11.143-89.132-20.881-4.529Z" fill="#ff4f5b"/>
        <path id="Trazado_429" data-name="Trazado 429" d="M516.061,262.025a2.2,2.2,0,0,1-.111-.442c-.065-.328-.149-.751-.253-1.279-.212-1.154-.505-2.754-.865-4.714-.7-4.021-1.663-9.509-2.723-15.572-1.022-6.072-1.946-11.566-2.624-15.593-.314-1.967-.57-3.574-.755-4.732-.078-.532-.141-.96-.189-1.29a2.332,2.332,0,0,1-.042-.454,2.2,2.2,0,0,1,.112.441c.064.327.148.751.252,1.279.212,1.153.506,2.752.865,4.712.7,4.022,1.663,9.511,2.724,15.577,1.021,6.071,1.946,11.565,2.624,15.591.313,1.968.57,3.575.755,4.733.078.532.14.96.188,1.29a2.217,2.217,0,0,1,.042.453" fill="#1a2e35"/>
        <path id="Trazado_430" data-name="Trazado 430" d="M553.682,198.1a6.5,6.5,0,0,1-.864.686c-.29.205-.666.423-1.095.692-.449.226-.946.526-1.537.763a20.274,20.274,0,0,1-4.261,1.329,31.568,31.568,0,0,1-5.431.564,54.118,54.118,0,0,1-5.453-.169,31.491,31.491,0,0,1-4.42-.578,13.187,13.187,0,0,1-2.854-.953,7.593,7.593,0,0,1-.719-.392c-.158-.1-.238-.156-.232-.167s.358.164,1.007.435a15.025,15.025,0,0,0,2.849.836,34.734,34.734,0,0,0,4.393.5c1.665.11,3.5.187,5.42.142a33.239,33.239,0,0,0,5.379-.533,21.262,21.262,0,0,0,4.225-1.24,25.232,25.232,0,0,0,3.593-1.914" fill="#1a2e35"/>
        <path id="Trazado_431" data-name="Trazado 431" d="M573.076,288.183a1.922,1.922,0,0,1-.41.082l-1.18.17c-.513.074-1.141.154-1.875.218s-1.565.163-2.491.208c-1.848.132-4.056.189-6.507.155-2.449-.057-5.142-.218-7.952-.546-2.809-.345-5.464-.822-7.858-1.346-2.39-.544-4.522-1.121-6.288-1.685-.888-.262-1.675-.552-2.372-.789s-1.289-.461-1.769-.654l-1.108-.444a1.8,1.8,0,0,1-.377-.177,2.007,2.007,0,0,1,.4.112l1.128.382c.487.172,1.085.379,1.786.6s1.491.492,2.383.739c1.767.532,3.9,1.082,6.283,1.607,2.389.5,5.033.971,7.831,1.312s5.477.5,7.918.572c2.44.051,4.641.02,6.485-.08.924-.029,1.756-.108,2.489-.157s1.362-.1,1.876-.158l1.187-.1a1.75,1.75,0,0,1,.418-.013" fill="#1a2e35"/>
        <path id="Trazado_432" data-name="Trazado 432" d="M580.032,238.1a4.061,4.061,0,0,1-.285-.812c-.163-.529-.383-1.3-.643-2.251-.519-1.908-1.187-4.556-1.843-7.5s-1.173-5.628-1.511-7.576c-.17-.974-.3-1.763-.374-2.311a3.992,3.992,0,0,1-.085-.857,4.176,4.176,0,0,1,.219.832c.127.61.29,1.376.481,2.289.4,1.935.956,4.6,1.61,7.546s1.284,5.594,1.742,7.516c.213.908.392,1.671.535,2.277a4.105,4.105,0,0,1,.154.847" fill="#1a2e35"/>
        <g id="Grupo_111" data-name="Grupo 111" opacity="0.3">
          <g id="Grupo_110" data-name="Grupo 110">
            <g id="Grupo_109" data-name="Grupo 109" clip-path="url(#clip-path-4)">
              <path id="Trazado_433" data-name="Trazado 433" d="M535.215,201.073c.751,2.61.053,6.415.421,8.752a124.722,124.722,0,0,1,1.505,28.309,3.8,3.8,0,0,0,.1,1.534,4.639,4.639,0,0,0,.761,1.185,12.435,12.435,0,0,1,2.007,9,36.9,36.9,0,0,1-2.718,9.021c-.066-2.523.068-6.293.266-8.81.04-.5.3-.179.31-.682.086-3.025-.42-5.831-2.544-7.987a6.464,6.464,0,0,1-1.2-1.354,4.52,4.52,0,0,1-.409-1.614q-1.955-15.843-2.669-31.8a2.543,2.543,0,0,1,.344-1.736,4.617,4.617,0,0,1,1.17-.8c.813-.536,1.321-1.484,2.2-1.9"/>
            </g>
          </g>
        </g>
        <path id="Trazado_434" data-name="Trazado 434" d="M509.887,203.682s-17.143,4.04-12.985,29.733A158.864,158.864,0,0,0,507.13,269.9c2.808,6.611,9.173,11.161,16.295,10.228,3.111-.407,6.193.087,8.277-1.17,3.163-1.907,4.539-8.335,5.136-15.271.406-4.723.236-9.646.861-13.678,1.023-6.583-2-9.684-5.863-10.455l-15.152-3.02-.872,8.015Z" fill="#ff4f5b"/>
        <path id="Trazado_435" data-name="Trazado 435" d="M521.96,254.818c.043-.033.286.31.874.749a6.059,6.059,0,0,0,2.83,1.124,9.437,9.437,0,0,0,4.485-.64,14.28,14.28,0,0,0,4.845-2.791,8.548,8.548,0,0,0,2.516-4.845,8.371,8.371,0,0,0-.538-4.471,11.739,11.739,0,0,0-2.411-3.484,2.97,2.97,0,0,1,.946.7,8.275,8.275,0,0,1,1.857,2.618,8.516,8.516,0,0,1,.7,4.722,8.926,8.926,0,0,1-2.651,5.2,14.294,14.294,0,0,1-5.075,2.879,9.514,9.514,0,0,1-4.739.536,5.816,5.816,0,0,1-2.913-1.365,2.289,2.289,0,0,1-.724-.931" fill="#1a2e35"/>
        <path id="Trazado_436" data-name="Trazado 436" d="M506.21,267.645c.054-.02.322.809,1.026,2.2a19.645,19.645,0,0,0,3.9,5.245,18.487,18.487,0,0,0,8.39,4.639,18.775,18.775,0,0,0,11.61-.812c1.94-.787,2.641-2.944,3.384-4.743a31.368,31.368,0,0,0,1.446-5.559c.616-3.628.76-6.963.968-9.752.2-2.726.363-4.963.484-6.611.065-.724.119-1.318.163-1.8a2.414,2.414,0,0,1,.1-.624,2.542,2.542,0,0,1,.023.63c-.013.481-.029,1.077-.049,1.8-.073,1.652-.172,3.893-.293,6.623a88.8,88.8,0,0,1-.844,9.82,31.3,31.3,0,0,1-1.439,5.671,20.587,20.587,0,0,1-1.278,2.847,5.115,5.115,0,0,1-2.407,2.238,19.092,19.092,0,0,1-12,.806,18.85,18.85,0,0,1-12.371-10.322,13.439,13.439,0,0,1-.659-1.687,2.467,2.467,0,0,1-.155-.612" fill="#1a2e35"/>
        <path id="Trazado_437" data-name="Trazado 437" d="M511.921,256.5a15.736,15.736,0,0,1,.038-3.088c.1-1.9.281-4.523.518-7.418.126-1.45.223-2.817.375-4.087a6.408,6.408,0,0,1,1.168-3.224,3.436,3.436,0,0,1,1.943-1.268,1.235,1.235,0,0,1,.849.027c0,.055-.3.03-.788.2a3.5,3.5,0,0,0-1.664,1.3c-1.124,1.486-.989,4.233-1.28,7.1-.236,2.894-.485,5.511-.694,7.4a15.636,15.636,0,0,1-.465,3.053" fill="#1a2e35"/>
        <path id="Trazado_438" data-name="Trazado 438" d="M517.272,229.21c-.153-.814-.394-1.989-.7-3.437-.619-2.9-1.515-6.887-2.541-11.289A63.588,63.588,0,0,0,512.4,208.3a14.31,14.31,0,0,0-2.512-4.619l-.332.269a14.7,14.7,0,0,1,2.317,4.53c.614,1.834,1.045,3.941,1.566,6.141,1.026,4.4,1.988,8.377,2.714,11.248.363,1.436.667,2.6.891,3.394a5.257,5.257,0,0,0,.406,1.224,5.322,5.322,0,0,0-.177-1.278" fill="#1a2e35"/>
        <g id="Grupo_114" data-name="Grupo 114" opacity="0.3">
          <g id="Grupo_113" data-name="Grupo 113">
            <g id="Grupo_112" data-name="Grupo 112" clip-path="url(#clip-path-5)">
              <path id="Trazado_439" data-name="Trazado 439" d="M517.43,234.737a6.7,6.7,0,0,0-3.857,1.3,12.827,12.827,0,0,0-5.1,7.224,14.979,14.979,0,0,0,.4,8.888c.312.885.917,1.888,1.856,1.851,1.1-.044,1.548-1.42,1.7-2.513q.634-4.542,1.27-9.084a8.449,8.449,0,0,1,.8-2.994,2.863,2.863,0,0,1,2.5-1.587l.282-3.234"/>
            </g>
          </g>
        </g>
        <path id="Trazado_440" data-name="Trazado 440" d="M619.459,248.557A25.415,25.415,0,0,0,623,236.665a39.725,39.725,0,0,0-1.682-13.072l-18.212-5.644-.115,6.08Z" fill="#ff4f5b"/>
        <path id="Trazado_441" data-name="Trazado 441" d="M602.992,224.028l-31.065-22.467v1.556l3.355,34.977s25.682,11.505,32.484,13.2a13.552,13.552,0,0,0,11.693-2.737Z" fill="#ff4f5b"/>
        <path id="Trazado_442" data-name="Trazado 442" d="M612.2,241.016a2.47,2.47,0,0,1-.705-.372,12.371,12.371,0,0,1-1.709-1.333,19.13,19.13,0,0,1-4.148-5.794,37.624,37.624,0,0,1-2.369-6.718c-.23-.88-.4-1.6-.506-2.094a2.7,2.7,0,0,1-.12-.784,21.372,21.372,0,0,1,.93,2.791,48.433,48.433,0,0,0,2.467,6.611,21.073,21.073,0,0,0,3.966,5.76c1.271,1.276,2.238,1.866,2.194,1.933" fill="#1a2e35"/>
        <path id="Trazado_443" data-name="Trazado 443" d="M621.226,227.995a2.791,2.791,0,0,1-.8.011,18.673,18.673,0,0,1-2.177-.238,26.623,26.623,0,0,1-12.981-6.032,18.489,18.489,0,0,1-1.586-1.511c-.35-.379-.533-.6-.511-.622.055-.053.863.751,2.3,1.889a30.268,30.268,0,0,0,12.837,5.965c1.795.363,2.932.462,2.925.538" fill="#1a2e35"/>
        <path id="Trazado_444" data-name="Trazado 444" d="M604.361,238.1a6.463,6.463,0,0,1-.966-1.927,18.606,18.606,0,0,1-1.034-5.1,36.641,36.641,0,0,1,.041-5.188,9.665,9.665,0,0,1,.268-2.131,10.88,10.88,0,0,1,.048,2.145c-.013,1.319-.05,3.142.09,5.141a22.885,22.885,0,0,0,.887,5.029c.383,1.253.734,1.993.666,2.027" fill="#1a2e35"/>
        <path id="Trazado_445" data-name="Trazado 445" d="M571.46,214.993a4.364,4.364,0,0,1,.323.951c.18.62.422,1.522.708,2.639.572,2.233,1.3,5.335,2.025,8.779s1.294,6.58,1.666,8.856c.186,1.137.326,2.06.409,2.7a4.278,4.278,0,0,1,.085,1,4.384,4.384,0,0,1-.257-.971q-.222-1.087-.549-2.674c-.478-2.357-1.1-5.426-1.793-8.82-.728-3.386-1.388-6.447-1.894-8.8-.225-1.054-.415-1.946-.57-2.669a4.339,4.339,0,0,1-.153-.993" fill="#1a2e35"/>
        <path id="Trazado_446" data-name="Trazado 446" d="M516.494,239.7l3.806-42.119,12.616,4.98,1.623,42.842s-4.037,6.109-10.857,3.6a11.063,11.063,0,0,1-7.188-9.306" fill="#b66955"/>
        <path id="Trazado_447" data-name="Trazado 447" d="M518.948,160.691l23.586,20.746-4.271,15.49-1.711.507-20.62-21.1,1.3-15.131Z" fill="#1a2e35"/>
        <path id="Trazado_448" data-name="Trazado 448" d="M517.237,161.2l23.586,20.746-4.27,15.489-22.332-20.6Z" fill="#375a64"/>
        <path id="Trazado_449" data-name="Trazado 449" d="M533.448,203.91a9.19,9.19,0,0,0,2.369-5.8c-.054-3.175-.93-10.814-.93-10.814s4.1-8.625,3.995-9.772-.291-1.13-1.763-.667-6.037,8.325-6.037,8.325l-1.492-5.831s3.8-6.121,4.1-6.974.806-1.559-.147-1.638-8.085,6.838-8.085,6.838l.575,6.388s-.143.508-1.169-.39-.768-8.518-.768-8.518,2.431-4.512,2.373-5.167.445-1.361-.034-2.474-1.878.169-1.878.169l-4.735,6.206-1.687-6.141s.07-1.309-1.633-1.321l.659,19.921,4.315,15.328Z" fill="#b66955"/>
        <path id="Trazado_450" data-name="Trazado 450" d="M534.539,245.4s-.035-.255-.066-.75l-.117-2.194c-.087-1.957-.213-4.777-.372-8.363-.288-7.255-.7-17.609-1.2-30.138l-.005-.121.1-.088a8.249,8.249,0,0,0,2.281-3.225,9.42,9.42,0,0,0,.476-4.145c-.149-2.916-.511-5.952-.917-9.052l-.011-.083.036-.076c.77-1.642,1.542-3.331,2.292-5.064.373-.867.745-1.745,1.087-2.638.167-.447.332-.9.462-1.347l.085-.332c.011-.1.024-.17.026-.278a2,2,0,0,0-.117-.6c.045-.139-.6,0-1.022.148a1.32,1.32,0,0,0-.557.283,4.074,4.074,0,0,0-.5.486,22.986,22.986,0,0,0-1.8,2.348c-1.134,1.649-2.206,3.385-3.247,5.153l-.37.629-.182-.706c-.473-1.847-.981-3.83-1.494-5.83l-.032-.124.068-.111,1.926-3.15c.734-1.241,1.54-2.518,2.133-3.736.123-.343.292-.7.374-.984.045-.157.018-.225.015-.212a.447.447,0,0,0-.286-.054,1.9,1.9,0,0,0-.343.171c-.14.078-.284.191-.425.285-.282.2-.563.417-.836.64-2.187,1.795-4.234,3.735-6.227,5.638l.089-.239q.289,3.241.571,6.387l.005.061-.015.046a.531.531,0,0,1-.566.353,1.128,1.128,0,0,1-.414-.13,3.078,3.078,0,0,1-.579-.4,2.341,2.341,0,0,1-.615-1.3,17.457,17.457,0,0,1-.286-2.55c-.089-1.683-.086-3.333-.039-4.966l0-.064.032-.06a42.8,42.8,0,0,0,2.285-4.75,1.38,1.38,0,0,0,.056-.237c.007-.07-.007-.248.011-.355.027-.244.079-.457.116-.661a2.267,2.267,0,0,0-.041-1.148c-.129-.418-.258-.589-.579-.531a2.325,2.325,0,0,0-.96.539l.032-.034q-2.477,3.228-4.748,6.2l-.308.4-.133-.487q-.867-3.189-1.672-6.145l-.008-.031v-.043a1.019,1.019,0,0,0-.431-.83,1.763,1.763,0,0,0-.969-.252l.229-.234c.235,8.1.429,14.825.577,19.923l0-.032c.944,3.661,1.676,6.493,2.179,8.444.233.939.414,1.663.544,2.184.117.491.158.747.158.747s-.092-.242-.234-.728c-.147-.515-.351-1.234-.616-2.164l-2.313-8.408,0-.016v-.017c-.19-5.1-.44-11.817-.74-19.918l-.009-.238.237,0a2.2,2.2,0,0,1,1.227.327,1.468,1.468,0,0,1,.637,1.235l-.007-.075q.817,2.952,1.7,6.136l-.44-.085,4.723-6.214.017-.023.015-.013a2.773,2.773,0,0,1,1.227-.674.929.929,0,0,1,.823.222,1.553,1.553,0,0,1,.365.677,2.835,2.835,0,0,1,.06,1.4c-.039.222-.089.431-.108.62-.012.108,0,.148-.008.294a1.489,1.489,0,0,1-.078.4,42.214,42.214,0,0,1-2.314,4.858l.033-.124c-.042,1.613-.041,3.26.05,4.914a17.171,17.171,0,0,0,.279,2.461,1.891,1.891,0,0,0,.423.976,2.576,2.576,0,0,0,.469.33.666.666,0,0,0,.192.067h.016a.257.257,0,0,0,.018.062l.01.015.007.005.019.01.036.016.008,0a1.574,1.574,0,0,0-.15-.054l0,.015-.01.1q-.285-3.147-.58-6.388l-.012-.142.1-.1c2-1.917,4.042-3.854,6.263-5.681.279-.227.566-.448.865-.663.156-.1.295-.214.467-.311a1.6,1.6,0,0,1,.636-.256.954.954,0,0,1,.719.223.787.787,0,0,1,.15.8c-.119.4-.273.7-.392,1.04-.667,1.383-1.432,2.563-2.181,3.839l-1.93,3.156.036-.235c.512,2,1.018,3.985,1.491,5.831l-.552-.076c1.052-1.782,2.127-3.519,3.278-5.189a23.468,23.468,0,0,1,1.854-2.411,4.644,4.644,0,0,1,.57-.547,1.993,1.993,0,0,1,.75-.384,7.366,7.366,0,0,1,.747-.2,1.363,1.363,0,0,1,.466-.021.68.68,0,0,1,.5.354,2.331,2.331,0,0,1,.185.826,2.6,2.6,0,0,1-.036.448l-.095.375c-.141.484-.31.942-.482,1.4-.349.907-.725,1.788-1.1,2.66-.758,1.74-1.534,3.428-2.313,5.076l.025-.159c.4,3.118.753,6.15.9,9.1a9.962,9.962,0,0,1-.529,4.36,8.717,8.717,0,0,1-2.458,3.432l.1-.208c.409,12.533.747,22.889.983,30.147.1,3.588.18,6.41.235,8.368q.026,1.407.042,2.2c.005.5-.012.753-.012.753" fill="#8e3823"/>
        <path id="Trazado_451" data-name="Trazado 451" d="M520.809,184.6c-.166.019-.494-2.42-.732-5.445s-.3-5.487-.129-5.494a25.249,25.249,0,0,1,.732,5.446,25.261,25.261,0,0,1,.129,5.493" fill="#8e3823"/>
        <path id="Trazado_452" data-name="Trazado 452" d="M488.9,191.662l-13.469-27.227a100.057,100.057,0,1,0-20.6,29.338l-.029.049Z" fill="#fafafa"/>
        <path id="Trazado_453" data-name="Trazado 453" d="M488.9,191.662l-34.09,2.258-.184.012.093-.16.029-.048.154.12a104.206,104.206,0,0,1-7.842,6.973c-1.427,1.2-3,2.3-4.581,3.485-1.631,1.111-3.286,2.286-5.07,3.361a98.8,98.8,0,0,1-25,11.147,100.877,100.877,0,0,1-31.719,3.866,99.427,99.427,0,0,1-35.146-7.885,100.79,100.79,0,0,1-32.666-22.377,99.341,99.341,0,0,1-22.527-36.23,100.347,100.347,0,0,1-5.118-44.957c.163-1.945.541-3.867.828-5.806.322-1.934.774-3.851,1.173-5.78a101.392,101.392,0,0,1,21.916-42.648l2.07-2.281,1.036-1.137,1.085-1.086,2.166-2.17,2.258-2.062A98.135,98.135,0,0,1,337.5,34.4c1.733-.985,3.549-1.793,5.331-2.658,1.788-.848,3.634-1.553,5.443-2.327,1.857-.649,3.681-1.382,5.55-1.955,1.874-.555,3.72-1.191,5.615-1.621a102.549,102.549,0,0,1,22.7-3.207,100.08,100.08,0,0,1,95.191,62.282,103.931,103.931,0,0,1,4.988,15.96q.393,1.983.778,3.931c.273,1.3.4,2.605.609,3.887q.14.964.279,1.919.1.961.2,1.911c.146,1.267.24,2.525.314,3.772a99.736,99.736,0,0,1-5.14,38.6c-1.2,3.479-2.518,6.667-3.842,9.579v-.081L488.9,191.662c-.3-.592-4.771-9.571-13.552-27.186l-.019-.039.018-.041c1.313-2.91,2.615-6.094,3.808-9.569a99.7,99.7,0,0,0,5.051-38.511c-.075-1.244-.171-2.5-.319-3.76q-.1-.948-.2-1.9-.141-.953-.281-1.914c-.207-1.278-.339-2.582-.612-3.874q-.387-1.941-.782-3.918a103.676,103.676,0,0,0-4.993-15.9,98.645,98.645,0,0,0-19.647-30.573,99.679,99.679,0,0,0-75.219-31.408,102.214,102.214,0,0,0-22.606,3.2c-1.887.428-3.723,1.063-5.589,1.616-1.862.57-3.676,1.3-5.525,1.947-1.8.772-3.638,1.474-5.42,2.318-1.772.862-3.581,1.666-5.3,2.648a97.67,97.67,0,0,0-19.642,13.8l-2.248,2.053-2.156,2.16-1.08,1.082-1.032,1.131-2.06,2.271a100.8,100.8,0,0,0-21.82,42.457c-.4,1.922-.848,3.829-1.17,5.754-.286,1.932-.662,3.845-.825,5.781A99.719,99.719,0,0,0,412.327,218.523a98.68,98.68,0,0,0,24.95-11.072c1.781-1.069,3.435-2.238,5.065-3.343,1.577-1.177,3.152-2.272,4.579-3.466a104.449,104.449,0,0,0,7.842-6.938l.517-.493-.362.612-.03.049-.091-.148,34.1-2.062" fill="#1a2e35"/>
        <path id="Trazado_454" data-name="Trazado 454" d="M333.306,208.631l102.95-.167s-24.611,16.311-54.174,14.386c-25.688-1.673-48.776-14.219-48.776-14.219" fill="#375a64"/>
        <path id="Trazado_455" data-name="Trazado 455" d="M378.383,139.566l5.872,21.479L405.7,132.084l-5.049,75.941H370.032l-8.928.43s1.323-11.97,1.868-18.728a75.463,75.463,0,0,1,2.721-15.911c4.567-14.91,12.69-34.25,12.69-34.25" fill="#fafafa"/>
        <path id="Trazado_456" data-name="Trazado 456" d="M385.3,173.173c.075.1-3.384,2.886-7.725,6.227s-7.922,5.969-8,5.872,3.383-2.886,7.726-6.228,7.923-5.969,8-5.871" fill="#1a2e35"/>
        <path id="Trazado_457" data-name="Trazado 457" d="M438.6,129.095l-16.677-8.023-6.54-7.775-9.253,9.618-24.531,84.9H423.67l5.395-14.566,9.538-56.258Z" fill="#ff4f5b"/>
        <path id="Trazado_458" data-name="Trazado 458" d="M363.554,209.048l-1.127-18.02,50.82-8.609s8.683-41.936,14.031-48.809c4.936-6.34,11.372-4.141,11.372-4.141s5.8,3.973,4.413,19.182c-.727,7.964-3.639,35.58-4.695,45.556a15.926,15.926,0,0,1-15.837,14.247Z" fill="#ff4f5b"/>
        <path id="Trazado_459" data-name="Trazado 459" d="M421.546,192.888c-.074.008-.146-.8-.516-2.032a12.052,12.052,0,0,0-6.266-7.433c-1.154-.572-1.937-.778-1.917-.85a5.409,5.409,0,0,1,2.05.563,11.117,11.117,0,0,1,6.439,7.637,5.407,5.407,0,0,1,.21,2.115" fill="#1a2e35"/>
        <g id="Grupo_117" data-name="Grupo 117" opacity="0.2">
          <g id="Grupo_116" data-name="Grupo 116">
            <g id="Grupo_115" data-name="Grupo 115" clip-path="url(#clip-path-6)">
              <path id="Trazado_460" data-name="Trazado 460" d="M420.619,122.295a79.433,79.433,0,0,1-3.029,15.655l-3.824-1.122a9.946,9.946,0,0,1,1.142,7.9,29.492,29.492,0,0,1-3.3,7.5q-9.484,17.035-18.967,34.072l19.12-43.411-.5-8.026,3.681-.786Z"/>
            </g>
          </g>
        </g>
        <g id="Grupo_120" data-name="Grupo 120" opacity="0.2">
          <g id="Grupo_119" data-name="Grupo 119">
            <g id="Grupo_118" data-name="Grupo 118" clip-path="url(#clip-path-7)">
              <path id="Trazado_461" data-name="Trazado 461" d="M413.081,181.916a10.139,10.139,0,0,1,10.394,7.523,2.623,2.623,0,0,1,.03,1.633,1.083,1.083,0,0,1-1.327.678,1.717,1.717,0,0,1-.744-.984,15.422,15.422,0,0,0-8.834-8.232"/>
            </g>
          </g>
        </g>
        <path id="Trazado_462" data-name="Trazado 462" d="M392.779,185.887a4.468,4.468,0,0,1,.258-.7l.82-1.963c.747-1.737,1.8-4.181,3.093-7.184l10.36-23.633c1.481-3.346,2.91-6.578,4.252-9.611l-.017.1c-.169-2.852-.329-5.541-.476-8.026l-.01-.167.161-.033,3.685-.771-.122.1c1.907-3.858,3.474-7.026,4.583-9.271l1.284-2.537c.141-.266.255-.483.348-.657a.869.869,0,0,1,.135-.217,1.022,1.022,0,0,1-.087.24c-.081.181-.18.4-.3.679-.292.629-.693,1.492-1.2,2.579-1.078,2.261-2.6,5.452-4.446,9.339l-.037.077-.085.018-3.678.8.152-.2c.161,2.483.335,5.173.519,8.023l0,.052-.021.049-4.236,9.618c-4.085,9.191-7.782,17.511-10.479,23.58-1.348,2.98-2.444,5.4-3.224,7.126l-.9,1.929a4.669,4.669,0,0,1-.34.66" fill="#1a2e35"/>
        <path id="Trazado_463" data-name="Trazado 463" d="M363.517,208.454a1.52,1.52,0,0,1-.041-.3c-.02-.222-.045-.513-.076-.881-.059-.8-.143-1.939-.248-3.388-.2-2.973-.478-7.224-.823-12.463l-.01-.144.141-.026,36.763-6.753,13.555-2.46-.17.159,7.416-28.174,2.2-8.2q.389-1.4.607-2.19c.068-.231.123-.416.166-.564a.806.806,0,0,1,.069-.187.731.731,0,0,1-.031.2c-.035.15-.077.339-.13.573q-.193.795-.537,2.208c-.493,1.95-1.2,4.742-2.078,8.23-1.811,7.037-4.344,16.876-7.263,28.213l-.034.133-.136.025L399.3,184.94l-36.785,6.632.133-.169c.285,5.243.516,9.5.678,12.472.069,1.451.124,2.589.162,3.393.012.369.022.661.03.884a1.447,1.447,0,0,1-.006.3" fill="#1a2e35"/>
        <path id="Trazado_464" data-name="Trazado 464" d="M436.042,127.688c.013.08-.851.208-2.149.691a13.751,13.751,0,0,0-7.675,7.189c-.567,1.265-.751,2.118-.83,2.1-.031-.006-.006-.222.065-.613a8.744,8.744,0,0,1,.473-1.608,12.651,12.651,0,0,1,7.863-7.365,8.837,8.837,0,0,1,1.637-.369c.394-.045.611-.055.616-.024" fill="#1a2e35"/>
        <path id="Trazado_465" data-name="Trazado 465" d="M339.965,108.583c1.506-2.775.839-13.986,3.16-13.59,2.96.506.226,12.288.039,13.361-.18,1.043,1.366,1.339,1.482.363.167-1.4,1.893-15.113,4.807-14.342,1.616.428.873,3.377.873,3.377s-2.507,13.289-1.117,13.606c1.41.325,2.45-7.344,3.07-10.131.6-2.673,2.334-3.822,3-2.413.968,2.066-.891,8.757-1.444,11.444s-1.939,10.458,1.83,7.421,7.786-3.991,9.036-3.5.978,2.406-.471,2.787a18.045,18.045,0,0,0-4.3,2.306,17.245,17.245,0,0,0-2.851,2.679,15.079,15.079,0,0,0-2.7,4.2,9.38,9.38,0,0,1-5.73,5.128l-2.2,10.472-14.253-3.055,3.179-11.079c1.156-7.275.517-17.058.527-21.508.016-7.1.941-7.149,1.757-6.961,1.8.414.838,12.15,2.308,9.441" fill="#ffd2bd"/>
        <path id="Trazado_466" data-name="Trazado 466" d="M339.566,118.108a15.767,15.767,0,0,1,1.895.884,7.827,7.827,0,0,1,3.645,5.3l.047.243.2-.119a11.8,11.8,0,0,1,3.692-1.4c.974-.19,1.575-.21,1.574-.261a4.77,4.77,0,0,0-1.61.039,10.617,10.617,0,0,0-3.823,1.314l.25.123a7.907,7.907,0,0,0-.442-1.576,8.023,8.023,0,0,0-1.566-2.446,7.627,7.627,0,0,0-1.85-1.438,6.447,6.447,0,0,0-1.451-.583,1.724,1.724,0,0,0-.563-.081" fill="#e09074"/>
        <path id="Trazado_467" data-name="Trazado 467" d="M337.669,128.076a12.547,12.547,0,0,0,6.977,2.174c.01-.1-1.625-.292-3.548-.9s-3.378-1.368-3.429-1.276" fill="#e09074"/>
        <path id="Trazado_468" data-name="Trazado 468" d="M389.272,117.763l-7.67,14.146,9.6,5.758,15.146-3.73,8.952-18.048Z" fill="#ffd2bd"/>
        <path id="Trazado_469" data-name="Trazado 469" d="M379.02,119.809s-15.478,5.5-15.478,6.524v.007c-2.732,2.146-11.836,24.154-14.733,28.316l-8.279,12.2h0l6.944-27.1L332.2,135.254s-13.047,31.529-14.632,38.541a25.769,25.769,0,0,0,.246,12.577l.084-.072a14.511,14.511,0,0,0,5.724,7.7c6.478,4.154,12.525,4.935,18.715.363,3.508-2.593,7.513-5.717,11.182-8.64l.962,22.76h8.438c0-1.278-.256-16.874-.256-16.874a88.13,88.13,0,0,0,2.556-11.249c.767-5.369,13.336-40.6,13.336-40.6l9.758-18.789.228-6.952Z" fill="#ff4f5b"/>
        <path id="Trazado_470" data-name="Trazado 470" d="M354.309,208.287a4.476,4.476,0,0,1-.073-.709q-.047-.756-.126-2.041c-.094-1.817-.226-4.381-.389-7.548-.289-6.431-.689-15.3-1.137-25.232v-.027l.006-.029c.182-.939.375-1.942.571-2.955,2.045-10.44,3.9-19.889,5.246-26.775.686-3.392,1.245-6.15,1.639-8.1q.3-1.388.469-2.2c.053-.229.1-.415.133-.57a.789.789,0,0,1,.059-.191.645.645,0,0,1-.014.2c-.025.158-.054.347-.09.579q-.143.816-.386,2.216c-.361,1.96-.872,4.729-1.5,8.132-1.316,6.894-3.123,16.352-5.118,26.8-.2,1.012-.391,2.015-.572,2.956l.005-.056c.391,9.937.741,18.806.995,25.239.1,3.169.189,5.736.25,7.554q.029,1.289.046,2.044a4.375,4.375,0,0,1-.013.713" fill="#1a2e35"/>
        <path id="Trazado_471" data-name="Trazado 471" d="M362.961,188.085a4.24,4.24,0,0,1,.077-.714q.114-.756.309-2.031c.294-1.806.707-4.342,1.215-7.458,1.075-6.329,2.548-15,4.176-24.578,1.094-6.27,2.119-12.151,2.993-17.157l0-.024.009-.021c2.146-4.865,3.94-8.935,5.218-11.833.629-1.394,1.13-2.5,1.492-3.307.166-.354.3-.639.407-.865a1.236,1.236,0,0,1,.159-.288,1.4,1.4,0,0,1-.1.312c-.092.233-.209.526-.352.889-.339.813-.807,1.938-1.394,3.349l-5.07,11.9.013-.044c-.856,5.01-1.862,10.894-2.934,17.167-1.678,9.57-3.2,18.232-4.306,24.556-.567,3.1-1.028,5.634-1.356,7.433q-.244,1.268-.391,2.018a4.415,4.415,0,0,1-.166.7" fill="#1a2e35"/>
        <path id="Trazado_472" data-name="Trazado 472" d="M333.306,185.558c-.06-.043.6-.991,1.531-2.6a47.389,47.389,0,0,0,3.1-6.565,55.58,55.58,0,0,0,2.131-6.949c.429-1.813.629-2.952.7-2.942a2.877,2.877,0,0,1-.044.816c-.053.521-.168,1.271-.346,2.193a42.646,42.646,0,0,1-2.021,7.042,37.708,37.708,0,0,1-3.252,6.568,22.036,22.036,0,0,1-1.264,1.828c-.323.413-.513.633-.538.614" fill="#1a2e35"/>
        <g id="Grupo_123" data-name="Grupo 123" opacity="0.2">
          <g id="Grupo_122" data-name="Grupo 122">
            <g id="Grupo_121" data-name="Grupo 121" clip-path="url(#clip-path-8)">
              <path id="Trazado_473" data-name="Trazado 473" d="M334.473,184.3a.945.945,0,0,0-.653,1.329,1.413,1.413,0,0,0,1.477.678,2.95,2.95,0,0,0,1.505-.821,10.3,10.3,0,0,0,2.629-4.59c1.308-4.142,1.37-8.559,1.422-12.9a52.855,52.855,0,0,1-6.342,16.061"/>
            </g>
          </g>
        </g>
        <g id="Grupo_126" data-name="Grupo 126" opacity="0.2">
          <g id="Grupo_125" data-name="Grupo 125">
            <g id="Grupo_124" data-name="Grupo 124" clip-path="url(#clip-path-9)">
              <path id="Trazado_474" data-name="Trazado 474" d="M353.271,186.322a22.83,22.83,0,0,1-3.121-13.931c.463-6.616,3.679-12.666,6.078-18.847-1.381,6.5-2.168,12.953-3.421,19.2,0,0,.669,9.289.685,13.414"/>
            </g>
          </g>
        </g>
        <g id="Grupo_129" data-name="Grupo 129" opacity="0.2">
          <g id="Grupo_128" data-name="Grupo 128">
            <g id="Grupo_127" data-name="Grupo 127" clip-path="url(#clip-path-10)">
              <path id="Trazado_475" data-name="Trazado 475" d="M363.945,182.176c.672-9.9,1.346-19.824,3.1-29.592a94.492,94.492,0,0,1,9.967-28.565c-1.246,3.923-5.086,12.161-5.086,12.161s-5.551,29.244-7.956,43.975"/>
            </g>
          </g>
        </g>
        <path id="Trazado_476" data-name="Trazado 476" d="M362.7,193.559l1.386,15.352-7.249-.028c-.193,0-3.153-.049-6.415-.1a45.221,45.221,0,0,1-7.36.2c-.2-.021-.326-.048-.341-.077a5.849,5.849,0,0,1-1.118-.271h-.032l0-.01c-.656-.24-1.33-.663-1.226-1.383.318-2.2,1.625-2.379,1.625-2.379l.658-.045.052-.191c-1,0-1.832-.026-2.275-.073-.2-.021-.326-.047-.342-.076,0,0-2.57-.3-2.374-1.665.319-2.2,1.627-2.378,1.627-2.378s.888-.063,2.115-.142c-1.028,0-1.9-.023-2.352-.071-.2-.021-.325-.048-.341-.077,0,0-2.57-.305-2.374-1.664.318-2.2,1.626-2.379,1.626-2.379s.717-.051,1.751-.118c-.832-.005-1.52-.03-1.907-.071-.205-.022-.326-.047-.342-.076,0,0-2.569-.306-2.373-1.666.317-2.2,1.626-2.377,1.626-2.377s4.045-.289,6.821-.4c0,0,3.15-2.841,4.391-2.71,1.853.2,12.635,4.176,12.635,4.176Z" fill="#ffd2bd"/>
        <path id="Trazado_477" data-name="Trazado 477" d="M349.094,204.4a14.469,14.469,0,0,1-3.594.347,13.759,13.759,0,0,1-3.555-.116,14.563,14.563,0,0,1,3.593-.345,13.822,13.822,0,0,1,3.556.114" fill="#e09074"/>
        <path id="Trazado_478" data-name="Trazado 478" d="M349.117,200.052a56.7,56.7,0,0,1-10.234.363,56.465,56.465,0,0,1,10.234-.363" fill="#e09074"/>
        <g id="Grupo_132" data-name="Grupo 132" opacity="0.78">
          <g id="Grupo_131" data-name="Grupo 131">
            <g id="Grupo_130" data-name="Grupo 130" clip-path="url(#clip-path-11)">
              <path id="Trazado_479" data-name="Trazado 479" d="M348.751,195.629a56.455,56.455,0,0,1-10.234.363,56.463,56.463,0,0,1,10.234-.363" fill="#e09074"/>
            </g>
          </g>
        </g>
        <path id="Trazado_480" data-name="Trazado 480" d="M342.408,191.471a7.3,7.3,0,0,0,1.628.129l3.928.128,3.925.14a7.277,7.277,0,0,0,1.634-.016,6.686,6.686,0,0,0-1.615-.25c-1-.1-2.395-.2-3.933-.252s-2.93-.05-3.938-.018a6.726,6.726,0,0,0-1.629.139" fill="#e09074"/>
        <path id="Trazado_481" data-name="Trazado 481" d="M422.424,66.414c1.82-4.43,7.587-6.446,12.085-4.8s7.5,6.264,8.042,11.024a9.9,9.9,0,0,1-1.373,6.773,9.151,9.151,0,0,1-6.3,3.541A12.545,12.545,0,0,1,421.619,65.56" fill="#1a2e35"/>
        <path id="Trazado_482" data-name="Trazado 482" d="M440.728,67c.023.017-.085.229-.324.588A10.639,10.639,0,0,1,439.248,69a12.835,12.835,0,0,1-11.037,3.789,10.671,10.671,0,0,1-1.779-.4,1.822,1.822,0,0,1-.616-.265c.021-.074.928.213,2.432.354a13.7,13.7,0,0,0,10.778-3.7c1.1-1.035,1.64-1.818,1.7-1.773" fill="#375a64"/>
        <path id="Trazado_483" data-name="Trazado 483" d="M442.64,72.056c.02.024-.156.188-.492.466a15.961,15.961,0,0,1-1.494,1.077,17,17,0,0,1-5.606,2.354,13.9,13.9,0,0,1-3.36.267,12.445,12.445,0,0,1-2.714-.448,10.214,10.214,0,0,1-1.73-.647c-.393-.191-.6-.309-.588-.338.033-.077.908.328,2.4.678a13.961,13.961,0,0,0,2.652.343,14.9,14.9,0,0,0,3.253-.293,19.277,19.277,0,0,0,5.533-2.187c1.329-.769,2.105-1.333,2.15-1.272" fill="#375a64"/>
        <path id="Trazado_484" data-name="Trazado 484" d="M375.937,79.646C365.3,56.241,390.608,44.482,404.419,48.383c12.981,3.666,18.518,10.126,20.654,18.808s2.034,18.092-1.369,26.364c-1.679,4.078-4.7,8.223-9.082,8.733" fill="#1a2e35"/>
        <path id="Trazado_485" data-name="Trazado 485" d="M386.84,132.963a146.661,146.661,0,0,1,1.49-21.952s-9.612-1.6-11.6-14.137c-.991-6.237-.677-16.463-.151-24.822.475-7.524,5.459-16.755,12.955-15.962l23.41,5.917a4.411,4.411,0,0,1,3.947,4.474l-1.526,48.42" fill="#ffd2bd"/>
        <path id="Trazado_486" data-name="Trazado 486" d="M382.318,80.964A1.6,1.6,0,0,0,383.84,82.6a1.531,1.531,0,0,0,1.666-1.422,1.6,1.6,0,0,0-1.522-1.632,1.53,1.53,0,0,0-1.666,1.423" fill="#1a2e35"/>
        <path id="Trazado_487" data-name="Trazado 487" d="M399.663,80.964a1.6,1.6,0,0,0,1.522,1.631,1.531,1.531,0,0,0,1.666-1.422,1.6,1.6,0,0,0-1.521-1.632,1.531,1.531,0,0,0-1.667,1.423" fill="#1a2e35"/>
        <path id="Trazado_488" data-name="Trazado 488" d="M389.283,89.843a11.468,11.468,0,0,0-2.813-.507c-.441-.046-.86-.134-.934-.435a2.251,2.251,0,0,1,.295-1.31q.624-1.6,1.307-3.365c1.815-4.792,3.129-8.732,2.935-8.8s-1.821,3.754-3.637,8.546q-.654,1.773-1.252,3.385a2.557,2.557,0,0,0-.229,1.734,1.109,1.109,0,0,0,.727.647,2.965,2.965,0,0,0,.75.1,11.208,11.208,0,0,0,2.851,0" fill="#1a2e35"/>
        <path id="Trazado_489" data-name="Trazado 489" d="M388.308,111.063a31.905,31.905,0,0,0,16.8-4.48s-4.243,8.724-16.8,7.55Z" fill="#e09074"/>
        <path id="Trazado_490" data-name="Trazado 490" d="M414.493,82.3c.184-.089,6.713-2.977,6.789,4.532s-7.477,6.036-7.492,5.822.7-10.354.7-10.354" fill="#ffd2bd"/>
        <path id="Trazado_491" data-name="Trazado 491" d="M416.055,89.789c.032-.024.132.09.354.189a1.305,1.305,0,0,0,.977.01,3.235,3.235,0,0,0,1.469-2.919,4.317,4.317,0,0,0-.386-1.869,1.51,1.51,0,0,0-.994-.994.667.667,0,0,0-.769.366c-.1.211-.048.362-.089.374-.02.019-.162-.124-.1-.434a.829.829,0,0,1,.29-.474.987.987,0,0,1,.722-.2,1.837,1.837,0,0,1,1.378,1.149,4.43,4.43,0,0,1,.474,2.089c-.032,1.513-.792,2.937-1.874,3.262a1.406,1.406,0,0,1-1.2-.187c-.234-.182-.275-.35-.249-.364" fill="#e09074"/>
        <path id="Trazado_492" data-name="Trazado 492" d="M389.794,94.665a7.168,7.168,0,0,0,.933,1.828,2.425,2.425,0,0,0,1.726,1A2.182,2.182,0,0,0,394.3,96.49a3.491,3.491,0,0,0,.514-2.1c-.031-.661-.332-1.45-.99-1.527a1.644,1.644,0,0,0-.8.177q-1.727.7-3.453,1.4" fill="#e09074"/>
        <path id="Trazado_493" data-name="Trazado 493" d="M391.173,97.522a5,5,0,0,0,1.842-.228,2.635,2.635,0,0,0,1.391-1.264,2.767,2.767,0,0,0,.045-2.259,2.479,2.479,0,0,0-.3-.517c-.137-.143-.112-.136-.261-.115-.141.038-.367.146-.553.218l-.567.23c-.74.3-1.409.561-1.973.772a6.279,6.279,0,0,1-1.881.566,6.292,6.292,0,0,1,1.709-.966c.544-.263,1.194-.566,1.922-.894l.559-.25a6.382,6.382,0,0,1,.63-.26.808.808,0,0,1,.512.015.935.935,0,0,1,.381.3,2.982,2.982,0,0,1,.389.654,3.24,3.24,0,0,1-.106,2.763,2.953,2.953,0,0,1-1.753,1.417,2.78,2.78,0,0,1-1.5.057c-.343-.09-.5-.207-.49-.241" fill="#1a2e35"/>
        <path id="Trazado_494" data-name="Trazado 494" d="M422.913,77.164c-.77-.054-6.971.748-6.482,12.276.456,10.767,8.009,8.4,10.42,4.342,2.283-3.84,3.6-16.089-3.938-16.618" fill="#375a64"/>
        <path id="Trazado_495" data-name="Trazado 495" d="M426.747,78.526a1.379,1.379,0,0,1-.029-.3c-.009-.224-.022-.515-.036-.878-.023-.8-.054-1.9-.092-3.283-.057-2.831-.136-6.764-.227-11.306l.139.137-3.2,0,.143-.146c.024.857.048,1.762.073,2.681.108,4.326.207,8.355.291,11.727l0,.1-.1.023a5.812,5.812,0,0,0-3.293,2.12,7.752,7.752,0,0,0-1.316,2.78,11.572,11.572,0,0,0-.339,1.969c-.02.23-.031.407-.037.526a.941.941,0,0,1-.017.182.539.539,0,0,1-.021-.182c-.007-.12-.007-.3,0-.53a10.191,10.191,0,0,1,.276-2,7.749,7.749,0,0,1,1.294-2.865,5.992,5.992,0,0,1,3.394-2.237l-.093.121c-.1-3.372-.213-7.4-.337-11.726-.024-.919-.048-1.824-.071-2.683l0-.147h.148l3.2,0h.138l0,.137c.049,4.543.092,8.475.124,11.307,0,1.379.007,2.488.01,3.284,0,.364-.008.655-.009.879a1.463,1.463,0,0,1-.02.3" fill="#375a64"/>
        <path id="Trazado_496" data-name="Trazado 496" d="M422.912,62.754A24.733,24.733,0,0,0,411.94,51.418a45.909,45.909,0,0,0-9.257-3.433s4.508-1.07,11.8,2.176c3.316,1.475,6.655,3.4,8.863,6.275,1.4,1.828,3.155,5.4,3.152,6.318Z" fill="#375a64"/>
        <path id="Trazado_497" data-name="Trazado 497" d="M422.088,97c0,.01-.078-.012-.218-.063a3.413,3.413,0,0,1-.576-.3,5.044,5.044,0,0,1-1.625-1.734,8.333,8.333,0,0,1-1-3.381,24.529,24.529,0,0,1-.006-4.307,26.279,26.279,0,0,1,.714-4.247,12.154,12.154,0,0,1,1.24-3.3,5.088,5.088,0,0,1,1.635-1.725,3.334,3.334,0,0,1,.579-.292.6.6,0,0,1,.218-.06c.011.024-.284.129-.735.446a5.305,5.305,0,0,0-1.521,1.734,12.62,12.62,0,0,0-1.157,3.258,27.651,27.651,0,0,0-.684,4.208,25.936,25.936,0,0,0-.018,4.258,8.389,8.389,0,0,0,.91,3.305,5.249,5.249,0,0,0,1.511,1.742c.446.324.742.428.73.454" fill="#1a2e35"/>
        <path id="Trazado_498" data-name="Trazado 498" d="M397.657,98.619l-5.486,1.076a1.692,1.692,0,0,1-1.986-1.333h0a1.69,1.69,0,0,1,1.334-1.984l5.487-1.077a1.691,1.691,0,0,1,.651,3.319" fill="#375a64"/>
        <path id="Trazado_499" data-name="Trazado 499" d="M398.2,96.135l26.353-8.268a1.243,1.243,0,1,1,.7,2.386L398.3,97.533Z" fill="#375a64"/>
        <path id="Trazado_500" data-name="Trazado 500" d="M417.675,92.5a5.809,5.809,0,0,1,.873-.307l2.41-.733c1.011-.313,2.252-.642,3.565-1.072a2.4,2.4,0,0,0,.863-.532,1.322,1.322,0,0,0,.371-.917.8.8,0,0,0-.544-.753,2.013,2.013,0,0,0-1.1.033l-7.9,2.542c-.979.3-1.791.552-2.406.743a5.553,5.553,0,0,1-.895.235,5.9,5.9,0,0,1,.86-.342l2.378-.831c2.017-.685,4.784-1.632,7.893-2.628a2.274,2.274,0,0,1,1.268-.024,1.086,1.086,0,0,1,.732,1.019,1.6,1.6,0,0,1-.457,1.117,2.648,2.648,0,0,1-.965.587c-1.362.43-2.576.728-3.6,1.019l-2.435.646a5.5,5.5,0,0,1-.9.2" fill="#1a2e35"/>
        <path id="Trazado_501" data-name="Trazado 501" d="M403.847,77.281c-.2.316-2.007-.666-4.246-.263-2.245.373-3.614,1.906-3.911,1.675-.144-.1.005-.655.605-1.334a5.487,5.487,0,0,1,6.533-1.131c.793.437,1.121.911,1.019,1.053" fill="#e09074"/>
        <path id="Trazado_502" data-name="Trazado 502" d="M403.592,77.563a9.151,9.151,0,0,1-1.234-.311,6.616,6.616,0,0,0-5.645,1.27c-.609.476-.927.852-.981.809s.187-.484.774-1.049a5.961,5.961,0,0,1,5.937-1.335c.772.26,1.175.57,1.149.616" fill="#1a2e35"/>
        <path id="Trazado_503" data-name="Trazado 503" d="M404.749,72.521c-.184.6-2.1.558-4.38.666-2.282.071-4.2.245-4.423-.346-.1-.287.3-.726,1.077-1.12a8.161,8.161,0,0,1,3.26-.77,8.036,8.036,0,0,1,3.313.525c.809.338,1.231.752,1.153,1.045" fill="#1a2e35"/>
        <path id="Trazado_504" data-name="Trazado 504" d="M385.849,78.6c-.174.1-.512-.225-1.054-.6a5.473,5.473,0,0,0-2.284-.922c-1.943-.321-3.5.579-3.728.262-.1-.136.16-.579.848-1.011a4.669,4.669,0,0,1,3.086-.579,4.236,4.236,0,0,1,2.747,1.578c.488.67.533,1.195.385,1.271" fill="#e09074"/>
        <path id="Trazado_505" data-name="Trazado 505" d="M386.061,79.537c-.061.039-.35-.392-.958-.929a6.034,6.034,0,0,0-5.865-1.274c-.778.236-1.22.506-1.258.445-.031-.04.357-.414,1.151-.743a5.623,5.623,0,0,1,6.193,1.345c.585.63.782,1.133.737,1.156" fill="#1a2e35"/>
        <path id="Trazado_506" data-name="Trazado 506" d="M386.84,73.273c-.111.616-1.942.793-4.114.817s-4.006-.137-4.127-.752c-.125-.6,1.7-1.471,4.109-1.486s4.247.822,4.132,1.421" fill="#1a2e35"/>
        <path id="Trazado_507" data-name="Trazado 507" d="M407.081,55.491a24.966,24.966,0,0,0-3.434,6.47,8.411,8.411,0,0,0,.736,7.074c1.321,1.94,3.587,2.957,5.646,4.084s4.173,2.671,4.684,4.962c.16.717-.146,3.22.392,3.72a1.83,1.83,0,0,0,2.6-.575,12.974,12.974,0,0,0,.938-4.6q.066-4.686.131-9.374c.038-2.646,0-5.389-1.144-7.775-1.6-3.335-4.927-4.4-9.775-4.166" fill="#1a2e35"/>
        <path id="Trazado_508" data-name="Trazado 508" d="M376.293,74.3a17.686,17.686,0,0,1,3.559-8.757,12.97,12.97,0,0,1,8.02-4.8c3.163-.476,6.358.4,9.551.583s6.831-.6,8.5-3.331a2.416,2.416,0,0,0,.1-2.787,2.815,2.815,0,0,0-.937-.615,24.064,24.064,0,0,0-13.671-2.211,18.876,18.876,0,0,0-11.975,6.7A15.561,15.561,0,0,0,376.4,72.292" fill="#1a2e35"/>
        <path id="Trazado_509" data-name="Trazado 509" d="M374.382,69.589a1.634,1.634,0,0,1-.149-.409,7.4,7.4,0,0,1-.253-1.221,10.557,10.557,0,0,1,.429-4.556,12.126,12.126,0,0,1,3.769-5.626,15.7,15.7,0,0,1,7.564-3.4,21.371,21.371,0,0,1,8.3.374,29.208,29.208,0,0,1,3.481,1.05c1.07.393,2.028.827,2.943,1.072a12.618,12.618,0,0,0,4.458.4,3.242,3.242,0,0,0,1.454-.716,1.1,1.1,0,0,1-.289.328,2.666,2.666,0,0,1-1.127.558,11.925,11.925,0,0,1-4.576-.261c-.953-.235-1.93-.658-2.989-1.029a30.223,30.223,0,0,0-3.446-1,21.41,21.41,0,0,0-8.137-.334,15.5,15.5,0,0,0-7.373,3.275A12,12,0,0,0,374.71,63.5a10.984,10.984,0,0,0-.557,4.44c.094,1.063.273,1.636.229,1.648" fill="#375a64"/>
        <path id="Trazado_510" data-name="Trazado 510" d="M388.255,49.865a2.408,2.408,0,0,1,.789-.153,10.964,10.964,0,0,1,2.192,0,12.782,12.782,0,0,1,6.671,2.668c1.112.886,2.039,1.843,3.024,2.511a7.926,7.926,0,0,0,2.9,1.168,6.577,6.577,0,0,0,2.116.145c.5-.062.751-.195.771-.159a1.4,1.4,0,0,1-.74.33,5.844,5.844,0,0,1-2.2,0A7.827,7.827,0,0,1,400.7,55.23c-1.042-.68-1.992-1.643-3.07-2.5a13.37,13.37,0,0,0-6.43-2.705c-1.8-.242-2.939-.074-2.945-.158" fill="#375a64"/>
        <path id="Trazado_511" data-name="Trazado 511" d="M426.221,72.891c-.04.019-.174-.3-.537-.779a5.381,5.381,0,0,0-1.993-1.534,8.525,8.525,0,0,0-3.666-.735,28.5,28.5,0,0,0-4.634.642,17.024,17.024,0,0,1-4.748.359,13.066,13.066,0,0,1-3.786-.913,11.79,11.79,0,0,1-2.308-1.241,3.15,3.15,0,0,1-.74-.611,24.93,24.93,0,0,0,3.162,1.557,13.712,13.712,0,0,0,3.7.8,17.532,17.532,0,0,0,4.636-.389,26.307,26.307,0,0,1,4.711-.613,8.493,8.493,0,0,1,3.808.863,5.153,5.153,0,0,1,2,1.716,3.566,3.566,0,0,1,.328.64c.058.153.082.235.067.241" fill="#375a64"/>
        <path id="Trazado_512" data-name="Trazado 512" d="M424.862,66.869c-.037.017-.167-.294-.536-.753a5,5,0,0,0-2-1.414,7.494,7.494,0,0,0-3.623-.386c-1.393.138-2.892.559-4.517.863a9.706,9.706,0,0,1-4.672-.074,7.614,7.614,0,0,1-3.249-2.013,7.029,7.029,0,0,1-1.429-2.139,4.271,4.271,0,0,1-.227-.661c-.041-.154-.055-.236-.04-.241a9.881,9.881,0,0,0,1.92,2.817,7.578,7.578,0,0,0,3.143,1.842,9.584,9.584,0,0,0,4.474.028c1.594-.3,3.116-.713,4.557-.832a7.535,7.535,0,0,1,3.786.5,4.805,4.805,0,0,1,2.02,1.6,2.007,2.007,0,0,1,.4.857" fill="#375a64"/>
        <path id="Trazado_513" data-name="Trazado 513" d="M392.641,152.844a1.336,1.336,0,0,1,.159-.134c.107-.087.273-.206.48-.378a21.154,21.154,0,0,0,1.748-1.589,30,30,0,0,0,2.467-2.864c.9-1.176,1.871-2.575,2.927-4.142,2.116-3.135,4.592-6.948,7.219-11.347,1.315-2.2,2.67-4.542,4.039-7.018l1.031-1.88a11.9,11.9,0,0,1,1.176-1.87,4.117,4.117,0,0,1,1.824-1.323,2.217,2.217,0,0,1,1.161-.128,1.127,1.127,0,0,1,.552.3,1.308,1.308,0,0,1,.3.561l.013.041-.016.043a2.067,2.067,0,0,1-.406.708,1.155,1.155,0,0,1-.753.362,2.416,2.416,0,0,1-1.491-.514,2.519,2.519,0,0,1-.956-2.933A2.231,2.231,0,0,1,415.2,117.5a2.484,2.484,0,0,1,1.629-.227,1.735,1.735,0,0,1,1.323,1.027.88.88,0,0,1-.193.911,1.594,1.594,0,0,1-.772.421,2.283,2.283,0,0,1-2.522-1.153,2.056,2.056,0,0,1-.147-1.475,2.494,2.494,0,0,1,.765-1.246,1.991,1.991,0,0,1,1.34-.52,1.583,1.583,0,0,1,1.268.667,1.051,1.051,0,0,1,.157.759,1,1,0,0,1-.419.649,1.544,1.544,0,0,1-1.4.175,1.73,1.73,0,0,1-.941-1.04,3.783,3.783,0,0,1-.211-1.361,4.8,4.8,0,0,1,.678-2.589,1.963,1.963,0,0,1,1.076-.812,1.726,1.726,0,0,1,1.3.233,1.281,1.281,0,0,1,.651,1.163,1.175,1.175,0,0,1-.858,1,1.381,1.381,0,0,1-1.262-.205,1.773,1.773,0,0,1-.635-1.1,2.539,2.539,0,0,1,.106-1.245,5.581,5.581,0,0,1,.426-1.134,2.158,2.158,0,0,1,.812-.9,2.65,2.65,0,0,1,1.113-.376,1.108,1.108,0,0,1,.606.082,1.3,1.3,0,0,1,.454.4,1.507,1.507,0,0,1,.25.547.858.858,0,0,1-.072.627,1,1,0,0,1-1.065.414,1.824,1.824,0,0,1-.98-.507,2.926,2.926,0,0,1-.843-1.938,3.1,3.1,0,0,1,.527-1.975,2.342,2.342,0,0,1,.73-.686,2.045,2.045,0,0,1,.936-.259,1.419,1.419,0,0,1,.915.272,1.02,1.02,0,0,1,.386.874,1.418,1.418,0,0,1-1.234,1.2,1.506,1.506,0,0,1-1.409-.795,2.543,2.543,0,0,1-.353-1.526,9.333,9.333,0,0,1,.935-2.622q.514-1.167.938-2.131l1.307-2.944c.148-.327.264-.58.347-.763s.127-.255.127-.255-.03.093-.1.268-.183.443-.32.774c-.292.691-.715,1.688-1.257,2.966q-.414.966-.915,2.141a9.271,9.271,0,0,0-.9,2.578,2.37,2.37,0,0,0,.337,1.418,1.335,1.335,0,0,0,1.242.705,1.235,1.235,0,0,0,1.061-1.029.817.817,0,0,0-.315-.7,1.221,1.221,0,0,0-.788-.224,1.831,1.831,0,0,0-.839.238,2.149,2.149,0,0,0-.659.624,2.889,2.889,0,0,0-.476,1.832,2.7,2.7,0,0,0,.778,1.779,1.585,1.585,0,0,0,.859.443.766.766,0,0,0,.82-.3.9.9,0,0,0-.166-.9,1.079,1.079,0,0,0-.366-.326.9.9,0,0,0-.479-.056,2.12,2.12,0,0,0-1.721,1.145,5.491,5.491,0,0,0-.4,1.081,2.272,2.272,0,0,0-.1,1.124,1.519,1.519,0,0,0,.54.94,1.125,1.125,0,0,0,1.026.16.9.9,0,0,0,.667-.763,1.007,1.007,0,0,0-.527-.9,1.458,1.458,0,0,0-1.093-.2,1.693,1.693,0,0,0-.914.7,4.525,4.525,0,0,0-.622,2.426,3.481,3.481,0,0,0,.193,1.253,1.448,1.448,0,0,0,.776.874,1.27,1.27,0,0,0,1.137-.139.726.726,0,0,0,.186-1.007,1.31,1.31,0,0,0-1.04-.536,1.71,1.71,0,0,0-1.143.451,1.91,1.91,0,0,0,1.649,3.361,1.336,1.336,0,0,0,.634-.338.567.567,0,0,0,.126-.6,1.458,1.458,0,0,0-1.109-.838,2.09,2.09,0,0,0-2.393,1.283,2.223,2.223,0,0,0,.848,2.591,2.159,2.159,0,0,0,1.308.467,1.116,1.116,0,0,0,.915-.873l0,.083a.834.834,0,0,0-.636-.657,1.956,1.956,0,0,0-1.012.118,3.818,3.818,0,0,0-1.7,1.233,11.5,11.5,0,0,0-1.149,1.823q-.523.951-1.036,1.88c-1.376,2.476-2.739,4.818-4.063,7.014-2.645,4.395-5.141,8.2-7.278,11.321-1.069,1.562-2.046,2.957-2.965,4.128a28.884,28.884,0,0,1-2.511,2.846,15.069,15.069,0,0,1-2.454,2.029" fill="#1a2e35"/>
        <path id="Trazado_514" data-name="Trazado 514" d="M373.8,174.9a4.963,4.963,0,0,0-6.622,1.675,5.82,5.82,0,0,0,.108,6.163c1.225,1.669,4.439,3.029,6.16,1.326Z" fill="#ececec"/>
        <path id="Trazado_515" data-name="Trazado 515" d="M373.8,174.9a3.83,3.83,0,0,1,.014.65c-.009.479-.021,1.105-.035,1.873-.049,1.673-.117,3.962-.2,6.646l0,.059-.042.042a3.177,3.177,0,0,1-2.794.776A5.856,5.856,0,0,1,367.9,183.6a4.708,4.708,0,0,1-1.556-2.677,6.352,6.352,0,0,1,.09-2.942,5.06,5.06,0,0,1,1.3-2.3,5.214,5.214,0,0,1,1.889-1.208,4.766,4.766,0,0,1,3.14-.092,3.6,3.6,0,0,1,1.044.515c-.032.021-.368-.187-1.077-.4a4.8,4.8,0,0,0-3.035.184,4.886,4.886,0,0,0-2.992,3.373,6.071,6.071,0,0,0-.069,2.792,4.415,4.415,0,0,0,1.459,2.5,5.611,5.611,0,0,0,2.706,1.282,2.909,2.909,0,0,0,2.559-.678l-.044.1c.128-2.655.236-4.918.316-6.573.046-.776.083-1.409.112-1.894a5.137,5.137,0,0,1,.065-.693" fill="#1a2e35"/>
        <path id="Trazado_516" data-name="Trazado 516" d="M369.675,174.5s5.078-35.616,6.418-40.662,4.321-13.134,8.239-17.815c3.746-4.476,4.1-4.781,4.1-4.781v4.644a54.942,54.942,0,0,0-9.028,17.721c-2.8,9.959-7.064,41.149-7.064,41.149Z" fill="#1a2e35"/>
        <path id="Trazado_517" data-name="Trazado 517" d="M417.291,185.523a7.172,7.172,0,0,1-2.745-.877l.543-1.087a5.483,5.483,0,0,0,3.708.675,4.366,4.366,0,0,0,2.989-2.357,7,7,0,0,0,.422-3.807,23.594,23.594,0,0,0-.6-2.8c-.105-.411-.21-.821-.307-1.234-1.737-7.427-.547-15.438.5-22.506l1.147.177c-1.034,6.954-2.2,14.837-.523,22.025.1.4.2.806.3,1.207a25.042,25.042,0,0,1,.633,2.954,8.108,8.108,0,0,1-.536,4.527,5.5,5.5,0,0,1-3.812,3.017,5.682,5.682,0,0,1-1.72.09" fill="#e1e1e1"/>
        <path id="Trazado_518" data-name="Trazado 518" d="M417.134,186.051a6.38,6.38,0,0,1-4.813-3.354c-1.667-2.657-1.382-8.822-1.13-14.261.089-1.946.174-3.783.14-5.122a53.876,53.876,0,0,0-2.083-11.319l1.109-.38a54.269,54.269,0,0,1,2.135,11.655c.036,1.385-.05,3.244-.141,5.213-.232,4.993-.519,11.207.941,13.532,2.2,3.509,5.262,3.771,9.918.846l.587,1.048c-2.559,1.609-4.771,2.323-6.663,2.142" fill="#ececec"/>
        <path id="Trazado_519" data-name="Trazado 519" d="M421.462,183.756a7.445,7.445,0,0,1,1.051-1.669,2.331,2.331,0,0,1,1.587-.852,1.444,1.444,0,0,1,1.4,1,1.926,1.926,0,0,1-.441,1.782,2.356,2.356,0,0,1-1.554.724,6.325,6.325,0,0,1-1.683-.145" fill="#1a2e35"/>
        <path id="Trazado_520" data-name="Trazado 520" d="M415.024,129.571a40.855,40.855,0,0,1,5.76,21.993l2.4.232a41.281,41.281,0,0,0-7.077-24.871,39.632,39.632,0,0,0,1.919-6.065c.986-4.71-2.632-8.367-2.632-8.367L414.522,117s1.5.782,1.148,3.336-2.7,7.83-4.943,12.358a29.769,29.769,0,0,0-3.135,12c-.343,5.348,1.4,7.954,1.4,7.954l2.487-.836s-1.248-2.021-1.371-7.227c-.094-3.975,1.306-6.947,2.536-9.7.61-1.363,1.491-3.243,2.381-5.312" fill="#1a2e35"/>
        <path id="Trazado_521" data-name="Trazado 521" d="M377.01,179.68a4.638,4.638,0,1,1-4.638-4.638,4.637,4.637,0,0,1,4.638,4.638" fill="#abaaa2"/>
      </g>
    </g>
  </g>
</svg>
