<svg xmlns="http://www.w3.org/2000/svg" xmlns:xlink="http://www.w3.org/1999/xlink" width="99.138" height="84.491" viewBox="0 0 99.138 84.491">
  <defs>
    <clipPath id="clip-path">
      <rect width="99.138" height="84.491" fill="none"/>
    </clipPath>
    <clipPath id="clip-path-2">
      <rect id="Rectángulo_35" data-name="Rectángulo 35" width="99.138" height="84.491" transform="translate(0 0)" fill="none"/>
    </clipPath>
  </defs>
  <g id="Cuadrícula_de_repetición_1" data-name="Cuadrícula de repetición 1" clip-path="url(#clip-path)">
    <g id="Grupo_29" data-name="Grupo 29">
      <g id="Grupo_28" data-name="Grupo 28" clip-path="url(#clip-path-2)">
        <path id="Trazado_302" data-name="Trazado 302" d="M51.486,49.75l3.882-7.567,30.15-29.462S89.589-4.52,74.978,2.181L.486,79.018s13.208,8.524,24.079-2.347Z" fill="#ffe227"/>
        <path id="Trazado_303" data-name="Trazado 303" d="M13.7,84.482A18.624,18.624,0,0,1,.486,79.017a1.659,1.659,0,0,1,0-2.346L74.978,2.18a7.453,7.453,0,0,1,10.54,10.54L56.876,41.363l-2.267,9.608a1.664,1.664,0,0,1-.442.792L26.912,79.017A18.628,18.628,0,0,1,13.7,84.482m-9.629-6.7a15.39,15.39,0,0,0,20.5-1.11L51.486,49.75l2.267-9.608a1.667,1.667,0,0,1,.441-.793L83.172,10.374a4.134,4.134,0,1,0-5.847-5.847Z" fill="#3e145e"/>
        <path id="Trazado_304" data-name="Trazado 304" d="M55.368,42.183a1.658,1.658,0,0,1-1.174-.485L52.02,39.524a1.66,1.66,0,0,1,2.348-2.347l2.174,2.173a1.659,1.659,0,0,1-1.174,2.833" fill="#3e145e"/>
        <path id="Trazado_305" data-name="Trazado 305" d="M42.383,84.491H1.66a1.66,1.66,0,1,1,0-3.319H42.383a1.66,1.66,0,0,1,0,3.319" fill="#3e145e"/>
        <path id="Trazado_306" data-name="Trazado 306" d="M77.618,84.491H53.194a1.66,1.66,0,0,1,0-3.319H77.618a1.66,1.66,0,0,1,0,3.319" fill="#3e145e"/>
        <path id="Trazado_307" data-name="Trazado 307" d="M88.022,84.491H84a1.66,1.66,0,1,1,0-3.319h4.02a1.66,1.66,0,0,1,0,3.319" fill="#3e145e"/>
        <path id="Trazado_308" data-name="Trazado 308" d="M68.649,76.285a30.49,30.49,0,0,1-22.9-10.407,1.659,1.659,0,1,1,2.494-2.189,27.148,27.148,0,1,0,34.09-41.34,1.66,1.66,0,1,1,1.676-2.865,30.472,30.472,0,0,1-15.357,56.8" fill="#3e145e"/>
        <path id="Trazado_309" data-name="Trazado 309" d="M73.786,67.042H63.511a1.66,1.66,0,0,1-1.66-1.659V52.593H58.864a1.66,1.66,0,0,1,0-3.32h4.647a1.66,1.66,0,0,1,1.66,1.66v12.79h6.956V50.933a1.659,1.659,0,0,1,1.659-1.66h12.79V42.316H73.786a1.659,1.659,0,0,1-1.659-1.659V30.3a1.66,1.66,0,0,1,3.319,0V39h12.79a1.659,1.659,0,0,1,1.659,1.66V50.933a1.659,1.659,0,0,1-1.659,1.66H75.446v12.79a1.66,1.66,0,0,1-1.66,1.659" fill="#3e145e"/>
        <path id="Trazado_310" data-name="Trazado 310" d="M19.859,39.793A1.659,1.659,0,0,1,18.2,38.134V34.518a1.659,1.659,0,1,1,3.319,0v3.616a1.659,1.659,0,0,1-1.66,1.659" fill="#3e145e"/>
        <path id="Trazado_311" data-name="Trazado 311" d="M21.668,37.985H18.052a1.66,1.66,0,1,1,0-3.319h3.616a1.66,1.66,0,0,1,0,3.319" fill="#3e145e"/>
        <path id="Trazado_312" data-name="Trazado 312" d="M42.043,11.6a1.659,1.659,0,0,1-1.659-1.659V6.326a1.66,1.66,0,1,1,3.319,0V9.943a1.66,1.66,0,0,1-1.66,1.659" fill="#3e145e"/>
        <path id="Trazado_313" data-name="Trazado 313" d="M43.851,9.793H40.235a1.66,1.66,0,1,1,0-3.319h3.616a1.66,1.66,0,0,1,0,3.319" fill="#3e145e"/>
      </g>
    </g>
  </g>
</svg>
