<svg xmlns="http://www.w3.org/2000/svg" xmlns:xlink="http://www.w3.org/1999/xlink" width="85.323" height="74.873" viewBox="0 0 85.323 74.873">
  <defs>
    <clipPath id="clip-path">
      <rect id="Rectángulo_27" data-name="Rectángulo 27" width="85.323" height="74.873" transform="translate(0 0)" fill="none"/>
    </clipPath>
  </defs>
  <g id="Grupo_17" data-name="Grupo 17" transform="translate(0 0)">
    <g id="Grupo_16" data-name="Grupo 16" clip-path="url(#clip-path)">
      <path id="Trazado_236" data-name="Trazado 236" d="M74.16,72.041h-63a6.319,6.319,0,0,1-6.319-6.319v-33.7a6.32,6.32,0,0,1,6.319-6.32h63a6.32,6.32,0,0,1,6.319,6.32v33.7a6.319,6.319,0,0,1-6.319,6.319" fill="#ffe227"/>
      <path id="Trazado_237" data-name="Trazado 237" d="M42.671,64.266S29.753,58.771,26.148,45.508c0,0,1.227-16.674,16.526-7.768,0,0,17.359-7.425,16.139,12.961A37.709,37.709,0,0,1,42.671,64.266" fill="#fff"/>
      <path id="Trazado_238" data-name="Trazado 238" d="M80.225,65.45a1.417,1.417,0,0,1-1.417-1.417V61.767a1.417,1.417,0,1,1,2.833,0v2.266a1.416,1.416,0,0,1-1.416,1.417" fill="#3e145e"/>
      <path id="Trazado_239" data-name="Trazado 239" d="M80.225,52.4a1.417,1.417,0,0,1-1.417-1.417V45.6a1.417,1.417,0,1,1,2.833,0v5.389A1.416,1.416,0,0,1,80.225,52.4" fill="#3e145e"/>
      <path id="Trazado_240" data-name="Trazado 240" d="M80.225,36.237a1.417,1.417,0,0,1-1.417-1.416V32.554a1.417,1.417,0,0,1,2.833,0v2.267a1.416,1.416,0,0,1-1.416,1.416" fill="#3e145e"/>
      <path id="Trazado_241" data-name="Trazado 241" d="M72.574,74.874H12.75a9.078,9.078,0,0,1-9.068-9.068V28.149A3.762,3.762,0,0,1,7.44,24.39H77.884a3.761,3.761,0,0,1,3.757,3.759v4.406a1.417,1.417,0,0,1-2.833,0V28.149a.925.925,0,0,0-.924-.925H7.44a.926.926,0,0,0-.925.925V65.806a6.241,6.241,0,0,0,6.235,6.235H72.574a6.241,6.241,0,0,0,6.234-6.235V64.033a1.417,1.417,0,0,1,2.833,0v1.773a9.078,9.078,0,0,1-9.067,9.068" fill="#3e145e"/>
      <path id="Trazado_242" data-name="Trazado 242" d="M77.628,27.223H7.7a1.417,1.417,0,0,1-1.417-1.416V19.546c0-5,3.455-9.068,7.7-9.068H71.342c4.248,0,7.7,4.068,7.7,9.068v6.261a1.416,1.416,0,0,1-1.417,1.416M9.112,24.39h67.1V19.546c0-3.438-2.185-6.235-4.87-6.235H13.981c-2.684,0-4.869,2.8-4.869,6.235Z" fill="#3e145e"/>
      <path id="Trazado_243" data-name="Trazado 243" d="M83.907,74.874H1.417a1.417,1.417,0,1,1,0-2.833h82.49a1.417,1.417,0,0,1,0,2.833" fill="#3e145e"/>
      <path id="Trazado_244" data-name="Trazado 244" d="M57.791,13.311H27.532A1.415,1.415,0,0,1,26.116,11.9,11.908,11.908,0,0,1,38.01,0h9.3A11.908,11.908,0,0,1,59.207,11.9a1.415,1.415,0,0,1-1.416,1.416M29.059,10.478h27.2a9.076,9.076,0,0,0-8.951-7.645h-9.3a9.077,9.077,0,0,0-8.951,7.645" fill="#3e145e"/>
      <path id="Trazado_245" data-name="Trazado 245" d="M42.66,65.449a1.411,1.411,0,0,1-.617-.142C31.264,60.091,27.333,53.6,25.933,49.073a11.983,11.983,0,0,1-.629-3.046,8.085,8.085,0,0,1-.039-.911c0-6.232,4.687-11.3,10.449-11.3a9.971,9.971,0,0,1,6.946,2.858,9.985,9.985,0,0,1,6.949-2.858c5.759,0,10.446,5.067,10.449,11.3a7.509,7.509,0,0,1-.044.952,11.962,11.962,0,0,1-.628,3.024c-1.4,4.528-5.339,11.011-16.107,16.221a1.419,1.419,0,0,1-.619.142M28.091,45.258s.007.209.036.532a9.408,9.408,0,0,0,.5,2.4c1.224,3.954,4.642,9.554,14.037,14.267,9.9-4.974,13.038-11.025,14.027-14.228a9.46,9.46,0,0,0,.506-2.405,6.42,6.42,0,0,0,.034-.655c0-4.72-3.419-8.519-7.618-8.519a7.322,7.322,0,0,0-5.821,3.009,1.417,1.417,0,0,1-2.255,0,7.32,7.32,0,0,0-5.819-3.009c-4.2,0-7.618,3.8-7.618,8.469,0,.047,0,.1-.005.144Z" fill="#3e145e"/>
      <path id="Trazado_246" data-name="Trazado 246" d="M32.015,27.223H20.255a1.416,1.416,0,0,1-1.417-1.416V23.713A3.919,3.919,0,0,1,22.753,19.8h6.763a3.92,3.92,0,0,1,3.916,3.915v2.094a1.417,1.417,0,0,1-1.417,1.416M21.671,24.39H30.6v-.677a1.084,1.084,0,0,0-1.083-1.082H22.753a1.083,1.083,0,0,0-1.082,1.082Z" fill="#3e145e"/>
      <path id="Trazado_247" data-name="Trazado 247" d="M65.069,27.223H53.308a1.416,1.416,0,0,1-1.416-1.416V23.713A3.919,3.919,0,0,1,55.807,19.8h6.762a3.92,3.92,0,0,1,3.916,3.915v2.094a1.416,1.416,0,0,1-1.416,1.416M54.724,24.39h8.928v-.677a1.084,1.084,0,0,0-1.083-1.082H55.807a1.084,1.084,0,0,0-1.083,1.082Z" fill="#3e145e"/>
    </g>
  </g>
</svg>
