<svg id="Grupo_2" data-name="Grupo 2" xmlns="http://www.w3.org/2000/svg" xmlns:xlink="http://www.w3.org/1999/xlink" width="121.595" height="121.595" viewBox="0 0 121.595 121.595">
  <defs>
    <clipPath id="clip-path">
      <rect id="Rect치ngulo_2" data-name="Rect치ngulo 2" width="121.595" height="121.595" fill="none"/>
    </clipPath>
  </defs>
  <g id="Grupo_1" data-name="Grupo 1" clip-path="url(#clip-path)">
    <path id="Trazado_1" data-name="Trazado 1" d="M119.427,60.8A58.63,58.63,0,1,1,60.8,2.168a58.63,58.63,0,0,1,58.63,58.63" fill="#fff"/>
    <path id="Trazado_2" data-name="Trazado 2" d="M60.8,121.6a60.8,60.8,0,1,1,60.8-60.8,60.866,60.866,0,0,1-60.8,60.8m0-117.259A56.462,56.462,0,1,0,117.26,60.8,56.526,56.526,0,0,0,60.8,4.336" fill="#3e145e"/>
    <rect id="Rect치ngulo_1" data-name="Rect치ngulo 1" width="18.327" height="19.514" transform="translate(43.527 37.522)" fill="#ffe227"/>
    <path id="Trazado_3" data-name="Trazado 3" d="M85.853,78.491a8.835,8.835,0,1,1-8.835-8.835,8.834,8.834,0,0,1,8.835,8.835" fill="#ffe227"/>
    <path id="Trazado_4" data-name="Trazado 4" d="M66.33,98.124H41.444a5.093,5.093,0,0,1-5.087-5.086V35.417a5.093,5.093,0,0,1,5.087-5.086H85.086a5.092,5.092,0,0,1,5.086,5.086V68.065a1.187,1.187,0,0,1-2.374,0V35.417a2.715,2.715,0,0,0-2.712-2.712H41.444a2.715,2.715,0,0,0-2.713,2.712V93.038a2.715,2.715,0,0,0,2.713,2.712H66.33a1.187,1.187,0,0,1,0,2.374" fill="#3e145e"/>
    <path id="Trazado_5" data-name="Trazado 5" d="M63.04,58.223H43.527a1.187,1.187,0,0,1-1.188-1.187V37.522a1.187,1.187,0,0,1,1.188-1.187H63.04a1.187,1.187,0,0,1,1.188,1.187V57.036a1.187,1.187,0,0,1-1.188,1.187M44.713,55.849H61.854V38.709H44.713Z" fill="#3e145e"/>
    <path id="Trazado_6" data-name="Trazado 6" d="M81.135,38.709H70.293a1.187,1.187,0,0,1,0-2.374H81.135a1.187,1.187,0,0,1,0,2.374" fill="#3e145e"/>
    <path id="Trazado_7" data-name="Trazado 7" d="M83.452,44.392H67.975a1.187,1.187,0,0,1,0-2.374H83.452a1.187,1.187,0,0,1,0,2.374" fill="#3e145e"/>
    <path id="Trazado_8" data-name="Trazado 8" d="M83.452,51.308H67.975a1.187,1.187,0,0,1,0-2.374H83.452a1.187,1.187,0,0,1,0,2.374" fill="#3e145e"/>
    <path id="Trazado_9" data-name="Trazado 9" d="M83.452,58.223H67.975a1.187,1.187,0,0,1,0-2.374H83.452a1.187,1.187,0,0,1,0,2.374" fill="#3e145e"/>
    <path id="Trazado_10" data-name="Trazado 10" d="M59.639,89.7H43.527a1.187,1.187,0,1,1,0-2.374H59.639a1.187,1.187,0,1,1,0,2.374" fill="#3e145e"/>
    <path id="Trazado_11" data-name="Trazado 11" d="M53.527,85.009c-.446,0-1.089,0-2.66-2.17a25.134,25.134,0,0,1-4.8,1.42,1.187,1.187,0,1,1-.441-2.332,23.463,23.463,0,0,0,3.9-1.118c-.584-.949-1.256-2.114-2.032-3.541-1.35-2.48-2.091-4.054-1-4.988,1.033-.879,2.408-.275,6.408,2.807,1.714,1.321,2.41,2.711,2.07,4.131a4.452,4.452,0,0,1-1.99,2.494,8.12,8.12,0,0,0,.659.8c.2-.111.469-.266.7-.4,1.53-.9,3.84-2.252,6.3-2.075a1.187,1.187,0,0,1-.172,2.368c-1.709-.119-3.648,1.006-4.924,1.755a4.35,4.35,0,0,1-2.018.846m-4.419-9.762c.134.258.289.552.471.886.8,1.471,1.5,2.671,2.1,3.623a2.159,2.159,0,0,0,.993-1.091c.1-.41-.344-1.029-1.211-1.7-1.009-.778-1.773-1.329-2.349-1.721" fill="#3e145e"/>
    <path id="Trazado_12" data-name="Trazado 12" d="M76.994,89.161A10.693,10.693,0,1,1,87.686,78.468,10.7,10.7,0,0,1,76.994,89.161m0-19.012a8.319,8.319,0,1,0,8.318,8.319,8.328,8.328,0,0,0-8.318-8.319" fill="#3e145e"/>
    <path id="Trazado_13" data-name="Trazado 13" d="M82.658,98.124a1.185,1.185,0,0,1-.706-.232l-4.958-3.666-4.958,3.666a1.188,1.188,0,0,1-1.893-.955V86.089a1.187,1.187,0,0,1,1.9-.952,8.265,8.265,0,0,0,9.91,0,1.187,1.187,0,0,1,1.9.952V96.937a1.187,1.187,0,0,1-1.187,1.187m-5.664-6.561a1.187,1.187,0,0,1,.706.232l3.771,2.789v-6.41a10.774,10.774,0,0,1-8.954,0v6.41l3.771-2.789a1.187,1.187,0,0,1,.706-.232" fill="#3e145e"/>
    <path id="Trazado_14" data-name="Trazado 14" d="M70.293,66H43.526a1.187,1.187,0,1,1,0-2.374H70.293a1.187,1.187,0,1,1,0,2.374" fill="#3e145e"/>
    <path id="Trazado_15" data-name="Trazado 15" d="M37.545,93.638H36.51a5.092,5.092,0,0,1-5.087-5.086V30.931a5.093,5.093,0,0,1,5.087-5.086H80.151a5.093,5.093,0,0,1,5.087,5.086v.587a1.187,1.187,0,0,1-1.187,1.187H41.445a2.715,2.715,0,0,0-2.713,2.712V92.451a1.187,1.187,0,0,1-1.187,1.187M36.51,28.219A2.715,2.715,0,0,0,33.8,30.931V88.552a2.716,2.716,0,0,0,2.561,2.708V35.417a5.093,5.093,0,0,1,5.087-5.086H82.8a2.717,2.717,0,0,0-2.646-2.112Z" fill="#3e145e"/>
  </g>
</svg>
