<svg id="Grupo_32" data-name="Grupo 32" xmlns="http://www.w3.org/2000/svg" xmlns:xlink="http://www.w3.org/1999/xlink" width="79.975" height="79.975" viewBox="0 0 79.975 79.975">
  <defs>
    <clipPath id="clip-path">
      <rect id="Rect치ngulo_37" data-name="Rect치ngulo 37" width="79.975" height="79.975" transform="translate(0 0)" fill="none"/>
    </clipPath>
  </defs>
  <rect id="Rect치ngulo_36" data-name="Rect치ngulo 36" width="8.255" height="47.117" transform="translate(35.357 1.263)" fill="#ffe227"/>
  <g id="Grupo_31" data-name="Grupo 31">
    <g id="Grupo_30" data-name="Grupo 30" clip-path="url(#clip-path)">
      <path id="Trazado_314" data-name="Trazado 314" d="M39.987,49.669a4.636,4.636,0,0,1-4.63-4.631V1.262A1.262,1.262,0,0,1,36.619,0h6.736a1.263,1.263,0,0,1,1.262,1.262V45.038a4.636,4.636,0,0,1-4.63,4.631m-2.1-47.144V45.038a2.1,2.1,0,1,0,4.21,0V2.525Z" fill="#3e145e"/>
      <path id="Trazado_315" data-name="Trazado 315" d="M43.355,9.261H36.62a1.263,1.263,0,1,1,0-2.526h6.735a1.263,1.263,0,1,1,0,2.526" fill="#3e145e"/>
      <path id="Trazado_316" data-name="Trazado 316" d="M43.355,15.995H36.62a1.262,1.262,0,1,1,0-2.525h6.735a1.262,1.262,0,1,1,0,2.525" fill="#3e145e"/>
      <path id="Trazado_317" data-name="Trazado 317" d="M43.355,22.729H36.62a1.262,1.262,0,1,1,0-2.524h6.735a1.262,1.262,0,1,1,0,2.524" fill="#3e145e"/>
      <path id="Trazado_318" data-name="Trazado 318" d="M43.355,29.465H36.62a1.263,1.263,0,1,1,0-2.526h6.735a1.263,1.263,0,0,1,0,2.526" fill="#3e145e"/>
      <path id="Trazado_319" data-name="Trazado 319" d="M43.355,36.2H36.62a1.263,1.263,0,1,1,0-2.525h6.735a1.263,1.263,0,1,1,0,2.525" fill="#3e145e"/>
      <path id="Trazado_320" data-name="Trazado 320" d="M43.355,42.934H36.62a1.262,1.262,0,1,1,0-2.525h6.735a1.262,1.262,0,1,1,0,2.525" fill="#3e145e"/>
      <path id="Trazado_321" data-name="Trazado 321" d="M20.661,79.975H10.1A9.91,9.91,0,0,1,0,70.293V56.66A41.952,41.952,0,0,1,4.811,37.248L15.38,17.115a10.108,10.108,0,0,1,9.025-5.328h3.376a9.909,9.909,0,0,1,10.1,9.68v42.74a23.523,23.523,0,0,1-.553,3.3A17.036,17.036,0,0,1,20.661,79.975m3.744-65.663a7.589,7.589,0,0,0-6.789,3.978L7.048,38.421A39.413,39.413,0,0,0,2.525,56.66V70.293A7.385,7.385,0,0,0,10.1,77.45H20.661A14.5,14.5,0,0,0,34.876,66.914a23.9,23.9,0,0,0,.481-2.707V21.467a7.383,7.383,0,0,0-7.576-7.155Z" fill="#3e145e"/>
      <path id="Trazado_322" data-name="Trazado 322" d="M36.621,48.406a1.336,1.336,0,0,1-.258-.026c-3.842-.8-11.107-4.288-11.107-11.76a12.136,12.136,0,0,0-6.037-10.656,1.263,1.263,0,1,1,1.13-2.259A14.545,14.545,0,0,1,27.781,36.62c0,7.276,8.728,9.208,9.1,9.287a1.263,1.263,0,0,1-.259,2.5" fill="#3e145e"/>
      <path id="Trazado_323" data-name="Trazado 323" d="M23.2,27.916a1.282,1.282,0,0,1-.294-.034,1.261,1.261,0,0,1-.935-1.521l1.639-6.871a1.262,1.262,0,0,1,2.456.586l-1.638,6.87a1.265,1.265,0,0,1-1.228.97" fill="#3e145e"/>
      <path id="Trazado_324" data-name="Trazado 324" d="M26.518,37.883a1.282,1.282,0,0,1-.306-.038c-.067-.016-6.624-1.646-9.8-1.646a1.263,1.263,0,0,1,0-2.525,51.975,51.975,0,0,1,9.271,1.449l3-9.005a1.263,1.263,0,1,1,2.4.8l-3.367,10.1a1.263,1.263,0,0,1-1.2.863" fill="#3e145e"/>
      <path id="Trazado_325" data-name="Trazado 325" d="M14.732,71.557a1.263,1.263,0,1,1,0-2.525,5.694,5.694,0,0,0,1.141-.179,1.263,1.263,0,0,1,.614,2.45,7.837,7.837,0,0,1-1.755.254" fill="#3e145e"/>
      <path id="Trazado_326" data-name="Trazado 326" d="M20.425,68.749a1.263,1.263,0,0,1-.949-2.1c1.6-1.826,2.412-4.566,2.412-8.146,0-12.728,10-14.356,10.1-14.37a1.263,1.263,0,0,1,.375,2.5c-.335.052-7.949,1.387-7.949,11.873,0,4.21-1.022,7.511-3.038,9.81a1.257,1.257,0,0,1-.95.431" fill="#3e145e"/>
      <path id="Trazado_327" data-name="Trazado 327" d="M8,63.135a1.263,1.263,0,0,1-1.128-1.824c.083-.166,2.08-4.066,6.181-4.066,1.782,0,8.91,2.151,10.321,2.581a1.263,1.263,0,1,1-.738,2.415c-3.359-1.026-8.552-2.47-9.583-2.47-2.526,0-3.911,2.648-3.924,2.675A1.27,1.27,0,0,1,8,63.135" fill="#3e145e"/>
      <path id="Trazado_328" data-name="Trazado 328" d="M14.732,64.822a1.264,1.264,0,0,1-1.2-1.663l1.612-4.836c-.043-.841-.36-4.27-2.662-5.421a1.263,1.263,0,1,1,1.129-2.259c4.019,2.01,4.065,7.626,4.065,7.865a1.262,1.262,0,0,1-.064.4L15.93,63.959a1.266,1.266,0,0,1-1.2.863" fill="#3e145e"/>
      <path id="Trazado_329" data-name="Trazado 329" d="M25.724,50.809a1.261,1.261,0,0,1-1.067-.588,11.729,11.729,0,0,0-4.777-3.583,1.262,1.262,0,1,1,1.1-2.272c2.83,1.37,4.785,2.885,5.81,4.5a1.263,1.263,0,0,1-1.066,1.939" fill="#3e145e"/>
      <path id="Trazado_330" data-name="Trazado 330" d="M15.724,44.914a1.3,1.3,0,0,1-.381-.059c-.5-.157-.829-.25-.922-.276a1.263,1.263,0,1,1,.683-2.431c.137.037.489.137,1,.3a1.264,1.264,0,0,1-.381,2.468" fill="#3e145e"/>
      <path id="Trazado_331" data-name="Trazado 331" d="M69.873,79.975H59.313a17.026,17.026,0,0,1-16.657-12.42,23.666,23.666,0,0,1-.564-3.348V21.467a9.909,9.909,0,0,1,10.1-9.68H55.57a10.106,10.106,0,0,1,9.024,5.328l10.57,20.133A41.952,41.952,0,0,1,79.975,56.66V70.293a9.91,9.91,0,0,1-10.1,9.682M52.194,14.312a7.383,7.383,0,0,0-7.576,7.155v42.74a24.021,24.021,0,0,0,.492,2.751,14.489,14.489,0,0,0,14.2,10.492h10.56a7.385,7.385,0,0,0,7.577-7.157V56.66a39.413,39.413,0,0,0-4.523-18.239L62.359,18.29a7.59,7.59,0,0,0-6.789-3.978Z" fill="#3e145e"/>
      <path id="Trazado_332" data-name="Trazado 332" d="M43.354,48.406a1.263,1.263,0,0,1-.259-2.5c.371-.079,9.1-2.011,9.1-9.287A14.543,14.543,0,0,1,59.626,23.7a1.262,1.262,0,0,1,1.134,2.256A12.028,12.028,0,0,0,54.719,36.62c0,7.472-7.265,10.959-11.107,11.76a1.336,1.336,0,0,1-.258.026" fill="#3e145e"/>
      <path id="Trazado_333" data-name="Trazado 333" d="M56.779,27.916a1.265,1.265,0,0,1-1.228-.97l-1.638-6.87a1.262,1.262,0,1,1,2.456-.586l1.639,6.871a1.262,1.262,0,0,1-.935,1.521,1.3,1.3,0,0,1-.294.034" fill="#3e145e"/>
      <path id="Trazado_334" data-name="Trazado 334" d="M53.456,37.883a1.262,1.262,0,0,1-1.2-.863l-3.368-10.1a1.263,1.263,0,1,1,2.4-.8l3,9.005a51.975,51.975,0,0,1,9.271-1.449,1.263,1.263,0,0,1,0,2.525c-3.173,0-9.731,1.63-9.8,1.646a1.284,1.284,0,0,1-.307.038" fill="#3e145e"/>
      <path id="Trazado_335" data-name="Trazado 335" d="M65.243,71.557a7.849,7.849,0,0,1-1.756-.254,1.263,1.263,0,0,1,.615-2.45,5.637,5.637,0,0,0,1.149.179,1.263,1.263,0,0,1-.008,2.525" fill="#3e145e"/>
      <path id="Trazado_336" data-name="Trazado 336" d="M59.549,68.749a1.257,1.257,0,0,1-.95-.431c-2.016-2.3-3.038-5.6-3.038-9.81,0-10.494-7.626-11.822-7.95-11.873a1.267,1.267,0,0,1-1.054-1.44,1.251,1.251,0,0,1,1.429-1.057c.1.014,10.1,1.642,10.1,14.37,0,3.58.812,6.32,2.412,8.146a1.263,1.263,0,0,1-.949,2.1" fill="#3e145e"/>
      <path id="Trazado_337" data-name="Trazado 337" d="M71.978,63.138a1.264,1.264,0,0,1-1.128-.692c-.014-.027-1.4-2.675-3.924-2.675-1.031,0-6.225,1.444-9.583,2.471a1.263,1.263,0,1,1-.738-2.416c1.411-.43,8.539-2.581,10.321-2.581,4.1,0,6.1,3.9,6.181,4.066a1.264,1.264,0,0,1-.566,1.694,1.251,1.251,0,0,1-.563.133" fill="#3e145e"/>
      <path id="Trazado_338" data-name="Trazado 338" d="M65.243,64.822a1.264,1.264,0,0,1-1.2-.863l-1.684-5.052a1.262,1.262,0,0,1-.064-.4c0-.239.046-5.855,4.065-7.865A1.263,1.263,0,1,1,67.491,52.9c-2.287,1.145-2.616,4.588-2.662,5.422l1.611,4.835a1.263,1.263,0,0,1-1.2,1.663" fill="#3e145e"/>
      <path id="Trazado_339" data-name="Trazado 339" d="M54.25,50.809a1.262,1.262,0,0,1-1.065-1.939c1.025-1.619,2.98-3.134,5.81-4.5a1.262,1.262,0,0,1,1.1,2.272,11.722,11.722,0,0,0-4.777,3.583,1.263,1.263,0,0,1-1.068.588" fill="#3e145e"/>
      <path id="Trazado_340" data-name="Trazado 340" d="M64.251,44.914a1.263,1.263,0,0,1-.381-2.468c.532-.168.894-.268,1-.3a1.263,1.263,0,1,1,.683,2.431c-.093.026-.426.119-.923.276a1.291,1.291,0,0,1-.38.059" fill="#3e145e"/>
    </g>
  </g>
</svg>
