<svg xmlns="http://www.w3.org/2000/svg" xmlns:xlink="http://www.w3.org/1999/xlink" width="89.106" height="71.021" viewBox="0 0 89.106 71.021">
  <defs>
    <clipPath id="clip-path">
      <rect id="Rectángulo_32" data-name="Rectángulo 32" width="89.106" height="71.021" transform="translate(0 0)" fill="none"/>
    </clipPath>
  </defs>
  <g id="Grupo_23" data-name="Grupo 23" transform="translate(0 0)">
    <g id="Grupo_22" data-name="Grupo 22" clip-path="url(#clip-path)">
      <path id="Trazado_275" data-name="Trazado 275" d="M63.19,34.006S65.476,19.75,47.348,9.9c0,0-22.423-14.544-42.633,12.054,0,0-13.2,22.879,9.819,42.423,0,0,22.854,11.712,38.854-2.435l-9.427-8.828s-.113-4.04,3.285-4.648c0,0-2.146-5.955,3.349-5.254,0,0-.778-7.208,5.724-6.112L44.377,24.807S42.4,19.931,48.692,20.6Z" fill="#ffe227"/>
      <rect id="Rectángulo_30" data-name="Rectángulo 30" width="11.682" height="38.82" transform="translate(26.339 16.271)" fill="#fff"/>
      <rect id="Rectángulo_31" data-name="Rectángulo 31" width="39.88" height="13.219" transform="translate(12.062 30.549)" fill="#fff"/>
      <path id="Trazado_276" data-name="Trazado 276" d="M61.773,43.62a1.413,1.413,0,0,1-1-.415l-16.4-16.4a1.416,1.416,0,0,1,2-2l16.4,16.4a1.416,1.416,0,0,1-1,2.418" fill="#3e145e"/>
      <path id="Trazado_277" data-name="Trazado 277" d="M74.772,56.618a1.41,1.41,0,0,1-1.061-.478,8.658,8.658,0,0,1-.835-10.222l-8.3-8.3a1.416,1.416,0,1,1,2-2l9.113,9.112a1.418,1.418,0,0,1,.123,1.864c-.124.165-3.082,4.177.019,7.675a1.417,1.417,0,0,1-1.059,2.356" fill="#3e145e"/>
      <path id="Trazado_278" data-name="Trazado 278" d="M59.111,48.972a4.722,4.722,0,0,1-3.349-1.385l-3.82-3.819a4.737,4.737,0,1,1,6.7-6.7l3.819,3.818a4.735,4.735,0,0,1-3.35,8.085M55.292,38.514a1.9,1.9,0,0,0-1.346,3.251l3.819,3.819a1.9,1.9,0,0,0,2.692-2.694l-3.818-3.818a1.892,1.892,0,0,0-1.347-.558" fill="#3e145e"/>
      <path id="Trazado_279" data-name="Trazado 279" d="M54.414,53.668a4.724,4.724,0,0,1-3.349-1.385l-3.82-3.819a4.738,4.738,0,0,1,6.7-6.7l3.818,3.819a4.735,4.735,0,0,1-3.35,8.084M50.6,43.21a1.9,1.9,0,0,0-1.346,3.251l3.819,3.818a1.9,1.9,0,1,0,2.693-2.692l-3.819-3.819A1.892,1.892,0,0,0,50.6,43.21" fill="#3e145e"/>
      <path id="Trazado_280" data-name="Trazado 280" d="M51.113,59.758a4.721,4.721,0,0,1-3.349-1.384l-3.82-3.82a4.737,4.737,0,0,1,6.7-6.7l3.818,3.818a4.735,4.735,0,0,1-3.35,8.084M47.294,49.3a1.9,1.9,0,0,0-1.347,3.251l3.82,3.819a1.9,1.9,0,1,0,2.693-2.692l-3.819-3.819a1.889,1.889,0,0,0-1.347-.559" fill="#3e145e"/>
      <path id="Trazado_281" data-name="Trazado 281" d="M32.888,69.986A32.888,32.888,0,1,1,63.6,25.3a1.417,1.417,0,1,1-2.645,1.017A30.053,30.053,0,1,0,47.38,63.435a1.417,1.417,0,1,1,1.368,2.482,32.926,32.926,0,0,1-15.86,4.069" fill="#3e145e"/>
      <path id="Trazado_282" data-name="Trazado 282" d="M39.437,57.924h-13.1a1.416,1.416,0,0,1-1.416-1.416V45.063H13.478a1.416,1.416,0,0,1-1.416-1.417v-13.1a1.417,1.417,0,0,1,1.416-1.417H24.923V17.688a1.416,1.416,0,0,1,1.416-1.417h13.1a1.417,1.417,0,0,1,1.417,1.417V29.132h2.278a1.417,1.417,0,0,1,0,2.834H39.437a1.417,1.417,0,0,1-1.416-1.417V19.1H27.756V30.549a1.417,1.417,0,0,1-1.417,1.417H14.9V42.23H26.339a1.416,1.416,0,0,1,1.417,1.416V55.091H38.021V43.646a1.415,1.415,0,0,1,1.416-1.416h3.776a1.417,1.417,0,0,1,0,2.833H40.854V56.508a1.417,1.417,0,0,1-1.417,1.416" fill="#3e145e"/>
      <path id="Trazado_283" data-name="Trazado 283" d="M62.916,71.022a1.41,1.41,0,0,1-.659-.164,31.55,31.55,0,0,1-7.628-5.62l-6.865-6.865a1.416,1.416,0,1,1,2-2l6.865,6.865a28.756,28.756,0,0,0,6.944,5.116,1.417,1.417,0,0,1-.66,2.671" fill="#3e145e"/>
      <path id="Trazado_284" data-name="Trazado 284" d="M87.689,60.144a1.409,1.409,0,0,1-1-.415l-3.555-3.554a1.417,1.417,0,0,1-.413-.951l-.3-8.528a8.728,8.728,0,0,0-2.556-5.87l-9.093-9.092a2.994,2.994,0,0,0-4-.332,2.856,2.856,0,0,0-.191,4.21,1.416,1.416,0,1,1-2,2L49.2,22.24a2.031,2.031,0,0,0-2.543-.357,1.909,1.909,0,0,0-.277,2.924,1.416,1.416,0,1,1-2,2,4.738,4.738,0,0,1,.656-7.247,4.822,4.822,0,0,1,6.17.674l11.9,11.9a5.735,5.735,0,0,1,1.846-2.9,5.844,5.844,0,0,1,7.825.5l9.093,9.093a11.545,11.545,0,0,1,3.384,7.771l.284,7.972,3.16,3.16a1.417,1.417,0,0,1-1,2.418" fill="#3e145e"/>
      <path id="Trazado_285" data-name="Trazado 285" d="M75.176,24.12A1.417,1.417,0,0,1,73.76,22.7V18.494a1.417,1.417,0,1,1,2.833,0V22.7a1.418,1.418,0,0,1-1.417,1.417" fill="#3e145e"/>
      <path id="Trazado_286" data-name="Trazado 286" d="M77.281,22.015H73.072a1.417,1.417,0,0,1,0-2.833h4.209a1.417,1.417,0,0,1,0,2.833" fill="#3e145e"/>
      <path id="Trazado_287" data-name="Trazado 287" d="M65.575,7.042a1.417,1.417,0,0,1-1.417-1.416V1.416a1.417,1.417,0,0,1,2.833,0v4.21a1.416,1.416,0,0,1-1.416,1.416" fill="#3e145e"/>
      <path id="Trazado_288" data-name="Trazado 288" d="M67.679,4.938H63.47a1.417,1.417,0,0,1,0-2.833h4.209a1.417,1.417,0,1,1,0,2.833" fill="#3e145e"/>
    </g>
  </g>
</svg>
