<svg id="Grupo_40" data-name="Grupo 40" xmlns="http://www.w3.org/2000/svg" xmlns:xlink="http://www.w3.org/1999/xlink" width="121.595" height="121.595" viewBox="0 0 121.595 121.595">
  <defs>
    <clipPath id="clip-path">
      <rect id="Rectángulo_45" data-name="Rectángulo 45" width="121.595" height="121.595" fill="none"/>
    </clipPath>
  </defs>
  <g id="Grupo_39" data-name="Grupo 39" clip-path="url(#clip-path)">
    <path id="Trazado_373" data-name="Trazado 373" d="M119.427,60.8A58.63,58.63,0,1,1,60.8,2.167a58.629,58.629,0,0,1,58.63,58.63" fill="#fff"/>
    <path id="Trazado_374" data-name="Trazado 374" d="M60.8,121.6a60.8,60.8,0,1,1,60.8-60.8,60.867,60.867,0,0,1-60.8,60.8m0-117.26A56.462,56.462,0,1,0,117.26,60.8,56.526,56.526,0,0,0,60.8,4.336" fill="#3e145e"/>
    <rect id="Rectángulo_41" data-name="Rectángulo 41" width="26.645" height="78.19" transform="translate(46.712 21.537)" fill="#ffe227"/>
    <rect id="Rectángulo_42" data-name="Rectángulo 42" width="78.328" height="25.812" transform="translate(21.111 47.9)" fill="#ffe227"/>
    <path id="Trazado_375" data-name="Trazado 375" d="M67.62,102.543H52.265a7.283,7.283,0,0,1-7.276-7.274V76.083H41.937a1.408,1.408,0,1,1,0-2.815H46.4a1.407,1.407,0,0,1,1.408,1.407V95.269a4.465,4.465,0,0,0,4.46,4.459H67.62a4.465,4.465,0,0,0,4.46-4.459V74.675a1.406,1.406,0,0,1,1.407-1.407H94.081a4.465,4.465,0,0,0,4.46-4.46V53.451a4.465,4.465,0,0,0-4.46-4.459H73.487a1.408,1.408,0,0,1-1.407-1.408V36.548a1.407,1.407,0,0,1,2.815,0v9.629H94.081a7.282,7.282,0,0,1,7.275,7.274V68.808a7.283,7.283,0,0,1-7.275,7.275H74.895V95.269a7.282,7.282,0,0,1-7.275,7.274" fill="#3e145e"/>
    <path id="Trazado_376" data-name="Trazado 376" d="M34.113,76.083H25.8a7.284,7.284,0,0,1-7.275-7.275V53.451A7.282,7.282,0,0,1,25.8,46.177H44.99V26.991a7.283,7.283,0,0,1,7.275-7.275H67.621A7.282,7.282,0,0,1,74.9,26.991v2.836a1.408,1.408,0,1,1-2.815,0V26.991a4.465,4.465,0,0,0-4.46-4.459H52.265a4.465,4.465,0,0,0-4.46,4.459V47.584A1.407,1.407,0,0,1,46.4,48.992H25.8a4.465,4.465,0,0,0-4.46,4.459V68.808a4.465,4.465,0,0,0,4.46,4.46h8.309a1.408,1.408,0,1,1,0,2.815" fill="#3e145e"/>
    <path id="Trazado_377" data-name="Trazado 377" d="M36.2,68.109a1.259,1.259,0,0,1-.183-.012,1.411,1.411,0,0,1-1.2-1.145l-1.333-7.377-1.762,2.39a1.406,1.406,0,0,1-1.133.573H24.97a1.408,1.408,0,1,1,0-2.816h4.9l3.278-4.446a1.408,1.408,0,0,1,2.519.585l1.125,6.231,2.592-5.555a1.408,1.408,0,0,1,2.658.33l.547,2.855h9.939a1.408,1.408,0,1,1,0,2.816h-11.1a1.405,1.405,0,0,1-1.313-.9L37.473,67.3a1.406,1.406,0,0,1-1.274.812" fill="#3e145e"/>
    <path id="Trazado_378" data-name="Trazado 378" d="M83.688,68.109a1.406,1.406,0,0,1-1.275-.812l-2.642-5.663a1.407,1.407,0,0,1-1.314.9H67.075a1.408,1.408,0,0,1,0-2.816H77.293l.548-2.855a1.409,1.409,0,0,1,2.659-.33l2.591,5.555,1.125-6.231a1.408,1.408,0,0,1,2.519-.585l3.278,4.446h4.9a1.408,1.408,0,0,1,0,2.816H89.3a1.406,1.406,0,0,1-1.133-.573l-1.762-2.39-1.333,7.377a1.411,1.411,0,0,1-1.2,1.145,1.277,1.277,0,0,1-.183.012" fill="#3e145e"/>
    <path id="Trazado_379" data-name="Trazado 379" d="M59.944,69.364a1.417,1.417,0,0,1-.615-.14c-5.242-2.537-7.168-5.742-7.861-7.984a6.132,6.132,0,0,1-.323-1.581,4.236,4.236,0,0,1-.021-.508,5.8,5.8,0,0,1,5.6-5.958,5.326,5.326,0,0,1,3.221,1.088,5.331,5.331,0,0,1,3.222-1.088,5.809,5.809,0,0,1,5.6,5.982,4.156,4.156,0,0,1-.024.521,6.251,6.251,0,0,1-.326,1.563c-.7,2.243-2.629,5.436-7.854,7.965a1.4,1.4,0,0,1-.613.14M56.721,56.008a3,3,0,0,0-2.781,3.176,2,2,0,0,0,.01.235,3.523,3.523,0,0,0,.191.937c.429,1.383,1.726,3.881,5.8,6.025,4.078-2.144,5.375-4.643,5.787-5.977a3.713,3.713,0,0,0,.2-.949c.012-.135.014-.206.014-.232a3.016,3.016,0,0,0-2.783-3.215,2.651,2.651,0,0,0-2.1,1.1,1.408,1.408,0,0,1-2.241,0,2.651,2.651,0,0,0-2.1-1.1" fill="#3e145e"/>
    <rect id="Rectángulo_43" data-name="Rectángulo 43" width="5.496" height="80.232" transform="translate(51.191 19.495)" fill="#3e145e"/>
    <rect id="Rectángulo_44" data-name="Rectángulo 44" width="5.496" height="80.232" transform="translate(61.786 19.495)" fill="#3e145e"/>
  </g>
</svg>
