<svg id="Grupo_42" data-name="Grupo 42" xmlns="http://www.w3.org/2000/svg" xmlns:xlink="http://www.w3.org/1999/xlink" width="121.595" height="121.595" viewBox="0 0 121.595 121.595">
  <defs>
    <clipPath id="clip-path">
      <rect id="Rectángulo_46" data-name="Rectángulo 46" width="121.595" height="121.595" fill="none"/>
    </clipPath>
  </defs>
  <g id="Grupo_41" data-name="Grupo 41" clip-path="url(#clip-path)">
    <path id="Trazado_380" data-name="Trazado 380" d="M119.427,60.8A58.63,58.63,0,1,1,60.8,2.167a58.629,58.629,0,0,1,58.63,58.63" fill="#fff"/>
    <path id="Trazado_381" data-name="Trazado 381" d="M60.8,121.6a60.8,60.8,0,1,1,60.8-60.8,60.867,60.867,0,0,1-60.8,60.8m0-117.26A56.462,56.462,0,1,0,117.259,60.8,56.527,56.527,0,0,0,60.8,4.335" fill="#3e145e"/>
    <path id="Trazado_382" data-name="Trazado 382" d="M95.56,95.561H62.342a.778.778,0,0,1-.778-.778V48.869a.778.778,0,0,1,.778-.777h25.7a.783.783,0,0,1,.55.227l7.513,7.515a.774.774,0,0,1,.229.549v38.4a.778.778,0,0,1-.778.778M63.119,94.006H94.783v-37.3l-7.06-7.058h-24.6Z" fill="#3e145e"/>
    <path id="Trazado_383" data-name="Trazado 383" d="M95.56,57.161H88.046a.778.778,0,0,1-.778-.778V48.87a.777.777,0,0,1,1.327-.55l7.514,7.515a.777.777,0,0,1-.549,1.326m-6.737-1.555h4.86l-4.86-4.859Z" fill="#3e145e"/>
    <path id="Trazado_384" data-name="Trazado 384" d="M89.888,75.92H75.357a.488.488,0,1,1,0-.972H89.888a.488.488,0,1,1,0,.972" fill="#3e145e"/>
    <path id="Trazado_385" data-name="Trazado 385" d="M89.888,78.789H75.357a.488.488,0,1,1,0-.972H89.888a.488.488,0,1,1,0,.972" fill="#3e145e"/>
    <path id="Trazado_386" data-name="Trazado 386" d="M89.888,81.657H75.357a.488.488,0,1,1,0-.972H89.888a.488.488,0,1,1,0,.972" fill="#3e145e"/>
    <path id="Trazado_387" data-name="Trazado 387" d="M89.888,84.525H75.357a.488.488,0,1,1,0-.972H89.888a.488.488,0,1,1,0,.972" fill="#3e145e"/>
    <path id="Trazado_388" data-name="Trazado 388" d="M89.888,87.393H75.357a.488.488,0,1,1,0-.972H89.888a.488.488,0,1,1,0,.972" fill="#3e145e"/>
    <path id="Trazado_389" data-name="Trazado 389" d="M89.888,90.261H75.357a.488.488,0,1,1,0-.972H89.888a.488.488,0,1,1,0,.972" fill="#3e145e"/>
    <path id="Trazado_390" data-name="Trazado 390" d="M85.593,44.6a8.559,8.559,0,0,1-17.094,0,8.559,8.559,0,0,1,17.094,0" fill="#ffe227"/>
    <path id="Trazado_391" data-name="Trazado 391" d="M43.114,63.1q-.352,0-.706-.013c-10.2-.362-18.491-9.158-18.491-19.608V31.067a4.019,4.019,0,0,1,4.014-4.015h3a1.179,1.179,0,1,1,0,2.357h-3a1.659,1.659,0,0,0-1.656,1.658V43.475c0,9.195,7.275,16.934,16.216,17.252a16.831,16.831,0,0,0,17.446-16.82V31.067a1.659,1.659,0,0,0-1.655-1.658h-3a1.179,1.179,0,1,1,0-2.357h3A4.019,4.019,0,0,1,62.3,31.067v12.84A19.191,19.191,0,0,1,43.114,63.1" fill="#3e145e"/>
    <path id="Trazado_392" data-name="Trazado 392" d="M32.879,33.439h-1.7A1.178,1.178,0,0,1,30,32.261V24.034a1.18,1.18,0,0,1,1.179-1.18h1.7a5.292,5.292,0,0,1,0,10.585m-.517-2.357h.517a2.935,2.935,0,0,0,0-5.869h-.517Z" fill="#3e145e"/>
    <path id="Trazado_393" data-name="Trazado 393" d="M55.03,33.44H53.335a5.292,5.292,0,1,1,0-10.585H55.03a1.179,1.179,0,0,1,1.18,1.179v8.227a1.179,1.179,0,0,1-1.18,1.179m-1.695-8.227a2.935,2.935,0,1,0,0,5.869h.517V25.213Z" fill="#3e145e"/>
    <path id="Trazado_394" data-name="Trazado 394" d="M72.538,73.963H68.529a1.178,1.178,0,0,1,0-2.357h4.009a3.335,3.335,0,0,0,3.33-3.331V53.412a1.179,1.179,0,0,1,2.358,0V68.275a5.7,5.7,0,0,1-5.688,5.688" fill="#3e145e"/>
    <path id="Trazado_395" data-name="Trazado 395" d="M50.358,73.963H48.472a1.178,1.178,0,1,1,0-2.357h1.886a1.178,1.178,0,1,1,0,2.357" fill="#3e145e"/>
    <path id="Trazado_396" data-name="Trazado 396" d="M60.129,73.963H56.873a1.178,1.178,0,1,1,0-2.357h3.256a1.178,1.178,0,1,1,0,2.357" fill="#3e145e"/>
    <path id="Trazado_397" data-name="Trazado 397" d="M68.529,73.963H66.643a1.178,1.178,0,0,1,0-2.357h1.886a1.178,1.178,0,1,1,0,2.357" fill="#3e145e"/>
    <path id="Trazado_398" data-name="Trazado 398" d="M38.017,84.83a5.694,5.694,0,0,1-5.688-5.688V77.293a5.693,5.693,0,0,1,5.688-5.687h3.331V66.859a1.179,1.179,0,0,1,2.357,0v4.747h4.767a1.178,1.178,0,1,1,0,2.357H43.705v5.179a5.694,5.694,0,0,1-5.688,5.688m0-10.867a3.335,3.335,0,0,0-3.331,3.33v1.849a3.331,3.331,0,1,0,6.662,0V73.963Z" fill="#3e145e"/>
    <path id="Trazado_399" data-name="Trazado 399" d="M42.728,67.9H42.29a3.641,3.641,0,0,1-3.637-3.638V61.592a1.178,1.178,0,0,1,1.4-1.158,16.151,16.151,0,0,0,2.44.293,17.061,17.061,0,0,0,2.562-.124,1.192,1.192,0,0,1,.92.291,1.177,1.177,0,0,1,.394.88v2.492A3.642,3.642,0,0,1,42.728,67.9M41.01,62.971v1.295a1.282,1.282,0,0,0,1.28,1.28h.438a1.281,1.281,0,0,0,1.28-1.28v-1.2c-.56.033-1.085.041-1.6.021-.453-.016-.912-.052-1.4-.112" fill="#3e145e"/>
    <path id="Trazado_400" data-name="Trazado 400" d="M77.047,54.591a9.991,9.991,0,1,1,9.99-9.991,10,10,0,0,1-9.99,9.991m0-17.624A7.634,7.634,0,1,0,84.68,44.6a7.642,7.642,0,0,0-7.633-7.633" fill="#3e145e"/>
    <path id="Trazado_401" data-name="Trazado 401" d="M77.047,50.1a5.495,5.495,0,1,1,0-10.989,1.179,1.179,0,1,1,0,2.357A3.137,3.137,0,1,0,80.184,44.6a1.179,1.179,0,1,1,2.357,0,5.5,5.5,0,0,1-5.494,5.5" fill="#3e145e"/>
  </g>
</svg>
