<svg id="Grupo_4" data-name="Grupo 4" xmlns="http://www.w3.org/2000/svg" xmlns:xlink="http://www.w3.org/1999/xlink" width="121.595" height="121.595" viewBox="0 0 121.595 121.595">
  <defs>
    <clipPath id="clip-path">
      <rect id="Rectángulo_5" data-name="Rectángulo 5" width="121.595" height="121.595" fill="none"/>
    </clipPath>
  </defs>
  <g id="Grupo_3" data-name="Grupo 3" clip-path="url(#clip-path)">
    <path id="Trazado_16" data-name="Trazado 16" d="M119.427,60.8A58.63,58.63,0,1,1,60.8,2.168,58.63,58.63,0,0,1,119.427,60.8" fill="#fff"/>
    <path id="Trazado_17" data-name="Trazado 17" d="M60.8,121.6a60.8,60.8,0,1,1,60.8-60.8,60.866,60.866,0,0,1-60.8,60.8m0-117.259A56.462,56.462,0,1,0,117.26,60.8,56.526,56.526,0,0,0,60.8,4.336" fill="#3e145e"/>
    <rect id="Rectángulo_3" data-name="Rectángulo 3" width="10.541" height="38.963" transform="translate(53.302 37.489)" fill="#ffe227"/>
    <rect id="Rectángulo_4" data-name="Rectángulo 4" width="41.414" height="11.766" transform="translate(39.703 51.088)" fill="#ffe227"/>
    <path id="Trazado_18" data-name="Trazado 18" d="M84.939,86.787H34.658a6.578,6.578,0,0,1-6.571-6.57V78.4a1.226,1.226,0,0,1,2.452,0v1.818a4.124,4.124,0,0,0,4.119,4.12H84.939a4.124,4.124,0,0,0,4.118-4.12V54.335a1.225,1.225,0,0,1,2.45,0V80.217a6.576,6.576,0,0,1-6.568,6.57" fill="#3e145e"/>
    <path id="Trazado_19" data-name="Trazado 19" d="M29.313,71.144a1.225,1.225,0,0,1-1.226-1.225V34.95a6.579,6.579,0,0,1,6.571-6.571H84.939a6.577,6.577,0,0,1,6.568,6.571v1.867a1.225,1.225,0,0,1-2.45,0V34.95a4.124,4.124,0,0,0-4.118-4.12H34.658a4.124,4.124,0,0,0-4.119,4.12V69.919a1.225,1.225,0,0,1-1.226,1.225" fill="#3e145e"/>
    <path id="Trazado_20" data-name="Trazado 20" d="M65.068,78.9H54.526A1.225,1.225,0,0,1,53.3,77.678v-13.6H39.7a1.224,1.224,0,0,1-1.224-1.225V52.312A1.224,1.224,0,0,1,39.7,51.087H53.3v-13.6a1.224,1.224,0,0,1,1.224-1.225H65.068a1.224,1.224,0,0,1,1.225,1.225v13.6h13.6a1.226,1.226,0,0,1,1.225,1.225V62.853a1.225,1.225,0,0,1-1.225,1.225h-13.6v13.6A1.225,1.225,0,0,1,65.068,78.9m-9.316-2.451h8.091v-13.6a1.226,1.226,0,0,1,1.225-1.225h13.6v-8.09h-13.6a1.226,1.226,0,0,1-1.225-1.226v-13.6H55.752v13.6a1.226,1.226,0,0,1-1.226,1.226h-13.6v8.09h13.6a1.226,1.226,0,0,1,1.226,1.225Z" fill="#3e145e"/>
    <path id="Trazado_21" data-name="Trazado 21" d="M42.492,46.791a1.225,1.225,0,0,1-.866-2.091L47.3,39.026a1.225,1.225,0,0,1,1.732,1.733l-5.673,5.673a1.222,1.222,0,0,1-.866.359" fill="#3e145e"/>
    <path id="Trazado_22" data-name="Trazado 22" d="M73.206,46.217a1.225,1.225,0,0,1-.866-2.092l5.071-5.071a1.225,1.225,0,1,1,1.732,1.733l-5.071,5.071a1.222,1.222,0,0,1-.866.359" fill="#3e145e"/>
    <path id="Trazado_23" data-name="Trazado 23" d="M70.571,72.462A1.225,1.225,0,0,1,69.7,70.37l2.636-2.636a1.225,1.225,0,0,1,1.733,1.733L71.437,72.1a1.222,1.222,0,0,1-.866.359" fill="#3e145e"/>
    <path id="Trazado_24" data-name="Trazado 24" d="M40.43,77.046a1.225,1.225,0,0,1-.866-2.091l5.2-5.2A1.225,1.225,0,1,1,46.5,71.486l-5.2,5.2a1.222,1.222,0,0,1-.866.359" fill="#3e145e"/>
    <path id="Trazado_25" data-name="Trazado 25" d="M76.072,92.747H43.524A1.225,1.225,0,0,1,42.3,91.522v-5.96a1.224,1.224,0,0,1,1.225-1.225H76.072A1.225,1.225,0,0,1,77.3,85.562v5.96a1.226,1.226,0,0,1-1.225,1.225M44.749,90.3h30.1V86.787h-30.1Z" fill="#3e145e"/>
    <path id="Trazado_26" data-name="Trazado 26" d="M81.229,100.234H38.366a1.224,1.224,0,0,1-1.224-1.225V94.463A3.914,3.914,0,0,1,40.731,90.3H78.864a3.914,3.914,0,0,1,3.589,4.166v4.546a1.224,1.224,0,0,1-1.224,1.225m-41.637-2.45H80V94.463c0-1.011-.6-1.716-1.139-1.716H40.731c-.539,0-1.139.705-1.139,1.716Z" fill="#3e145e"/>
    <path id="Trazado_27" data-name="Trazado 27" d="M90.282,100.234H29.312a1.225,1.225,0,0,1,0-2.45h60.97a1.225,1.225,0,1,1,0,2.45" fill="#3e145e"/>
    <path id="Trazado_28" data-name="Trazado 28" d="M90.282,40.675a1.225,1.225,0,0,1-1.226-1.225V37.489a1.226,1.226,0,0,1,2.451,0V39.45a1.224,1.224,0,0,1-1.225,1.225" fill="#3e145e"/>
    <path id="Trazado_29" data-name="Trazado 29" d="M90.282,48.43a1.225,1.225,0,0,1-1.226-1.225V44.619a1.226,1.226,0,0,1,2.451,0v2.586a1.224,1.224,0,0,1-1.225,1.225" fill="#3e145e"/>
    <path id="Trazado_30" data-name="Trazado 30" d="M90.282,55.561a1.226,1.226,0,0,1-1.226-1.225V52.375a1.226,1.226,0,0,1,2.451,0v1.961a1.225,1.225,0,0,1-1.225,1.225" fill="#3e145e"/>
  </g>
</svg>
