<svg xmlns="http://www.w3.org/2000/svg" xmlns:xlink="http://www.w3.org/1999/xlink" width="89.17" height="66.878" viewBox="0 0 89.17 66.878">
  <defs>
    <clipPath id="clip-path">
      <rect id="Rectángulo_34" data-name="Rectángulo 34" width="89.17" height="66.878" transform="translate(0 0)" fill="none"/>
    </clipPath>
  </defs>
  <g id="Grupo_27" data-name="Grupo 27" transform="translate(0 0)">
    <g id="Grupo_26" data-name="Grupo 26" clip-path="url(#clip-path)">
      <path id="Trazado_294" data-name="Trazado 294" d="M70.578,31.439c-.205-6.864-1.048-11.983-.7-18.869.074-1.612,1.442-1.827-.126-3.031C67.061,7.473,63.613,8.3,60.53,9.412c-2.188.792-3.687-.2-6.1.022a43.83,43.83,0,0,1-6.315-.174Q34.112,8.531,20.11,9.208c-1.412.066-4.643.15-5.435.944-2.972-1.306-5.116.6-5.08,4.819.091,11.15-.813,22.942.455,34.156C6.935,51.5,7.961,57.989,13.1,58.275c17.712.987,34.417-.105,53.495-.873a.531.531,0,0,0,.1-.029,4.1,4.1,0,0,0,4.1-2.549c1.69-3.524-1.166-7.446-.692-11.357a81.032,81.032,0,0,0,.472-12.028" fill="#ffe227"/>
      <path id="Trazado_295" data-name="Trazado 295" d="M87.259,0H1.911A1.914,1.914,0,0,0,0,1.912V64.967a1.913,1.913,0,0,0,1.911,1.911H87.259a1.913,1.913,0,0,0,1.911-1.911V1.912A1.914,1.914,0,0,0,87.259,0M85.986,63.694H3.185V3.185h82.8Z" fill="#3e145e"/>
      <path id="Trazado_296" data-name="Trazado 296" d="M9.541,59.139H69.413a1.913,1.913,0,0,0,1.91-1.911V9.675a1.913,1.913,0,0,0-1.91-1.911H9.541A1.914,1.914,0,0,0,7.63,9.675V57.228a1.913,1.913,0,0,0,1.911,1.911m1.274-48.19H68.138v25.6h-1.1l-2.479-9.333a1.9,1.9,0,0,0-3.636-.17l-3.458,9.5H53.775a1.924,1.924,0,0,0-1.835,1.405l-.966,3.391L45.816,19.5a1.906,1.906,0,0,0-1.76-1.511,1.873,1.873,0,0,0-1.916,1.332L36.6,36.55H33.83a1.9,1.9,0,0,0-1.722,1.1l-2.747,5.815-5.727-16.7a1.9,1.9,0,0,0-1.738-1.3,1.881,1.881,0,0,0-1.818,1.172L15.865,36.55h-5.05Zm0,28.786h5.9a1.905,1.905,0,0,0,1.752-1.174L21.7,30.952,27.37,47.479a1.911,1.911,0,0,0,1.7,1.3c.034,0,.067,0,.1,0a1.9,1.9,0,0,0,1.72-1.1l3.753-7.944h2.887A1.925,1.925,0,0,0,39.346,38.4L43.764,24.67,49,46.828a1.9,1.9,0,0,0,3.7.108l2.052-7.2h3.626a1.922,1.922,0,0,0,1.791-1.271l2.365-6.5L64.21,38.3a1.922,1.922,0,0,0,1.844,1.437h2.084v16.22H10.815Z" fill="#3e145e"/>
      <path id="Trazado_297" data-name="Trazado 297" d="M76.665,14.161h3.98a1.593,1.593,0,1,0,0-3.185h-3.98a1.593,1.593,0,1,0,0,3.185" fill="#3e145e"/>
      <path id="Trazado_298" data-name="Trazado 298" d="M76.665,21.122h3.98a1.592,1.592,0,1,0,0-3.185h-3.98a1.592,1.592,0,1,0,0,3.185" fill="#3e145e"/>
      <path id="Trazado_299" data-name="Trazado 299" d="M76.665,28.083h3.98a1.592,1.592,0,1,0,0-3.185h-3.98a1.592,1.592,0,1,0,0,3.185" fill="#3e145e"/>
      <path id="Trazado_300" data-name="Trazado 300" d="M76.665,35.043h3.98a1.592,1.592,0,1,0,0-3.185h-3.98a1.592,1.592,0,1,0,0,3.185" fill="#3e145e"/>
      <path id="Trazado_301" data-name="Trazado 301" d="M75.49,59.139h6.331a1.913,1.913,0,0,0,1.91-1.911v-6.39a1.913,1.913,0,0,0-1.91-1.911H75.49a1.915,1.915,0,0,0-1.911,1.911v6.39a1.914,1.914,0,0,0,1.911,1.911m1.275-7.027h3.781v3.843H76.765Z" fill="#3e145e"/>
    </g>
  </g>
</svg>
