<svg xmlns="http://www.w3.org/2000/svg" xmlns:xlink="http://www.w3.org/1999/xlink" width="99.574" height="71.564" viewBox="0 0 99.574 71.564">
  <defs>
    <clipPath id="clip-path">
      <rect id="Rectángulo_15" data-name="Rectángulo 15" width="99.574" height="71.564" transform="translate(0 0)" fill="none"/>
    </clipPath>
  </defs>
  <g id="Grupo_10" data-name="Grupo 10" transform="translate(0 0)">
    <g id="Grupo_9" data-name="Grupo 9" clip-path="url(#clip-path)">
      <path id="Trazado_52" data-name="Trazado 52" d="M82.148,71.565A9.768,9.768,0,1,1,91.915,61.8a9.778,9.778,0,0,1-9.767,9.767m0-16.494A6.727,6.727,0,1,0,88.875,61.8a6.735,6.735,0,0,0-6.727-6.727" fill="#3e145e"/>
      <path id="Trazado_53" data-name="Trazado 53" d="M22.018,71.565A9.768,9.768,0,1,1,31.786,61.8a9.778,9.778,0,0,1-9.768,9.767m0-16.494A6.727,6.727,0,1,0,28.745,61.8a6.734,6.734,0,0,0-6.727-6.727" fill="#3e145e"/>
      <path id="Trazado_54" data-name="Trazado 54" d="M22.018,66.406a4.609,4.609,0,1,1,4.61-4.609,4.615,4.615,0,0,1-4.61,4.609m0-6.178A1.569,1.569,0,1,0,23.587,61.8a1.571,1.571,0,0,0-1.569-1.569" fill="#3e145e"/>
      <path id="Trazado_55" data-name="Trazado 55" d="M94.238,58.037H88.859a1.521,1.521,0,0,1,0-3.041h5.379a1.521,1.521,0,0,1,0,3.041" fill="#3e145e"/>
      <path id="Trazado_56" data-name="Trazado 56" d="M58.985,48.85H3.9a1.521,1.521,0,1,1,0-3.041H58.985a1.521,1.521,0,1,1,0,3.041" fill="#3e145e"/>
      <path id="Trazado_57" data-name="Trazado 57" d="M46.62,41.788H19.358a1.52,1.52,0,0,1-1.521-1.52V25.81a1.52,1.52,0,0,1,1.521-1.52H46.62a1.52,1.52,0,0,1,1.521,1.52V40.268a1.52,1.52,0,0,1-1.521,1.52m-25.742-3.04H45.1V27.331H20.878Z" fill="#3e145e"/>
      <path id="Trazado_58" data-name="Trazado 58" d="M82.148,66.406A4.609,4.609,0,1,1,86.757,61.8a4.614,4.614,0,0,1-4.609,4.609m0-6.178A1.569,1.569,0,1,0,83.716,61.8a1.571,1.571,0,0,0-1.568-1.569" fill="#3e145e"/>
      <path id="Trazado_59" data-name="Trazado 59" d="M95.413,63.317H90.395a1.519,1.519,0,0,1-1.52-1.52,6.727,6.727,0,1,0-13.454,0,1.52,1.52,0,0,1-1.52,1.52H30.265a1.52,1.52,0,0,1-1.521-1.52,6.726,6.726,0,1,0-13.452,0,1.52,1.52,0,0,1-1.52,1.52H7.87a5.5,5.5,0,0,1-5.489-5.49V22.507a5.5,5.5,0,0,1,5.489-5.49H70.516a9.436,9.436,0,0,1,8.616,5.6l5.041,11.354,6.746,2.573a7.557,7.557,0,0,1,4.838,7.022V55.025a4.26,4.26,0,0,1,3.8,3.709,4.162,4.162,0,0,1-4.14,4.583M91.8,60.277h3.616a1.106,1.106,0,0,0,.832-.37,1.119,1.119,0,0,0,.282-.87,1.234,1.234,0,0,0-1.263-1H94.237a1.52,1.52,0,0,1-1.52-1.52V43.568a4.5,4.5,0,0,0-2.881-4.182l-7.337-2.8a1.524,1.524,0,0,1-.848-.8l-5.3-11.932a6.392,6.392,0,0,0-5.837-3.8H7.87a2.452,2.452,0,0,0-2.448,2.449v35.32a2.452,2.452,0,0,0,2.448,2.45h4.5a9.768,9.768,0,0,1,19.3,0H72.5a9.768,9.768,0,0,1,19.3,0" fill="#3e145e"/>
      <path id="Trazado_60" data-name="Trazado 60" d="M83.04,36.688H63.192a1.52,1.52,0,0,1,0-3.04h9.97l-2.94-6.791h-7.03a1.52,1.52,0,1,1,0-3.04h8.029a1.519,1.519,0,0,1,1.394.916l3.861,8.915H83.04a1.52,1.52,0,1,1,0,3.04" fill="#3e145e"/>
      <path id="Trazado_61" data-name="Trazado 61" d="M58.985,63.317a1.52,1.52,0,0,1-1.521-1.52V18.538a1.521,1.521,0,0,1,3.042,0V61.8a1.52,1.52,0,0,1-1.521,1.52" fill="#3e145e"/>
      <path id="Trazado_62" data-name="Trazado 62" d="M32.989,41.788a1.521,1.521,0,0,1-1.52-1.521V25.809a1.52,1.52,0,0,1,3.041,0V40.267a1.521,1.521,0,0,1-1.521,1.521" fill="#3e145e"/>
      <path id="Trazado_63" data-name="Trazado 63" d="M25.071,36.315A1.52,1.52,0,0,1,24,33.719l3.51-3.509a1.52,1.52,0,1,1,2.149,2.149L26.146,35.87a1.515,1.515,0,0,1-1.075.445" fill="#3e145e"/>
      <path id="Trazado_64" data-name="Trazado 64" d="M38.211,36.315a1.52,1.52,0,0,1-1.074-2.6l3.51-3.509A1.52,1.52,0,1,1,42.8,32.359l-3.51,3.511a1.512,1.512,0,0,1-1.075.445" fill="#3e145e"/>
      <path id="Trazado_65" data-name="Trazado 65" d="M94.237,51.434H90.631a4.18,4.18,0,1,1,0-8.361h3.606a1.521,1.521,0,0,1,1.52,1.52v5.321a1.52,1.52,0,0,1-1.52,1.52m-3.606-5.32a1.14,1.14,0,1,0,0,2.28h2.086v-2.28Z" fill="#3e145e"/>
      <path id="Trazado_66" data-name="Trazado 66" d="M69.424,45.506H65.547a1.521,1.521,0,0,1,0-3.041h3.877a1.521,1.521,0,0,1,0,3.041" fill="#3e145e"/>
      <path id="Trazado_67" data-name="Trazado 67" d="M55.64,20.058H45.809a1.521,1.521,0,0,1-1.52-1.52V15.354a6.435,6.435,0,1,1,12.871,0v3.184a1.521,1.521,0,0,1-1.52,1.52m-8.31-3.041h6.79V15.354a3.395,3.395,0,1,0-6.79,0Z" fill="#3e145e"/>
      <path id="Trazado_68" data-name="Trazado 68" d="M50.725,6.993A1.521,1.521,0,0,1,49.2,5.472V1.52a1.521,1.521,0,0,1,3.042,0V5.472a1.521,1.521,0,0,1-1.521,1.521" fill="#3e145e"/>
      <path id="Trazado_69" data-name="Trazado 69" d="M55.64,9.325a1.521,1.521,0,0,1-1.074-2.6l3.647-3.648a1.521,1.521,0,0,1,2.151,2.15L56.715,8.879a1.514,1.514,0,0,1-1.075.446" fill="#3e145e"/>
      <path id="Trazado_70" data-name="Trazado 70" d="M45.81,9.325a1.516,1.516,0,0,1-1.075-.446L41.086,5.231a1.521,1.521,0,0,1,2.151-2.15l3.648,3.648a1.521,1.521,0,0,1-1.075,2.6" fill="#3e145e"/>
      <path id="Trazado_71" data-name="Trazado 71" d="M98.054,71.564H1.52a1.521,1.521,0,0,1,0-3.041H98.054a1.521,1.521,0,0,1,0,3.041" fill="#3e145e"/>
    </g>
  </g>
</svg>
