<svg xmlns="http://www.w3.org/2000/svg" xmlns:xlink="http://www.w3.org/1999/xlink" width="66.876" height="89.203" viewBox="0 0 66.876 89.203">
  <defs>
    <clipPath id="clip-path">
      <rect id="Rectángulo_40" data-name="Rectángulo 40" width="66.876" height="89.203" transform="translate(0 0)" fill="none"/>
    </clipPath>
  </defs>
  <g id="Grupo_38" data-name="Grupo 38" transform="translate(0 0)">
    <g id="Grupo_37" data-name="Grupo 37" clip-path="url(#clip-path)">
      <path id="Trazado_362" data-name="Trazado 362" d="M66.645,69.637A10.864,10.864,0,1,1,55.781,58.773,10.863,10.863,0,0,1,66.645,69.637" fill="#ffe227"/>
      <path id="Trazado_363" data-name="Trazado 363" d="M55.628,51.292S43.693,46.285,44.8,35.109c0,0,4.912-10.02,10.21-1.882,0,0,8.624-10.305,11.634,4.853,0,0-4.33,11.013-11.017,13.212" fill="#ffe227"/>
      <path id="Trazado_364" data-name="Trazado 364" d="M26.345,89.2H9.311a1.417,1.417,0,0,1-1.416-1.417v-34.6a5.155,5.155,0,0,1-2.358.567H5.191A5.2,5.2,0,0,1,0,48.559v-18.7A8.87,8.87,0,0,1,8.861,21H26.8a8.87,8.87,0,0,1,8.861,8.86v18.7a5.2,5.2,0,0,1-5.191,5.19h-.346a5.155,5.155,0,0,1-2.358-.567v34.6A1.417,1.417,0,0,1,26.345,89.2M10.728,86.37h14.2V48.559a1.416,1.416,0,1,1,2.832,0,2.361,2.361,0,0,0,2.358,2.357h.346a2.361,2.361,0,0,0,2.358-2.357v-18.7A6.034,6.034,0,0,0,26.8,23.836H8.861a6.035,6.035,0,0,0-6.028,6.027v18.7a2.361,2.361,0,0,0,2.358,2.357h.346a2.361,2.361,0,0,0,2.358-2.357,1.416,1.416,0,1,1,2.833,0Z" fill="#3e145e"/>
      <path id="Trazado_365" data-name="Trazado 365" d="M9.311,49.976A1.416,1.416,0,0,1,7.895,48.56V35.853a1.416,1.416,0,0,1,2.833,0V48.56a1.417,1.417,0,0,1-1.417,1.416" fill="#3e145e"/>
      <path id="Trazado_366" data-name="Trazado 366" d="M26.345,49.976a1.416,1.416,0,0,1-1.416-1.416V35.853a1.416,1.416,0,1,1,2.832,0V48.56a1.416,1.416,0,0,1-1.416,1.416" fill="#3e145e"/>
      <path id="Trazado_367" data-name="Trazado 367" d="M17.827,19.382A9.485,9.485,0,0,1,8.586,9.69,9.484,9.484,0,0,1,17.827,0a9.484,9.484,0,0,1,9.241,9.69,9.485,9.485,0,0,1-9.241,9.692m0-16.549A6.651,6.651,0,0,0,11.42,9.69a6.652,6.652,0,0,0,6.407,6.859A6.652,6.652,0,0,0,24.235,9.69a6.651,6.651,0,0,0-6.408-6.857" fill="#3e145e"/>
      <path id="Trazado_368" data-name="Trazado 368" d="M17.827,89.2a1.417,1.417,0,0,1-1.416-1.417V58.912a1.417,1.417,0,1,1,2.833,0V87.786A1.417,1.417,0,0,1,17.827,89.2" fill="#3e145e"/>
      <path id="Trazado_369" data-name="Trazado 369" d="M53.833,50.761a1.435,1.435,0,0,1-.617-.141c-7.892-3.82-10.778-8.6-11.81-11.934a9.014,9.014,0,0,1-.47-2.28,5.806,5.806,0,0,1-.029-.714c0-4.679,3.554-8.509,7.922-8.509a7.553,7.553,0,0,1,5,1.915,7.554,7.554,0,0,1,5-1.915c4.367,0,7.919,3.825,7.923,8.528a5.639,5.639,0,0,1-.033.726,8.931,8.931,0,0,1-.471,2.264c-1.035,3.337-3.925,8.1-11.8,11.919a1.431,1.431,0,0,1-.617.141m-5-20.745c-2.806,0-5.09,2.558-5.09,5.7a3.686,3.686,0,0,0,.021.448A6.229,6.229,0,0,0,44.1,37.8c.7,2.276,2.88,6.469,9.736,9.965,6.861-3.5,9.036-7.694,9.723-9.921A6.4,6.4,0,0,0,63.9,36.2a3.859,3.859,0,0,0,.024-.431c0-3.193-2.285-5.751-5.091-5.751a4.879,4.879,0,0,0-3.875,2.011,1.47,1.47,0,0,1-2.256,0,4.878,4.878,0,0,0-3.876-2.011" fill="#3e145e"/>
      <path id="Trazado_370" data-name="Trazado 370" d="M56.252,76.9H51.414A1.418,1.418,0,0,1,50,75.481V72.146H46.663a1.417,1.417,0,0,1-1.417-1.417V65.891a1.417,1.417,0,0,1,1.417-1.417H50V61.14a1.418,1.418,0,0,1,1.417-1.417h4.838a1.418,1.418,0,0,1,1.417,1.417v3.334H61a1.417,1.417,0,0,1,1.416,1.417v4.838A1.417,1.417,0,0,1,61,72.146H57.669v3.335A1.418,1.418,0,0,1,56.252,76.9m-3.421-2.833h2V70.729a1.416,1.416,0,0,1,1.416-1.416h3.335V67.307H56.252a1.416,1.416,0,0,1-1.416-1.416V62.556h-2v3.335a1.417,1.417,0,0,1-1.417,1.416H48.079v2.006h3.335a1.417,1.417,0,0,1,1.417,1.416Z" fill="#3e145e"/>
      <path id="Trazado_371" data-name="Trazado 371" d="M53.833,81.353A13.043,13.043,0,1,1,66.876,68.31,13.058,13.058,0,0,1,53.833,81.353m0-23.253a10.21,10.21,0,1,0,10.21,10.21A10.222,10.222,0,0,0,53.833,58.1" fill="#3e145e"/>
      <path id="Trazado_372" data-name="Trazado 372" d="M65.46,89.2H1.417a1.417,1.417,0,1,1,0-2.833H65.46a1.417,1.417,0,0,1,0,2.833" fill="#3e145e"/>
    </g>
  </g>
</svg>
