<svg id="Grupo_21" data-name="Grupo 21" xmlns="http://www.w3.org/2000/svg" xmlns:xlink="http://www.w3.org/1999/xlink" width="98.814" height="103.314" viewBox="0 0 98.814 103.314">
  <defs>
    <clipPath id="clip-path">
      <rect id="Rectángulo_29" data-name="Rectángulo 29" width="98.814" height="103.314" transform="translate(0 0)" fill="none"/>
    </clipPath>
  </defs>
  <g id="Grupo_20" data-name="Grupo 20" clip-path="url(#clip-path)">
    <path id="Trazado_264" data-name="Trazado 264" d="M96.566,19.908A15.787,15.787,0,1,1,80.779,4.121,15.787,15.787,0,0,1,96.566,19.908" fill="#ffe227"/>
    <path id="Trazado_265" data-name="Trazado 265" d="M48.251,70.517a1.406,1.406,0,0,1-.94-.357,10.824,10.824,0,0,1-2.838-4.644,14.349,14.349,0,0,1-9.812,0,10.833,10.833,0,0,1-2.838,4.644,1.417,1.417,0,0,1-1.882-2.119,9.587,9.587,0,0,0,2.451-4.809,1.416,1.416,0,0,1,2.005-.911,11.522,11.522,0,0,0,10.339,0,1.416,1.416,0,0,1,2.005.911,9.6,9.6,0,0,0,2.45,4.809,1.416,1.416,0,0,1-.94,2.476" fill="#3e145e"/>
    <path id="Trazado_266" data-name="Trazado 266" d="M54.184,51.871a4.737,4.737,0,0,1-2.306-.608,1.416,1.416,0,0,1-.735-1.241v-8.9a1.416,1.416,0,0,1,.735-1.241,4.737,4.737,0,0,1,2.306-.608c2.98,0,5.4,2.826,5.4,6.3s-2.424,6.3-5.4,6.3m-.208-2.846c1.461.17,2.779-1.481,2.779-3.454s-1.316-3.63-2.779-3.455Z" fill="#3e145e"/>
    <path id="Trazado_267" data-name="Trazado 267" d="M24.948,51.871c-2.98,0-5.4-2.827-5.4-6.3s2.424-6.3,5.4-6.3a4.75,4.75,0,0,1,2.307.607,1.417,1.417,0,0,1,.734,1.242v8.9a1.415,1.415,0,0,1-.734,1.241,4.751,4.751,0,0,1-2.307.608m0-9.768c-1.394,0-2.571,1.588-2.571,3.468,0,1.972,1.309,3.629,2.779,3.454V42.116a1.829,1.829,0,0,0-.208-.013" fill="#3e145e"/>
    <path id="Trazado_268" data-name="Trazado 268" d="M39.566,66.385a14.427,14.427,0,0,1-14.41-14.41V38.086a1.416,1.416,0,0,1,1.792-1.366c.056.014,5.546,1.527,9.051,2.614,5.821,1.8,14.469-1.277,15.616-2.3a1.417,1.417,0,0,1,2.361,1.056V51.975a14.426,14.426,0,0,1-14.41,14.41M27.989,39.95V51.975a11.577,11.577,0,0,0,23.154,0V40.456c-3.682,1.578-10.531,3.275-15.984,1.584-2.223-.69-5.264-1.555-7.17-2.09" fill="#3e145e"/>
    <path id="Trazado_269" data-name="Trazado 269" d="M74.515,103.314H4.619A1.416,1.416,0,0,1,3.2,101.9V89.437A21.778,21.778,0,0,1,24.954,67.684h5.929a1.417,1.417,0,0,1,1.035,2.383,2.7,2.7,0,0,0-.837,1.833c0,1.953,2.892,3.83,6.6,4.291h3.77c3.708-.461,6.6-2.338,6.6-4.291a2.709,2.709,0,0,0-.837-1.833,1.417,1.417,0,0,1,1.036-2.383h5.928A21.778,21.778,0,0,1,75.931,89.437V101.9a1.416,1.416,0,0,1-1.416,1.417m-68.48-2.833H73.1V89.437a18.941,18.941,0,0,0-18.919-18.92H50.686a4.952,4.952,0,0,1,.2,1.383c0,3.548-3.776,6.474-9.181,7.114a1.336,1.336,0,0,1-.167.01H37.6a1.34,1.34,0,0,1-.168-.01c-5.406-.64-9.181-3.566-9.181-7.114a4.914,4.914,0,0,1,.2-1.383H24.954A18.941,18.941,0,0,0,6.035,89.437Z" fill="#3e145e"/>
    <path id="Trazado_270" data-name="Trazado 270" d="M77.716,103.314H1.416a1.417,1.417,0,1,1,0-2.833h76.3a1.417,1.417,0,0,1,0,2.833" fill="#3e145e"/>
    <path id="Trazado_271" data-name="Trazado 271" d="M58.172,46.987a1.417,1.417,0,0,1-1.417-1.416c0-2.3-1.819-4.138-3.513-3.21a1.418,1.418,0,0,1-2.1-1.242v-.663c-3.683,1.579-10.535,3.273-15.984,1.583-2.223-.689-5.264-1.554-7.17-2.089v1.169a1.418,1.418,0,0,1-2.1,1.242c-1.7-.933-3.515.906-3.515,3.21a1.417,1.417,0,0,1-2.833,0V35.706a8.422,8.422,0,0,1-1.49-4.8A8.519,8.519,0,0,1,29.78,23.01a7.507,7.507,0,0,1,13.681.816A7.016,7.016,0,0,1,50,23.31a7.3,7.3,0,0,1,4.133-1.291A7.374,7.374,0,0,1,61.5,29.385a7.253,7.253,0,0,1-1.911,4.927V45.571a1.415,1.415,0,0,1-1.416,1.416M54.185,39.27a4.762,4.762,0,0,1,2.57.76v-6.3a1.414,1.414,0,0,1,.452-1.037,4.478,4.478,0,0,0,1.459-3.309A4.51,4.51,0,0,0,51.1,26.043a1.415,1.415,0,0,1-1.715.145,4.031,4.031,0,0,0-2.175-.638,3.975,3.975,0,0,0-3.388,1.861,1.418,1.418,0,0,1-2.617-.706,4.9,4.9,0,0,0-4.772-4.9,4.808,4.808,0,0,0-4.578,3.577,1.418,1.418,0,0,1-2.145.784,5.679,5.679,0,0,0-7.632,8.211,1.42,1.42,0,0,1,.3.869V40.03a4.84,4.84,0,0,1,2.78-.756V38.085a1.415,1.415,0,0,1,1.792-1.366c.055.015,5.546,1.528,9.05,2.614,5.825,1.807,14.47-1.276,15.617-2.3a1.416,1.416,0,0,1,2.361,1.055v1.189c.069,0,.139,0,.209,0" fill="#3e145e"/>
    <path id="Trazado_272" data-name="Trazado 272" d="M50.582,53.366c-13.852-5.591-21.4-.4-21.717-.173l-1.759-2.43c.365-.266,9.108-6.432,24.6-.178Z" fill="#3e145e"/>
    <path id="Trazado_273" data-name="Trazado 273" d="M83.361,31.462H76.322a2.06,2.06,0,0,1-2.059-2.06V24.55H69.412a2.06,2.06,0,0,1-2.06-2.061V15.452a2.06,2.06,0,0,1,2.06-2.06h4.851V8.542a2.059,2.059,0,0,1,2.059-2.06h7.039a2.06,2.06,0,0,1,2.06,2.06v4.85h4.851a2.06,2.06,0,0,1,2.059,2.06v7.037a2.06,2.06,0,0,1-2.059,2.061H85.421V29.4a2.061,2.061,0,0,1-2.06,2.06m-4.977-4.121H81.3V22.489a2.061,2.061,0,0,1,2.061-2.06h4.85V17.513h-4.85A2.061,2.061,0,0,1,81.3,15.452V10.6H78.384v4.849a2.062,2.062,0,0,1-2.062,2.061H71.473v2.916h4.849a2.061,2.061,0,0,1,2.062,2.06Z" fill="#3e145e"/>
    <path id="Trazado_274" data-name="Trazado 274" d="M79.842,37.943A18.972,18.972,0,1,1,98.814,18.972,18.993,18.993,0,0,1,79.842,37.943m0-33.822A14.85,14.85,0,1,0,94.693,18.972,14.868,14.868,0,0,0,79.842,4.121" fill="#3e145e"/>
  </g>
</svg>
