<svg id="Grupo_319" data-name="Grupo 319" xmlns="http://www.w3.org/2000/svg" xmlns:xlink="http://www.w3.org/1999/xlink" width="122.279" height="121.595" viewBox="0 0 122.279 121.595">
  <defs>
    <clipPath id="clip-path">
      <rect id="Rectángulo_201" data-name="Rectángulo 201" width="122.279" height="121.595" fill="none"/>
    </clipPath>
  </defs>
  <g id="Grupo_318" data-name="Grupo 318" clip-path="url(#clip-path)">
    <path id="Trazado_1918" data-name="Trazado 1918" d="M117.259,60.8a58.63,58.63,0,1,1-58.63-58.63,58.63,58.63,0,0,1,58.63,58.63" fill="#fff"/>
    <path id="Trazado_1919" data-name="Trazado 1919" d="M61.481,121.6a60.8,60.8,0,1,1,60.8-60.8,60.866,60.866,0,0,1-60.8,60.8m0-117.259A56.462,56.462,0,1,0,117.943,60.8,56.526,56.526,0,0,0,61.481,4.336" fill="#3e145e"/>
    <path id="Trazado_1920" data-name="Trazado 1920" d="M81.117,60.625A20.473,20.473,0,1,1,60.643,40.151,20.473,20.473,0,0,1,81.117,60.625" fill="#ffe227"/>
    <path id="Trazado_1921" data-name="Trazado 1921" d="M60.481,83.29A22.069,22.069,0,1,1,82.55,61.221,22.093,22.093,0,0,1,60.481,83.29m0-42.077A20.008,20.008,0,1,0,80.489,61.221,20.031,20.031,0,0,0,60.481,41.213" fill="#3e145e"/>
    <path id="Trazado_1922" data-name="Trazado 1922" d="M60.481,83.29c-6.232,0-11.114-9.694-11.114-22.069s4.882-22.069,11.114-22.069S71.6,48.845,71.6,61.221,66.713,83.29,60.481,83.29m0-42.077c-4.907,0-9.054,9.162-9.054,20.008s4.147,20.008,9.054,20.008,9.054-9.162,9.054-20.008-4.147-20.008-9.054-20.008" fill="#3e145e"/>
    <path id="Trazado_1923" data-name="Trazado 1923" d="M60.481,72.336c-12.375,0-22.068-4.883-22.068-11.115s9.693-11.115,22.068-11.115S82.55,54.988,82.55,61.221,72.857,72.336,60.481,72.336m0-20.169c-10.845,0-20.008,4.146-20.008,9.054s9.163,9.054,20.008,9.054,20.008-4.147,20.008-9.054-9.162-9.054-20.008-9.054" fill="#3e145e"/>
    <path id="Trazado_1924" data-name="Trazado 1924" d="M60.481,83.289a1.03,1.03,0,0,1-1.03-1.03V40.182a1.03,1.03,0,1,1,2.06,0V82.259a1.03,1.03,0,0,1-1.03,1.03" fill="#3e145e"/>
    <path id="Trazado_1925" data-name="Trazado 1925" d="M81.52,62.251H39.443a1.031,1.031,0,0,1,0-2.062H81.52a1.031,1.031,0,0,1,0,2.062" fill="#3e145e"/>
    <path id="Trazado_1926" data-name="Trazado 1926" d="M94.227,41.762a5.512,5.512,0,1,1,5.512-5.512,1.031,1.031,0,0,1-2.062,0,3.451,3.451,0,1,0-3.45,3.451,3.42,3.42,0,0,0,1.427-.308,1.03,1.03,0,1,1,.855,1.875,5.458,5.458,0,0,1-2.282.494" fill="#3e145e"/>
    <path id="Trazado_1927" data-name="Trazado 1927" d="M94.883,67.334A6.114,6.114,0,1,1,101,61.22a6.12,6.12,0,0,1-6.113,6.114m0-10.166a4.053,4.053,0,1,0,4.053,4.052,4.059,4.059,0,0,0-4.053-4.052" fill="#3e145e"/>
    <path id="Trazado_1928" data-name="Trazado 1928" d="M87.038,49.465H77.491a1.031,1.031,0,1,1,0-2.061h8.517V36.25a1.031,1.031,0,0,1,1.03-1.031h2.708a1.03,1.03,0,0,1,0,2.061H88.069V48.434a1.03,1.03,0,0,1-1.031,1.031" fill="#3e145e"/>
    <path id="Trazado_1929" data-name="Trazado 1929" d="M94.227,91.7a5.511,5.511,0,0,1-4.186-9.1,1.03,1.03,0,1,1,1.564,1.341,3.451,3.451,0,1,0,2.622-1.206,1.03,1.03,0,1,1,0-2.061,5.512,5.512,0,0,1,0,11.024" fill="#3e145e"/>
    <path id="Trazado_1930" data-name="Trazado 1930" d="M89.746,87.221H87.038a1.03,1.03,0,0,1-1.03-1.03V75.036H77.491a1.031,1.031,0,1,1,0-2.061h9.547a1.031,1.031,0,0,1,1.031,1.031V85.16h1.677a1.03,1.03,0,0,1,0,2.061" fill="#3e145e"/>
    <path id="Trazado_1931" data-name="Trazado 1931" d="M89.8,62.251h-5a1.031,1.031,0,0,1,0-2.062h5a1.031,1.031,0,0,1,0,2.062" fill="#3e145e"/>
    <path id="Trazado_1932" data-name="Trazado 1932" d="M26.735,41.762A5.516,5.516,0,0,1,21.7,34a1.031,1.031,0,0,1,1.883.842,3.414,3.414,0,0,0-.3,1.408,3.451,3.451,0,1,0,3.926-3.419,1.03,1.03,0,1,1,.279-2.042,5.512,5.512,0,0,1-.754,10.973" fill="#3e145e"/>
    <path id="Trazado_1933" data-name="Trazado 1933" d="M26.079,67.334A6.114,6.114,0,1,1,28.46,55.588a1.031,1.031,0,0,1-.8,1.9,4.053,4.053,0,1,0,2.476,3.734,3.982,3.982,0,0,0-.47-1.9,1.03,1.03,0,1,1,1.819-.968,6.114,6.114,0,0,1-5.4,8.977" fill="#3e145e"/>
    <path id="Trazado_1934" data-name="Trazado 1934" d="M43.471,49.465H33.924a1.03,1.03,0,0,1-1.031-1.031V37.28H31.216a1.03,1.03,0,0,1,0-2.061h2.708a1.031,1.031,0,0,1,1.03,1.031V47.4h8.517a1.031,1.031,0,1,1,0,2.061" fill="#3e145e"/>
    <path id="Trazado_1935" data-name="Trazado 1935" d="M27.024,91.694a1.031,1.031,0,0,1-.064-2.059,3.45,3.45,0,1,0-3.429-2.161,1.031,1.031,0,1,1-1.914.766,5.513,5.513,0,1,1,5.473,3.452c-.022,0-.044,0-.066,0" fill="#3e145e"/>
    <path id="Trazado_1936" data-name="Trazado 1936" d="M33.924,87.221H31.216a1.03,1.03,0,0,1,0-2.061h1.677V74.006a1.031,1.031,0,0,1,1.031-1.031h9.547a1.031,1.031,0,1,1,0,2.061H34.954V86.191a1.03,1.03,0,0,1-1.03,1.03" fill="#3e145e"/>
    <path id="Trazado_1937" data-name="Trazado 1937" d="M36.164,62.251h-5a1.031,1.031,0,1,1,0-2.062h5a1.031,1.031,0,0,1,0,2.062" fill="#3e145e"/>
  </g>
</svg>
