<svg id="Grupo_327" data-name="Grupo 327" xmlns="http://www.w3.org/2000/svg" xmlns:xlink="http://www.w3.org/1999/xlink" width="122.279" height="121.595" viewBox="0 0 122.279 121.595">
  <defs>
    <clipPath id="clip-path">
      <rect id="Rect치ngulo_206" data-name="Rect치ngulo 206" width="122.279" height="121.595" fill="none"/>
    </clipPath>
  </defs>
  <g id="Grupo_326" data-name="Grupo 326" clip-path="url(#clip-path)">
    <path id="Trazado_1987" data-name="Trazado 1987" d="M117.259,60.8A58.63,58.63,0,1,1,58.63,2.168,58.629,58.629,0,0,1,117.259,60.8" fill="#fff"/>
    <path id="Trazado_1988" data-name="Trazado 1988" d="M61.481,121.6a60.8,60.8,0,1,1,60.8-60.8,60.867,60.867,0,0,1-60.8,60.8m0-117.26A56.463,56.463,0,1,0,117.944,60.8,56.526,56.526,0,0,0,61.481,4.335" fill="#3e145e"/>
    <rect id="Rect치ngulo_205" data-name="Rect치ngulo 205" width="19.734" height="19.735" transform="translate(54.198 48.312)" fill="#ffe227"/>
    <path id="Trazado_1989" data-name="Trazado 1989" d="M95.026,79.451h-24a.75.75,0,0,1,0-1.5h24a.75.75,0,0,1,0,1.5m-28,0h-24a.75.75,0,0,1,0-1.5h24a.75.75,0,0,1,0,1.5m-28,0H30.508a.75.75,0,0,1-.75-.75V63.22a.75.75,0,0,1,1.5,0V77.951h7.768a.75.75,0,0,1,0,1.5m58.962-1.038a.75.75,0,0,1-.75-.75v-24a.75.75,0,0,1,1.5,0v24a.75.75,0,0,1-.75.75M30.508,59.97a.75.75,0,0,1-.75-.75V35.664a4.026,4.026,0,0,1,.035-.54.75.75,0,0,1,1.487.195,2.619,2.619,0,0,0-.022.345V59.22a.75.75,0,0,1-.75.75m67.48-9.557a.75.75,0,0,1-.75-.75v-14a2.7,2.7,0,0,0-2.694-2.694H89.952a.75.75,0,0,1,0-1.5h4.592a4.2,4.2,0,0,1,4.194,4.194v14a.75.75,0,0,1-.75.75M33,33.1a.75.75,0,0,1-.208-1.471,4.193,4.193,0,0,1,1.159-.164h24a.75.75,0,0,1,0,1.5h-24a2.7,2.7,0,0,0-.744.1A.753.753,0,0,1,33,33.1m52.952-.135h-24a.75.75,0,0,1,0-1.5h24a.75.75,0,0,1,0,1.5" fill="#3e145e"/>
    <path id="Trazado_1990" data-name="Trazado 1990" d="M100.653,90.125H83.843a.75.75,0,0,1,0-1.5h16.81a1.751,1.751,0,0,0,1.749-1.75V83.611a.75.75,0,0,1,1.5,0v3.264a3.253,3.253,0,0,1-3.249,3.25m-20.81,0h-24a.75.75,0,0,1,0-1.5h24a.75.75,0,0,1,0,1.5m-28,0h-24a3.254,3.254,0,0,1-3.25-3.25v-.751a.75.75,0,0,1,1.5,0v.751a1.752,1.752,0,0,0,1.75,1.75h24a.75.75,0,0,1,0,1.5m-26.5-7.251a.749.749,0,0,1-.75-.75v-.93a3.25,3.25,0,0,1,3.25-3.243H46.992a.75.75,0,1,1,0,1.5H27.844a1.749,1.749,0,0,0-1.75,1.743v.93a.75.75,0,0,1-.75.75m77.321-2.406a.751.751,0,0,1-.6-.3,1.763,1.763,0,0,0-1.408-.713H78.992a.75.75,0,0,1,0-1.5h21.663a3.265,3.265,0,0,1,2.612,1.32.75.75,0,0,1-.157,1.049.739.739,0,0,1-.445.148M74.992,79.451h-24a.75.75,0,0,1,0-1.5h24a.75.75,0,0,1,0,1.5" fill="#3e145e"/>
    <path id="Trazado_1991" data-name="Trazado 1991" d="M73.663,90.125H54.833a.75.75,0,0,1-.75-.75V82.743a.75.75,0,0,1,.75-.75H71.124a.75.75,0,0,1,0,1.5H55.583v5.132h17.33v-4.42a.75.75,0,0,1,1.5,0v5.17a.75.75,0,0,1-.75.75" fill="#3e145e"/>
    <path id="Trazado_1992" data-name="Trazado 1992" d="M93.739,79.452H87.153a.75.75,0,0,1,0-1.5h5.836V61.288a.75.75,0,0,1,1.5,0V78.7a.75.75,0,0,1-.75.75m-10.586,0h-24a.75.75,0,0,1,0-1.5h24a.75.75,0,0,1,0,1.5m-28,0h-20.4a.75.75,0,0,1-.75-.75V75.1a.75.75,0,0,1,1.5,0v2.854H55.153a.75.75,0,0,1,0,1.5m-20.4-7.6a.75.75,0,0,1-.75-.75v-24a.75.75,0,1,1,1.5,0v24a.75.75,0,0,1-.75.75m58.982-13.81a.75.75,0,0,1-.75-.75V37.02H90.757a.75.75,0,0,1,0-1.5h2.982a.75.75,0,0,1,.75.75V57.288a.75.75,0,0,1-.75.75M34.757,43.848a.75.75,0,0,1-.75-.75V36.27a.75.75,0,0,1,.75-.75h24a.75.75,0,0,1,0,1.5H35.507V43.1a.75.75,0,0,1-.75.75m52-6.828h-24a.75.75,0,0,1,0-1.5h24a.75.75,0,0,1,0,1.5" fill="#3e145e"/>
    <path id="Trazado_1993" data-name="Trazado 1993" d="M99.627,84.788H82.671a.75.75,0,0,1,0-1.5H99.627a.75.75,0,0,1,0,1.5" fill="#3e145e"/>
    <path id="Trazado_1994" data-name="Trazado 1994" d="M45.825,84.788H28.876a.75.75,0,0,1,0-1.5H45.825a.75.75,0,0,1,0,1.5" fill="#3e145e"/>
    <path id="Trazado_1995" data-name="Trazado 1995" d="M73.932,68.047h-1.5a.28.28,0,0,1,0-.561h1.22v-7.2a.28.28,0,0,1,.561,0v7.48a.281.281,0,0,1-.281.281m-3,0h-8.98a.28.28,0,0,1,0-.561h8.98a.28.28,0,1,1,0,.561m-10.476,0H54.478a.28.28,0,0,1-.28-.281v-3a.28.28,0,1,1,.56,0v2.718h5.7a.28.28,0,1,1,0,.561m-5.981-4.495a.28.28,0,0,1-.28-.281v-8.98a.28.28,0,1,1,.56,0v8.98a.28.28,0,0,1-.28.281m19.454-4.481a.28.28,0,0,1-.28-.281V49.811a.28.28,0,1,1,.561,0V58.79a.281.281,0,0,1-.281.281m-19.454-6a.28.28,0,0,1-.28-.281V48.312a.28.28,0,0,1,.28-.281h8.979a.281.281,0,1,1,0,.562h-8.7v4.2a.28.28,0,0,1-.28.281m19.454-4.482H64.954a.281.281,0,1,1,0-.562h8.978a.281.281,0,0,1,0,.562" fill="#3e145e"/>
    <path id="Trazado_1996" data-name="Trazado 1996" d="M71.987,66.014H68a.28.28,0,0,1,0-.561h3.7V60.735a.281.281,0,1,1,.562,0v5a.281.281,0,0,1-.28.281m-5.479,0H57.529a.28.28,0,1,1,0-.561h8.979a.28.28,0,1,1,0,.561m-10-.479a.281.281,0,0,1-.281-.281V56.275a.281.281,0,0,1,.561,0v8.979a.28.28,0,0,1-.28.281m15.476-6.016a.281.281,0,0,1-.282-.281v-8.87a.278.278,0,0,1-.257.17H62.467a.28.28,0,1,1,0-.56h8.981a.281.281,0,0,0,.539,0,.28.28,0,0,1,.28.28v8.98a.281.281,0,0,1-.28.281m-15.476-4.46a.281.281,0,0,1-.281-.281v-4.52a.28.28,0,0,1,.281-.28h4.46a.28.28,0,1,1,0,.56h-4.18v4.24a.281.281,0,0,1-.28.281" fill="#3e145e"/>
    <path id="Trazado_1997" data-name="Trazado 1997" d="M64.248,50.538a.28.28,0,0,1-.28-.277l-.042-3.891a.281.281,0,0,1,.157-.255l3.06-1.5a.281.281,0,0,1,.247.505l-2.9,1.419.04,3.714a.28.28,0,0,1-.278.283Z" fill="#3e145e"/>
    <path id="Trazado_1998" data-name="Trazado 1998" d="M77.4,61.335a.283.283,0,0,1-.253-.158l-1.4-2.9-3.759.04h0a.281.281,0,0,1,0-.561l3.937-.041h0a.279.279,0,0,1,.253.158l1.479,3.06a.282.282,0,0,1-.131.375.3.3,0,0,1-.122.027" fill="#3e145e"/>
    <path id="Trazado_1999" data-name="Trazado 1999" d="M64.206,46.648a.293.293,0,0,1-.125-.029L61.1,45.128a.28.28,0,0,1,.25-.5l2.98,1.49a.28.28,0,0,1-.126.531" fill="#3e145e"/>
    <path id="Trazado_2000" data-name="Trazado 2000" d="M75.923,58.277a.289.289,0,0,1-.124-.029.282.282,0,0,1-.127-.376l1.47-2.976a.281.281,0,0,1,.5.249L76.175,58.12a.281.281,0,0,1-.252.157" fill="#3e145e"/>
    <path id="Trazado_2001" data-name="Trazado 2001" d="M68.1,50.538a.276.276,0,0,1-.155-.047.28.28,0,0,1-.078-.389l3.888-5.836a.259.259,0,0,1,.236-.125l1.965.011a.281.281,0,0,1,0,.562h0L72.136,44.7l-3.8,5.711a.281.281,0,0,1-.234.125" fill="#3e145e"/>
    <path id="Trazado_2002" data-name="Trazado 2002" d="M77.855,68.012h0a.28.28,0,0,1-.279-.282l.009-1.8-5.751-3.766a.281.281,0,1,1,.307-.47l5.879,3.849a.284.284,0,0,1,.127.237l-.011,1.953a.28.28,0,0,1-.28.279" fill="#3e145e"/>
    <path id="Trazado_2003" data-name="Trazado 2003" d="M67.232,71.471a.28.28,0,0,1-.123-.028l-3.024-1.479a.28.28,0,0,1-.159-.252V65.821a.281.281,0,1,1,.562,0v3.716l2.867,1.4a.28.28,0,0,1-.123.532" fill="#3e145e"/>
    <path id="Trazado_2004" data-name="Trazado 2004" d="M51.08,61.335a.286.286,0,0,1-.123-.028.282.282,0,0,1-.129-.376l1.5-3.059a.281.281,0,0,1,.252-.157h3.934a.281.281,0,0,1,0,.561H52.753l-1.42,2.9a.282.282,0,0,1-.253.157" fill="#3e145e"/>
    <path id="Trazado_2005" data-name="Trazado 2005" d="M61.228,71.479a.28.28,0,0,1-.126-.531l2.98-1.487a.28.28,0,1,1,.25.5L61.353,71.45a.279.279,0,0,1-.125.029" fill="#3e145e"/>
    <path id="Trazado_2006" data-name="Trazado 2006" d="M52.578,58.277a.282.282,0,0,1-.252-.155l-1.489-2.98a.281.281,0,1,1,.5-.251l1.489,2.98a.281.281,0,0,1-.25.406" fill="#3e145e"/>
    <path id="Trazado_2007" data-name="Trazado 2007" d="M56.423,71.939H53.551a.281.281,0,0,1,0-.562h2.723l3.3-4.957a.281.281,0,0,1,.467.312l-3.388,5.082a.277.277,0,0,1-.233.125" fill="#3e145e"/>
    <path id="Trazado_2008" data-name="Trazado 2008" d="M55.707,53.889a.276.276,0,0,1-.155-.047l-5.075-3.4a.279.279,0,0,1-.125-.233V47.34a.28.28,0,1,1,.561,0v2.723l4.95,3.312a.282.282,0,0,1,.077.39.277.277,0,0,1-.233.124" fill="#3e145e"/>
    <path id="Trazado_2009" data-name="Trazado 2009" d="M68.1,62.127h-1.28a.281.281,0,0,1,0-.562h1V54.146a.281.281,0,0,1,.562,0v7.7a.281.281,0,0,1-.282.281m-2.776,0H60.4a.281.281,0,0,1-.281-.281V57.785a.28.28,0,1,1,.561,0v3.78h4.638a.281.281,0,0,1,0,.562M60.4,56.568a.28.28,0,0,1-.281-.28V54.146a.281.281,0,0,1,.281-.28h6.838a.28.28,0,1,1,0,.561H60.684v1.861a.28.28,0,0,1-.28.28" fill="#3e145e"/>
    <path id="Trazado_2010" data-name="Trazado 2010" d="M66.153,59.7H62.261a.281.281,0,0,1,0-.562h3.892a.281.281,0,0,1,0,.562" fill="#3e145e"/>
    <path id="Trazado_2011" data-name="Trazado 2011" d="M66.153,56.939H62.261a.281.281,0,0,1,0-.562h3.892a.281.281,0,0,1,0,.562" fill="#3e145e"/>
    <path id="Trazado_2012" data-name="Trazado 2012" d="M60.358,45.7a1.254,1.254,0,1,1,1.253-1.254A1.253,1.253,0,0,1,60.358,45.7m0-1.946a.693.693,0,1,0,.692.692.691.691,0,0,0-.692-.692" fill="#3e145e"/>
    <path id="Trazado_2013" data-name="Trazado 2013" d="M68.14,45.7a1.254,1.254,0,1,1,1.253-1.254A1.255,1.255,0,0,1,68.14,45.7m0-1.946a.693.693,0,1,0,.692.692.693.693,0,0,0-.692-.692" fill="#3e145e"/>
    <path id="Trazado_2014" data-name="Trazado 2014" d="M77.824,63.183a1.254,1.254,0,1,1,1.252-1.254,1.256,1.256,0,0,1-1.252,1.254m0-1.946a.693.693,0,1,0,.691.692.692.692,0,0,0-.691-.692" fill="#3e145e"/>
    <path id="Trazado_2015" data-name="Trazado 2015" d="M75.923,45.7a1.254,1.254,0,1,1,1.254-1.254A1.257,1.257,0,0,1,75.923,45.7m0-1.946a.693.693,0,1,0,.692.692.694.694,0,0,0-.692-.692" fill="#3e145e"/>
    <path id="Trazado_2016" data-name="Trazado 2016" d="M77.842,70.966A1.254,1.254,0,1,1,79.1,69.712a1.255,1.255,0,0,1-1.254,1.254m0-1.946a.693.693,0,1,0,.692.692.693.693,0,0,0-.692-.692" fill="#3e145e"/>
    <path id="Trazado_2017" data-name="Trazado 2017" d="M52.577,72.885a1.252,1.252,0,1,1,1.254-1.25,1.253,1.253,0,0,1-1.254,1.25m0-1.942a.69.69,0,1,0,.692.692.693.693,0,0,0-.692-.692" fill="#3e145e"/>
    <path id="Trazado_2018" data-name="Trazado 2018" d="M50.656,47.62a1.254,1.254,0,1,1,1.253-1.253,1.255,1.255,0,0,1-1.253,1.253m0-1.946a.693.693,0,1,0,.691.693.694.694,0,0,0-.691-.693" fill="#3e145e"/>
    <path id="Trazado_2019" data-name="Trazado 2019" d="M60.358,72.885a1.252,1.252,0,1,1,1.253-1.25,1.251,1.251,0,0,1-1.253,1.25m0-1.942a.69.69,0,1,0,.692.692.691.691,0,0,0-.692-.692" fill="#3e145e"/>
    <path id="Trazado_2020" data-name="Trazado 2020" d="M50.656,55.4a1.254,1.254,0,1,1,1.253-1.258A1.258,1.258,0,0,1,50.656,55.4m0-1.945a.692.692,0,1,0,.691.687.691.691,0,0,0-.691-.687" fill="#3e145e"/>
    <path id="Trazado_2021" data-name="Trazado 2021" d="M50.656,63.183a1.254,1.254,0,1,1,1.253-1.254,1.256,1.256,0,0,1-1.253,1.254m0-1.946a.693.693,0,1,0,.691.692.693.693,0,0,0-.691-.692" fill="#3e145e"/>
    <path id="Trazado_2022" data-name="Trazado 2022" d="M68.1,72.885a1.252,1.252,0,1,1,1.255-1.25,1.253,1.253,0,0,1-1.255,1.25m0-1.942a.691.691,0,1,0,.693.692.693.693,0,0,0-.693-.692" fill="#3e145e"/>
    <path id="Trazado_2023" data-name="Trazado 2023" d="M77.824,55.4a1.254,1.254,0,1,1,1.252-1.258A1.258,1.258,0,0,1,77.824,55.4m0-1.945a.692.692,0,1,0,.691.687.69.69,0,0,0-.691-.687" fill="#3e145e"/>
  </g>
</svg>
