<svg id="Grupo_321" data-name="Grupo 321" xmlns="http://www.w3.org/2000/svg" xmlns:xlink="http://www.w3.org/1999/xlink" width="122.279" height="121.595" viewBox="0 0 122.279 121.595">
  <defs>
    <clipPath id="clip-path">
      <rect id="Rectángulo_202" data-name="Rectángulo 202" width="122.279" height="121.595" fill="none"/>
    </clipPath>
  </defs>
  <g id="Grupo_320" data-name="Grupo 320" clip-path="url(#clip-path)">
    <path id="Trazado_1938" data-name="Trazado 1938" d="M117.259,60.8A58.63,58.63,0,1,1,58.629,2.168,58.63,58.63,0,0,1,117.259,60.8" fill="#fff"/>
    <path id="Trazado_1939" data-name="Trazado 1939" d="M61.481,121.6a60.8,60.8,0,1,1,60.8-60.8,60.868,60.868,0,0,1-60.8,60.8m0-117.26A56.462,56.462,0,1,0,117.943,60.8,56.526,56.526,0,0,0,61.481,4.336" fill="#3e145e"/>
    <path id="Trazado_1940" data-name="Trazado 1940" d="M52.167,47.509H75.958s2.816-1.711,2.816,4.78l1.78,22.343s6.877-.283,3.705,6.522l-25.22.584s-6.364,2.14-7.024-6.051Z" fill="#ffe227"/>
    <path id="Trazado_1941" data-name="Trazado 1941" d="M46.964,79.2H32.5a4.407,4.407,0,0,1-4.4-4.4V38.992a4.408,4.408,0,0,1,4.4-4.4H84.759a4.408,4.408,0,0,1,4.4,4.4v1.847a.889.889,0,1,1-1.778,0V38.992a2.628,2.628,0,0,0-2.624-2.625H32.5a2.628,2.628,0,0,0-2.624,2.625V74.8A2.628,2.628,0,0,0,32.5,77.423H46.964a.889.889,0,0,1,0,1.778" fill="#3e145e"/>
    <path id="Trazado_1942" data-name="Trazado 1942" d="M88.273,71.075a.889.889,0,0,1-.89-.889V68.407a.889.889,0,0,1,1.779,0v1.779a.889.889,0,0,1-.889.889" fill="#3e145e"/>
    <path id="Trazado_1943" data-name="Trazado 1943" d="M88.273,62.849a.889.889,0,0,1-.89-.889V58.736a.889.889,0,0,1,1.779,0V61.96a.889.889,0,0,1-.889.889m0-9.671a.889.889,0,0,1-.89-.889V49.065a.889.889,0,0,1,1.779,0v3.224a.889.889,0,0,1-.889.889" fill="#3e145e"/>
    <path id="Trazado_1944" data-name="Trazado 1944" d="M88.273,43.507a.889.889,0,0,1-.89-.89V40.839a.889.889,0,0,1,1.779,0v1.778a.889.889,0,0,1-.889.89" fill="#3e145e"/>
    <path id="Trazado_1945" data-name="Trazado 1945" d="M88.273,75.687a.889.889,0,0,1-.89-.889V70.186a.889.889,0,0,1,1.779,0V74.8a.889.889,0,0,1-.889.889" fill="#3e145e"/>
    <path id="Trazado_1946" data-name="Trazado 1946" d="M46.964,72.854H28.986a.89.89,0,0,1,0-1.779H46.964a.889.889,0,0,1,0,1.779" fill="#3e145e"/>
    <path id="Trazado_1947" data-name="Trazado 1947" d="M67.751,91.455H49.508a.89.89,0,0,1-.89-.889V86.305a.891.891,0,0,1,.89-.89h3.4a.889.889,0,1,1,0,1.779H50.4v2.483H66.861V87.194H64.355a.889.889,0,1,1,0-1.779h3.4a.89.89,0,0,1,.889.89v4.261a.889.889,0,0,1-.889.889" fill="#3e145e"/>
    <path id="Trazado_1948" data-name="Trazado 1948" d="M60.192,87.194H52.9a.89.89,0,0,1-.89-.89V84.748a.89.89,0,0,1,1.78,0v.667h6.4a.889.889,0,1,1,0,1.779" fill="#3e145e"/>
    <path id="Trazado_1949" data-name="Trazado 1949" d="M88.273,91.455H28.987a.889.889,0,1,1,0-1.778H88.273a.889.889,0,0,1,0,1.778" fill="#3e145e"/>
    <path id="Trazado_1950" data-name="Trazado 1950" d="M81.443,82.933H55.95a.889.889,0,1,1,0-1.779,2.816,2.816,0,1,0,0-5.632.89.89,0,1,1,0-1.779H81.443a4.6,4.6,0,0,1,0,9.19M59.578,81.154H81.443a2.816,2.816,0,1,0,0-5.632H59.578a4.584,4.584,0,0,1,0,5.632" fill="#3e145e"/>
    <path id="Trazado_1951" data-name="Trazado 1951" d="M55.939,82.931a4.3,4.3,0,0,1-.438-.021,4.717,4.717,0,0,1-4.146-4.732V50.324a2.819,2.819,0,0,0-2.816-2.815.889.889,0,1,1,0-1.779H75.958a4.6,4.6,0,0,1,4.6,4.594V74.632a.891.891,0,0,1-.89.89H59.577a4.592,4.592,0,0,1-3.638,7.409M52.167,47.509a4.574,4.574,0,0,1,.967,2.815V78.178A2.925,2.925,0,0,0,55.67,81.14a2.816,2.816,0,1,0,.279-5.618.89.89,0,0,1,0-1.779H78.774V50.324a2.819,2.819,0,0,0-2.816-2.815Z" fill="#3e145e"/>
    <path id="Trazado_1952" data-name="Trazado 1952" d="M73.976,54.067H57.858a.889.889,0,1,1,0-1.778H73.976a.889.889,0,1,1,0,1.778" fill="#3e145e"/>
    <path id="Trazado_1953" data-name="Trazado 1953" d="M73.976,58.848H57.858a.889.889,0,1,1,0-1.779H73.976a.889.889,0,1,1,0,1.779" fill="#3e145e"/>
    <path id="Trazado_1954" data-name="Trazado 1954" d="M73.976,63.628H57.858a.889.889,0,1,1,0-1.778H73.976a.889.889,0,1,1,0,1.778" fill="#3e145e"/>
    <path id="Trazado_1955" data-name="Trazado 1955" d="M73.976,68.407H57.858a.889.889,0,1,1,0-1.778H73.976a.889.889,0,1,1,0,1.778" fill="#3e145e"/>
  </g>
</svg>
