<svg id="Grupo_315" data-name="Grupo 315" xmlns="http://www.w3.org/2000/svg" xmlns:xlink="http://www.w3.org/1999/xlink" width="122.279" height="121.595" viewBox="0 0 122.279 121.595">
  <defs>
    <clipPath id="clip-path">
      <rect id="Rect치ngulo_199" data-name="Rect치ngulo 199" width="122.279" height="121.595" fill="none"/>
    </clipPath>
  </defs>
  <g id="Grupo_314" data-name="Grupo 314" clip-path="url(#clip-path)">
    <path id="Trazado_1866" data-name="Trazado 1866" d="M117.259,60.8a58.63,58.63,0,1,1-58.63-58.63,58.629,58.629,0,0,1,58.63,58.63" fill="#fff"/>
    <path id="Trazado_1867" data-name="Trazado 1867" d="M61.481,121.6a60.8,60.8,0,1,1,60.8-60.8,60.866,60.866,0,0,1-60.8,60.8m0-117.259A56.462,56.462,0,1,0,117.943,60.8,56.525,56.525,0,0,0,61.481,4.336" fill="#3e145e"/>
    <rect id="Rect치ngulo_198" data-name="Rect치ngulo 198" width="70.432" height="38.063" transform="translate(24.616 42.928)" fill="#ffe227"/>
    <path id="Trazado_1868" data-name="Trazado 1868" d="M91.1,36.087H89.157a.974.974,0,1,1,0-1.947H91.1a.974.974,0,1,1,0,1.947" fill="#3e145e"/>
    <path id="Trazado_1869" data-name="Trazado 1869" d="M82.266,36.087H78.821a.974.974,0,1,1,0-1.947h3.445a.974.974,0,1,1,0,1.947m-10.335,0H68.487a.974.974,0,1,1,0-1.947h3.444a.974.974,0,1,1,0,1.947" fill="#3e145e"/>
    <path id="Trazado_1870" data-name="Trazado 1870" d="M61.6,36.087H59.65a.974.974,0,1,1,0-1.947H61.6a.974.974,0,1,1,0,1.947" fill="#3e145e"/>
    <path id="Trazado_1871" data-name="Trazado 1871" d="M91.1,86.883H29.535a5.9,5.9,0,0,1-5.892-5.892V40.032a5.9,5.9,0,0,1,5.892-5.892H59.65a.974.974,0,1,1,0,1.947H29.535a3.95,3.95,0,0,0-3.945,3.945V80.991a3.95,3.95,0,0,0,3.945,3.945H91.1a3.949,3.949,0,0,0,3.944-3.945V40.032A3.949,3.949,0,0,0,91.1,36.087a.974.974,0,1,1,0-1.947A5.9,5.9,0,0,1,97,40.032V80.991A5.9,5.9,0,0,1,91.1,86.883" fill="#3e145e"/>
    <path id="Trazado_1872" data-name="Trazado 1872" d="M96.022,44.875H24.617a.974.974,0,1,1,0-1.948H96.022a.974.974,0,0,1,0,1.948" fill="#3e145e"/>
    <path id="Trazado_1873" data-name="Trazado 1873" d="M61.5,40.481H51.15a.973.973,0,0,1,0-1.947H61.5a.973.973,0,1,1,0,1.947" fill="#3e145e"/>
    <path id="Trazado_1874" data-name="Trazado 1874" d="M33.2,39.507a1.728,1.728,0,1,0-1.728,1.729A1.728,1.728,0,0,0,33.2,39.507" fill="#3e145e"/>
    <path id="Trazado_1875" data-name="Trazado 1875" d="M38.049,39.507a1.728,1.728,0,1,0-1.729,1.729,1.728,1.728,0,0,0,1.729-1.729" fill="#3e145e"/>
    <path id="Trazado_1876" data-name="Trazado 1876" d="M42.9,39.507a1.728,1.728,0,1,0-1.729,1.729A1.729,1.729,0,0,0,42.9,39.507" fill="#3e145e"/>
    <path id="Trazado_1877" data-name="Trazado 1877" d="M88.456,51.91h-8.52a.974.974,0,0,1,0-1.948h8.52a.974.974,0,0,1,0,1.948" fill="#3e145e"/>
    <path id="Trazado_1878" data-name="Trazado 1878" d="M44.03,51.91H42.083a.974.974,0,0,1,0-1.948H44.03a.974.974,0,1,1,0,1.948" fill="#3e145e"/>
    <path id="Trazado_1879" data-name="Trazado 1879" d="M57.954,51.91H53.313a.974.974,0,0,1,0-1.948h4.641a.974.974,0,1,1,0,1.948" fill="#3e145e"/>
    <path id="Trazado_1880" data-name="Trazado 1880" d="M69.184,51.91H67.237a.974.974,0,0,1,0-1.948h1.947a.974.974,0,0,1,0,1.948" fill="#3e145e"/>
    <path id="Trazado_1881" data-name="Trazado 1881" d="M32.873,51.91H30.764a.974.974,0,0,1,0-1.948h2.109a.974.974,0,0,1,0,1.948" fill="#3e145e"/>
    <path id="Trazado_1882" data-name="Trazado 1882" d="M88.456,61.214H86.833a.974.974,0,1,1,0-1.947h1.623a.974.974,0,1,1,0,1.947" fill="#3e145e"/>
    <path id="Trazado_1883" data-name="Trazado 1883" d="M48.8,61.214H46.849a.974.974,0,1,1,0-1.947H48.8a.974.974,0,1,1,0,1.947" fill="#3e145e"/>
    <path id="Trazado_1884" data-name="Trazado 1884" d="M69.473,61.214H66.027a.974.974,0,1,1,0-1.947h3.446a.974.974,0,1,1,0,1.947m-10.338,0H55.689a.974.974,0,1,1,0-1.947h3.446a.974.974,0,1,1,0,1.947" fill="#3e145e"/>
    <path id="Trazado_1885" data-name="Trazado 1885" d="M78.312,61.214H76.365a.974.974,0,1,1,0-1.947h1.947a.974.974,0,1,1,0,1.947" fill="#3e145e"/>
    <path id="Trazado_1886" data-name="Trazado 1886" d="M38.3,61.214H30.764a.974.974,0,1,1,0-1.947H38.3a.974.974,0,1,1,0,1.947" fill="#3e145e"/>
    <path id="Trazado_1887" data-name="Trazado 1887" d="M88.456,70.519H70a.973.973,0,1,1,0-1.947h18.46a.973.973,0,1,1,0,1.947" fill="#3e145e"/>
    <path id="Trazado_1888" data-name="Trazado 1888" d="M41.454,70.519H39.507a.973.973,0,1,1,0-1.947h1.947a.973.973,0,1,1,0,1.947" fill="#3e145e"/>
    <path id="Trazado_1889" data-name="Trazado 1889" d="M52.809,70.519H49.024a.973.973,0,1,1,0-1.947h3.785a.974.974,0,1,1,0,1.947" fill="#3e145e"/>
    <path id="Trazado_1890" data-name="Trazado 1890" d="M62.328,70.519H60.381a.973.973,0,1,1,0-1.947h1.947a.973.973,0,1,1,0,1.947" fill="#3e145e"/>
    <path id="Trazado_1891" data-name="Trazado 1891" d="M31.513,70.519h-.75a.973.973,0,1,1,0-1.947h.75a.973.973,0,1,1,0,1.947" fill="#3e145e"/>
    <path id="Trazado_1892" data-name="Trazado 1892" d="M88.456,79.823H30.764a.973.973,0,1,1,0-1.947H88.456a.973.973,0,1,1,0,1.947" fill="#3e145e"/>
    <path id="Trazado_1893" data-name="Trazado 1893" d="M38.615,54.344a.971.971,0,0,1-.655-.253l-2.678-2.435a.974.974,0,0,1,0-1.44l2.678-2.434a.973.973,0,1,1,1.31,1.44l-1.884,1.714L39.27,52.65a.973.973,0,0,1-.655,1.694" fill="#3e145e"/>
    <path id="Trazado_1894" data-name="Trazado 1894" d="M44.236,63.649a.971.971,0,0,1-.654-.253L40.9,60.961a.974.974,0,0,1,0-1.44l2.678-2.435a.974.974,0,1,1,1.31,1.441l-1.885,1.714,1.885,1.714a.973.973,0,0,1-.656,1.694" fill="#3e145e"/>
    <path id="Trazado_1895" data-name="Trazado 1895" d="M36.987,72.953a.971.971,0,0,1-.655-.253l-2.678-2.435a.974.974,0,0,1,0-1.44l2.678-2.434a.973.973,0,1,1,1.31,1.44l-1.884,1.714,1.884,1.714a.973.973,0,0,1-.655,1.694" fill="#3e145e"/>
    <path id="Trazado_1896" data-name="Trazado 1896" d="M63.795,72.953a.973.973,0,0,1-.655-1.694l1.884-1.714L63.14,67.831a.973.973,0,1,1,1.31-1.44l2.678,2.434a.974.974,0,0,1,0,1.44L64.45,72.7a.971.971,0,0,1-.655.253" fill="#3e145e"/>
    <path id="Trazado_1897" data-name="Trazado 1897" d="M81.138,63.649a.973.973,0,0,1-.655-1.694l1.884-1.714-1.884-1.714a.974.974,0,1,1,1.31-1.441l2.678,2.435a.974.974,0,0,1,0,1.44L81.793,63.4a.976.976,0,0,1-.655.253" fill="#3e145e"/>
    <path id="Trazado_1898" data-name="Trazado 1898" d="M72.494,54.344a.973.973,0,0,1-.655-1.694l1.884-1.714-1.884-1.714a.973.973,0,1,1,1.309-1.44l2.678,2.434a.974.974,0,0,1,0,1.44l-2.678,2.435a.967.967,0,0,1-.654.253" fill="#3e145e"/>
  </g>
</svg>
