<svg id="Grupo_317" data-name="Grupo 317" xmlns="http://www.w3.org/2000/svg" xmlns:xlink="http://www.w3.org/1999/xlink" width="122.279" height="121.595" viewBox="0 0 122.279 121.595">
  <defs>
    <clipPath id="clip-path">
      <rect id="Rectángulo_200" data-name="Rectángulo 200" width="122.279" height="121.595" fill="none"/>
    </clipPath>
  </defs>
  <g id="Grupo_316" data-name="Grupo 316" clip-path="url(#clip-path)">
    <path id="Trazado_1899" data-name="Trazado 1899" d="M117.259,60.8a58.63,58.63,0,1,1-58.63-58.63,58.629,58.629,0,0,1,58.63,58.63" fill="#fff"/>
    <path id="Trazado_1900" data-name="Trazado 1900" d="M61.481,121.6a60.8,60.8,0,1,1,60.8-60.8,60.867,60.867,0,0,1-60.8,60.8m0-117.259A56.462,56.462,0,1,0,117.943,60.8,56.526,56.526,0,0,0,61.481,4.336" fill="#3e145e"/>
    <path id="Trazado_1901" data-name="Trazado 1901" d="M79.272,54.649A20.871,20.871,0,1,1,58.4,33.777,20.871,20.871,0,0,1,79.272,54.649" fill="#ffe227"/>
    <path id="Trazado_1902" data-name="Trazado 1902" d="M75.552,88.8H41.706a1.141,1.141,0,0,1-1.141-1.141V79.931a1.141,1.141,0,0,1,1.141-1.142H75.552a1.142,1.142,0,0,1,1.142,1.142v7.728A1.141,1.141,0,0,1,75.552,88.8m-32.7-2.284H74.411V81.072H42.849Z" fill="#3e145e"/>
    <path id="Trazado_1903" data-name="Trazado 1903" d="M92.408,81.072H24.852a4.122,4.122,0,0,1-4.118-4.117V32.695a4.122,4.122,0,0,1,4.118-4.117H92.408a4.122,4.122,0,0,1,4.117,4.117v44.26a4.122,4.122,0,0,1-4.117,4.117M24.852,30.862a1.835,1.835,0,0,0-1.834,1.833v44.26a1.836,1.836,0,0,0,1.834,1.834H92.408a1.836,1.836,0,0,0,1.834-1.834V32.695a1.836,1.836,0,0,0-1.834-1.833Z" fill="#3e145e"/>
    <path id="Trazado_1904" data-name="Trazado 1904" d="M41.4,74.874H28.359a1.142,1.142,0,0,1-1.142-1.142V35.919a1.142,1.142,0,0,1,1.142-1.142H41.4a1.142,1.142,0,1,1,0,2.284H29.5V72.59H41.4a1.142,1.142,0,1,1,0,2.284" fill="#3e145e"/>
    <path id="Trazado_1905" data-name="Trazado 1905" d="M88.9,74.874H76.213a1.142,1.142,0,0,1,0-2.284H87.759V37.061H76.213a1.142,1.142,0,0,1,0-2.284H88.9a1.142,1.142,0,0,1,1.142,1.142V73.732A1.142,1.142,0,0,1,88.9,74.874" fill="#3e145e"/>
    <path id="Trazado_1906" data-name="Trazado 1906" d="M91.539,98.719H24.593a1.142,1.142,0,0,1,0-2.284H91.539a1.142,1.142,0,1,1,0,2.284" fill="#3e145e"/>
    <path id="Trazado_1907" data-name="Trazado 1907" d="M38.077,55.968a1.142,1.142,0,0,1-1.142-1.142A21.72,21.72,0,0,1,58.63,33.132a21.482,21.482,0,0,1,13.229,4.5,1.142,1.142,0,0,1-1.393,1.809A19.226,19.226,0,0,0,58.63,35.415,19.433,19.433,0,0,0,39.22,54.826a1.142,1.142,0,0,1-1.143,1.142" fill="#3e145e"/>
    <path id="Trazado_1908" data-name="Trazado 1908" d="M58.629,76.52a21.685,21.685,0,0,1-14.173-5.27,1.141,1.141,0,0,1,1.492-1.727,19.412,19.412,0,0,0,32.092-14.7,1.141,1.141,0,1,1,2.283,0A21.718,21.718,0,0,1,58.629,76.52" fill="#3e145e"/>
    <path id="Trazado_1909" data-name="Trazado 1909" d="M58.63,76.52a21.767,21.767,0,0,1-5.519-.734,1.143,1.143,0,0,1-.567-.351C48.877,71.255,46.6,63.358,46.6,54.826s2.279-16.43,5.946-20.609a1.138,1.138,0,0,1,.567-.352,21.22,21.22,0,0,1,11.037,0,1.152,1.152,0,0,1,.569.352c3.667,4.179,5.945,12.077,5.945,20.609s-2.278,16.429-5.945,20.609a1.157,1.157,0,0,1-.569.351,21.759,21.759,0,0,1-5.518.734m-4.6-2.856a18.8,18.8,0,0,0,9.189,0c3.186-3.851,5.154-11.019,5.154-18.838S66.41,39.838,63.224,35.987a18.8,18.8,0,0,0-9.189,0c-3.185,3.851-5.152,11.019-5.152,18.839s1.967,14.987,5.152,18.838" fill="#3e145e"/>
    <path id="Trazado_1910" data-name="Trazado 1910" d="M58.629,66.857a44.724,44.724,0,0,1-10.072-1.1,1.142,1.142,0,0,1,.515-2.226,42.384,42.384,0,0,0,9.557,1.046c7.82,0,14.988-1.968,18.839-5.153a19.328,19.328,0,0,0,.572-4.595,1.141,1.141,0,0,1,2.283,0,21.81,21.81,0,0,1-.733,5.519,1.152,1.152,0,0,1-.352.568c-4.179,3.667-12.076,5.945-20.609,5.945" fill="#3e145e"/>
    <path id="Trazado_1911" data-name="Trazado 1911" d="M38.077,55.968a1.142,1.142,0,0,1-1.142-1.142,21.724,21.724,0,0,1,.735-5.519,1.133,1.133,0,0,1,.351-.568C42.2,45.072,50.1,42.794,58.63,42.794A44.655,44.655,0,0,1,68.711,43.9a1.142,1.142,0,0,1-.517,2.224,42.362,42.362,0,0,0-9.564-1.047c-7.82,0-14.988,1.968-18.838,5.153a19.327,19.327,0,0,0-.572,4.6,1.142,1.142,0,0,1-1.143,1.142" fill="#3e145e"/>
    <path id="Trazado_1912" data-name="Trazado 1912" d="M58.629,76.52a1.142,1.142,0,0,1-1.142-1.142v-41.1a1.143,1.143,0,0,1,2.285,0v41.1a1.142,1.142,0,0,1-1.143,1.142" fill="#3e145e"/>
    <path id="Trazado_1913" data-name="Trazado 1913" d="M79.182,55.968h-41.1a1.142,1.142,0,0,1,0-2.284h41.1a1.142,1.142,0,0,1,0,2.284" fill="#3e145e"/>
    <path id="Trazado_1914" data-name="Trazado 1914" d="M82.122,52.353h-8.6a1.142,1.142,0,0,1-1.142-1.142V42.616a1.142,1.142,0,0,1,1.142-1.142h5.465a1.142,1.142,0,1,1,0,2.284H74.668v6.311H80.98V48.236a1.142,1.142,0,1,1,2.284,0v2.975a1.142,1.142,0,0,1-1.142,1.142" fill="#3e145e"/>
    <path id="Trazado_1915" data-name="Trazado 1915" d="M43.473,68.177h-8.6a1.142,1.142,0,0,1-1.142-1.142v-8.6A1.141,1.141,0,0,1,34.878,57.3h8.6a1.142,1.142,0,0,1,1.143,1.141v8.6a1.142,1.142,0,0,1-1.143,1.142M36.02,65.893h6.312V59.581H36.02Z" fill="#3e145e"/>
    <path id="Trazado_1916" data-name="Trazado 1916" d="M78.341,48.7a1.138,1.138,0,0,1-.8-.325l-1.363-1.333a1.142,1.142,0,1,1,1.6-1.633l.592.579,4.472-4.078a1.142,1.142,0,0,1,1.539,1.688L79.11,48.4a1.138,1.138,0,0,1-.769.3" fill="#3e145e"/>
    <path id="Trazado_1917" data-name="Trazado 1917" d="M82.02,98.718H35.24A4.122,4.122,0,0,1,31.122,94.6V92.617a6.108,6.108,0,0,1,6.1-6.1H80.036a6.108,6.108,0,0,1,6.1,6.1V94.6a4.122,4.122,0,0,1-4.117,4.117M37.223,88.8a3.822,3.822,0,0,0-3.817,3.817V94.6a1.836,1.836,0,0,0,1.834,1.834H82.02A1.836,1.836,0,0,0,83.853,94.6V92.617A3.821,3.821,0,0,0,80.036,88.8Z" fill="#3e145e"/>
  </g>
</svg>
