<svg id="Grupo_318" data-name="Grupo 318" xmlns="http://www.w3.org/2000/svg" xmlns:xlink="http://www.w3.org/1999/xlink" width="122.279" height="121.595" viewBox="0 0 122.279 121.595">
  <defs>
    <clipPath id="clip-path">
      <rect id="Rectángulo_156" data-name="Rectángulo 156" width="122.279" height="121.595" fill="none"/>
    </clipPath>
  </defs>
  <g id="Grupo_317" data-name="Grupo 317" clip-path="url(#clip-path)">
    <path id="Trazado_1495" data-name="Trazado 1495" d="M117.259,60.8A58.63,58.63,0,1,1,58.63,2.168,58.63,58.63,0,0,1,117.259,60.8" fill="#fff"/>
    <path id="Trazado_1496" data-name="Trazado 1496" d="M61.481,121.6a60.8,60.8,0,1,1,60.8-60.8,60.867,60.867,0,0,1-60.8,60.8m0-117.26A56.462,56.462,0,1,0,117.944,60.8,56.526,56.526,0,0,0,61.481,4.336" fill="#3e145e"/>
    <path id="Trazado_1497" data-name="Trazado 1497" d="M92.4,74.451a1.185,1.185,0,0,1-1.186-1.185V38.915a1.183,1.183,0,0,0-1.18-1.182h-50.7a1.182,1.182,0,0,0-1.181,1.182V73.266a1.185,1.185,0,0,1-2.37,0V38.915a3.555,3.555,0,0,1,3.551-3.551h50.7a3.556,3.556,0,0,1,3.551,3.551V73.266A1.185,1.185,0,0,1,92.4,74.451" fill="#3e145e"/>
    <path id="Trazado_1498" data-name="Trazado 1498" d="M98.2,70.118a1.185,1.185,0,0,1-1.186-1.186V67.037a1.186,1.186,0,0,1,2.371,0v1.895A1.185,1.185,0,0,1,98.2,70.118" fill="#3e145e"/>
    <path id="Trazado_1499" data-name="Trazado 1499" d="M98.2,61.129a1.187,1.187,0,0,1-1.186-1.186V56.4a1.186,1.186,0,0,1,2.371,0v3.547A1.186,1.186,0,0,1,98.2,61.129m0-10.642A1.185,1.185,0,0,1,97.017,49.3V45.756a1.186,1.186,0,0,1,2.371,0V49.3A1.185,1.185,0,0,1,98.2,50.487" fill="#3e145e"/>
    <path id="Trazado_1500" data-name="Trazado 1500" d="M98.2,39.847a1.185,1.185,0,0,1-1.186-1.186v-1.9a1.186,1.186,0,0,1,2.371,0v1.9A1.185,1.185,0,0,1,98.2,39.847" fill="#3e145e"/>
    <path id="Trazado_1501" data-name="Trazado 1501" d="M95.011,79.984H34.363a4.382,4.382,0,0,1-4.377-4.377V34.46a4.381,4.381,0,0,1,4.377-4.377H95.011a4.382,4.382,0,0,1,4.377,4.377v2.306a1.185,1.185,0,1,1-2.37,0V34.46a2.009,2.009,0,0,0-2.007-2.007H34.363a2.009,2.009,0,0,0-2.007,2.007V75.607a2.009,2.009,0,0,0,2.007,2.007H95.011a2.01,2.01,0,0,0,2.007-2.007V68.932a1.185,1.185,0,0,1,2.37,0v6.675a4.383,4.383,0,0,1-4.377,4.377" fill="#3e145e"/>
    <path id="Trazado_1502" data-name="Trazado 1502" d="M98.2,74.451H31.171a1.185,1.185,0,1,1,0-2.37H98.2a1.185,1.185,0,0,1,0,2.37" fill="#3e145e"/>
    <path id="Trazado_1503" data-name="Trazado 1503" d="M75.52,84.879H53.853a3.166,3.166,0,0,1-3.162-3.163V78.8a1.184,1.184,0,0,1,1.184-1.185H77.5A1.185,1.185,0,0,1,78.683,78.8v2.917a3.167,3.167,0,0,1-3.163,3.163M53.061,79.984v1.732a.793.793,0,0,0,.792.792H75.52a.793.793,0,0,0,.793-.792V79.984Z" fill="#3e145e"/>
    <path id="Trazado_1504" data-name="Trazado 1504" d="M80.747,93.883H48.625a1.185,1.185,0,0,1-.491-2.263A9.06,9.06,0,0,0,53.6,83.7a1.19,1.19,0,0,1,1.185-1.193h19.8A1.185,1.185,0,0,1,75.771,83.7a9.062,9.062,0,0,0,5.468,7.919,1.185,1.185,0,0,1-.492,2.263M52.5,91.513H76.871A11.47,11.47,0,0,1,73.5,84.878H55.874A11.474,11.474,0,0,1,52.5,91.513" fill="#3e145e"/>
    <path id="Trazado_1505" data-name="Trazado 1505" d="M92.4,93.884H36.972a1.185,1.185,0,0,1,0-2.37H92.4a1.185,1.185,0,0,1,0,2.37" fill="#3e145e"/>
    <path id="Trazado_1506" data-name="Trazado 1506" d="M64.687,72.081a.608.608,0,0,1-.609-.609V61.136a.609.609,0,1,1,1.218,0V71.472a.608.608,0,0,1-.609.609" fill="#3e145e"/>
    <path id="Trazado_1507" data-name="Trazado 1507" d="M61.08,59.569a.608.608,0,0,1-.609-.609V51.442a.609.609,0,0,1,1.218,0V58.96a.609.609,0,0,1-.609.609" fill="#3e145e"/>
    <path id="Trazado_1508" data-name="Trazado 1508" d="M68.295,72.081H61.081a.61.61,0,0,1-.61-.61v-11.9h-1.9a.607.607,0,0,1-.609-.634l.488-12.153a.608.608,0,0,1,.608-.585H70.315a.608.608,0,0,1,.608.585l.489,12.153a.608.608,0,0,1-.61.634H68.9v11.9a.61.61,0,0,1-.609.61m-6.6-1.218h5.995V58.96a.611.611,0,0,1,.61-.61h1.874L69.73,47.416H59.644L59.207,58.35h1.874a.61.61,0,0,1,.609.61Z" fill="#3e145e"/>
    <path id="Trazado_1509" data-name="Trazado 1509" d="M68.294,59.569a.608.608,0,0,1-.609-.609V51.442a.609.609,0,0,1,1.218,0V58.96a.609.609,0,0,1-.609.609" fill="#3e145e"/>
    <path id="Trazado_1510" data-name="Trazado 1510" d="M64.687,45.318a3.35,3.35,0,1,1,3.35-3.349,3.353,3.353,0,0,1-3.35,3.349m0-5.481a2.131,2.131,0,1,0,2.131,2.132,2.134,2.134,0,0,0-2.131-2.132" fill="#3e145e"/>
    <path id="Trazado_1511" data-name="Trazado 1511" d="M68.294,58.436H61.08a.61.61,0,0,1,0-1.219h7.214a.61.61,0,0,1,0,1.219" fill="#3e145e"/>
    <path id="Trazado_1512" data-name="Trazado 1512" d="M5.852,56.352l5.186.865,4.736-4.286L20.132,51.3l3.979-.707,8.245-5.272,3.2-.607v4.626L32.961,50.65l-3.734,3.208-3.776,4.16H48.464l2.227.418-.984,2.09-.775,1.457-10.774-.15s5.718,4.749-2.933,5.868c0,0,4.5,1.535.817,4.72,0,0,1.522,5.288-4.92,4.292l-9.493.624-6.423-2.886L9.553,70.965l-3.7,1.577s-1.126-13.2-.833-15.357Z" fill="#ffe227"/>
    <path id="Trazado_1513" data-name="Trazado 1513" d="M48.464,62.86a3.255,3.255,0,0,0,0-6.508H27.531L33.9,52.028a6.213,6.213,0,0,0,2.658-3.988,3.332,3.332,0,0,0-1-3.328,2.609,2.609,0,0,0-2-.63c-1.92.194-3.685,2.306-4.015,2.722-.361.348-3.943,3.678-8.677,3.678a9.605,9.605,0,0,0-7.506,3.449A11.63,11.63,0,0,1,11.1,56a1.952,1.952,0,0,1-1.12.353H5.852a.833.833,0,1,0,0,1.666h4.13a3.612,3.612,0,0,0,2.073-.653A13.231,13.231,0,0,0,14.634,55a7.963,7.963,0,0,1,6.229-2.853,15.169,15.169,0,0,0,9.892-4.2l.065-.075c.4-.518,1.8-2.02,2.9-2.132a.925.925,0,0,1,.743.236c.164.141.664.572.449,1.772a4.536,4.536,0,0,1-1.953,2.9l-8.083,5.491a1.027,1.027,0,0,0,.572,1.877H48.464a1.589,1.589,0,0,1,0,3.176H31.443a.833.833,0,1,0,0,1.666h5.673a1.589,1.589,0,0,1,0,3.175H29.551a.833.833,0,1,0,0,1.666h5.674a1.589,1.589,0,0,1,0,3.176H27.659a.833.833,0,0,0,0,1.666h5.675a1.589,1.589,0,0,1,0,3.175H22.7a12.176,12.176,0,0,1-6.2-1.705l-2.684-1.59a11.073,11.073,0,0,0-5.632-1.546H5.852a.833.833,0,0,0,0,1.666H8.183a9.4,9.4,0,0,1,4.782,1.314l2.685,1.59A13.855,13.855,0,0,0,22.7,77.384H33.334a3.25,3.25,0,0,0,2.708-4.962,3.246,3.246,0,0,0,1.891-4.842,3.234,3.234,0,0,0,1.956-4.72Z" fill="#3e145e"/>
  </g>
</svg>
