<svg id="Grupo_324" data-name="Grupo 324" xmlns="http://www.w3.org/2000/svg" xmlns:xlink="http://www.w3.org/1999/xlink" width="122.279" height="121.595" viewBox="0 0 122.279 121.595">
  <defs>
    <clipPath id="clip-path">
      <rect id="Rectángulo_160" data-name="Rectángulo 160" width="122.279" height="121.595" fill="none"/>
    </clipPath>
  </defs>
  <g id="Grupo_323" data-name="Grupo 323" clip-path="url(#clip-path)">
    <path id="Trazado_1543" data-name="Trazado 1543" d="M117.26,60.8A58.63,58.63,0,1,1,58.63,2.168,58.631,58.631,0,0,1,117.26,60.8" fill="#fff"/>
    <path id="Trazado_1544" data-name="Trazado 1544" d="M61.481,121.6a60.8,60.8,0,1,1,60.8-60.8,60.868,60.868,0,0,1-60.8,60.8m0-117.26A56.462,56.462,0,1,0,117.943,60.8,56.526,56.526,0,0,0,61.481,4.336" fill="#3e145e"/>
    <path id="Trazado_1545" data-name="Trazado 1545" d="M48.419,44.659l14.092-2.492L73.6,45.023l-1.3,5,2.812,5.66,1.577,8.086v8.716l-.631,5.432-5.606-1.929a14.922,14.922,0,0,0-6.105-.85c-2.816.379-.542-.438-.542-.438s-3.669,3-7.326,0l-8.062,3.217s-6-14.74,2.355-25.749Z" fill="#ffe227"/>
    <path id="Trazado_1546" data-name="Trazado 1546" d="M61.458,101.63a10.162,10.162,0,0,1-1.127-.063,9.921,9.921,0,0,1-7.216-15.2H39.189a3.286,3.286,0,0,1-3.282-3.281V69.163a9.925,9.925,0,0,1-15.2-9.516,9.92,9.92,0,0,1,15.2-7.216V38.5a3.286,3.286,0,0,1,3.282-3.281H53.115a9.927,9.927,0,1,1,16.733,0H83.774A3.285,3.285,0,0,1,87.055,38.5V52.431a9.925,9.925,0,1,1,0,16.732V83.09a3.285,3.285,0,0,1-3.281,3.281H69.848a9.921,9.921,0,0,1-8.39,15.259M37.17,65.144a1.256,1.256,0,0,1,1.262,1.262V83.09a.758.758,0,0,0,.757.757H55.873a1.262,1.262,0,0,1,.818,2.223,7.4,7.4,0,1,0,9.581,0,1.262,1.262,0,0,1,.817-2.223H83.774a.758.758,0,0,0,.757-.757V66.406a1.262,1.262,0,0,1,2.223-.819,7.4,7.4,0,1,0,0-9.581,1.262,1.262,0,0,1-2.223-.817V38.5a.758.758,0,0,0-.757-.757H67.09a1.262,1.262,0,0,1-.818-2.222A7.4,7.4,0,0,0,62.35,22.536a7.334,7.334,0,0,0-5.8,1.83,7.393,7.393,0,0,0,.14,11.158,1.261,1.261,0,0,1-.817,2.223H39.189a.757.757,0,0,0-.757.757V55.189a1.262,1.262,0,0,1-2.223.817,7.4,7.4,0,0,0-12.99,3.924,7.4,7.4,0,0,0,12.989,5.657,1.264,1.264,0,0,1,.962-.443" fill="#3e145e"/>
    <path id="Trazado_1547" data-name="Trazado 1547" d="M47.925,79.918a1.263,1.263,0,0,1-1.206-.891c-.245-.8-5.876-19.584,4.014-28.979a1.262,1.262,0,0,1,1.738,1.83c-7.358,6.989-4.745,20.758-3.692,25.079a40.754,40.754,0,0,1,4.454-1.152,1.262,1.262,0,1,1,.515,2.47,25.684,25.684,0,0,0-5.259,1.509,1.254,1.254,0,0,1-.564.134" fill="#3e145e"/>
    <path id="Trazado_1548" data-name="Trazado 1548" d="M75.729,79.918a1.263,1.263,0,0,1-.8-.283,13.742,13.742,0,0,0-4.817-2.3,1.262,1.262,0,1,1,.6-2.45A16.209,16.209,0,0,1,74.8,76.534c1.735-11.542.258-20.077-4.3-24.752A1.261,1.261,0,1,1,72.3,50.021c5.475,5.612,7.046,15.32,4.67,28.854a1.26,1.26,0,0,1-1.242,1.043" fill="#3e145e"/>
    <path id="Trazado_1549" data-name="Trazado 1549" d="M61.166,77.224c-.264,0-.529-.011-.8-.034A8.839,8.839,0,0,1,52.6,71.1c-.089-.27-.134-.445-.146-.49a39.333,39.333,0,0,1-.385-6.913,1.261,1.261,0,0,1,1.169-1.19c3.984-.285,6.467-5.028,6.491-5.075a1.262,1.262,0,0,1,2.258.026c2.261,4.659,7.435,6.13,7.487,6.144a1.266,1.266,0,0,1,.923,1.092,23.09,23.09,0,0,1-.381,5.8,1.253,1.253,0,0,1-.108.339c-.239.548-.493,1.076-.756,1.571a8.936,8.936,0,0,1-7.985,4.823m-6.254-7.186c.016.056.042.146.082.266a6.353,6.353,0,0,0,5.584,4.372,6.482,6.482,0,0,0,6.344-3.457c.213-.4.424-.835.629-1.3a24.568,24.568,0,0,0,.378-4.176A15.677,15.677,0,0,1,60.806,60.4a11.289,11.289,0,0,1-6.239,4.456,39.025,39.025,0,0,0,.345,5.184" fill="#3e145e"/>
    <path id="Trazado_1550" data-name="Trazado 1550" d="M69.6,55.974a1.271,1.271,0,0,1-.521-.113,23.624,23.624,0,0,0-7.616-1.472A23.7,23.7,0,0,0,53.9,55.861a1.263,1.263,0,0,1-1.664-.61l-4.253-9a1.26,1.26,0,0,1,.44-1.589c.184-.121,4.571-2.981,13.066-2.981s12.884,2.86,13.067,2.981a1.263,1.263,0,0,1,.441,1.589l-4.254,9a1.262,1.262,0,0,1-1.142.723M61.46,51.867a28.144,28.144,0,0,1,7.5,1.238L72.2,46.257A25.552,25.552,0,0,0,61.485,44.2a25.563,25.563,0,0,0-10.711,2.056L54.01,53.1a28.121,28.121,0,0,1,7.45-1.238" fill="#3e145e"/>
    <path id="Trazado_1551" data-name="Trazado 1551" d="M61.249,51.223a1.263,1.263,0,0,1-1.262-1.262V46.285a1.262,1.262,0,1,1,2.524,0v3.676a1.262,1.262,0,0,1-1.262,1.262" fill="#3e145e"/>
    <path id="Trazado_1552" data-name="Trazado 1552" d="M63.087,49.385H59.411a1.261,1.261,0,1,1,0-2.523h3.676a1.261,1.261,0,1,1,0,2.523" fill="#3e145e"/>
  </g>
</svg>
