<svg id="Grupo_316" data-name="Grupo 316" xmlns="http://www.w3.org/2000/svg" xmlns:xlink="http://www.w3.org/1999/xlink" width="121.595" height="121.595" viewBox="0 0 121.595 121.595">
  <defs>
    <clipPath id="clip-path">
      <rect id="Rectángulo_155" data-name="Rectángulo 155" width="121.595" height="121.595" fill="none"/>
    </clipPath>
  </defs>
  <g id="Grupo_315" data-name="Grupo 315" clip-path="url(#clip-path)">
    <path id="Trazado_1475" data-name="Trazado 1475" d="M119.154,60.8a58.629,58.629,0,1,1-58.63-58.63,58.63,58.63,0,0,1,58.63,58.63" fill="#fff"/>
    <path id="Trazado_1476" data-name="Trazado 1476" d="M60.8,121.6a60.8,60.8,0,1,1,60.8-60.8,60.868,60.868,0,0,1-60.8,60.8m0-117.26A56.462,56.462,0,1,0,117.259,60.8,56.526,56.526,0,0,0,60.8,4.336" fill="#3e145e"/>
    <path id="Trazado_1477" data-name="Trazado 1477" d="M60.046,41.958,60.937,56.5l-8.309.783-4.9,6.228-2.562-6.4-7.412.327.811-10.733Z" fill="#ffe227"/>
    <path id="Trazado_1478" data-name="Trazado 1478" d="M63.617,23.156l20.8,4.547V38.618l-5.409,1.219-1.634,4.509-6.536-5.728-9.9-.665Z" fill="#ffe227"/>
    <path id="Trazado_1479" data-name="Trazado 1479" d="M85.725,89.374h-50.4A11.479,11.479,0,0,1,23.857,77.908a1.194,1.194,0,0,1,1.195-1.195H96a1.2,1.2,0,0,1,1.194,1.195A11.478,11.478,0,0,1,85.725,89.374M26.324,79.1a9.093,9.093,0,0,0,9,7.884h50.4a9.093,9.093,0,0,0,9-7.884Z" fill="#3e145e"/>
    <path id="Trazado_1480" data-name="Trazado 1480" d="M93.966,79.1H27.081a1.194,1.194,0,0,1-1.194-1.194V39.529a4.065,4.065,0,0,1,4.06-4.061H55.415a1.195,1.195,0,1,1,0,2.389H29.947a1.674,1.674,0,0,0-1.671,1.672V76.713h64.5V39.529A1.674,1.674,0,0,0,91.1,37.857h-.81a1.195,1.195,0,0,1,0-2.389h.81a4.065,4.065,0,0,1,4.06,4.061V77.908A1.194,1.194,0,0,1,93.966,79.1" fill="#3e145e"/>
    <path id="Trazado_1481" data-name="Trazado 1481" d="M68.632,44.346H64.811a1.195,1.195,0,1,1,0-2.389h3.821a1.195,1.195,0,0,1,0,2.389" fill="#3e145e"/>
    <path id="Trazado_1482" data-name="Trazado 1482" d="M86.72,72.732H34.327a1.2,1.2,0,0,1-1.039-.605c-.156-.278-.3-.5-.431-.7a3.133,3.133,0,0,1-.679-1.753V44.084a2.14,2.14,0,0,1,2.149-2.126h3.889a1.194,1.194,0,0,1,0,2.388H34.567V69.673c.018.026.172.265.3.455l.137.215H86.047l.138-.215a3.866,3.866,0,0,0,.3-.512l-.007-25.27h-3.6a1.194,1.194,0,1,1,0-2.388H86.72a2.14,2.14,0,0,1,2.15,2.126V69.673a3.14,3.14,0,0,1-.679,1.753c-.127.2-.275.423-.431.7a1.2,1.2,0,0,1-1.04.605" fill="#3e145e"/>
    <path id="Trazado_1483" data-name="Trazado 1483" d="M46.848,65.223a1.106,1.106,0,0,1-.19-.015,1.2,1.2,0,0,1-.907-.706l-2.478-5.739-4.361-.125a1.194,1.194,0,0,1-1.16-1.194V46.177a1.193,1.193,0,0,1,.947-1.168l21.135-4.484a1.195,1.195,0,0,1,1.438,1.069l1.252,14.872a1.2,1.2,0,0,1-1.07,1.288l-8.169.831-5.544,6.237a1.2,1.2,0,0,1-.893.4m-6.707-8.94L44.1,56.4a1.193,1.193,0,0,1,1.062.72L47.2,61.834l4.606-5.184a1.2,1.2,0,0,1,.771-.394l7.466-.759-1.04-12.355-18.864,4Z" fill="#3e145e"/>
    <path id="Trazado_1484" data-name="Trazado 1484" d="M50.994,51.3a1.634,1.634,0,1,1-1.634-1.634A1.634,1.634,0,0,1,50.994,51.3" fill="#3e145e"/>
    <path id="Trazado_1485" data-name="Trazado 1485" d="M46.092,52.224a1.634,1.634,0,1,1-1.634-1.634,1.634,1.634,0,0,1,1.634,1.634" fill="#3e145e"/>
    <path id="Trazado_1486" data-name="Trazado 1486" d="M55.9,50.273a1.635,1.635,0,1,1-1.635-1.634A1.634,1.634,0,0,1,55.9,50.273" fill="#3e145e"/>
    <path id="Trazado_1487" data-name="Trazado 1487" d="M76.615,46.711a1.192,1.192,0,0,1-.891-.4L70.18,40.072l-8.171-.831a1.2,1.2,0,0,1-1.07-1.288l1.253-14.872a1.195,1.195,0,0,1,1.438-1.069L84.765,26.5a1.194,1.194,0,0,1,.947,1.168V38.931a1.2,1.2,0,0,1-1.161,1.194l-4.361.124-2.478,5.74a1.2,1.2,0,0,1-.906.706,1.119,1.119,0,0,1-.191.016m-13.2-9.728,7.466.76a1.19,1.19,0,0,1,.771.394l4.608,5.184L78.3,38.6a1.191,1.191,0,0,1,1.061-.72l3.961-.113V28.631l-18.863-4Z" fill="#3e145e"/>
    <path id="Trazado_1488" data-name="Trazado 1488" d="M72.47,32.785A1.634,1.634,0,1,0,74.1,31.151a1.635,1.635,0,0,0-1.634,1.634" fill="#3e145e"/>
    <path id="Trazado_1489" data-name="Trazado 1489" d="M77.373,33.712a1.634,1.634,0,1,0,1.634-1.634,1.635,1.635,0,0,0-1.634,1.634" fill="#3e145e"/>
    <path id="Trazado_1490" data-name="Trazado 1490" d="M67.569,31.761A1.634,1.634,0,1,0,69.2,30.126a1.634,1.634,0,0,0-1.634,1.635" fill="#3e145e"/>
    <path id="Trazado_1491" data-name="Trazado 1491" d="M55.176,69.045H42.117a1.195,1.195,0,0,1,0-2.389H55.176a1.195,1.195,0,0,1,0,2.389" fill="#3e145e"/>
    <path id="Trazado_1492" data-name="Trazado 1492" d="M81.133,50.532H69.667a1.195,1.195,0,0,1,0-2.389H81.133a1.195,1.195,0,1,1,0,2.389" fill="#3e145e"/>
    <path id="Trazado_1493" data-name="Trazado 1493" d="M81.133,61.983H63.377a1.195,1.195,0,0,1,0-2.389H81.133a1.195,1.195,0,1,1,0,2.389" fill="#3e145e"/>
    <path id="Trazado_1494" data-name="Trazado 1494" d="M72.116,84.239H48.932a1.2,1.2,0,0,1,0-2.39H72.116a1.2,1.2,0,0,1,0,2.39" fill="#3e145e"/>
  </g>
</svg>
