<svg id="Grupo_314" data-name="Grupo 314" xmlns="http://www.w3.org/2000/svg" xmlns:xlink="http://www.w3.org/1999/xlink" width="121.595" height="121.595" viewBox="0 0 121.595 121.595">
  <defs>
    <clipPath id="clip-path">
      <rect id="Rectángulo_154" data-name="Rectángulo 154" width="121.595" height="121.595" fill="none"/>
    </clipPath>
  </defs>
  <g id="Grupo_313" data-name="Grupo 313" clip-path="url(#clip-path)">
    <path id="Trazado_1466" data-name="Trazado 1466" d="M120.1,60.8a58.629,58.629,0,1,1-58.63-58.63A58.63,58.63,0,0,1,120.1,60.8" fill="#fff"/>
    <path id="Trazado_1467" data-name="Trazado 1467" d="M60.8,121.6a60.8,60.8,0,1,1,60.8-60.8,60.867,60.867,0,0,1-60.8,60.8m0-117.26A56.462,56.462,0,1,0,117.26,60.8,56.526,56.526,0,0,0,60.8,4.336" fill="#3e145e"/>
    <path id="Trazado_1468" data-name="Trazado 1468" d="M34.848,48.143l13.9-.06L50.009,51.3v9.5l.754,4.611L53.668,67.3l3.284-1.011,1.827-2.652V56.692L60.8,53.156l4.619.632L66.3,55.68v3.665l.632,5.937L69.079,67.3l3.79-.758,1.3-3.411V46.587H86.89v29.4H34.848Z" fill="#ffe227"/>
    <path id="Trazado_1469" data-name="Trazado 1469" d="M89.7,92.06H31.894A7.065,7.065,0,0,1,24.837,85V82.723A1.261,1.261,0,0,1,26.1,81.462H95.5a1.261,1.261,0,0,1,1.261,1.261V85A7.064,7.064,0,0,1,89.7,92.06M27.36,83.985V85a4.538,4.538,0,0,0,4.534,4.533H89.7A4.538,4.538,0,0,0,94.236,85V83.985Z" fill="#3e145e"/>
    <path id="Trazado_1470" data-name="Trazado 1470" d="M93.131,83.985H28.464A1.261,1.261,0,0,1,27.2,82.723V42.742a3.284,3.284,0,0,1,3.281-3.28H37.7a1.261,1.261,0,1,1,0,2.523H30.483a.758.758,0,0,0-.757.757v38.72H91.869V42.742a.758.758,0,0,0-.757-.757H82.448a1.261,1.261,0,0,1,0-2.523h8.664a3.284,3.284,0,0,1,3.281,3.28V82.723a1.261,1.261,0,0,1-1.262,1.262" fill="#3e145e"/>
    <path id="Trazado_1471" data-name="Trazado 1471" d="M86.949,77.373h-52.3a1.262,1.262,0,0,1-1.261-1.262V47.336a1.262,1.262,0,0,1,1.261-1.262h5.658a1.262,1.262,0,1,1,0,2.524h-4.4V74.85H85.687V48.6H79.094a1.262,1.262,0,1,1,0-2.524h7.855a1.262,1.262,0,0,1,1.261,1.262V76.111a1.261,1.261,0,0,1-1.261,1.262" fill="#3e145e"/>
    <path id="Trazado_1472" data-name="Trazado 1472" d="M50.009,49.345a8.78,8.78,0,0,1-8.77-8.77v-7.76a3.286,3.286,0,0,1,3.282-3.281,1.262,1.262,0,0,1,0,2.524.758.758,0,0,0-.757.757v7.76a6.246,6.246,0,1,0,12.491,0v-7.76a.758.758,0,0,0-.757-.757,1.262,1.262,0,0,1,0-2.524,3.285,3.285,0,0,1,3.281,3.281v7.76a8.78,8.78,0,0,1-8.77,8.77" fill="#3e145e"/>
    <path id="Trazado_1473" data-name="Trazado 1473" d="M70.23,68.272a5.212,5.212,0,0,1-5.205-5.205V56.6a2.461,2.461,0,1,0-4.921,0v5.993a5.678,5.678,0,1,1-11.356,0V48.084a1.262,1.262,0,1,1,2.523,0V62.593a3.155,3.155,0,1,0,6.31,0V56.6a4.983,4.983,0,1,1,9.967,0v6.467a2.682,2.682,0,0,0,5.364,0V42.657a1.261,1.261,0,1,1,2.523,0v20.41a5.211,5.211,0,0,1-5.2,5.205" fill="#3e145e"/>
    <path id="Trazado_1474" data-name="Trazado 1474" d="M74.173,43.919a6.182,6.182,0,1,1,6.183-6.183,6.191,6.191,0,0,1-6.183,6.183m0-9.842a3.659,3.659,0,1,0,3.659,3.659,3.663,3.663,0,0,0-3.659-3.659" fill="#3e145e"/>
  </g>
</svg>
